<?xml version="1.0" encoding="UTF-8" standalone="no"?>
<!DOCTYPE svg PUBLIC "-//W3C//DTD SVG 1.1//EN"
 "http://www.w3.org/Graphics/SVG/1.1/DTD/svg11.dtd">
<!-- Generated by graphviz version 2.38.0 (20140413.2041)
 -->
<!-- Title: RigidTrack/_modelest.h Pages: 1 -->
<svg width="798pt" height="151pt"
 viewBox="0.00 0.00 798.00 151.00" xmlns="http://www.w3.org/2000/svg" xmlns:xlink="http://www.w3.org/1999/xlink">
<g id="graph0" class="graph" transform="scale(1 1) rotate(0) translate(4 147)">
<title>RigidTrack/_modelest.h</title>
<polygon fill="white" stroke="none" points="-4,4 -4,-147 794,-147 794,4 -4,4"/>
<!-- Node0 -->
<g id="node1" class="node"><title>Node0</title>
<polygon fill="#bfbfbf" stroke="black" points="410.5,-123.5 410.5,-142.5 529.5,-142.5 529.5,-123.5 410.5,-123.5"/>
<text text-anchor="middle" x="470" y="-130.5" font-family="Helvetica,sans-Serif" font-size="10.00">RigidTrack/_modelest.h</text>
</g>
<!-- Node1 -->
<g id="node2" class="node"><title>Node1</title>
<g id="a_node2"><a xlink:href="precomp_8hpp.html" target="_top" xlink:title="precomp.hpp">
<polygon fill="white" stroke="black" points="433.5,-67.5 433.5,-86.5 506.5,-86.5 506.5,-67.5 433.5,-67.5"/>
<text text-anchor="middle" x="470" y="-74.5" font-family="Helvetica,sans-Serif" font-size="10.00">precomp.hpp</text>
</a>
</g>
</g>
<!-- Node0&#45;&gt;Node1 -->
<g id="edge1" class="edge"><title>Node0&#45;&gt;Node1</title>
<path fill="none" stroke="midnightblue" d="M470,-123.083C470,-116.006 470,-105.861 470,-96.9865"/>
<polygon fill="midnightblue" stroke="midnightblue" points="473.5,-96.751 470,-86.7511 466.5,-96.7511 473.5,-96.751"/>
</g>
<!-- Node2 -->
<g id="node3" class="node"><title>Node2</title>
<polygon fill="white" stroke="#bfbfbf" points="0,-6 0,-25 138,-25 138,-6 0,-6"/>
<text text-anchor="middle" x="69" y="-13" font-family="Helvetica,sans-Serif" font-size="10.00">opencv2/calib3d/calib3d.hpp</text>
</g>
<!-- Node1&#45;&gt;Node2 -->
<g id="edge2" class="edge"><title>Node1&#45;&gt;Node2</title>
<path fill="none" stroke="midnightblue" d="M433.104,-71.4132C373.028,-63.8207 250.387,-47.8027 147,-31 139.257,-29.7416 131.099,-28.3255 123.093,-26.884"/>
<polygon fill="midnightblue" stroke="midnightblue" points="123.543,-23.4084 113.077,-25.0547 122.285,-30.2945 123.543,-23.4084"/>
</g>
<!-- Node3 -->
<g id="node4" class="node"><title>Node3</title>
<polygon fill="white" stroke="#bfbfbf" points="156,-6 156,-25 302,-25 302,-6 156,-6"/>
<text text-anchor="middle" x="229" y="-13" font-family="Helvetica,sans-Serif" font-size="10.00">opencv2/imgproc/imgproc.hpp</text>
</g>
<!-- Node1&#45;&gt;Node3 -->
<g id="edge3" class="edge"><title>Node1&#45;&gt;Node3</title>
<path fill="none" stroke="midnightblue" d="M435.471,-67.4751C392.788,-56.9374 320.079,-38.9863 273.318,-27.4415"/>
<polygon fill="midnightblue" stroke="midnightblue" points="274.013,-24.0081 263.465,-25.0091 272.335,-30.804 274.013,-24.0081"/>
</g>
<!-- Node4 -->
<g id="node5" class="node"><title>Node4</title>
<polygon fill="white" stroke="#bfbfbf" points="320,-6 320,-25 466,-25 466,-6 320,-6"/>
<text text-anchor="middle" x="393" y="-13" font-family="Helvetica,sans-Serif" font-size="10.00">opencv2/imgproc/imgproc_c.h</text>
</g>
<!-- Node1&#45;&gt;Node4 -->
<g id="edge4" class="edge"><title>Node1&#45;&gt;Node4</title>
<path fill="none" stroke="midnightblue" d="M458.968,-67.4751C446.732,-58.0199 426.771,-42.5961 412.007,-31.1871"/>
<polygon fill="midnightblue" stroke="midnightblue" points="414.065,-28.3541 404.012,-25.0091 409.785,-33.8931 414.065,-28.3541"/>
</g>
<!-- Node5 -->
<g id="node6" class="node"><title>Node5</title>
<polygon fill="white" stroke="#bfbfbf" points="484.5,-6 484.5,-25 611.5,-25 611.5,-6 484.5,-6"/>
<text text-anchor="middle" x="548" y="-13" font-family="Helvetica,sans-Serif" font-size="10.00">opencv2/core/internal.hpp</text>
</g>
<!-- Node1&#45;&gt;Node5 -->
<g id="edge5" class="edge"><title>Node1&#45;&gt;Node5</title>
<path fill="none" stroke="midnightblue" d="M481.175,-67.4751C493.571,-58.0199 513.79,-42.5961 528.746,-31.1871"/>
<polygon fill="midnightblue" stroke="midnightblue" points="531.017,-33.857 536.845,-25.0091 526.772,-28.2914 531.017,-33.857"/>
</g>
<!-- Node6 -->
<g id="node7" class="node"><title>Node6</title>
<polygon fill="white" stroke="#bfbfbf" points="630,-0.5 630,-30.5 730,-30.5 730,-0.5 630,-0.5"/>
<text text-anchor="start" x="638" y="-18.5" font-family="Helvetica,sans-Serif" font-size="10.00">opencv2/features2d</text>
<text text-anchor="middle" x="680" y="-7.5" font-family="Helvetica,sans-Serif" font-size="10.00">/features2d.hpp</text>
</g>
<!-- Node1&#45;&gt;Node6 -->
<g id="edge6" class="edge"><title>Node1&#45;&gt;Node6</title>
<path fill="none" stroke="midnightblue" d="M500.088,-67.4751C531.453,-58.5882 581.428,-44.4288 620.756,-33.2859"/>
<polygon fill="midnightblue" stroke="midnightblue" points="621.84,-36.6165 630.507,-30.523 619.932,-29.8816 621.84,-36.6165"/>
</g>
<!-- Node7 -->
<g id="node8" class="node"><title>Node7</title>
<polygon fill="white" stroke="#bfbfbf" points="748,-6 748,-25 790,-25 790,-6 748,-6"/>
<text text-anchor="middle" x="769" y="-13" font-family="Helvetica,sans-Serif" font-size="10.00">vector</text>
</g>
<!-- Node1&#45;&gt;Node7 -->
<g id="edge7" class="edge"><title>Node1&#45;&gt;Node7</title>
<path fill="none" stroke="midnightblue" d="M506.888,-73.1691C559.451,-68.3912 658.457,-56.6217 739,-31 740.668,-30.4695 742.36,-29.862 744.048,-29.2029"/>
<polygon fill="midnightblue" stroke="midnightblue" points="745.731,-32.2856 753.465,-25.044 742.904,-25.8822 745.731,-32.2856"/>
</g>
</g>
</svg>
