<?xml version="1.0" encoding="UTF-8" standalone="no"?>
<!DOCTYPE svg PUBLIC "-//W3C//DTD SVG 1.1//EN"
 "http://www.w3.org/Graphics/SVG/1.1/DTD/svg11.dtd">
<!-- Generated by graphviz version 2.38.0 (20140413.2041)
 -->
<!-- Title: RigidTrack/RigidTrack.h Pages: 1 -->
<svg width="270pt" height="140pt"
 viewBox="0.00 0.00 269.50 140.00" xmlns="http://www.w3.org/2000/svg" xmlns:xlink="http://www.w3.org/1999/xlink">
<g id="graph0" class="graph" transform="scale(1 1) rotate(0) translate(4 136)">
<title>RigidTrack/RigidTrack.h</title>
<polygon fill="white" stroke="none" points="-4,4 -4,-136 265.5,-136 265.5,4 -4,4"/>
<!-- Node34 -->
<g id="node1" class="node"><title>Node34</title>
<polygon fill="#bfbfbf" stroke="black" points="65,-112.5 65,-131.5 184,-131.5 184,-112.5 65,-112.5"/>
<text text-anchor="middle" x="124.5" y="-119.5" font-family="Helvetica,sans-Serif" font-size="10.00">RigidTrack/RigidTrack.h</text>
</g>
<!-- Node35 -->
<g id="node2" class="node"><title>Node35</title>
<g id="a_node2"><a xlink:href="main_8cpp.html" target="_top" xlink:title="Rigid Track main file that contains most functionallity. ">
<polygon fill="white" stroke="black" points="0,-0.5 0,-19.5 105,-19.5 105,-0.5 0,-0.5"/>
<text text-anchor="middle" x="52.5" y="-7.5" font-family="Helvetica,sans-Serif" font-size="10.00">RigidTrack/main.cpp</text>
</a>
</g>
</g>
<!-- Node34&#45;&gt;Node35 -->
<g id="edge1" class="edge"><title>Node34&#45;&gt;Node35</title>
<path fill="none" stroke="midnightblue" d="M99.7116,-106.895C88.2713,-99.1751 75.4855,-88.6064 67.5,-76 56.2207,-58.1939 53.3977,-32.8527 52.7081,-19.6902"/>
<polygon fill="midnightblue" stroke="midnightblue" points="98.162,-110.057 108.481,-112.461 101.913,-104.147 98.162,-110.057"/>
</g>
<!-- Node36 -->
<g id="node3" class="node"><title>Node36</title>
<g id="a_node3"><a xlink:href="main_8h.html" target="_top" xlink:title="Header file for main.cpp. ">
<polygon fill="white" stroke="black" points="77,-56.5 77,-75.5 172,-75.5 172,-56.5 77,-56.5"/>
<text text-anchor="middle" x="124.5" y="-63.5" font-family="Helvetica,sans-Serif" font-size="10.00">RigidTrack/main.h</text>
</a>
</g>
</g>
<!-- Node34&#45;&gt;Node36 -->
<g id="edge2" class="edge"><title>Node34&#45;&gt;Node36</title>
<path fill="none" stroke="midnightblue" d="M118.028,-102.101C117.396,-93.1357 117.843,-82.8579 119.369,-75.7511"/>
<polygon fill="midnightblue" stroke="midnightblue" points="114.566,-102.622 119.334,-112.083 121.507,-101.713 114.566,-102.622"/>
</g>
<!-- Node37 -->
<g id="node4" class="node"><title>Node37</title>
<g id="a_node4"><a xlink:href="_rigid_track_8cpp.html" target="_top" xlink:title="Rigid Track GUI source that contains functions for GUI events. ">
<polygon fill="white" stroke="black" points="131.5,-0.5 131.5,-19.5 261.5,-19.5 261.5,-0.5 131.5,-0.5"/>
<text text-anchor="middle" x="196.5" y="-7.5" font-family="Helvetica,sans-Serif" font-size="10.00">RigidTrack/RigidTrack.cpp</text>
</a>
</g>
</g>
<!-- Node34&#45;&gt;Node37 -->
<g id="edge6" class="edge"><title>Node34&#45;&gt;Node37</title>
<path fill="none" stroke="midnightblue" d="M148.775,-106.757C159.995,-99.0038 172.564,-88.4471 180.5,-76 191.871,-58.1656 195.161,-32.8364 196.113,-19.6831"/>
<polygon fill="midnightblue" stroke="midnightblue" points="146.647,-103.966 140.179,-112.357 150.468,-109.831 146.647,-103.966"/>
</g>
<!-- Node36&#45;&gt;Node34 -->
<g id="edge3" class="edge"><title>Node36&#45;&gt;Node34</title>
<path fill="none" stroke="midnightblue" d="M130.958,-85.6911C131.606,-94.6353 131.176,-104.927 129.666,-112.083"/>
<polygon fill="midnightblue" stroke="midnightblue" points="134.423,-85.2002 129.631,-75.7511 127.485,-86.1262 134.423,-85.2002"/>
</g>
<!-- Node36&#45;&gt;Node35 -->
<g id="edge4" class="edge"><title>Node36&#45;&gt;Node35</title>
<path fill="none" stroke="midnightblue" d="M104.634,-50.1008C91.6765,-40.3824 75.2026,-28.0269 64.2785,-19.8339"/>
<polygon fill="midnightblue" stroke="midnightblue" points="102.832,-53.1239 112.932,-56.324 107.032,-47.5239 102.832,-53.1239"/>
</g>
<!-- Node36&#45;&gt;Node37 -->
<g id="edge5" class="edge"><title>Node36&#45;&gt;Node37</title>
<path fill="none" stroke="midnightblue" d="M144.366,-50.1008C157.323,-40.3824 173.797,-28.0269 184.721,-19.8339"/>
<polygon fill="midnightblue" stroke="midnightblue" points="141.968,-47.5239 136.068,-56.324 146.168,-53.1239 141.968,-47.5239"/>
</g>
</g>
</svg>
