<?xml version="1.0" encoding="UTF-8" standalone="no"?>
<!DOCTYPE svg PUBLIC "-//W3C//DTD SVG 1.1//EN"
 "http://www.w3.org/Graphics/SVG/1.1/DTD/svg11.dtd">
<!-- Generated by graphviz version 2.38.0 (20140413.2041)
 -->
<!-- Title: RigidTrack/RigidTrack.h Pages: 1 -->
<!--zoomable 196 -->
<svg id="main" version="1.1" xmlns="http://www.w3.org/2000/svg" xmlns:xlink="http://www.w3.org/1999/xlink" xml:space="preserve" onload="init(evt)">
<style type="text/css"><![CDATA[
.edge:hover path { stroke: red; }
.edge:hover polygon { stroke: red; fill: red; }
]]></style>
<script type="text/javascript"><![CDATA[
var edges = document.getElementsByTagName('g');
if (edges && edges.length) {
  for (var i=0;i<edges.length;i++) {
    if (edges[i].id.substr(0,4)=='edge') {
      edges[i].setAttribute('class','edge');
    }
  }
}
]]></script>
        <defs>
                <circle id="rim" cx="0" cy="0" r="7"/>
                <circle id="rim2" cx="0" cy="0" r="3.5"/>
                <g id="zoomPlus">
                        <use xlink:href="#rim" fill="#404040">
                                <set attributeName="fill" to="#808080" begin="zoomplus.mouseover" end="zoomplus.mouseout"/>
                        </use>
                        <path d="M-4,0h8M0,-4v8" fill="none" stroke="white" stroke-width="1.5" pointer-events="none"/>
                </g>
                <g id="zoomMin">
                        <use xlink:href="#rim" fill="#404040">
                                <set attributeName="fill" to="#808080" begin="zoomminus.mouseover" end="zoomminus.mouseout"/>
                        </use>
                        <path d="M-4,0h8" fill="none" stroke="white" stroke-width="1.5" pointer-events="none"/>
                </g>
                <g id="dirArrow">
                        <path fill="none" stroke="white" stroke-width="1.5" d="M0,-3.0v7 M-2.5,-0.5L0,-3.0L2.5,-0.5"/>
                </g>
               <g id="resetDef">
                       <use xlink:href="#rim2" fill="#404040">
                               <set attributeName="fill" to="#808080" begin="reset.mouseover" end="reset.mouseout"/>
                       </use>
               </g>
        </defs>

<script type="text/javascript">
var viewWidth = 2935;
var viewHeight = 196;
var sectionId = 'dynsection-0';
</script>
<script xlink:href="svgpan.js"/>
<svg id="graph" class="graph">
<g id="viewport">
<title>RigidTrack/RigidTrack.h</title>
<polygon fill="white" stroke="none" points="-4,4 -4,-192 2931,-192 2931,4 -4,4"/>
<!-- Node0 -->
<g id="node1" class="node"><title>Node0</title>
<polygon fill="#bfbfbf" stroke="black" points="663,-168.5 663,-187.5 782,-187.5 782,-168.5 663,-168.5"/>
<text text-anchor="middle" x="722.5" y="-175.5" font-family="Helvetica,sans-Serif" font-size="10.00">RigidTrack/RigidTrack.h</text>
</g>
<!-- Node1 -->
<g id="node2" class="node"><title>Node1</title>
<polygon fill="white" stroke="#bfbfbf" points="0,-112.5 0,-131.5 129,-131.5 129,-112.5 0,-112.5"/>
<text text-anchor="middle" x="64.5" y="-119.5" font-family="Helvetica,sans-Serif" font-size="10.00">QtWidgets/QMainWindow</text>
</g>
<!-- Node0&#45;&gt;Node1 -->
<g id="edge1" class="edge"><title>Node0&#45;&gt;Node1</title>
<path fill="none" stroke="midnightblue" d="M662.627,-173.305C558.391,-166.672 336.586,-151.675 139.33,-132.146"/>
<polygon fill="midnightblue" stroke="midnightblue" points="139.659,-128.662 129.361,-131.153 138.965,-135.627 139.659,-128.662"/>
</g>
<!-- Node2 -->
<g id="node3" class="node"><title>Node2</title>
<polygon fill="white" stroke="#bfbfbf" points="147,-112.5 147,-131.5 230,-131.5 230,-112.5 147,-112.5"/>
<text text-anchor="middle" x="188.5" y="-119.5" font-family="Helvetica,sans-Serif" font-size="10.00">ui_RigidTrack.h</text>
</g>
<!-- Node0&#45;&gt;Node2 -->
<g id="edge2" class="edge"><title>Node0&#45;&gt;Node2</title>
<path fill="none" stroke="midnightblue" d="M662.746,-172.638C572.119,-165.738 394.575,-151.103 244.5,-132 243.035,-131.813 241.549,-131.618 240.05,-131.415"/>
<polygon fill="midnightblue" stroke="midnightblue" points="240.44,-127.935 230.046,-129.987 239.451,-134.865 240.44,-127.935"/>
</g>
<!-- Node3 -->
<g id="node4" class="node"><title>Node3</title>
<polygon fill="white" stroke="#bfbfbf" points="1501.5,-0.5 1501.5,-19.5 1563.5,-19.5 1563.5,-0.5 1501.5,-0.5"/>
<text text-anchor="middle" x="1532.5" y="-7.5" font-family="Helvetica,sans-Serif" font-size="10.00">qpixmap.h</text>
</g>
<!-- Node0&#45;&gt;Node3 -->
<g id="edge3" class="edge"><title>Node0&#45;&gt;Node3</title>
<path fill="none" stroke="midnightblue" d="M662.967,-170.776C529.35,-155.681 221.494,-114.05 277.5,-56 320.578,-11.3501 1279.53,-10.5259 1491.34,-10.8907"/>
<polygon fill="midnightblue" stroke="midnightblue" points="1491.41,-14.3908 1501.42,-10.91 1491.43,-7.39079 1491.41,-14.3908"/>
</g>
<!-- Node4 -->
<g id="node5" class="node"><title>Node4</title>
<g id="a_node5"><a xlink:href="main_8h.html" target="_top" xlink:title="Header file for main.cpp. ">
<polygon fill="white" stroke="black" points="1133.5,-112.5 1133.5,-131.5 1179.5,-131.5 1179.5,-112.5 1133.5,-112.5"/>
<text text-anchor="middle" x="1156.5" y="-119.5" font-family="Helvetica,sans-Serif" font-size="10.00">main.h</text>
</a>
</g>
</g>
<!-- Node0&#45;&gt;Node4 -->
<g id="edge4" class="edge"><title>Node0&#45;&gt;Node4</title>
<path fill="none" stroke="midnightblue" d="M782.037,-168.974C874.701,-157.101 1050.13,-135.329 1123.29,-126.681"/>
<polygon fill="midnightblue" stroke="midnightblue" points="1123.8,-130.146 1133.32,-125.503 1122.98,-123.194 1123.8,-130.146"/>
</g>
<!-- Node19 -->
<g id="node20" class="node"><title>Node19</title>
<g id="a_node20"><a xlink:href="communication_8h_source.html" target="_top" xlink:title="communication.h">
<polygon fill="white" stroke="black" points="2836,-56.5 2836,-75.5 2927,-75.5 2927,-56.5 2836,-56.5"/>
<text text-anchor="middle" x="2881.5" y="-63.5" font-family="Helvetica,sans-Serif" font-size="10.00">communication.h</text>
</a>
</g>
</g>
<!-- Node0&#45;&gt;Node19 -->
<g id="edge36" class="edge"><title>Node0&#45;&gt;Node19</title>
<path fill="none" stroke="midnightblue" d="M782.134,-176.693C1031.17,-174.877 2012.59,-162.384 2825.73,-76.0713"/>
<polygon fill="midnightblue" stroke="midnightblue" points="2826.31,-79.5288 2835.89,-74.9883 2825.57,-72.5683 2826.31,-79.5288"/>
</g>
<!-- Node4&#45;&gt;Node0 -->
<g id="edge22" class="edge"><title>Node4&#45;&gt;Node0</title>
<path fill="none" stroke="midnightblue" d="M1133.48,-126.293C1070.09,-134.655 891.85,-156.896 792.128,-168.955"/>
<polygon fill="midnightblue" stroke="midnightblue" points="791.648,-165.488 782.14,-170.161 792.487,-172.437 791.648,-165.488"/>
</g>
<!-- Node5 -->
<g id="node6" class="node"><title>Node5</title>
<polygon fill="white" stroke="#bfbfbf" points="287,-56.5 287,-75.5 336,-75.5 336,-56.5 287,-56.5"/>
<text text-anchor="middle" x="311.5" y="-63.5" font-family="Helvetica,sans-Serif" font-size="10.00">fstream</text>
</g>
<!-- Node4&#45;&gt;Node5 -->
<g id="edge5" class="edge"><title>Node4&#45;&gt;Node5</title>
<path fill="none" stroke="midnightblue" d="M1133.42,-121.426C1037.69,-122.84 662.531,-124.879 346.531,-75.7934"/>
<polygon fill="midnightblue" stroke="midnightblue" points="346.681,-72.274 336.258,-74.1762 345.592,-79.1888 346.681,-72.274"/>
</g>
<!-- Node6 -->
<g id="node7" class="node"><title>Node6</title>
<polygon fill="white" stroke="#bfbfbf" points="354.5,-56.5 354.5,-75.5 416.5,-75.5 416.5,-56.5 354.5,-56.5"/>
<text text-anchor="middle" x="385.5" y="-63.5" font-family="Helvetica,sans-Serif" font-size="10.00">windows.h</text>
</g>
<!-- Node4&#45;&gt;Node6 -->
<g id="edge6" class="edge"><title>Node4&#45;&gt;Node6</title>
<path fill="none" stroke="midnightblue" d="M1133.32,-120.917C1043.54,-120.317 710.066,-115.492 426.906,-75.973"/>
<polygon fill="midnightblue" stroke="midnightblue" points="427.247,-72.4864 416.855,-74.5525 426.267,-79.4175 427.247,-72.4864"/>
</g>
<!-- Node7 -->
<g id="node8" class="node"><title>Node7</title>
<polygon fill="white" stroke="#bfbfbf" points="434.5,-56.5 434.5,-75.5 482.5,-75.5 482.5,-56.5 434.5,-56.5"/>
<text text-anchor="middle" x="458.5" y="-63.5" font-family="Helvetica,sans-Serif" font-size="10.00">conio.h</text>
</g>
<!-- Node4&#45;&gt;Node7 -->
<g id="edge7" class="edge"><title>Node4&#45;&gt;Node7</title>
<path fill="none" stroke="midnightblue" d="M1133.34,-121.09C1048.71,-121.074 748.319,-117.992 492.746,-75.8557"/>
<polygon fill="midnightblue" stroke="midnightblue" points="492.968,-72.3442 482.527,-74.1459 491.813,-79.2483 492.968,-72.3442"/>
</g>
<!-- Node8 -->
<g id="node9" class="node"><title>Node8</title>
<polygon fill="white" stroke="#bfbfbf" points="501,-56.5 501,-75.5 548,-75.5 548,-56.5 501,-56.5"/>
<text text-anchor="middle" x="524.5" y="-63.5" font-family="Helvetica,sans-Serif" font-size="10.00">tchar.h</text>
</g>
<!-- Node4&#45;&gt;Node8 -->
<g id="edge8" class="edge"><title>Node4&#45;&gt;Node8</title>
<path fill="none" stroke="midnightblue" d="M1133.46,-120.849C1054.48,-120.001 787.468,-114.414 558.363,-75.7829"/>
<polygon fill="midnightblue" stroke="midnightblue" points="558.618,-72.2758 548.171,-74.038 557.437,-79.1754 558.618,-72.2758"/>
</g>
<!-- Node9 -->
<g id="node10" class="node"><title>Node9</title>
<polygon fill="white" stroke="#bfbfbf" points="566.5,-56.5 566.5,-75.5 612.5,-75.5 612.5,-56.5 566.5,-56.5"/>
<text text-anchor="middle" x="589.5" y="-63.5" font-family="Helvetica,sans-Serif" font-size="10.00">stdio.h</text>
</g>
<!-- Node4&#45;&gt;Node9 -->
<g id="edge9" class="edge"><title>Node4&#45;&gt;Node9</title>
<path fill="none" stroke="midnightblue" d="M1133.35,-120.621C1059.83,-119.091 825.055,-111.684 622.713,-75.8876"/>
<polygon fill="midnightblue" stroke="midnightblue" points="623.26,-72.4299 612.799,-74.1059 622.022,-79.3195 623.26,-72.4299"/>
</g>
<!-- Node10 -->
<g id="node11" class="node"><title>Node10</title>
<polygon fill="white" stroke="#bfbfbf" points="630.5,-56.5 630.5,-75.5 684.5,-75.5 684.5,-56.5 630.5,-56.5"/>
<text text-anchor="middle" x="657.5" y="-63.5" font-family="Helvetica,sans-Serif" font-size="10.00">iostream</text>
</g>
<!-- Node4&#45;&gt;Node10 -->
<g id="edge10" class="edge"><title>Node4&#45;&gt;Node10</title>
<path fill="none" stroke="midnightblue" d="M1133.21,-119.958C1066.42,-116.712 868.365,-105.295 694.625,-75.9447"/>
<polygon fill="midnightblue" stroke="midnightblue" points="694.983,-72.4551 684.535,-74.215 693.8,-79.3544 694.983,-72.4551"/>
</g>
<!-- Node11 -->
<g id="node12" class="node"><title>Node11</title>
<polygon fill="white" stroke="#bfbfbf" points="702.5,-56.5 702.5,-75.5 754.5,-75.5 754.5,-56.5 702.5,-56.5"/>
<text text-anchor="middle" x="728.5" y="-63.5" font-family="Helvetica,sans-Serif" font-size="10.00">stdarg.h</text>
</g>
<!-- Node4&#45;&gt;Node11 -->
<g id="edge11" class="edge"><title>Node4&#45;&gt;Node11</title>
<path fill="none" stroke="midnightblue" d="M1133.3,-119.465C1073.69,-115.283 910.181,-102.324 764.779,-76.0084"/>
<polygon fill="midnightblue" stroke="midnightblue" points="765.255,-72.5373 754.787,-74.1733 763.99,-79.4221 765.255,-72.5373"/>
</g>
<!-- Node12 -->
<g id="node13" class="node"><title>Node12</title>
<polygon fill="white" stroke="#bfbfbf" points="773,-56.5 773,-75.5 822,-75.5 822,-56.5 773,-56.5"/>
<text text-anchor="middle" x="797.5" y="-63.5" font-family="Helvetica,sans-Serif" font-size="10.00">ctype.h</text>
</g>
<!-- Node4&#45;&gt;Node12 -->
<g id="edge12" class="edge"><title>Node4&#45;&gt;Node12</title>
<path fill="none" stroke="midnightblue" d="M1133.49,-118.783C1081.55,-113.574 951.146,-99.3488 832.295,-75.9331"/>
<polygon fill="midnightblue" stroke="midnightblue" points="832.793,-72.4634 822.301,-73.9365 831.422,-79.3278 832.793,-72.4634"/>
</g>
<!-- Node13 -->
<g id="node14" class="node"><title>Node13</title>
<polygon fill="white" stroke="#bfbfbf" points="840.5,-56.5 840.5,-75.5 888.5,-75.5 888.5,-56.5 840.5,-56.5"/>
<text text-anchor="middle" x="864.5" y="-63.5" font-family="Helvetica,sans-Serif" font-size="10.00">stdlib.h</text>
</g>
<!-- Node4&#45;&gt;Node13 -->
<g id="edge13" class="edge"><title>Node4&#45;&gt;Node13</title>
<path fill="none" stroke="midnightblue" d="M1133.49,-117.747C1089.65,-111.391 990.975,-96.3249 898.389,-76.025"/>
<polygon fill="midnightblue" stroke="midnightblue" points="899.106,-72.5989 888.585,-73.8503 897.59,-79.4328 899.106,-72.5989"/>
</g>
<!-- Node14 -->
<g id="node15" class="node"><title>Node14</title>
<polygon fill="white" stroke="#bfbfbf" points="906.5,-56.5 906.5,-75.5 954.5,-75.5 954.5,-56.5 906.5,-56.5"/>
<text text-anchor="middle" x="930.5" y="-63.5" font-family="Helvetica,sans-Serif" font-size="10.00">gl/glu.h</text>
</g>
<!-- Node4&#45;&gt;Node14 -->
<g id="edge14" class="edge"><title>Node4&#45;&gt;Node14</title>
<path fill="none" stroke="midnightblue" d="M1133.26,-115.875C1098.64,-108.176 1031.25,-92.9502 964.468,-76.1757"/>
<polygon fill="midnightblue" stroke="midnightblue" points="965.176,-72.7447 954.623,-73.6902 963.462,-79.5317 965.176,-72.7447"/>
</g>
<!-- Node15 -->
<g id="node16" class="node"><title>Node15</title>
<polygon fill="white" stroke="#bfbfbf" points="972.5,-56.5 972.5,-75.5 1024.5,-75.5 1024.5,-56.5 972.5,-56.5"/>
<text text-anchor="middle" x="998.5" y="-63.5" font-family="Helvetica,sans-Serif" font-size="10.00">sstream</text>
</g>
<!-- Node4&#45;&gt;Node15 -->
<g id="edge15" class="edge"><title>Node4&#45;&gt;Node15</title>
<path fill="none" stroke="midnightblue" d="M1133.19,-113.032C1106.81,-104.018 1063.58,-89.2442 1033.23,-78.8706"/>
<polygon fill="midnightblue" stroke="midnightblue" points="1034.07,-75.4582 1023.48,-75.536 1031.81,-82.082 1034.07,-75.4582"/>
</g>
<!-- Node16 -->
<g id="node17" class="node"><title>Node16</title>
<polygon fill="white" stroke="#bfbfbf" points="1042.5,-56.5 1042.5,-75.5 1086.5,-75.5 1086.5,-56.5 1042.5,-56.5"/>
<text text-anchor="middle" x="1064.5" y="-63.5" font-family="Helvetica,sans-Serif" font-size="10.00">thread</text>
</g>
<!-- Node4&#45;&gt;Node16 -->
<g id="edge16" class="edge"><title>Node4&#45;&gt;Node16</title>
<path fill="none" stroke="midnightblue" d="M1141.72,-112.324C1127.23,-103.822 1104.93,-90.7288 1088.01,-80.7975"/>
<polygon fill="midnightblue" stroke="midnightblue" points="1089.64,-77.6981 1079.24,-75.6545 1086.1,-83.735 1089.64,-77.6981"/>
</g>
<!-- Node17 -->
<g id="node18" class="node"><title>Node17</title>
<polygon fill="white" stroke="#bfbfbf" points="1105,-56.5 1105,-75.5 1146,-75.5 1146,-56.5 1105,-56.5"/>
<text text-anchor="middle" x="1125.5" y="-63.5" font-family="Helvetica,sans-Serif" font-size="10.00">future</text>
</g>
<!-- Node4&#45;&gt;Node17 -->
<g id="edge17" class="edge"><title>Node4&#45;&gt;Node17</title>
<path fill="none" stroke="midnightblue" d="M1151.38,-112.083C1147.09,-104.613 1140.84,-93.7244 1135.56,-84.5199"/>
<polygon fill="midnightblue" stroke="midnightblue" points="1138.54,-82.6811 1130.52,-75.7511 1132.47,-86.1662 1138.54,-82.6811"/>
</g>
<!-- Node18 -->
<g id="node19" class="node"><title>Node18</title>
<polygon fill="white" stroke="#bfbfbf" points="1164.5,-56.5 1164.5,-75.5 1210.5,-75.5 1210.5,-56.5 1164.5,-56.5"/>
<text text-anchor="middle" x="1187.5" y="-63.5" font-family="Helvetica,sans-Serif" font-size="10.00">atomic</text>
</g>
<!-- Node4&#45;&gt;Node18 -->
<g id="edge18" class="edge"><title>Node4&#45;&gt;Node18</title>
<path fill="none" stroke="midnightblue" d="M1161.62,-112.083C1165.91,-104.613 1172.16,-93.7244 1177.44,-84.5199"/>
<polygon fill="midnightblue" stroke="midnightblue" points="1180.53,-86.1662 1182.48,-75.7511 1174.46,-82.6811 1180.53,-86.1662"/>
</g>
<!-- Node4&#45;&gt;Node19 -->
<g id="edge19" class="edge"><title>Node4&#45;&gt;Node19</title>
<path fill="none" stroke="midnightblue" d="M1179.54,-120.818C1353.66,-119.377 2465.35,-109.019 2825.71,-76.0144"/>
<polygon fill="midnightblue" stroke="midnightblue" points="2826.27,-79.4778 2835.89,-75.0563 2825.61,-72.5085 2826.27,-79.4778"/>
</g>
<!-- Node21 -->
<g id="node22" class="node"><title>Node21</title>
<polygon fill="white" stroke="#bfbfbf" points="1228.5,-56.5 1228.5,-75.5 1350.5,-75.5 1350.5,-56.5 1228.5,-56.5"/>
<text text-anchor="middle" x="1289.5" y="-63.5" font-family="Helvetica,sans-Serif" font-size="10.00">QtWidgets/QApplication</text>
</g>
<!-- Node4&#45;&gt;Node21 -->
<g id="edge23" class="edge"><title>Node4&#45;&gt;Node21</title>
<path fill="none" stroke="midnightblue" d="M1177.57,-112.444C1199.56,-103.517 1234.23,-89.4387 1259.16,-79.3168"/>
<polygon fill="midnightblue" stroke="midnightblue" points="1260.58,-82.5213 1268.52,-75.5164 1257.94,-76.0355 1260.58,-82.5213"/>
</g>
<!-- Node22 -->
<g id="node23" class="node"><title>Node22</title>
<polygon fill="white" stroke="#bfbfbf" points="1368.5,-56.5 1368.5,-75.5 1440.5,-75.5 1440.5,-56.5 1368.5,-56.5"/>
<text text-anchor="middle" x="1404.5" y="-63.5" font-family="Helvetica,sans-Serif" font-size="10.00">QUdpSocket</text>
</g>
<!-- Node4&#45;&gt;Node22 -->
<g id="edge24" class="edge"><title>Node4&#45;&gt;Node22</title>
<path fill="none" stroke="midnightblue" d="M1179.83,-115.92C1220.61,-107.04 1305.55,-88.5464 1358.51,-77.0141"/>
<polygon fill="midnightblue" stroke="midnightblue" points="1359.3,-80.4231 1368.33,-74.8755 1357.82,-73.5833 1359.3,-80.4231"/>
</g>
<!-- Node23 -->
<g id="node24" class="node"><title>Node23</title>
<polygon fill="white" stroke="#bfbfbf" points="1459,-56.5 1459,-75.5 1542,-75.5 1542,-56.5 1459,-56.5"/>
<text text-anchor="middle" x="1500.5" y="-63.5" font-family="Helvetica,sans-Serif" font-size="10.00">cameralibrary.h</text>
</g>
<!-- Node4&#45;&gt;Node23 -->
<g id="edge25" class="edge"><title>Node4&#45;&gt;Node23</title>
<path fill="none" stroke="midnightblue" d="M1179.7,-117.617C1227.77,-110.566 1342.02,-93.6158 1448.79,-76.0863"/>
<polygon fill="midnightblue" stroke="midnightblue" points="1449.47,-79.5219 1458.76,-74.4431 1448.33,-72.615 1449.47,-79.5219"/>
</g>
<!-- Node24 -->
<g id="node25" class="node"><title>Node24</title>
<polygon fill="white" stroke="#bfbfbf" points="1560.5,-56.5 1560.5,-75.5 1642.5,-75.5 1642.5,-56.5 1560.5,-56.5"/>
<text text-anchor="middle" x="1601.5" y="-63.5" font-family="Helvetica,sans-Serif" font-size="10.00">modulevector.h</text>
</g>
<!-- Node4&#45;&gt;Node24 -->
<g id="edge26" class="edge"><title>Node4&#45;&gt;Node24</title>
<path fill="none" stroke="midnightblue" d="M1179.72,-118.884C1239.41,-113.333 1403.24,-97.3897 1550.23,-76.1032"/>
<polygon fill="midnightblue" stroke="midnightblue" points="1550.94,-79.5361 1560.33,-74.6275 1549.93,-72.6096 1550.94,-79.5361"/>
</g>
<!-- Node25 -->
<g id="node26" class="node"><title>Node25</title>
<polygon fill="white" stroke="#bfbfbf" points="1661,-56.5 1661,-75.5 1790,-75.5 1790,-56.5 1661,-56.5"/>
<text text-anchor="middle" x="1725.5" y="-63.5" font-family="Helvetica,sans-Serif" font-size="10.00">modulevectorprocessing.h</text>
</g>
<!-- Node4&#45;&gt;Node25 -->
<g id="edge27" class="edge"><title>Node4&#45;&gt;Node25</title>
<path fill="none" stroke="midnightblue" d="M1179.72,-119.141C1249.29,-113.519 1462.34,-95.915 1650.85,-76.0381"/>
<polygon fill="midnightblue" stroke="midnightblue" points="1651.36,-79.5029 1660.94,-74.969 1650.63,-72.5418 1651.36,-79.5029"/>
</g>
<!-- Node26 -->
<g id="node27" class="node"><title>Node26</title>
<polygon fill="white" stroke="#bfbfbf" points="1808,-56.5 1808,-75.5 1873,-75.5 1873,-56.5 1808,-56.5"/>
<text text-anchor="middle" x="1840.5" y="-63.5" font-family="Helvetica,sans-Serif" font-size="10.00">coremath.h</text>
</g>
<!-- Node4&#45;&gt;Node26 -->
<g id="edge28" class="edge"><title>Node4&#45;&gt;Node26</title>
<path fill="none" stroke="midnightblue" d="M1179.7,-120.6C1262.43,-118.918 1550.83,-110.866 1797.67,-76.068"/>
<polygon fill="midnightblue" stroke="midnightblue" points="1798.5,-79.4844 1807.9,-74.6055 1797.51,-72.5547 1798.5,-79.4844"/>
</g>
<!-- Node27 -->
<g id="node28" class="node"><title>Node27</title>
<polygon fill="white" stroke="#bfbfbf" points="1891,-56.5 1891,-75.5 1958,-75.5 1958,-56.5 1891,-56.5"/>
<text text-anchor="middle" x="1924.5" y="-63.5" font-family="Helvetica,sans-Serif" font-size="10.00">opencv\cv.h</text>
</g>
<!-- Node4&#45;&gt;Node27 -->
<g id="edge29" class="edge"><title>Node4&#45;&gt;Node27</title>
<path fill="none" stroke="midnightblue" d="M1179.51,-120.82C1268.63,-119.864 1599.69,-113.904 1880.68,-76.0663"/>
<polygon fill="midnightblue" stroke="midnightblue" points="1881.22,-79.5253 1890.65,-74.7068 1880.27,-72.5895 1881.22,-79.5253"/>
</g>
<!-- Node28 -->
<g id="node29" class="node"><title>Node28</title>
<polygon fill="white" stroke="#bfbfbf" points="1976.5,-56.5 1976.5,-75.5 2068.5,-75.5 2068.5,-56.5 1976.5,-56.5"/>
<text text-anchor="middle" x="2022.5" y="-63.5" font-family="Helvetica,sans-Serif" font-size="10.00">opencv2\core.hpp</text>
</g>
<!-- Node4&#45;&gt;Node28 -->
<g id="edge30" class="edge"><title>Node4&#45;&gt;Node28</title>
<path fill="none" stroke="midnightblue" d="M1179.8,-120.617C1275.63,-118.85 1648.86,-110.112 1966.02,-76.0401"/>
<polygon fill="midnightblue" stroke="midnightblue" points="1966.77,-79.4796 1976.34,-74.9211 1966.02,-72.5204 1966.77,-79.4796"/>
</g>
<!-- Node29 -->
<g id="node30" class="node"><title>Node29</title>
<polygon fill="white" stroke="#bfbfbf" points="2086.5,-56.5 2086.5,-75.5 2190.5,-75.5 2190.5,-56.5 2086.5,-56.5"/>
<text text-anchor="middle" x="2138.5" y="-63.5" font-family="Helvetica,sans-Serif" font-size="10.00">opencv2\calib3d.hpp</text>
</g>
<!-- Node4&#45;&gt;Node29 -->
<g id="edge31" class="edge"><title>Node4&#45;&gt;Node29</title>
<path fill="none" stroke="midnightblue" d="M1179.69,-120.7C1283.15,-119.189 1712.93,-111.076 2076.11,-76.0358"/>
<polygon fill="midnightblue" stroke="midnightblue" points="2076.68,-79.4968 2086.3,-75.0443 2076.01,-72.5297 2076.68,-79.4968"/>
</g>
<!-- Node30 -->
<g id="node31" class="node"><title>Node30</title>
<polygon fill="white" stroke="#bfbfbf" points="2208.5,-56.5 2208.5,-75.5 2354.5,-75.5 2354.5,-56.5 2208.5,-56.5"/>
<text text-anchor="middle" x="2281.5" y="-63.5" font-family="Helvetica,sans-Serif" font-size="10.00">opencv2/imgproc/imgproc.hpp</text>
</g>
<!-- Node4&#45;&gt;Node30 -->
<g id="edge32" class="edge"><title>Node4&#45;&gt;Node30</title>
<path fill="none" stroke="midnightblue" d="M1179.66,-120.569C1291.11,-118.374 1783.5,-107.335 2198.12,-76.0539"/>
<polygon fill="midnightblue" stroke="midnightblue" points="2198.5,-79.5352 2208.2,-75.2877 2197.97,-72.5553 2198.5,-79.5352"/>
</g>
<!-- Node31 -->
<g id="node32" class="node"><title>Node31</title>
<polygon fill="white" stroke="#bfbfbf" points="2372.5,-56.5 2372.5,-75.5 2510.5,-75.5 2510.5,-56.5 2372.5,-56.5"/>
<text text-anchor="middle" x="2441.5" y="-63.5" font-family="Helvetica,sans-Serif" font-size="10.00">opencv2/calib3d/calib3d.hpp</text>
</g>
<!-- Node4&#45;&gt;Node31 -->
<g id="edge33" class="edge"><title>Node4&#45;&gt;Node31</title>
<path fill="none" stroke="midnightblue" d="M1179.55,-120.807C1300.94,-119.651 1878.52,-112.438 2361.88,-76.0609"/>
<polygon fill="midnightblue" stroke="midnightblue" points="2362.5,-79.5242 2372.2,-75.2783 2361.97,-72.5442 2362.5,-79.5242"/>
</g>
<!-- Node32 -->
<g id="node33" class="node"><title>Node32</title>
<polygon fill="white" stroke="#bfbfbf" points="2528.5,-56.5 2528.5,-75.5 2666.5,-75.5 2666.5,-56.5 2528.5,-56.5"/>
<text text-anchor="middle" x="2597.5" y="-63.5" font-family="Helvetica,sans-Serif" font-size="10.00">opencv2/highgui/highgui.hpp</text>
</g>
<!-- Node4&#45;&gt;Node32 -->
<g id="edge34" class="edge"><title>Node4&#45;&gt;Node32</title>
<path fill="none" stroke="midnightblue" d="M1179.87,-120.944C1311.09,-120.479 1969.51,-116.193 2518.11,-76.0375"/>
<polygon fill="midnightblue" stroke="midnightblue" points="2518.49,-79.5192 2528.21,-75.2937 2517.98,-72.5381 2518.49,-79.5192"/>
</g>
<!-- Node33 -->
<g id="node34" class="node"><title>Node33</title>
<polygon fill="white" stroke="#bfbfbf" points="2685,-56.5 2685,-75.5 2818,-75.5 2818,-56.5 2685,-56.5"/>
<text text-anchor="middle" x="2751.5" y="-63.5" font-family="Helvetica,sans-Serif" font-size="10.00">opencv2\video\tracking.hpp</text>
</g>
<!-- Node4&#45;&gt;Node33 -->
<g id="edge35" class="edge"><title>Node4&#45;&gt;Node33</title>
<path fill="none" stroke="midnightblue" d="M1179.74,-121.081C1319.2,-121.408 2059.33,-120.908 2674.4,-76.0006"/>
<polygon fill="midnightblue" stroke="midnightblue" points="2675.09,-79.4593 2684.8,-75.2356 2674.57,-72.4782 2675.09,-79.4593"/>
</g>
<!-- Node19&#45;&gt;Node3 -->
<g id="edge21" class="edge"><title>Node19&#45;&gt;Node3</title>
<path fill="none" stroke="midnightblue" d="M2835.89,-56.969C2833.06,-56.6032 2830.24,-56.275 2827.5,-56 2575.68,-30.749 1766.18,-15.1235 1573.8,-11.7091"/>
<polygon fill="midnightblue" stroke="midnightblue" points="1573.62,-8.20547 1563.56,-11.5286 1573.5,-15.2044 1573.62,-8.20547"/>
</g>
<!-- Node20 -->
<g id="node21" class="node"><title>Node20</title>
<polygon fill="white" stroke="#bfbfbf" points="2855,-0.5 2855,-19.5 2908,-19.5 2908,-0.5 2855,-0.5"/>
<text text-anchor="middle" x="2881.5" y="-7.5" font-family="Helvetica,sans-Serif" font-size="10.00">QObject</text>
</g>
<!-- Node19&#45;&gt;Node20 -->
<g id="edge20" class="edge"><title>Node19&#45;&gt;Node20</title>
<path fill="none" stroke="midnightblue" d="M2881.5,-56.083C2881.5,-49.0059 2881.5,-38.8611 2881.5,-29.9865"/>
<polygon fill="midnightblue" stroke="midnightblue" points="2885,-29.751 2881.5,-19.7511 2878,-29.7511 2885,-29.751"/>
</g>
</g>
</svg>
        <g id="navigator" transform="translate(0 0)" fill="#404254">
                <rect fill="#f2f5e9" fill-opacity="0.5" stroke="#606060" stroke-width=".5" x="0" y="0" width="60" height="60"/>
                <use id="zoomplus" xlink:href="#zoomPlus" x="17" y="9" onmousedown="handleZoom(evt,'in')"/>
                <use id="zoomminus" xlink:href="#zoomMin" x="42" y="9" onmousedown="handleZoom(evt,'out')"/>
                <use id="reset" xlink:href="#resetDef" x="30" y="36" onmousedown="handleReset()"/>
                <g id="arrowUp" xlink:href="#dirArrow" transform="translate(30 24)" onmousedown="handlePan(0,-1)">
                  <use xlink:href="#rim" fill="#404040">
                        <set attributeName="fill" to="#808080" begin="arrowUp.mouseover" end="arrowUp.mouseout"/>
                  </use>
                  <path fill="none" stroke="white" stroke-width="1.5" d="M0,-3.0v7 M-2.5,-0.5L0,-3.0L2.5,-0.5"/>
                </g>
                <g id="arrowRight" xlink:href="#dirArrow" transform="rotate(90) translate(36 -43)" onmousedown="handlePan(1,0)">
                  <use xlink:href="#rim" fill="#404040">
                        <set attributeName="fill" to="#808080" begin="arrowRight.mouseover" end="arrowRight.mouseout"/>
                  </use>
                  <path fill="none" stroke="white" stroke-width="1.5" d="M0,-3.0v7 M-2.5,-0.5L0,-3.0L2.5,-0.5"/>
                </g>
                <g id="arrowDown" xlink:href="#dirArrow" transform="rotate(180) translate(-30 -48)" onmousedown="handlePan(0,1)">
                  <use xlink:href="#rim" fill="#404040">
                        <set attributeName="fill" to="#808080" begin="arrowDown.mouseover" end="arrowDown.mouseout"/>
                  </use>
                  <path fill="none" stroke="white" stroke-width="1.5" d="M0,-3.0v7 M-2.5,-0.5L0,-3.0L2.5,-0.5"/>
                </g>
                <g id="arrowLeft" xlink:href="#dirArrow" transform="rotate(270) translate(-36 17)" onmousedown="handlePan(-1,0)">
                  <use xlink:href="#rim" fill="#404040">
                        <set attributeName="fill" to="#808080" begin="arrowLeft.mouseover" end="arrowLeft.mouseout"/>
                  </use>
                  <path fill="none" stroke="white" stroke-width="1.5" d="M0,-3.0v7 M-2.5,-0.5L0,-3.0L2.5,-0.5"/>
                </g>
        </g>
        <svg viewBox="0 0 15 15" width="100%" height="30px" preserveAspectRatio="xMaxYMin meet">
         <g id="arrow_out" transform="scale(0.3 0.3)">
          <a xlink:href="_rigid_track_8h__incl_org.svg" target="_base">
           <rect id="button" ry="5" rx="5" y="6" x="6" height="38" width="38"
                fill="#f2f5e9" fill-opacity="0.5" stroke="#606060" stroke-width="1.0"/>
           <path id="arrow"
             d="M 11.500037,31.436501 C 11.940474,20.09759 22.043105,11.32322 32.158766,21.979434 L 37.068811,17.246167 C 37.068811,17.246167 37.088388,32 37.088388,32 L 22.160133,31.978069 C 22.160133,31.978069 26.997745,27.140456 26.997745,27.140456 C 18.528582,18.264221 13.291696,25.230495 11.500037,31.436501 z"
             style="fill:#404040;"/>
          </a>
         </g>
        </svg>
</svg>
