<?xml version="1.0" encoding="UTF-8" standalone="no"?>
<!DOCTYPE svg PUBLIC "-//W3C//DTD SVG 1.1//EN"
 "http://www.w3.org/Graphics/SVG/1.1/DTD/svg11.dtd">
<!-- Generated by graphviz version 2.38.0 (20140413.2041)
 -->
<!-- Title: RigidTrack/RigidTrack.cpp Pages: 1 -->
<!--zoomable 252 -->
<svg id="main" version="1.1" xmlns="http://www.w3.org/2000/svg" xmlns:xlink="http://www.w3.org/1999/xlink" xml:space="preserve" onload="init(evt)">
<style type="text/css"><![CDATA[
.edge:hover path { stroke: red; }
.edge:hover polygon { stroke: red; fill: red; }
]]></style>
<script type="text/javascript"><![CDATA[
var edges = document.getElementsByTagName('g');
if (edges && edges.length) {
  for (var i=0;i<edges.length;i++) {
    if (edges[i].id.substr(0,4)=='edge') {
      edges[i].setAttribute('class','edge');
    }
  }
}
]]></script>
        <defs>
                <circle id="rim" cx="0" cy="0" r="7"/>
                <circle id="rim2" cx="0" cy="0" r="3.5"/>
                <g id="zoomPlus">
                        <use xlink:href="#rim" fill="#404040">
                                <set attributeName="fill" to="#808080" begin="zoomplus.mouseover" end="zoomplus.mouseout"/>
                        </use>
                        <path d="M-4,0h8M0,-4v8" fill="none" stroke="white" stroke-width="1.5" pointer-events="none"/>
                </g>
                <g id="zoomMin">
                        <use xlink:href="#rim" fill="#404040">
                                <set attributeName="fill" to="#808080" begin="zoomminus.mouseover" end="zoomminus.mouseout"/>
                        </use>
                        <path d="M-4,0h8" fill="none" stroke="white" stroke-width="1.5" pointer-events="none"/>
                </g>
                <g id="dirArrow">
                        <path fill="none" stroke="white" stroke-width="1.5" d="M0,-3.0v7 M-2.5,-0.5L0,-3.0L2.5,-0.5"/>
                </g>
               <g id="resetDef">
                       <use xlink:href="#rim2" fill="#404040">
                               <set attributeName="fill" to="#808080" begin="reset.mouseover" end="reset.mouseout"/>
                       </use>
               </g>
        </defs>

<script type="text/javascript">
var viewWidth = 3203;
var viewHeight = 252;
var sectionId = 'dynsection-0';
</script>
<script xlink:href="svgpan.js"/>
<svg id="graph" class="graph">
<g id="viewport">
<title>RigidTrack/RigidTrack.cpp</title>
<polygon fill="white" stroke="none" points="-4,4 -4,-248 3198.5,-248 3198.5,4 -4,4"/>
<!-- Node0 -->
<g id="node1" class="node"><title>Node0</title>
<polygon fill="#bfbfbf" stroke="black" points="2796,-224.5 2796,-243.5 2926,-243.5 2926,-224.5 2796,-224.5"/>
<text text-anchor="middle" x="2861" y="-231.5" font-family="Helvetica,sans-Serif" font-size="10.00">RigidTrack/RigidTrack.cpp</text>
</g>
<!-- Node1 -->
<g id="node2" class="node"><title>Node1</title>
<g id="a_node2"><a xlink:href="_rigid_track_8h.html" target="_top" xlink:title="Rigid Track GUI source header with Qt Signals and Slots. ">
<polygon fill="white" stroke="black" points="2439.5,-168.5 2439.5,-187.5 2510.5,-187.5 2510.5,-168.5 2439.5,-168.5"/>
<text text-anchor="middle" x="2475" y="-175.5" font-family="Helvetica,sans-Serif" font-size="10.00">RigidTrack.h</text>
</a>
</g>
</g>
<!-- Node0&#45;&gt;Node1 -->
<g id="edge1" class="edge"><title>Node0&#45;&gt;Node1</title>
<path fill="none" stroke="midnightblue" d="M2799.84,-224.444C2722.29,-213.595 2590.36,-195.138 2520.9,-185.421"/>
<polygon fill="midnightblue" stroke="midnightblue" points="2521.1,-181.915 2510.71,-183.995 2520.13,-188.847 2521.1,-181.915"/>
</g>
<!-- Node5 -->
<g id="node6" class="node"><title>Node5</title>
<g id="a_node6"><a xlink:href="main_8h.html" target="_top" xlink:title="Header file for main.cpp. ">
<polygon fill="white" stroke="black" points="1271,-112.5 1271,-131.5 1317,-131.5 1317,-112.5 1271,-112.5"/>
<text text-anchor="middle" x="1294" y="-119.5" font-family="Helvetica,sans-Serif" font-size="10.00">main.h</text>
</a>
</g>
</g>
<!-- Node0&#45;&gt;Node5 -->
<g id="edge43" class="edge"><title>Node0&#45;&gt;Node5</title>
<path fill="none" stroke="midnightblue" d="M2795.66,-228.413C2528.48,-209.657 1523.85,-139.135 1327.42,-125.346"/>
<polygon fill="midnightblue" stroke="midnightblue" points="1327.38,-121.835 1317.16,-124.626 1326.89,-128.818 1327.38,-121.835"/>
</g>
<!-- Node20 -->
<g id="node21" class="node"><title>Node20</title>
<g id="a_node21"><a xlink:href="communication_8h_source.html" target="_top" xlink:title="communication.h">
<polygon fill="white" stroke="black" points="2549.5,-56.5 2549.5,-75.5 2640.5,-75.5 2640.5,-56.5 2549.5,-56.5"/>
<text text-anchor="middle" x="2595" y="-63.5" font-family="Helvetica,sans-Serif" font-size="10.00">communication.h</text>
</a>
</g>
</g>
<!-- Node0&#45;&gt;Node20 -->
<g id="edge44" class="edge"><title>Node0&#45;&gt;Node20</title>
<path fill="none" stroke="midnightblue" d="M2819.92,-224.495C2792.02,-217.513 2755.06,-205.829 2726,-188 2685.01,-162.854 2684.61,-144.309 2649,-112 2637.7,-101.75 2624.56,-90.7812 2614.07,-82.239"/>
<polygon fill="midnightblue" stroke="midnightblue" points="2615.96,-79.2658 2605.99,-75.7034 2611.56,-84.7106 2615.96,-79.2658"/>
</g>
<!-- Node35 -->
<g id="node36" class="node"><title>Node35</title>
<polygon fill="white" stroke="#bfbfbf" points="2735,-168.5 2735,-187.5 2795,-187.5 2795,-168.5 2735,-168.5"/>
<text text-anchor="middle" x="2765" y="-175.5" font-family="Helvetica,sans-Serif" font-size="10.00">QProcess</text>
</g>
<!-- Node0&#45;&gt;Node35 -->
<g id="edge38" class="edge"><title>Node0&#45;&gt;Node35</title>
<path fill="none" stroke="midnightblue" d="M2845.58,-224.324C2830.46,-215.822 2807.18,-202.729 2789.53,-192.797"/>
<polygon fill="midnightblue" stroke="midnightblue" points="2790.82,-189.507 2780.39,-187.655 2787.39,-195.608 2790.82,-189.507"/>
</g>
<!-- Node36 -->
<g id="node37" class="node"><title>Node36</title>
<polygon fill="white" stroke="#bfbfbf" points="2813.5,-168.5 2813.5,-187.5 2908.5,-187.5 2908.5,-168.5 2813.5,-168.5"/>
<text text-anchor="middle" x="2861" y="-175.5" font-family="Helvetica,sans-Serif" font-size="10.00">QdesktopServices</text>
</g>
<!-- Node0&#45;&gt;Node36 -->
<g id="edge39" class="edge"><title>Node0&#45;&gt;Node36</title>
<path fill="none" stroke="midnightblue" d="M2861,-224.083C2861,-217.006 2861,-206.861 2861,-197.986"/>
<polygon fill="midnightblue" stroke="midnightblue" points="2864.5,-197.751 2861,-187.751 2857.5,-197.751 2864.5,-197.751"/>
</g>
<!-- Node37 -->
<g id="node38" class="node"><title>Node37</title>
<polygon fill="white" stroke="#bfbfbf" points="2927,-168.5 2927,-187.5 2963,-187.5 2963,-168.5 2927,-168.5"/>
<text text-anchor="middle" x="2945" y="-175.5" font-family="Helvetica,sans-Serif" font-size="10.00">QDir</text>
</g>
<!-- Node0&#45;&gt;Node37 -->
<g id="edge40" class="edge"><title>Node0&#45;&gt;Node37</title>
<path fill="none" stroke="midnightblue" d="M2874.5,-224.324C2887.6,-215.9 2907.71,-202.971 2923.11,-193.074"/>
<polygon fill="midnightblue" stroke="midnightblue" points="2925.02,-196.006 2931.54,-187.655 2921.23,-190.118 2925.02,-196.006"/>
</g>
<!-- Node38 -->
<g id="node39" class="node"><title>Node38</title>
<polygon fill="white" stroke="#bfbfbf" points="2981.5,-168.5 2981.5,-187.5 3062.5,-187.5 3062.5,-168.5 2981.5,-168.5"/>
<text text-anchor="middle" x="3022" y="-175.5" font-family="Helvetica,sans-Serif" font-size="10.00">QMessageBox</text>
</g>
<!-- Node0&#45;&gt;Node38 -->
<g id="edge41" class="edge"><title>Node0&#45;&gt;Node38</title>
<path fill="none" stroke="midnightblue" d="M2886.51,-224.444C2913.6,-215.359 2956.59,-200.939 2986.87,-190.783"/>
<polygon fill="midnightblue" stroke="midnightblue" points="2988.24,-194.015 2996.61,-187.516 2986.01,-187.378 2988.24,-194.015"/>
</g>
<!-- Node39 -->
<g id="node40" class="node"><title>Node39</title>
<polygon fill="white" stroke="#bfbfbf" points="3081,-168.5 3081,-187.5 3117,-187.5 3117,-168.5 3081,-168.5"/>
<text text-anchor="middle" x="3099" y="-175.5" font-family="Helvetica,sans-Serif" font-size="10.00">QUrl</text>
</g>
<!-- Node0&#45;&gt;Node39 -->
<g id="edge42" class="edge"><title>Node0&#45;&gt;Node39</title>
<path fill="none" stroke="midnightblue" d="M2907.2,-224.479C2949.96,-216.266 3015.16,-202.916 3071,-188 3071.1,-187.974 3071.2,-187.947 3071.3,-187.921"/>
<polygon fill="midnightblue" stroke="midnightblue" points="3072.09,-191.336 3080.7,-185.17 3070.12,-184.617 3072.09,-191.336"/>
</g>
<!-- Node40 -->
<g id="node41" class="node"><title>Node40</title>
<polygon fill="white" stroke="#bfbfbf" points="3135.5,-168.5 3135.5,-187.5 3194.5,-187.5 3194.5,-168.5 3135.5,-168.5"/>
<text text-anchor="middle" x="3165" y="-175.5" font-family="Helvetica,sans-Serif" font-size="10.00">exception</text>
</g>
<!-- Node0&#45;&gt;Node40 -->
<g id="edge45" class="edge"><title>Node0&#45;&gt;Node40</title>
<path fill="none" stroke="midnightblue" d="M2917.01,-224.466C2968.56,-216.39 3047.37,-203.489 3125.24,-188.054"/>
<polygon fill="midnightblue" stroke="midnightblue" points="3126.11,-191.45 3135.23,-186.059 3124.74,-184.586 3126.11,-191.45"/>
</g>
<!-- Node2 -->
<g id="node3" class="node"><title>Node2</title>
<polygon fill="white" stroke="#bfbfbf" points="2410.5,-112.5 2410.5,-131.5 2539.5,-131.5 2539.5,-112.5 2410.5,-112.5"/>
<text text-anchor="middle" x="2475" y="-119.5" font-family="Helvetica,sans-Serif" font-size="10.00">QtWidgets/QMainWindow</text>
</g>
<!-- Node1&#45;&gt;Node2 -->
<g id="edge2" class="edge"><title>Node1&#45;&gt;Node2</title>
<path fill="none" stroke="midnightblue" d="M2475,-168.083C2475,-161.006 2475,-150.861 2475,-141.986"/>
<polygon fill="midnightblue" stroke="midnightblue" points="2478.5,-141.751 2475,-131.751 2471.5,-141.751 2478.5,-141.751"/>
</g>
<!-- Node3 -->
<g id="node4" class="node"><title>Node3</title>
<polygon fill="white" stroke="#bfbfbf" points="2557.5,-112.5 2557.5,-131.5 2640.5,-131.5 2640.5,-112.5 2557.5,-112.5"/>
<text text-anchor="middle" x="2599" y="-119.5" font-family="Helvetica,sans-Serif" font-size="10.00">ui_RigidTrack.h</text>
</g>
<!-- Node1&#45;&gt;Node3 -->
<g id="edge3" class="edge"><title>Node1&#45;&gt;Node3</title>
<path fill="none" stroke="midnightblue" d="M2494.65,-168.444C2514.96,-159.596 2546.9,-145.687 2570.1,-135.586"/>
<polygon fill="midnightblue" stroke="midnightblue" points="2571.67,-138.718 2579.44,-131.516 2568.88,-132.3 2571.67,-138.718"/>
</g>
<!-- Node4 -->
<g id="node5" class="node"><title>Node4</title>
<polygon fill="white" stroke="#bfbfbf" points="2638,-0.5 2638,-19.5 2700,-19.5 2700,-0.5 2638,-0.5"/>
<text text-anchor="middle" x="2669" y="-7.5" font-family="Helvetica,sans-Serif" font-size="10.00">qpixmap.h</text>
</g>
<!-- Node1&#45;&gt;Node4 -->
<g id="edge4" class="edge"><title>Node1&#45;&gt;Node4</title>
<path fill="none" stroke="midnightblue" d="M2510.7,-172.387C2556.03,-165.778 2630.58,-152.148 2649,-132 2674.66,-103.942 2674.25,-56.1511 2671.66,-29.8098"/>
<polygon fill="midnightblue" stroke="midnightblue" points="2675.11,-29.1703 2670.44,-19.6583 2668.16,-30.0039 2675.11,-29.1703"/>
</g>
<!-- Node1&#45;&gt;Node5 -->
<g id="edge5" class="edge"><title>Node1&#45;&gt;Node5</title>
<path fill="none" stroke="midnightblue" d="M2439.44,-175.485C2264.38,-167.743 1496.79,-132.647 1327.19,-124.633"/>
<polygon fill="midnightblue" stroke="midnightblue" points="1327.27,-121.133 1317.12,-124.155 1326.94,-128.125 1327.27,-121.133"/>
</g>
<!-- Node1&#45;&gt;Node20 -->
<g id="edge37" class="edge"><title>Node1&#45;&gt;Node20</title>
<path fill="none" stroke="midnightblue" d="M2451.39,-168.435C2423.33,-156.952 2382.49,-135.295 2401,-112 2409.69,-101.065 2484.7,-86.0058 2538.85,-76.3855"/>
<polygon fill="midnightblue" stroke="midnightblue" points="2539.79,-79.7736 2549.03,-74.5957 2538.58,-72.8792 2539.79,-79.7736"/>
</g>
<!-- Node5&#45;&gt;Node1 -->
<g id="edge23" class="edge"><title>Node5&#45;&gt;Node1</title>
<path fill="none" stroke="midnightblue" d="M1317.06,-123.964C1460.78,-130.259 2232.42,-165.527 2429.3,-174.778"/>
<polygon fill="midnightblue" stroke="midnightblue" points="2429.16,-178.275 2439.31,-175.249 2429.49,-171.283 2429.16,-178.275"/>
</g>
<!-- Node6 -->
<g id="node7" class="node"><title>Node6</title>
<polygon fill="white" stroke="#bfbfbf" points="2205.5,-56.5 2205.5,-75.5 2254.5,-75.5 2254.5,-56.5 2205.5,-56.5"/>
<text text-anchor="middle" x="2230" y="-63.5" font-family="Helvetica,sans-Serif" font-size="10.00">fstream</text>
</g>
<!-- Node5&#45;&gt;Node6 -->
<g id="edge6" class="edge"><title>Node5&#45;&gt;Node6</title>
<path fill="none" stroke="midnightblue" d="M1317.27,-120.498C1438.45,-117.784 1998.99,-103.999 2195.07,-75.7243"/>
<polygon fill="midnightblue" stroke="midnightblue" points="2195.88,-79.1428 2205.24,-74.1926 2194.83,-72.2209 2195.88,-79.1428"/>
</g>
<!-- Node7 -->
<g id="node8" class="node"><title>Node7</title>
<polygon fill="white" stroke="#bfbfbf" points="2273,-56.5 2273,-75.5 2335,-75.5 2335,-56.5 2273,-56.5"/>
<text text-anchor="middle" x="2304" y="-63.5" font-family="Helvetica,sans-Serif" font-size="10.00">windows.h</text>
</g>
<!-- Node5&#45;&gt;Node7 -->
<g id="edge7" class="edge"><title>Node5&#45;&gt;Node7</title>
<path fill="none" stroke="midnightblue" d="M1317.02,-121.366C1423.58,-122.765 1879.64,-125.486 2262.59,-75.7655"/>
<polygon fill="midnightblue" stroke="midnightblue" points="2263.3,-79.2024 2272.76,-74.4304 2262.39,-72.2619 2263.3,-79.2024"/>
</g>
<!-- Node8 -->
<g id="node9" class="node"><title>Node8</title>
<polygon fill="white" stroke="#bfbfbf" points="2353,-56.5 2353,-75.5 2401,-75.5 2401,-56.5 2353,-56.5"/>
<text text-anchor="middle" x="2377" y="-63.5" font-family="Helvetica,sans-Serif" font-size="10.00">conio.h</text>
</g>
<!-- Node5&#45;&gt;Node8 -->
<g id="edge8" class="edge"><title>Node5&#45;&gt;Node8</title>
<path fill="none" stroke="midnightblue" d="M1317.43,-120.707C1450.8,-118.934 2115.88,-108.651 2342.83,-75.7494"/>
<polygon fill="midnightblue" stroke="midnightblue" points="2343.62,-79.1706 2352.98,-74.2163 2342.57,-72.2491 2343.62,-79.1706"/>
</g>
<!-- Node9 -->
<g id="node10" class="node"><title>Node9</title>
<polygon fill="white" stroke="#bfbfbf" points="2419.5,-56.5 2419.5,-75.5 2466.5,-75.5 2466.5,-56.5 2419.5,-56.5"/>
<text text-anchor="middle" x="2443" y="-63.5" font-family="Helvetica,sans-Serif" font-size="10.00">tchar.h</text>
</g>
<!-- Node5&#45;&gt;Node9 -->
<g id="edge9" class="edge"><title>Node5&#45;&gt;Node9</title>
<path fill="none" stroke="midnightblue" d="M1317.06,-120.779C1454.54,-119.359 2167.81,-110.487 2409.24,-75.6557"/>
<polygon fill="midnightblue" stroke="midnightblue" points="2409.98,-79.0842 2419.35,-74.1387 2408.94,-72.1618 2409.98,-79.0842"/>
</g>
<!-- Node10 -->
<g id="node11" class="node"><title>Node10</title>
<polygon fill="white" stroke="#bfbfbf" points="2485,-56.5 2485,-75.5 2531,-75.5 2531,-56.5 2485,-56.5"/>
<text text-anchor="middle" x="2508" y="-63.5" font-family="Helvetica,sans-Serif" font-size="10.00">stdio.h</text>
</g>
<!-- Node5&#45;&gt;Node10 -->
<g id="edge10" class="edge"><title>Node5&#45;&gt;Node10</title>
<path fill="none" stroke="midnightblue" d="M1317.46,-120.835C1460.71,-119.721 2219.6,-112.241 2474.75,-75.546"/>
<polygon fill="midnightblue" stroke="midnightblue" points="2475.33,-78.9983 2484.71,-74.0596 2474.3,-72.075 2475.33,-78.9983"/>
</g>
<!-- Node11 -->
<g id="node12" class="node"><title>Node11</title>
<polygon fill="white" stroke="#bfbfbf" points="0,-56.5 0,-75.5 54,-75.5 54,-56.5 0,-56.5"/>
<text text-anchor="middle" x="27" y="-63.5" font-family="Helvetica,sans-Serif" font-size="10.00">iostream</text>
</g>
<!-- Node5&#45;&gt;Node11 -->
<g id="edge11" class="edge"><title>Node5&#45;&gt;Node11</title>
<path fill="none" stroke="midnightblue" d="M1270.53,-120.81C1123.7,-119.519 329.42,-111.06 63.982,-75.7681"/>
<polygon fill="midnightblue" stroke="midnightblue" points="64.3916,-72.2916 54.0073,-74.3934 63.4358,-79.226 64.3916,-72.2916"/>
</g>
<!-- Node12 -->
<g id="node13" class="node"><title>Node12</title>
<polygon fill="white" stroke="#bfbfbf" points="72,-56.5 72,-75.5 124,-75.5 124,-56.5 72,-56.5"/>
<text text-anchor="middle" x="98" y="-63.5" font-family="Helvetica,sans-Serif" font-size="10.00">stdarg.h</text>
</g>
<!-- Node5&#45;&gt;Node12 -->
<g id="edge12" class="edge"><title>Node5&#45;&gt;Node12</title>
<path fill="none" stroke="midnightblue" d="M1270.95,-120.776C1130.23,-119.307 385.05,-110.08 134.387,-75.8284"/>
<polygon fill="midnightblue" stroke="midnightblue" points="134.644,-72.3299 124.251,-74.3896 133.66,-79.2604 134.644,-72.3299"/>
</g>
<!-- Node13 -->
<g id="node14" class="node"><title>Node13</title>
<polygon fill="white" stroke="#bfbfbf" points="142.5,-56.5 142.5,-75.5 191.5,-75.5 191.5,-56.5 142.5,-56.5"/>
<text text-anchor="middle" x="167" y="-63.5" font-family="Helvetica,sans-Serif" font-size="10.00">ctype.h</text>
</g>
<!-- Node5&#45;&gt;Node13 -->
<g id="edge13" class="edge"><title>Node5&#45;&gt;Node13</title>
<path fill="none" stroke="midnightblue" d="M1270.97,-120.734C1135.26,-119.065 438.038,-109.06 201.649,-75.6714"/>
<polygon fill="midnightblue" stroke="midnightblue" points="202.154,-72.208 191.751,-74.2181 201.137,-79.1337 202.154,-72.208"/>
</g>
<!-- Node14 -->
<g id="node15" class="node"><title>Node14</title>
<polygon fill="white" stroke="#bfbfbf" points="210,-56.5 210,-75.5 258,-75.5 258,-56.5 210,-56.5"/>
<text text-anchor="middle" x="234" y="-63.5" font-family="Helvetica,sans-Serif" font-size="10.00">stdlib.h</text>
</g>
<!-- Node5&#45;&gt;Node14 -->
<g id="edge14" class="edge"><title>Node5&#45;&gt;Node14</title>
<path fill="none" stroke="midnightblue" d="M1270.65,-120.682C1139.19,-118.789 489.861,-108.022 267.942,-75.7184"/>
<polygon fill="midnightblue" stroke="midnightblue" points="268.428,-72.2521 258.016,-74.2136 267.379,-79.173 268.428,-72.2521"/>
</g>
<!-- Node15 -->
<g id="node16" class="node"><title>Node15</title>
<polygon fill="white" stroke="#bfbfbf" points="276,-56.5 276,-75.5 324,-75.5 324,-56.5 276,-56.5"/>
<text text-anchor="middle" x="300" y="-63.5" font-family="Helvetica,sans-Serif" font-size="10.00">gl/glu.h</text>
</g>
<!-- Node5&#45;&gt;Node15 -->
<g id="edge15" class="edge"><title>Node5&#45;&gt;Node15</title>
<path fill="none" stroke="midnightblue" d="M1270.91,-120.606C1145.24,-118.361 541.997,-106.244 333.919,-75.7196"/>
<polygon fill="midnightblue" stroke="midnightblue" points="334.432,-72.2574 324.018,-74.205 333.374,-79.1769 334.432,-72.2574"/>
</g>
<!-- Node16 -->
<g id="node17" class="node"><title>Node16</title>
<polygon fill="white" stroke="#bfbfbf" points="342,-56.5 342,-75.5 394,-75.5 394,-56.5 342,-56.5"/>
<text text-anchor="middle" x="368" y="-63.5" font-family="Helvetica,sans-Serif" font-size="10.00">sstream</text>
</g>
<!-- Node5&#45;&gt;Node16 -->
<g id="edge16" class="edge"><title>Node5&#45;&gt;Node16</title>
<path fill="none" stroke="midnightblue" d="M1270.62,-120.456C1150.09,-117.559 597.471,-103.095 404.277,-75.8316"/>
<polygon fill="midnightblue" stroke="midnightblue" points="404.659,-72.3503 394.256,-74.3558 403.639,-79.2756 404.659,-72.3503"/>
</g>
<!-- Node17 -->
<g id="node18" class="node"><title>Node17</title>
<polygon fill="white" stroke="#bfbfbf" points="412,-56.5 412,-75.5 456,-75.5 456,-56.5 412,-56.5"/>
<text text-anchor="middle" x="434" y="-63.5" font-family="Helvetica,sans-Serif" font-size="10.00">thread</text>
</g>
<!-- Node5&#45;&gt;Node17 -->
<g id="edge17" class="edge"><title>Node5&#45;&gt;Node17</title>
<path fill="none" stroke="midnightblue" d="M1270.7,-120.454C1155.59,-117.648 646.206,-103.954 466.308,-75.7645"/>
<polygon fill="midnightblue" stroke="midnightblue" points="466.644,-72.2729 456.209,-74.1064 465.51,-79.1804 466.644,-72.2729"/>
</g>
<!-- Node18 -->
<g id="node19" class="node"><title>Node18</title>
<polygon fill="white" stroke="#bfbfbf" points="474.5,-56.5 474.5,-75.5 515.5,-75.5 515.5,-56.5 474.5,-56.5"/>
<text text-anchor="middle" x="495" y="-63.5" font-family="Helvetica,sans-Serif" font-size="10.00">future</text>
</g>
<!-- Node5&#45;&gt;Node18 -->
<g id="edge18" class="edge"><title>Node5&#45;&gt;Node18</title>
<path fill="none" stroke="midnightblue" d="M1270.92,-120.375C1161.44,-117.299 693.099,-102.898 525.4,-75.5316"/>
<polygon fill="midnightblue" stroke="midnightblue" points="525.952,-72.0752 515.504,-73.8382 524.771,-78.9749 525.952,-72.0752"/>
</g>
<!-- Node19 -->
<g id="node20" class="node"><title>Node19</title>
<polygon fill="white" stroke="#bfbfbf" points="534,-56.5 534,-75.5 580,-75.5 580,-56.5 534,-56.5"/>
<text text-anchor="middle" x="557" y="-63.5" font-family="Helvetica,sans-Serif" font-size="10.00">atomic</text>
</g>
<!-- Node5&#45;&gt;Node19 -->
<g id="edge19" class="edge"><title>Node5&#45;&gt;Node19</title>
<path fill="none" stroke="midnightblue" d="M1270.97,-121.28C1183.3,-121.981 862.046,-121.235 590.339,-75.8642"/>
<polygon fill="midnightblue" stroke="midnightblue" points="590.733,-72.3812 580.289,-74.1616 589.564,-79.2828 590.733,-72.3812"/>
</g>
<!-- Node5&#45;&gt;Node20 -->
<g id="edge20" class="edge"><title>Node5&#45;&gt;Node20</title>
<path fill="none" stroke="midnightblue" d="M1317.01,-121.249C1440.72,-122.362 2039.55,-124.925 2539.14,-75.9284"/>
<polygon fill="midnightblue" stroke="midnightblue" points="2539.83,-79.3768 2549.44,-74.9093 2539.14,-72.4108 2539.83,-79.3768"/>
</g>
<!-- Node22 -->
<g id="node23" class="node"><title>Node22</title>
<polygon fill="white" stroke="#bfbfbf" points="598,-56.5 598,-75.5 720,-75.5 720,-56.5 598,-56.5"/>
<text text-anchor="middle" x="659" y="-63.5" font-family="Helvetica,sans-Serif" font-size="10.00">QtWidgets/QApplication</text>
</g>
<!-- Node5&#45;&gt;Node22 -->
<g id="edge24" class="edge"><title>Node5&#45;&gt;Node22</title>
<path fill="none" stroke="midnightblue" d="M1270.82,-119.558C1194.9,-114.749 946.609,-98.3501 730.026,-76.0596"/>
<polygon fill="midnightblue" stroke="midnightblue" points="730.371,-72.5767 720.063,-75.0277 729.649,-79.5394 730.371,-72.5767"/>
</g>
<!-- Node23 -->
<g id="node24" class="node"><title>Node23</title>
<polygon fill="white" stroke="#bfbfbf" points="738,-56.5 738,-75.5 810,-75.5 810,-56.5 738,-56.5"/>
<text text-anchor="middle" x="774" y="-63.5" font-family="Helvetica,sans-Serif" font-size="10.00">QUdpSocket</text>
</g>
<!-- Node5&#45;&gt;Node23 -->
<g id="edge25" class="edge"><title>Node5&#45;&gt;Node23</title>
<path fill="none" stroke="midnightblue" d="M1270.67,-119.644C1202.76,-115.516 999.257,-101.874 820.409,-76.0687"/>
<polygon fill="midnightblue" stroke="midnightblue" points="820.694,-72.5732 810.293,-74.5921 819.683,-79.4998 820.694,-72.5732"/>
</g>
<!-- Node24 -->
<g id="node25" class="node"><title>Node24</title>
<polygon fill="white" stroke="#bfbfbf" points="828.5,-56.5 828.5,-75.5 911.5,-75.5 911.5,-56.5 828.5,-56.5"/>
<text text-anchor="middle" x="870" y="-63.5" font-family="Helvetica,sans-Serif" font-size="10.00">cameralibrary.h</text>
</g>
<!-- Node5&#45;&gt;Node24 -->
<g id="edge26" class="edge"><title>Node5&#45;&gt;Node24</title>
<path fill="none" stroke="midnightblue" d="M1270.81,-118.647C1213.48,-112.738 1060.35,-96.3774 921.676,-76.0254"/>
<polygon fill="midnightblue" stroke="midnightblue" points="922.123,-72.5535 911.718,-74.5533 921.099,-79.4782 922.123,-72.5535"/>
</g>
<!-- Node25 -->
<g id="node26" class="node"><title>Node25</title>
<polygon fill="white" stroke="#bfbfbf" points="930,-56.5 930,-75.5 1012,-75.5 1012,-56.5 930,-56.5"/>
<text text-anchor="middle" x="971" y="-63.5" font-family="Helvetica,sans-Serif" font-size="10.00">modulevector.h</text>
</g>
<!-- Node5&#45;&gt;Node25 -->
<g id="edge27" class="edge"><title>Node5&#45;&gt;Node25</title>
<path fill="none" stroke="midnightblue" d="M1270.97,-117.321C1225.51,-110.035 1120.81,-93.128 1022.32,-76.2072"/>
<polygon fill="midnightblue" stroke="midnightblue" points="1022.64,-72.7119 1012.19,-74.4642 1021.45,-79.6104 1022.64,-72.7119"/>
</g>
<!-- Node26 -->
<g id="node27" class="node"><title>Node26</title>
<polygon fill="white" stroke="#bfbfbf" points="1030.5,-56.5 1030.5,-75.5 1159.5,-75.5 1159.5,-56.5 1030.5,-56.5"/>
<text text-anchor="middle" x="1095" y="-63.5" font-family="Helvetica,sans-Serif" font-size="10.00">modulevectorprocessing.h</text>
</g>
<!-- Node5&#45;&gt;Node26 -->
<g id="edge28" class="edge"><title>Node5&#45;&gt;Node26</title>
<path fill="none" stroke="midnightblue" d="M1270.78,-114.7C1237.89,-105.774 1177.2,-89.3066 1136.47,-78.2525"/>
<polygon fill="midnightblue" stroke="midnightblue" points="1137.14,-74.8078 1126.57,-75.5667 1135.3,-81.5635 1137.14,-74.8078"/>
</g>
<!-- Node27 -->
<g id="node28" class="node"><title>Node27</title>
<polygon fill="white" stroke="#bfbfbf" points="1177.5,-56.5 1177.5,-75.5 1242.5,-75.5 1242.5,-56.5 1177.5,-56.5"/>
<text text-anchor="middle" x="1210" y="-63.5" font-family="Helvetica,sans-Serif" font-size="10.00">coremath.h</text>
</g>
<!-- Node5&#45;&gt;Node27 -->
<g id="edge29" class="edge"><title>Node5&#45;&gt;Node27</title>
<path fill="none" stroke="midnightblue" d="M1280.5,-112.324C1267.4,-103.9 1247.29,-90.9709 1231.89,-81.0741"/>
<polygon fill="midnightblue" stroke="midnightblue" points="1233.77,-78.118 1223.46,-75.6545 1229.98,-84.0063 1233.77,-78.118"/>
</g>
<!-- Node28 -->
<g id="node29" class="node"><title>Node28</title>
<polygon fill="white" stroke="#bfbfbf" points="1260.5,-56.5 1260.5,-75.5 1327.5,-75.5 1327.5,-56.5 1260.5,-56.5"/>
<text text-anchor="middle" x="1294" y="-63.5" font-family="Helvetica,sans-Serif" font-size="10.00">opencv\cv.h</text>
</g>
<!-- Node5&#45;&gt;Node28 -->
<g id="edge30" class="edge"><title>Node5&#45;&gt;Node28</title>
<path fill="none" stroke="midnightblue" d="M1294,-112.083C1294,-105.006 1294,-94.8611 1294,-85.9865"/>
<polygon fill="midnightblue" stroke="midnightblue" points="1297.5,-85.751 1294,-75.7511 1290.5,-85.7511 1297.5,-85.751"/>
</g>
<!-- Node29 -->
<g id="node30" class="node"><title>Node29</title>
<polygon fill="white" stroke="#bfbfbf" points="1346,-56.5 1346,-75.5 1438,-75.5 1438,-56.5 1346,-56.5"/>
<text text-anchor="middle" x="1392" y="-63.5" font-family="Helvetica,sans-Serif" font-size="10.00">opencv2\core.hpp</text>
</g>
<!-- Node5&#45;&gt;Node29 -->
<g id="edge31" class="edge"><title>Node5&#45;&gt;Node29</title>
<path fill="none" stroke="midnightblue" d="M1309.75,-112.324C1325.32,-103.743 1349.38,-90.486 1367.46,-80.5224"/>
<polygon fill="midnightblue" stroke="midnightblue" points="1369.22,-83.546 1376.29,-75.6545 1365.85,-77.4152 1369.22,-83.546"/>
</g>
<!-- Node30 -->
<g id="node31" class="node"><title>Node30</title>
<polygon fill="white" stroke="#bfbfbf" points="1456,-56.5 1456,-75.5 1560,-75.5 1560,-56.5 1456,-56.5"/>
<text text-anchor="middle" x="1508" y="-63.5" font-family="Helvetica,sans-Serif" font-size="10.00">opencv2\calib3d.hpp</text>
</g>
<!-- Node5&#45;&gt;Node30 -->
<g id="edge32" class="edge"><title>Node5&#45;&gt;Node30</title>
<path fill="none" stroke="midnightblue" d="M1317.31,-115.118C1352.48,-106.242 1419.74,-89.2713 1464.24,-78.0428"/>
<polygon fill="midnightblue" stroke="midnightblue" points="1465.36,-81.3703 1474.2,-75.5299 1463.64,-74.583 1465.36,-81.3703"/>
</g>
<!-- Node31 -->
<g id="node32" class="node"><title>Node31</title>
<polygon fill="white" stroke="#bfbfbf" points="1578,-56.5 1578,-75.5 1724,-75.5 1724,-56.5 1578,-56.5"/>
<text text-anchor="middle" x="1651" y="-63.5" font-family="Helvetica,sans-Serif" font-size="10.00">opencv2/imgproc/imgproc.hpp</text>
</g>
<!-- Node5&#45;&gt;Node31 -->
<g id="edge33" class="edge"><title>Node5&#45;&gt;Node31</title>
<path fill="none" stroke="midnightblue" d="M1317.15,-117.499C1370.42,-109.441 1503.32,-89.3386 1584.46,-77.0654"/>
<polygon fill="midnightblue" stroke="midnightblue" points="1585.21,-80.4914 1594.57,-75.5351 1584.16,-73.5701 1585.21,-80.4914"/>
</g>
<!-- Node32 -->
<g id="node33" class="node"><title>Node32</title>
<polygon fill="white" stroke="#bfbfbf" points="1742,-56.5 1742,-75.5 1880,-75.5 1880,-56.5 1742,-56.5"/>
<text text-anchor="middle" x="1811" y="-63.5" font-family="Helvetica,sans-Serif" font-size="10.00">opencv2/calib3d/calib3d.hpp</text>
</g>
<!-- Node5&#45;&gt;Node32 -->
<g id="edge34" class="edge"><title>Node5&#45;&gt;Node32</title>
<path fill="none" stroke="midnightblue" d="M1317.33,-118.714C1381.52,-112.402 1566.4,-94.0728 1731.35,-76.1684"/>
<polygon fill="midnightblue" stroke="midnightblue" points="1732.12,-79.6054 1741.68,-75.0445 1731.36,-72.6464 1732.12,-79.6054"/>
</g>
<!-- Node33 -->
<g id="node34" class="node"><title>Node33</title>
<polygon fill="white" stroke="#bfbfbf" points="1898,-56.5 1898,-75.5 2036,-75.5 2036,-56.5 1898,-56.5"/>
<text text-anchor="middle" x="1967" y="-63.5" font-family="Helvetica,sans-Serif" font-size="10.00">opencv2/highgui/highgui.hpp</text>
</g>
<!-- Node5&#45;&gt;Node33 -->
<g id="edge35" class="edge"><title>Node5&#45;&gt;Node33</title>
<path fill="none" stroke="midnightblue" d="M1317,-119.588C1395.26,-114.714 1658.64,-97.7484 1887.51,-76.1087"/>
<polygon fill="midnightblue" stroke="midnightblue" points="1888.07,-79.5713 1897.69,-75.1405 1887.41,-72.6027 1888.07,-79.5713"/>
</g>
<!-- Node34 -->
<g id="node35" class="node"><title>Node34</title>
<polygon fill="white" stroke="#bfbfbf" points="2054.5,-56.5 2054.5,-75.5 2187.5,-75.5 2187.5,-56.5 2054.5,-56.5"/>
<text text-anchor="middle" x="2121" y="-63.5" font-family="Helvetica,sans-Serif" font-size="10.00">opencv2\video\tracking.hpp</text>
</g>
<!-- Node5&#45;&gt;Node34 -->
<g id="edge36" class="edge"><title>Node5&#45;&gt;Node34</title>
<path fill="none" stroke="midnightblue" d="M1317.08,-120.106C1408.04,-116.481 1750.64,-101.863 2044.31,-76.0065"/>
<polygon fill="midnightblue" stroke="midnightblue" points="2044.64,-79.4906 2054.29,-75.1212 2044.02,-72.518 2044.64,-79.4906"/>
</g>
<!-- Node20&#45;&gt;Node4 -->
<g id="edge22" class="edge"><title>Node20&#45;&gt;Node4</title>
<path fill="none" stroke="midnightblue" d="M2606.89,-56.324C2618.15,-48.1066 2635.29,-35.6017 2648.71,-25.8069"/>
<polygon fill="midnightblue" stroke="midnightblue" points="2650.88,-28.5559 2656.89,-19.8339 2646.75,-22.9014 2650.88,-28.5559"/>
</g>
<!-- Node21 -->
<g id="node22" class="node"><title>Node21</title>
<polygon fill="white" stroke="#bfbfbf" points="2566.5,-0.5 2566.5,-19.5 2619.5,-19.5 2619.5,-0.5 2566.5,-0.5"/>
<text text-anchor="middle" x="2593" y="-7.5" font-family="Helvetica,sans-Serif" font-size="10.00">QObject</text>
</g>
<!-- Node20&#45;&gt;Node21 -->
<g id="edge21" class="edge"><title>Node20&#45;&gt;Node21</title>
<path fill="none" stroke="midnightblue" d="M2594.67,-56.083C2594.41,-49.0059 2594.03,-38.8611 2593.7,-29.9865"/>
<polygon fill="midnightblue" stroke="midnightblue" points="2597.19,-29.6147 2593.32,-19.7511 2590.2,-29.8738 2597.19,-29.6147"/>
</g>
</g>
</svg>
        <g id="navigator" transform="translate(0 0)" fill="#404254">
                <rect fill="#f2f5e9" fill-opacity="0.5" stroke="#606060" stroke-width=".5" x="0" y="0" width="60" height="60"/>
                <use id="zoomplus" xlink:href="#zoomPlus" x="17" y="9" onmousedown="handleZoom(evt,'in')"/>
                <use id="zoomminus" xlink:href="#zoomMin" x="42" y="9" onmousedown="handleZoom(evt,'out')"/>
                <use id="reset" xlink:href="#resetDef" x="30" y="36" onmousedown="handleReset()"/>
                <g id="arrowUp" xlink:href="#dirArrow" transform="translate(30 24)" onmousedown="handlePan(0,-1)">
                  <use xlink:href="#rim" fill="#404040">
                        <set attributeName="fill" to="#808080" begin="arrowUp.mouseover" end="arrowUp.mouseout"/>
                  </use>
                  <path fill="none" stroke="white" stroke-width="1.5" d="M0,-3.0v7 M-2.5,-0.5L0,-3.0L2.5,-0.5"/>
                </g>
                <g id="arrowRight" xlink:href="#dirArrow" transform="rotate(90) translate(36 -43)" onmousedown="handlePan(1,0)">
                  <use xlink:href="#rim" fill="#404040">
                        <set attributeName="fill" to="#808080" begin="arrowRight.mouseover" end="arrowRight.mouseout"/>
                  </use>
                  <path fill="none" stroke="white" stroke-width="1.5" d="M0,-3.0v7 M-2.5,-0.5L0,-3.0L2.5,-0.5"/>
                </g>
                <g id="arrowDown" xlink:href="#dirArrow" transform="rotate(180) translate(-30 -48)" onmousedown="handlePan(0,1)">
                  <use xlink:href="#rim" fill="#404040">
                        <set attributeName="fill" to="#808080" begin="arrowDown.mouseover" end="arrowDown.mouseout"/>
                  </use>
                  <path fill="none" stroke="white" stroke-width="1.5" d="M0,-3.0v7 M-2.5,-0.5L0,-3.0L2.5,-0.5"/>
                </g>
                <g id="arrowLeft" xlink:href="#dirArrow" transform="rotate(270) translate(-36 17)" onmousedown="handlePan(-1,0)">
                  <use xlink:href="#rim" fill="#404040">
                        <set attributeName="fill" to="#808080" begin="arrowLeft.mouseover" end="arrowLeft.mouseout"/>
                  </use>
                  <path fill="none" stroke="white" stroke-width="1.5" d="M0,-3.0v7 M-2.5,-0.5L0,-3.0L2.5,-0.5"/>
                </g>
        </g>
        <svg viewBox="0 0 15 15" width="100%" height="30px" preserveAspectRatio="xMaxYMin meet">
         <g id="arrow_out" transform="scale(0.3 0.3)">
          <a xlink:href="_rigid_track_8cpp__incl_org.svg" target="_base">
           <rect id="button" ry="5" rx="5" y="6" x="6" height="38" width="38"
                fill="#f2f5e9" fill-opacity="0.5" stroke="#606060" stroke-width="1.0"/>
           <path id="arrow"
             d="M 11.500037,31.436501 C 11.940474,20.09759 22.043105,11.32322 32.158766,21.979434 L 37.068811,17.246167 C 37.068811,17.246167 37.088388,32 37.088388,32 L 22.160133,31.978069 C 22.160133,31.978069 26.997745,27.140456 26.997745,27.140456 C 18.528582,18.264221 13.291696,25.230495 11.500037,31.436501 z"
             style="fill:#404040;"/>
          </a>
         </g>
        </svg>
</svg>
