<?xml version="1.0" encoding="UTF-8" standalone="no"?>
<!DOCTYPE svg PUBLIC "-//W3C//DTD SVG 1.1//EN"
 "http://www.w3.org/Graphics/SVG/1.1/DTD/svg11.dtd">
<!-- Generated by graphviz version 2.38.0 (20140413.2041)
 -->
<!-- Title: Surface::PutPixel Pages: 1 -->
<svg width="486pt" height="242pt"
 viewBox="0.00 0.00 486.00 242.47" xmlns="http://www.w3.org/2000/svg" xmlns:xlink="http://www.w3.org/1999/xlink">
<g id="graph0" class="graph" transform="scale(1 1) rotate(0) translate(4 238.475)">
<title>Surface::PutPixel</title>
<polygon fill="white" stroke="none" points="-4,4 -4,-238.475 482,-238.475 482,4 -4,4"/>
<!-- Node41 -->
<g id="node1" class="node"><title>Node41</title>
<polygon fill="#bfbfbf" stroke="black" points="0,-133.5 0,-152.5 92,-152.5 92,-133.5 0,-133.5"/>
<text text-anchor="middle" x="46" y="-140.5" font-family="Helvetica,sans-Serif" font-size="10.00">Surface::PutPixel</text>
</g>
<!-- Node42 -->
<g id="node2" class="node"><title>Node42</title>
<g id="a_node2"><a xlink:href="supportcode_8cpp.html#a0ddf1224851353fc92bfbff6f499fa97" target="_top" xlink:title="main initialises the GUI and values for the marker position etc ">
<polygon fill="white" stroke="black" points="128,-133.5 128,-152.5 166,-152.5 166,-133.5 128,-133.5"/>
<text text-anchor="middle" x="147" y="-140.5" font-family="Helvetica,sans-Serif" font-size="10.00">main</text>
</a>
</g>
</g>
<!-- Node41&#45;&gt;Node42 -->
<g id="edge1" class="edge"><title>Node41&#45;&gt;Node42</title>
<path fill="none" stroke="midnightblue" d="M92.1544,-143C100.849,-143 109.724,-143 117.696,-143"/>
<polygon fill="midnightblue" stroke="midnightblue" points="117.903,-146.5 127.903,-143 117.903,-139.5 117.903,-146.5"/>
</g>
<!-- Node43 -->
<g id="node3" class="node"><title>Node43</title>
<g id="a_node3"><a xlink:href="classcomm_object.html#aec354c7099b3039083cc4224e071e022" target="_top" xlink:title="commObject::addLog">
<polygon fill="white" stroke="black" points="355,-190.5 355,-209.5 465,-209.5 465,-190.5 355,-190.5"/>
<text text-anchor="middle" x="410" y="-197.5" font-family="Helvetica,sans-Serif" font-size="10.00">commObject::addLog</text>
</a>
</g>
</g>
<!-- Node42&#45;&gt;Node43 -->
<g id="edge2" class="edge"><title>Node42&#45;&gt;Node43</title>
<path fill="none" stroke="midnightblue" d="M151.468,-152.737C158.164,-169.862 174.673,-204.894 202,-219 258.259,-248.041 334.623,-228.356 377.116,-213.089"/>
<polygon fill="midnightblue" stroke="midnightblue" points="378.509,-216.305 386.655,-209.53 376.062,-209.747 378.509,-216.305"/>
</g>
<!-- Node44 -->
<g id="node4" class="node"><title>Node44</title>
<g id="a_node4"><a xlink:href="main_8cpp.html#ad19da4e648bbdc80d3123eb94711588e" target="_top" xlink:title="setHeadingOffset">
<polygon fill="white" stroke="black" points="208.5,-38.5 208.5,-57.5 299.5,-57.5 299.5,-38.5 208.5,-38.5"/>
<text text-anchor="middle" x="254" y="-45.5" font-family="Helvetica,sans-Serif" font-size="10.00">setHeadingOffset</text>
</a>
</g>
</g>
<!-- Node42&#45;&gt;Node44 -->
<g id="edge3" class="edge"><title>Node42&#45;&gt;Node44</title>
<path fill="none" stroke="midnightblue" d="M152.422,-133.43C160.245,-117.489 177.993,-85.4338 202,-67 204.319,-65.2197 206.821,-63.5922 209.43,-62.1066"/>
<polygon fill="midnightblue" stroke="midnightblue" points="211.175,-65.1488 218.595,-57.5863 208.079,-58.8709 211.175,-65.1488"/>
</g>
<!-- Node45 -->
<g id="node5" class="node"><title>Node45</title>
<g id="a_node5"><a xlink:href="main_8cpp.html#af39fa6c3a36ad6bc24a327db7a9d73c2" target="_top" xlink:title="loadCameraPosition">
<polygon fill="white" stroke="black" points="202,-190.5 202,-209.5 306,-209.5 306,-190.5 202,-190.5"/>
<text text-anchor="middle" x="254" y="-197.5" font-family="Helvetica,sans-Serif" font-size="10.00">loadCameraPosition</text>
</a>
</g>
</g>
<!-- Node42&#45;&gt;Node45 -->
<g id="edge4" class="edge"><title>Node42&#45;&gt;Node45</title>
<path fill="none" stroke="midnightblue" d="M159.863,-152.697C170.438,-161.004 186.584,-172.878 202,-181 205.762,-182.982 209.777,-184.854 213.84,-186.594"/>
<polygon fill="midnightblue" stroke="midnightblue" points="212.727,-189.919 223.311,-190.403 215.339,-183.425 212.727,-189.919"/>
</g>
<!-- Node46 -->
<g id="node6" class="node"><title>Node46</title>
<g id="a_node6"><a xlink:href="main_8cpp.html#ad39626702ff983d5fdab4b703bfaf964" target="_top" xlink:title="loadCalibration">
<polygon fill="white" stroke="black" points="214,-152.5 214,-171.5 294,-171.5 294,-152.5 214,-152.5"/>
<text text-anchor="middle" x="254" y="-159.5" font-family="Helvetica,sans-Serif" font-size="10.00">loadCalibration</text>
</a>
</g>
</g>
<!-- Node42&#45;&gt;Node46 -->
<g id="edge6" class="edge"><title>Node42&#45;&gt;Node46</title>
<path fill="none" stroke="midnightblue" d="M166.29,-146.31C176.684,-148.19 190.247,-150.645 203.549,-153.052"/>
<polygon fill="midnightblue" stroke="midnightblue" points="203.149,-156.536 213.612,-154.873 204.396,-149.648 203.149,-156.536"/>
</g>
<!-- Node47 -->
<g id="node7" class="node"><title>Node47</title>
<g id="a_node7"><a xlink:href="main_8cpp.html#a56c7f641859cb2b6b99b0947d03be800" target="_top" xlink:title="loadMarkerConfig">
<polygon fill="white" stroke="black" points="208,-114.5 208,-133.5 300,-133.5 300,-114.5 208,-114.5"/>
<text text-anchor="middle" x="254" y="-121.5" font-family="Helvetica,sans-Serif" font-size="10.00">loadMarkerConfig</text>
</a>
</g>
</g>
<!-- Node42&#45;&gt;Node47 -->
<g id="edge8" class="edge"><title>Node42&#45;&gt;Node47</title>
<path fill="none" stroke="midnightblue" d="M166.29,-139.69C175.197,-138.079 186.431,-136.046 197.833,-133.983"/>
<polygon fill="midnightblue" stroke="midnightblue" points="198.625,-137.396 207.842,-132.171 197.379,-130.508 198.625,-137.396"/>
</g>
<!-- Node52 -->
<g id="node12" class="node"><title>Node52</title>
<g id="a_node12"><a xlink:href="main_8cpp.html#a847c0fbd3e513fb76ff145b31a9f5c37" target="_top" xlink:title="testAlgorithms">
<polygon fill="white" stroke="black" points="214,-76.5 214,-95.5 294,-95.5 294,-76.5 214,-76.5"/>
<text text-anchor="middle" x="254" y="-83.5" font-family="Helvetica,sans-Serif" font-size="10.00">testAlgorithms</text>
</a>
</g>
</g>
<!-- Node42&#45;&gt;Node52 -->
<g id="edge14" class="edge"><title>Node42&#45;&gt;Node52</title>
<path fill="none" stroke="midnightblue" d="M159.863,-133.303C170.438,-124.996 186.584,-113.122 202,-105 205.762,-103.018 209.777,-101.146 213.84,-99.4059"/>
<polygon fill="midnightblue" stroke="midnightblue" points="215.339,-102.575 223.311,-95.5971 212.727,-96.0809 215.339,-102.575"/>
</g>
<!-- Node45&#45;&gt;Node43 -->
<g id="edge5" class="edge"><title>Node45&#45;&gt;Node43</title>
<path fill="none" stroke="midnightblue" d="M306.28,-200C318.569,-200 331.846,-200 344.644,-200"/>
<polygon fill="midnightblue" stroke="midnightblue" points="344.776,-203.5 354.776,-200 344.776,-196.5 344.776,-203.5"/>
</g>
<!-- Node46&#45;&gt;Node43 -->
<g id="edge7" class="edge"><title>Node46&#45;&gt;Node43</title>
<path fill="none" stroke="midnightblue" d="M293.861,-171.589C314.091,-176.581 339.021,-182.732 360.504,-188.033"/>
<polygon fill="midnightblue" stroke="midnightblue" points="359.871,-191.482 370.419,-190.48 361.548,-184.686 359.871,-191.482"/>
</g>
<!-- Node47&#45;&gt;Node43 -->
<g id="edge9" class="edge"><title>Node47&#45;&gt;Node43</title>
<path fill="none" stroke="midnightblue" d="M287.374,-133.519C293.81,-136.101 300.326,-139.246 306,-143 325.402,-155.837 322.098,-168.952 342,-181 345.607,-183.184 349.475,-185.125 353.465,-186.85"/>
<polygon fill="midnightblue" stroke="midnightblue" points="352.344,-190.168 362.934,-190.492 354.857,-183.635 352.344,-190.168"/>
</g>
<!-- Node48 -->
<g id="node8" class="node"><title>Node48</title>
<g id="a_node8"><a xlink:href="classcomm_object.html#a7552116eb5e18c49c6dcf943de29af7a" target="_top" xlink:title="commObject::enableP3P">
<polygon fill="white" stroke="black" points="347.5,-152.5 347.5,-171.5 472.5,-171.5 472.5,-152.5 347.5,-152.5"/>
<text text-anchor="middle" x="410" y="-159.5" font-family="Helvetica,sans-Serif" font-size="10.00">commObject::enableP3P</text>
</a>
</g>
</g>
<!-- Node47&#45;&gt;Node48 -->
<g id="edge10" class="edge"><title>Node47&#45;&gt;Node48</title>
<path fill="none" stroke="midnightblue" d="M293.861,-133.589C314.091,-138.581 339.021,-144.732 360.504,-150.033"/>
<polygon fill="midnightblue" stroke="midnightblue" points="359.871,-153.482 370.419,-152.48 361.548,-146.686 359.871,-153.482"/>
</g>
<!-- Node49 -->
<g id="node9" class="node"><title>Node49</title>
<g id="a_node9"><a xlink:href="main_8cpp.html#a2104a5d9d6b9f1e29bc4cd858c59882e" target="_top" xlink:title="projectCoordinateFrame">
<polygon fill="white" stroke="black" points="350,-114.5 350,-133.5 470,-133.5 470,-114.5 350,-114.5"/>
<text text-anchor="middle" x="410" y="-121.5" font-family="Helvetica,sans-Serif" font-size="10.00">projectCoordinateFrame</text>
</a>
</g>
</g>
<!-- Node47&#45;&gt;Node49 -->
<g id="edge11" class="edge"><title>Node47&#45;&gt;Node49</title>
<path fill="none" stroke="midnightblue" d="M300.372,-124C312.745,-124 326.436,-124 339.81,-124"/>
<polygon fill="midnightblue" stroke="midnightblue" points="339.948,-127.5 349.948,-124 339.948,-120.5 339.948,-127.5"/>
</g>
<!-- Node50 -->
<g id="node10" class="node"><title>Node50</title>
<g id="a_node10"><a xlink:href="main_8cpp.html#a3e3cc959a7ab6f93ea52863d86373ce5" target="_top" xlink:title="Mat2QPixmap">
<polygon fill="white" stroke="black" points="370.5,-76.5 370.5,-95.5 449.5,-95.5 449.5,-76.5 370.5,-76.5"/>
<text text-anchor="middle" x="410" y="-83.5" font-family="Helvetica,sans-Serif" font-size="10.00">Mat2QPixmap</text>
</a>
</g>
</g>
<!-- Node47&#45;&gt;Node50 -->
<g id="edge12" class="edge"><title>Node47&#45;&gt;Node50</title>
<path fill="none" stroke="midnightblue" d="M293.861,-114.411C314.091,-109.419 339.021,-103.268 360.504,-97.9666"/>
<polygon fill="midnightblue" stroke="midnightblue" points="361.548,-101.314 370.419,-95.5201 359.871,-94.5177 361.548,-101.314"/>
</g>
<!-- Node51 -->
<g id="node11" class="node"><title>Node51</title>
<g id="a_node11"><a xlink:href="classcomm_object.html#a6f81522c2aa1668fa402f08710e6206b" target="_top" xlink:title="commObject::changeImage">
<polygon fill="white" stroke="black" points="342,-38.5 342,-57.5 478,-57.5 478,-38.5 342,-38.5"/>
<text text-anchor="middle" x="410" y="-45.5" font-family="Helvetica,sans-Serif" font-size="10.00">commObject::changeImage</text>
</a>
</g>
</g>
<!-- Node47&#45;&gt;Node51 -->
<g id="edge13" class="edge"><title>Node47&#45;&gt;Node51</title>
<path fill="none" stroke="midnightblue" d="M287.374,-114.481C293.81,-111.899 300.326,-108.754 306,-105 325.402,-92.1627 322.098,-79.0482 342,-67 345.607,-64.8163 349.475,-62.875 353.465,-61.1505"/>
<polygon fill="midnightblue" stroke="midnightblue" points="354.857,-64.3651 362.934,-57.5082 352.344,-57.8318 354.857,-64.3651"/>
</g>
<!-- Node52&#45;&gt;Node43 -->
<g id="edge15" class="edge"><title>Node52&#45;&gt;Node43</title>
<path fill="none" stroke="midnightblue" d="M291.563,-95.6173C296.803,-98.0867 301.823,-101.167 306,-105 333.537,-130.271 313.471,-156.854 342,-181 344.019,-182.709 346.182,-184.264 348.45,-185.68"/>
<polygon fill="midnightblue" stroke="midnightblue" points="347.149,-188.949 357.633,-190.478 350.391,-182.745 347.149,-188.949"/>
</g>
<!-- Node52&#45;&gt;Node49 -->
<g id="edge16" class="edge"><title>Node52&#45;&gt;Node49</title>
<path fill="none" stroke="midnightblue" d="M293.861,-95.589C314.091,-100.581 339.021,-106.732 360.504,-112.033"/>
<polygon fill="midnightblue" stroke="midnightblue" points="359.871,-115.482 370.419,-114.48 361.548,-108.686 359.871,-115.482"/>
</g>
<!-- Node52&#45;&gt;Node50 -->
<g id="edge17" class="edge"><title>Node52&#45;&gt;Node50</title>
<path fill="none" stroke="midnightblue" d="M294.259,-86C314.324,-86 338.931,-86 360.205,-86"/>
<polygon fill="midnightblue" stroke="midnightblue" points="360.346,-89.5001 370.346,-86 360.346,-82.5001 360.346,-89.5001"/>
</g>
<!-- Node52&#45;&gt;Node51 -->
<g id="edge18" class="edge"><title>Node52&#45;&gt;Node51</title>
<path fill="none" stroke="midnightblue" d="M293.861,-76.411C314.091,-71.4191 339.021,-65.2676 360.504,-59.9666"/>
<polygon fill="midnightblue" stroke="midnightblue" points="361.548,-63.3139 370.419,-57.5201 359.871,-56.5177 361.548,-63.3139"/>
</g>
<!-- Node53 -->
<g id="node13" class="node"><title>Node53</title>
<g id="a_node13"><a xlink:href="main_8cpp.html#af6430ad2592a955a3618549547dfc5be" target="_top" xlink:title="drawPositionText">
<polygon fill="white" stroke="black" points="364.5,-0.5 364.5,-19.5 455.5,-19.5 455.5,-0.5 364.5,-0.5"/>
<text text-anchor="middle" x="410" y="-7.5" font-family="Helvetica,sans-Serif" font-size="10.00">drawPositionText</text>
</a>
</g>
</g>
<!-- Node52&#45;&gt;Node53 -->
<g id="edge19" class="edge"><title>Node52&#45;&gt;Node53</title>
<path fill="none" stroke="midnightblue" d="M287.374,-76.4812C293.81,-73.8992 300.326,-70.7539 306,-67 325.402,-54.1627 322.098,-41.0482 342,-29 346.053,-26.5463 350.435,-24.3985 354.951,-22.5206"/>
<polygon fill="midnightblue" stroke="midnightblue" points="356.188,-25.795 364.344,-19.0333 353.751,-19.2326 356.188,-25.795"/>
</g>
</g>
</svg>
