<?xml version="1.0" encoding="UTF-8" standalone="no"?>
<!DOCTYPE svg PUBLIC "-//W3C//DTD SVG 1.1//EN"
 "http://www.w3.org/Graphics/SVG/1.1/DTD/svg11.dtd">
<!-- Generated by graphviz version 2.38.0 (20140413.2041)
 -->
<!-- Title: RigidTrack::on_cbSafety2_stateChanged Pages: 1 -->
<svg width="452pt" height="61pt"
 viewBox="0.00 0.00 452.00 61.00" xmlns="http://www.w3.org/2000/svg" xmlns:xlink="http://www.w3.org/1999/xlink">
<g id="graph0" class="graph" transform="scale(1 1) rotate(0) translate(4 57)">
<title>RigidTrack::on_cbSafety2_stateChanged</title>
<polygon fill="white" stroke="none" points="-4,4 -4,-57 448,-57 448,4 -4,4"/>
<!-- Node68 -->
<g id="node1" class="node"><title>Node68</title>
<polygon fill="#bfbfbf" stroke="black" points="0,-22.5 0,-52.5 128,-52.5 128,-22.5 0,-22.5"/>
<text text-anchor="start" x="8" y="-40.5" font-family="Helvetica,sans-Serif" font-size="10.00">RigidTrack::on_cbSafety2</text>
<text text-anchor="middle" x="64" y="-29.5" font-family="Helvetica,sans-Serif" font-size="10.00">_stateChanged</text>
</g>
<!-- Node69 -->
<g id="node2" class="node"><title>Node69</title>
<g id="a_node2"><a xlink:href="classcomm_object.html#aec354c7099b3039083cc4224e071e022" target="_top" xlink:title="commObject::addLog">
<polygon fill="white" stroke="black" points="334,-28 334,-47 444,-47 444,-28 334,-28"/>
<text text-anchor="middle" x="389" y="-35" font-family="Helvetica,sans-Serif" font-size="10.00">commObject::addLog</text>
</a>
</g>
</g>
<!-- Node68&#45;&gt;Node69 -->
<g id="edge1" class="edge"><title>Node68&#45;&gt;Node69</title>
<path fill="none" stroke="midnightblue" d="M128.104,-39.6983C140.026,-40.0325 152.394,-40.3242 164,-40.5 223.549,-41.402 238.453,-41.4922 298,-40.5 306.314,-40.3615 315.058,-40.151 323.695,-39.9045"/>
<polygon fill="midnightblue" stroke="midnightblue" points="323.863,-43.4011 333.752,-39.6007 323.651,-36.4043 323.863,-43.4011"/>
</g>
<!-- Node70 -->
<g id="node3" class="node"><title>Node70</title>
<g id="a_node3"><a xlink:href="class_rigid_track.html#a555c536593d659b940de43cd2db8d6c1" target="_top" xlink:title="RigidTrack::on_leIPSafety2\l_returnPressed">
<polygon fill="white" stroke="black" points="164,-0.5 164,-30.5 298,-30.5 298,-0.5 164,-0.5"/>
<text text-anchor="start" x="172" y="-18.5" font-family="Helvetica,sans-Serif" font-size="10.00">RigidTrack::on_leIPSafety2</text>
<text text-anchor="middle" x="231" y="-7.5" font-family="Helvetica,sans-Serif" font-size="10.00">_returnPressed</text>
</a>
</g>
</g>
<!-- Node68&#45;&gt;Node70 -->
<g id="edge2" class="edge"><title>Node68&#45;&gt;Node70</title>
<path fill="none" stroke="midnightblue" d="M128.321,-29.0571C136.682,-27.9423 145.322,-26.7904 153.869,-25.6508"/>
<polygon fill="midnightblue" stroke="midnightblue" points="154.389,-29.1125 163.839,-24.3215 153.464,-22.1739 154.389,-29.1125"/>
</g>
<!-- Node70&#45;&gt;Node69 -->
<g id="edge3" class="edge"><title>Node70&#45;&gt;Node69</title>
<path fill="none" stroke="midnightblue" d="M298.158,-24.83C306.541,-26.0123 315.112,-27.2209 323.469,-28.3995"/>
<polygon fill="midnightblue" stroke="midnightblue" points="323.14,-31.8877 333.531,-29.8185 324.118,-24.9563 323.14,-31.8877"/>
</g>
</g>
</svg>
