<?xml version="1.0" encoding="UTF-8" standalone="no"?>
<!DOCTYPE svg PUBLIC "-//W3C//DTD SVG 1.1//EN"
 "http://www.w3.org/Graphics/SVG/1.1/DTD/svg11.dtd">
<!-- Generated by graphviz version 2.38.0 (20140413.2041)
 -->
<!-- Title: RigidTrack::on_pbLoadMarker_clicked Pages: 1 -->
<svg width="454pt" height="180pt"
 viewBox="0.00 0.00 454.00 180.00" xmlns="http://www.w3.org/2000/svg" xmlns:xlink="http://www.w3.org/1999/xlink">
<g id="graph0" class="graph" transform="scale(1 1) rotate(0) translate(4 176)">
<title>RigidTrack::on_pbLoadMarker_clicked</title>
<polygon fill="white" stroke="none" points="-4,4 -4,-176 450,-176 450,4 -4,4"/>
<!-- Node89 -->
<g id="node1" class="node"><title>Node89</title>
<polygon fill="#bfbfbf" stroke="black" points="0,-71 0,-101 146,-101 146,-71 0,-71"/>
<text text-anchor="start" x="8" y="-89" font-family="Helvetica,sans-Serif" font-size="10.00">RigidTrack::on_pbLoadMarker</text>
<text text-anchor="middle" x="73" y="-78" font-family="Helvetica,sans-Serif" font-size="10.00">_clicked</text>
</g>
<!-- Node90 -->
<g id="node2" class="node"><title>Node90</title>
<g id="a_node2"><a xlink:href="main_8cpp.html#a56c7f641859cb2b6b99b0947d03be800" target="_top" xlink:title="loadMarkerConfig">
<polygon fill="white" stroke="black" points="182,-76.5 182,-95.5 274,-95.5 274,-76.5 182,-76.5"/>
<text text-anchor="middle" x="228" y="-83.5" font-family="Helvetica,sans-Serif" font-size="10.00">loadMarkerConfig</text>
</a>
</g>
</g>
<!-- Node89&#45;&gt;Node90 -->
<g id="edge1" class="edge"><title>Node89&#45;&gt;Node90</title>
<path fill="none" stroke="midnightblue" d="M146.02,-86C154.726,-86 163.51,-86 171.918,-86"/>
<polygon fill="midnightblue" stroke="midnightblue" points="171.958,-89.5001 181.958,-86 171.958,-82.5001 171.958,-89.5001"/>
</g>
<!-- Node91 -->
<g id="node3" class="node"><title>Node91</title>
<g id="a_node3"><a xlink:href="classcomm_object.html#aec354c7099b3039083cc4224e071e022" target="_top" xlink:title="commObject::addLog">
<polygon fill="white" stroke="black" points="323,-152.5 323,-171.5 433,-171.5 433,-152.5 323,-152.5"/>
<text text-anchor="middle" x="378" y="-159.5" font-family="Helvetica,sans-Serif" font-size="10.00">commObject::addLog</text>
</a>
</g>
</g>
<!-- Node90&#45;&gt;Node91 -->
<g id="edge2" class="edge"><title>Node90&#45;&gt;Node91</title>
<path fill="none" stroke="midnightblue" d="M240.037,-95.6197C254.959,-108.171 282.836,-130.053 310,-143 314.911,-145.341 320.166,-147.446 325.492,-149.326"/>
<polygon fill="midnightblue" stroke="midnightblue" points="324.505,-152.685 335.097,-152.468 326.681,-146.032 324.505,-152.685"/>
</g>
<!-- Node92 -->
<g id="node4" class="node"><title>Node92</title>
<g id="a_node4"><a xlink:href="classcomm_object.html#a7552116eb5e18c49c6dcf943de29af7a" target="_top" xlink:title="commObject::enableP3P">
<polygon fill="white" stroke="black" points="315.5,-114.5 315.5,-133.5 440.5,-133.5 440.5,-114.5 315.5,-114.5"/>
<text text-anchor="middle" x="378" y="-121.5" font-family="Helvetica,sans-Serif" font-size="10.00">commObject::enableP3P</text>
</a>
</g>
</g>
<!-- Node90&#45;&gt;Node92 -->
<g id="edge3" class="edge"><title>Node90&#45;&gt;Node92</title>
<path fill="none" stroke="midnightblue" d="M266.347,-95.589C285.701,-100.558 309.53,-106.677 330.113,-111.961"/>
<polygon fill="midnightblue" stroke="midnightblue" points="329.366,-115.383 339.922,-114.48 331.107,-108.603 329.366,-115.383"/>
</g>
<!-- Node93 -->
<g id="node5" class="node"><title>Node93</title>
<g id="a_node5"><a xlink:href="main_8cpp.html#a2104a5d9d6b9f1e29bc4cd858c59882e" target="_top" xlink:title="projectCoordinateFrame">
<polygon fill="white" stroke="black" points="318,-76.5 318,-95.5 438,-95.5 438,-76.5 318,-76.5"/>
<text text-anchor="middle" x="378" y="-83.5" font-family="Helvetica,sans-Serif" font-size="10.00">projectCoordinateFrame</text>
</a>
</g>
</g>
<!-- Node90&#45;&gt;Node93 -->
<g id="edge4" class="edge"><title>Node90&#45;&gt;Node93</title>
<path fill="none" stroke="midnightblue" d="M274.209,-86C284.753,-86 296.22,-86 307.545,-86"/>
<polygon fill="midnightblue" stroke="midnightblue" points="307.875,-89.5001 317.875,-86 307.875,-82.5001 307.875,-89.5001"/>
</g>
<!-- Node94 -->
<g id="node6" class="node"><title>Node94</title>
<g id="a_node6"><a xlink:href="main_8cpp.html#a3e3cc959a7ab6f93ea52863d86373ce5" target="_top" xlink:title="Mat2QPixmap">
<polygon fill="white" stroke="black" points="338.5,-38.5 338.5,-57.5 417.5,-57.5 417.5,-38.5 338.5,-38.5"/>
<text text-anchor="middle" x="378" y="-45.5" font-family="Helvetica,sans-Serif" font-size="10.00">Mat2QPixmap</text>
</a>
</g>
</g>
<!-- Node90&#45;&gt;Node94 -->
<g id="edge5" class="edge"><title>Node90&#45;&gt;Node94</title>
<path fill="none" stroke="midnightblue" d="M266.347,-76.411C285.701,-71.4417 309.53,-65.3233 330.113,-60.0387"/>
<polygon fill="midnightblue" stroke="midnightblue" points="331.107,-63.3971 339.922,-57.5201 329.366,-56.617 331.107,-63.3971"/>
</g>
<!-- Node95 -->
<g id="node7" class="node"><title>Node95</title>
<g id="a_node7"><a xlink:href="classcomm_object.html#a6f81522c2aa1668fa402f08710e6206b" target="_top" xlink:title="commObject::changeImage">
<polygon fill="white" stroke="black" points="310,-0.5 310,-19.5 446,-19.5 446,-0.5 310,-0.5"/>
<text text-anchor="middle" x="378" y="-7.5" font-family="Helvetica,sans-Serif" font-size="10.00">commObject::changeImage</text>
</a>
</g>
</g>
<!-- Node90&#45;&gt;Node95 -->
<g id="edge6" class="edge"><title>Node90&#45;&gt;Node95</title>
<path fill="none" stroke="midnightblue" d="M240.037,-76.3803C254.959,-63.8291 282.836,-41.947 310,-29 314.911,-26.6591 320.166,-24.5541 325.492,-22.6744"/>
<polygon fill="midnightblue" stroke="midnightblue" points="326.681,-25.9681 335.097,-19.532 324.505,-19.3151 326.681,-25.9681"/>
</g>
</g>
</svg>
