<?xml version="1.0" encoding="UTF-8" standalone="no"?>
<!DOCTYPE svg PUBLIC "-//W3C//DTD SVG 1.1//EN"
 "http://www.w3.org/Graphics/SVG/1.1/DTD/svg11.dtd">
<!-- Generated by graphviz version 2.38.0 (20140413.2041)
 -->
<!-- Title: RigidTrack::on_cbSafety_stateChanged Pages: 1 -->
<svg width="440pt" height="61pt"
 viewBox="0.00 0.00 440.00 61.00" xmlns="http://www.w3.org/2000/svg" xmlns:xlink="http://www.w3.org/1999/xlink">
<g id="graph0" class="graph" transform="scale(1 1) rotate(0) translate(4 57)">
<title>RigidTrack::on_cbSafety_stateChanged</title>
<polygon fill="white" stroke="none" points="-4,4 -4,-57 436,-57 436,4 -4,4"/>
<!-- Node72 -->
<g id="node1" class="node"><title>Node72</title>
<polygon fill="#bfbfbf" stroke="black" points="0,-22.5 0,-52.5 122,-52.5 122,-22.5 0,-22.5"/>
<text text-anchor="start" x="8" y="-40.5" font-family="Helvetica,sans-Serif" font-size="10.00">RigidTrack::on_cbSafety</text>
<text text-anchor="middle" x="61" y="-29.5" font-family="Helvetica,sans-Serif" font-size="10.00">_stateChanged</text>
</g>
<!-- Node73 -->
<g id="node2" class="node"><title>Node73</title>
<g id="a_node2"><a xlink:href="classcomm_object.html#aec354c7099b3039083cc4224e071e022" target="_top" xlink:title="commObject::addLog">
<polygon fill="white" stroke="black" points="322,-28 322,-47 432,-47 432,-28 322,-28"/>
<text text-anchor="middle" x="377" y="-35" font-family="Helvetica,sans-Serif" font-size="10.00">commObject::addLog</text>
</a>
</g>
</g>
<!-- Node72&#45;&gt;Node73 -->
<g id="edge1" class="edge"><title>Node72&#45;&gt;Node73</title>
<path fill="none" stroke="midnightblue" d="M122.165,-39.6685C134.041,-40.0151 146.412,-40.319 158,-40.5 214.882,-41.3886 229.119,-41.4478 286,-40.5 294.314,-40.3615 303.058,-40.151 311.695,-39.9045"/>
<polygon fill="midnightblue" stroke="midnightblue" points="311.863,-43.4011 321.752,-39.6007 311.651,-36.4043 311.863,-43.4011"/>
</g>
<!-- Node74 -->
<g id="node3" class="node"><title>Node74</title>
<g id="a_node3"><a xlink:href="class_rigid_track.html#aa527ab3a2ddc7b31bf1063260efc9755" target="_top" xlink:title="RigidTrack::on_leIPSafety\l_returnPressed">
<polygon fill="white" stroke="black" points="158,-0.5 158,-30.5 286,-30.5 286,-0.5 158,-0.5"/>
<text text-anchor="start" x="166" y="-18.5" font-family="Helvetica,sans-Serif" font-size="10.00">RigidTrack::on_leIPSafety</text>
<text text-anchor="middle" x="222" y="-7.5" font-family="Helvetica,sans-Serif" font-size="10.00">_returnPressed</text>
</a>
</g>
</g>
<!-- Node72&#45;&gt;Node74 -->
<g id="edge2" class="edge"><title>Node72&#45;&gt;Node74</title>
<path fill="none" stroke="midnightblue" d="M122.111,-29.1827C130.518,-28.0196 139.232,-26.8138 147.847,-25.6218"/>
<polygon fill="midnightblue" stroke="midnightblue" points="148.464,-29.0699 157.89,-24.2323 147.504,-22.136 148.464,-29.0699"/>
</g>
<!-- Node74&#45;&gt;Node73 -->
<g id="edge3" class="edge"><title>Node74&#45;&gt;Node73</title>
<path fill="none" stroke="midnightblue" d="M286.114,-24.5753C294.541,-25.787 303.192,-27.0309 311.64,-28.2456"/>
<polygon fill="midnightblue" stroke="midnightblue" points="311.419,-31.7498 321.816,-29.7088 312.416,-24.8211 311.419,-31.7498"/>
</g>
</g>
</svg>
