<?xml version="1.0" encoding="UTF-8" standalone="no"?>
<!DOCTYPE svg PUBLIC "-//W3C//DTD SVG 1.1//EN"
 "http://www.w3.org/Graphics/SVG/1.1/DTD/svg11.dtd">
<!-- Generated by graphviz version 2.38.0 (20140413.2041)
 -->
<!-- Title: commObject::logAdded Pages: 1 -->
<!--zoomable 828 -->
<svg id="main" version="1.1" xmlns="http://www.w3.org/2000/svg" xmlns:xlink="http://www.w3.org/1999/xlink" xml:space="preserve" onload="init(evt)">
<style type="text/css"><![CDATA[
.edge:hover path { stroke: red; }
.edge:hover polygon { stroke: red; fill: red; }
]]></style>
<script type="text/javascript"><![CDATA[
var edges = document.getElementsByTagName('g');
if (edges && edges.length) {
  for (var i=0;i<edges.length;i++) {
    if (edges[i].id.substr(0,4)=='edge') {
      edges[i].setAttribute('class','edge');
    }
  }
}
]]></script>
        <defs>
                <circle id="rim" cx="0" cy="0" r="7"/>
                <circle id="rim2" cx="0" cy="0" r="3.5"/>
                <g id="zoomPlus">
                        <use xlink:href="#rim" fill="#404040">
                                <set attributeName="fill" to="#808080" begin="zoomplus.mouseover" end="zoomplus.mouseout"/>
                        </use>
                        <path d="M-4,0h8M0,-4v8" fill="none" stroke="white" stroke-width="1.5" pointer-events="none"/>
                </g>
                <g id="zoomMin">
                        <use xlink:href="#rim" fill="#404040">
                                <set attributeName="fill" to="#808080" begin="zoomminus.mouseover" end="zoomminus.mouseout"/>
                        </use>
                        <path d="M-4,0h8" fill="none" stroke="white" stroke-width="1.5" pointer-events="none"/>
                </g>
                <g id="dirArrow">
                        <path fill="none" stroke="white" stroke-width="1.5" d="M0,-3.0v7 M-2.5,-0.5L0,-3.0L2.5,-0.5"/>
                </g>
               <g id="resetDef">
                       <use xlink:href="#rim2" fill="#404040">
                               <set attributeName="fill" to="#808080" begin="reset.mouseover" end="reset.mouseout"/>
                       </use>
               </g>
        </defs>

<script type="text/javascript">
var viewWidth = 1236;
var viewHeight = 828;
var sectionId = 'dynsection-5';
</script>
<script xlink:href="svgpan.js"/>
<svg id="graph" class="graph">
<g id="viewport">
<title>commObject::logAdded</title>
<polygon fill="white" stroke="none" points="-4,4 -4,-824.434 1232,-824.434 1232,4 -4,4"/>
<!-- Node94 -->
<g id="node1" class="node"><title>Node94</title>
<polygon fill="#bfbfbf" stroke="black" points="0,-448 0,-467 119,-467 119,-448 0,-448"/>
<text text-anchor="middle" x="59.5" y="-455" font-family="Helvetica,sans-Serif" font-size="10.00">commObject::logAdded</text>
</g>
<!-- Node95 -->
<g id="node2" class="node"><title>Node95</title>
<g id="a_node2"><a xlink:href="classcomm_object.html#aec354c7099b3039083cc4224e071e022" target="_top" xlink:title="commObject::addLog">
<polygon fill="white" stroke="black" points="155,-448 155,-467 265,-467 265,-448 155,-448"/>
<text text-anchor="middle" x="210" y="-455" font-family="Helvetica,sans-Serif" font-size="10.00">commObject::addLog</text>
</a>
</g>
</g>
<!-- Node94&#45;&gt;Node95 -->
<g id="edge1" class="edge"><title>Node94&#45;&gt;Node95</title>
<path fill="none" stroke="midnightblue" d="M129.42,-457.5C137.868,-457.5 146.408,-457.5 154.6,-457.5"/>
<polygon fill="midnightblue" stroke="midnightblue" points="129.191,-454 119.191,-457.5 129.191,-461 129.191,-454"/>
</g>
<!-- Node96 -->
<g id="node3" class="node"><title>Node96</title>
<g id="a_node3"><a xlink:href="supportcode_8cpp.html#a0ddf1224851353fc92bfbff6f499fa97" target="_top" xlink:title="main initialises the GUI and values for the marker position etc ">
<polygon fill="white" stroke="black" points="525,-739 525,-758 563,-758 563,-739 525,-739"/>
<text text-anchor="middle" x="544" y="-746" font-family="Helvetica,sans-Serif" font-size="10.00">main</text>
</a>
</g>
</g>
<!-- Node95&#45;&gt;Node96 -->
<g id="edge2" class="edge"><title>Node95&#45;&gt;Node96</title>
<path fill="none" stroke="midnightblue" d="M213.058,-476.971C220.516,-543.366 248.484,-759.016 301,-799.5 372.411,-854.55 489.508,-784.965 529.284,-758.181"/>
<polygon fill="midnightblue" stroke="midnightblue" points="216.535,-476.569 211.969,-467.009 209.577,-477.33 216.535,-476.569"/>
</g>
<!-- Node102 -->
<g id="node9" class="node"><title>Node102</title>
<g id="a_node9"><a xlink:href="main_8h.html#a3d3afd29ce54eb7fc5cc7e74ab666586" target="_top" xlink:title="startTracking">
<polygon fill="white" stroke="black" points="507.5,-565 507.5,-584 580.5,-584 580.5,-565 507.5,-565"/>
<text text-anchor="middle" x="544" y="-572" font-family="Helvetica,sans-Serif" font-size="10.00">startTracking</text>
</a>
</g>
</g>
<!-- Node95&#45;&gt;Node102 -->
<g id="edge8" class="edge"><title>Node95&#45;&gt;Node102</title>
<path fill="none" stroke="midnightblue" d="M215.845,-477.119C225.457,-511.265 250.514,-580.721 301,-609.5 375.682,-652.072 483.635,-605.394 525.495,-584.025"/>
<polygon fill="midnightblue" stroke="midnightblue" points="219.205,-476.136 213.254,-467.37 212.44,-477.934 219.205,-476.136"/>
</g>
<!-- Node105 -->
<g id="node12" class="node"><title>Node105</title>
<g id="a_node12"><a xlink:href="main_8h.html#a1e6662e0f16887fe97c7bebe05065972" target="_top" xlink:title="setReference">
<polygon fill="white" stroke="black" points="507,-492 507,-511 581,-511 581,-492 507,-492"/>
<text text-anchor="middle" x="544" y="-499" font-family="Helvetica,sans-Serif" font-size="10.00">setReference</text>
</a>
</g>
</g>
<!-- Node95&#45;&gt;Node105 -->
<g id="edge11" class="edge"><title>Node95&#45;&gt;Node105</title>
<path fill="none" stroke="midnightblue" d="M275.391,-466.034C344.373,-475.176 451.399,-489.36 506.886,-496.714"/>
<polygon fill="midnightblue" stroke="midnightblue" points="275.454,-462.512 265.08,-464.667 274.534,-469.451 275.454,-462.512"/>
</g>
<!-- Node107 -->
<g id="node14" class="node"><title>Node107</title>
<g id="a_node14"><a xlink:href="main_8h.html#a5f7c5996cd5a271d0277e0741f73a5b4" target="_top" xlink:title="Start the camera calibration routine that computes the camera matrix and distortion coefficients...">
<polygon fill="white" stroke="black" points="324.5,-373 324.5,-392 411.5,-392 411.5,-373 324.5,-373"/>
<text text-anchor="middle" x="368" y="-380" font-family="Helvetica,sans-Serif" font-size="10.00">calibrateCamera</text>
</a>
</g>
</g>
<!-- Node95&#45;&gt;Node107 -->
<g id="edge13" class="edge"><title>Node95&#45;&gt;Node107</title>
<path fill="none" stroke="midnightblue" d="M240.145,-443.488C271.311,-428.504 319.897,-405.146 347.002,-392.114"/>
<polygon fill="midnightblue" stroke="midnightblue" points="238.571,-440.361 231.075,-447.849 241.604,-446.67 238.571,-440.361"/>
</g>
<!-- Node109 -->
<g id="node16" class="node"><title>Node109</title>
<g id="a_node16"><a xlink:href="main_8h.html#ad39626702ff983d5fdab4b703bfaf964" target="_top" xlink:title="loadCalibration">
<polygon fill="white" stroke="black" points="328,-695 328,-714 408,-714 408,-695 328,-695"/>
<text text-anchor="middle" x="368" y="-702" font-family="Helvetica,sans-Serif" font-size="10.00">loadCalibration</text>
</a>
</g>
</g>
<!-- Node95&#45;&gt;Node109 -->
<g id="edge16" class="edge"><title>Node95&#45;&gt;Node109</title>
<path fill="none" stroke="midnightblue" d="M213.024,-477.491C218.583,-521.702 238.127,-628.371 301,-685.5 308.413,-692.236 318.067,-696.597 327.693,-699.416"/>
<polygon fill="midnightblue" stroke="midnightblue" points="216.488,-476.974 211.871,-467.439 209.534,-477.772 216.488,-476.974"/>
</g>
<!-- Node111 -->
<g id="node18" class="node"><title>Node111</title>
<g id="a_node18"><a xlink:href="main_8h.html#a847c0fbd3e513fb76ff145b31a9f5c37" target="_top" xlink:title="testAlgorithms">
<polygon fill="white" stroke="black" points="328,-771 328,-790 408,-790 408,-771 328,-771"/>
<text text-anchor="middle" x="368" y="-778" font-family="Helvetica,sans-Serif" font-size="10.00">testAlgorithms</text>
</a>
</g>
</g>
<!-- Node95&#45;&gt;Node111 -->
<g id="edge19" class="edge"><title>Node95&#45;&gt;Node111</title>
<path fill="none" stroke="midnightblue" d="M210.737,-477.238C211.134,-530.922 219.836,-680.945 301,-761.5 308.278,-768.724 318.115,-773.238 327.969,-776.048"/>
<polygon fill="midnightblue" stroke="midnightblue" points="214.237,-477.049 210.758,-467.042 207.237,-477.034 214.237,-477.049"/>
</g>
<!-- Node112 -->
<g id="node19" class="node"><title>Node112</title>
<g id="a_node19"><a xlink:href="main_8h.html#ae624b0189bc5e32cbbb1f178b9f1a360" target="_top" xlink:title="Open the UDP ports for communication. ">
<polygon fill="white" stroke="black" points="337,-581 337,-600 399,-600 399,-581 337,-581"/>
<text text-anchor="middle" x="368" y="-588" font-family="Helvetica,sans-Serif" font-size="10.00">setUpUDP</text>
</a>
</g>
</g>
<!-- Node95&#45;&gt;Node112 -->
<g id="edge21" class="edge"><title>Node95&#45;&gt;Node112</title>
<path fill="none" stroke="midnightblue" d="M220.73,-476.068C234.963,-501.419 263.855,-546.554 301,-571.5 311.591,-578.613 324.859,-583.099 336.716,-585.912"/>
<polygon fill="midnightblue" stroke="midnightblue" points="223.708,-474.22 215.851,-467.112 217.561,-477.568 223.708,-474.22"/>
</g>
<!-- Node113 -->
<g id="node20" class="node"><title>Node113</title>
<g id="a_node20"><a xlink:href="main_8h.html#af2a8b7de0b15dc17198c147ba39e85f3" target="_top" xlink:title="closeUDP">
<polygon fill="white" stroke="black" points="338,-543 338,-562 398,-562 398,-543 338,-543"/>
<text text-anchor="middle" x="368" y="-550" font-family="Helvetica,sans-Serif" font-size="10.00">closeUDP</text>
</a>
</g>
</g>
<!-- Node95&#45;&gt;Node113 -->
<g id="edge23" class="edge"><title>Node95&#45;&gt;Node113</title>
<path fill="none" stroke="midnightblue" d="M227.08,-474.814C243.954,-492.019 272.014,-518.01 301,-533.5 312.358,-539.569 325.879,-543.899 337.717,-546.877"/>
<polygon fill="midnightblue" stroke="midnightblue" points="229.187,-471.955 219.739,-467.159 224.134,-476.799 229.187,-471.955"/>
</g>
<!-- Node114 -->
<g id="node21" class="node"><title>Node114</title>
<g id="a_node21"><a xlink:href="main_8h.html#a56c7f641859cb2b6b99b0947d03be800" target="_top" xlink:title="loadMarkerConfig">
<polygon fill="white" stroke="black" points="322,-657 322,-676 414,-676 414,-657 322,-657"/>
<text text-anchor="middle" x="368" y="-664" font-family="Helvetica,sans-Serif" font-size="10.00">loadMarkerConfig</text>
</a>
</g>
</g>
<!-- Node95&#45;&gt;Node114 -->
<g id="edge25" class="edge"><title>Node95&#45;&gt;Node114</title>
<path fill="none" stroke="midnightblue" d="M215.36,-477.196C224.632,-514.613 249.78,-596.348 301,-642.5 307.975,-648.784 316.724,-653.46 325.551,-656.925"/>
<polygon fill="midnightblue" stroke="midnightblue" points="218.68,-476.026 212.981,-467.095 211.867,-477.631 218.68,-476.026"/>
</g>
<!-- Node116 -->
<g id="node23" class="node"><title>Node116</title>
<g id="a_node23"><a xlink:href="main_8h.html#af39fa6c3a36ad6bc24a327db7a9d73c2" target="_top" xlink:title="loadCameraPosition">
<polygon fill="white" stroke="black" points="316,-733 316,-752 420,-752 420,-733 316,-733"/>
<text text-anchor="middle" x="368" y="-740" font-family="Helvetica,sans-Serif" font-size="10.00">loadCameraPosition</text>
</a>
</g>
</g>
<!-- Node95&#45;&gt;Node116 -->
<g id="edge28" class="edge"><title>Node95&#45;&gt;Node116</title>
<path fill="none" stroke="midnightblue" d="M211.723,-477.367C214.612,-526.512 229.03,-654.764 301,-723.5 305.311,-727.618 310.456,-730.852 315.945,-733.39"/>
<polygon fill="midnightblue" stroke="midnightblue" points="215.208,-476.962 211.227,-467.144 208.216,-477.301 215.208,-476.962"/>
</g>
<!-- Node117 -->
<g id="node24" class="node"><title>Node117</title>
<g id="a_node24"><a xlink:href="main_8h.html#a0416912fce6274568e80019b10ba294f" target="_top" xlink:title="determineExposure">
<polygon fill="white" stroke="black" points="317.5,-505 317.5,-524 418.5,-524 418.5,-505 317.5,-505"/>
<text text-anchor="middle" x="368" y="-512" font-family="Helvetica,sans-Serif" font-size="10.00">determineExposure</text>
</a>
</g>
</g>
<!-- Node95&#45;&gt;Node117 -->
<g id="edge30" class="edge"><title>Node95&#45;&gt;Node117</title>
<path fill="none" stroke="midnightblue" d="M246.782,-470.645C263.285,-476.701 283.135,-483.977 301,-490.5 314.056,-495.267 328.572,-500.548 340.659,-504.94"/>
<polygon fill="midnightblue" stroke="midnightblue" points="247.58,-467.21 236.987,-467.049 245.168,-473.781 247.58,-467.21"/>
</g>
<!-- Node118 -->
<g id="node25" class="node"><title>Node118</title>
<g id="a_node25"><a xlink:href="main_8h.html#a7ad2e3cfb5056dbab2098e0dd3bd353f" target="_top" xlink:title="calibrateGround">
<polygon fill="white" stroke="black" points="501.5,-436 501.5,-455 586.5,-455 586.5,-436 501.5,-436"/>
<text text-anchor="middle" x="544" y="-443" font-family="Helvetica,sans-Serif" font-size="10.00">calibrateGround</text>
</a>
</g>
</g>
<!-- Node95&#45;&gt;Node118 -->
<g id="edge35" class="edge"><title>Node95&#45;&gt;Node118</title>
<path fill="none" stroke="midnightblue" d="M275.474,-455.17C342.209,-452.757 444.487,-449.061 501.301,-447.007"/>
<polygon fill="midnightblue" stroke="midnightblue" points="274.947,-451.686 265.08,-455.545 275.2,-458.682 274.947,-451.686"/>
</g>
<!-- Node120 -->
<g id="node27" class="node"><title>Node120</title>
<g id="a_node27"><a xlink:href="class_rigid_track.html#a9f037a061b2577815fc80e5e9f8d46d9" target="_top" xlink:title="RigidTrack::on_leIPObject\l_returnPressed">
<polygon fill="white" stroke="black" points="303.5,-323.5 303.5,-353.5 432.5,-353.5 432.5,-323.5 303.5,-323.5"/>
<text text-anchor="start" x="311.5" y="-341.5" font-family="Helvetica,sans-Serif" font-size="10.00">RigidTrack::on_leIPObject</text>
<text text-anchor="middle" x="368" y="-330.5" font-family="Helvetica,sans-Serif" font-size="10.00">_returnPressed</text>
</a>
</g>
</g>
<!-- Node95&#45;&gt;Node120 -->
<g id="edge36" class="edge"><title>Node95&#45;&gt;Node120</title>
<path fill="none" stroke="midnightblue" d="M223.873,-439.887C239.877,-419.092 269.017,-384.666 301,-363.5 306.722,-359.713 313.099,-356.387 319.57,-353.501"/>
<polygon fill="midnightblue" stroke="midnightblue" points="221.069,-437.793 217.848,-447.886 226.66,-442.004 221.069,-437.793"/>
</g>
<!-- Node121 -->
<g id="node28" class="node"><title>Node121</title>
<g id="a_node28"><a xlink:href="class_rigid_track.html#aa527ab3a2ddc7b31bf1063260efc9755" target="_top" xlink:title="RigidTrack::on_leIPSafety\l_returnPressed">
<polygon fill="white" stroke="black" points="304,-235.5 304,-265.5 432,-265.5 432,-235.5 304,-235.5"/>
<text text-anchor="start" x="312" y="-253.5" font-family="Helvetica,sans-Serif" font-size="10.00">RigidTrack::on_leIPSafety</text>
<text text-anchor="middle" x="368" y="-242.5" font-family="Helvetica,sans-Serif" font-size="10.00">_returnPressed</text>
</a>
</g>
</g>
<!-- Node95&#45;&gt;Node121 -->
<g id="edge37" class="edge"><title>Node95&#45;&gt;Node121</title>
<path fill="none" stroke="midnightblue" d="M216.224,-437.99C226.685,-402.323 253.379,-326.081 301,-280.5 307.274,-274.495 314.961,-269.547 322.843,-265.524"/>
<polygon fill="midnightblue" stroke="midnightblue" points="212.838,-437.103 213.494,-447.678 219.576,-439.002 212.838,-437.103"/>
</g>
<!-- Node122 -->
<g id="node29" class="node"><title>Node122</title>
<g id="a_node29"><a xlink:href="class_rigid_track.html#a8f999fa968f4cc9fa548bdc8438b32c4" target="_top" xlink:title="RigidTrack::on_cbSafety\l_stateChanged">
<polygon fill="white" stroke="black" points="483,-257.5 483,-287.5 605,-287.5 605,-257.5 483,-257.5"/>
<text text-anchor="start" x="491" y="-275.5" font-family="Helvetica,sans-Serif" font-size="10.00">RigidTrack::on_cbSafety</text>
<text text-anchor="middle" x="544" y="-264.5" font-family="Helvetica,sans-Serif" font-size="10.00">_stateChanged</text>
</a>
</g>
</g>
<!-- Node95&#45;&gt;Node122 -->
<g id="edge44" class="edge"><title>Node95&#45;&gt;Node122</title>
<path fill="none" stroke="midnightblue" d="M217.33,-438.117C228.685,-406.642 255.661,-344.887 301,-314.5 330.046,-295.033 421.194,-283.271 482.955,-277.332"/>
<polygon fill="midnightblue" stroke="midnightblue" points="213.912,-437.291 213.96,-447.886 220.53,-439.574 213.912,-437.291"/>
</g>
<!-- Node123 -->
<g id="node30" class="node"><title>Node123</title>
<g id="a_node30"><a xlink:href="class_rigid_track.html#a555c536593d659b940de43cd2db8d6c1" target="_top" xlink:title="RigidTrack::on_leIPSafety2\l_returnPressed">
<polygon fill="white" stroke="black" points="301,-147.5 301,-177.5 435,-177.5 435,-147.5 301,-147.5"/>
<text text-anchor="start" x="309" y="-165.5" font-family="Helvetica,sans-Serif" font-size="10.00">RigidTrack::on_leIPSafety2</text>
<text text-anchor="middle" x="368" y="-154.5" font-family="Helvetica,sans-Serif" font-size="10.00">_returnPressed</text>
</a>
</g>
</g>
<!-- Node95&#45;&gt;Node123 -->
<g id="edge39" class="edge"><title>Node95&#45;&gt;Node123</title>
<path fill="none" stroke="midnightblue" d="M212.447,-437.702C216.955,-389.702 234.721,-265.705 301,-192.5 306.491,-186.435 313.448,-181.516 320.774,-177.552"/>
<polygon fill="midnightblue" stroke="midnightblue" points="208.935,-437.695 211.583,-447.953 215.91,-438.283 208.935,-437.695"/>
</g>
<!-- Node124 -->
<g id="node31" class="node"><title>Node124</title>
<g id="a_node31"><a xlink:href="class_rigid_track.html#ad6ba1cfe25f18ff0d9f5993aafa36d16" target="_top" xlink:title="RigidTrack::on_cbSafety2\l_stateChanged">
<polygon fill="white" stroke="black" points="480,-169.5 480,-199.5 608,-199.5 608,-169.5 480,-169.5"/>
<text text-anchor="start" x="488" y="-187.5" font-family="Helvetica,sans-Serif" font-size="10.00">RigidTrack::on_cbSafety2</text>
<text text-anchor="middle" x="544" y="-176.5" font-family="Helvetica,sans-Serif" font-size="10.00">_stateChanged</text>
</a>
</g>
</g>
<!-- Node95&#45;&gt;Node124 -->
<g id="edge45" class="edge"><title>Node95&#45;&gt;Node124</title>
<path fill="none" stroke="midnightblue" d="M212.407,-437.657C216.749,-392.404 234.045,-281.262 301,-226.5 327.736,-204.633 417.544,-193.622 479.891,-188.485"/>
<polygon fill="midnightblue" stroke="midnightblue" points="208.915,-437.409 211.56,-447.668 215.89,-437.999 208.915,-437.409"/>
</g>
<!-- Node125 -->
<g id="node32" class="node"><title>Node125</title>
<g id="a_node32"><a xlink:href="class_rigid_track.html#ac1f10ea5ec3f718c152e245a04776454" target="_top" xlink:title="RigidTrack::on_rbP3P\l_clicked">
<polygon fill="white" stroke="black" points="312.5,-98.5 312.5,-128.5 423.5,-128.5 423.5,-98.5 312.5,-98.5"/>
<text text-anchor="start" x="320.5" y="-116.5" font-family="Helvetica,sans-Serif" font-size="10.00">RigidTrack::on_rbP3P</text>
<text text-anchor="middle" x="368" y="-105.5" font-family="Helvetica,sans-Serif" font-size="10.00">_clicked</text>
</a>
</g>
</g>
<!-- Node95&#45;&gt;Node125 -->
<g id="edge41" class="edge"><title>Node95&#45;&gt;Node125</title>
<path fill="none" stroke="midnightblue" d="M210.772,-437.888C211.204,-383.164 219.875,-227.018 301,-138.5 304.56,-134.616 308.786,-131.331 313.354,-128.554"/>
<polygon fill="midnightblue" stroke="midnightblue" points="207.272,-437.969 210.782,-447.966 214.272,-437.962 207.272,-437.969"/>
</g>
<!-- Node126 -->
<g id="node33" class="node"><title>Node126</title>
<g id="a_node33"><a xlink:href="class_rigid_track.html#ae5bcdd3fb7203b4a7d1fa97c1460af31" target="_top" xlink:title="RigidTrack::on_rbIterative\l_clicked">
<polygon fill="white" stroke="black" points="305.5,-49.5 305.5,-79.5 430.5,-79.5 430.5,-49.5 305.5,-49.5"/>
<text text-anchor="start" x="313.5" y="-67.5" font-family="Helvetica,sans-Serif" font-size="10.00">RigidTrack::on_rbIterative</text>
<text text-anchor="middle" x="368" y="-56.5" font-family="Helvetica,sans-Serif" font-size="10.00">_clicked</text>
</a>
</g>
</g>
<!-- Node95&#45;&gt;Node126 -->
<g id="edge42" class="edge"><title>Node95&#45;&gt;Node126</title>
<path fill="none" stroke="midnightblue" d="M213.4,-437.707C222.08,-369.106 253.829,-142.82 301,-89.5 304.41,-85.6456 308.477,-82.3831 312.895,-79.6219"/>
<polygon fill="midnightblue" stroke="midnightblue" points="209.885,-437.61 212.127,-447.965 216.832,-438.472 209.885,-437.61"/>
</g>
<!-- Node127 -->
<g id="node34" class="node"><title>Node127</title>
<g id="a_node34"><a xlink:href="class_rigid_track.html#a19bc46333f946e589184eeed998160da" target="_top" xlink:title="RigidTrack::on_rbEPnP\l_clicked">
<polygon fill="white" stroke="black" points="309,-0.5 309,-30.5 427,-30.5 427,-0.5 309,-0.5"/>
<text text-anchor="start" x="317" y="-18.5" font-family="Helvetica,sans-Serif" font-size="10.00">RigidTrack::on_rbEPnP</text>
<text text-anchor="middle" x="368" y="-7.5" font-family="Helvetica,sans-Serif" font-size="10.00">_clicked</text>
</a>
</g>
</g>
<!-- Node95&#45;&gt;Node127 -->
<g id="edge43" class="edge"><title>Node95&#45;&gt;Node127</title>
<path fill="none" stroke="midnightblue" d="M212.801,-437.528C219.897,-362.95 248.147,-101.911 301,-40.5 304.357,-36.5995 308.389,-33.3059 312.784,-30.5251"/>
<polygon fill="midnightblue" stroke="midnightblue" points="209.284,-437.557 211.844,-447.838 216.254,-438.204 209.284,-437.557"/>
</g>
<!-- Node97 -->
<g id="node4" class="node"><title>Node97</title>
<g id="a_node4"><a xlink:href="class_surface.html#a728571d0386e9690ce1760931562c72b" target="_top" xlink:title="Surface::PutPixel">
<polygon fill="white" stroke="black" points="675,-720 675,-739 767,-739 767,-720 675,-720"/>
<text text-anchor="middle" x="721" y="-727" font-family="Helvetica,sans-Serif" font-size="10.00">Surface::PutPixel</text>
</a>
</g>
</g>
<!-- Node96&#45;&gt;Node97 -->
<g id="edge3" class="edge"><title>Node96&#45;&gt;Node97</title>
<path fill="none" stroke="midnightblue" d="M573.14,-745.445C600.52,-742.472 642.575,-737.906 674.675,-734.421"/>
<polygon fill="midnightblue" stroke="midnightblue" points="572.633,-741.979 563.069,-746.538 573.388,-748.938 572.633,-741.979"/>
</g>
<!-- Node101 -->
<g id="node8" class="node"><title>Node101</title>
<g id="a_node8"><a xlink:href="supportcode_8cpp.html#a661c2abc03926acfaeb93b4ae7db4943" target="_top" xlink:title="/&lt; Window Show State ">
<polygon fill="white" stroke="black" points="693.5,-758 693.5,-777 748.5,-777 748.5,-758 693.5,-758"/>
<text text-anchor="middle" x="721" y="-765" font-family="Helvetica,sans-Serif" font-size="10.00">WinMain</text>
</a>
</g>
</g>
<!-- Node96&#45;&gt;Node101 -->
<g id="edge7" class="edge"><title>Node96&#45;&gt;Node101</title>
<path fill="none" stroke="midnightblue" d="M573.425,-751.586C606.538,-755.181 660.83,-761.076 693.222,-764.593"/>
<polygon fill="midnightblue" stroke="midnightblue" points="573.388,-748.062 563.069,-750.462 572.633,-755.021 573.388,-748.062"/>
</g>
<!-- Node98 -->
<g id="node5" class="node"><title>Node98</title>
<g id="a_node5"><a xlink:href="class_surface.html#a377c59f6ef131d4b879cda93578a3efa" target="_top" xlink:title="Surface::SurfaceHeight">
<polygon fill="white" stroke="black" points="843,-720 843,-739 959,-739 959,-720 843,-720"/>
<text text-anchor="middle" x="901" y="-727" font-family="Helvetica,sans-Serif" font-size="10.00">Surface::SurfaceHeight</text>
</a>
</g>
</g>
<!-- Node97&#45;&gt;Node98 -->
<g id="edge4" class="edge"><title>Node97&#45;&gt;Node98</title>
<path fill="none" stroke="midnightblue" d="M777.633,-729.5C798.398,-729.5 821.997,-729.5 842.893,-729.5"/>
<polygon fill="midnightblue" stroke="midnightblue" points="777.378,-726 767.377,-729.5 777.377,-733 777.378,-726"/>
</g>
<!-- Node99 -->
<g id="node6" class="node"><title>Node99</title>
<g id="a_node6"><a xlink:href="supportcode_8h.html#ac43c2dc16b0859b03a4f7d04a7e97d3c" target="_top" xlink:title="DrawGLScene">
<polygon fill="white" stroke="black" points="1013,-720 1013,-739 1092,-739 1092,-720 1013,-720"/>
<text text-anchor="middle" x="1052.5" y="-727" font-family="Helvetica,sans-Serif" font-size="10.00">DrawGLScene</text>
</a>
</g>
</g>
<!-- Node98&#45;&gt;Node99 -->
<g id="edge5" class="edge"><title>Node98&#45;&gt;Node99</title>
<path fill="none" stroke="midnightblue" d="M969.496,-729.5C984.246,-729.5 999.378,-729.5 1012.56,-729.5"/>
<polygon fill="midnightblue" stroke="midnightblue" points="969.373,-726 959.373,-729.5 969.373,-733 969.373,-726"/>
</g>
<!-- Node100 -->
<g id="node7" class="node"><title>Node100</title>
<g id="a_node7"><a xlink:href="class_surface.html#abe0d542404575c60911d6ad4219560f9" target="_top" xlink:title="Surface::PixelSpan">
<polygon fill="white" stroke="black" points="1128,-720 1128,-739 1228,-739 1228,-720 1128,-720"/>
<text text-anchor="middle" x="1178" y="-727" font-family="Helvetica,sans-Serif" font-size="10.00">Surface::PixelSpan</text>
</a>
</g>
</g>
<!-- Node99&#45;&gt;Node100 -->
<g id="edge6" class="edge"><title>Node99&#45;&gt;Node100</title>
<path fill="none" stroke="midnightblue" d="M1102.31,-729.5C1110.74,-729.5 1119.51,-729.5 1127.95,-729.5"/>
<polygon fill="midnightblue" stroke="midnightblue" points="1102.24,-726 1092.24,-729.5 1102.24,-733 1102.24,-726"/>
</g>
<!-- Node103 -->
<g id="node10" class="node"><title>Node103</title>
<g id="a_node10"><a xlink:href="main_8h.html#a25183e8d0b386ef12b557efc712a0261" target="_top" xlink:title="Start or stop the tracking depending on if the camera is currently running or not. ">
<polygon fill="white" stroke="black" points="676,-565 676,-584 766,-584 766,-565 676,-565"/>
<text text-anchor="middle" x="721" y="-572" font-family="Helvetica,sans-Serif" font-size="10.00">startStopCamera</text>
</a>
</g>
</g>
<!-- Node102&#45;&gt;Node103 -->
<g id="edge9" class="edge"><title>Node102&#45;&gt;Node103</title>
<path fill="none" stroke="midnightblue" d="M590.91,-574.5C617.147,-574.5 649.885,-574.5 675.827,-574.5"/>
<polygon fill="midnightblue" stroke="midnightblue" points="590.836,-571 580.836,-574.5 590.836,-578 590.836,-571"/>
</g>
<!-- Node104 -->
<g id="node11" class="node"><title>Node104</title>
<g id="a_node11"><a xlink:href="class_rigid_track.html#a2f226856e28868c8bb1854fa16531f60" target="_top" xlink:title="RigidTrack::on_btnStartCamera\l_clicked">
<polygon fill="white" stroke="black" points="825,-559.5 825,-589.5 977,-589.5 977,-559.5 825,-559.5"/>
<text text-anchor="start" x="833" y="-577.5" font-family="Helvetica,sans-Serif" font-size="10.00">RigidTrack::on_btnStartCamera</text>
<text text-anchor="middle" x="901" y="-566.5" font-family="Helvetica,sans-Serif" font-size="10.00">_clicked</text>
</a>
</g>
</g>
<!-- Node103&#45;&gt;Node104 -->
<g id="edge10" class="edge"><title>Node103&#45;&gt;Node104</title>
<path fill="none" stroke="midnightblue" d="M776.335,-574.5C791.679,-574.5 808.652,-574.5 824.982,-574.5"/>
<polygon fill="midnightblue" stroke="midnightblue" points="776,-571 766,-574.5 776,-578 776,-571"/>
</g>
<!-- Node106 -->
<g id="node13" class="node"><title>Node106</title>
<g id="a_node13"><a xlink:href="class_rigid_track.html#afb1a4edcacc818db4ec6bb017dd07e0f" target="_top" xlink:title="RigidTrack::on_btnZero\l_clicked">
<polygon fill="white" stroke="black" points="663,-486.5 663,-516.5 779,-516.5 779,-486.5 663,-486.5"/>
<text text-anchor="start" x="671" y="-504.5" font-family="Helvetica,sans-Serif" font-size="10.00">RigidTrack::on_btnZero</text>
<text text-anchor="middle" x="721" y="-493.5" font-family="Helvetica,sans-Serif" font-size="10.00">_clicked</text>
</a>
</g>
</g>
<!-- Node105&#45;&gt;Node106 -->
<g id="edge12" class="edge"><title>Node105&#45;&gt;Node106</title>
<path fill="none" stroke="midnightblue" d="M591.307,-501.5C613.226,-501.5 639.613,-501.5 662.772,-501.5"/>
<polygon fill="midnightblue" stroke="midnightblue" points="591.26,-498 581.26,-501.5 591.26,-505 591.26,-498"/>
</g>
<!-- Node107&#45;&gt;Node107 -->
<g id="edge14" class="edge"><title>Node107&#45;&gt;Node107</title>
<path fill="none" stroke="midnightblue" d="M338.508,-401.154C339.74,-406.437 349.571,-410.5 368,-410.5 396.082,-410.5 404.199,-401.065 392.352,-392.257"/>
<polygon fill="midnightblue" stroke="midnightblue" points="341.676,-402.667 343.648,-392.257 335.614,-399.165 341.676,-402.667"/>
</g>
<!-- Node108 -->
<g id="node15" class="node"><title>Node108</title>
<g id="a_node15"><a xlink:href="class_rigid_track.html#aed2c39da404909142074f7dd2ce75a63" target="_top" xlink:title="RigidTrack::on_btnCalibrate\l_clicked">
<polygon fill="white" stroke="black" points="476,-367.5 476,-397.5 612,-397.5 612,-367.5 476,-367.5"/>
<text text-anchor="start" x="484" y="-385.5" font-family="Helvetica,sans-Serif" font-size="10.00">RigidTrack::on_btnCalibrate</text>
<text text-anchor="middle" x="544" y="-374.5" font-family="Helvetica,sans-Serif" font-size="10.00">_clicked</text>
</a>
</g>
</g>
<!-- Node107&#45;&gt;Node108 -->
<g id="edge15" class="edge"><title>Node107&#45;&gt;Node108</title>
<path fill="none" stroke="midnightblue" d="M421.851,-382.5C438.845,-382.5 457.906,-382.5 475.789,-382.5"/>
<polygon fill="midnightblue" stroke="midnightblue" points="421.565,-379 411.565,-382.5 421.565,-386 421.565,-379"/>
</g>
<!-- Node109&#45;&gt;Node96 -->
<g id="edge17" class="edge"><title>Node109&#45;&gt;Node96</title>
<path fill="none" stroke="midnightblue" d="M416.488,-716.508C452.146,-725.525 499.049,-737.386 524.549,-743.834"/>
<polygon fill="midnightblue" stroke="midnightblue" points="417.308,-713.106 406.755,-714.047 415.592,-719.892 417.308,-713.106"/>
</g>
<!-- Node110 -->
<g id="node17" class="node"><title>Node110</title>
<g id="a_node17"><a xlink:href="class_rigid_track.html#a2224d3f6d923a1c7bad356f49d7a4124" target="_top" xlink:title="RigidTrack::on_btnLoadCalib\l_clicked">
<polygon fill="white" stroke="black" points="474,-689.5 474,-719.5 614,-719.5 614,-689.5 474,-689.5"/>
<text text-anchor="start" x="482" y="-707.5" font-family="Helvetica,sans-Serif" font-size="10.00">RigidTrack::on_btnLoadCalib</text>
<text text-anchor="middle" x="544" y="-696.5" font-family="Helvetica,sans-Serif" font-size="10.00">_clicked</text>
</a>
</g>
</g>
<!-- Node109&#45;&gt;Node110 -->
<g id="edge18" class="edge"><title>Node109&#45;&gt;Node110</title>
<path fill="none" stroke="midnightblue" d="M418.451,-704.5C435.716,-704.5 455.423,-704.5 473.987,-704.5"/>
<polygon fill="midnightblue" stroke="midnightblue" points="418.049,-701 408.049,-704.5 418.049,-708 418.049,-701"/>
</g>
<!-- Node111&#45;&gt;Node96 -->
<g id="edge20" class="edge"><title>Node111&#45;&gt;Node96</title>
<path fill="none" stroke="midnightblue" d="M418.245,-771.443C453.808,-764.903 499.813,-756.443 524.833,-751.841"/>
<polygon fill="midnightblue" stroke="midnightblue" points="417.251,-768.067 408.049,-773.319 418.517,-774.952 417.251,-768.067"/>
</g>
<!-- Node112&#45;&gt;Node102 -->
<g id="edge22" class="edge"><title>Node112&#45;&gt;Node102</title>
<path fill="none" stroke="midnightblue" d="M409.327,-586.792C438.962,-584.067 478.86,-580.398 507.336,-577.779"/>
<polygon fill="midnightblue" stroke="midnightblue" points="408.946,-583.312 399.308,-587.713 409.587,-590.283 408.946,-583.312"/>
</g>
<!-- Node113&#45;&gt;Node102 -->
<g id="edge24" class="edge"><title>Node113&#45;&gt;Node102</title>
<path fill="none" stroke="midnightblue" d="M408.171,-557.453C437.959,-561.219 478.603,-566.358 507.458,-570.006"/>
<polygon fill="midnightblue" stroke="midnightblue" points="408.484,-553.964 398.124,-556.182 407.606,-560.909 408.484,-553.964"/>
</g>
<!-- Node114&#45;&gt;Node96 -->
<g id="edge26" class="edge"><title>Node114&#45;&gt;Node96</title>
<path fill="none" stroke="midnightblue" d="M423.699,-679.331C427.656,-681.129 431.472,-683.175 435,-685.5 456.098,-699.404 449.749,-715.832 471,-729.5 487.419,-740.059 509.518,-744.772 524.885,-746.862"/>
<polygon fill="midnightblue" stroke="midnightblue" points="424.866,-676.028 414.281,-675.566 422.267,-682.528 424.866,-676.028"/>
</g>
<!-- Node115 -->
<g id="node22" class="node"><title>Node115</title>
<g id="a_node22"><a xlink:href="class_rigid_track.html#ad3e07592fbc1491cdc36dd5e817e1775" target="_top" xlink:title="RigidTrack::on_pbLoadMarker\l_clicked">
<polygon fill="white" stroke="black" points="471,-640.5 471,-670.5 617,-670.5 617,-640.5 471,-640.5"/>
<text text-anchor="start" x="479" y="-658.5" font-family="Helvetica,sans-Serif" font-size="10.00">RigidTrack::on_pbLoadMarker</text>
<text text-anchor="middle" x="544" y="-647.5" font-family="Helvetica,sans-Serif" font-size="10.00">_clicked</text>
</a>
</g>
</g>
<!-- Node114&#45;&gt;Node115 -->
<g id="edge27" class="edge"><title>Node114&#45;&gt;Node115</title>
<path fill="none" stroke="midnightblue" d="M424.284,-663.005C439.126,-662.067 455.394,-661.038 470.999,-660.052"/>
<polygon fill="midnightblue" stroke="midnightblue" points="424.021,-659.515 414.262,-663.639 424.463,-666.501 424.021,-659.515"/>
</g>
<!-- Node116&#45;&gt;Node96 -->
<g id="edge29" class="edge"><title>Node116&#45;&gt;Node96</title>
<path fill="none" stroke="midnightblue" d="M430.415,-744.618C463.769,-745.768 502.631,-747.108 524.871,-747.875"/>
<polygon fill="midnightblue" stroke="midnightblue" points="430.379,-741.115 420.265,-744.268 430.138,-748.11 430.379,-741.115"/>
</g>
<!-- Node117&#45;&gt;Node102 -->
<g id="edge31" class="edge"><title>Node117&#45;&gt;Node102</title>
<path fill="none" stroke="midnightblue" d="M413.71,-526.829C420.861,-528.957 428.156,-531.22 435,-533.5 464.493,-543.325 497.864,-556.283 519.605,-564.978"/>
<polygon fill="midnightblue" stroke="midnightblue" points="414.684,-523.467 404.103,-524.024 412.721,-530.187 414.684,-523.467"/>
</g>
<!-- Node117&#45;&gt;Node105 -->
<g id="edge32" class="edge"><title>Node117&#45;&gt;Node105</title>
<path fill="none" stroke="midnightblue" d="M428.985,-510.018C454.94,-508.079 484.457,-505.874 506.954,-504.193"/>
<polygon fill="midnightblue" stroke="midnightblue" points="428.573,-506.539 418.861,-510.775 429.094,-513.52 428.573,-506.539"/>
</g>
<!-- Node117&#45;&gt;Node118 -->
<g id="edge33" class="edge"><title>Node117&#45;&gt;Node118</title>
<path fill="none" stroke="midnightblue" d="M402.75,-501.116C436.905,-487.572 488.854,-466.972 519.012,-455.013"/>
<polygon fill="midnightblue" stroke="midnightblue" points="401.2,-497.966 393.194,-504.906 403.78,-504.473 401.2,-497.966"/>
</g>
<!-- Node119 -->
<g id="node26" class="node"><title>Node119</title>
<g id="a_node26"><a xlink:href="class_rigid_track.html#a9a939d6db3d268e75a603cb3d492a91b" target="_top" xlink:title="RigidTrack::on_btnCalibrate\lGround_clicked">
<polygon fill="white" stroke="black" points="653,-430.5 653,-460.5 789,-460.5 789,-430.5 653,-430.5"/>
<text text-anchor="start" x="661" y="-448.5" font-family="Helvetica,sans-Serif" font-size="10.00">RigidTrack::on_btnCalibrate</text>
<text text-anchor="middle" x="721" y="-437.5" font-family="Helvetica,sans-Serif" font-size="10.00">Ground_clicked</text>
</a>
</g>
</g>
<!-- Node118&#45;&gt;Node119 -->
<g id="edge34" class="edge"><title>Node118&#45;&gt;Node119</title>
<path fill="none" stroke="midnightblue" d="M596.941,-445.5C614.461,-445.5 634.274,-445.5 652.801,-445.5"/>
<polygon fill="midnightblue" stroke="midnightblue" points="596.917,-442 586.917,-445.5 596.917,-449 596.917,-442"/>
</g>
<!-- Node121&#45;&gt;Node122 -->
<g id="edge38" class="edge"><title>Node121&#45;&gt;Node122</title>
<path fill="none" stroke="midnightblue" d="M442.507,-259.794C455.983,-261.498 469.902,-263.258 482.927,-264.905"/>
<polygon fill="midnightblue" stroke="midnightblue" points="442.67,-256.287 432.31,-258.505 441.792,-263.232 442.67,-256.287"/>
</g>
<!-- Node123&#45;&gt;Node124 -->
<g id="edge40" class="edge"><title>Node123&#45;&gt;Node124</title>
<path fill="none" stroke="midnightblue" d="M445.307,-172.148C456.817,-173.603 468.58,-175.091 479.774,-176.506"/>
<polygon fill="midnightblue" stroke="midnightblue" points="445.638,-168.662 435.278,-170.88 444.76,-175.607 445.638,-168.662"/>
</g>
</g>
</svg>
        <g id="navigator" transform="translate(0 0)" fill="#404254">
                <rect fill="#f2f5e9" fill-opacity="0.5" stroke="#606060" stroke-width=".5" x="0" y="0" width="60" height="60"/>
                <use id="zoomplus" xlink:href="#zoomPlus" x="17" y="9" onmousedown="handleZoom(evt,'in')"/>
                <use id="zoomminus" xlink:href="#zoomMin" x="42" y="9" onmousedown="handleZoom(evt,'out')"/>
                <use id="reset" xlink:href="#resetDef" x="30" y="36" onmousedown="handleReset()"/>
                <g id="arrowUp" xlink:href="#dirArrow" transform="translate(30 24)" onmousedown="handlePan(0,-1)">
                  <use xlink:href="#rim" fill="#404040">
                        <set attributeName="fill" to="#808080" begin="arrowUp.mouseover" end="arrowUp.mouseout"/>
                  </use>
                  <path fill="none" stroke="white" stroke-width="1.5" d="M0,-3.0v7 M-2.5,-0.5L0,-3.0L2.5,-0.5"/>
                </g>
                <g id="arrowRight" xlink:href="#dirArrow" transform="rotate(90) translate(36 -43)" onmousedown="handlePan(1,0)">
                  <use xlink:href="#rim" fill="#404040">
                        <set attributeName="fill" to="#808080" begin="arrowRight.mouseover" end="arrowRight.mouseout"/>
                  </use>
                  <path fill="none" stroke="white" stroke-width="1.5" d="M0,-3.0v7 M-2.5,-0.5L0,-3.0L2.5,-0.5"/>
                </g>
                <g id="arrowDown" xlink:href="#dirArrow" transform="rotate(180) translate(-30 -48)" onmousedown="handlePan(0,1)">
                  <use xlink:href="#rim" fill="#404040">
                        <set attributeName="fill" to="#808080" begin="arrowDown.mouseover" end="arrowDown.mouseout"/>
                  </use>
                  <path fill="none" stroke="white" stroke-width="1.5" d="M0,-3.0v7 M-2.5,-0.5L0,-3.0L2.5,-0.5"/>
                </g>
                <g id="arrowLeft" xlink:href="#dirArrow" transform="rotate(270) translate(-36 17)" onmousedown="handlePan(-1,0)">
                  <use xlink:href="#rim" fill="#404040">
                        <set attributeName="fill" to="#808080" begin="arrowLeft.mouseover" end="arrowLeft.mouseout"/>
                  </use>
                  <path fill="none" stroke="white" stroke-width="1.5" d="M0,-3.0v7 M-2.5,-0.5L0,-3.0L2.5,-0.5"/>
                </g>
        </g>
        <svg viewBox="0 0 15 15" width="100%" height="30px" preserveAspectRatio="xMaxYMin meet">
         <g id="arrow_out" transform="scale(0.3 0.3)">
          <a xlink:href="classcomm_object_a72620fe1bac16309baf6d148644edaf9_icgraph_org.svg" target="_base">
           <rect id="button" ry="5" rx="5" y="6" x="6" height="38" width="38"
                fill="#f2f5e9" fill-opacity="0.5" stroke="#606060" stroke-width="1.0"/>
           <path id="arrow"
             d="M 11.500037,31.436501 C 11.940474,20.09759 22.043105,11.32322 32.158766,21.979434 L 37.068811,17.246167 C 37.068811,17.246167 37.088388,32 37.088388,32 L 22.160133,31.978069 C 22.160133,31.978069 26.997745,27.140456 26.997745,27.140456 C 18.528582,18.264221 13.291696,25.230495 11.500037,31.436501 z"
             style="fill:#404040;"/>
          </a>
         </g>
        </svg>
</svg>
