<?xml version="1.0" encoding="UTF-8" standalone="no"?>
<!DOCTYPE svg PUBLIC "-//W3C//DTD SVG 1.1//EN"
 "http://www.w3.org/Graphics/SVG/1.1/DTD/svg11.dtd">
<!-- Generated by graphviz version 2.38.0 (20140413.2041)
 -->
<!-- Title: RigidTrack::on_btnStartCamera_clicked Pages: 1 -->
<svg width="713pt" height="408pt"
 viewBox="0.00 0.00 713.00 408.00" xmlns="http://www.w3.org/2000/svg" xmlns:xlink="http://www.w3.org/1999/xlink">
<g id="graph0" class="graph" transform="scale(1 1) rotate(0) translate(4 404)">
<title>RigidTrack::on_btnStartCamera_clicked</title>
<polygon fill="white" stroke="none" points="-4,4 -4,-404 709,-404 709,4 -4,4"/>
<!-- Node39 -->
<g id="node1" class="node"><title>Node39</title>
<polygon fill="#bfbfbf" stroke="black" points="0,-185 0,-215 152,-215 152,-185 0,-185"/>
<text text-anchor="start" x="8" y="-203" font-family="Helvetica,sans-Serif" font-size="10.00">RigidTrack::on_btnStartCamera</text>
<text text-anchor="middle" x="76" y="-192" font-family="Helvetica,sans-Serif" font-size="10.00">_clicked</text>
</g>
<!-- Node40 -->
<g id="node2" class="node"><title>Node40</title>
<g id="a_node2"><a xlink:href="main_8cpp.html#a25183e8d0b386ef12b557efc712a0261" target="_top" xlink:title="Start or stop the tracking depending on if the camera is currently running or not. ">
<polygon fill="white" stroke="black" points="188,-190.5 188,-209.5 278,-209.5 278,-190.5 188,-190.5"/>
<text text-anchor="middle" x="233" y="-197.5" font-family="Helvetica,sans-Serif" font-size="10.00">startStopCamera</text>
</a>
</g>
</g>
<!-- Node39&#45;&gt;Node40 -->
<g id="edge1" class="edge"><title>Node39&#45;&gt;Node40</title>
<path fill="none" stroke="midnightblue" d="M152.23,-200C160.799,-200 169.405,-200 177.628,-200"/>
<polygon fill="midnightblue" stroke="midnightblue" points="177.809,-203.5 187.808,-200 177.808,-196.5 177.809,-203.5"/>
</g>
<!-- Node41 -->
<g id="node3" class="node"><title>Node41</title>
<g id="a_node3"><a xlink:href="main_8cpp.html#a3d3afd29ce54eb7fc5cc7e74ab666586" target="_top" xlink:title="startTracking">
<polygon fill="white" stroke="black" points="314,-190.5 314,-209.5 387,-209.5 387,-190.5 314,-190.5"/>
<text text-anchor="middle" x="350.5" y="-197.5" font-family="Helvetica,sans-Serif" font-size="10.00">startTracking</text>
</a>
</g>
</g>
<!-- Node40&#45;&gt;Node41 -->
<g id="edge2" class="edge"><title>Node40&#45;&gt;Node41</title>
<path fill="none" stroke="midnightblue" d="M278.325,-200C286.555,-200 295.171,-200 303.451,-200"/>
<polygon fill="midnightblue" stroke="midnightblue" points="303.707,-203.5 313.707,-200 303.707,-196.5 303.707,-203.5"/>
</g>
<!-- Node42 -->
<g id="node4" class="node"><title>Node42</title>
<g id="a_node4"><a xlink:href="main_8cpp.html#a0416912fce6274568e80019b10ba294f" target="_top" xlink:title="determineExposure">
<polygon fill="white" stroke="black" points="440.5,-380.5 440.5,-399.5 541.5,-399.5 541.5,-380.5 440.5,-380.5"/>
<text text-anchor="middle" x="491" y="-387.5" font-family="Helvetica,sans-Serif" font-size="10.00">determineExposure</text>
</a>
</g>
</g>
<!-- Node41&#45;&gt;Node42 -->
<g id="edge3" class="edge"><title>Node41&#45;&gt;Node42</title>
<path fill="none" stroke="midnightblue" d="M352.943,-209.783C357.624,-238.085 374.966,-320.889 423,-366 427.327,-370.064 432.39,-373.448 437.761,-376.264"/>
<polygon fill="midnightblue" stroke="midnightblue" points="436.462,-379.519 447.013,-380.487 439.369,-373.15 436.462,-379.519"/>
</g>
<!-- Node43 -->
<g id="node5" class="node"><title>Node43</title>
<g id="a_node5"><a xlink:href="classcomm_object.html#aec354c7099b3039083cc4224e071e022" target="_top" xlink:title="commObject::addLog">
<polygon fill="white" stroke="black" points="595,-323.5 595,-342.5 705,-342.5 705,-323.5 595,-323.5"/>
<text text-anchor="middle" x="650" y="-330.5" font-family="Helvetica,sans-Serif" font-size="10.00">commObject::addLog</text>
</a>
</g>
</g>
<!-- Node41&#45;&gt;Node43 -->
<g id="edge5" class="edge"><title>Node41&#45;&gt;Node43</title>
<path fill="none" stroke="midnightblue" d="M353.236,-209.692C358.421,-235.383 376.421,-305.157 423,-333 479.595,-366.83 559.273,-356.245 607.342,-344.98"/>
<polygon fill="midnightblue" stroke="midnightblue" points="608.224,-348.367 617.1,-342.581 606.553,-341.569 608.224,-348.367"/>
</g>
<!-- Node44 -->
<g id="node6" class="node"><title>Node44</title>
<g id="a_node6"><a xlink:href="main_8cpp.html#ae624b0189bc5e32cbbb1f178b9f1a360" target="_top" xlink:title="Open the UDP ports for communication. ">
<polygon fill="white" stroke="black" points="460,-304.5 460,-323.5 522,-323.5 522,-304.5 460,-304.5"/>
<text text-anchor="middle" x="491" y="-311.5" font-family="Helvetica,sans-Serif" font-size="10.00">setUpUDP</text>
</a>
</g>
</g>
<!-- Node41&#45;&gt;Node44 -->
<g id="edge6" class="edge"><title>Node41&#45;&gt;Node44</title>
<path fill="none" stroke="midnightblue" d="M356.089,-209.734C365.693,-229.033 389.8,-272.239 423,-295 431.067,-300.531 440.727,-304.463 450.166,-307.255"/>
<polygon fill="midnightblue" stroke="midnightblue" points="449.289,-310.644 459.848,-309.772 451.05,-303.869 449.289,-310.644"/>
</g>
<!-- Node45 -->
<g id="node7" class="node"><title>Node45</title>
<g id="a_node7"><a xlink:href="main_8cpp.html#a11ff459289305229597defd39f510959" target="_top" xlink:title="determineOrder">
<polygon fill="white" stroke="black" points="449.5,-266.5 449.5,-285.5 532.5,-285.5 532.5,-266.5 449.5,-266.5"/>
<text text-anchor="middle" x="491" y="-273.5" font-family="Helvetica,sans-Serif" font-size="10.00">determineOrder</text>
</a>
</g>
</g>
<!-- Node41&#45;&gt;Node45 -->
<g id="edge8" class="edge"><title>Node41&#45;&gt;Node45</title>
<path fill="none" stroke="midnightblue" d="M361.246,-209.912C374.23,-222.58 398.432,-244.375 423,-257 428.236,-259.691 433.903,-262.045 439.649,-264.094"/>
<polygon fill="midnightblue" stroke="midnightblue" points="438.738,-267.478 449.331,-267.258 440.913,-260.824 438.738,-267.478"/>
</g>
<!-- Node46 -->
<g id="node8" class="node"><title>Node46</title>
<g id="a_node8"><a xlink:href="main_8cpp.html#af2a8b7de0b15dc17198c147ba39e85f3" target="_top" xlink:title="closeUDP">
<polygon fill="white" stroke="black" points="461,-228.5 461,-247.5 521,-247.5 521,-228.5 461,-228.5"/>
<text text-anchor="middle" x="491" y="-235.5" font-family="Helvetica,sans-Serif" font-size="10.00">closeUDP</text>
</a>
</g>
</g>
<!-- Node41&#45;&gt;Node46 -->
<g id="edge9" class="edge"><title>Node41&#45;&gt;Node46</title>
<path fill="none" stroke="midnightblue" d="M386.449,-209.589C406.056,-214.968 430.57,-221.694 450.824,-227.251"/>
<polygon fill="midnightblue" stroke="midnightblue" points="450.111,-230.685 460.681,-229.956 451.963,-223.934 450.111,-230.685"/>
</g>
<!-- Node47 -->
<g id="node9" class="node"><title>Node47</title>
<g id="a_node9"><a xlink:href="main_8cpp.html#ab2b71933055cf32cc8e5e2100fd7723f" target="_top" xlink:title="getEulerAngles">
<polygon fill="white" stroke="black" points="449.5,-190.5 449.5,-209.5 532.5,-209.5 532.5,-190.5 449.5,-190.5"/>
<text text-anchor="middle" x="491" y="-197.5" font-family="Helvetica,sans-Serif" font-size="10.00">getEulerAngles</text>
</a>
</g>
</g>
<!-- Node41&#45;&gt;Node47 -->
<g id="edge11" class="edge"><title>Node41&#45;&gt;Node47</title>
<path fill="none" stroke="midnightblue" d="M387.167,-200C402.831,-200 421.52,-200 438.643,-200"/>
<polygon fill="midnightblue" stroke="midnightblue" points="439.06,-203.5 449.06,-200 439.06,-196.5 439.06,-203.5"/>
</g>
<!-- Node48 -->
<g id="node10" class="node"><title>Node48</title>
<g id="a_node10"><a xlink:href="main_8cpp.html#a54b6b6db348b48d21e1265e22829c61f" target="_top" xlink:title="sendDataUDP">
<polygon fill="white" stroke="black" points="452,-152.5 452,-171.5 530,-171.5 530,-152.5 452,-152.5"/>
<text text-anchor="middle" x="491" y="-159.5" font-family="Helvetica,sans-Serif" font-size="10.00">sendDataUDP</text>
</a>
</g>
</g>
<!-- Node41&#45;&gt;Node48 -->
<g id="edge12" class="edge"><title>Node41&#45;&gt;Node48</title>
<path fill="none" stroke="midnightblue" d="M386.449,-190.411C404.328,-185.506 426.288,-179.48 445.378,-174.243"/>
<polygon fill="midnightblue" stroke="midnightblue" points="446.344,-177.607 455.062,-171.586 444.492,-170.857 446.344,-177.607"/>
</g>
<!-- Node49 -->
<g id="node11" class="node"><title>Node49</title>
<g id="a_node11"><a xlink:href="main_8cpp.html#a2104a5d9d6b9f1e29bc4cd858c59882e" target="_top" xlink:title="projectCoordinateFrame">
<polygon fill="white" stroke="black" points="431,-114.5 431,-133.5 551,-133.5 551,-114.5 431,-114.5"/>
<text text-anchor="middle" x="491" y="-121.5" font-family="Helvetica,sans-Serif" font-size="10.00">projectCoordinateFrame</text>
</a>
</g>
</g>
<!-- Node41&#45;&gt;Node49 -->
<g id="edge13" class="edge"><title>Node41&#45;&gt;Node49</title>
<path fill="none" stroke="midnightblue" d="M361.246,-190.088C374.23,-177.42 398.432,-155.625 423,-143 427.342,-140.769 431.981,-138.769 436.715,-136.983"/>
<polygon fill="midnightblue" stroke="midnightblue" points="438.187,-140.177 446.502,-133.611 435.907,-133.559 438.187,-140.177"/>
</g>
<!-- Node50 -->
<g id="node12" class="node"><title>Node50</title>
<g id="a_node12"><a xlink:href="main_8cpp.html#af6430ad2592a955a3618549547dfc5be" target="_top" xlink:title="drawPositionText">
<polygon fill="white" stroke="black" points="445.5,-76.5 445.5,-95.5 536.5,-95.5 536.5,-76.5 445.5,-76.5"/>
<text text-anchor="middle" x="491" y="-83.5" font-family="Helvetica,sans-Serif" font-size="10.00">drawPositionText</text>
</a>
</g>
</g>
<!-- Node41&#45;&gt;Node50 -->
<g id="edge14" class="edge"><title>Node41&#45;&gt;Node50</title>
<path fill="none" stroke="midnightblue" d="M356.089,-190.266C365.693,-170.967 389.8,-127.761 423,-105 426.967,-102.28 431.319,-99.9471 435.841,-97.9459"/>
<polygon fill="midnightblue" stroke="midnightblue" points="437.229,-101.162 445.291,-94.287 434.702,-94.6337 437.229,-101.162"/>
</g>
<!-- Node51 -->
<g id="node13" class="node"><title>Node51</title>
<g id="a_node13"><a xlink:href="main_8cpp.html#a3e3cc959a7ab6f93ea52863d86373ce5" target="_top" xlink:title="Mat2QPixmap">
<polygon fill="white" stroke="black" points="451.5,-38.5 451.5,-57.5 530.5,-57.5 530.5,-38.5 451.5,-38.5"/>
<text text-anchor="middle" x="491" y="-45.5" font-family="Helvetica,sans-Serif" font-size="10.00">Mat2QPixmap</text>
</a>
</g>
</g>
<!-- Node41&#45;&gt;Node51 -->
<g id="edge15" class="edge"><title>Node41&#45;&gt;Node51</title>
<path fill="none" stroke="midnightblue" d="M353.895,-190.276C360.459,-165.699 381.108,-100.664 423,-67 428.446,-62.6239 434.846,-59.2553 441.493,-56.6623"/>
<polygon fill="midnightblue" stroke="midnightblue" points="442.942,-59.869 451.326,-53.3913 440.733,-53.2269 442.942,-59.869"/>
</g>
<!-- Node52 -->
<g id="node14" class="node"><title>Node52</title>
<g id="a_node14"><a xlink:href="classcomm_object.html#a6f81522c2aa1668fa402f08710e6206b" target="_top" xlink:title="commObject::changeImage">
<polygon fill="white" stroke="black" points="423,-0.5 423,-19.5 559,-19.5 559,-0.5 423,-0.5"/>
<text text-anchor="middle" x="491" y="-7.5" font-family="Helvetica,sans-Serif" font-size="10.00">commObject::changeImage</text>
</a>
</g>
</g>
<!-- Node41&#45;&gt;Node52 -->
<g id="edge16" class="edge"><title>Node41&#45;&gt;Node52</title>
<path fill="none" stroke="midnightblue" d="M352.643,-190.183C356.57,-161.005 372.204,-74.0518 423,-29 424.764,-27.4356 426.648,-25.9993 428.623,-24.6806"/>
<polygon fill="midnightblue" stroke="midnightblue" points="430.722,-27.5198 437.782,-19.6201 427.336,-21.3928 430.722,-27.5198"/>
</g>
<!-- Node42&#45;&gt;Node43 -->
<g id="edge4" class="edge"><title>Node42&#45;&gt;Node43</title>
<path fill="none" stroke="midnightblue" d="M518.751,-380.469C531.023,-376.084 545.757,-370.8 559,-366 576.881,-359.519 596.733,-352.249 613.232,-346.184"/>
<polygon fill="midnightblue" stroke="midnightblue" points="614.848,-349.319 623.025,-342.582 612.432,-342.75 614.848,-349.319"/>
</g>
<!-- Node44&#45;&gt;Node43 -->
<g id="edge7" class="edge"><title>Node44&#45;&gt;Node43</title>
<path fill="none" stroke="midnightblue" d="M522.271,-317.663C540.041,-319.814 563.193,-322.616 584.839,-325.235"/>
<polygon fill="midnightblue" stroke="midnightblue" points="584.635,-328.736 594.983,-326.463 585.476,-321.787 584.635,-328.736"/>
</g>
<!-- Node46&#45;&gt;Node43 -->
<g id="edge10" class="edge"><title>Node46&#45;&gt;Node43</title>
<path fill="none" stroke="midnightblue" d="M521.062,-243.397C533.236,-246.369 547.258,-250.755 559,-257 588.017,-272.432 616.069,-298.438 632.933,-315.662"/>
<polygon fill="midnightblue" stroke="midnightblue" points="630.826,-318.522 640.269,-323.326 635.883,-313.682 630.826,-318.522"/>
</g>
</g>
</svg>
