<?xml version="1.0" encoding="UTF-8" standalone="no"?>
<!DOCTYPE svg PUBLIC "-//W3C//DTD SVG 1.1//EN"
 "http://www.w3.org/Graphics/SVG/1.1/DTD/svg11.dtd">
<!-- Generated by graphviz version 2.38.0 (20140413.2041)
 -->
<!-- Title: RigidTrack::on_btnZero_clicked Pages: 1 -->
<svg width="562pt" height="332pt"
 viewBox="0.00 0.00 562.00 332.00" xmlns="http://www.w3.org/2000/svg" xmlns:xlink="http://www.w3.org/1999/xlink">
<g id="graph0" class="graph" transform="scale(1 1) rotate(0) translate(4 328)">
<title>RigidTrack::on_btnZero_clicked</title>
<polygon fill="white" stroke="none" points="-4,4 -4,-328 558,-328 558,4 -4,4"/>
<!-- Node54 -->
<g id="node1" class="node"><title>Node54</title>
<polygon fill="#bfbfbf" stroke="black" points="0,-147 0,-177 116,-177 116,-147 0,-147"/>
<text text-anchor="start" x="8" y="-165" font-family="Helvetica,sans-Serif" font-size="10.00">RigidTrack::on_btnZero</text>
<text text-anchor="middle" x="58" y="-154" font-family="Helvetica,sans-Serif" font-size="10.00">_clicked</text>
</g>
<!-- Node55 -->
<g id="node2" class="node"><title>Node55</title>
<g id="a_node2"><a xlink:href="main_8cpp.html#a1e6662e0f16887fe97c7bebe05065972" target="_top" xlink:title="setReference">
<polygon fill="white" stroke="black" points="152,-152.5 152,-171.5 226,-171.5 226,-152.5 152,-152.5"/>
<text text-anchor="middle" x="189" y="-159.5" font-family="Helvetica,sans-Serif" font-size="10.00">setReference</text>
</a>
</g>
</g>
<!-- Node54&#45;&gt;Node55 -->
<g id="edge1" class="edge"><title>Node54&#45;&gt;Node55</title>
<path fill="none" stroke="midnightblue" d="M116.333,-162C124.849,-162 133.534,-162 141.784,-162"/>
<polygon fill="midnightblue" stroke="midnightblue" points="141.956,-165.5 151.956,-162 141.956,-158.5 141.956,-165.5"/>
</g>
<!-- Node56 -->
<g id="node3" class="node"><title>Node56</title>
<g id="a_node3"><a xlink:href="main_8cpp.html#a0416912fce6274568e80019b10ba294f" target="_top" xlink:title="determineExposure">
<polygon fill="white" stroke="black" points="284.5,-304.5 284.5,-323.5 385.5,-323.5 385.5,-304.5 284.5,-304.5"/>
<text text-anchor="middle" x="335" y="-311.5" font-family="Helvetica,sans-Serif" font-size="10.00">determineExposure</text>
</a>
</g>
</g>
<!-- Node55&#45;&gt;Node56 -->
<g id="edge2" class="edge"><title>Node55&#45;&gt;Node56</title>
<path fill="none" stroke="midnightblue" d="M192.74,-171.6C199.984,-195.267 221.888,-256.889 262,-290 267.001,-294.128 272.741,-297.557 278.75,-300.401"/>
<polygon fill="midnightblue" stroke="midnightblue" points="277.771,-303.785 288.348,-304.407 280.468,-297.325 277.771,-303.785"/>
</g>
<!-- Node57 -->
<g id="node4" class="node"><title>Node57</title>
<g id="a_node4"><a xlink:href="classcomm_object.html#aec354c7099b3039083cc4224e071e022" target="_top" xlink:title="commObject::addLog">
<polygon fill="white" stroke="black" points="444,-285.5 444,-304.5 554,-304.5 554,-285.5 444,-285.5"/>
<text text-anchor="middle" x="499" y="-292.5" font-family="Helvetica,sans-Serif" font-size="10.00">commObject::addLog</text>
</a>
</g>
</g>
<!-- Node55&#45;&gt;Node57 -->
<g id="edge4" class="edge"><title>Node55&#45;&gt;Node57</title>
<path fill="none" stroke="midnightblue" d="M194.281,-171.767C203.496,-191.522 227.23,-236.113 262,-257 290.206,-273.944 374.023,-284.477 433.732,-290.04"/>
<polygon fill="midnightblue" stroke="midnightblue" points="433.562,-293.539 443.837,-290.956 434.194,-286.568 433.562,-293.539"/>
</g>
<!-- Node58 -->
<g id="node5" class="node"><title>Node58</title>
<g id="a_node5"><a xlink:href="main_8cpp.html#a11ff459289305229597defd39f510959" target="_top" xlink:title="determineOrder">
<polygon fill="white" stroke="black" points="293.5,-228.5 293.5,-247.5 376.5,-247.5 376.5,-228.5 293.5,-228.5"/>
<text text-anchor="middle" x="335" y="-235.5" font-family="Helvetica,sans-Serif" font-size="10.00">determineOrder</text>
</a>
</g>
</g>
<!-- Node55&#45;&gt;Node58 -->
<g id="edge5" class="edge"><title>Node55&#45;&gt;Node58</title>
<path fill="none" stroke="midnightblue" d="M199.347,-171.543C212.284,-184.213 236.905,-206.447 262,-219 268.753,-222.378 276.172,-225.204 283.602,-227.553"/>
<polygon fill="midnightblue" stroke="midnightblue" points="282.742,-230.948 293.321,-230.374 284.693,-224.225 282.742,-230.948"/>
</g>
<!-- Node59 -->
<g id="node6" class="node"><title>Node59</title>
<g id="a_node6"><a xlink:href="classcomm_object.html#acfc97f4310e2b7d841ecb8cf8be0088e" target="_top" xlink:title="commObject::progressUpdate">
<polygon fill="white" stroke="black" points="262,-190.5 262,-209.5 408,-209.5 408,-190.5 262,-190.5"/>
<text text-anchor="middle" x="335" y="-197.5" font-family="Helvetica,sans-Serif" font-size="10.00">commObject::progressUpdate</text>
</a>
</g>
</g>
<!-- Node55&#45;&gt;Node59 -->
<g id="edge6" class="edge"><title>Node55&#45;&gt;Node59</title>
<path fill="none" stroke="midnightblue" d="M226.337,-171.589C245.083,-176.536 268.143,-182.621 288.107,-187.889"/>
<polygon fill="midnightblue" stroke="midnightblue" points="287.362,-191.312 297.924,-190.48 289.148,-184.544 287.362,-191.312"/>
</g>
<!-- Node60 -->
<g id="node7" class="node"><title>Node60</title>
<g id="a_node7"><a xlink:href="main_8cpp.html#a2104a5d9d6b9f1e29bc4cd858c59882e" target="_top" xlink:title="projectCoordinateFrame">
<polygon fill="white" stroke="black" points="275,-152.5 275,-171.5 395,-171.5 395,-152.5 275,-152.5"/>
<text text-anchor="middle" x="335" y="-159.5" font-family="Helvetica,sans-Serif" font-size="10.00">projectCoordinateFrame</text>
</a>
</g>
</g>
<!-- Node55&#45;&gt;Node60 -->
<g id="edge7" class="edge"><title>Node55&#45;&gt;Node60</title>
<path fill="none" stroke="midnightblue" d="M226.337,-162C238.089,-162 251.537,-162 264.854,-162"/>
<polygon fill="midnightblue" stroke="midnightblue" points="264.982,-165.5 274.982,-162 264.982,-158.5 264.982,-165.5"/>
</g>
<!-- Node61 -->
<g id="node8" class="node"><title>Node61</title>
<g id="a_node8"><a xlink:href="main_8cpp.html#af6430ad2592a955a3618549547dfc5be" target="_top" xlink:title="drawPositionText">
<polygon fill="white" stroke="black" points="289.5,-114.5 289.5,-133.5 380.5,-133.5 380.5,-114.5 289.5,-114.5"/>
<text text-anchor="middle" x="335" y="-121.5" font-family="Helvetica,sans-Serif" font-size="10.00">drawPositionText</text>
</a>
</g>
</g>
<!-- Node55&#45;&gt;Node61 -->
<g id="edge8" class="edge"><title>Node55&#45;&gt;Node61</title>
<path fill="none" stroke="midnightblue" d="M226.337,-152.411C245.083,-147.464 268.143,-141.379 288.107,-136.111"/>
<polygon fill="midnightblue" stroke="midnightblue" points="289.148,-139.456 297.924,-133.52 287.362,-132.688 289.148,-139.456"/>
</g>
<!-- Node62 -->
<g id="node9" class="node"><title>Node62</title>
<g id="a_node9"><a xlink:href="main_8cpp.html#a3e3cc959a7ab6f93ea52863d86373ce5" target="_top" xlink:title="Mat2QPixmap">
<polygon fill="white" stroke="black" points="295.5,-76.5 295.5,-95.5 374.5,-95.5 374.5,-76.5 295.5,-76.5"/>
<text text-anchor="middle" x="335" y="-83.5" font-family="Helvetica,sans-Serif" font-size="10.00">Mat2QPixmap</text>
</a>
</g>
</g>
<!-- Node55&#45;&gt;Node62 -->
<g id="edge9" class="edge"><title>Node55&#45;&gt;Node62</title>
<path fill="none" stroke="midnightblue" d="M199.347,-152.457C212.284,-139.787 236.905,-117.553 262,-105 269.316,-101.341 277.414,-98.3293 285.46,-95.8695"/>
<polygon fill="midnightblue" stroke="midnightblue" points="286.512,-99.2095 295.193,-93.136 284.619,-92.4703 286.512,-99.2095"/>
</g>
<!-- Node63 -->
<g id="node10" class="node"><title>Node63</title>
<g id="a_node10"><a xlink:href="classcomm_object.html#a6f81522c2aa1668fa402f08710e6206b" target="_top" xlink:title="commObject::changeImage">
<polygon fill="white" stroke="black" points="267,-38.5 267,-57.5 403,-57.5 403,-38.5 267,-38.5"/>
<text text-anchor="middle" x="335" y="-45.5" font-family="Helvetica,sans-Serif" font-size="10.00">commObject::changeImage</text>
</a>
</g>
</g>
<!-- Node55&#45;&gt;Node63 -->
<g id="edge10" class="edge"><title>Node55&#45;&gt;Node63</title>
<path fill="none" stroke="midnightblue" d="M194.605,-152.214C204.246,-132.822 228.471,-89.4563 262,-67 265.081,-64.9362 268.376,-63.0964 271.798,-61.4562"/>
<polygon fill="midnightblue" stroke="midnightblue" points="273.221,-64.6549 281.094,-57.5642 270.518,-58.1981 273.221,-64.6549"/>
</g>
<!-- Node64 -->
<g id="node11" class="node"><title>Node64</title>
<g id="a_node11"><a xlink:href="main_8cpp.html#ab2b71933055cf32cc8e5e2100fd7723f" target="_top" xlink:title="getEulerAngles">
<polygon fill="white" stroke="black" points="293.5,-0.5 293.5,-19.5 376.5,-19.5 376.5,-0.5 293.5,-0.5"/>
<text text-anchor="middle" x="335" y="-7.5" font-family="Helvetica,sans-Serif" font-size="10.00">getEulerAngles</text>
</a>
</g>
</g>
<!-- Node55&#45;&gt;Node64 -->
<g id="edge11" class="edge"><title>Node55&#45;&gt;Node64</title>
<path fill="none" stroke="midnightblue" d="M192.396,-152.229C198.971,-127.542 219.687,-62.2694 262,-29 268.288,-24.0558 275.743,-20.3917 283.433,-17.6777"/>
<polygon fill="midnightblue" stroke="midnightblue" points="284.665,-20.9617 293.229,-14.7232 282.644,-14.2598 284.665,-20.9617"/>
</g>
<!-- Node56&#45;&gt;Node57 -->
<g id="edge3" class="edge"><title>Node56&#45;&gt;Node57</title>
<path fill="none" stroke="midnightblue" d="M385.927,-308.144C400.951,-306.382 417.656,-304.423 433.484,-302.567"/>
<polygon fill="midnightblue" stroke="midnightblue" points="434.207,-306.006 443.732,-301.365 433.392,-299.054 434.207,-306.006"/>
</g>
</g>
</svg>
