<?xml version="1.0" encoding="UTF-8" standalone="no"?>
<!DOCTYPE svg PUBLIC "-//W3C//DTD SVG 1.1//EN"
 "http://www.w3.org/Graphics/SVG/1.1/DTD/svg11.dtd">
<!-- Generated by graphviz version 2.38.0 (20140413.2041)
 -->
<!-- Title: commObject::changeStatus Pages: 1 -->
<svg width="441pt" height="98pt"
 viewBox="0.00 0.00 441.00 97.50" xmlns="http://www.w3.org/2000/svg" xmlns:xlink="http://www.w3.org/1999/xlink">
<g id="graph0" class="graph" transform="scale(1 1) rotate(0) translate(4 93.5)">
<title>commObject::changeStatus</title>
<polygon fill="white" stroke="none" points="-4,4 -4,-93.5 437,-93.5 437,4 -4,4"/>
<!-- Node55 -->
<g id="node1" class="node"><title>Node55</title>
<polygon fill="#bfbfbf" stroke="black" points="0,-31 0,-50 138,-50 138,-31 0,-31"/>
<text text-anchor="middle" x="69" y="-38" font-family="Helvetica,sans-Serif" font-size="10.00">commObject::changeStatus</text>
</g>
<!-- Node56 -->
<g id="node2" class="node"><title>Node56</title>
<g id="a_node2"><a xlink:href="main_8h.html#a5f7c5996cd5a271d0277e0741f73a5b4" target="_top" xlink:title="Start the camera calibration routine that computes the camera matrix and distortion coefficients...">
<polygon fill="white" stroke="black" points="174,-52 174,-71 261,-71 261,-52 174,-52"/>
<text text-anchor="middle" x="217.5" y="-59" font-family="Helvetica,sans-Serif" font-size="10.00">calibrateCamera</text>
</a>
</g>
</g>
<!-- Node55&#45;&gt;Node56 -->
<g id="edge1" class="edge"><title>Node55&#45;&gt;Node56</title>
<path fill="none" stroke="midnightblue" d="M146.557,-51.474C155.925,-52.8169 165.222,-54.1495 173.831,-55.3836"/>
<polygon fill="midnightblue" stroke="midnightblue" points="146.787,-47.9713 136.392,-50.0169 145.794,-54.9005 146.787,-47.9713"/>
</g>
<!-- Node58 -->
<g id="node4" class="node"><title>Node58</title>
<g id="a_node4"><a xlink:href="main_8h.html#a7ad2e3cfb5056dbab2098e0dd3bd353f" target="_top" xlink:title="calibrateGround">
<polygon fill="white" stroke="black" points="175,-11 175,-30 260,-30 260,-11 175,-11"/>
<text text-anchor="middle" x="217.5" y="-18" font-family="Helvetica,sans-Serif" font-size="10.00">calibrateGround</text>
</a>
</g>
</g>
<!-- Node55&#45;&gt;Node58 -->
<g id="edge4" class="edge"><title>Node55&#45;&gt;Node58</title>
<path fill="none" stroke="midnightblue" d="M148.122,-29.8349C157.343,-28.5761 166.46,-27.3314 174.886,-26.181"/>
<polygon fill="midnightblue" stroke="midnightblue" points="147.538,-26.382 138.103,-31.2026 148.485,-33.3177 147.538,-26.382"/>
</g>
<!-- Node56&#45;&gt;Node56 -->
<g id="edge2" class="edge"><title>Node56&#45;&gt;Node56</title>
<path fill="none" stroke="midnightblue" d="M190.247,-80.1539C191.387,-85.4368 200.471,-89.5 217.5,-89.5 243.449,-89.5 250.95,-80.0653 240.003,-71.2571"/>
<polygon fill="midnightblue" stroke="midnightblue" points="193.375,-81.727 194.997,-71.2571 187.2,-78.4303 193.375,-81.727"/>
</g>
<!-- Node57 -->
<g id="node3" class="node"><title>Node57</title>
<g id="a_node3"><a xlink:href="class_rigid_track.html#aed2c39da404909142074f7dd2ce75a63" target="_top" xlink:title="RigidTrack::on_btnCalibrate\l_clicked">
<polygon fill="white" stroke="black" points="297,-49.5 297,-79.5 433,-79.5 433,-49.5 297,-49.5"/>
<text text-anchor="start" x="305" y="-67.5" font-family="Helvetica,sans-Serif" font-size="10.00">RigidTrack::on_btnCalibrate</text>
<text text-anchor="middle" x="365" y="-56.5" font-family="Helvetica,sans-Serif" font-size="10.00">_clicked</text>
</a>
</g>
</g>
<!-- Node56&#45;&gt;Node57 -->
<g id="edge3" class="edge"><title>Node56&#45;&gt;Node57</title>
<path fill="none" stroke="midnightblue" d="M271.562,-62.5941C279.791,-62.7637 288.383,-62.9409 296.873,-63.1159"/>
<polygon fill="midnightblue" stroke="midnightblue" points="271.438,-59.0909 261.368,-62.3839 271.294,-66.0894 271.438,-59.0909"/>
</g>
<!-- Node59 -->
<g id="node5" class="node"><title>Node59</title>
<g id="a_node5"><a xlink:href="class_rigid_track.html#a9a939d6db3d268e75a603cb3d492a91b" target="_top" xlink:title="RigidTrack::on_btnCalibrate\lGround_clicked">
<polygon fill="white" stroke="black" points="297,-0.5 297,-30.5 433,-30.5 433,-0.5 297,-0.5"/>
<text text-anchor="start" x="305" y="-18.5" font-family="Helvetica,sans-Serif" font-size="10.00">RigidTrack::on_btnCalibrate</text>
<text text-anchor="middle" x="365" y="-7.5" font-family="Helvetica,sans-Serif" font-size="10.00">Ground_clicked</text>
</a>
</g>
</g>
<!-- Node58&#45;&gt;Node59 -->
<g id="edge5" class="edge"><title>Node58&#45;&gt;Node59</title>
<path fill="none" stroke="midnightblue" d="M270.378,-18.7173C278.926,-18.4235 287.895,-18.1153 296.754,-17.8109"/>
<polygon fill="midnightblue" stroke="midnightblue" points="270.068,-15.2257 260.194,-19.0672 270.309,-22.2216 270.068,-15.2257"/>
</g>
</g>
</svg>
