<?xml version="1.0" encoding="UTF-8" standalone="no"?>
<!DOCTYPE svg PUBLIC "-//W3C//DTD SVG 1.1//EN"
 "http://www.w3.org/Graphics/SVG/1.1/DTD/svg11.dtd">
<!-- Generated by graphviz version 2.38.0 (20140413.2041)
 -->
<!-- Title: RigidTrack::on_btnCalibrateGround_clicked Pages: 1 -->
<svg width="593pt" height="332pt"
 viewBox="0.00 0.00 593.00 332.00" xmlns="http://www.w3.org/2000/svg" xmlns:xlink="http://www.w3.org/1999/xlink">
<g id="graph0" class="graph" transform="scale(1 1) rotate(0) translate(4 328)">
<title>RigidTrack::on_btnCalibrateGround_clicked</title>
<polygon fill="white" stroke="none" points="-4,4 -4,-328 589,-328 589,4 -4,4"/>
<!-- Node23 -->
<g id="node1" class="node"><title>Node23</title>
<polygon fill="#bfbfbf" stroke="black" points="0,-147 0,-177 136,-177 136,-147 0,-147"/>
<text text-anchor="start" x="8" y="-165" font-family="Helvetica,sans-Serif" font-size="10.00">RigidTrack::on_btnCalibrate</text>
<text text-anchor="middle" x="68" y="-154" font-family="Helvetica,sans-Serif" font-size="10.00">Ground_clicked</text>
</g>
<!-- Node24 -->
<g id="node2" class="node"><title>Node24</title>
<g id="a_node2"><a xlink:href="main_8cpp.html#a7ad2e3cfb5056dbab2098e0dd3bd353f" target="_top" xlink:title="calibrateGround">
<polygon fill="white" stroke="black" points="172,-152.5 172,-171.5 257,-171.5 257,-152.5 172,-152.5"/>
<text text-anchor="middle" x="214.5" y="-159.5" font-family="Helvetica,sans-Serif" font-size="10.00">calibrateGround</text>
</a>
</g>
</g>
<!-- Node23&#45;&gt;Node24 -->
<g id="edge1" class="edge"><title>Node23&#45;&gt;Node24</title>
<path fill="none" stroke="midnightblue" d="M136.174,-162C144.672,-162 153.265,-162 161.479,-162"/>
<polygon fill="midnightblue" stroke="midnightblue" points="161.644,-165.5 171.644,-162 161.644,-158.5 161.644,-165.5"/>
</g>
<!-- Node25 -->
<g id="node3" class="node"><title>Node25</title>
<g id="a_node3"><a xlink:href="main_8cpp.html#a0416912fce6274568e80019b10ba294f" target="_top" xlink:title="determineExposure">
<polygon fill="white" stroke="black" points="315.5,-304.5 315.5,-323.5 416.5,-323.5 416.5,-304.5 315.5,-304.5"/>
<text text-anchor="middle" x="366" y="-311.5" font-family="Helvetica,sans-Serif" font-size="10.00">determineExposure</text>
</a>
</g>
</g>
<!-- Node24&#45;&gt;Node25 -->
<g id="edge2" class="edge"><title>Node24&#45;&gt;Node25</title>
<path fill="none" stroke="midnightblue" d="M218.669,-171.604C226.966,-195.281 251.595,-256.922 293,-290 298.326,-294.255 304.439,-297.77 310.805,-300.671"/>
<polygon fill="midnightblue" stroke="midnightblue" points="309.667,-303.986 320.249,-304.496 312.294,-297.498 309.667,-303.986"/>
</g>
<!-- Node26 -->
<g id="node4" class="node"><title>Node26</title>
<g id="a_node4"><a xlink:href="classcomm_object.html#aec354c7099b3039083cc4224e071e022" target="_top" xlink:title="commObject::addLog">
<polygon fill="white" stroke="black" points="475,-285.5 475,-304.5 585,-304.5 585,-285.5 475,-285.5"/>
<text text-anchor="middle" x="530" y="-292.5" font-family="Helvetica,sans-Serif" font-size="10.00">commObject::addLog</text>
</a>
</g>
</g>
<!-- Node24&#45;&gt;Node26 -->
<g id="edge4" class="edge"><title>Node24&#45;&gt;Node26</title>
<path fill="none" stroke="midnightblue" d="M220.32,-171.775C230.63,-191.544 256.86,-236.16 293,-257 321.505,-273.437 405.25,-284.092 464.862,-289.82"/>
<polygon fill="midnightblue" stroke="midnightblue" points="464.667,-293.317 474.95,-290.765 465.32,-286.348 464.667,-293.317"/>
</g>
<!-- Node27 -->
<g id="node5" class="node"><title>Node27</title>
<g id="a_node5"><a xlink:href="main_8cpp.html#a11ff459289305229597defd39f510959" target="_top" xlink:title="determineOrder">
<polygon fill="white" stroke="black" points="324.5,-228.5 324.5,-247.5 407.5,-247.5 407.5,-228.5 324.5,-228.5"/>
<text text-anchor="middle" x="366" y="-235.5" font-family="Helvetica,sans-Serif" font-size="10.00">determineOrder</text>
</a>
</g>
</g>
<!-- Node24&#45;&gt;Node27 -->
<g id="edge5" class="edge"><title>Node24&#45;&gt;Node27</title>
<path fill="none" stroke="midnightblue" d="M225.706,-171.505C239.795,-184.132 266.481,-206.318 293,-219 299.812,-222.258 307.263,-225.018 314.708,-227.338"/>
<polygon fill="midnightblue" stroke="midnightblue" points="313.858,-230.735 324.436,-230.139 315.795,-224.009 313.858,-230.735"/>
</g>
<!-- Node28 -->
<g id="node6" class="node"><title>Node28</title>
<g id="a_node6"><a xlink:href="classcomm_object.html#acfc97f4310e2b7d841ecb8cf8be0088e" target="_top" xlink:title="commObject::progressUpdate">
<polygon fill="white" stroke="black" points="293,-190.5 293,-209.5 439,-209.5 439,-190.5 293,-190.5"/>
<text text-anchor="middle" x="366" y="-197.5" font-family="Helvetica,sans-Serif" font-size="10.00">commObject::progressUpdate</text>
</a>
</g>
</g>
<!-- Node24&#45;&gt;Node28 -->
<g id="edge6" class="edge"><title>Node24&#45;&gt;Node28</title>
<path fill="none" stroke="midnightblue" d="M253.225,-171.589C272.776,-176.558 296.847,-182.677 317.637,-187.961"/>
<polygon fill="midnightblue" stroke="midnightblue" points="316.992,-191.409 327.546,-190.48 318.717,-184.624 316.992,-191.409"/>
</g>
<!-- Node29 -->
<g id="node7" class="node"><title>Node29</title>
<g id="a_node7"><a xlink:href="main_8cpp.html#a2104a5d9d6b9f1e29bc4cd858c59882e" target="_top" xlink:title="projectCoordinateFrame">
<polygon fill="white" stroke="black" points="306,-152.5 306,-171.5 426,-171.5 426,-152.5 306,-152.5"/>
<text text-anchor="middle" x="366" y="-159.5" font-family="Helvetica,sans-Serif" font-size="10.00">projectCoordinateFrame</text>
</a>
</g>
</g>
<!-- Node24&#45;&gt;Node29 -->
<g id="edge7" class="edge"><title>Node24&#45;&gt;Node29</title>
<path fill="none" stroke="midnightblue" d="M257.144,-162C269.193,-162 282.679,-162 295.926,-162"/>
<polygon fill="midnightblue" stroke="midnightblue" points="295.982,-165.5 305.982,-162 295.982,-158.5 295.982,-165.5"/>
</g>
<!-- Node30 -->
<g id="node8" class="node"><title>Node30</title>
<g id="a_node8"><a xlink:href="main_8cpp.html#a3e3cc959a7ab6f93ea52863d86373ce5" target="_top" xlink:title="Mat2QPixmap">
<polygon fill="white" stroke="black" points="326.5,-114.5 326.5,-133.5 405.5,-133.5 405.5,-114.5 326.5,-114.5"/>
<text text-anchor="middle" x="366" y="-121.5" font-family="Helvetica,sans-Serif" font-size="10.00">Mat2QPixmap</text>
</a>
</g>
</g>
<!-- Node24&#45;&gt;Node30 -->
<g id="edge8" class="edge"><title>Node24&#45;&gt;Node30</title>
<path fill="none" stroke="midnightblue" d="M253.225,-152.411C272.776,-147.442 296.847,-141.323 317.637,-136.039"/>
<polygon fill="midnightblue" stroke="midnightblue" points="318.717,-139.376 327.546,-133.52 316.992,-132.591 318.717,-139.376"/>
</g>
<!-- Node31 -->
<g id="node9" class="node"><title>Node31</title>
<g id="a_node9"><a xlink:href="classcomm_object.html#a6f81522c2aa1668fa402f08710e6206b" target="_top" xlink:title="commObject::changeImage">
<polygon fill="white" stroke="black" points="298,-76.5 298,-95.5 434,-95.5 434,-76.5 298,-76.5"/>
<text text-anchor="middle" x="366" y="-83.5" font-family="Helvetica,sans-Serif" font-size="10.00">commObject::changeImage</text>
</a>
</g>
</g>
<!-- Node24&#45;&gt;Node31 -->
<g id="edge9" class="edge"><title>Node24&#45;&gt;Node31</title>
<path fill="none" stroke="midnightblue" d="M225.706,-152.495C239.795,-139.868 266.481,-117.682 293,-105 297.957,-102.63 303.252,-100.523 308.637,-98.6568"/>
<polygon fill="midnightblue" stroke="midnightblue" points="309.908,-101.925 318.373,-95.5542 307.782,-95.2558 309.908,-101.925"/>
</g>
<!-- Node32 -->
<g id="node10" class="node"><title>Node32</title>
<g id="a_node10"><a xlink:href="main_8cpp.html#ab2b71933055cf32cc8e5e2100fd7723f" target="_top" xlink:title="getEulerAngles">
<polygon fill="white" stroke="black" points="324.5,-38.5 324.5,-57.5 407.5,-57.5 407.5,-38.5 324.5,-38.5"/>
<text text-anchor="middle" x="366" y="-45.5" font-family="Helvetica,sans-Serif" font-size="10.00">getEulerAngles</text>
</a>
</g>
</g>
<!-- Node24&#45;&gt;Node32 -->
<g id="edge10" class="edge"><title>Node24&#45;&gt;Node32</title>
<path fill="none" stroke="midnightblue" d="M220.66,-152.217C231.404,-132.832 258.107,-89.4766 293,-67 299.572,-62.7667 307.056,-59.4732 314.655,-56.9117"/>
<polygon fill="midnightblue" stroke="midnightblue" points="315.698,-60.2531 324.282,-54.0429 313.699,-53.5446 315.698,-60.2531"/>
</g>
<!-- Node33 -->
<g id="node11" class="node"><title>Node33</title>
<g id="a_node11"><a xlink:href="classcomm_object.html#a1f4b8dd22ecc46bab619f6b1fe1a5144" target="_top" xlink:title="commObject::changeStatus">
<polygon fill="white" stroke="black" points="297,-0.5 297,-19.5 435,-19.5 435,-0.5 297,-0.5"/>
<text text-anchor="middle" x="366" y="-7.5" font-family="Helvetica,sans-Serif" font-size="10.00">commObject::changeStatus</text>
</a>
</g>
</g>
<!-- Node24&#45;&gt;Node33 -->
<g id="edge11" class="edge"><title>Node24&#45;&gt;Node33</title>
<path fill="none" stroke="midnightblue" d="M218.312,-152.218C225.934,-127.507 249.406,-62.1813 293,-29 295.491,-27.1037 298.156,-25.3961 300.938,-23.8586"/>
<polygon fill="midnightblue" stroke="midnightblue" points="302.611,-26.9392 310.158,-19.5036 299.622,-20.6097 302.611,-26.9392"/>
</g>
<!-- Node25&#45;&gt;Node26 -->
<g id="edge3" class="edge"><title>Node25&#45;&gt;Node26</title>
<path fill="none" stroke="midnightblue" d="M416.927,-308.144C431.951,-306.382 448.656,-304.423 464.484,-302.567"/>
<polygon fill="midnightblue" stroke="midnightblue" points="465.207,-306.006 474.732,-301.365 464.392,-299.054 465.207,-306.006"/>
</g>
</g>
</svg>
