<?xml version="1.0" encoding="UTF-8" standalone="no"?>
<!DOCTYPE svg PUBLIC "-//W3C//DTD SVG 1.1//EN"
 "http://www.w3.org/Graphics/SVG/1.1/DTD/svg11.dtd">
<!-- Generated by graphviz version 2.38.0 (20140413.2041)
 -->
<!-- Title: Surface::Surface Pages: 1 -->
<svg width="249pt" height="104pt"
 viewBox="0.00 0.00 249.00 104.00" xmlns="http://www.w3.org/2000/svg" xmlns:xlink="http://www.w3.org/1999/xlink">
<g id="graph0" class="graph" transform="scale(1 1) rotate(0) translate(4 100)">
<title>Surface::Surface</title>
<polygon fill="white" stroke="none" points="-4,4 -4,-100 245,-100 245,4 -4,4"/>
<!-- Node0 -->
<g id="node1" class="node"><title>Node0</title>
<polygon fill="#bfbfbf" stroke="black" points="0,-38.5 0,-57.5 89,-57.5 89,-38.5 0,-38.5"/>
<text text-anchor="middle" x="44.5" y="-45.5" font-family="Helvetica,sans-Serif" font-size="10.00">Surface::Surface</text>
</g>
<!-- Node1 -->
<g id="node2" class="node"><title>Node1</title>
<g id="a_node2"><a xlink:href="class_surface.html#aeb8a8540f415a4d29c440667e8532e91" target="_top" xlink:title="Surface::CalculateSize">
<polygon fill="white" stroke="black" points="125,-76.5 125,-95.5 241,-95.5 241,-76.5 125,-76.5"/>
<text text-anchor="middle" x="183" y="-83.5" font-family="Helvetica,sans-Serif" font-size="10.00">Surface::CalculateSize</text>
</a>
</g>
</g>
<!-- Node0&#45;&gt;Node1 -->
<g id="edge1" class="edge"><title>Node0&#45;&gt;Node1</title>
<path fill="none" stroke="midnightblue" d="M79.9447,-57.589C97.4847,-62.4719 119.01,-68.4643 137.763,-73.685"/>
<polygon fill="midnightblue" stroke="midnightblue" points="136.994,-77.1039 147.566,-76.4141 138.871,-70.3603 136.994,-77.1039"/>
</g>
<!-- Node2 -->
<g id="node3" class="node"><title>Node2</title>
<g id="a_node3"><a xlink:href="class_surface.html#ae76d7c2fa208df6979a77cc60e8105c0" target="_top" xlink:title="Surface::Width">
<polygon fill="white" stroke="black" points="142.5,-38.5 142.5,-57.5 223.5,-57.5 223.5,-38.5 142.5,-38.5"/>
<text text-anchor="middle" x="183" y="-45.5" font-family="Helvetica,sans-Serif" font-size="10.00">Surface::Width</text>
</a>
</g>
</g>
<!-- Node0&#45;&gt;Node2 -->
<g id="edge2" class="edge"><title>Node0&#45;&gt;Node2</title>
<path fill="none" stroke="midnightblue" d="M89.0648,-48C102.752,-48 117.969,-48 132.062,-48"/>
<polygon fill="midnightblue" stroke="midnightblue" points="132.087,-51.5001 142.087,-48 132.087,-44.5001 132.087,-51.5001"/>
</g>
<!-- Node3 -->
<g id="node4" class="node"><title>Node3</title>
<g id="a_node4"><a xlink:href="class_surface.html#ab901f48d51b3fd427415b580dc15518c" target="_top" xlink:title="Surface::Height">
<polygon fill="white" stroke="black" points="141.5,-0.5 141.5,-19.5 224.5,-19.5 224.5,-0.5 141.5,-0.5"/>
<text text-anchor="middle" x="183" y="-7.5" font-family="Helvetica,sans-Serif" font-size="10.00">Surface::Height</text>
</a>
</g>
</g>
<!-- Node0&#45;&gt;Node3 -->
<g id="edge3" class="edge"><title>Node0&#45;&gt;Node3</title>
<path fill="none" stroke="midnightblue" d="M79.9447,-38.411C97.4847,-33.5281 119.01,-27.5357 137.763,-22.315"/>
<polygon fill="midnightblue" stroke="midnightblue" points="138.871,-25.6397 147.566,-19.5859 136.994,-18.8961 138.871,-25.6397"/>
</g>
</g>
</svg>
