<?xml version="1.0" encoding="UTF-8" standalone="no"?>
<!DOCTYPE svg PUBLIC "-//W3C//DTD SVG 1.1//EN"
 "http://www.w3.org/Graphics/SVG/1.1/DTD/svg11.dtd">
<!-- Generated by graphviz version 2.38.0 (20140413.2041)
 -->
<!-- Title: commObject::imageChanged Pages: 1 -->
<svg width="1224pt" height="269pt"
 viewBox="0.00 0.00 1224.00 269.00" xmlns="http://www.w3.org/2000/svg" xmlns:xlink="http://www.w3.org/1999/xlink">
<g id="graph0" class="graph" transform="scale(1 1) rotate(0) translate(4 265)">
<title>commObject::imageChanged</title>
<polygon fill="white" stroke="none" points="-4,4 -4,-265 1220,-265 1220,4 -4,4"/>
<!-- Node73 -->
<g id="node1" class="node"><title>Node73</title>
<polygon fill="#bfbfbf" stroke="black" points="0,-118 0,-137 143,-137 143,-118 0,-118"/>
<text text-anchor="middle" x="71.5" y="-125" font-family="Helvetica,sans-Serif" font-size="10.00">commObject::imageChanged</text>
</g>
<!-- Node74 -->
<g id="node2" class="node"><title>Node74</title>
<g id="a_node2"><a xlink:href="classcomm_object.html#a6f81522c2aa1668fa402f08710e6206b" target="_top" xlink:title="commObject::changeImage">
<polygon fill="white" stroke="black" points="179,-118 179,-137 315,-137 315,-118 179,-118"/>
<text text-anchor="middle" x="247" y="-125" font-family="Helvetica,sans-Serif" font-size="10.00">commObject::changeImage</text>
</a>
</g>
</g>
<!-- Node73&#45;&gt;Node74 -->
<g id="edge1" class="edge"><title>Node73&#45;&gt;Node74</title>
<path fill="none" stroke="midnightblue" d="M153.121,-127.5C161.733,-127.5 170.426,-127.5 178.858,-127.5"/>
<polygon fill="midnightblue" stroke="midnightblue" points="153.069,-124 143.069,-127.5 153.069,-131 153.069,-124"/>
</g>
<!-- Node75 -->
<g id="node3" class="node"><title>Node75</title>
<g id="a_node3"><a xlink:href="main_8h.html#a3d3afd29ce54eb7fc5cc7e74ab666586" target="_top" xlink:title="startTracking">
<polygon fill="white" stroke="black" points="360.5,-233 360.5,-252 433.5,-252 433.5,-233 360.5,-233"/>
<text text-anchor="middle" x="397" y="-240" font-family="Helvetica,sans-Serif" font-size="10.00">startTracking</text>
</a>
</g>
</g>
<!-- Node74&#45;&gt;Node75 -->
<g id="edge2" class="edge"><title>Node74&#45;&gt;Node75</title>
<path fill="none" stroke="midnightblue" d="M263.595,-144.599C282.724,-164.854 316.835,-198.714 351,-221.5 357.455,-225.805 364.933,-229.679 371.918,-232.892"/>
<polygon fill="midnightblue" stroke="midnightblue" points="265.957,-142 256.581,-137.066 260.834,-146.77 265.957,-142"/>
</g>
<!-- Node78 -->
<g id="node6" class="node"><title>Node78</title>
<g id="a_node6"><a xlink:href="main_8h.html#a1e6662e0f16887fe97c7bebe05065972" target="_top" xlink:title="setReference">
<polygon fill="white" stroke="black" points="360,-193 360,-212 434,-212 434,-193 360,-193"/>
<text text-anchor="middle" x="397" y="-200" font-family="Helvetica,sans-Serif" font-size="10.00">setReference</text>
</a>
</g>
</g>
<!-- Node74&#45;&gt;Node78 -->
<g id="edge5" class="edge"><title>Node74&#45;&gt;Node78</title>
<path fill="none" stroke="midnightblue" d="M273.278,-142.151C293.91,-153.886 323.965,-170.482 351,-183.5 357.724,-186.738 365.142,-189.994 371.984,-192.875"/>
<polygon fill="midnightblue" stroke="midnightblue" points="274.925,-139.06 264.507,-137.131 271.448,-145.136 274.925,-139.06"/>
</g>
<!-- Node80 -->
<g id="node8" class="node"><title>Node80</title>
<g id="a_node8"><a xlink:href="main_8h.html#a5f7c5996cd5a271d0277e0741f73a5b4" target="_top" xlink:title="Start the camera calibration routine that computes the camera matrix and distortion coefficients...">
<polygon fill="white" stroke="black" points="353.5,-137 353.5,-156 440.5,-156 440.5,-137 353.5,-137"/>
<text text-anchor="middle" x="397" y="-144" font-family="Helvetica,sans-Serif" font-size="10.00">calibrateCamera</text>
</a>
</g>
</g>
<!-- Node74&#45;&gt;Node80 -->
<g id="edge7" class="edge"><title>Node74&#45;&gt;Node80</title>
<path fill="none" stroke="midnightblue" d="M325.157,-137.405C334.837,-138.648 344.445,-139.881 353.316,-141.02"/>
<polygon fill="midnightblue" stroke="midnightblue" points="325.436,-133.912 315.072,-136.111 324.544,-140.855 325.436,-133.912"/>
</g>
<!-- Node82 -->
<g id="node10" class="node"><title>Node82</title>
<g id="a_node10"><a xlink:href="main_8h.html#a847c0fbd3e513fb76ff145b31a9f5c37" target="_top" xlink:title="testAlgorithms">
<polygon fill="white" stroke="black" points="357,-99 357,-118 437,-118 437,-99 357,-99"/>
<text text-anchor="middle" x="397" y="-106" font-family="Helvetica,sans-Serif" font-size="10.00">testAlgorithms</text>
</a>
</g>
</g>
<!-- Node74&#45;&gt;Node82 -->
<g id="edge10" class="edge"><title>Node74&#45;&gt;Node82</title>
<path fill="none" stroke="midnightblue" d="M325.103,-117.602C336.029,-116.199 346.864,-114.808 356.655,-113.551"/>
<polygon fill="midnightblue" stroke="midnightblue" points="324.544,-114.145 315.072,-118.889 325.436,-121.088 324.544,-114.145"/>
</g>
<!-- Node89 -->
<g id="node17" class="node"><title>Node89</title>
<g id="a_node17"><a xlink:href="main_8h.html#a56c7f641859cb2b6b99b0947d03be800" target="_top" xlink:title="loadMarkerConfig">
<polygon fill="white" stroke="black" points="351,-61 351,-80 443,-80 443,-61 351,-61"/>
<text text-anchor="middle" x="397" y="-68" font-family="Helvetica,sans-Serif" font-size="10.00">loadMarkerConfig</text>
</a>
</g>
</g>
<!-- Node74&#45;&gt;Node89 -->
<g id="edge17" class="edge"><title>Node74&#45;&gt;Node89</title>
<path fill="none" stroke="midnightblue" d="M282.281,-114.297C309.456,-103.831 346.787,-89.4538 371.147,-80.0716"/>
<polygon fill="midnightblue" stroke="midnightblue" points="280.846,-111.099 272.772,-117.959 283.362,-117.632 280.846,-111.099"/>
</g>
<!-- Node91 -->
<g id="node19" class="node"><title>Node91</title>
<g id="a_node19"><a xlink:href="main_8h.html#a7ad2e3cfb5056dbab2098e0dd3bd353f" target="_top" xlink:title="calibrateGround">
<polygon fill="white" stroke="black" points="354.5,-15 354.5,-34 439.5,-34 439.5,-15 354.5,-15"/>
<text text-anchor="middle" x="397" y="-22" font-family="Helvetica,sans-Serif" font-size="10.00">calibrateGround</text>
</a>
</g>
</g>
<!-- Node74&#45;&gt;Node91 -->
<g id="edge20" class="edge"><title>Node74&#45;&gt;Node91</title>
<path fill="none" stroke="midnightblue" d="M268.061,-111.812C288.526,-96.0198 321.393,-71.2402 351,-51.5 360.097,-45.435 370.553,-39.1233 379.095,-34.1288"/>
<polygon fill="midnightblue" stroke="midnightblue" points="265.853,-109.095 260.095,-117.988 270.143,-114.626 265.853,-109.095"/>
</g>
<!-- Node76 -->
<g id="node4" class="node"><title>Node76</title>
<g id="a_node4"><a xlink:href="main_8h.html#a25183e8d0b386ef12b557efc712a0261" target="_top" xlink:title="Start or stop the tracking depending on if the camera is currently running or not. ">
<polygon fill="white" stroke="black" points="507,-236 507,-255 597,-255 597,-236 507,-236"/>
<text text-anchor="middle" x="552" y="-243" font-family="Helvetica,sans-Serif" font-size="10.00">startStopCamera</text>
</a>
</g>
</g>
<!-- Node75&#45;&gt;Node76 -->
<g id="edge3" class="edge"><title>Node75&#45;&gt;Node76</title>
<path fill="none" stroke="midnightblue" d="M443.961,-243.401C463.901,-243.792 487.153,-244.248 506.882,-244.635"/>
<polygon fill="midnightblue" stroke="midnightblue" points="443.938,-239.9 433.872,-243.203 443.801,-246.899 443.938,-239.9"/>
</g>
<!-- Node77 -->
<g id="node5" class="node"><title>Node77</title>
<g id="a_node5"><a xlink:href="class_rigid_track.html#a2f226856e28868c8bb1854fa16531f60" target="_top" xlink:title="RigidTrack::on_btnStartCamera\l_clicked">
<polygon fill="white" stroke="black" points="661,-230.5 661,-260.5 813,-260.5 813,-230.5 661,-230.5"/>
<text text-anchor="start" x="669" y="-248.5" font-family="Helvetica,sans-Serif" font-size="10.00">RigidTrack::on_btnStartCamera</text>
<text text-anchor="middle" x="737" y="-237.5" font-family="Helvetica,sans-Serif" font-size="10.00">_clicked</text>
</a>
</g>
</g>
<!-- Node76&#45;&gt;Node77 -->
<g id="edge4" class="edge"><title>Node76&#45;&gt;Node77</title>
<path fill="none" stroke="midnightblue" d="M607.424,-245.5C624.139,-245.5 642.84,-245.5 660.692,-245.5"/>
<polygon fill="midnightblue" stroke="midnightblue" points="607.299,-242 597.299,-245.5 607.299,-249 607.299,-242"/>
</g>
<!-- Node79 -->
<g id="node7" class="node"><title>Node79</title>
<g id="a_node7"><a xlink:href="class_rigid_track.html#afb1a4edcacc818db4ec6bb017dd07e0f" target="_top" xlink:title="RigidTrack::on_btnZero\l_clicked">
<polygon fill="white" stroke="black" points="494,-186.5 494,-216.5 610,-216.5 610,-186.5 494,-186.5"/>
<text text-anchor="start" x="502" y="-204.5" font-family="Helvetica,sans-Serif" font-size="10.00">RigidTrack::on_btnZero</text>
<text text-anchor="middle" x="552" y="-193.5" font-family="Helvetica,sans-Serif" font-size="10.00">_clicked</text>
</a>
</g>
</g>
<!-- Node78&#45;&gt;Node79 -->
<g id="edge6" class="edge"><title>Node78&#45;&gt;Node79</title>
<path fill="none" stroke="midnightblue" d="M444.638,-202.195C460.133,-202.094 477.567,-201.98 493.768,-201.874"/>
<polygon fill="midnightblue" stroke="midnightblue" points="444.236,-198.698 434.259,-202.263 444.282,-205.697 444.236,-198.698"/>
</g>
<!-- Node80&#45;&gt;Node80 -->
<g id="edge8" class="edge"><title>Node80&#45;&gt;Node80</title>
<path fill="none" stroke="midnightblue" d="M369.001,-165.154C370.171,-170.437 379.504,-174.5 397,-174.5 423.66,-174.5 431.367,-165.065 420.119,-156.257"/>
<polygon fill="midnightblue" stroke="midnightblue" points="372.14,-166.708 373.881,-156.257 366.003,-163.342 372.14,-166.708"/>
</g>
<!-- Node81 -->
<g id="node9" class="node"><title>Node81</title>
<g id="a_node9"><a xlink:href="class_rigid_track.html#aed2c39da404909142074f7dd2ce75a63" target="_top" xlink:title="RigidTrack::on_btnCalibrate\l_clicked">
<polygon fill="white" stroke="black" points="484,-137.5 484,-167.5 620,-167.5 620,-137.5 484,-137.5"/>
<text text-anchor="start" x="492" y="-155.5" font-family="Helvetica,sans-Serif" font-size="10.00">RigidTrack::on_btnCalibrate</text>
<text text-anchor="middle" x="552" y="-144.5" font-family="Helvetica,sans-Serif" font-size="10.00">_clicked</text>
</a>
</g>
</g>
<!-- Node80&#45;&gt;Node81 -->
<g id="edge9" class="edge"><title>Node80&#45;&gt;Node81</title>
<path fill="none" stroke="midnightblue" d="M450.66,-148.565C461.388,-148.986 472.811,-149.434 483.962,-149.871"/>
<polygon fill="midnightblue" stroke="midnightblue" points="450.749,-145.066 440.619,-148.171 450.474,-152.061 450.749,-145.066"/>
</g>
<!-- Node83 -->
<g id="node11" class="node"><title>Node83</title>
<g id="a_node11"><a xlink:href="supportcode_8cpp.html#a0ddf1224851353fc92bfbff6f499fa97" target="_top" xlink:title="main initialises the GUI and values for the marker position etc ">
<polygon fill="white" stroke="black" points="533,-99 533,-118 571,-118 571,-99 533,-99"/>
<text text-anchor="middle" x="552" y="-106" font-family="Helvetica,sans-Serif" font-size="10.00">main</text>
</a>
</g>
</g>
<!-- Node82&#45;&gt;Node83 -->
<g id="edge11" class="edge"><title>Node82&#45;&gt;Node83</title>
<path fill="none" stroke="midnightblue" d="M447.079,-108.5C476.386,-108.5 511.882,-108.5 532.888,-108.5"/>
<polygon fill="midnightblue" stroke="midnightblue" points="447.004,-105 437.004,-108.5 447.004,-112 447.004,-105"/>
</g>
<!-- Node84 -->
<g id="node12" class="node"><title>Node84</title>
<g id="a_node12"><a xlink:href="class_surface.html#a728571d0386e9690ce1760931562c72b" target="_top" xlink:title="Surface::PutPixel">
<polygon fill="white" stroke="black" points="691,-118 691,-137 783,-137 783,-118 691,-118"/>
<text text-anchor="middle" x="737" y="-125" font-family="Helvetica,sans-Serif" font-size="10.00">Surface::PutPixel</text>
</a>
</g>
</g>
<!-- Node83&#45;&gt;Node84 -->
<g id="edge12" class="edge"><title>Node83&#45;&gt;Node84</title>
<path fill="none" stroke="midnightblue" d="M581.165,-111.424C610.395,-114.459 656.552,-119.251 690.874,-122.815"/>
<polygon fill="midnightblue" stroke="midnightblue" points="581.524,-107.943 571.216,-110.391 580.801,-114.905 581.524,-107.943"/>
</g>
<!-- Node88 -->
<g id="node16" class="node"><title>Node88</title>
<g id="a_node16"><a xlink:href="supportcode_8cpp.html#a661c2abc03926acfaeb93b4ae7db4943" target="_top" xlink:title="/&lt; Window Show State ">
<polygon fill="white" stroke="black" points="709.5,-80 709.5,-99 764.5,-99 764.5,-80 709.5,-80"/>
<text text-anchor="middle" x="737" y="-87" font-family="Helvetica,sans-Serif" font-size="10.00">WinMain</text>
</a>
</g>
</g>
<!-- Node83&#45;&gt;Node88 -->
<g id="edge16" class="edge"><title>Node83&#45;&gt;Node88</title>
<path fill="none" stroke="midnightblue" d="M581.226,-105.569C616.147,-101.944 675.164,-95.8163 709.344,-92.2675"/>
<polygon fill="midnightblue" stroke="midnightblue" points="580.801,-102.095 571.216,-106.609 581.524,-109.057 580.801,-102.095"/>
</g>
<!-- Node85 -->
<g id="node13" class="node"><title>Node85</title>
<g id="a_node13"><a xlink:href="class_surface.html#a377c59f6ef131d4b879cda93578a3efa" target="_top" xlink:title="Surface::SurfaceHeight">
<polygon fill="white" stroke="black" points="849,-118 849,-137 965,-137 965,-118 849,-118"/>
<text text-anchor="middle" x="907" y="-125" font-family="Helvetica,sans-Serif" font-size="10.00">Surface::SurfaceHeight</text>
</a>
</g>
</g>
<!-- Node84&#45;&gt;Node85 -->
<g id="edge13" class="edge"><title>Node84&#45;&gt;Node85</title>
<path fill="none" stroke="midnightblue" d="M793.255,-127.5C811.071,-127.5 830.848,-127.5 848.8,-127.5"/>
<polygon fill="midnightblue" stroke="midnightblue" points="793.021,-124 783.021,-127.5 793.021,-131 793.021,-124"/>
</g>
<!-- Node86 -->
<g id="node14" class="node"><title>Node86</title>
<g id="a_node14"><a xlink:href="supportcode_8h.html#ac43c2dc16b0859b03a4f7d04a7e97d3c" target="_top" xlink:title="DrawGLScene">
<polygon fill="white" stroke="black" points="1001,-118 1001,-137 1080,-137 1080,-118 1001,-118"/>
<text text-anchor="middle" x="1040.5" y="-125" font-family="Helvetica,sans-Serif" font-size="10.00">DrawGLScene</text>
</a>
</g>
</g>
<!-- Node85&#45;&gt;Node86 -->
<g id="edge14" class="edge"><title>Node85&#45;&gt;Node86</title>
<path fill="none" stroke="midnightblue" d="M975.511,-127.5C984.228,-127.5 992.905,-127.5 1000.93,-127.5"/>
<polygon fill="midnightblue" stroke="midnightblue" points="975.295,-124 965.295,-127.5 975.295,-131 975.295,-124"/>
</g>
<!-- Node87 -->
<g id="node15" class="node"><title>Node87</title>
<g id="a_node15"><a xlink:href="class_surface.html#abe0d542404575c60911d6ad4219560f9" target="_top" xlink:title="Surface::PixelSpan">
<polygon fill="white" stroke="black" points="1116,-118 1116,-137 1216,-137 1216,-118 1116,-118"/>
<text text-anchor="middle" x="1166" y="-125" font-family="Helvetica,sans-Serif" font-size="10.00">Surface::PixelSpan</text>
</a>
</g>
</g>
<!-- Node86&#45;&gt;Node87 -->
<g id="edge15" class="edge"><title>Node86&#45;&gt;Node87</title>
<path fill="none" stroke="midnightblue" d="M1090.31,-127.5C1098.74,-127.5 1107.51,-127.5 1115.95,-127.5"/>
<polygon fill="midnightblue" stroke="midnightblue" points="1090.24,-124 1080.24,-127.5 1090.24,-131 1090.24,-124"/>
</g>
<!-- Node89&#45;&gt;Node83 -->
<g id="edge18" class="edge"><title>Node89&#45;&gt;Node83</title>
<path fill="none" stroke="midnightblue" d="M446.688,-82.5924C476.025,-89.8787 511.679,-98.7341 532.791,-103.978"/>
<polygon fill="midnightblue" stroke="midnightblue" points="447.157,-79.1027 436.608,-80.089 445.47,-85.8963 447.157,-79.1027"/>
</g>
<!-- Node90 -->
<g id="node18" class="node"><title>Node90</title>
<g id="a_node18"><a xlink:href="class_rigid_track.html#ad3e07592fbc1491cdc36dd5e817e1775" target="_top" xlink:title="RigidTrack::on_pbLoadMarker\l_clicked">
<polygon fill="white" stroke="black" points="479,-49.5 479,-79.5 625,-79.5 625,-49.5 479,-49.5"/>
<text text-anchor="start" x="487" y="-67.5" font-family="Helvetica,sans-Serif" font-size="10.00">RigidTrack::on_pbLoadMarker</text>
<text text-anchor="middle" x="552" y="-56.5" font-family="Helvetica,sans-Serif" font-size="10.00">_clicked</text>
</a>
</g>
</g>
<!-- Node89&#45;&gt;Node90 -->
<g id="edge19" class="edge"><title>Node89&#45;&gt;Node90</title>
<path fill="none" stroke="midnightblue" d="M453.108,-68.3389C461.508,-68.0095 470.283,-67.6654 478.98,-67.3243"/>
<polygon fill="midnightblue" stroke="midnightblue" points="452.933,-64.843 443.078,-68.7323 453.207,-71.8376 452.933,-64.843"/>
</g>
<!-- Node92 -->
<g id="node20" class="node"><title>Node92</title>
<g id="a_node20"><a xlink:href="class_rigid_track.html#a9a939d6db3d268e75a603cb3d492a91b" target="_top" xlink:title="RigidTrack::on_btnCalibrate\lGround_clicked">
<polygon fill="white" stroke="black" points="484,-0.5 484,-30.5 620,-30.5 620,-0.5 484,-0.5"/>
<text text-anchor="start" x="492" y="-18.5" font-family="Helvetica,sans-Serif" font-size="10.00">RigidTrack::on_btnCalibrate</text>
<text text-anchor="middle" x="552" y="-7.5" font-family="Helvetica,sans-Serif" font-size="10.00">Ground_clicked</text>
</a>
</g>
</g>
<!-- Node91&#45;&gt;Node92 -->
<g id="edge21" class="edge"><title>Node91&#45;&gt;Node92</title>
<path fill="none" stroke="midnightblue" d="M450.002,-21.4411C460.907,-20.7996 472.554,-20.1145 483.92,-19.4459"/>
<polygon fill="midnightblue" stroke="midnightblue" points="449.585,-17.9594 439.808,-22.0407 449.996,-24.9474 449.585,-17.9594"/>
</g>
</g>
</svg>
