<?xml version="1.0" encoding="UTF-8" standalone="no"?>
<!DOCTYPE svg PUBLIC "-//W3C//DTD SVG 1.1//EN"
 "http://www.w3.org/Graphics/SVG/1.1/DTD/svg11.dtd">
<!-- Generated by graphviz version 2.38.0 (20140413.2041)
 -->
<!-- Title: commObject::progressUpdate Pages: 1 -->
<svg width="449pt" height="140pt"
 viewBox="0.00 0.00 449.00 140.00" xmlns="http://www.w3.org/2000/svg" xmlns:xlink="http://www.w3.org/1999/xlink">
<g id="graph0" class="graph" transform="scale(1 1) rotate(0) translate(4 136)">
<title>commObject::progressUpdate</title>
<polygon fill="white" stroke="none" points="-4,4 -4,-136 445,-136 445,4 -4,4"/>
<!-- Node143 -->
<g id="node1" class="node"><title>Node143</title>
<polygon fill="#bfbfbf" stroke="black" points="0,-51 0,-70 146,-70 146,-51 0,-51"/>
<text text-anchor="middle" x="73" y="-58" font-family="Helvetica,sans-Serif" font-size="10.00">commObject::progressUpdate</text>
</g>
<!-- Node144 -->
<g id="node2" class="node"><title>Node144</title>
<g id="a_node2"><a xlink:href="main_8h.html#a1e6662e0f16887fe97c7bebe05065972" target="_top" xlink:title="setReference">
<polygon fill="white" stroke="black" points="188.5,-107 188.5,-126 262.5,-126 262.5,-107 188.5,-107"/>
<text text-anchor="middle" x="225.5" y="-114" font-family="Helvetica,sans-Serif" font-size="10.00">setReference</text>
</a>
</g>
</g>
<!-- Node143&#45;&gt;Node144 -->
<g id="edge1" class="edge"><title>Node143&#45;&gt;Node144</title>
<path fill="none" stroke="midnightblue" d="M109.505,-73.7112C136.985,-83.9361 174.381,-97.8512 198.966,-106.999"/>
<polygon fill="midnightblue" stroke="midnightblue" points="110.465,-70.3339 99.8719,-70.1267 108.024,-76.8944 110.465,-70.3339"/>
</g>
<!-- Node146 -->
<g id="node4" class="node"><title>Node146</title>
<g id="a_node4"><a xlink:href="main_8h.html#a5f7c5996cd5a271d0277e0741f73a5b4" target="_top" xlink:title="Start the camera calibration routine that computes the camera matrix and distortion coefficients...">
<polygon fill="white" stroke="black" points="182,-51 182,-70 269,-70 269,-51 182,-51"/>
<text text-anchor="middle" x="225.5" y="-58" font-family="Helvetica,sans-Serif" font-size="10.00">calibrateCamera</text>
</a>
</g>
</g>
<!-- Node143&#45;&gt;Node146 -->
<g id="edge3" class="edge"><title>Node143&#45;&gt;Node146</title>
<path fill="none" stroke="midnightblue" d="M156.187,-60.5C165.04,-60.5 173.763,-60.5 181.862,-60.5"/>
<polygon fill="midnightblue" stroke="midnightblue" points="156.164,-57.0001 146.164,-60.5 156.164,-64.0001 156.164,-57.0001"/>
</g>
<!-- Node148 -->
<g id="node6" class="node"><title>Node148</title>
<g id="a_node6"><a xlink:href="main_8h.html#a7ad2e3cfb5056dbab2098e0dd3bd353f" target="_top" xlink:title="calibrateGround">
<polygon fill="white" stroke="black" points="183,-11 183,-30 268,-30 268,-11 183,-11"/>
<text text-anchor="middle" x="225.5" y="-18" font-family="Helvetica,sans-Serif" font-size="10.00">calibrateGround</text>
</a>
</g>
</g>
<!-- Node143&#45;&gt;Node148 -->
<g id="edge6" class="edge"><title>Node143&#45;&gt;Node148</title>
<path fill="none" stroke="midnightblue" d="M119.893,-48.3025C142.008,-42.4248 168.135,-35.4807 188.746,-30.0028"/>
<polygon fill="midnightblue" stroke="midnightblue" points="118.814,-44.9677 110.048,-50.919 120.612,-51.7329 118.814,-44.9677"/>
</g>
<!-- Node145 -->
<g id="node3" class="node"><title>Node145</title>
<g id="a_node3"><a xlink:href="class_rigid_track.html#afb1a4edcacc818db4ec6bb017dd07e0f" target="_top" xlink:title="RigidTrack::on_btnZero\l_clicked">
<polygon fill="white" stroke="black" points="315,-101.5 315,-131.5 431,-131.5 431,-101.5 315,-101.5"/>
<text text-anchor="start" x="323" y="-119.5" font-family="Helvetica,sans-Serif" font-size="10.00">RigidTrack::on_btnZero</text>
<text text-anchor="middle" x="373" y="-108.5" font-family="Helvetica,sans-Serif" font-size="10.00">_clicked</text>
</a>
</g>
</g>
<!-- Node144&#45;&gt;Node145 -->
<g id="edge2" class="edge"><title>Node144&#45;&gt;Node145</title>
<path fill="none" stroke="midnightblue" d="M273.169,-116.5C286.457,-116.5 301.082,-116.5 314.915,-116.5"/>
<polygon fill="midnightblue" stroke="midnightblue" points="272.841,-113 262.84,-116.5 272.84,-120 272.841,-113"/>
</g>
<!-- Node146&#45;&gt;Node146 -->
<g id="edge4" class="edge"><title>Node146&#45;&gt;Node146</title>
<path fill="none" stroke="midnightblue" d="M198.247,-79.1539C199.387,-84.4368 208.471,-88.5 225.5,-88.5 251.449,-88.5 258.95,-79.0653 248.003,-70.2571"/>
<polygon fill="midnightblue" stroke="midnightblue" points="201.375,-80.727 202.997,-70.2571 195.2,-77.4303 201.375,-80.727"/>
</g>
<!-- Node147 -->
<g id="node5" class="node"><title>Node147</title>
<g id="a_node5"><a xlink:href="class_rigid_track.html#aed2c39da404909142074f7dd2ce75a63" target="_top" xlink:title="RigidTrack::on_btnCalibrate\l_clicked">
<polygon fill="white" stroke="black" points="305,-49.5 305,-79.5 441,-79.5 441,-49.5 305,-49.5"/>
<text text-anchor="start" x="313" y="-67.5" font-family="Helvetica,sans-Serif" font-size="10.00">RigidTrack::on_btnCalibrate</text>
<text text-anchor="middle" x="373" y="-56.5" font-family="Helvetica,sans-Serif" font-size="10.00">_clicked</text>
</a>
</g>
</g>
<!-- Node146&#45;&gt;Node147 -->
<g id="edge5" class="edge"><title>Node146&#45;&gt;Node147</title>
<path fill="none" stroke="midnightblue" d="M279.562,-61.9587C287.791,-62.185 296.383,-62.4212 304.873,-62.6546"/>
<polygon fill="midnightblue" stroke="midnightblue" points="279.46,-58.4547 269.368,-61.6785 279.268,-65.4521 279.46,-58.4547"/>
</g>
<!-- Node149 -->
<g id="node7" class="node"><title>Node149</title>
<g id="a_node7"><a xlink:href="class_rigid_track.html#a9a939d6db3d268e75a603cb3d492a91b" target="_top" xlink:title="RigidTrack::on_btnCalibrate\lGround_clicked">
<polygon fill="white" stroke="black" points="305,-0.5 305,-30.5 441,-30.5 441,-0.5 305,-0.5"/>
<text text-anchor="start" x="313" y="-18.5" font-family="Helvetica,sans-Serif" font-size="10.00">RigidTrack::on_btnCalibrate</text>
<text text-anchor="middle" x="373" y="-7.5" font-family="Helvetica,sans-Serif" font-size="10.00">Ground_clicked</text>
</a>
</g>
</g>
<!-- Node148&#45;&gt;Node149 -->
<g id="edge7" class="edge"><title>Node148&#45;&gt;Node149</title>
<path fill="none" stroke="midnightblue" d="M278.378,-18.7173C286.926,-18.4235 295.895,-18.1153 304.754,-17.8109"/>
<polygon fill="midnightblue" stroke="midnightblue" points="278.068,-15.2257 268.194,-19.0672 278.309,-22.2216 278.068,-15.2257"/>
</g>
</g>
</svg>
