<?xml version="1.0" encoding="UTF-8" standalone="no"?>
<!DOCTYPE svg PUBLIC "-//W3C//DTD SVG 1.1//EN"
 "http://www.w3.org/Graphics/SVG/1.1/DTD/svg11.dtd">
<!-- Generated by graphviz version 2.38.0 (20140413.2041)
 -->
<!-- Title: commObject::progressUpdated Pages: 1 -->
<svg width="637pt" height="140pt"
 viewBox="0.00 0.00 637.00 140.00" xmlns="http://www.w3.org/2000/svg" xmlns:xlink="http://www.w3.org/1999/xlink">
<g id="graph0" class="graph" transform="scale(1 1) rotate(0) translate(4 136)">
<title>commObject::progressUpdated</title>
<polygon fill="white" stroke="none" points="-4,4 -4,-136 633,-136 633,4 -4,4"/>
<!-- Node151 -->
<g id="node1" class="node"><title>Node151</title>
<polygon fill="#bfbfbf" stroke="black" points="0,-51 0,-70 152,-70 152,-51 0,-51"/>
<text text-anchor="middle" x="76" y="-58" font-family="Helvetica,sans-Serif" font-size="10.00">commObject::progressUpdated</text>
</g>
<!-- Node152 -->
<g id="node2" class="node"><title>Node152</title>
<g id="a_node2"><a xlink:href="classcomm_object.html#acfc97f4310e2b7d841ecb8cf8be0088e" target="_top" xlink:title="commObject::progressUpdate">
<polygon fill="white" stroke="black" points="188,-51 188,-70 334,-70 334,-51 188,-51"/>
<text text-anchor="middle" x="261" y="-58" font-family="Helvetica,sans-Serif" font-size="10.00">commObject::progressUpdate</text>
</a>
</g>
</g>
<!-- Node151&#45;&gt;Node152 -->
<g id="edge1" class="edge"><title>Node151&#45;&gt;Node152</title>
<path fill="none" stroke="midnightblue" d="M162.472,-60.5C170.915,-60.5 179.428,-60.5 187.72,-60.5"/>
<polygon fill="midnightblue" stroke="midnightblue" points="162.225,-57.0001 152.225,-60.5 162.225,-64.0001 162.225,-57.0001"/>
</g>
<!-- Node153 -->
<g id="node3" class="node"><title>Node153</title>
<g id="a_node3"><a xlink:href="main_8h.html#a1e6662e0f16887fe97c7bebe05065972" target="_top" xlink:title="setReference">
<polygon fill="white" stroke="black" points="376.5,-107 376.5,-126 450.5,-126 450.5,-107 376.5,-107"/>
<text text-anchor="middle" x="413.5" y="-114" font-family="Helvetica,sans-Serif" font-size="10.00">setReference</text>
</a>
</g>
</g>
<!-- Node152&#45;&gt;Node153 -->
<g id="edge2" class="edge"><title>Node152&#45;&gt;Node153</title>
<path fill="none" stroke="midnightblue" d="M297.505,-73.7112C324.985,-83.9361 362.381,-97.8512 386.966,-106.999"/>
<polygon fill="midnightblue" stroke="midnightblue" points="298.465,-70.3339 287.872,-70.1267 296.024,-76.8944 298.465,-70.3339"/>
</g>
<!-- Node155 -->
<g id="node5" class="node"><title>Node155</title>
<g id="a_node5"><a xlink:href="main_8h.html#a5f7c5996cd5a271d0277e0741f73a5b4" target="_top" xlink:title="Start the camera calibration routine that computes the camera matrix and distortion coefficients...">
<polygon fill="white" stroke="black" points="370,-51 370,-70 457,-70 457,-51 370,-51"/>
<text text-anchor="middle" x="413.5" y="-58" font-family="Helvetica,sans-Serif" font-size="10.00">calibrateCamera</text>
</a>
</g>
</g>
<!-- Node152&#45;&gt;Node155 -->
<g id="edge4" class="edge"><title>Node152&#45;&gt;Node155</title>
<path fill="none" stroke="midnightblue" d="M344.187,-60.5C353.04,-60.5 361.763,-60.5 369.862,-60.5"/>
<polygon fill="midnightblue" stroke="midnightblue" points="344.164,-57.0001 334.164,-60.5 344.164,-64.0001 344.164,-57.0001"/>
</g>
<!-- Node157 -->
<g id="node7" class="node"><title>Node157</title>
<g id="a_node7"><a xlink:href="main_8h.html#a7ad2e3cfb5056dbab2098e0dd3bd353f" target="_top" xlink:title="calibrateGround">
<polygon fill="white" stroke="black" points="371,-11 371,-30 456,-30 456,-11 371,-11"/>
<text text-anchor="middle" x="413.5" y="-18" font-family="Helvetica,sans-Serif" font-size="10.00">calibrateGround</text>
</a>
</g>
</g>
<!-- Node152&#45;&gt;Node157 -->
<g id="edge7" class="edge"><title>Node152&#45;&gt;Node157</title>
<path fill="none" stroke="midnightblue" d="M307.893,-48.3025C330.008,-42.4248 356.135,-35.4807 376.746,-30.0028"/>
<polygon fill="midnightblue" stroke="midnightblue" points="306.814,-44.9677 298.048,-50.919 308.612,-51.7329 306.814,-44.9677"/>
</g>
<!-- Node154 -->
<g id="node4" class="node"><title>Node154</title>
<g id="a_node4"><a xlink:href="class_rigid_track.html#afb1a4edcacc818db4ec6bb017dd07e0f" target="_top" xlink:title="RigidTrack::on_btnZero\l_clicked">
<polygon fill="white" stroke="black" points="503,-101.5 503,-131.5 619,-131.5 619,-101.5 503,-101.5"/>
<text text-anchor="start" x="511" y="-119.5" font-family="Helvetica,sans-Serif" font-size="10.00">RigidTrack::on_btnZero</text>
<text text-anchor="middle" x="561" y="-108.5" font-family="Helvetica,sans-Serif" font-size="10.00">_clicked</text>
</a>
</g>
</g>
<!-- Node153&#45;&gt;Node154 -->
<g id="edge3" class="edge"><title>Node153&#45;&gt;Node154</title>
<path fill="none" stroke="midnightblue" d="M461.169,-116.5C474.457,-116.5 489.082,-116.5 502.915,-116.5"/>
<polygon fill="midnightblue" stroke="midnightblue" points="460.841,-113 450.84,-116.5 460.84,-120 460.841,-113"/>
</g>
<!-- Node155&#45;&gt;Node155 -->
<g id="edge5" class="edge"><title>Node155&#45;&gt;Node155</title>
<path fill="none" stroke="midnightblue" d="M386.247,-79.1539C387.387,-84.4368 396.471,-88.5 413.5,-88.5 439.449,-88.5 446.95,-79.0653 436.003,-70.2571"/>
<polygon fill="midnightblue" stroke="midnightblue" points="389.375,-80.727 390.997,-70.2571 383.2,-77.4303 389.375,-80.727"/>
</g>
<!-- Node156 -->
<g id="node6" class="node"><title>Node156</title>
<g id="a_node6"><a xlink:href="class_rigid_track.html#aed2c39da404909142074f7dd2ce75a63" target="_top" xlink:title="RigidTrack::on_btnCalibrate\l_clicked">
<polygon fill="white" stroke="black" points="493,-49.5 493,-79.5 629,-79.5 629,-49.5 493,-49.5"/>
<text text-anchor="start" x="501" y="-67.5" font-family="Helvetica,sans-Serif" font-size="10.00">RigidTrack::on_btnCalibrate</text>
<text text-anchor="middle" x="561" y="-56.5" font-family="Helvetica,sans-Serif" font-size="10.00">_clicked</text>
</a>
</g>
</g>
<!-- Node155&#45;&gt;Node156 -->
<g id="edge6" class="edge"><title>Node155&#45;&gt;Node156</title>
<path fill="none" stroke="midnightblue" d="M467.562,-61.9587C475.791,-62.185 484.383,-62.4212 492.873,-62.6546"/>
<polygon fill="midnightblue" stroke="midnightblue" points="467.46,-58.4547 457.368,-61.6785 467.268,-65.4521 467.46,-58.4547"/>
</g>
<!-- Node158 -->
<g id="node8" class="node"><title>Node158</title>
<g id="a_node8"><a xlink:href="class_rigid_track.html#a9a939d6db3d268e75a603cb3d492a91b" target="_top" xlink:title="RigidTrack::on_btnCalibrate\lGround_clicked">
<polygon fill="white" stroke="black" points="493,-0.5 493,-30.5 629,-30.5 629,-0.5 493,-0.5"/>
<text text-anchor="start" x="501" y="-18.5" font-family="Helvetica,sans-Serif" font-size="10.00">RigidTrack::on_btnCalibrate</text>
<text text-anchor="middle" x="561" y="-7.5" font-family="Helvetica,sans-Serif" font-size="10.00">Ground_clicked</text>
</a>
</g>
</g>
<!-- Node157&#45;&gt;Node158 -->
<g id="edge8" class="edge"><title>Node157&#45;&gt;Node158</title>
<path fill="none" stroke="midnightblue" d="M466.378,-18.7173C474.926,-18.4235 483.895,-18.1153 492.754,-17.8109"/>
<polygon fill="midnightblue" stroke="midnightblue" points="466.068,-15.2257 456.194,-19.0672 466.309,-22.2216 466.068,-15.2257"/>
</g>
</g>
</svg>
