<?xml version="1.0" encoding="UTF-8" standalone="no"?>
<!DOCTYPE svg PUBLIC "-//W3C//DTD SVG 1.1//EN"
 "http://www.w3.org/Graphics/SVG/1.1/DTD/svg11.dtd">
<!-- Generated by graphviz version 2.38.0 (20140413.2041)
 -->
<!-- Title: Surface::SurfaceHeight Pages: 1 -->
<svg width="638pt" height="242pt"
 viewBox="0.00 0.00 638.00 242.47" xmlns="http://www.w3.org/2000/svg" xmlns:xlink="http://www.w3.org/1999/xlink">
<g id="graph0" class="graph" transform="scale(1 1) rotate(0) translate(4 238.475)">
<title>Surface::SurfaceHeight</title>
<polygon fill="white" stroke="none" points="-4,4 -4,-238.475 634,-238.475 634,4 -4,4"/>
<!-- Node66 -->
<g id="node1" class="node"><title>Node66</title>
<polygon fill="#bfbfbf" stroke="black" points="0,-133.5 0,-152.5 116,-152.5 116,-133.5 0,-133.5"/>
<text text-anchor="middle" x="58" y="-140.5" font-family="Helvetica,sans-Serif" font-size="10.00">Surface::SurfaceHeight</text>
</g>
<!-- Node67 -->
<g id="node2" class="node"><title>Node67</title>
<g id="a_node2"><a xlink:href="class_surface.html#a728571d0386e9690ce1760931562c72b" target="_top" xlink:title="Surface::PutPixel">
<polygon fill="white" stroke="black" points="152,-133.5 152,-152.5 244,-152.5 244,-133.5 152,-133.5"/>
<text text-anchor="middle" x="198" y="-140.5" font-family="Helvetica,sans-Serif" font-size="10.00">Surface::PutPixel</text>
</a>
</g>
</g>
<!-- Node66&#45;&gt;Node67 -->
<g id="edge1" class="edge"><title>Node66&#45;&gt;Node67</title>
<path fill="none" stroke="midnightblue" d="M116.326,-143C124.749,-143 133.412,-143 141.791,-143"/>
<polygon fill="midnightblue" stroke="midnightblue" points="141.838,-146.5 151.838,-143 141.837,-139.5 141.838,-146.5"/>
</g>
<!-- Node68 -->
<g id="node3" class="node"><title>Node68</title>
<g id="a_node3"><a xlink:href="supportcode_8cpp.html#a0ddf1224851353fc92bfbff6f499fa97" target="_top" xlink:title="main initialises the GUI and values for the marker position etc ">
<polygon fill="white" stroke="black" points="280,-133.5 280,-152.5 318,-152.5 318,-133.5 280,-133.5"/>
<text text-anchor="middle" x="299" y="-140.5" font-family="Helvetica,sans-Serif" font-size="10.00">main</text>
</a>
</g>
</g>
<!-- Node67&#45;&gt;Node68 -->
<g id="edge2" class="edge"><title>Node67&#45;&gt;Node68</title>
<path fill="none" stroke="midnightblue" d="M244.154,-143C252.849,-143 261.724,-143 269.696,-143"/>
<polygon fill="midnightblue" stroke="midnightblue" points="269.903,-146.5 279.903,-143 269.903,-139.5 269.903,-146.5"/>
</g>
<!-- Node69 -->
<g id="node4" class="node"><title>Node69</title>
<g id="a_node4"><a xlink:href="classcomm_object.html#aec354c7099b3039083cc4224e071e022" target="_top" xlink:title="commObject::addLog">
<polygon fill="white" stroke="black" points="507,-190.5 507,-209.5 617,-209.5 617,-190.5 507,-190.5"/>
<text text-anchor="middle" x="562" y="-197.5" font-family="Helvetica,sans-Serif" font-size="10.00">commObject::addLog</text>
</a>
</g>
</g>
<!-- Node68&#45;&gt;Node69 -->
<g id="edge3" class="edge"><title>Node68&#45;&gt;Node69</title>
<path fill="none" stroke="midnightblue" d="M303.468,-152.737C310.164,-169.862 326.673,-204.894 354,-219 410.259,-248.041 486.623,-228.356 529.116,-213.089"/>
<polygon fill="midnightblue" stroke="midnightblue" points="530.509,-216.305 538.655,-209.53 528.062,-209.747 530.509,-216.305"/>
</g>
<!-- Node70 -->
<g id="node5" class="node"><title>Node70</title>
<g id="a_node5"><a xlink:href="main_8cpp.html#ad19da4e648bbdc80d3123eb94711588e" target="_top" xlink:title="setHeadingOffset">
<polygon fill="white" stroke="black" points="360.5,-38.5 360.5,-57.5 451.5,-57.5 451.5,-38.5 360.5,-38.5"/>
<text text-anchor="middle" x="406" y="-45.5" font-family="Helvetica,sans-Serif" font-size="10.00">setHeadingOffset</text>
</a>
</g>
</g>
<!-- Node68&#45;&gt;Node70 -->
<g id="edge4" class="edge"><title>Node68&#45;&gt;Node70</title>
<path fill="none" stroke="midnightblue" d="M304.422,-133.43C312.245,-117.489 329.993,-85.4338 354,-67 356.319,-65.2197 358.821,-63.5922 361.43,-62.1066"/>
<polygon fill="midnightblue" stroke="midnightblue" points="363.175,-65.1488 370.595,-57.5863 360.079,-58.8709 363.175,-65.1488"/>
</g>
<!-- Node71 -->
<g id="node6" class="node"><title>Node71</title>
<g id="a_node6"><a xlink:href="main_8cpp.html#af39fa6c3a36ad6bc24a327db7a9d73c2" target="_top" xlink:title="loadCameraPosition">
<polygon fill="white" stroke="black" points="354,-190.5 354,-209.5 458,-209.5 458,-190.5 354,-190.5"/>
<text text-anchor="middle" x="406" y="-197.5" font-family="Helvetica,sans-Serif" font-size="10.00">loadCameraPosition</text>
</a>
</g>
</g>
<!-- Node68&#45;&gt;Node71 -->
<g id="edge5" class="edge"><title>Node68&#45;&gt;Node71</title>
<path fill="none" stroke="midnightblue" d="M311.863,-152.697C322.438,-161.004 338.584,-172.878 354,-181 357.762,-182.982 361.777,-184.854 365.84,-186.594"/>
<polygon fill="midnightblue" stroke="midnightblue" points="364.727,-189.919 375.311,-190.403 367.339,-183.425 364.727,-189.919"/>
</g>
<!-- Node72 -->
<g id="node7" class="node"><title>Node72</title>
<g id="a_node7"><a xlink:href="main_8cpp.html#ad39626702ff983d5fdab4b703bfaf964" target="_top" xlink:title="loadCalibration">
<polygon fill="white" stroke="black" points="366,-152.5 366,-171.5 446,-171.5 446,-152.5 366,-152.5"/>
<text text-anchor="middle" x="406" y="-159.5" font-family="Helvetica,sans-Serif" font-size="10.00">loadCalibration</text>
</a>
</g>
</g>
<!-- Node68&#45;&gt;Node72 -->
<g id="edge7" class="edge"><title>Node68&#45;&gt;Node72</title>
<path fill="none" stroke="midnightblue" d="M318.29,-146.31C328.684,-148.19 342.247,-150.645 355.549,-153.052"/>
<polygon fill="midnightblue" stroke="midnightblue" points="355.149,-156.536 365.612,-154.873 356.396,-149.648 355.149,-156.536"/>
</g>
<!-- Node73 -->
<g id="node8" class="node"><title>Node73</title>
<g id="a_node8"><a xlink:href="main_8cpp.html#a56c7f641859cb2b6b99b0947d03be800" target="_top" xlink:title="loadMarkerConfig">
<polygon fill="white" stroke="black" points="360,-114.5 360,-133.5 452,-133.5 452,-114.5 360,-114.5"/>
<text text-anchor="middle" x="406" y="-121.5" font-family="Helvetica,sans-Serif" font-size="10.00">loadMarkerConfig</text>
</a>
</g>
</g>
<!-- Node68&#45;&gt;Node73 -->
<g id="edge9" class="edge"><title>Node68&#45;&gt;Node73</title>
<path fill="none" stroke="midnightblue" d="M318.29,-139.69C327.197,-138.079 338.431,-136.046 349.833,-133.983"/>
<polygon fill="midnightblue" stroke="midnightblue" points="350.625,-137.396 359.842,-132.171 349.379,-130.508 350.625,-137.396"/>
</g>
<!-- Node78 -->
<g id="node13" class="node"><title>Node78</title>
<g id="a_node13"><a xlink:href="main_8cpp.html#a847c0fbd3e513fb76ff145b31a9f5c37" target="_top" xlink:title="testAlgorithms">
<polygon fill="white" stroke="black" points="366,-76.5 366,-95.5 446,-95.5 446,-76.5 366,-76.5"/>
<text text-anchor="middle" x="406" y="-83.5" font-family="Helvetica,sans-Serif" font-size="10.00">testAlgorithms</text>
</a>
</g>
</g>
<!-- Node68&#45;&gt;Node78 -->
<g id="edge15" class="edge"><title>Node68&#45;&gt;Node78</title>
<path fill="none" stroke="midnightblue" d="M311.863,-133.303C322.438,-124.996 338.584,-113.122 354,-105 357.762,-103.018 361.777,-101.146 365.84,-99.4059"/>
<polygon fill="midnightblue" stroke="midnightblue" points="367.339,-102.575 375.311,-95.5971 364.727,-96.0809 367.339,-102.575"/>
</g>
<!-- Node71&#45;&gt;Node69 -->
<g id="edge6" class="edge"><title>Node71&#45;&gt;Node69</title>
<path fill="none" stroke="midnightblue" d="M458.28,-200C470.569,-200 483.846,-200 496.644,-200"/>
<polygon fill="midnightblue" stroke="midnightblue" points="496.776,-203.5 506.776,-200 496.776,-196.5 496.776,-203.5"/>
</g>
<!-- Node72&#45;&gt;Node69 -->
<g id="edge8" class="edge"><title>Node72&#45;&gt;Node69</title>
<path fill="none" stroke="midnightblue" d="M445.861,-171.589C466.091,-176.581 491.021,-182.732 512.504,-188.033"/>
<polygon fill="midnightblue" stroke="midnightblue" points="511.871,-191.482 522.419,-190.48 513.548,-184.686 511.871,-191.482"/>
</g>
<!-- Node73&#45;&gt;Node69 -->
<g id="edge10" class="edge"><title>Node73&#45;&gt;Node69</title>
<path fill="none" stroke="midnightblue" d="M439.374,-133.519C445.81,-136.101 452.326,-139.246 458,-143 477.402,-155.837 474.098,-168.952 494,-181 497.607,-183.184 501.475,-185.125 505.465,-186.85"/>
<polygon fill="midnightblue" stroke="midnightblue" points="504.344,-190.168 514.934,-190.492 506.857,-183.635 504.344,-190.168"/>
</g>
<!-- Node74 -->
<g id="node9" class="node"><title>Node74</title>
<g id="a_node9"><a xlink:href="classcomm_object.html#a7552116eb5e18c49c6dcf943de29af7a" target="_top" xlink:title="commObject::enableP3P">
<polygon fill="white" stroke="black" points="499.5,-152.5 499.5,-171.5 624.5,-171.5 624.5,-152.5 499.5,-152.5"/>
<text text-anchor="middle" x="562" y="-159.5" font-family="Helvetica,sans-Serif" font-size="10.00">commObject::enableP3P</text>
</a>
</g>
</g>
<!-- Node73&#45;&gt;Node74 -->
<g id="edge11" class="edge"><title>Node73&#45;&gt;Node74</title>
<path fill="none" stroke="midnightblue" d="M445.861,-133.589C466.091,-138.581 491.021,-144.732 512.504,-150.033"/>
<polygon fill="midnightblue" stroke="midnightblue" points="511.871,-153.482 522.419,-152.48 513.548,-146.686 511.871,-153.482"/>
</g>
<!-- Node75 -->
<g id="node10" class="node"><title>Node75</title>
<g id="a_node10"><a xlink:href="main_8cpp.html#a2104a5d9d6b9f1e29bc4cd858c59882e" target="_top" xlink:title="projectCoordinateFrame">
<polygon fill="white" stroke="black" points="502,-114.5 502,-133.5 622,-133.5 622,-114.5 502,-114.5"/>
<text text-anchor="middle" x="562" y="-121.5" font-family="Helvetica,sans-Serif" font-size="10.00">projectCoordinateFrame</text>
</a>
</g>
</g>
<!-- Node73&#45;&gt;Node75 -->
<g id="edge12" class="edge"><title>Node73&#45;&gt;Node75</title>
<path fill="none" stroke="midnightblue" d="M452.372,-124C464.745,-124 478.436,-124 491.81,-124"/>
<polygon fill="midnightblue" stroke="midnightblue" points="491.948,-127.5 501.948,-124 491.948,-120.5 491.948,-127.5"/>
</g>
<!-- Node76 -->
<g id="node11" class="node"><title>Node76</title>
<g id="a_node11"><a xlink:href="main_8cpp.html#a3e3cc959a7ab6f93ea52863d86373ce5" target="_top" xlink:title="Mat2QPixmap">
<polygon fill="white" stroke="black" points="522.5,-76.5 522.5,-95.5 601.5,-95.5 601.5,-76.5 522.5,-76.5"/>
<text text-anchor="middle" x="562" y="-83.5" font-family="Helvetica,sans-Serif" font-size="10.00">Mat2QPixmap</text>
</a>
</g>
</g>
<!-- Node73&#45;&gt;Node76 -->
<g id="edge13" class="edge"><title>Node73&#45;&gt;Node76</title>
<path fill="none" stroke="midnightblue" d="M445.861,-114.411C466.091,-109.419 491.021,-103.268 512.504,-97.9666"/>
<polygon fill="midnightblue" stroke="midnightblue" points="513.548,-101.314 522.419,-95.5201 511.871,-94.5177 513.548,-101.314"/>
</g>
<!-- Node77 -->
<g id="node12" class="node"><title>Node77</title>
<g id="a_node12"><a xlink:href="classcomm_object.html#a6f81522c2aa1668fa402f08710e6206b" target="_top" xlink:title="commObject::changeImage">
<polygon fill="white" stroke="black" points="494,-38.5 494,-57.5 630,-57.5 630,-38.5 494,-38.5"/>
<text text-anchor="middle" x="562" y="-45.5" font-family="Helvetica,sans-Serif" font-size="10.00">commObject::changeImage</text>
</a>
</g>
</g>
<!-- Node73&#45;&gt;Node77 -->
<g id="edge14" class="edge"><title>Node73&#45;&gt;Node77</title>
<path fill="none" stroke="midnightblue" d="M439.374,-114.481C445.81,-111.899 452.326,-108.754 458,-105 477.402,-92.1627 474.098,-79.0482 494,-67 497.607,-64.8163 501.475,-62.875 505.465,-61.1505"/>
<polygon fill="midnightblue" stroke="midnightblue" points="506.857,-64.3651 514.934,-57.5082 504.344,-57.8318 506.857,-64.3651"/>
</g>
<!-- Node78&#45;&gt;Node69 -->
<g id="edge16" class="edge"><title>Node78&#45;&gt;Node69</title>
<path fill="none" stroke="midnightblue" d="M443.563,-95.6173C448.803,-98.0867 453.823,-101.167 458,-105 485.537,-130.271 465.471,-156.854 494,-181 496.019,-182.709 498.182,-184.264 500.45,-185.68"/>
<polygon fill="midnightblue" stroke="midnightblue" points="499.149,-188.949 509.633,-190.478 502.391,-182.745 499.149,-188.949"/>
</g>
<!-- Node78&#45;&gt;Node75 -->
<g id="edge17" class="edge"><title>Node78&#45;&gt;Node75</title>
<path fill="none" stroke="midnightblue" d="M445.861,-95.589C466.091,-100.581 491.021,-106.732 512.504,-112.033"/>
<polygon fill="midnightblue" stroke="midnightblue" points="511.871,-115.482 522.419,-114.48 513.548,-108.686 511.871,-115.482"/>
</g>
<!-- Node78&#45;&gt;Node76 -->
<g id="edge18" class="edge"><title>Node78&#45;&gt;Node76</title>
<path fill="none" stroke="midnightblue" d="M446.259,-86C466.324,-86 490.931,-86 512.205,-86"/>
<polygon fill="midnightblue" stroke="midnightblue" points="512.346,-89.5001 522.346,-86 512.346,-82.5001 512.346,-89.5001"/>
</g>
<!-- Node78&#45;&gt;Node77 -->
<g id="edge19" class="edge"><title>Node78&#45;&gt;Node77</title>
<path fill="none" stroke="midnightblue" d="M445.861,-76.411C466.091,-71.4191 491.021,-65.2676 512.504,-59.9666"/>
<polygon fill="midnightblue" stroke="midnightblue" points="513.548,-63.3139 522.419,-57.5201 511.871,-56.5177 513.548,-63.3139"/>
</g>
<!-- Node79 -->
<g id="node14" class="node"><title>Node79</title>
<g id="a_node14"><a xlink:href="main_8cpp.html#af6430ad2592a955a3618549547dfc5be" target="_top" xlink:title="drawPositionText">
<polygon fill="white" stroke="black" points="516.5,-0.5 516.5,-19.5 607.5,-19.5 607.5,-0.5 516.5,-0.5"/>
<text text-anchor="middle" x="562" y="-7.5" font-family="Helvetica,sans-Serif" font-size="10.00">drawPositionText</text>
</a>
</g>
</g>
<!-- Node78&#45;&gt;Node79 -->
<g id="edge20" class="edge"><title>Node78&#45;&gt;Node79</title>
<path fill="none" stroke="midnightblue" d="M439.374,-76.4812C445.81,-73.8992 452.326,-70.7539 458,-67 477.402,-54.1627 474.098,-41.0482 494,-29 498.053,-26.5463 502.435,-24.3985 506.951,-22.5206"/>
<polygon fill="midnightblue" stroke="midnightblue" points="508.188,-25.795 516.344,-19.0333 505.751,-19.2326 508.188,-25.795"/>
</g>
</g>
</svg>
