<?xml version="1.0" encoding="UTF-8" standalone="no"?>
<!DOCTYPE svg PUBLIC "-//W3C//DTD SVG 1.1//EN"
 "http://www.w3.org/Graphics/SVG/1.1/DTD/svg11.dtd">
<!-- Generated by graphviz version 2.38.0 (20140413.2041)
 -->
<!-- Title: commObject::P3Penabled Pages: 1 -->
<svg width="1141pt" height="97pt"
 viewBox="0.00 0.00 1141.00 96.50" xmlns="http://www.w3.org/2000/svg" xmlns:xlink="http://www.w3.org/1999/xlink">
<g id="graph0" class="graph" transform="scale(1 1) rotate(0) translate(4 92.5)">
<title>commObject::P3Penabled</title>
<polygon fill="white" stroke="none" points="-4,4 -4,-92.5 1137,-92.5 1137,4 -4,4"/>
<!-- Node132 -->
<g id="node1" class="node"><title>Node132</title>
<polygon fill="#bfbfbf" stroke="black" points="0,-28 0,-47 131,-47 131,-28 0,-28"/>
<text text-anchor="middle" x="65.5" y="-35" font-family="Helvetica,sans-Serif" font-size="10.00">commObject::P3Penabled</text>
</g>
<!-- Node133 -->
<g id="node2" class="node"><title>Node133</title>
<g id="a_node2"><a xlink:href="classcomm_object.html#a7552116eb5e18c49c6dcf943de29af7a" target="_top" xlink:title="commObject::enableP3P">
<polygon fill="white" stroke="black" points="167,-28 167,-47 292,-47 292,-28 167,-28"/>
<text text-anchor="middle" x="229.5" y="-35" font-family="Helvetica,sans-Serif" font-size="10.00">commObject::enableP3P</text>
</a>
</g>
</g>
<!-- Node132&#45;&gt;Node133 -->
<g id="edge1" class="edge"><title>Node132&#45;&gt;Node133</title>
<path fill="none" stroke="midnightblue" d="M141.703,-37.5C150.156,-37.5 158.694,-37.5 166.946,-37.5"/>
<polygon fill="midnightblue" stroke="midnightblue" points="141.458,-34.0001 131.458,-37.5 141.458,-41.0001 141.458,-34.0001"/>
</g>
<!-- Node134 -->
<g id="node3" class="node"><title>Node134</title>
<g id="a_node3"><a xlink:href="main_8h.html#a56c7f641859cb2b6b99b0947d03be800" target="_top" xlink:title="loadMarkerConfig">
<polygon fill="white" stroke="black" points="328,-28 328,-47 420,-47 420,-28 328,-28"/>
<text text-anchor="middle" x="374" y="-35" font-family="Helvetica,sans-Serif" font-size="10.00">loadMarkerConfig</text>
</a>
</g>
</g>
<!-- Node133&#45;&gt;Node134 -->
<g id="edge2" class="edge"><title>Node133&#45;&gt;Node134</title>
<path fill="none" stroke="midnightblue" d="M302.385,-37.5C311.105,-37.5 319.813,-37.5 327.985,-37.5"/>
<polygon fill="midnightblue" stroke="midnightblue" points="302.174,-34.0001 292.174,-37.5 302.174,-41.0001 302.174,-34.0001"/>
</g>
<!-- Node135 -->
<g id="node4" class="node"><title>Node135</title>
<g id="a_node4"><a xlink:href="supportcode_8cpp.html#a0ddf1224851353fc92bfbff6f499fa97" target="_top" xlink:title="main initialises the GUI and values for the marker position etc ">
<polygon fill="white" stroke="black" points="510,-50 510,-69 548,-69 548,-50 510,-50"/>
<text text-anchor="middle" x="529" y="-57" font-family="Helvetica,sans-Serif" font-size="10.00">main</text>
</a>
</g>
</g>
<!-- Node134&#45;&gt;Node135 -->
<g id="edge3" class="edge"><title>Node134&#45;&gt;Node135</title>
<path fill="none" stroke="midnightblue" d="M430.16,-45.4315C458.118,-49.4516 490.21,-54.0661 509.791,-56.8818"/>
<polygon fill="midnightblue" stroke="midnightblue" points="430.474,-41.9407 420.078,-43.9817 429.478,-48.8695 430.474,-41.9407"/>
</g>
<!-- Node141 -->
<g id="node10" class="node"><title>Node141</title>
<g id="a_node10"><a xlink:href="class_rigid_track.html#ad3e07592fbc1491cdc36dd5e817e1775" target="_top" xlink:title="RigidTrack::on_pbLoadMarker\l_clicked">
<polygon fill="white" stroke="black" points="456,-0.5 456,-30.5 602,-30.5 602,-0.5 456,-0.5"/>
<text text-anchor="start" x="464" y="-18.5" font-family="Helvetica,sans-Serif" font-size="10.00">RigidTrack::on_pbLoadMarker</text>
<text text-anchor="middle" x="529" y="-7.5" font-family="Helvetica,sans-Serif" font-size="10.00">_clicked</text>
</a>
</g>
</g>
<!-- Node134&#45;&gt;Node141 -->
<g id="edge9" class="edge"><title>Node134&#45;&gt;Node141</title>
<path fill="none" stroke="midnightblue" d="M430.108,-29.576C438.508,-28.3681 447.283,-27.1064 455.98,-25.8558"/>
<polygon fill="midnightblue" stroke="midnightblue" points="429.478,-26.1305 420.078,-31.0183 430.474,-33.0593 429.478,-26.1305"/>
</g>
<!-- Node136 -->
<g id="node5" class="node"><title>Node136</title>
<g id="a_node5"><a xlink:href="class_surface.html#a728571d0386e9690ce1760931562c72b" target="_top" xlink:title="Surface::PutPixel">
<polygon fill="white" stroke="black" points="638,-69 638,-88 730,-88 730,-69 638,-69"/>
<text text-anchor="middle" x="684" y="-76" font-family="Helvetica,sans-Serif" font-size="10.00">Surface::PutPixel</text>
</a>
</g>
</g>
<!-- Node135&#45;&gt;Node136 -->
<g id="edge4" class="edge"><title>Node135&#45;&gt;Node136</title>
<path fill="none" stroke="midnightblue" d="M558.271,-63.0108C580.521,-65.7738 611.963,-69.6784 637.711,-72.8759"/>
<polygon fill="midnightblue" stroke="midnightblue" points="558.507,-59.5133 548.152,-61.7542 557.644,-66.4599 558.507,-59.5133"/>
</g>
<!-- Node140 -->
<g id="node9" class="node"><title>Node140</title>
<g id="a_node9"><a xlink:href="supportcode_8cpp.html#a661c2abc03926acfaeb93b4ae7db4943" target="_top" xlink:title="/&lt; Window Show State ">
<polygon fill="white" stroke="black" points="656.5,-31 656.5,-50 711.5,-50 711.5,-31 656.5,-31"/>
<text text-anchor="middle" x="684" y="-38" font-family="Helvetica,sans-Serif" font-size="10.00">WinMain</text>
</a>
</g>
</g>
<!-- Node135&#45;&gt;Node140 -->
<g id="edge8" class="edge"><title>Node135&#45;&gt;Node140</title>
<path fill="none" stroke="midnightblue" d="M558.117,-56.0084C586.159,-52.526 628.914,-47.2165 656.408,-43.8023"/>
<polygon fill="midnightblue" stroke="midnightblue" points="557.644,-52.5401 548.152,-57.2458 558.507,-59.4867 557.644,-52.5401"/>
</g>
<!-- Node137 -->
<g id="node6" class="node"><title>Node137</title>
<g id="a_node6"><a xlink:href="class_surface.html#a377c59f6ef131d4b879cda93578a3efa" target="_top" xlink:title="Surface::SurfaceHeight">
<polygon fill="white" stroke="black" points="766,-69 766,-88 882,-88 882,-69 766,-69"/>
<text text-anchor="middle" x="824" y="-76" font-family="Helvetica,sans-Serif" font-size="10.00">Surface::SurfaceHeight</text>
</a>
</g>
</g>
<!-- Node136&#45;&gt;Node137 -->
<g id="edge5" class="edge"><title>Node136&#45;&gt;Node137</title>
<path fill="none" stroke="midnightblue" d="M740.212,-78.5C748.574,-78.5 757.218,-78.5 765.625,-78.5"/>
<polygon fill="midnightblue" stroke="midnightblue" points="740.186,-75.0001 730.186,-78.5 740.186,-82.0001 740.186,-75.0001"/>
</g>
<!-- Node138 -->
<g id="node7" class="node"><title>Node138</title>
<g id="a_node7"><a xlink:href="supportcode_8h.html#ac43c2dc16b0859b03a4f7d04a7e97d3c" target="_top" xlink:title="DrawGLScene">
<polygon fill="white" stroke="black" points="918,-69 918,-88 997,-88 997,-69 918,-69"/>
<text text-anchor="middle" x="957.5" y="-76" font-family="Helvetica,sans-Serif" font-size="10.00">DrawGLScene</text>
</a>
</g>
</g>
<!-- Node137&#45;&gt;Node138 -->
<g id="edge6" class="edge"><title>Node137&#45;&gt;Node138</title>
<path fill="none" stroke="midnightblue" d="M892.511,-78.5C901.228,-78.5 909.905,-78.5 917.926,-78.5"/>
<polygon fill="midnightblue" stroke="midnightblue" points="892.295,-75.0001 882.295,-78.5 892.295,-82.0001 892.295,-75.0001"/>
</g>
<!-- Node139 -->
<g id="node8" class="node"><title>Node139</title>
<g id="a_node8"><a xlink:href="class_surface.html#abe0d542404575c60911d6ad4219560f9" target="_top" xlink:title="Surface::PixelSpan">
<polygon fill="white" stroke="black" points="1033,-69 1033,-88 1133,-88 1133,-69 1033,-69"/>
<text text-anchor="middle" x="1083" y="-76" font-family="Helvetica,sans-Serif" font-size="10.00">Surface::PixelSpan</text>
</a>
</g>
</g>
<!-- Node138&#45;&gt;Node139 -->
<g id="edge7" class="edge"><title>Node138&#45;&gt;Node139</title>
<path fill="none" stroke="midnightblue" d="M1007.31,-78.5C1015.74,-78.5 1024.51,-78.5 1032.95,-78.5"/>
<polygon fill="midnightblue" stroke="midnightblue" points="1007.24,-75.0001 997.237,-78.5 1007.24,-82.0001 1007.24,-75.0001"/>
</g>
</g>
</svg>
