<?xml version="1.0" encoding="UTF-8" standalone="no"?>
<!DOCTYPE svg PUBLIC "-//W3C//DTD SVG 1.1//EN"
 "http://www.w3.org/Graphics/SVG/1.1/DTD/svg11.dtd">
<!-- Generated by graphviz version 2.38.0 (20140413.2041)
 -->
<!-- Title: commObject::changeImage Pages: 1 -->
<svg width="1045pt" height="269pt"
 viewBox="0.00 0.00 1045.00 269.00" xmlns="http://www.w3.org/2000/svg" xmlns:xlink="http://www.w3.org/1999/xlink">
<g id="graph0" class="graph" transform="scale(1 1) rotate(0) translate(4 265)">
<title>commObject::changeImage</title>
<polygon fill="white" stroke="none" points="-4,4 -4,-265 1041,-265 1041,4 -4,4"/>
<!-- Node35 -->
<g id="node1" class="node"><title>Node35</title>
<polygon fill="#bfbfbf" stroke="black" points="0,-118 0,-137 136,-137 136,-118 0,-118"/>
<text text-anchor="middle" x="68" y="-125" font-family="Helvetica,sans-Serif" font-size="10.00">commObject::changeImage</text>
</g>
<!-- Node36 -->
<g id="node2" class="node"><title>Node36</title>
<g id="a_node2"><a xlink:href="main_8h.html#a3d3afd29ce54eb7fc5cc7e74ab666586" target="_top" xlink:title="startTracking">
<polygon fill="white" stroke="black" points="181.5,-233 181.5,-252 254.5,-252 254.5,-233 181.5,-233"/>
<text text-anchor="middle" x="218" y="-240" font-family="Helvetica,sans-Serif" font-size="10.00">startTracking</text>
</a>
</g>
</g>
<!-- Node35&#45;&gt;Node36 -->
<g id="edge1" class="edge"><title>Node35&#45;&gt;Node36</title>
<path fill="none" stroke="midnightblue" d="M84.5952,-144.599C103.724,-164.854 137.835,-198.714 172,-221.5 178.455,-225.805 185.933,-229.679 192.918,-232.892"/>
<polygon fill="midnightblue" stroke="midnightblue" points="86.9572,-142 77.581,-137.066 81.8343,-146.77 86.9572,-142"/>
</g>
<!-- Node39 -->
<g id="node5" class="node"><title>Node39</title>
<g id="a_node5"><a xlink:href="main_8h.html#a1e6662e0f16887fe97c7bebe05065972" target="_top" xlink:title="setReference">
<polygon fill="white" stroke="black" points="181,-193 181,-212 255,-212 255,-193 181,-193"/>
<text text-anchor="middle" x="218" y="-200" font-family="Helvetica,sans-Serif" font-size="10.00">setReference</text>
</a>
</g>
</g>
<!-- Node35&#45;&gt;Node39 -->
<g id="edge4" class="edge"><title>Node35&#45;&gt;Node39</title>
<path fill="none" stroke="midnightblue" d="M94.2785,-142.151C114.91,-153.886 144.965,-170.482 172,-183.5 178.724,-186.738 186.142,-189.994 192.984,-192.875"/>
<polygon fill="midnightblue" stroke="midnightblue" points="95.9248,-139.06 85.5071,-137.131 92.4478,-145.136 95.9248,-139.06"/>
</g>
<!-- Node41 -->
<g id="node7" class="node"><title>Node41</title>
<g id="a_node7"><a xlink:href="main_8h.html#a5f7c5996cd5a271d0277e0741f73a5b4" target="_top" xlink:title="Start the camera calibration routine that computes the camera matrix and distortion coefficients...">
<polygon fill="white" stroke="black" points="174.5,-137 174.5,-156 261.5,-156 261.5,-137 174.5,-137"/>
<text text-anchor="middle" x="218" y="-144" font-family="Helvetica,sans-Serif" font-size="10.00">calibrateCamera</text>
</a>
</g>
</g>
<!-- Node35&#45;&gt;Node41 -->
<g id="edge6" class="edge"><title>Node35&#45;&gt;Node41</title>
<path fill="none" stroke="midnightblue" d="M146.157,-137.405C155.837,-138.648 165.445,-139.881 174.316,-141.02"/>
<polygon fill="midnightblue" stroke="midnightblue" points="146.436,-133.912 136.072,-136.111 145.544,-140.855 146.436,-133.912"/>
</g>
<!-- Node43 -->
<g id="node9" class="node"><title>Node43</title>
<g id="a_node9"><a xlink:href="main_8h.html#a847c0fbd3e513fb76ff145b31a9f5c37" target="_top" xlink:title="testAlgorithms">
<polygon fill="white" stroke="black" points="178,-99 178,-118 258,-118 258,-99 178,-99"/>
<text text-anchor="middle" x="218" y="-106" font-family="Helvetica,sans-Serif" font-size="10.00">testAlgorithms</text>
</a>
</g>
</g>
<!-- Node35&#45;&gt;Node43 -->
<g id="edge9" class="edge"><title>Node35&#45;&gt;Node43</title>
<path fill="none" stroke="midnightblue" d="M146.103,-117.602C157.029,-116.199 167.864,-114.808 177.655,-113.551"/>
<polygon fill="midnightblue" stroke="midnightblue" points="145.544,-114.145 136.072,-118.889 146.436,-121.088 145.544,-114.145"/>
</g>
<!-- Node50 -->
<g id="node16" class="node"><title>Node50</title>
<g id="a_node16"><a xlink:href="main_8h.html#a56c7f641859cb2b6b99b0947d03be800" target="_top" xlink:title="loadMarkerConfig">
<polygon fill="white" stroke="black" points="172,-61 172,-80 264,-80 264,-61 172,-61"/>
<text text-anchor="middle" x="218" y="-68" font-family="Helvetica,sans-Serif" font-size="10.00">loadMarkerConfig</text>
</a>
</g>
</g>
<!-- Node35&#45;&gt;Node50 -->
<g id="edge16" class="edge"><title>Node35&#45;&gt;Node50</title>
<path fill="none" stroke="midnightblue" d="M103.281,-114.297C130.456,-103.831 167.787,-89.4538 192.147,-80.0716"/>
<polygon fill="midnightblue" stroke="midnightblue" points="101.846,-111.099 93.7719,-117.959 104.362,-117.632 101.846,-111.099"/>
</g>
<!-- Node52 -->
<g id="node18" class="node"><title>Node52</title>
<g id="a_node18"><a xlink:href="main_8h.html#a7ad2e3cfb5056dbab2098e0dd3bd353f" target="_top" xlink:title="calibrateGround">
<polygon fill="white" stroke="black" points="175.5,-15 175.5,-34 260.5,-34 260.5,-15 175.5,-15"/>
<text text-anchor="middle" x="218" y="-22" font-family="Helvetica,sans-Serif" font-size="10.00">calibrateGround</text>
</a>
</g>
</g>
<!-- Node35&#45;&gt;Node52 -->
<g id="edge19" class="edge"><title>Node35&#45;&gt;Node52</title>
<path fill="none" stroke="midnightblue" d="M89.0612,-111.812C109.526,-96.0198 142.393,-71.2402 172,-51.5 181.097,-45.435 191.553,-39.1233 200.095,-34.1288"/>
<polygon fill="midnightblue" stroke="midnightblue" points="86.8533,-109.095 81.0953,-117.988 91.1427,-114.626 86.8533,-109.095"/>
</g>
<!-- Node37 -->
<g id="node3" class="node"><title>Node37</title>
<g id="a_node3"><a xlink:href="main_8h.html#a25183e8d0b386ef12b557efc712a0261" target="_top" xlink:title="Start or stop the tracking depending on if the camera is currently running or not. ">
<polygon fill="white" stroke="black" points="328,-236 328,-255 418,-255 418,-236 328,-236"/>
<text text-anchor="middle" x="373" y="-243" font-family="Helvetica,sans-Serif" font-size="10.00">startStopCamera</text>
</a>
</g>
</g>
<!-- Node36&#45;&gt;Node37 -->
<g id="edge2" class="edge"><title>Node36&#45;&gt;Node37</title>
<path fill="none" stroke="midnightblue" d="M264.961,-243.401C284.901,-243.792 308.153,-244.248 327.882,-244.635"/>
<polygon fill="midnightblue" stroke="midnightblue" points="264.938,-239.9 254.872,-243.203 264.801,-246.899 264.938,-239.9"/>
</g>
<!-- Node38 -->
<g id="node4" class="node"><title>Node38</title>
<g id="a_node4"><a xlink:href="class_rigid_track.html#a2f226856e28868c8bb1854fa16531f60" target="_top" xlink:title="RigidTrack::on_btnStartCamera\l_clicked">
<polygon fill="white" stroke="black" points="482,-230.5 482,-260.5 634,-260.5 634,-230.5 482,-230.5"/>
<text text-anchor="start" x="490" y="-248.5" font-family="Helvetica,sans-Serif" font-size="10.00">RigidTrack::on_btnStartCamera</text>
<text text-anchor="middle" x="558" y="-237.5" font-family="Helvetica,sans-Serif" font-size="10.00">_clicked</text>
</a>
</g>
</g>
<!-- Node37&#45;&gt;Node38 -->
<g id="edge3" class="edge"><title>Node37&#45;&gt;Node38</title>
<path fill="none" stroke="midnightblue" d="M428.424,-245.5C445.139,-245.5 463.84,-245.5 481.692,-245.5"/>
<polygon fill="midnightblue" stroke="midnightblue" points="428.299,-242 418.299,-245.5 428.299,-249 428.299,-242"/>
</g>
<!-- Node40 -->
<g id="node6" class="node"><title>Node40</title>
<g id="a_node6"><a xlink:href="class_rigid_track.html#afb1a4edcacc818db4ec6bb017dd07e0f" target="_top" xlink:title="RigidTrack::on_btnZero\l_clicked">
<polygon fill="white" stroke="black" points="315,-186.5 315,-216.5 431,-216.5 431,-186.5 315,-186.5"/>
<text text-anchor="start" x="323" y="-204.5" font-family="Helvetica,sans-Serif" font-size="10.00">RigidTrack::on_btnZero</text>
<text text-anchor="middle" x="373" y="-193.5" font-family="Helvetica,sans-Serif" font-size="10.00">_clicked</text>
</a>
</g>
</g>
<!-- Node39&#45;&gt;Node40 -->
<g id="edge5" class="edge"><title>Node39&#45;&gt;Node40</title>
<path fill="none" stroke="midnightblue" d="M265.638,-202.195C281.133,-202.094 298.567,-201.98 314.768,-201.874"/>
<polygon fill="midnightblue" stroke="midnightblue" points="265.236,-198.698 255.259,-202.263 265.282,-205.697 265.236,-198.698"/>
</g>
<!-- Node41&#45;&gt;Node41 -->
<g id="edge7" class="edge"><title>Node41&#45;&gt;Node41</title>
<path fill="none" stroke="midnightblue" d="M190.001,-165.154C191.171,-170.437 200.504,-174.5 218,-174.5 244.66,-174.5 252.367,-165.065 241.119,-156.257"/>
<polygon fill="midnightblue" stroke="midnightblue" points="193.14,-166.708 194.881,-156.257 187.003,-163.342 193.14,-166.708"/>
</g>
<!-- Node42 -->
<g id="node8" class="node"><title>Node42</title>
<g id="a_node8"><a xlink:href="class_rigid_track.html#aed2c39da404909142074f7dd2ce75a63" target="_top" xlink:title="RigidTrack::on_btnCalibrate\l_clicked">
<polygon fill="white" stroke="black" points="305,-137.5 305,-167.5 441,-167.5 441,-137.5 305,-137.5"/>
<text text-anchor="start" x="313" y="-155.5" font-family="Helvetica,sans-Serif" font-size="10.00">RigidTrack::on_btnCalibrate</text>
<text text-anchor="middle" x="373" y="-144.5" font-family="Helvetica,sans-Serif" font-size="10.00">_clicked</text>
</a>
</g>
</g>
<!-- Node41&#45;&gt;Node42 -->
<g id="edge8" class="edge"><title>Node41&#45;&gt;Node42</title>
<path fill="none" stroke="midnightblue" d="M271.66,-148.565C282.388,-148.986 293.811,-149.434 304.962,-149.871"/>
<polygon fill="midnightblue" stroke="midnightblue" points="271.749,-145.066 261.619,-148.171 271.474,-152.061 271.749,-145.066"/>
</g>
<!-- Node44 -->
<g id="node10" class="node"><title>Node44</title>
<g id="a_node10"><a xlink:href="supportcode_8cpp.html#a0ddf1224851353fc92bfbff6f499fa97" target="_top" xlink:title="main initialises the GUI and values for the marker position etc ">
<polygon fill="white" stroke="black" points="354,-99 354,-118 392,-118 392,-99 354,-99"/>
<text text-anchor="middle" x="373" y="-106" font-family="Helvetica,sans-Serif" font-size="10.00">main</text>
</a>
</g>
</g>
<!-- Node43&#45;&gt;Node44 -->
<g id="edge10" class="edge"><title>Node43&#45;&gt;Node44</title>
<path fill="none" stroke="midnightblue" d="M268.079,-108.5C297.386,-108.5 332.882,-108.5 353.888,-108.5"/>
<polygon fill="midnightblue" stroke="midnightblue" points="268.004,-105 258.004,-108.5 268.004,-112 268.004,-105"/>
</g>
<!-- Node45 -->
<g id="node11" class="node"><title>Node45</title>
<g id="a_node11"><a xlink:href="class_surface.html#a728571d0386e9690ce1760931562c72b" target="_top" xlink:title="Surface::PutPixel">
<polygon fill="white" stroke="black" points="512,-118 512,-137 604,-137 604,-118 512,-118"/>
<text text-anchor="middle" x="558" y="-125" font-family="Helvetica,sans-Serif" font-size="10.00">Surface::PutPixel</text>
</a>
</g>
</g>
<!-- Node44&#45;&gt;Node45 -->
<g id="edge11" class="edge"><title>Node44&#45;&gt;Node45</title>
<path fill="none" stroke="midnightblue" d="M402.165,-111.424C431.395,-114.459 477.552,-119.251 511.874,-122.815"/>
<polygon fill="midnightblue" stroke="midnightblue" points="402.524,-107.943 392.216,-110.391 401.801,-114.905 402.524,-107.943"/>
</g>
<!-- Node49 -->
<g id="node15" class="node"><title>Node49</title>
<g id="a_node15"><a xlink:href="supportcode_8cpp.html#a661c2abc03926acfaeb93b4ae7db4943" target="_top" xlink:title="/&lt; Window Show State ">
<polygon fill="white" stroke="black" points="530.5,-80 530.5,-99 585.5,-99 585.5,-80 530.5,-80"/>
<text text-anchor="middle" x="558" y="-87" font-family="Helvetica,sans-Serif" font-size="10.00">WinMain</text>
</a>
</g>
</g>
<!-- Node44&#45;&gt;Node49 -->
<g id="edge15" class="edge"><title>Node44&#45;&gt;Node49</title>
<path fill="none" stroke="midnightblue" d="M402.226,-105.569C437.147,-101.944 496.164,-95.8163 530.344,-92.2675"/>
<polygon fill="midnightblue" stroke="midnightblue" points="401.801,-102.095 392.216,-106.609 402.524,-109.057 401.801,-102.095"/>
</g>
<!-- Node46 -->
<g id="node12" class="node"><title>Node46</title>
<g id="a_node12"><a xlink:href="class_surface.html#a377c59f6ef131d4b879cda93578a3efa" target="_top" xlink:title="Surface::SurfaceHeight">
<polygon fill="white" stroke="black" points="670,-118 670,-137 786,-137 786,-118 670,-118"/>
<text text-anchor="middle" x="728" y="-125" font-family="Helvetica,sans-Serif" font-size="10.00">Surface::SurfaceHeight</text>
</a>
</g>
</g>
<!-- Node45&#45;&gt;Node46 -->
<g id="edge12" class="edge"><title>Node45&#45;&gt;Node46</title>
<path fill="none" stroke="midnightblue" d="M614.255,-127.5C632.071,-127.5 651.848,-127.5 669.8,-127.5"/>
<polygon fill="midnightblue" stroke="midnightblue" points="614.021,-124 604.021,-127.5 614.021,-131 614.021,-124"/>
</g>
<!-- Node47 -->
<g id="node13" class="node"><title>Node47</title>
<g id="a_node13"><a xlink:href="supportcode_8h.html#ac43c2dc16b0859b03a4f7d04a7e97d3c" target="_top" xlink:title="DrawGLScene">
<polygon fill="white" stroke="black" points="822,-118 822,-137 901,-137 901,-118 822,-118"/>
<text text-anchor="middle" x="861.5" y="-125" font-family="Helvetica,sans-Serif" font-size="10.00">DrawGLScene</text>
</a>
</g>
</g>
<!-- Node46&#45;&gt;Node47 -->
<g id="edge13" class="edge"><title>Node46&#45;&gt;Node47</title>
<path fill="none" stroke="midnightblue" d="M796.511,-127.5C805.228,-127.5 813.905,-127.5 821.926,-127.5"/>
<polygon fill="midnightblue" stroke="midnightblue" points="796.295,-124 786.295,-127.5 796.295,-131 796.295,-124"/>
</g>
<!-- Node48 -->
<g id="node14" class="node"><title>Node48</title>
<g id="a_node14"><a xlink:href="class_surface.html#abe0d542404575c60911d6ad4219560f9" target="_top" xlink:title="Surface::PixelSpan">
<polygon fill="white" stroke="black" points="937,-118 937,-137 1037,-137 1037,-118 937,-118"/>
<text text-anchor="middle" x="987" y="-125" font-family="Helvetica,sans-Serif" font-size="10.00">Surface::PixelSpan</text>
</a>
</g>
</g>
<!-- Node47&#45;&gt;Node48 -->
<g id="edge14" class="edge"><title>Node47&#45;&gt;Node48</title>
<path fill="none" stroke="midnightblue" d="M911.309,-127.5C919.74,-127.5 928.508,-127.5 936.946,-127.5"/>
<polygon fill="midnightblue" stroke="midnightblue" points="911.237,-124 901.237,-127.5 911.237,-131 911.237,-124"/>
</g>
<!-- Node50&#45;&gt;Node44 -->
<g id="edge17" class="edge"><title>Node50&#45;&gt;Node44</title>
<path fill="none" stroke="midnightblue" d="M267.688,-82.5924C297.025,-89.8787 332.679,-98.7341 353.791,-103.978"/>
<polygon fill="midnightblue" stroke="midnightblue" points="268.157,-79.1027 257.608,-80.089 266.47,-85.8963 268.157,-79.1027"/>
</g>
<!-- Node51 -->
<g id="node17" class="node"><title>Node51</title>
<g id="a_node17"><a xlink:href="class_rigid_track.html#ad3e07592fbc1491cdc36dd5e817e1775" target="_top" xlink:title="RigidTrack::on_pbLoadMarker\l_clicked">
<polygon fill="white" stroke="black" points="300,-49.5 300,-79.5 446,-79.5 446,-49.5 300,-49.5"/>
<text text-anchor="start" x="308" y="-67.5" font-family="Helvetica,sans-Serif" font-size="10.00">RigidTrack::on_pbLoadMarker</text>
<text text-anchor="middle" x="373" y="-56.5" font-family="Helvetica,sans-Serif" font-size="10.00">_clicked</text>
</a>
</g>
</g>
<!-- Node50&#45;&gt;Node51 -->
<g id="edge18" class="edge"><title>Node50&#45;&gt;Node51</title>
<path fill="none" stroke="midnightblue" d="M274.108,-68.3389C282.508,-68.0095 291.283,-67.6654 299.98,-67.3243"/>
<polygon fill="midnightblue" stroke="midnightblue" points="273.933,-64.843 264.078,-68.7323 274.207,-71.8376 273.933,-64.843"/>
</g>
<!-- Node53 -->
<g id="node19" class="node"><title>Node53</title>
<g id="a_node19"><a xlink:href="class_rigid_track.html#a9a939d6db3d268e75a603cb3d492a91b" target="_top" xlink:title="RigidTrack::on_btnCalibrate\lGround_clicked">
<polygon fill="white" stroke="black" points="305,-0.5 305,-30.5 441,-30.5 441,-0.5 305,-0.5"/>
<text text-anchor="start" x="313" y="-18.5" font-family="Helvetica,sans-Serif" font-size="10.00">RigidTrack::on_btnCalibrate</text>
<text text-anchor="middle" x="373" y="-7.5" font-family="Helvetica,sans-Serif" font-size="10.00">Ground_clicked</text>
</a>
</g>
</g>
<!-- Node52&#45;&gt;Node53 -->
<g id="edge20" class="edge"><title>Node52&#45;&gt;Node53</title>
<path fill="none" stroke="midnightblue" d="M271.002,-21.4411C281.907,-20.7996 293.554,-20.1145 304.92,-19.4459"/>
<polygon fill="midnightblue" stroke="midnightblue" points="270.585,-17.9594 260.808,-22.0407 270.996,-24.9474 270.585,-17.9594"/>
</g>
</g>
</svg>
