<?xml version="1.0" encoding="UTF-8" standalone="no"?>
<!DOCTYPE svg PUBLIC "-//W3C//DTD SVG 1.1//EN"
 "http://www.w3.org/Graphics/SVG/1.1/DTD/svg11.dtd">
<!-- Generated by graphviz version 2.38.0 (20140413.2041)
 -->
<!-- Title: Surface::Width Pages: 1 -->
<svg width="214pt" height="66pt"
 viewBox="0.00 0.00 214.00 66.00" xmlns="http://www.w3.org/2000/svg" xmlns:xlink="http://www.w3.org/1999/xlink">
<g id="graph0" class="graph" transform="scale(1 1) rotate(0) translate(4 62)">
<title>Surface::Width</title>
<polygon fill="white" stroke="none" points="-4,4 -4,-62 210,-62 210,4 -4,4"/>
<!-- Node88 -->
<g id="node1" class="node"><title>Node88</title>
<polygon fill="#bfbfbf" stroke="black" points="0,-19.5 0,-38.5 81,-38.5 81,-19.5 0,-19.5"/>
<text text-anchor="middle" x="40.5" y="-26.5" font-family="Helvetica,sans-Serif" font-size="10.00">Surface::Width</text>
</g>
<!-- Node89 -->
<g id="node2" class="node"><title>Node89</title>
<g id="a_node2"><a xlink:href="class_surface.html#a323ba9165c8635e84eb0c490fe88d846" target="_top" xlink:title="/&lt;============================== ">
<polygon fill="white" stroke="black" points="117,-38.5 117,-57.5 206,-57.5 206,-38.5 117,-38.5"/>
<text text-anchor="middle" x="161.5" y="-45.5" font-family="Helvetica,sans-Serif" font-size="10.00">Surface::Surface</text>
</a>
</g>
</g>
<!-- Node88&#45;&gt;Node89 -->
<g id="edge1" class="edge"><title>Node88&#45;&gt;Node89</title>
<path fill="none" stroke="midnightblue" d="M91.0439,-36.9104C99.6429,-38.2833 108.528,-39.7019 116.951,-41.0469"/>
<polygon fill="midnightblue" stroke="midnightblue" points="91.5521,-33.4473 81.1253,-35.3267 90.4483,-40.3597 91.5521,-33.4473"/>
</g>
<!-- Node90 -->
<g id="node3" class="node"><title>Node90</title>
<g id="a_node3"><a xlink:href="class_surface.html#a5e45e936e3057fa1ddad0c7924767005" target="_top" xlink:title="Surface::Resize">
<polygon fill="white" stroke="black" points="118.5,-0.5 118.5,-19.5 204.5,-19.5 204.5,-0.5 118.5,-0.5"/>
<text text-anchor="middle" x="161.5" y="-7.5" font-family="Helvetica,sans-Serif" font-size="10.00">Surface::Resize</text>
</a>
</g>
</g>
<!-- Node88&#45;&gt;Node90 -->
<g id="edge2" class="edge"><title>Node88&#45;&gt;Node90</title>
<path fill="none" stroke="midnightblue" d="M91.1099,-21.0791C100.111,-19.642 109.422,-18.1553 118.189,-16.7555"/>
<polygon fill="midnightblue" stroke="midnightblue" points="90.4483,-17.6403 81.1253,-22.6733 91.5521,-24.5527 90.4483,-17.6403"/>
</g>
</g>
</svg>
