<?xml version="1.0" encoding="UTF-8" standalone="no"?>
<!DOCTYPE svg PUBLIC "-//W3C//DTD SVG 1.1//EN"
 "http://www.w3.org/Graphics/SVG/1.1/DTD/svg11.dtd">
<!-- Generated by graphviz version 2.38.0 (20140413.2041)
 -->
<!-- Title: commObject::statusChanged Pages: 1 -->
<svg width="620pt" height="98pt"
 viewBox="0.00 0.00 620.00 97.50" xmlns="http://www.w3.org/2000/svg" xmlns:xlink="http://www.w3.org/1999/xlink">
<g id="graph0" class="graph" transform="scale(1 1) rotate(0) translate(4 93.5)">
<title>commObject::statusChanged</title>
<polygon fill="white" stroke="none" points="-4,4 -4,-93.5 616,-93.5 616,4 -4,4"/>
<!-- Node160 -->
<g id="node1" class="node"><title>Node160</title>
<polygon fill="#bfbfbf" stroke="black" points="0,-31 0,-50 143,-50 143,-31 0,-31"/>
<text text-anchor="middle" x="71.5" y="-38" font-family="Helvetica,sans-Serif" font-size="10.00">commObject::statusChanged</text>
</g>
<!-- Node161 -->
<g id="node2" class="node"><title>Node161</title>
<g id="a_node2"><a xlink:href="classcomm_object.html#a1f4b8dd22ecc46bab619f6b1fe1a5144" target="_top" xlink:title="commObject::changeStatus">
<polygon fill="white" stroke="black" points="179,-31 179,-50 317,-50 317,-31 179,-31"/>
<text text-anchor="middle" x="248" y="-38" font-family="Helvetica,sans-Serif" font-size="10.00">commObject::changeStatus</text>
</a>
</g>
</g>
<!-- Node160&#45;&gt;Node161 -->
<g id="edge1" class="edge"><title>Node160&#45;&gt;Node161</title>
<path fill="none" stroke="midnightblue" d="M153.465,-40.5C161.911,-40.5 170.435,-40.5 178.72,-40.5"/>
<polygon fill="midnightblue" stroke="midnightblue" points="153.224,-37.0001 143.224,-40.5 153.224,-44.0001 153.224,-37.0001"/>
</g>
<!-- Node162 -->
<g id="node3" class="node"><title>Node162</title>
<g id="a_node3"><a xlink:href="main_8h.html#a5f7c5996cd5a271d0277e0741f73a5b4" target="_top" xlink:title="Start the camera calibration routine that computes the camera matrix and distortion coefficients...">
<polygon fill="white" stroke="black" points="353,-52 353,-71 440,-71 440,-52 353,-52"/>
<text text-anchor="middle" x="396.5" y="-59" font-family="Helvetica,sans-Serif" font-size="10.00">calibrateCamera</text>
</a>
</g>
</g>
<!-- Node161&#45;&gt;Node162 -->
<g id="edge2" class="edge"><title>Node161&#45;&gt;Node162</title>
<path fill="none" stroke="midnightblue" d="M325.557,-51.474C334.925,-52.8169 344.222,-54.1495 352.831,-55.3836"/>
<polygon fill="midnightblue" stroke="midnightblue" points="325.787,-47.9713 315.392,-50.0169 324.794,-54.9005 325.787,-47.9713"/>
</g>
<!-- Node164 -->
<g id="node5" class="node"><title>Node164</title>
<g id="a_node5"><a xlink:href="main_8h.html#a7ad2e3cfb5056dbab2098e0dd3bd353f" target="_top" xlink:title="calibrateGround">
<polygon fill="white" stroke="black" points="354,-11 354,-30 439,-30 439,-11 354,-11"/>
<text text-anchor="middle" x="396.5" y="-18" font-family="Helvetica,sans-Serif" font-size="10.00">calibrateGround</text>
</a>
</g>
</g>
<!-- Node161&#45;&gt;Node164 -->
<g id="edge5" class="edge"><title>Node161&#45;&gt;Node164</title>
<path fill="none" stroke="midnightblue" d="M327.122,-29.8349C336.343,-28.5761 345.46,-27.3314 353.886,-26.181"/>
<polygon fill="midnightblue" stroke="midnightblue" points="326.538,-26.382 317.103,-31.2026 327.485,-33.3177 326.538,-26.382"/>
</g>
<!-- Node162&#45;&gt;Node162 -->
<g id="edge3" class="edge"><title>Node162&#45;&gt;Node162</title>
<path fill="none" stroke="midnightblue" d="M369.247,-80.1539C370.387,-85.4368 379.471,-89.5 396.5,-89.5 422.449,-89.5 429.95,-80.0653 419.003,-71.2571"/>
<polygon fill="midnightblue" stroke="midnightblue" points="372.375,-81.727 373.997,-71.2571 366.2,-78.4303 372.375,-81.727"/>
</g>
<!-- Node163 -->
<g id="node4" class="node"><title>Node163</title>
<g id="a_node4"><a xlink:href="class_rigid_track.html#aed2c39da404909142074f7dd2ce75a63" target="_top" xlink:title="RigidTrack::on_btnCalibrate\l_clicked">
<polygon fill="white" stroke="black" points="476,-49.5 476,-79.5 612,-79.5 612,-49.5 476,-49.5"/>
<text text-anchor="start" x="484" y="-67.5" font-family="Helvetica,sans-Serif" font-size="10.00">RigidTrack::on_btnCalibrate</text>
<text text-anchor="middle" x="544" y="-56.5" font-family="Helvetica,sans-Serif" font-size="10.00">_clicked</text>
</a>
</g>
</g>
<!-- Node162&#45;&gt;Node163 -->
<g id="edge4" class="edge"><title>Node162&#45;&gt;Node163</title>
<path fill="none" stroke="midnightblue" d="M450.562,-62.5941C458.791,-62.7637 467.383,-62.9409 475.873,-63.1159"/>
<polygon fill="midnightblue" stroke="midnightblue" points="450.438,-59.0909 440.368,-62.3839 450.294,-66.0894 450.438,-59.0909"/>
</g>
<!-- Node165 -->
<g id="node6" class="node"><title>Node165</title>
<g id="a_node6"><a xlink:href="class_rigid_track.html#a9a939d6db3d268e75a603cb3d492a91b" target="_top" xlink:title="RigidTrack::on_btnCalibrate\lGround_clicked">
<polygon fill="white" stroke="black" points="476,-0.5 476,-30.5 612,-30.5 612,-0.5 476,-0.5"/>
<text text-anchor="start" x="484" y="-18.5" font-family="Helvetica,sans-Serif" font-size="10.00">RigidTrack::on_btnCalibrate</text>
<text text-anchor="middle" x="544" y="-7.5" font-family="Helvetica,sans-Serif" font-size="10.00">Ground_clicked</text>
</a>
</g>
</g>
<!-- Node164&#45;&gt;Node165 -->
<g id="edge6" class="edge"><title>Node164&#45;&gt;Node165</title>
<path fill="none" stroke="midnightblue" d="M449.378,-18.7173C457.926,-18.4235 466.895,-18.1153 475.754,-17.8109"/>
<polygon fill="midnightblue" stroke="midnightblue" points="449.068,-15.2257 439.194,-19.0672 449.309,-22.2216 449.068,-15.2257"/>
</g>
</g>
</svg>
