<?xml version="1.0" encoding="UTF-8" standalone="no"?>
<!DOCTYPE svg PUBLIC "-//W3C//DTD SVG 1.1//EN"
 "http://www.w3.org/Graphics/SVG/1.1/DTD/svg11.dtd">
<!-- Generated by graphviz version 2.38.0 (20140413.2041)
 -->
<!-- Title: commObject::addLog Pages: 1 -->
<svg width="1081pt" height="828pt"
 viewBox="0.00 0.00 1081.00 828.43" xmlns="http://www.w3.org/2000/svg" xmlns:xlink="http://www.w3.org/1999/xlink">
<g id="graph0" class="graph" transform="scale(1 1) rotate(0) translate(4 824.434)">
<title>commObject::addLog</title>
<polygon fill="white" stroke="none" points="-4,4 -4,-824.434 1077,-824.434 1077,4 -4,4"/>
<!-- Node1 -->
<g id="node1" class="node"><title>Node1</title>
<polygon fill="#bfbfbf" stroke="black" points="0,-448 0,-467 110,-467 110,-448 0,-448"/>
<text text-anchor="middle" x="55" y="-455" font-family="Helvetica,sans-Serif" font-size="10.00">commObject::addLog</text>
</g>
<!-- Node2 -->
<g id="node2" class="node"><title>Node2</title>
<g id="a_node2"><a xlink:href="supportcode_8cpp.html#a0ddf1224851353fc92bfbff6f499fa97" target="_top" xlink:title="main initialises the GUI and values for the marker position etc ">
<polygon fill="white" stroke="black" points="370,-739 370,-758 408,-758 408,-739 370,-739"/>
<text text-anchor="middle" x="389" y="-746" font-family="Helvetica,sans-Serif" font-size="10.00">main</text>
</a>
</g>
</g>
<!-- Node1&#45;&gt;Node2 -->
<g id="edge1" class="edge"><title>Node1&#45;&gt;Node2</title>
<path fill="none" stroke="midnightblue" d="M58.0584,-476.971C65.5157,-543.366 93.4837,-759.016 146,-799.5 217.411,-854.55 334.508,-784.965 374.284,-758.181"/>
<polygon fill="midnightblue" stroke="midnightblue" points="61.5355,-476.569 56.9693,-467.009 54.5769,-477.33 61.5355,-476.569"/>
</g>
<!-- Node8 -->
<g id="node8" class="node"><title>Node8</title>
<g id="a_node8"><a xlink:href="main_8h.html#a3d3afd29ce54eb7fc5cc7e74ab666586" target="_top" xlink:title="startTracking">
<polygon fill="white" stroke="black" points="352.5,-565 352.5,-584 425.5,-584 425.5,-565 352.5,-565"/>
<text text-anchor="middle" x="389" y="-572" font-family="Helvetica,sans-Serif" font-size="10.00">startTracking</text>
</a>
</g>
</g>
<!-- Node1&#45;&gt;Node8 -->
<g id="edge7" class="edge"><title>Node1&#45;&gt;Node8</title>
<path fill="none" stroke="midnightblue" d="M60.8446,-477.119C70.4565,-511.265 95.5136,-580.721 146,-609.5 220.682,-652.072 328.635,-605.394 370.495,-584.025"/>
<polygon fill="midnightblue" stroke="midnightblue" points="64.2047,-476.136 58.2538,-467.37 57.4395,-477.934 64.2047,-476.136"/>
</g>
<!-- Node11 -->
<g id="node11" class="node"><title>Node11</title>
<g id="a_node11"><a xlink:href="main_8h.html#a1e6662e0f16887fe97c7bebe05065972" target="_top" xlink:title="setReference">
<polygon fill="white" stroke="black" points="352,-492 352,-511 426,-511 426,-492 352,-492"/>
<text text-anchor="middle" x="389" y="-499" font-family="Helvetica,sans-Serif" font-size="10.00">setReference</text>
</a>
</g>
</g>
<!-- Node1&#45;&gt;Node11 -->
<g id="edge10" class="edge"><title>Node1&#45;&gt;Node11</title>
<path fill="none" stroke="midnightblue" d="M120.391,-466.034C189.373,-475.176 296.399,-489.36 351.886,-496.714"/>
<polygon fill="midnightblue" stroke="midnightblue" points="120.454,-462.512 110.08,-464.667 119.534,-469.451 120.454,-462.512"/>
</g>
<!-- Node13 -->
<g id="node13" class="node"><title>Node13</title>
<g id="a_node13"><a xlink:href="main_8h.html#a5f7c5996cd5a271d0277e0741f73a5b4" target="_top" xlink:title="Start the camera calibration routine that computes the camera matrix and distortion coefficients...">
<polygon fill="white" stroke="black" points="169.5,-373 169.5,-392 256.5,-392 256.5,-373 169.5,-373"/>
<text text-anchor="middle" x="213" y="-380" font-family="Helvetica,sans-Serif" font-size="10.00">calibrateCamera</text>
</a>
</g>
</g>
<!-- Node1&#45;&gt;Node13 -->
<g id="edge12" class="edge"><title>Node1&#45;&gt;Node13</title>
<path fill="none" stroke="midnightblue" d="M85.1449,-443.488C116.311,-428.504 164.897,-405.146 192.002,-392.114"/>
<polygon fill="midnightblue" stroke="midnightblue" points="83.5709,-440.361 76.0749,-447.849 86.604,-446.67 83.5709,-440.361"/>
</g>
<!-- Node15 -->
<g id="node15" class="node"><title>Node15</title>
<g id="a_node15"><a xlink:href="main_8h.html#ad39626702ff983d5fdab4b703bfaf964" target="_top" xlink:title="loadCalibration">
<polygon fill="white" stroke="black" points="173,-695 173,-714 253,-714 253,-695 173,-695"/>
<text text-anchor="middle" x="213" y="-702" font-family="Helvetica,sans-Serif" font-size="10.00">loadCalibration</text>
</a>
</g>
</g>
<!-- Node1&#45;&gt;Node15 -->
<g id="edge15" class="edge"><title>Node1&#45;&gt;Node15</title>
<path fill="none" stroke="midnightblue" d="M58.0244,-477.491C63.5833,-521.702 83.1273,-628.371 146,-685.5 153.413,-692.236 163.067,-696.597 172.693,-699.416"/>
<polygon fill="midnightblue" stroke="midnightblue" points="61.4882,-476.974 56.8713,-467.439 54.5339,-477.772 61.4882,-476.974"/>
</g>
<!-- Node17 -->
<g id="node17" class="node"><title>Node17</title>
<g id="a_node17"><a xlink:href="main_8h.html#a847c0fbd3e513fb76ff145b31a9f5c37" target="_top" xlink:title="testAlgorithms">
<polygon fill="white" stroke="black" points="173,-771 173,-790 253,-790 253,-771 173,-771"/>
<text text-anchor="middle" x="213" y="-778" font-family="Helvetica,sans-Serif" font-size="10.00">testAlgorithms</text>
</a>
</g>
</g>
<!-- Node1&#45;&gt;Node17 -->
<g id="edge18" class="edge"><title>Node1&#45;&gt;Node17</title>
<path fill="none" stroke="midnightblue" d="M55.7367,-477.238C56.1341,-530.922 64.8361,-680.945 146,-761.5 153.278,-768.724 163.115,-773.238 172.969,-776.048"/>
<polygon fill="midnightblue" stroke="midnightblue" points="59.237,-477.049 55.758,-467.042 52.237,-477.034 59.237,-477.049"/>
</g>
<!-- Node18 -->
<g id="node18" class="node"><title>Node18</title>
<g id="a_node18"><a xlink:href="main_8h.html#ae624b0189bc5e32cbbb1f178b9f1a360" target="_top" xlink:title="Open the UDP ports for communication. ">
<polygon fill="white" stroke="black" points="182,-581 182,-600 244,-600 244,-581 182,-581"/>
<text text-anchor="middle" x="213" y="-588" font-family="Helvetica,sans-Serif" font-size="10.00">setUpUDP</text>
</a>
</g>
</g>
<!-- Node1&#45;&gt;Node18 -->
<g id="edge20" class="edge"><title>Node1&#45;&gt;Node18</title>
<path fill="none" stroke="midnightblue" d="M65.7295,-476.068C79.963,-501.419 108.855,-546.554 146,-571.5 156.591,-578.613 169.859,-583.099 181.716,-585.912"/>
<polygon fill="midnightblue" stroke="midnightblue" points="68.7083,-474.22 60.8512,-467.112 62.561,-477.568 68.7083,-474.22"/>
</g>
<!-- Node19 -->
<g id="node19" class="node"><title>Node19</title>
<g id="a_node19"><a xlink:href="main_8h.html#af2a8b7de0b15dc17198c147ba39e85f3" target="_top" xlink:title="closeUDP">
<polygon fill="white" stroke="black" points="183,-543 183,-562 243,-562 243,-543 183,-543"/>
<text text-anchor="middle" x="213" y="-550" font-family="Helvetica,sans-Serif" font-size="10.00">closeUDP</text>
</a>
</g>
</g>
<!-- Node1&#45;&gt;Node19 -->
<g id="edge22" class="edge"><title>Node1&#45;&gt;Node19</title>
<path fill="none" stroke="midnightblue" d="M72.0795,-474.814C88.9539,-492.019 117.014,-518.01 146,-533.5 157.358,-539.569 170.879,-543.899 182.717,-546.877"/>
<polygon fill="midnightblue" stroke="midnightblue" points="74.1866,-471.955 64.7393,-467.159 69.1339,-476.799 74.1866,-471.955"/>
</g>
<!-- Node20 -->
<g id="node20" class="node"><title>Node20</title>
<g id="a_node20"><a xlink:href="main_8h.html#a56c7f641859cb2b6b99b0947d03be800" target="_top" xlink:title="loadMarkerConfig">
<polygon fill="white" stroke="black" points="167,-657 167,-676 259,-676 259,-657 167,-657"/>
<text text-anchor="middle" x="213" y="-664" font-family="Helvetica,sans-Serif" font-size="10.00">loadMarkerConfig</text>
</a>
</g>
</g>
<!-- Node1&#45;&gt;Node20 -->
<g id="edge24" class="edge"><title>Node1&#45;&gt;Node20</title>
<path fill="none" stroke="midnightblue" d="M60.3601,-477.196C69.6325,-514.613 94.7802,-596.348 146,-642.5 152.975,-648.784 161.724,-653.46 170.551,-656.925"/>
<polygon fill="midnightblue" stroke="midnightblue" points="63.6805,-476.026 57.9809,-467.095 56.8669,-477.631 63.6805,-476.026"/>
</g>
<!-- Node22 -->
<g id="node22" class="node"><title>Node22</title>
<g id="a_node22"><a xlink:href="main_8h.html#af39fa6c3a36ad6bc24a327db7a9d73c2" target="_top" xlink:title="loadCameraPosition">
<polygon fill="white" stroke="black" points="161,-733 161,-752 265,-752 265,-733 161,-733"/>
<text text-anchor="middle" x="213" y="-740" font-family="Helvetica,sans-Serif" font-size="10.00">loadCameraPosition</text>
</a>
</g>
</g>
<!-- Node1&#45;&gt;Node22 -->
<g id="edge27" class="edge"><title>Node1&#45;&gt;Node22</title>
<path fill="none" stroke="midnightblue" d="M56.7234,-477.367C59.6116,-526.512 74.0302,-654.764 146,-723.5 150.311,-727.618 155.456,-730.852 160.945,-733.39"/>
<polygon fill="midnightblue" stroke="midnightblue" points="60.2079,-476.962 56.2273,-467.144 53.2162,-477.301 60.2079,-476.962"/>
</g>
<!-- Node23 -->
<g id="node23" class="node"><title>Node23</title>
<g id="a_node23"><a xlink:href="main_8h.html#a0416912fce6274568e80019b10ba294f" target="_top" xlink:title="determineExposure">
<polygon fill="white" stroke="black" points="162.5,-505 162.5,-524 263.5,-524 263.5,-505 162.5,-505"/>
<text text-anchor="middle" x="213" y="-512" font-family="Helvetica,sans-Serif" font-size="10.00">determineExposure</text>
</a>
</g>
</g>
<!-- Node1&#45;&gt;Node23 -->
<g id="edge29" class="edge"><title>Node1&#45;&gt;Node23</title>
<path fill="none" stroke="midnightblue" d="M91.7819,-470.645C108.285,-476.701 128.135,-483.977 146,-490.5 159.056,-495.267 173.572,-500.548 185.659,-504.94"/>
<polygon fill="midnightblue" stroke="midnightblue" points="92.5805,-467.21 81.9868,-467.049 90.1682,-473.781 92.5805,-467.21"/>
</g>
<!-- Node24 -->
<g id="node24" class="node"><title>Node24</title>
<g id="a_node24"><a xlink:href="main_8h.html#a7ad2e3cfb5056dbab2098e0dd3bd353f" target="_top" xlink:title="calibrateGround">
<polygon fill="white" stroke="black" points="346.5,-436 346.5,-455 431.5,-455 431.5,-436 346.5,-436"/>
<text text-anchor="middle" x="389" y="-443" font-family="Helvetica,sans-Serif" font-size="10.00">calibrateGround</text>
</a>
</g>
</g>
<!-- Node1&#45;&gt;Node24 -->
<g id="edge34" class="edge"><title>Node1&#45;&gt;Node24</title>
<path fill="none" stroke="midnightblue" d="M120.474,-455.17C187.209,-452.757 289.487,-449.061 346.301,-447.007"/>
<polygon fill="midnightblue" stroke="midnightblue" points="119.947,-451.686 110.08,-455.545 120.2,-458.682 119.947,-451.686"/>
</g>
<!-- Node26 -->
<g id="node26" class="node"><title>Node26</title>
<g id="a_node26"><a xlink:href="class_rigid_track.html#a9f037a061b2577815fc80e5e9f8d46d9" target="_top" xlink:title="RigidTrack::on_leIPObject\l_returnPressed">
<polygon fill="white" stroke="black" points="148.5,-323.5 148.5,-353.5 277.5,-353.5 277.5,-323.5 148.5,-323.5"/>
<text text-anchor="start" x="156.5" y="-341.5" font-family="Helvetica,sans-Serif" font-size="10.00">RigidTrack::on_leIPObject</text>
<text text-anchor="middle" x="213" y="-330.5" font-family="Helvetica,sans-Serif" font-size="10.00">_returnPressed</text>
</a>
</g>
</g>
<!-- Node1&#45;&gt;Node26 -->
<g id="edge35" class="edge"><title>Node1&#45;&gt;Node26</title>
<path fill="none" stroke="midnightblue" d="M68.8729,-439.887C84.8774,-419.092 114.017,-384.666 146,-363.5 151.722,-359.713 158.099,-356.387 164.57,-353.501"/>
<polygon fill="midnightblue" stroke="midnightblue" points="66.0686,-437.793 62.8479,-447.886 71.66,-442.004 66.0686,-437.793"/>
</g>
<!-- Node27 -->
<g id="node27" class="node"><title>Node27</title>
<g id="a_node27"><a xlink:href="class_rigid_track.html#aa527ab3a2ddc7b31bf1063260efc9755" target="_top" xlink:title="RigidTrack::on_leIPSafety\l_returnPressed">
<polygon fill="white" stroke="black" points="149,-235.5 149,-265.5 277,-265.5 277,-235.5 149,-235.5"/>
<text text-anchor="start" x="157" y="-253.5" font-family="Helvetica,sans-Serif" font-size="10.00">RigidTrack::on_leIPSafety</text>
<text text-anchor="middle" x="213" y="-242.5" font-family="Helvetica,sans-Serif" font-size="10.00">_returnPressed</text>
</a>
</g>
</g>
<!-- Node1&#45;&gt;Node27 -->
<g id="edge36" class="edge"><title>Node1&#45;&gt;Node27</title>
<path fill="none" stroke="midnightblue" d="M61.2244,-437.99C71.6848,-402.323 98.3786,-326.081 146,-280.5 152.274,-274.495 159.961,-269.547 167.843,-265.524"/>
<polygon fill="midnightblue" stroke="midnightblue" points="57.8381,-437.103 58.4941,-447.678 64.5756,-439.002 57.8381,-437.103"/>
</g>
<!-- Node28 -->
<g id="node28" class="node"><title>Node28</title>
<g id="a_node28"><a xlink:href="class_rigid_track.html#a8f999fa968f4cc9fa548bdc8438b32c4" target="_top" xlink:title="RigidTrack::on_cbSafety\l_stateChanged">
<polygon fill="white" stroke="black" points="328,-257.5 328,-287.5 450,-287.5 450,-257.5 328,-257.5"/>
<text text-anchor="start" x="336" y="-275.5" font-family="Helvetica,sans-Serif" font-size="10.00">RigidTrack::on_cbSafety</text>
<text text-anchor="middle" x="389" y="-264.5" font-family="Helvetica,sans-Serif" font-size="10.00">_stateChanged</text>
</a>
</g>
</g>
<!-- Node1&#45;&gt;Node28 -->
<g id="edge43" class="edge"><title>Node1&#45;&gt;Node28</title>
<path fill="none" stroke="midnightblue" d="M62.3297,-438.117C73.6851,-406.642 100.661,-344.887 146,-314.5 175.046,-295.033 266.194,-283.271 327.955,-277.332"/>
<polygon fill="midnightblue" stroke="midnightblue" points="58.9122,-437.291 58.96,-447.886 65.5296,-439.574 58.9122,-437.291"/>
</g>
<!-- Node29 -->
<g id="node29" class="node"><title>Node29</title>
<g id="a_node29"><a xlink:href="class_rigid_track.html#a555c536593d659b940de43cd2db8d6c1" target="_top" xlink:title="RigidTrack::on_leIPSafety2\l_returnPressed">
<polygon fill="white" stroke="black" points="146,-147.5 146,-177.5 280,-177.5 280,-147.5 146,-147.5"/>
<text text-anchor="start" x="154" y="-165.5" font-family="Helvetica,sans-Serif" font-size="10.00">RigidTrack::on_leIPSafety2</text>
<text text-anchor="middle" x="213" y="-154.5" font-family="Helvetica,sans-Serif" font-size="10.00">_returnPressed</text>
</a>
</g>
</g>
<!-- Node1&#45;&gt;Node29 -->
<g id="edge38" class="edge"><title>Node1&#45;&gt;Node29</title>
<path fill="none" stroke="midnightblue" d="M57.4469,-437.702C61.9549,-389.702 79.7214,-265.705 146,-192.5 151.491,-186.435 158.448,-181.516 165.774,-177.552"/>
<polygon fill="midnightblue" stroke="midnightblue" points="53.9352,-437.695 56.5825,-447.953 60.9104,-438.283 53.9352,-437.695"/>
</g>
<!-- Node30 -->
<g id="node30" class="node"><title>Node30</title>
<g id="a_node30"><a xlink:href="class_rigid_track.html#ad6ba1cfe25f18ff0d9f5993aafa36d16" target="_top" xlink:title="RigidTrack::on_cbSafety2\l_stateChanged">
<polygon fill="white" stroke="black" points="325,-169.5 325,-199.5 453,-199.5 453,-169.5 325,-169.5"/>
<text text-anchor="start" x="333" y="-187.5" font-family="Helvetica,sans-Serif" font-size="10.00">RigidTrack::on_cbSafety2</text>
<text text-anchor="middle" x="389" y="-176.5" font-family="Helvetica,sans-Serif" font-size="10.00">_stateChanged</text>
</a>
</g>
</g>
<!-- Node1&#45;&gt;Node30 -->
<g id="edge44" class="edge"><title>Node1&#45;&gt;Node30</title>
<path fill="none" stroke="midnightblue" d="M57.4067,-437.657C61.7488,-392.404 79.045,-281.262 146,-226.5 172.736,-204.633 262.544,-193.622 324.891,-188.485"/>
<polygon fill="midnightblue" stroke="midnightblue" points="53.9153,-437.409 56.5595,-447.668 60.8904,-437.999 53.9153,-437.409"/>
</g>
<!-- Node31 -->
<g id="node31" class="node"><title>Node31</title>
<g id="a_node31"><a xlink:href="class_rigid_track.html#ac1f10ea5ec3f718c152e245a04776454" target="_top" xlink:title="RigidTrack::on_rbP3P\l_clicked">
<polygon fill="white" stroke="black" points="157.5,-98.5 157.5,-128.5 268.5,-128.5 268.5,-98.5 157.5,-98.5"/>
<text text-anchor="start" x="165.5" y="-116.5" font-family="Helvetica,sans-Serif" font-size="10.00">RigidTrack::on_rbP3P</text>
<text text-anchor="middle" x="213" y="-105.5" font-family="Helvetica,sans-Serif" font-size="10.00">_clicked</text>
</a>
</g>
</g>
<!-- Node1&#45;&gt;Node31 -->
<g id="edge40" class="edge"><title>Node1&#45;&gt;Node31</title>
<path fill="none" stroke="midnightblue" d="M55.7721,-437.888C56.2045,-383.164 64.8746,-227.018 146,-138.5 149.56,-134.616 153.786,-131.331 158.354,-128.554"/>
<polygon fill="midnightblue" stroke="midnightblue" points="52.2721,-437.969 55.7818,-447.966 59.2721,-437.962 52.2721,-437.969"/>
</g>
<!-- Node32 -->
<g id="node32" class="node"><title>Node32</title>
<g id="a_node32"><a xlink:href="class_rigid_track.html#ae5bcdd3fb7203b4a7d1fa97c1460af31" target="_top" xlink:title="RigidTrack::on_rbIterative\l_clicked">
<polygon fill="white" stroke="black" points="150.5,-49.5 150.5,-79.5 275.5,-79.5 275.5,-49.5 150.5,-49.5"/>
<text text-anchor="start" x="158.5" y="-67.5" font-family="Helvetica,sans-Serif" font-size="10.00">RigidTrack::on_rbIterative</text>
<text text-anchor="middle" x="213" y="-56.5" font-family="Helvetica,sans-Serif" font-size="10.00">_clicked</text>
</a>
</g>
</g>
<!-- Node1&#45;&gt;Node32 -->
<g id="edge41" class="edge"><title>Node1&#45;&gt;Node32</title>
<path fill="none" stroke="midnightblue" d="M58.4002,-437.707C67.0795,-369.106 98.8294,-142.82 146,-89.5 149.41,-85.6456 153.477,-82.3831 157.895,-79.6219"/>
<polygon fill="midnightblue" stroke="midnightblue" points="54.8854,-437.61 57.127,-447.965 61.8321,-438.472 54.8854,-437.61"/>
</g>
<!-- Node33 -->
<g id="node33" class="node"><title>Node33</title>
<g id="a_node33"><a xlink:href="class_rigid_track.html#a19bc46333f946e589184eeed998160da" target="_top" xlink:title="RigidTrack::on_rbEPnP\l_clicked">
<polygon fill="white" stroke="black" points="154,-0.5 154,-30.5 272,-30.5 272,-0.5 154,-0.5"/>
<text text-anchor="start" x="162" y="-18.5" font-family="Helvetica,sans-Serif" font-size="10.00">RigidTrack::on_rbEPnP</text>
<text text-anchor="middle" x="213" y="-7.5" font-family="Helvetica,sans-Serif" font-size="10.00">_clicked</text>
</a>
</g>
</g>
<!-- Node1&#45;&gt;Node33 -->
<g id="edge42" class="edge"><title>Node1&#45;&gt;Node33</title>
<path fill="none" stroke="midnightblue" d="M57.8013,-437.528C64.8965,-362.95 93.1474,-101.911 146,-40.5 149.357,-36.5995 153.389,-33.3059 157.784,-30.5251"/>
<polygon fill="midnightblue" stroke="midnightblue" points="54.2837,-437.557 56.8437,-447.838 61.2537,-438.204 54.2837,-437.557"/>
</g>
<!-- Node3 -->
<g id="node3" class="node"><title>Node3</title>
<g id="a_node3"><a xlink:href="class_surface.html#a728571d0386e9690ce1760931562c72b" target="_top" xlink:title="Surface::PutPixel">
<polygon fill="white" stroke="black" points="520,-720 520,-739 612,-739 612,-720 520,-720"/>
<text text-anchor="middle" x="566" y="-727" font-family="Helvetica,sans-Serif" font-size="10.00">Surface::PutPixel</text>
</a>
</g>
</g>
<!-- Node2&#45;&gt;Node3 -->
<g id="edge2" class="edge"><title>Node2&#45;&gt;Node3</title>
<path fill="none" stroke="midnightblue" d="M418.14,-745.445C445.52,-742.472 487.575,-737.906 519.675,-734.421"/>
<polygon fill="midnightblue" stroke="midnightblue" points="417.633,-741.979 408.069,-746.538 418.388,-748.938 417.633,-741.979"/>
</g>
<!-- Node7 -->
<g id="node7" class="node"><title>Node7</title>
<g id="a_node7"><a xlink:href="supportcode_8cpp.html#a661c2abc03926acfaeb93b4ae7db4943" target="_top" xlink:title="/&lt; Window Show State ">
<polygon fill="white" stroke="black" points="538.5,-758 538.5,-777 593.5,-777 593.5,-758 538.5,-758"/>
<text text-anchor="middle" x="566" y="-765" font-family="Helvetica,sans-Serif" font-size="10.00">WinMain</text>
</a>
</g>
</g>
<!-- Node2&#45;&gt;Node7 -->
<g id="edge6" class="edge"><title>Node2&#45;&gt;Node7</title>
<path fill="none" stroke="midnightblue" d="M418.425,-751.586C451.538,-755.181 505.83,-761.076 538.222,-764.593"/>
<polygon fill="midnightblue" stroke="midnightblue" points="418.388,-748.062 408.069,-750.462 417.633,-755.021 418.388,-748.062"/>
</g>
<!-- Node4 -->
<g id="node4" class="node"><title>Node4</title>
<g id="a_node4"><a xlink:href="class_surface.html#a377c59f6ef131d4b879cda93578a3efa" target="_top" xlink:title="Surface::SurfaceHeight">
<polygon fill="white" stroke="black" points="688,-720 688,-739 804,-739 804,-720 688,-720"/>
<text text-anchor="middle" x="746" y="-727" font-family="Helvetica,sans-Serif" font-size="10.00">Surface::SurfaceHeight</text>
</a>
</g>
</g>
<!-- Node3&#45;&gt;Node4 -->
<g id="edge3" class="edge"><title>Node3&#45;&gt;Node4</title>
<path fill="none" stroke="midnightblue" d="M622.633,-729.5C643.398,-729.5 666.997,-729.5 687.893,-729.5"/>
<polygon fill="midnightblue" stroke="midnightblue" points="622.378,-726 612.377,-729.5 622.377,-733 622.378,-726"/>
</g>
<!-- Node5 -->
<g id="node5" class="node"><title>Node5</title>
<g id="a_node5"><a xlink:href="supportcode_8h.html#ac43c2dc16b0859b03a4f7d04a7e97d3c" target="_top" xlink:title="DrawGLScene">
<polygon fill="white" stroke="black" points="858,-720 858,-739 937,-739 937,-720 858,-720"/>
<text text-anchor="middle" x="897.5" y="-727" font-family="Helvetica,sans-Serif" font-size="10.00">DrawGLScene</text>
</a>
</g>
</g>
<!-- Node4&#45;&gt;Node5 -->
<g id="edge4" class="edge"><title>Node4&#45;&gt;Node5</title>
<path fill="none" stroke="midnightblue" d="M814.496,-729.5C829.246,-729.5 844.378,-729.5 857.562,-729.5"/>
<polygon fill="midnightblue" stroke="midnightblue" points="814.373,-726 804.373,-729.5 814.373,-733 814.373,-726"/>
</g>
<!-- Node6 -->
<g id="node6" class="node"><title>Node6</title>
<g id="a_node6"><a xlink:href="class_surface.html#abe0d542404575c60911d6ad4219560f9" target="_top" xlink:title="Surface::PixelSpan">
<polygon fill="white" stroke="black" points="973,-720 973,-739 1073,-739 1073,-720 973,-720"/>
<text text-anchor="middle" x="1023" y="-727" font-family="Helvetica,sans-Serif" font-size="10.00">Surface::PixelSpan</text>
</a>
</g>
</g>
<!-- Node5&#45;&gt;Node6 -->
<g id="edge5" class="edge"><title>Node5&#45;&gt;Node6</title>
<path fill="none" stroke="midnightblue" d="M947.309,-729.5C955.74,-729.5 964.508,-729.5 972.946,-729.5"/>
<polygon fill="midnightblue" stroke="midnightblue" points="947.237,-726 937.237,-729.5 947.237,-733 947.237,-726"/>
</g>
<!-- Node9 -->
<g id="node9" class="node"><title>Node9</title>
<g id="a_node9"><a xlink:href="main_8h.html#a25183e8d0b386ef12b557efc712a0261" target="_top" xlink:title="Start or stop the tracking depending on if the camera is currently running or not. ">
<polygon fill="white" stroke="black" points="521,-565 521,-584 611,-584 611,-565 521,-565"/>
<text text-anchor="middle" x="566" y="-572" font-family="Helvetica,sans-Serif" font-size="10.00">startStopCamera</text>
</a>
</g>
</g>
<!-- Node8&#45;&gt;Node9 -->
<g id="edge8" class="edge"><title>Node8&#45;&gt;Node9</title>
<path fill="none" stroke="midnightblue" d="M435.91,-574.5C462.147,-574.5 494.885,-574.5 520.827,-574.5"/>
<polygon fill="midnightblue" stroke="midnightblue" points="435.836,-571 425.836,-574.5 435.836,-578 435.836,-571"/>
</g>
<!-- Node10 -->
<g id="node10" class="node"><title>Node10</title>
<g id="a_node10"><a xlink:href="class_rigid_track.html#a2f226856e28868c8bb1854fa16531f60" target="_top" xlink:title="RigidTrack::on_btnStartCamera\l_clicked">
<polygon fill="white" stroke="black" points="670,-559.5 670,-589.5 822,-589.5 822,-559.5 670,-559.5"/>
<text text-anchor="start" x="678" y="-577.5" font-family="Helvetica,sans-Serif" font-size="10.00">RigidTrack::on_btnStartCamera</text>
<text text-anchor="middle" x="746" y="-566.5" font-family="Helvetica,sans-Serif" font-size="10.00">_clicked</text>
</a>
</g>
</g>
<!-- Node9&#45;&gt;Node10 -->
<g id="edge9" class="edge"><title>Node9&#45;&gt;Node10</title>
<path fill="none" stroke="midnightblue" d="M621.335,-574.5C636.679,-574.5 653.652,-574.5 669.982,-574.5"/>
<polygon fill="midnightblue" stroke="midnightblue" points="621,-571 611,-574.5 621,-578 621,-571"/>
</g>
<!-- Node12 -->
<g id="node12" class="node"><title>Node12</title>
<g id="a_node12"><a xlink:href="class_rigid_track.html#afb1a4edcacc818db4ec6bb017dd07e0f" target="_top" xlink:title="RigidTrack::on_btnZero\l_clicked">
<polygon fill="white" stroke="black" points="508,-486.5 508,-516.5 624,-516.5 624,-486.5 508,-486.5"/>
<text text-anchor="start" x="516" y="-504.5" font-family="Helvetica,sans-Serif" font-size="10.00">RigidTrack::on_btnZero</text>
<text text-anchor="middle" x="566" y="-493.5" font-family="Helvetica,sans-Serif" font-size="10.00">_clicked</text>
</a>
</g>
</g>
<!-- Node11&#45;&gt;Node12 -->
<g id="edge11" class="edge"><title>Node11&#45;&gt;Node12</title>
<path fill="none" stroke="midnightblue" d="M436.307,-501.5C458.226,-501.5 484.613,-501.5 507.772,-501.5"/>
<polygon fill="midnightblue" stroke="midnightblue" points="436.26,-498 426.26,-501.5 436.26,-505 436.26,-498"/>
</g>
<!-- Node13&#45;&gt;Node13 -->
<g id="edge13" class="edge"><title>Node13&#45;&gt;Node13</title>
<path fill="none" stroke="midnightblue" d="M183.508,-401.154C184.74,-406.437 194.571,-410.5 213,-410.5 241.082,-410.5 249.199,-401.065 237.352,-392.257"/>
<polygon fill="midnightblue" stroke="midnightblue" points="186.676,-402.667 188.648,-392.257 180.614,-399.165 186.676,-402.667"/>
</g>
<!-- Node14 -->
<g id="node14" class="node"><title>Node14</title>
<g id="a_node14"><a xlink:href="class_rigid_track.html#aed2c39da404909142074f7dd2ce75a63" target="_top" xlink:title="RigidTrack::on_btnCalibrate\l_clicked">
<polygon fill="white" stroke="black" points="321,-367.5 321,-397.5 457,-397.5 457,-367.5 321,-367.5"/>
<text text-anchor="start" x="329" y="-385.5" font-family="Helvetica,sans-Serif" font-size="10.00">RigidTrack::on_btnCalibrate</text>
<text text-anchor="middle" x="389" y="-374.5" font-family="Helvetica,sans-Serif" font-size="10.00">_clicked</text>
</a>
</g>
</g>
<!-- Node13&#45;&gt;Node14 -->
<g id="edge14" class="edge"><title>Node13&#45;&gt;Node14</title>
<path fill="none" stroke="midnightblue" d="M266.851,-382.5C283.845,-382.5 302.906,-382.5 320.789,-382.5"/>
<polygon fill="midnightblue" stroke="midnightblue" points="266.565,-379 256.565,-382.5 266.565,-386 266.565,-379"/>
</g>
<!-- Node15&#45;&gt;Node2 -->
<g id="edge16" class="edge"><title>Node15&#45;&gt;Node2</title>
<path fill="none" stroke="midnightblue" d="M261.488,-716.508C297.146,-725.525 344.049,-737.386 369.549,-743.834"/>
<polygon fill="midnightblue" stroke="midnightblue" points="262.308,-713.106 251.755,-714.047 260.592,-719.892 262.308,-713.106"/>
</g>
<!-- Node16 -->
<g id="node16" class="node"><title>Node16</title>
<g id="a_node16"><a xlink:href="class_rigid_track.html#a2224d3f6d923a1c7bad356f49d7a4124" target="_top" xlink:title="RigidTrack::on_btnLoadCalib\l_clicked">
<polygon fill="white" stroke="black" points="319,-689.5 319,-719.5 459,-719.5 459,-689.5 319,-689.5"/>
<text text-anchor="start" x="327" y="-707.5" font-family="Helvetica,sans-Serif" font-size="10.00">RigidTrack::on_btnLoadCalib</text>
<text text-anchor="middle" x="389" y="-696.5" font-family="Helvetica,sans-Serif" font-size="10.00">_clicked</text>
</a>
</g>
</g>
<!-- Node15&#45;&gt;Node16 -->
<g id="edge17" class="edge"><title>Node15&#45;&gt;Node16</title>
<path fill="none" stroke="midnightblue" d="M263.451,-704.5C280.716,-704.5 300.423,-704.5 318.987,-704.5"/>
<polygon fill="midnightblue" stroke="midnightblue" points="263.049,-701 253.049,-704.5 263.049,-708 263.049,-701"/>
</g>
<!-- Node17&#45;&gt;Node2 -->
<g id="edge19" class="edge"><title>Node17&#45;&gt;Node2</title>
<path fill="none" stroke="midnightblue" d="M263.245,-771.443C298.808,-764.903 344.813,-756.443 369.833,-751.841"/>
<polygon fill="midnightblue" stroke="midnightblue" points="262.251,-768.067 253.049,-773.319 263.517,-774.952 262.251,-768.067"/>
</g>
<!-- Node18&#45;&gt;Node8 -->
<g id="edge21" class="edge"><title>Node18&#45;&gt;Node8</title>
<path fill="none" stroke="midnightblue" d="M254.327,-586.792C283.962,-584.067 323.86,-580.398 352.336,-577.779"/>
<polygon fill="midnightblue" stroke="midnightblue" points="253.946,-583.312 244.308,-587.713 254.587,-590.283 253.946,-583.312"/>
</g>
<!-- Node19&#45;&gt;Node8 -->
<g id="edge23" class="edge"><title>Node19&#45;&gt;Node8</title>
<path fill="none" stroke="midnightblue" d="M253.171,-557.453C282.959,-561.219 323.603,-566.358 352.458,-570.006"/>
<polygon fill="midnightblue" stroke="midnightblue" points="253.484,-553.964 243.124,-556.182 252.606,-560.909 253.484,-553.964"/>
</g>
<!-- Node20&#45;&gt;Node2 -->
<g id="edge25" class="edge"><title>Node20&#45;&gt;Node2</title>
<path fill="none" stroke="midnightblue" d="M268.699,-679.331C272.656,-681.129 276.472,-683.175 280,-685.5 301.098,-699.404 294.749,-715.832 316,-729.5 332.419,-740.059 354.518,-744.772 369.885,-746.862"/>
<polygon fill="midnightblue" stroke="midnightblue" points="269.866,-676.028 259.281,-675.566 267.267,-682.528 269.866,-676.028"/>
</g>
<!-- Node21 -->
<g id="node21" class="node"><title>Node21</title>
<g id="a_node21"><a xlink:href="class_rigid_track.html#ad3e07592fbc1491cdc36dd5e817e1775" target="_top" xlink:title="RigidTrack::on_pbLoadMarker\l_clicked">
<polygon fill="white" stroke="black" points="316,-640.5 316,-670.5 462,-670.5 462,-640.5 316,-640.5"/>
<text text-anchor="start" x="324" y="-658.5" font-family="Helvetica,sans-Serif" font-size="10.00">RigidTrack::on_pbLoadMarker</text>
<text text-anchor="middle" x="389" y="-647.5" font-family="Helvetica,sans-Serif" font-size="10.00">_clicked</text>
</a>
</g>
</g>
<!-- Node20&#45;&gt;Node21 -->
<g id="edge26" class="edge"><title>Node20&#45;&gt;Node21</title>
<path fill="none" stroke="midnightblue" d="M269.284,-663.005C284.126,-662.067 300.394,-661.038 315.999,-660.052"/>
<polygon fill="midnightblue" stroke="midnightblue" points="269.021,-659.515 259.262,-663.639 269.463,-666.501 269.021,-659.515"/>
</g>
<!-- Node22&#45;&gt;Node2 -->
<g id="edge28" class="edge"><title>Node22&#45;&gt;Node2</title>
<path fill="none" stroke="midnightblue" d="M275.415,-744.618C308.769,-745.768 347.631,-747.108 369.871,-747.875"/>
<polygon fill="midnightblue" stroke="midnightblue" points="275.379,-741.115 265.265,-744.268 275.138,-748.11 275.379,-741.115"/>
</g>
<!-- Node23&#45;&gt;Node8 -->
<g id="edge30" class="edge"><title>Node23&#45;&gt;Node8</title>
<path fill="none" stroke="midnightblue" d="M258.71,-526.829C265.861,-528.957 273.156,-531.22 280,-533.5 309.493,-543.325 342.864,-556.283 364.605,-564.978"/>
<polygon fill="midnightblue" stroke="midnightblue" points="259.684,-523.467 249.103,-524.024 257.721,-530.187 259.684,-523.467"/>
</g>
<!-- Node23&#45;&gt;Node11 -->
<g id="edge31" class="edge"><title>Node23&#45;&gt;Node11</title>
<path fill="none" stroke="midnightblue" d="M273.985,-510.018C299.94,-508.079 329.457,-505.874 351.954,-504.193"/>
<polygon fill="midnightblue" stroke="midnightblue" points="273.573,-506.539 263.861,-510.775 274.094,-513.52 273.573,-506.539"/>
</g>
<!-- Node23&#45;&gt;Node24 -->
<g id="edge32" class="edge"><title>Node23&#45;&gt;Node24</title>
<path fill="none" stroke="midnightblue" d="M247.75,-501.116C281.905,-487.572 333.854,-466.972 364.012,-455.013"/>
<polygon fill="midnightblue" stroke="midnightblue" points="246.2,-497.966 238.194,-504.906 248.78,-504.473 246.2,-497.966"/>
</g>
<!-- Node25 -->
<g id="node25" class="node"><title>Node25</title>
<g id="a_node25"><a xlink:href="class_rigid_track.html#a9a939d6db3d268e75a603cb3d492a91b" target="_top" xlink:title="RigidTrack::on_btnCalibrate\lGround_clicked">
<polygon fill="white" stroke="black" points="498,-430.5 498,-460.5 634,-460.5 634,-430.5 498,-430.5"/>
<text text-anchor="start" x="506" y="-448.5" font-family="Helvetica,sans-Serif" font-size="10.00">RigidTrack::on_btnCalibrate</text>
<text text-anchor="middle" x="566" y="-437.5" font-family="Helvetica,sans-Serif" font-size="10.00">Ground_clicked</text>
</a>
</g>
</g>
<!-- Node24&#45;&gt;Node25 -->
<g id="edge33" class="edge"><title>Node24&#45;&gt;Node25</title>
<path fill="none" stroke="midnightblue" d="M441.941,-445.5C459.461,-445.5 479.274,-445.5 497.801,-445.5"/>
<polygon fill="midnightblue" stroke="midnightblue" points="441.917,-442 431.917,-445.5 441.917,-449 441.917,-442"/>
</g>
<!-- Node27&#45;&gt;Node28 -->
<g id="edge37" class="edge"><title>Node27&#45;&gt;Node28</title>
<path fill="none" stroke="midnightblue" d="M287.507,-259.794C300.983,-261.498 314.902,-263.258 327.927,-264.905"/>
<polygon fill="midnightblue" stroke="midnightblue" points="287.67,-256.287 277.31,-258.505 286.792,-263.232 287.67,-256.287"/>
</g>
<!-- Node29&#45;&gt;Node30 -->
<g id="edge39" class="edge"><title>Node29&#45;&gt;Node30</title>
<path fill="none" stroke="midnightblue" d="M290.307,-172.148C301.817,-173.603 313.58,-175.091 324.774,-176.506"/>
<polygon fill="midnightblue" stroke="midnightblue" points="290.638,-168.662 280.278,-170.88 289.76,-175.607 290.638,-168.662"/>
</g>
</g>
</svg>
