<?xml version="1.0" encoding="UTF-8" standalone="no"?>
<!DOCTYPE svg PUBLIC "-//W3C//DTD SVG 1.1//EN"
 "http://www.w3.org/Graphics/SVG/1.1/DTD/svg11.dtd">
<!-- Generated by graphviz version 2.38.0 (20140413.2041)
 -->
<!-- Title: Surface::CalculateSize Pages: 1 -->
<svg width="249pt" height="66pt"
 viewBox="0.00 0.00 249.00 66.00" xmlns="http://www.w3.org/2000/svg" xmlns:xlink="http://www.w3.org/1999/xlink">
<g id="graph0" class="graph" transform="scale(1 1) rotate(0) translate(4 62)">
<title>Surface::CalculateSize</title>
<polygon fill="white" stroke="none" points="-4,4 -4,-62 245,-62 245,4 -4,4"/>
<!-- Node8 -->
<g id="node1" class="node"><title>Node8</title>
<polygon fill="#bfbfbf" stroke="black" points="0,-19.5 0,-38.5 116,-38.5 116,-19.5 0,-19.5"/>
<text text-anchor="middle" x="58" y="-26.5" font-family="Helvetica,sans-Serif" font-size="10.00">Surface::CalculateSize</text>
</g>
<!-- Node9 -->
<g id="node2" class="node"><title>Node9</title>
<g id="a_node2"><a xlink:href="class_surface.html#a323ba9165c8635e84eb0c490fe88d846" target="_top" xlink:title="/&lt;============================== ">
<polygon fill="white" stroke="black" points="152,-38.5 152,-57.5 241,-57.5 241,-38.5 152,-38.5"/>
<text text-anchor="middle" x="196.5" y="-45.5" font-family="Helvetica,sans-Serif" font-size="10.00">Surface::Surface</text>
</a>
</g>
</g>
<!-- Node8&#45;&gt;Node9 -->
<g id="edge1" class="edge"><title>Node8&#45;&gt;Node9</title>
<path fill="none" stroke="midnightblue" d="M126.284,-38.3656C134.999,-39.5786 143.735,-40.7946 151.924,-41.9344"/>
<polygon fill="midnightblue" stroke="midnightblue" points="126.484,-34.8598 116.097,-36.9476 125.519,-41.7929 126.484,-34.8598"/>
</g>
<!-- Node10 -->
<g id="node3" class="node"><title>Node10</title>
<g id="a_node3"><a xlink:href="class_surface.html#a5e45e936e3057fa1ddad0c7924767005" target="_top" xlink:title="Surface::Resize">
<polygon fill="white" stroke="black" points="153.5,-0.5 153.5,-19.5 239.5,-19.5 239.5,-0.5 153.5,-0.5"/>
<text text-anchor="middle" x="196.5" y="-7.5" font-family="Helvetica,sans-Serif" font-size="10.00">Surface::Resize</text>
</a>
</g>
</g>
<!-- Node8&#45;&gt;Node10 -->
<g id="edge2" class="edge"><title>Node8&#45;&gt;Node10</title>
<path fill="none" stroke="midnightblue" d="M126.069,-19.6643C135.299,-18.3796 144.558,-17.0909 153.17,-15.8921"/>
<polygon fill="midnightblue" stroke="midnightblue" points="125.519,-16.2071 116.097,-21.0524 126.484,-23.1402 125.519,-16.2071"/>
</g>
</g>
</svg>
