<?xml version="1.0" encoding="UTF-8" standalone="no"?>
<!DOCTYPE svg PUBLIC "-//W3C//DTD SVG 1.1//EN"
 "http://www.w3.org/Graphics/SVG/1.1/DTD/svg11.dtd">
<!-- Generated by graphviz version 2.38.0 (20140413.2041)
 -->
<!-- Title: Surface::Height Pages: 1 -->
<svg width="216pt" height="66pt"
 viewBox="0.00 0.00 216.00 66.00" xmlns="http://www.w3.org/2000/svg" xmlns:xlink="http://www.w3.org/1999/xlink">
<g id="graph0" class="graph" transform="scale(1 1) rotate(0) translate(4 62)">
<title>Surface::Height</title>
<polygon fill="white" stroke="none" points="-4,4 -4,-62 212,-62 212,4 -4,4"/>
<!-- Node19 -->
<g id="node1" class="node"><title>Node19</title>
<polygon fill="#bfbfbf" stroke="black" points="0,-19.5 0,-38.5 83,-38.5 83,-19.5 0,-19.5"/>
<text text-anchor="middle" x="41.5" y="-26.5" font-family="Helvetica,sans-Serif" font-size="10.00">Surface::Height</text>
</g>
<!-- Node20 -->
<g id="node2" class="node"><title>Node20</title>
<g id="a_node2"><a xlink:href="class_surface.html#a323ba9165c8635e84eb0c490fe88d846" target="_top" xlink:title="/&lt;============================== ">
<polygon fill="white" stroke="black" points="119,-38.5 119,-57.5 208,-57.5 208,-38.5 119,-38.5"/>
<text text-anchor="middle" x="163.5" y="-45.5" font-family="Helvetica,sans-Serif" font-size="10.00">Surface::Surface</text>
</a>
</g>
</g>
<!-- Node19&#45;&gt;Node20 -->
<g id="edge1" class="edge"><title>Node19&#45;&gt;Node20</title>
<path fill="none" stroke="midnightblue" d="M93.2491,-37.0353C101.688,-38.3714 110.376,-39.747 118.625,-41.0532"/>
<polygon fill="midnightblue" stroke="midnightblue" points="93.5509,-33.5395 83.1265,-35.4325 92.4561,-40.4534 93.5509,-33.5395"/>
</g>
<!-- Node21 -->
<g id="node3" class="node"><title>Node21</title>
<g id="a_node3"><a xlink:href="class_surface.html#a5e45e936e3057fa1ddad0c7924767005" target="_top" xlink:title="Surface::Resize">
<polygon fill="white" stroke="black" points="120.5,-0.5 120.5,-19.5 206.5,-19.5 206.5,-0.5 120.5,-0.5"/>
<text text-anchor="middle" x="163.5" y="-7.5" font-family="Helvetica,sans-Serif" font-size="10.00">Surface::Resize</text>
</a>
</g>
</g>
<!-- Node19&#45;&gt;Node21 -->
<g id="edge2" class="edge"><title>Node19&#45;&gt;Node21</title>
<path fill="none" stroke="midnightblue" d="M93.1564,-20.9794C102.189,-19.5492 111.511,-18.0732 120.277,-16.6853"/>
<polygon fill="midnightblue" stroke="midnightblue" points="92.4561,-17.5466 83.1265,-22.5675 93.5509,-24.4605 92.4561,-17.5466"/>
</g>
</g>
</svg>
