<?xml version="1.0" encoding="UTF-8" standalone="no"?>
<!DOCTYPE svg PUBLIC "-//W3C//DTD SVG 1.1//EN"
 "http://www.w3.org/Graphics/SVG/1.1/DTD/svg11.dtd">
<!-- Generated by graphviz version 2.38.0 (20140413.2041)
 -->
<!-- Title: Surface::Resize Pages: 1 -->
<svg width="246pt" height="104pt"
 viewBox="0.00 0.00 246.00 104.00" xmlns="http://www.w3.org/2000/svg" xmlns:xlink="http://www.w3.org/1999/xlink">
<g id="graph0" class="graph" transform="scale(1 1) rotate(0) translate(4 100)">
<title>Surface::Resize</title>
<polygon fill="white" stroke="none" points="-4,4 -4,-100 242,-100 242,4 -4,4"/>
<!-- Node61 -->
<g id="node1" class="node"><title>Node61</title>
<polygon fill="#bfbfbf" stroke="black" points="0,-38.5 0,-57.5 86,-57.5 86,-38.5 0,-38.5"/>
<text text-anchor="middle" x="43" y="-45.5" font-family="Helvetica,sans-Serif" font-size="10.00">Surface::Resize</text>
</g>
<!-- Node62 -->
<g id="node2" class="node"><title>Node62</title>
<g id="a_node2"><a xlink:href="class_surface.html#aeb8a8540f415a4d29c440667e8532e91" target="_top" xlink:title="Surface::CalculateSize">
<polygon fill="white" stroke="black" points="122,-76.5 122,-95.5 238,-95.5 238,-76.5 122,-76.5"/>
<text text-anchor="middle" x="180" y="-83.5" font-family="Helvetica,sans-Serif" font-size="10.00">Surface::CalculateSize</text>
</a>
</g>
</g>
<!-- Node61&#45;&gt;Node62 -->
<g id="edge1" class="edge"><title>Node61&#45;&gt;Node62</title>
<path fill="none" stroke="midnightblue" d="M78.0662,-57.589C95.4135,-62.4719 116.702,-68.4643 135.249,-73.685"/>
<polygon fill="midnightblue" stroke="midnightblue" points="134.37,-77.0735 144.945,-76.4141 136.267,-70.3354 134.37,-77.0735"/>
</g>
<!-- Node63 -->
<g id="node3" class="node"><title>Node63</title>
<g id="a_node3"><a xlink:href="class_surface.html#ae76d7c2fa208df6979a77cc60e8105c0" target="_top" xlink:title="Surface::Width">
<polygon fill="white" stroke="black" points="139.5,-38.5 139.5,-57.5 220.5,-57.5 220.5,-38.5 139.5,-38.5"/>
<text text-anchor="middle" x="180" y="-45.5" font-family="Helvetica,sans-Serif" font-size="10.00">Surface::Width</text>
</a>
</g>
</g>
<!-- Node61&#45;&gt;Node63 -->
<g id="edge2" class="edge"><title>Node61&#45;&gt;Node63</title>
<path fill="none" stroke="midnightblue" d="M86.3444,-48C99.9092,-48 115.056,-48 129.107,-48"/>
<polygon fill="midnightblue" stroke="midnightblue" points="129.108,-51.5001 139.108,-48 129.108,-44.5001 129.108,-51.5001"/>
</g>
<!-- Node64 -->
<g id="node4" class="node"><title>Node64</title>
<g id="a_node4"><a xlink:href="class_surface.html#ab901f48d51b3fd427415b580dc15518c" target="_top" xlink:title="Surface::Height">
<polygon fill="white" stroke="black" points="138.5,-0.5 138.5,-19.5 221.5,-19.5 221.5,-0.5 138.5,-0.5"/>
<text text-anchor="middle" x="180" y="-7.5" font-family="Helvetica,sans-Serif" font-size="10.00">Surface::Height</text>
</a>
</g>
</g>
<!-- Node61&#45;&gt;Node64 -->
<g id="edge3" class="edge"><title>Node61&#45;&gt;Node64</title>
<path fill="none" stroke="midnightblue" d="M78.0662,-38.411C95.4135,-33.5281 116.702,-27.5357 135.249,-22.315"/>
<polygon fill="midnightblue" stroke="midnightblue" points="136.267,-25.6646 144.945,-19.5859 134.37,-18.9265 136.267,-25.6646"/>
</g>
</g>
</svg>
