<?xml version="1.0" encoding="UTF-8" standalone="no"?>
<!DOCTYPE svg PUBLIC "-//W3C//DTD SVG 1.1//EN"
 "http://www.w3.org/Graphics/SVG/1.1/DTD/svg11.dtd">
<!-- Generated by graphviz version 2.38.0 (20140413.2041)
 -->
<!-- Title: RigidTrack::on_btnCalibrate_clicked Pages: 1 -->
<svg width="449pt" height="218pt"
 viewBox="0.00 0.00 449.00 218.00" xmlns="http://www.w3.org/2000/svg" xmlns:xlink="http://www.w3.org/1999/xlink">
<g id="graph0" class="graph" transform="scale(1 1) rotate(0) translate(4 214)">
<title>RigidTrack::on_btnCalibrate_clicked</title>
<polygon fill="white" stroke="none" points="-4,4 -4,-214 445,-214 445,4 -4,4"/>
<!-- Node14 -->
<g id="node1" class="node"><title>Node14</title>
<polygon fill="#bfbfbf" stroke="black" points="0,-90 0,-120 136,-120 136,-90 0,-90"/>
<text text-anchor="start" x="8" y="-108" font-family="Helvetica,sans-Serif" font-size="10.00">RigidTrack::on_btnCalibrate</text>
<text text-anchor="middle" x="68" y="-97" font-family="Helvetica,sans-Serif" font-size="10.00">_clicked</text>
</g>
<!-- Node15 -->
<g id="node2" class="node"><title>Node15</title>
<g id="a_node2"><a xlink:href="main_8cpp.html#a5f7c5996cd5a271d0277e0741f73a5b4" target="_top" xlink:title="Start the camera calibration routine that computes the camera matrix and distortion coefficients...">
<polygon fill="white" stroke="black" points="172,-95.5 172,-114.5 259,-114.5 259,-95.5 172,-95.5"/>
<text text-anchor="middle" x="215.5" y="-102.5" font-family="Helvetica,sans-Serif" font-size="10.00">calibrateCamera</text>
</a>
</g>
</g>
<!-- Node14&#45;&gt;Node15 -->
<g id="edge1" class="edge"><title>Node14&#45;&gt;Node15</title>
<path fill="none" stroke="midnightblue" d="M136.213,-105C144.695,-105 153.277,-105 161.496,-105"/>
<polygon fill="midnightblue" stroke="midnightblue" points="161.677,-108.5 171.677,-105 161.677,-101.5 161.677,-108.5"/>
</g>
<!-- Node15&#45;&gt;Node15 -->
<g id="edge7" class="edge"><title>Node15&#45;&gt;Node15</title>
<path fill="none" stroke="midnightblue" d="M192.997,-114.757C182.05,-123.565 189.551,-133 215.5,-133 232.529,-133 241.613,-128.937 242.753,-123.654"/>
<polygon fill="midnightblue" stroke="midnightblue" points="245.8,-121.93 238.003,-114.757 239.625,-125.227 245.8,-121.93"/>
</g>
<!-- Node16 -->
<g id="node3" class="node"><title>Node16</title>
<g id="a_node3"><a xlink:href="classcomm_object.html#aec354c7099b3039083cc4224e071e022" target="_top" xlink:title="commObject::addLog">
<polygon fill="white" stroke="black" points="313,-190.5 313,-209.5 423,-209.5 423,-190.5 313,-190.5"/>
<text text-anchor="middle" x="368" y="-197.5" font-family="Helvetica,sans-Serif" font-size="10.00">commObject::addLog</text>
</a>
</g>
</g>
<!-- Node15&#45;&gt;Node16 -->
<g id="edge2" class="edge"><title>Node15&#45;&gt;Node16</title>
<path fill="none" stroke="midnightblue" d="M223.599,-114.529C236.163,-130.704 263.939,-163.478 295,-181 298.971,-183.24 303.214,-185.223 307.579,-186.978"/>
<polygon fill="midnightblue" stroke="midnightblue" points="306.677,-190.374 317.272,-190.467 309.048,-183.787 306.677,-190.374"/>
</g>
<!-- Node17 -->
<g id="node4" class="node"><title>Node17</title>
<g id="a_node4"><a xlink:href="classcomm_object.html#acfc97f4310e2b7d841ecb8cf8be0088e" target="_top" xlink:title="commObject::progressUpdate">
<polygon fill="white" stroke="black" points="295,-152.5 295,-171.5 441,-171.5 441,-152.5 295,-152.5"/>
<text text-anchor="middle" x="368" y="-159.5" font-family="Helvetica,sans-Serif" font-size="10.00">commObject::progressUpdate</text>
</a>
</g>
</g>
<!-- Node15&#45;&gt;Node17 -->
<g id="edge3" class="edge"><title>Node15&#45;&gt;Node17</title>
<path fill="none" stroke="midnightblue" d="M233.846,-114.6C249.477,-122.957 273.274,-134.96 295,-143 301.517,-145.412 308.471,-147.648 315.392,-149.677"/>
<polygon fill="midnightblue" stroke="midnightblue" points="314.879,-153.168 325.453,-152.496 316.768,-146.427 314.879,-153.168"/>
</g>
<!-- Node18 -->
<g id="node5" class="node"><title>Node18</title>
<g id="a_node5"><a xlink:href="main_8cpp.html#a3e3cc959a7ab6f93ea52863d86373ce5" target="_top" xlink:title="Mat2QPixmap">
<polygon fill="white" stroke="black" points="328.5,-114.5 328.5,-133.5 407.5,-133.5 407.5,-114.5 328.5,-114.5"/>
<text text-anchor="middle" x="368" y="-121.5" font-family="Helvetica,sans-Serif" font-size="10.00">Mat2QPixmap</text>
</a>
</g>
</g>
<!-- Node15&#45;&gt;Node18 -->
<g id="edge4" class="edge"><title>Node15&#45;&gt;Node18</title>
<path fill="none" stroke="midnightblue" d="M259.225,-110.394C277.641,-112.719 299.275,-115.45 318.309,-117.853"/>
<polygon fill="midnightblue" stroke="midnightblue" points="317.926,-121.332 328.285,-119.112 318.802,-114.387 317.926,-121.332"/>
</g>
<!-- Node19 -->
<g id="node6" class="node"><title>Node19</title>
<g id="a_node6"><a xlink:href="classcomm_object.html#a6f81522c2aa1668fa402f08710e6206b" target="_top" xlink:title="commObject::changeImage">
<polygon fill="white" stroke="black" points="300,-76.5 300,-95.5 436,-95.5 436,-76.5 300,-76.5"/>
<text text-anchor="middle" x="368" y="-83.5" font-family="Helvetica,sans-Serif" font-size="10.00">commObject::changeImage</text>
</a>
</g>
</g>
<!-- Node15&#45;&gt;Node19 -->
<g id="edge5" class="edge"><title>Node15&#45;&gt;Node19</title>
<path fill="none" stroke="midnightblue" d="M259.225,-99.6062C268.84,-98.3923 279.332,-97.0677 289.873,-95.7369"/>
<polygon fill="midnightblue" stroke="midnightblue" points="290.485,-99.1875 299.968,-94.4625 289.609,-92.2427 290.485,-99.1875"/>
</g>
<!-- Node20 -->
<g id="node7" class="node"><title>Node20</title>
<g id="a_node7"><a xlink:href="main_8cpp.html#a0a7f48017dbb3d64bfc1a171631ad7d7" target="_top" xlink:title="calcBoardCornerPositions">
<polygon fill="white" stroke="black" points="303.5,-38.5 303.5,-57.5 432.5,-57.5 432.5,-38.5 303.5,-38.5"/>
<text text-anchor="middle" x="368" y="-45.5" font-family="Helvetica,sans-Serif" font-size="10.00">calcBoardCornerPositions</text>
</a>
</g>
</g>
<!-- Node15&#45;&gt;Node20 -->
<g id="edge6" class="edge"><title>Node15&#45;&gt;Node20</title>
<path fill="none" stroke="midnightblue" d="M233.846,-95.4C249.477,-87.0428 273.274,-75.0397 295,-67 301.517,-64.5885 308.471,-62.352 315.392,-60.3234"/>
<polygon fill="midnightblue" stroke="midnightblue" points="316.768,-63.5726 325.453,-57.5038 314.879,-56.8323 316.768,-63.5726"/>
</g>
<!-- Node21 -->
<g id="node8" class="node"><title>Node21</title>
<g id="a_node8"><a xlink:href="classcomm_object.html#a1f4b8dd22ecc46bab619f6b1fe1a5144" target="_top" xlink:title="commObject::changeStatus">
<polygon fill="white" stroke="black" points="299,-0.5 299,-19.5 437,-19.5 437,-0.5 299,-0.5"/>
<text text-anchor="middle" x="368" y="-7.5" font-family="Helvetica,sans-Serif" font-size="10.00">commObject::changeStatus</text>
</a>
</g>
</g>
<!-- Node15&#45;&gt;Node21 -->
<g id="edge8" class="edge"><title>Node15&#45;&gt;Node21</title>
<path fill="none" stroke="midnightblue" d="M223.599,-95.4706C236.163,-79.2957 263.939,-46.5217 295,-29 298.971,-26.76 303.214,-24.7766 307.579,-23.0216"/>
<polygon fill="midnightblue" stroke="midnightblue" points="309.048,-26.2129 317.272,-19.5334 306.677,-19.6265 309.048,-26.2129"/>
</g>
</g>
</svg>
