<?xml version="1.0" encoding="UTF-8" standalone="no"?>
<!DOCTYPE svg PUBLIC "-//W3C//DTD SVG 1.1//EN"
 "http://www.w3.org/Graphics/SVG/1.1/DTD/svg11.dtd">
<!-- Generated by graphviz version 2.38.0 (20140413.2041)
 -->
<!-- Title: Surface::PixelSpan Pages: 1 -->
<!--zoomable 242 -->
<svg id="main" version="1.1" xmlns="http://www.w3.org/2000/svg" xmlns:xlink="http://www.w3.org/1999/xlink" xml:space="preserve" onload="init(evt)">
<style type="text/css"><![CDATA[
.edge:hover path { stroke: red; }
.edge:hover polygon { stroke: red; fill: red; }
]]></style>
<script type="text/javascript"><![CDATA[
var edges = document.getElementsByTagName('g');
if (edges && edges.length) {
  for (var i=0;i<edges.length;i++) {
    if (edges[i].id.substr(0,4)=='edge') {
      edges[i].setAttribute('class','edge');
    }
  }
}
]]></script>
        <defs>
                <circle id="rim" cx="0" cy="0" r="7"/>
                <circle id="rim2" cx="0" cy="0" r="3.5"/>
                <g id="zoomPlus">
                        <use xlink:href="#rim" fill="#404040">
                                <set attributeName="fill" to="#808080" begin="zoomplus.mouseover" end="zoomplus.mouseout"/>
                        </use>
                        <path d="M-4,0h8M0,-4v8" fill="none" stroke="white" stroke-width="1.5" pointer-events="none"/>
                </g>
                <g id="zoomMin">
                        <use xlink:href="#rim" fill="#404040">
                                <set attributeName="fill" to="#808080" begin="zoomminus.mouseover" end="zoomminus.mouseout"/>
                        </use>
                        <path d="M-4,0h8" fill="none" stroke="white" stroke-width="1.5" pointer-events="none"/>
                </g>
                <g id="dirArrow">
                        <path fill="none" stroke="white" stroke-width="1.5" d="M0,-3.0v7 M-2.5,-0.5L0,-3.0L2.5,-0.5"/>
                </g>
               <g id="resetDef">
                       <use xlink:href="#rim2" fill="#404040">
                               <set attributeName="fill" to="#808080" begin="reset.mouseover" end="reset.mouseout"/>
                       </use>
               </g>
        </defs>

<script type="text/javascript">
var viewWidth = 889;
var viewHeight = 242;
var sectionId = 'dynsection-5';
</script>
<script xlink:href="svgpan.js"/>
<svg id="graph" class="graph">
<g id="viewport">
<title>Surface::PixelSpan</title>
<polygon fill="white" stroke="none" points="-4,4 -4,-238.475 885,-238.475 885,4 -4,4"/>
<!-- Node22 -->
<g id="node1" class="node"><title>Node22</title>
<polygon fill="#bfbfbf" stroke="black" points="0,-171.5 0,-190.5 100,-190.5 100,-171.5 0,-171.5"/>
<text text-anchor="middle" x="50" y="-178.5" font-family="Helvetica,sans-Serif" font-size="10.00">Surface::PixelSpan</text>
</g>
<!-- Node23 -->
<g id="node2" class="node"><title>Node23</title>
<g id="a_node2"><a xlink:href="supportcode_8h.html#ac43c2dc16b0859b03a4f7d04a7e97d3c" target="_top" xlink:title="DrawGLScene">
<polygon fill="white" stroke="black" points="136,-171.5 136,-190.5 215,-190.5 215,-171.5 136,-171.5"/>
<text text-anchor="middle" x="175.5" y="-178.5" font-family="Helvetica,sans-Serif" font-size="10.00">DrawGLScene</text>
</a>
</g>
</g>
<!-- Node22&#45;&gt;Node23 -->
<g id="edge1" class="edge"><title>Node22&#45;&gt;Node23</title>
<path fill="none" stroke="midnightblue" d="M100.165,-181C108.582,-181 117.324,-181 125.731,-181"/>
<polygon fill="midnightblue" stroke="midnightblue" points="125.773,-184.5 135.773,-181 125.773,-177.5 125.773,-184.5"/>
</g>
<!-- Node24 -->
<g id="node3" class="node"><title>Node24</title>
<g id="a_node3"><a xlink:href="class_surface.html#a2cd8789d26457187b8af4be8c178e9d4" target="_top" xlink:title="Surface::GetTexture">
<polygon fill="white" stroke="black" points="257,-209.5 257,-228.5 361,-228.5 361,-209.5 257,-209.5"/>
<text text-anchor="middle" x="309" y="-216.5" font-family="Helvetica,sans-Serif" font-size="10.00">Surface::GetTexture</text>
</a>
</g>
</g>
<!-- Node23&#45;&gt;Node24 -->
<g id="edge2" class="edge"><title>Node23&#45;&gt;Node24</title>
<path fill="none" stroke="midnightblue" d="M209.683,-190.589C226.503,-195.449 247.126,-201.409 265.134,-206.613"/>
<polygon fill="midnightblue" stroke="midnightblue" points="264.249,-210 274.828,-209.414 266.192,-203.275 264.249,-210"/>
</g>
<!-- Node25 -->
<g id="node4" class="node"><title>Node25</title>
<g id="a_node4"><a xlink:href="class_surface.html#a4cbf23ea0c8ff533271109fc2a1a863d" target="_top" xlink:title="Surface::SurfaceWidth">
<polygon fill="white" stroke="black" points="252,-171.5 252,-190.5 366,-190.5 366,-171.5 252,-171.5"/>
<text text-anchor="middle" x="309" y="-178.5" font-family="Helvetica,sans-Serif" font-size="10.00">Surface::SurfaceWidth</text>
</a>
</g>
</g>
<!-- Node23&#45;&gt;Node25 -->
<g id="edge3" class="edge"><title>Node23&#45;&gt;Node25</title>
<path fill="none" stroke="midnightblue" d="M215.243,-181C223.61,-181 232.683,-181 241.768,-181"/>
<polygon fill="midnightblue" stroke="midnightblue" points="241.994,-184.5 251.994,-181 241.994,-177.5 241.994,-184.5"/>
</g>
<!-- Node26 -->
<g id="node5" class="node"><title>Node26</title>
<g id="a_node5"><a xlink:href="class_surface.html#a377c59f6ef131d4b879cda93578a3efa" target="_top" xlink:title="Surface::SurfaceHeight">
<polygon fill="white" stroke="black" points="251,-133.5 251,-152.5 367,-152.5 367,-133.5 251,-133.5"/>
<text text-anchor="middle" x="309" y="-140.5" font-family="Helvetica,sans-Serif" font-size="10.00">Surface::SurfaceHeight</text>
</a>
</g>
</g>
<!-- Node23&#45;&gt;Node26 -->
<g id="edge4" class="edge"><title>Node23&#45;&gt;Node26</title>
<path fill="none" stroke="midnightblue" d="M209.683,-171.411C226.503,-166.551 247.126,-160.591 265.134,-155.387"/>
<polygon fill="midnightblue" stroke="midnightblue" points="266.192,-158.725 274.828,-152.586 264.249,-152 266.192,-158.725"/>
</g>
<!-- Node27 -->
<g id="node6" class="node"><title>Node27</title>
<g id="a_node6"><a xlink:href="class_surface.html#a728571d0386e9690ce1760931562c72b" target="_top" xlink:title="Surface::PutPixel">
<polygon fill="white" stroke="black" points="403,-133.5 403,-152.5 495,-152.5 495,-133.5 403,-133.5"/>
<text text-anchor="middle" x="449" y="-140.5" font-family="Helvetica,sans-Serif" font-size="10.00">Surface::PutPixel</text>
</a>
</g>
</g>
<!-- Node26&#45;&gt;Node27 -->
<g id="edge5" class="edge"><title>Node26&#45;&gt;Node27</title>
<path fill="none" stroke="midnightblue" d="M367.326,-143C375.749,-143 384.412,-143 392.791,-143"/>
<polygon fill="midnightblue" stroke="midnightblue" points="392.838,-146.5 402.838,-143 392.837,-139.5 392.838,-146.5"/>
</g>
<!-- Node28 -->
<g id="node7" class="node"><title>Node28</title>
<g id="a_node7"><a xlink:href="supportcode_8cpp.html#a0ddf1224851353fc92bfbff6f499fa97" target="_top" xlink:title="main initialises the GUI and values for the marker position etc ">
<polygon fill="white" stroke="black" points="531,-133.5 531,-152.5 569,-152.5 569,-133.5 531,-133.5"/>
<text text-anchor="middle" x="550" y="-140.5" font-family="Helvetica,sans-Serif" font-size="10.00">main</text>
</a>
</g>
</g>
<!-- Node27&#45;&gt;Node28 -->
<g id="edge6" class="edge"><title>Node27&#45;&gt;Node28</title>
<path fill="none" stroke="midnightblue" d="M495.154,-143C503.849,-143 512.724,-143 520.696,-143"/>
<polygon fill="midnightblue" stroke="midnightblue" points="520.903,-146.5 530.903,-143 520.903,-139.5 520.903,-146.5"/>
</g>
<!-- Node29 -->
<g id="node8" class="node"><title>Node29</title>
<g id="a_node8"><a xlink:href="classcomm_object.html#aec354c7099b3039083cc4224e071e022" target="_top" xlink:title="commObject::addLog">
<polygon fill="white" stroke="black" points="758,-190.5 758,-209.5 868,-209.5 868,-190.5 758,-190.5"/>
<text text-anchor="middle" x="813" y="-197.5" font-family="Helvetica,sans-Serif" font-size="10.00">commObject::addLog</text>
</a>
</g>
</g>
<!-- Node28&#45;&gt;Node29 -->
<g id="edge7" class="edge"><title>Node28&#45;&gt;Node29</title>
<path fill="none" stroke="midnightblue" d="M554.468,-152.737C561.164,-169.862 577.673,-204.894 605,-219 661.259,-248.041 737.623,-228.356 780.116,-213.089"/>
<polygon fill="midnightblue" stroke="midnightblue" points="781.509,-216.305 789.655,-209.53 779.062,-209.747 781.509,-216.305"/>
</g>
<!-- Node30 -->
<g id="node9" class="node"><title>Node30</title>
<g id="a_node9"><a xlink:href="main_8cpp.html#ad19da4e648bbdc80d3123eb94711588e" target="_top" xlink:title="setHeadingOffset">
<polygon fill="white" stroke="black" points="611.5,-38.5 611.5,-57.5 702.5,-57.5 702.5,-38.5 611.5,-38.5"/>
<text text-anchor="middle" x="657" y="-45.5" font-family="Helvetica,sans-Serif" font-size="10.00">setHeadingOffset</text>
</a>
</g>
</g>
<!-- Node28&#45;&gt;Node30 -->
<g id="edge8" class="edge"><title>Node28&#45;&gt;Node30</title>
<path fill="none" stroke="midnightblue" d="M555.422,-133.43C563.245,-117.489 580.993,-85.4338 605,-67 607.319,-65.2197 609.821,-63.5922 612.43,-62.1066"/>
<polygon fill="midnightblue" stroke="midnightblue" points="614.175,-65.1488 621.595,-57.5863 611.079,-58.8709 614.175,-65.1488"/>
</g>
<!-- Node31 -->
<g id="node10" class="node"><title>Node31</title>
<g id="a_node10"><a xlink:href="main_8cpp.html#af39fa6c3a36ad6bc24a327db7a9d73c2" target="_top" xlink:title="loadCameraPosition">
<polygon fill="white" stroke="black" points="605,-190.5 605,-209.5 709,-209.5 709,-190.5 605,-190.5"/>
<text text-anchor="middle" x="657" y="-197.5" font-family="Helvetica,sans-Serif" font-size="10.00">loadCameraPosition</text>
</a>
</g>
</g>
<!-- Node28&#45;&gt;Node31 -->
<g id="edge9" class="edge"><title>Node28&#45;&gt;Node31</title>
<path fill="none" stroke="midnightblue" d="M562.863,-152.697C573.438,-161.004 589.584,-172.878 605,-181 608.762,-182.982 612.777,-184.854 616.84,-186.594"/>
<polygon fill="midnightblue" stroke="midnightblue" points="615.727,-189.919 626.311,-190.403 618.339,-183.425 615.727,-189.919"/>
</g>
<!-- Node32 -->
<g id="node11" class="node"><title>Node32</title>
<g id="a_node11"><a xlink:href="main_8cpp.html#ad39626702ff983d5fdab4b703bfaf964" target="_top" xlink:title="loadCalibration">
<polygon fill="white" stroke="black" points="617,-152.5 617,-171.5 697,-171.5 697,-152.5 617,-152.5"/>
<text text-anchor="middle" x="657" y="-159.5" font-family="Helvetica,sans-Serif" font-size="10.00">loadCalibration</text>
</a>
</g>
</g>
<!-- Node28&#45;&gt;Node32 -->
<g id="edge11" class="edge"><title>Node28&#45;&gt;Node32</title>
<path fill="none" stroke="midnightblue" d="M569.29,-146.31C579.684,-148.19 593.247,-150.645 606.549,-153.052"/>
<polygon fill="midnightblue" stroke="midnightblue" points="606.149,-156.536 616.612,-154.873 607.396,-149.648 606.149,-156.536"/>
</g>
<!-- Node33 -->
<g id="node12" class="node"><title>Node33</title>
<g id="a_node12"><a xlink:href="main_8cpp.html#a56c7f641859cb2b6b99b0947d03be800" target="_top" xlink:title="loadMarkerConfig">
<polygon fill="white" stroke="black" points="611,-114.5 611,-133.5 703,-133.5 703,-114.5 611,-114.5"/>
<text text-anchor="middle" x="657" y="-121.5" font-family="Helvetica,sans-Serif" font-size="10.00">loadMarkerConfig</text>
</a>
</g>
</g>
<!-- Node28&#45;&gt;Node33 -->
<g id="edge13" class="edge"><title>Node28&#45;&gt;Node33</title>
<path fill="none" stroke="midnightblue" d="M569.29,-139.69C578.197,-138.079 589.431,-136.046 600.833,-133.983"/>
<polygon fill="midnightblue" stroke="midnightblue" points="601.625,-137.396 610.842,-132.171 600.379,-130.508 601.625,-137.396"/>
</g>
<!-- Node38 -->
<g id="node17" class="node"><title>Node38</title>
<g id="a_node17"><a xlink:href="main_8cpp.html#a847c0fbd3e513fb76ff145b31a9f5c37" target="_top" xlink:title="testAlgorithms">
<polygon fill="white" stroke="black" points="617,-76.5 617,-95.5 697,-95.5 697,-76.5 617,-76.5"/>
<text text-anchor="middle" x="657" y="-83.5" font-family="Helvetica,sans-Serif" font-size="10.00">testAlgorithms</text>
</a>
</g>
</g>
<!-- Node28&#45;&gt;Node38 -->
<g id="edge19" class="edge"><title>Node28&#45;&gt;Node38</title>
<path fill="none" stroke="midnightblue" d="M562.863,-133.303C573.438,-124.996 589.584,-113.122 605,-105 608.762,-103.018 612.777,-101.146 616.84,-99.4059"/>
<polygon fill="midnightblue" stroke="midnightblue" points="618.339,-102.575 626.311,-95.5971 615.727,-96.0809 618.339,-102.575"/>
</g>
<!-- Node31&#45;&gt;Node29 -->
<g id="edge10" class="edge"><title>Node31&#45;&gt;Node29</title>
<path fill="none" stroke="midnightblue" d="M709.28,-200C721.569,-200 734.846,-200 747.644,-200"/>
<polygon fill="midnightblue" stroke="midnightblue" points="747.776,-203.5 757.776,-200 747.776,-196.5 747.776,-203.5"/>
</g>
<!-- Node32&#45;&gt;Node29 -->
<g id="edge12" class="edge"><title>Node32&#45;&gt;Node29</title>
<path fill="none" stroke="midnightblue" d="M696.861,-171.589C717.091,-176.581 742.021,-182.732 763.504,-188.033"/>
<polygon fill="midnightblue" stroke="midnightblue" points="762.871,-191.482 773.419,-190.48 764.548,-184.686 762.871,-191.482"/>
</g>
<!-- Node33&#45;&gt;Node29 -->
<g id="edge14" class="edge"><title>Node33&#45;&gt;Node29</title>
<path fill="none" stroke="midnightblue" d="M690.374,-133.519C696.81,-136.101 703.326,-139.246 709,-143 728.402,-155.837 725.098,-168.952 745,-181 748.607,-183.184 752.475,-185.125 756.465,-186.85"/>
<polygon fill="midnightblue" stroke="midnightblue" points="755.344,-190.168 765.934,-190.492 757.857,-183.635 755.344,-190.168"/>
</g>
<!-- Node34 -->
<g id="node13" class="node"><title>Node34</title>
<g id="a_node13"><a xlink:href="classcomm_object.html#a7552116eb5e18c49c6dcf943de29af7a" target="_top" xlink:title="commObject::enableP3P">
<polygon fill="white" stroke="black" points="750.5,-152.5 750.5,-171.5 875.5,-171.5 875.5,-152.5 750.5,-152.5"/>
<text text-anchor="middle" x="813" y="-159.5" font-family="Helvetica,sans-Serif" font-size="10.00">commObject::enableP3P</text>
</a>
</g>
</g>
<!-- Node33&#45;&gt;Node34 -->
<g id="edge15" class="edge"><title>Node33&#45;&gt;Node34</title>
<path fill="none" stroke="midnightblue" d="M696.861,-133.589C717.091,-138.581 742.021,-144.732 763.504,-150.033"/>
<polygon fill="midnightblue" stroke="midnightblue" points="762.871,-153.482 773.419,-152.48 764.548,-146.686 762.871,-153.482"/>
</g>
<!-- Node35 -->
<g id="node14" class="node"><title>Node35</title>
<g id="a_node14"><a xlink:href="main_8cpp.html#a2104a5d9d6b9f1e29bc4cd858c59882e" target="_top" xlink:title="projectCoordinateFrame">
<polygon fill="white" stroke="black" points="753,-114.5 753,-133.5 873,-133.5 873,-114.5 753,-114.5"/>
<text text-anchor="middle" x="813" y="-121.5" font-family="Helvetica,sans-Serif" font-size="10.00">projectCoordinateFrame</text>
</a>
</g>
</g>
<!-- Node33&#45;&gt;Node35 -->
<g id="edge16" class="edge"><title>Node33&#45;&gt;Node35</title>
<path fill="none" stroke="midnightblue" d="M703.372,-124C715.745,-124 729.436,-124 742.81,-124"/>
<polygon fill="midnightblue" stroke="midnightblue" points="742.948,-127.5 752.948,-124 742.948,-120.5 742.948,-127.5"/>
</g>
<!-- Node36 -->
<g id="node15" class="node"><title>Node36</title>
<g id="a_node15"><a xlink:href="main_8cpp.html#a3e3cc959a7ab6f93ea52863d86373ce5" target="_top" xlink:title="Mat2QPixmap">
<polygon fill="white" stroke="black" points="773.5,-76.5 773.5,-95.5 852.5,-95.5 852.5,-76.5 773.5,-76.5"/>
<text text-anchor="middle" x="813" y="-83.5" font-family="Helvetica,sans-Serif" font-size="10.00">Mat2QPixmap</text>
</a>
</g>
</g>
<!-- Node33&#45;&gt;Node36 -->
<g id="edge17" class="edge"><title>Node33&#45;&gt;Node36</title>
<path fill="none" stroke="midnightblue" d="M696.861,-114.411C717.091,-109.419 742.021,-103.268 763.504,-97.9666"/>
<polygon fill="midnightblue" stroke="midnightblue" points="764.548,-101.314 773.419,-95.5201 762.871,-94.5177 764.548,-101.314"/>
</g>
<!-- Node37 -->
<g id="node16" class="node"><title>Node37</title>
<g id="a_node16"><a xlink:href="classcomm_object.html#a6f81522c2aa1668fa402f08710e6206b" target="_top" xlink:title="commObject::changeImage">
<polygon fill="white" stroke="black" points="745,-38.5 745,-57.5 881,-57.5 881,-38.5 745,-38.5"/>
<text text-anchor="middle" x="813" y="-45.5" font-family="Helvetica,sans-Serif" font-size="10.00">commObject::changeImage</text>
</a>
</g>
</g>
<!-- Node33&#45;&gt;Node37 -->
<g id="edge18" class="edge"><title>Node33&#45;&gt;Node37</title>
<path fill="none" stroke="midnightblue" d="M690.374,-114.481C696.81,-111.899 703.326,-108.754 709,-105 728.402,-92.1627 725.098,-79.0482 745,-67 748.607,-64.8163 752.475,-62.875 756.465,-61.1505"/>
<polygon fill="midnightblue" stroke="midnightblue" points="757.857,-64.3651 765.934,-57.5082 755.344,-57.8318 757.857,-64.3651"/>
</g>
<!-- Node38&#45;&gt;Node29 -->
<g id="edge20" class="edge"><title>Node38&#45;&gt;Node29</title>
<path fill="none" stroke="midnightblue" d="M694.563,-95.6173C699.803,-98.0867 704.823,-101.167 709,-105 736.537,-130.271 716.471,-156.854 745,-181 747.019,-182.709 749.182,-184.264 751.45,-185.68"/>
<polygon fill="midnightblue" stroke="midnightblue" points="750.149,-188.949 760.633,-190.478 753.391,-182.745 750.149,-188.949"/>
</g>
<!-- Node38&#45;&gt;Node35 -->
<g id="edge21" class="edge"><title>Node38&#45;&gt;Node35</title>
<path fill="none" stroke="midnightblue" d="M696.861,-95.589C717.091,-100.581 742.021,-106.732 763.504,-112.033"/>
<polygon fill="midnightblue" stroke="midnightblue" points="762.871,-115.482 773.419,-114.48 764.548,-108.686 762.871,-115.482"/>
</g>
<!-- Node38&#45;&gt;Node36 -->
<g id="edge22" class="edge"><title>Node38&#45;&gt;Node36</title>
<path fill="none" stroke="midnightblue" d="M697.259,-86C717.324,-86 741.931,-86 763.205,-86"/>
<polygon fill="midnightblue" stroke="midnightblue" points="763.346,-89.5001 773.346,-86 763.346,-82.5001 763.346,-89.5001"/>
</g>
<!-- Node38&#45;&gt;Node37 -->
<g id="edge23" class="edge"><title>Node38&#45;&gt;Node37</title>
<path fill="none" stroke="midnightblue" d="M696.861,-76.411C717.091,-71.4191 742.021,-65.2676 763.504,-59.9666"/>
<polygon fill="midnightblue" stroke="midnightblue" points="764.548,-63.3139 773.419,-57.5201 762.871,-56.5177 764.548,-63.3139"/>
</g>
<!-- Node39 -->
<g id="node18" class="node"><title>Node39</title>
<g id="a_node18"><a xlink:href="main_8cpp.html#af6430ad2592a955a3618549547dfc5be" target="_top" xlink:title="drawPositionText">
<polygon fill="white" stroke="black" points="767.5,-0.5 767.5,-19.5 858.5,-19.5 858.5,-0.5 767.5,-0.5"/>
<text text-anchor="middle" x="813" y="-7.5" font-family="Helvetica,sans-Serif" font-size="10.00">drawPositionText</text>
</a>
</g>
</g>
<!-- Node38&#45;&gt;Node39 -->
<g id="edge24" class="edge"><title>Node38&#45;&gt;Node39</title>
<path fill="none" stroke="midnightblue" d="M690.374,-76.4812C696.81,-73.8992 703.326,-70.7539 709,-67 728.402,-54.1627 725.098,-41.0482 745,-29 749.053,-26.5463 753.435,-24.3985 757.951,-22.5206"/>
<polygon fill="midnightblue" stroke="midnightblue" points="759.188,-25.795 767.344,-19.0333 756.751,-19.2326 759.188,-25.795"/>
</g>
</g>
</svg>
        <g id="navigator" transform="translate(0 0)" fill="#404254">
                <rect fill="#f2f5e9" fill-opacity="0.5" stroke="#606060" stroke-width=".5" x="0" y="0" width="60" height="60"/>
                <use id="zoomplus" xlink:href="#zoomPlus" x="17" y="9" onmousedown="handleZoom(evt,'in')"/>
                <use id="zoomminus" xlink:href="#zoomMin" x="42" y="9" onmousedown="handleZoom(evt,'out')"/>
                <use id="reset" xlink:href="#resetDef" x="30" y="36" onmousedown="handleReset()"/>
                <g id="arrowUp" xlink:href="#dirArrow" transform="translate(30 24)" onmousedown="handlePan(0,-1)">
                  <use xlink:href="#rim" fill="#404040">
                        <set attributeName="fill" to="#808080" begin="arrowUp.mouseover" end="arrowUp.mouseout"/>
                  </use>
                  <path fill="none" stroke="white" stroke-width="1.5" d="M0,-3.0v7 M-2.5,-0.5L0,-3.0L2.5,-0.5"/>
                </g>
                <g id="arrowRight" xlink:href="#dirArrow" transform="rotate(90) translate(36 -43)" onmousedown="handlePan(1,0)">
                  <use xlink:href="#rim" fill="#404040">
                        <set attributeName="fill" to="#808080" begin="arrowRight.mouseover" end="arrowRight.mouseout"/>
                  </use>
                  <path fill="none" stroke="white" stroke-width="1.5" d="M0,-3.0v7 M-2.5,-0.5L0,-3.0L2.5,-0.5"/>
                </g>
                <g id="arrowDown" xlink:href="#dirArrow" transform="rotate(180) translate(-30 -48)" onmousedown="handlePan(0,1)">
                  <use xlink:href="#rim" fill="#404040">
                        <set attributeName="fill" to="#808080" begin="arrowDown.mouseover" end="arrowDown.mouseout"/>
                  </use>
                  <path fill="none" stroke="white" stroke-width="1.5" d="M0,-3.0v7 M-2.5,-0.5L0,-3.0L2.5,-0.5"/>
                </g>
                <g id="arrowLeft" xlink:href="#dirArrow" transform="rotate(270) translate(-36 17)" onmousedown="handlePan(-1,0)">
                  <use xlink:href="#rim" fill="#404040">
                        <set attributeName="fill" to="#808080" begin="arrowLeft.mouseover" end="arrowLeft.mouseout"/>
                  </use>
                  <path fill="none" stroke="white" stroke-width="1.5" d="M0,-3.0v7 M-2.5,-0.5L0,-3.0L2.5,-0.5"/>
                </g>
        </g>
        <svg viewBox="0 0 15 15" width="100%" height="30px" preserveAspectRatio="xMaxYMin meet">
         <g id="arrow_out" transform="scale(0.3 0.3)">
          <a xlink:href="class_surface_abe0d542404575c60911d6ad4219560f9_cgraph_org.svg" target="_base">
           <rect id="button" ry="5" rx="5" y="6" x="6" height="38" width="38"
                fill="#f2f5e9" fill-opacity="0.5" stroke="#606060" stroke-width="1.0"/>
           <path id="arrow"
             d="M 11.500037,31.436501 C 11.940474,20.09759 22.043105,11.32322 32.158766,21.979434 L 37.068811,17.246167 C 37.068811,17.246167 37.088388,32 37.088388,32 L 22.160133,31.978069 C 22.160133,31.978069 26.997745,27.140456 26.997745,27.140456 C 18.528582,18.264221 13.291696,25.230495 11.500037,31.436501 z"
             style="fill:#404040;"/>
          </a>
         </g>
        </svg>
</svg>
