<?xml version="1.0" encoding="UTF-8" standalone="no"?>
<!DOCTYPE svg PUBLIC "-//W3C//DTD SVG 1.1//EN"
 "http://www.w3.org/Graphics/SVG/1.1/DTD/svg11.dtd">
<!-- Generated by graphviz version 2.38.0 (20140413.2041)
 -->
<!-- Title: RigidTrack/communication.cpp Pages: 1 -->
<svg width="400pt" height="140pt"
 viewBox="0.00 0.00 399.70 140.00" xmlns="http://www.w3.org/2000/svg" xmlns:xlink="http://www.w3.org/1999/xlink">
<g id="graph0" class="graph" transform="scale(1 1) rotate(0) translate(4 136)">
<title>RigidTrack/communication.cpp</title>
<polygon fill="white" stroke="none" points="-4,4 -4,-136 395.702,-136 395.702,4 -4,4"/>
<!-- Node0 -->
<g id="node1" class="node"><title>Node0</title>
<polygon fill="#bfbfbf" stroke="black" points="130.072,-112.5 130.072,-131.5 280.072,-131.5 280.072,-112.5 130.072,-112.5"/>
<text text-anchor="middle" x="205.072" y="-119.5" font-family="Helvetica,sans-Serif" font-size="10.00">RigidTrack/communication.cpp</text>
</g>
<!-- Node1 -->
<g id="node2" class="node"><title>Node1</title>
<polygon fill="white" stroke="#bfbfbf" points="62.5724,-0.5 62.5724,-19.5 115.572,-19.5 115.572,-0.5 62.5724,-0.5"/>
<text text-anchor="middle" x="89.0724" y="-7.5" font-family="Helvetica,sans-Serif" font-size="10.00">QObject</text>
</g>
<!-- Node0&#45;&gt;Node1 -->
<g id="edge1" class="edge"><title>Node0&#45;&gt;Node1</title>
<path fill="none" stroke="midnightblue" d="M130.009,-113.812C80.0364,-107.296 20.7745,-95.6276 5.07241,-76 -13.0135,-53.3926 22.6819,-34.0661 52.9922,-22.4999"/>
<polygon fill="midnightblue" stroke="midnightblue" points="54.3638,-25.7256 62.569,-19.023 51.9749,-19.1458 54.3638,-25.7256"/>
</g>
<!-- Node2 -->
<g id="node3" class="node"><title>Node2</title>
<polygon fill="white" stroke="#bfbfbf" points="14.0724,-56.5 14.0724,-75.5 64.0724,-75.5 64.0724,-56.5 14.0724,-56.5"/>
<text text-anchor="middle" x="39.0724" y="-63.5" font-family="Helvetica,sans-Serif" font-size="10.00">QString</text>
</g>
<!-- Node0&#45;&gt;Node2 -->
<g id="edge2" class="edge"><title>Node0&#45;&gt;Node2</title>
<path fill="none" stroke="midnightblue" d="M178.769,-112.444C150.392,-103.212 105.076,-88.4712 73.7912,-78.2941"/>
<polygon fill="midnightblue" stroke="midnightblue" points="74.7582,-74.9281 64.1659,-75.1629 72.5927,-81.5848 74.7582,-74.9281"/>
</g>
<!-- Node3 -->
<g id="node4" class="node"><title>Node3</title>
<polygon fill="white" stroke="#bfbfbf" points="82.0724,-56.5 82.0724,-75.5 204.072,-75.5 204.072,-56.5 82.0724,-56.5"/>
<text text-anchor="middle" x="143.072" y="-63.5" font-family="Helvetica,sans-Serif" font-size="10.00">QtWidgets/QApplication</text>
</g>
<!-- Node0&#45;&gt;Node3 -->
<g id="edge3" class="edge"><title>Node0&#45;&gt;Node3</title>
<path fill="none" stroke="midnightblue" d="M195.111,-112.324C185.946,-104.341 172.135,-92.3128 161.044,-82.6529"/>
<polygon fill="midnightblue" stroke="midnightblue" points="163.055,-79.7624 153.215,-75.8339 158.457,-85.041 163.055,-79.7624"/>
</g>
<!-- Node4 -->
<g id="node5" class="node"><title>Node4</title>
<polygon fill="white" stroke="#bfbfbf" points="306.072,-0.5 306.072,-19.5 368.072,-19.5 368.072,-0.5 306.072,-0.5"/>
<text text-anchor="middle" x="337.072" y="-7.5" font-family="Helvetica,sans-Serif" font-size="10.00">qpixmap.h</text>
</g>
<!-- Node0&#45;&gt;Node4 -->
<g id="edge4" class="edge"><title>Node0&#45;&gt;Node4</title>
<path fill="none" stroke="midnightblue" d="M276.119,-112.479C321.047,-105.464 373.178,-93.7482 387.072,-76 400.695,-58.5984 379.414,-38.4016 360.549,-25.1974"/>
<polygon fill="midnightblue" stroke="midnightblue" points="362.455,-22.2617 352.185,-19.6578 358.59,-28.0978 362.455,-22.2617"/>
</g>
<!-- Node5 -->
<g id="node6" class="node"><title>Node5</title>
<polygon fill="white" stroke="#bfbfbf" points="332.072,-56.5 332.072,-75.5 378.072,-75.5 378.072,-56.5 332.072,-56.5"/>
<text text-anchor="middle" x="355.072" y="-63.5" font-family="Helvetica,sans-Serif" font-size="10.00">stdio.h</text>
</g>
<!-- Node0&#45;&gt;Node5 -->
<g id="edge5" class="edge"><title>Node0&#45;&gt;Node5</title>
<path fill="none" stroke="midnightblue" d="M228.84,-112.444C254.113,-103.345 294.252,-88.8952 322.469,-78.7372"/>
<polygon fill="midnightblue" stroke="midnightblue" points="323.685,-82.0194 331.909,-75.339 321.314,-75.4331 323.685,-82.0194"/>
</g>
<!-- Node6 -->
<g id="node7" class="node"><title>Node6</title>
<g id="a_node7"><a xlink:href="communication_8h.html" target="_top" xlink:title="communication.h">
<polygon fill="white" stroke="black" points="222.572,-56.5 222.572,-75.5 313.572,-75.5 313.572,-56.5 222.572,-56.5"/>
<text text-anchor="middle" x="268.072" y="-63.5" font-family="Helvetica,sans-Serif" font-size="10.00">communication.h</text>
</a>
</g>
</g>
<!-- Node0&#45;&gt;Node6 -->
<g id="edge6" class="edge"><title>Node0&#45;&gt;Node6</title>
<path fill="none" stroke="midnightblue" d="M215.194,-112.324C224.599,-104.263 238.816,-92.0765 250.141,-82.3695"/>
<polygon fill="midnightblue" stroke="midnightblue" points="252.451,-84.9993 257.766,-75.8339 247.896,-79.6844 252.451,-84.9993"/>
</g>
<!-- Node6&#45;&gt;Node1 -->
<g id="edge7" class="edge"><title>Node6&#45;&gt;Node1</title>
<path fill="none" stroke="midnightblue" d="M239.709,-56.4435C208.888,-47.1454 159.536,-32.2572 125.779,-22.0735"/>
<polygon fill="midnightblue" stroke="midnightblue" points="126.426,-18.6129 115.841,-19.0755 124.404,-25.3146 126.426,-18.6129"/>
</g>
<!-- Node6&#45;&gt;Node4 -->
<g id="edge8" class="edge"><title>Node6&#45;&gt;Node4</title>
<path fill="none" stroke="midnightblue" d="M279.158,-56.324C289.558,-48.1849 305.333,-35.8395 317.794,-26.0874"/>
<polygon fill="midnightblue" stroke="midnightblue" points="320.067,-28.7533 325.785,-19.8339 315.752,-23.2407 320.067,-28.7533"/>
</g>
</g>
</svg>
