<?xml version="1.0" encoding="UTF-8" standalone="no"?>
<!DOCTYPE svg PUBLIC "-//W3C//DTD SVG 1.1//EN"
 "http://www.w3.org/Graphics/SVG/1.1/DTD/svg11.dtd">
<!-- Generated by graphviz version 2.38.0 (20140413.2041)
 -->
<!-- Title: RigidTrack/communication.h Pages: 1 -->
<svg width="422pt" height="196pt"
 viewBox="0.00 0.00 421.84 196.00" xmlns="http://www.w3.org/2000/svg" xmlns:xlink="http://www.w3.org/1999/xlink">
<g id="graph0" class="graph" transform="scale(1 1) rotate(0) translate(4 192)">
<title>RigidTrack/communication.h</title>
<polygon fill="white" stroke="none" points="-4,4 -4,-192 417.843,-192 417.843,4 -4,4"/>
<!-- Node3 -->
<g id="node1" class="node"><title>Node3</title>
<polygon fill="#bfbfbf" stroke="black" points="187,-168.5 187,-187.5 327,-187.5 327,-168.5 187,-168.5"/>
<text text-anchor="middle" x="257" y="-175.5" font-family="Helvetica,sans-Serif" font-size="10.00">RigidTrack/communication.h</text>
</g>
<!-- Node4 -->
<g id="node2" class="node"><title>Node4</title>
<g id="a_node2"><a xlink:href="communication_8cpp.html" target="_top" xlink:title="RigidTrack/communication.cpp">
<polygon fill="white" stroke="black" points="0,-112.5 0,-131.5 150,-131.5 150,-112.5 0,-112.5"/>
<text text-anchor="middle" x="75" y="-119.5" font-family="Helvetica,sans-Serif" font-size="10.00">RigidTrack/communication.cpp</text>
</a>
</g>
</g>
<!-- Node3&#45;&gt;Node4 -->
<g id="edge1" class="edge"><title>Node3&#45;&gt;Node4</title>
<path fill="none" stroke="midnightblue" d="M218.469,-165.568C184.136,-155.381 134.667,-140.703 103.704,-131.516"/>
<polygon fill="midnightblue" stroke="midnightblue" points="217.579,-168.954 228.162,-168.444 219.57,-162.244 217.579,-168.954"/>
</g>
<!-- Node5 -->
<g id="node3" class="node"><title>Node5</title>
<g id="a_node3"><a xlink:href="main_8h.html" target="_top" xlink:title="Header file for main.cpp. ">
<polygon fill="white" stroke="black" points="209.5,-112.5 209.5,-131.5 304.5,-131.5 304.5,-112.5 209.5,-112.5"/>
<text text-anchor="middle" x="257" y="-119.5" font-family="Helvetica,sans-Serif" font-size="10.00">RigidTrack/main.h</text>
</a>
</g>
</g>
<!-- Node3&#45;&gt;Node5 -->
<g id="edge2" class="edge"><title>Node3&#45;&gt;Node5</title>
<path fill="none" stroke="midnightblue" d="M257,-157.805C257,-148.91 257,-138.78 257,-131.751"/>
<polygon fill="midnightblue" stroke="midnightblue" points="253.5,-158.083 257,-168.083 260.5,-158.083 253.5,-158.083"/>
</g>
<!-- Node6 -->
<g id="node4" class="node"><title>Node6</title>
<g id="a_node4"><a xlink:href="_rigid_track_8h.html" target="_top" xlink:title="Rigid Track GUI source header with Qt Signals and Slots. ">
<polygon fill="white" stroke="black" points="282.5,-56.5 282.5,-75.5 401.5,-75.5 401.5,-56.5 282.5,-56.5"/>
<text text-anchor="middle" x="342" y="-63.5" font-family="Helvetica,sans-Serif" font-size="10.00">RigidTrack/RigidTrack.h</text>
</a>
</g>
</g>
<!-- Node3&#45;&gt;Node6 -->
<g id="edge9" class="edge"><title>Node3&#45;&gt;Node6</title>
<path fill="none" stroke="midnightblue" d="M280.387,-162.543C291.702,-154.629 304.793,-143.996 314,-132 327.616,-114.26 336.024,-88.8911 339.747,-75.7069"/>
<polygon fill="midnightblue" stroke="midnightblue" points="278.17,-159.814 271.801,-168.281 282.06,-165.634 278.17,-159.814"/>
</g>
<!-- Node7 -->
<g id="node5" class="node"><title>Node7</title>
<g id="a_node5"><a xlink:href="main_8cpp.html" target="_top" xlink:title="Rigid Track main file that contains most functionallity. ">
<polygon fill="white" stroke="black" points="158.5,-0.5 158.5,-19.5 263.5,-19.5 263.5,-0.5 158.5,-0.5"/>
<text text-anchor="middle" x="211" y="-7.5" font-family="Helvetica,sans-Serif" font-size="10.00">RigidTrack/main.cpp</text>
</a>
</g>
</g>
<!-- Node3&#45;&gt;Node7 -->
<g id="edge10" class="edge"><title>Node3&#45;&gt;Node7</title>
<path fill="none" stroke="midnightblue" d="M230.682,-163.049C219.336,-155.508 207.253,-145.046 201,-132 182.597,-93.6037 199.462,-40.4646 207.396,-19.7549"/>
<polygon fill="midnightblue" stroke="midnightblue" points="229.146,-166.213 239.498,-168.465 232.809,-160.248 229.146,-166.213"/>
</g>
<!-- Node8 -->
<g id="node6" class="node"><title>Node8</title>
<g id="a_node6"><a xlink:href="_rigid_track_8cpp.html" target="_top" xlink:title="Rigid Track GUI source that contains functions for GUI events. ">
<polygon fill="white" stroke="black" points="282,-0.5 282,-19.5 412,-19.5 412,-0.5 282,-0.5"/>
<text text-anchor="middle" x="347" y="-7.5" font-family="Helvetica,sans-Serif" font-size="10.00">RigidTrack/RigidTrack.cpp</text>
</a>
</g>
</g>
<!-- Node3&#45;&gt;Node8 -->
<g id="edge11" class="edge"><title>Node3&#45;&gt;Node8</title>
<path fill="none" stroke="midnightblue" d="M294.201,-164.946C331.741,-150.509 387.426,-122.294 411,-76 423.361,-51.7268 390.221,-30.7287 367.142,-19.562"/>
<polygon fill="midnightblue" stroke="midnightblue" points="292.776,-161.741 284.608,-168.489 295.202,-168.307 292.776,-161.741"/>
</g>
<!-- Node5&#45;&gt;Node6 -->
<g id="edge3" class="edge"><title>Node5&#45;&gt;Node6</title>
<path fill="none" stroke="midnightblue" d="M273.993,-106.342C288.313,-96.5169 308.475,-83.9132 323.267,-75.6545"/>
<polygon fill="midnightblue" stroke="midnightblue" points="271.682,-103.69 265.542,-112.324 275.726,-109.403 271.682,-103.69"/>
</g>
<!-- Node5&#45;&gt;Node7 -->
<g id="edge7" class="edge"><title>Node5&#45;&gt;Node7</title>
<path fill="none" stroke="midnightblue" d="M249.472,-102.998C239.435,-78.9968 222.069,-37.4683 214.593,-19.5914"/>
<polygon fill="midnightblue" stroke="midnightblue" points="246.303,-104.493 253.39,-112.368 252.761,-101.792 246.303,-104.493"/>
</g>
<!-- Node5&#45;&gt;Node8 -->
<g id="edge8" class="edge"><title>Node5&#45;&gt;Node8</title>
<path fill="none" stroke="midnightblue" d="M258.243,-101.786C259.983,-87.9059 264.134,-69.3316 274,-56 286.665,-38.8865 307.958,-26.8508 324.289,-19.5599"/>
<polygon fill="midnightblue" stroke="midnightblue" points="254.722,-101.841 257.275,-112.124 261.692,-102.494 254.722,-101.841"/>
</g>
<!-- Node6&#45;&gt;Node5 -->
<g id="edge5" class="edge"><title>Node6&#45;&gt;Node5</title>
<path fill="none" stroke="midnightblue" d="M324.79,-81.8069C310.496,-91.6017 290.485,-104.107 275.772,-112.324"/>
<polygon fill="midnightblue" stroke="midnightblue" points="327.096,-84.4628 333.244,-75.8339 323.057,-78.7458 327.096,-84.4628"/>
</g>
<!-- Node6&#45;&gt;Node7 -->
<g id="edge4" class="edge"><title>Node6&#45;&gt;Node7</title>
<path fill="none" stroke="midnightblue" d="M311.683,-52.503C287.124,-42.3795 253.182,-28.388 231.66,-19.5164"/>
<polygon fill="midnightblue" stroke="midnightblue" points="310.663,-55.8683 321.243,-56.4435 313.331,-49.3966 310.663,-55.8683"/>
</g>
<!-- Node6&#45;&gt;Node8 -->
<g id="edge6" class="edge"><title>Node6&#45;&gt;Node8</title>
<path fill="none" stroke="midnightblue" d="M343.75,-46.1005C344.58,-37.1357 345.532,-26.8579 346.19,-19.7511"/>
<polygon fill="midnightblue" stroke="midnightblue" points="340.263,-45.8029 342.826,-56.083 347.233,-46.4483 340.263,-45.8029"/>
</g>
</g>
</svg>
