<?xml version="1.0" encoding="UTF-8" standalone="no"?>
<!DOCTYPE svg PUBLIC "-//W3C//DTD SVG 1.1//EN"
 "http://www.w3.org/Graphics/SVG/1.1/DTD/svg11.dtd">
<!-- Generated by graphviz version 2.38.0 (20140413.2041)
 -->
<!-- Title: RigidTrack/main.h Pages: 1 -->
<svg width="282pt" height="140pt"
 viewBox="0.00 0.00 281.50 140.00" xmlns="http://www.w3.org/2000/svg" xmlns:xlink="http://www.w3.org/1999/xlink">
<g id="graph0" class="graph" transform="scale(1 1) rotate(0) translate(4 136)">
<title>RigidTrack/main.h</title>
<polygon fill="white" stroke="none" points="-4,4 -4,-136 277.5,-136 277.5,4 -4,4"/>
<!-- Node34 -->
<g id="node1" class="node"><title>Node34</title>
<polygon fill="#bfbfbf" stroke="black" points="83,-112.5 83,-131.5 178,-131.5 178,-112.5 83,-112.5"/>
<text text-anchor="middle" x="130.5" y="-119.5" font-family="Helvetica,sans-Serif" font-size="10.00">RigidTrack/main.h</text>
</g>
<!-- Node35 -->
<g id="node2" class="node"><title>Node35</title>
<g id="a_node2"><a xlink:href="_rigid_track_8h.html" target="_top" xlink:title="Rigid Track GUI source header with Qt Signals and Slots. ">
<polygon fill="white" stroke="black" points="71,-56.5 71,-75.5 190,-75.5 190,-56.5 71,-56.5"/>
<text text-anchor="middle" x="130.5" y="-63.5" font-family="Helvetica,sans-Serif" font-size="10.00">RigidTrack/RigidTrack.h</text>
</a>
</g>
</g>
<!-- Node34&#45;&gt;Node35 -->
<g id="edge1" class="edge"><title>Node34&#45;&gt;Node35</title>
<path fill="none" stroke="midnightblue" d="M124.028,-102.101C123.396,-93.1357 123.843,-82.8579 125.369,-75.7511"/>
<polygon fill="midnightblue" stroke="midnightblue" points="120.566,-102.622 125.334,-112.083 127.507,-101.713 120.566,-102.622"/>
</g>
<!-- Node36 -->
<g id="node3" class="node"><title>Node36</title>
<g id="a_node3"><a xlink:href="main_8cpp.html" target="_top" xlink:title="Rigid Track main file that contains most functionallity. ">
<polygon fill="white" stroke="black" points="0,-0.5 0,-19.5 105,-19.5 105,-0.5 0,-0.5"/>
<text text-anchor="middle" x="52.5" y="-7.5" font-family="Helvetica,sans-Serif" font-size="10.00">RigidTrack/main.cpp</text>
</a>
</g>
</g>
<!-- Node34&#45;&gt;Node36 -->
<g id="edge5" class="edge"><title>Node34&#45;&gt;Node36</title>
<path fill="none" stroke="midnightblue" d="M98.9128,-107.796C85.2247,-100.449 70.338,-89.934 61.5,-76 50.3944,-58.4909 50.5307,-33.0244 51.5374,-19.7647"/>
<polygon fill="midnightblue" stroke="midnightblue" points="97.5975,-111.051 108.109,-112.379 100.72,-104.786 97.5975,-111.051"/>
</g>
<!-- Node37 -->
<g id="node4" class="node"><title>Node37</title>
<g id="a_node4"><a xlink:href="_rigid_track_8cpp.html" target="_top" xlink:title="Rigid Track GUI source that contains functions for GUI events. ">
<polygon fill="white" stroke="black" points="143.5,-0.5 143.5,-19.5 273.5,-19.5 273.5,-0.5 143.5,-0.5"/>
<text text-anchor="middle" x="208.5" y="-7.5" font-family="Helvetica,sans-Serif" font-size="10.00">RigidTrack/RigidTrack.cpp</text>
</a>
</g>
</g>
<!-- Node34&#45;&gt;Node37 -->
<g id="edge6" class="edge"><title>Node34&#45;&gt;Node37</title>
<path fill="none" stroke="midnightblue" d="M161.258,-107.79C174.807,-100.401 189.632,-89.8528 198.5,-76 209.703,-58.499 210.031,-33.0291 209.285,-19.7667"/>
<polygon fill="midnightblue" stroke="midnightblue" points="159.504,-104.755 152.171,-112.403 162.672,-110.997 159.504,-104.755"/>
</g>
<!-- Node35&#45;&gt;Node34 -->
<g id="edge3" class="edge"><title>Node35&#45;&gt;Node34</title>
<path fill="none" stroke="midnightblue" d="M136.958,-85.6911C137.606,-94.6353 137.176,-104.927 135.666,-112.083"/>
<polygon fill="midnightblue" stroke="midnightblue" points="140.423,-85.2002 135.631,-75.7511 133.485,-86.1262 140.423,-85.2002"/>
</g>
<!-- Node35&#45;&gt;Node36 -->
<g id="edge2" class="edge"><title>Node35&#45;&gt;Node36</title>
<path fill="none" stroke="midnightblue" d="M109.732,-50.6221C95.4829,-40.7574 77.0438,-27.9919 65.0009,-19.6545"/>
<polygon fill="midnightblue" stroke="midnightblue" points="107.754,-53.5095 117.968,-56.324 111.738,-47.7541 107.754,-53.5095"/>
</g>
<!-- Node35&#45;&gt;Node37 -->
<g id="edge4" class="edge"><title>Node35&#45;&gt;Node37</title>
<path fill="none" stroke="midnightblue" d="M151.268,-50.6221C165.517,-40.7574 183.956,-27.9919 195.999,-19.6545"/>
<polygon fill="midnightblue" stroke="midnightblue" points="149.262,-47.7541 143.032,-56.324 153.246,-53.5095 149.262,-47.7541"/>
</g>
</g>
</svg>
