<?xml version="1.0" encoding="UTF-8" standalone="no"?>
<!DOCTYPE svg PUBLIC "-//W3C//DTD SVG 1.1//EN"
 "http://www.w3.org/Graphics/SVG/1.1/DTD/svg11.dtd">
<!-- Generated by graphviz version 2.38.0 (20140413.2041)
 -->
<!-- Title: projectCoordinateFrame Pages: 1 -->
<svg width="382pt" height="180pt"
 viewBox="0.00 0.00 382.00 180.00" xmlns="http://www.w3.org/2000/svg" xmlns:xlink="http://www.w3.org/1999/xlink">
<g id="graph0" class="graph" transform="scale(1 1) rotate(0) translate(4 176)">
<title>projectCoordinateFrame</title>
<polygon fill="white" stroke="none" points="-4,4 -4,-176 378,-176 378,4 -4,4"/>
<!-- Node71 -->
<g id="node1" class="node"><title>Node71</title>
<polygon fill="#bfbfbf" stroke="black" points="0,-76.5 0,-95.5 120,-95.5 120,-76.5 0,-76.5"/>
<text text-anchor="middle" x="60" y="-83.5" font-family="Helvetica,sans-Serif" font-size="10.00">projectCoordinateFrame</text>
</g>
<!-- Node72 -->
<g id="node2" class="node"><title>Node72</title>
<g id="a_node2"><a xlink:href="main_8h.html#a3d3afd29ce54eb7fc5cc7e74ab666586" target="_top" xlink:title="startTracking">
<polygon fill="white" stroke="black" points="165.5,-152.5 165.5,-171.5 238.5,-171.5 238.5,-152.5 165.5,-152.5"/>
<text text-anchor="middle" x="202" y="-159.5" font-family="Helvetica,sans-Serif" font-size="10.00">startTracking</text>
</a>
</g>
</g>
<!-- Node71&#45;&gt;Node72 -->
<g id="edge1" class="edge"><title>Node71&#45;&gt;Node72</title>
<path fill="none" stroke="midnightblue" d="M83.9784,-101.038C102.904,-113.115 130.652,-130.125 156,-143 162.502,-146.303 169.714,-149.531 176.425,-152.361"/>
<polygon fill="midnightblue" stroke="midnightblue" points="85.7483,-98.0144 75.4454,-95.5445 81.9593,-103.9 85.7483,-98.0144"/>
</g>
<!-- Node74 -->
<g id="node4" class="node"><title>Node74</title>
<g id="a_node4"><a xlink:href="main_8h.html#a1e6662e0f16887fe97c7bebe05065972" target="_top" xlink:title="setReference">
<polygon fill="white" stroke="black" points="165,-114.5 165,-133.5 239,-133.5 239,-114.5 165,-114.5"/>
<text text-anchor="middle" x="202" y="-121.5" font-family="Helvetica,sans-Serif" font-size="10.00">setReference</text>
</a>
</g>
</g>
<!-- Node71&#45;&gt;Node74 -->
<g id="edge3" class="edge"><title>Node71&#45;&gt;Node74</title>
<path fill="none" stroke="midnightblue" d="M106.118,-98.2462C125.415,-103.484 147.612,-109.509 165.683,-114.414"/>
<polygon fill="midnightblue" stroke="midnightblue" points="106.896,-94.8308 96.3279,-95.589 105.062,-101.586 106.896,-94.8308"/>
</g>
<!-- Node75 -->
<g id="node5" class="node"><title>Node75</title>
<g id="a_node5"><a xlink:href="main_8h.html#a847c0fbd3e513fb76ff145b31a9f5c37" target="_top" xlink:title="testAlgorithms">
<polygon fill="white" stroke="black" points="162,-76.5 162,-95.5 242,-95.5 242,-76.5 162,-76.5"/>
<text text-anchor="middle" x="202" y="-83.5" font-family="Helvetica,sans-Serif" font-size="10.00">testAlgorithms</text>
</a>
</g>
</g>
<!-- Node71&#45;&gt;Node75 -->
<g id="edge4" class="edge"><title>Node71&#45;&gt;Node75</title>
<path fill="none" stroke="midnightblue" d="M130.622,-86C141.35,-86 152.09,-86 161.833,-86"/>
<polygon fill="midnightblue" stroke="midnightblue" points="130.373,-82.5001 120.373,-86 130.373,-89.5001 130.373,-82.5001"/>
</g>
<!-- Node77 -->
<g id="node7" class="node"><title>Node77</title>
<g id="a_node7"><a xlink:href="main_8h.html#a56c7f641859cb2b6b99b0947d03be800" target="_top" xlink:title="loadMarkerConfig">
<polygon fill="white" stroke="black" points="156,-38.5 156,-57.5 248,-57.5 248,-38.5 156,-38.5"/>
<text text-anchor="middle" x="202" y="-45.5" font-family="Helvetica,sans-Serif" font-size="10.00">loadMarkerConfig</text>
</a>
</g>
</g>
<!-- Node71&#45;&gt;Node77 -->
<g id="edge6" class="edge"><title>Node71&#45;&gt;Node77</title>
<path fill="none" stroke="midnightblue" d="M106.118,-73.7538C125.415,-68.516 147.612,-62.4909 165.683,-57.5859"/>
<polygon fill="midnightblue" stroke="midnightblue" points="105.062,-70.4136 96.3279,-76.411 106.896,-77.1692 105.062,-70.4136"/>
</g>
<!-- Node78 -->
<g id="node8" class="node"><title>Node78</title>
<g id="a_node8"><a xlink:href="main_8h.html#a7ad2e3cfb5056dbab2098e0dd3bd353f" target="_top" xlink:title="calibrateGround">
<polygon fill="white" stroke="black" points="159.5,-0.5 159.5,-19.5 244.5,-19.5 244.5,-0.5 159.5,-0.5"/>
<text text-anchor="middle" x="202" y="-7.5" font-family="Helvetica,sans-Serif" font-size="10.00">calibrateGround</text>
</a>
</g>
</g>
<!-- Node71&#45;&gt;Node78 -->
<g id="edge8" class="edge"><title>Node71&#45;&gt;Node78</title>
<path fill="none" stroke="midnightblue" d="M83.9784,-70.9625C102.904,-58.8848 130.652,-41.8749 156,-29 162.502,-25.6973 169.714,-22.4693 176.425,-19.6387"/>
<polygon fill="midnightblue" stroke="midnightblue" points="81.9593,-68.0997 75.4454,-76.4555 85.7483,-73.9856 81.9593,-68.0997"/>
</g>
<!-- Node73 -->
<g id="node3" class="node"><title>Node73</title>
<g id="a_node3"><a xlink:href="main_8h.html#a25183e8d0b386ef12b557efc712a0261" target="_top" xlink:title="Start or stop the tracking depending on if the camera is currently running or not. ">
<polygon fill="white" stroke="black" points="284,-152.5 284,-171.5 374,-171.5 374,-152.5 284,-152.5"/>
<text text-anchor="middle" x="329" y="-159.5" font-family="Helvetica,sans-Serif" font-size="10.00">startStopCamera</text>
</a>
</g>
</g>
<!-- Node72&#45;&gt;Node73 -->
<g id="edge2" class="edge"><title>Node72&#45;&gt;Node73</title>
<path fill="none" stroke="midnightblue" d="M248.976,-162C260.325,-162 272.458,-162 283.725,-162"/>
<polygon fill="midnightblue" stroke="midnightblue" points="248.82,-158.5 238.82,-162 248.82,-165.5 248.82,-158.5"/>
</g>
<!-- Node76 -->
<g id="node6" class="node"><title>Node76</title>
<g id="a_node6"><a xlink:href="main_8cpp.html#a0ddf1224851353fc92bfbff6f499fa97" target="_top" xlink:title="main initialises the GUI and values for the marker position etc ">
<polygon fill="white" stroke="black" points="310,-57.5 310,-76.5 348,-76.5 348,-57.5 310,-57.5"/>
<text text-anchor="middle" x="329" y="-64.5" font-family="Helvetica,sans-Serif" font-size="10.00">main</text>
</a>
</g>
</g>
<!-- Node75&#45;&gt;Node76 -->
<g id="edge5" class="edge"><title>Node75&#45;&gt;Node76</title>
<path fill="none" stroke="midnightblue" d="M252.272,-78.5107C272.543,-75.4294 294.76,-72.0524 309.855,-69.758"/>
<polygon fill="midnightblue" stroke="midnightblue" points="251.568,-75.0773 242.208,-80.0404 252.62,-81.9978 251.568,-75.0773"/>
</g>
<!-- Node77&#45;&gt;Node76 -->
<g id="edge7" class="edge"><title>Node77&#45;&gt;Node76</title>
<path fill="none" stroke="midnightblue" d="M258.265,-56.4002C276.744,-59.2091 296.079,-62.1481 309.69,-64.2169"/>
<polygon fill="midnightblue" stroke="midnightblue" points="258.54,-52.902 248.128,-54.8594 257.488,-59.8225 258.54,-52.902"/>
</g>
</g>
</svg>
