<?xml version="1.0" encoding="UTF-8" standalone="no"?>
<!DOCTYPE svg PUBLIC "-//W3C//DTD SVG 1.1//EN"
 "http://www.w3.org/Graphics/SVG/1.1/DTD/svg11.dtd">
<!-- Generated by graphviz version 2.38.0 (20140413.2041)
 -->
<!-- Title: RigidTrack/main.cpp Pages: 1 -->
<svg width="2687pt" height="252pt"
 viewBox="0.00 0.00 2687.00 252.00" xmlns="http://www.w3.org/2000/svg" xmlns:xlink="http://www.w3.org/1999/xlink">
<g id="graph0" class="graph" transform="scale(1 1) rotate(0) translate(4 248)">
<title>RigidTrack/main.cpp</title>
<polygon fill="white" stroke="none" points="-4,4 -4,-248 2683,-248 2683,4 -4,4"/>
<!-- Node0 -->
<g id="node1" class="node"><title>Node0</title>
<polygon fill="#bfbfbf" stroke="black" points="1181,-224.5 1181,-243.5 1286,-243.5 1286,-224.5 1181,-224.5"/>
<text text-anchor="middle" x="1233.5" y="-231.5" font-family="Helvetica,sans-Serif" font-size="10.00">RigidTrack/main.cpp</text>
</g>
<!-- Node1 -->
<g id="node2" class="node"><title>Node1</title>
<g id="a_node2"><a xlink:href="_rigid_track_8h.html" target="_top" xlink:title="Rigid Track GUI source header with Qt Signals and Slots. ">
<polygon fill="white" stroke="black" points="268,-168.5 268,-187.5 339,-187.5 339,-168.5 268,-168.5"/>
<text text-anchor="middle" x="303.5" y="-175.5" font-family="Helvetica,sans-Serif" font-size="10.00">RigidTrack.h</text>
</a>
</g>
</g>
<!-- Node0&#45;&gt;Node1 -->
<g id="edge1" class="edge"><title>Node0&#45;&gt;Node1</title>
<path fill="none" stroke="midnightblue" d="M1180.6,-230.261C1052.41,-223.573 714.989,-205.66 433.5,-188 405.544,-186.246 374.221,-184.084 349.327,-182.318"/>
<polygon fill="midnightblue" stroke="midnightblue" points="349.304,-178.807 339.081,-181.588 348.807,-185.79 349.304,-178.807"/>
</g>
<!-- Node5 -->
<g id="node6" class="node"><title>Node5</title>
<g id="a_node6"><a xlink:href="main_8h.html" target="_top" xlink:title="Header file for main.cpp. ">
<polygon fill="white" stroke="black" points="963.5,-112.5 963.5,-131.5 1009.5,-131.5 1009.5,-112.5 963.5,-112.5"/>
<text text-anchor="middle" x="986.5" y="-119.5" font-family="Helvetica,sans-Serif" font-size="10.00">main.h</text>
</a>
</g>
</g>
<!-- Node0&#45;&gt;Node5 -->
<g id="edge38" class="edge"><title>Node0&#45;&gt;Node5</title>
<path fill="none" stroke="midnightblue" d="M1180.6,-232.083C1136.68,-228.952 1074.35,-218.795 1029.5,-188 1012.64,-176.425 1000.7,-155.864 993.75,-140.961"/>
<polygon fill="midnightblue" stroke="midnightblue" points="996.932,-139.5 989.733,-131.727 990.513,-142.293 996.932,-139.5"/>
</g>
<!-- Node6 -->
<g id="node7" class="node"><title>Node6</title>
<polygon fill="white" stroke="#bfbfbf" points="148,-56.5 148,-75.5 197,-75.5 197,-56.5 148,-56.5"/>
<text text-anchor="middle" x="172.5" y="-63.5" font-family="Helvetica,sans-Serif" font-size="10.00">fstream</text>
</g>
<!-- Node0&#45;&gt;Node6 -->
<g id="edge58" class="edge"><title>Node0&#45;&gt;Node6</title>
<path fill="none" stroke="midnightblue" d="M1180.79,-232.165C1040.1,-229.529 658.197,-219.588 536.5,-188 460.299,-168.221 451.078,-137.217 376.5,-112 306.339,-88.2762 283.498,-93.3963 207.409,-76.0796"/>
<polygon fill="midnightblue" stroke="midnightblue" points="207.88,-72.5955 197.346,-73.7306 206.289,-79.4122 207.88,-72.5955"/>
</g>
<!-- Node7 -->
<g id="node8" class="node"><title>Node7</title>
<polygon fill="white" stroke="#bfbfbf" points="215.5,-56.5 215.5,-75.5 277.5,-75.5 277.5,-56.5 215.5,-56.5"/>
<text text-anchor="middle" x="246.5" y="-63.5" font-family="Helvetica,sans-Serif" font-size="10.00">windows.h</text>
</g>
<!-- Node0&#45;&gt;Node7 -->
<g id="edge59" class="edge"><title>Node0&#45;&gt;Node7</title>
<path fill="none" stroke="midnightblue" d="M1180.64,-232.742C1045.58,-231.546 690.622,-224.88 579.5,-188 520.295,-168.351 519.255,-135.574 461.5,-112 390.854,-83.1637 366.066,-91.9403 287.753,-76.1775"/>
<polygon fill="midnightblue" stroke="midnightblue" points="288.435,-72.7444 277.931,-74.1294 287.006,-79.597 288.435,-72.7444"/>
</g>
<!-- Node8 -->
<g id="node9" class="node"><title>Node8</title>
<polygon fill="white" stroke="#bfbfbf" points="295.5,-56.5 295.5,-75.5 343.5,-75.5 343.5,-56.5 295.5,-56.5"/>
<text text-anchor="middle" x="319.5" y="-63.5" font-family="Helvetica,sans-Serif" font-size="10.00">conio.h</text>
</g>
<!-- Node0&#45;&gt;Node8 -->
<g id="edge60" class="edge"><title>Node0&#45;&gt;Node8</title>
<path fill="none" stroke="midnightblue" d="M1180.86,-232.396C1052.34,-230.4 725.516,-222.029 622.5,-188 562.556,-168.199 560.645,-136.587 502.5,-112 442.19,-86.4975 420.836,-92.3972 353.451,-76.1215"/>
<polygon fill="midnightblue" stroke="midnightblue" points="354.178,-72.6956 343.628,-73.6721 352.484,-79.4877 354.178,-72.6956"/>
</g>
<!-- Node9 -->
<g id="node10" class="node"><title>Node9</title>
<polygon fill="white" stroke="#bfbfbf" points="362,-56.5 362,-75.5 409,-75.5 409,-56.5 362,-56.5"/>
<text text-anchor="middle" x="385.5" y="-63.5" font-family="Helvetica,sans-Serif" font-size="10.00">tchar.h</text>
</g>
<!-- Node0&#45;&gt;Node9 -->
<g id="edge61" class="edge"><title>Node0&#45;&gt;Node9</title>
<path fill="none" stroke="midnightblue" d="M1180.77,-231.894C1059.15,-228.847 762.165,-218.433 667.5,-188 605.24,-167.985 601.431,-138.176 541.5,-112 530.195,-107.062 461.398,-87.8336 419.028,-76.1688"/>
<polygon fill="midnightblue" stroke="midnightblue" points="419.704,-72.7248 409.134,-73.45 417.849,-79.4746 419.704,-72.7248"/>
</g>
<!-- Node10 -->
<g id="node11" class="node"><title>Node10</title>
<polygon fill="white" stroke="#bfbfbf" points="427.5,-56.5 427.5,-75.5 473.5,-75.5 473.5,-56.5 427.5,-56.5"/>
<text text-anchor="middle" x="450.5" y="-63.5" font-family="Helvetica,sans-Serif" font-size="10.00">stdio.h</text>
</g>
<!-- Node0&#45;&gt;Node10 -->
<g id="edge62" class="edge"><title>Node0&#45;&gt;Node10</title>
<path fill="none" stroke="midnightblue" d="M1180.66,-231.245C1066.72,-227 801.314,-214.517 715.5,-188 649.715,-167.672 643.286,-140.264 580.5,-112 548.25,-97.4822 509.812,-84.7029 483.135,-76.5086"/>
<polygon fill="midnightblue" stroke="midnightblue" points="484.11,-73.1468 473.525,-73.5984 482.081,-79.8464 484.11,-73.1468"/>
</g>
<!-- Node11 -->
<g id="node12" class="node"><title>Node11</title>
<polygon fill="white" stroke="#bfbfbf" points="491.5,-56.5 491.5,-75.5 545.5,-75.5 545.5,-56.5 491.5,-56.5"/>
<text text-anchor="middle" x="518.5" y="-63.5" font-family="Helvetica,sans-Serif" font-size="10.00">iostream</text>
</g>
<!-- Node0&#45;&gt;Node11 -->
<g id="edge63" class="edge"><title>Node0&#45;&gt;Node11</title>
<path fill="none" stroke="midnightblue" d="M1180.62,-230.343C1075.68,-224.667 844.653,-210.051 768.5,-188 715.424,-172.631 706.751,-157.052 657.5,-132 640.137,-123.168 636.054,-120.444 618.5,-112 594.763,-100.582 567.473,-88.3612 547.405,-79.5409"/>
<polygon fill="midnightblue" stroke="midnightblue" points="548.745,-76.3068 538.181,-75.5025 545.938,-82.7192 548.745,-76.3068"/>
</g>
<!-- Node12 -->
<g id="node13" class="node"><title>Node12</title>
<polygon fill="white" stroke="#bfbfbf" points="563.5,-56.5 563.5,-75.5 615.5,-75.5 615.5,-56.5 563.5,-56.5"/>
<text text-anchor="middle" x="589.5" y="-63.5" font-family="Helvetica,sans-Serif" font-size="10.00">stdarg.h</text>
</g>
<!-- Node0&#45;&gt;Node12 -->
<g id="edge64" class="edge"><title>Node0&#45;&gt;Node12</title>
<path fill="none" stroke="midnightblue" d="M1180.77,-233.231C1101.84,-232.238 949.033,-225.107 825.5,-188 740.815,-162.562 650.378,-107.198 610.474,-81.121"/>
<polygon fill="midnightblue" stroke="midnightblue" points="612.37,-78.1781 602.096,-75.5884 608.512,-84.0195 612.37,-78.1781"/>
</g>
<!-- Node13 -->
<g id="node14" class="node"><title>Node13</title>
<polygon fill="white" stroke="#bfbfbf" points="634,-56.5 634,-75.5 683,-75.5 683,-56.5 634,-56.5"/>
<text text-anchor="middle" x="658.5" y="-63.5" font-family="Helvetica,sans-Serif" font-size="10.00">ctype.h</text>
</g>
<!-- Node0&#45;&gt;Node13 -->
<g id="edge65" class="edge"><title>Node0&#45;&gt;Node13</title>
<path fill="none" stroke="midnightblue" d="M1180.88,-232.392C1110.55,-230.224 982.774,-221.502 879.5,-188 800.1,-162.243 716.274,-107.652 678.739,-81.5253"/>
<polygon fill="midnightblue" stroke="midnightblue" points="680.416,-78.4257 670.224,-75.5312 676.386,-84.1496 680.416,-78.4257"/>
</g>
<!-- Node14 -->
<g id="node15" class="node"><title>Node14</title>
<polygon fill="white" stroke="#bfbfbf" points="701.5,-56.5 701.5,-75.5 749.5,-75.5 749.5,-56.5 701.5,-56.5"/>
<text text-anchor="middle" x="725.5" y="-63.5" font-family="Helvetica,sans-Serif" font-size="10.00">stdlib.h</text>
</g>
<!-- Node0&#45;&gt;Node14 -->
<g id="edge66" class="edge"><title>Node0&#45;&gt;Node14</title>
<path fill="none" stroke="midnightblue" d="M1180.92,-231.364C1119.12,-228.057 1014.22,-218.079 929.5,-188 856.119,-161.947 779.836,-108.36 744.979,-82.1329"/>
<polygon fill="midnightblue" stroke="midnightblue" points="746.734,-79.0704 736.658,-75.7963 742.493,-84.6395 746.734,-79.0704"/>
</g>
<!-- Node15 -->
<g id="node16" class="node"><title>Node15</title>
<polygon fill="white" stroke="#bfbfbf" points="767.5,-56.5 767.5,-75.5 815.5,-75.5 815.5,-56.5 767.5,-56.5"/>
<text text-anchor="middle" x="791.5" y="-63.5" font-family="Helvetica,sans-Serif" font-size="10.00">gl/glu.h</text>
</g>
<!-- Node0&#45;&gt;Node15 -->
<g id="edge67" class="edge"><title>Node0&#45;&gt;Node15</title>
<path fill="none" stroke="midnightblue" d="M1180.82,-230.53C1126.42,-226.496 1039.92,-215.884 970.5,-188 904.958,-161.674 838.992,-108.613 808.685,-82.3888"/>
<polygon fill="midnightblue" stroke="midnightblue" points="810.938,-79.7099 801.112,-75.7483 806.323,-84.973 810.938,-79.7099"/>
</g>
<!-- Node16 -->
<g id="node17" class="node"><title>Node16</title>
<polygon fill="white" stroke="#bfbfbf" points="833.5,-56.5 833.5,-75.5 885.5,-75.5 885.5,-56.5 833.5,-56.5"/>
<text text-anchor="middle" x="859.5" y="-63.5" font-family="Helvetica,sans-Serif" font-size="10.00">sstream</text>
</g>
<!-- Node0&#45;&gt;Node16 -->
<g id="edge68" class="edge"><title>Node0&#45;&gt;Node16</title>
<path fill="none" stroke="midnightblue" d="M1180.74,-229.871C1133.21,-225.383 1062.42,-214.476 1006.5,-188 950.967,-161.707 898.577,-109.802 874.044,-83.342"/>
<polygon fill="midnightblue" stroke="midnightblue" points="876.412,-80.7437 867.089,-75.7097 871.238,-85.4586 876.412,-80.7437"/>
</g>
<!-- Node17 -->
<g id="node18" class="node"><title>Node17</title>
<polygon fill="white" stroke="#bfbfbf" points="1027.5,-56.5 1027.5,-75.5 1071.5,-75.5 1071.5,-56.5 1027.5,-56.5"/>
<text text-anchor="middle" x="1049.5" y="-63.5" font-family="Helvetica,sans-Serif" font-size="10.00">thread</text>
</g>
<!-- Node0&#45;&gt;Node17 -->
<g id="edge74" class="edge"><title>Node0&#45;&gt;Node17</title>
<path fill="none" stroke="midnightblue" d="M1193.22,-224.427C1169.36,-217.719 1139.75,-206.366 1118.5,-188 1085.68,-159.634 1064.98,-111.614 1055.52,-85.408"/>
<polygon fill="midnightblue" stroke="midnightblue" points="1058.72,-83.9493 1052.16,-75.6336 1052.11,-86.2283 1058.72,-83.9493"/>
</g>
<!-- Node20 -->
<g id="node21" class="node"><title>Node20</title>
<g id="a_node21"><a xlink:href="communication_8h_source.html" target="_top" xlink:title="communication.h">
<polygon fill="white" stroke="black" points="0,-56.5 0,-75.5 91,-75.5 91,-56.5 0,-56.5"/>
<text text-anchor="middle" x="45.5" y="-63.5" font-family="Helvetica,sans-Serif" font-size="10.00">communication.h</text>
</a>
</g>
</g>
<!-- Node0&#45;&gt;Node20 -->
<g id="edge39" class="edge"><title>Node0&#45;&gt;Node20</title>
<path fill="none" stroke="midnightblue" d="M1180.93,-232.181C1005.1,-229.191 438.478,-217.453 258.5,-188 169.092,-173.369 125.837,-196.778 62.5,-132 50.6605,-119.891 46.7823,-100.61 45.6432,-86.1869"/>
<polygon fill="midnightblue" stroke="midnightblue" points="49.1277,-85.7377 45.2171,-75.891 42.1337,-86.0272 49.1277,-85.7377"/>
</g>
<!-- Node22 -->
<g id="node23" class="node"><title>Node22</title>
<polygon fill="white" stroke="#bfbfbf" points="1089.5,-56.5 1089.5,-75.5 1211.5,-75.5 1211.5,-56.5 1089.5,-56.5"/>
<text text-anchor="middle" x="1150.5" y="-63.5" font-family="Helvetica,sans-Serif" font-size="10.00">QtWidgets/QApplication</text>
</g>
<!-- Node0&#45;&gt;Node22 -->
<g id="edge44" class="edge"><title>Node0&#45;&gt;Node22</title>
<path fill="none" stroke="midnightblue" d="M1185.45,-224.458C1164.56,-218.101 1142.03,-207.074 1129.5,-188 1108.61,-156.206 1127.04,-109.956 1140.13,-84.843"/>
<polygon fill="midnightblue" stroke="midnightblue" points="1143.37,-86.2099 1145.12,-75.7599 1137.24,-82.8402 1143.37,-86.2099"/>
</g>
<!-- Node23 -->
<g id="node24" class="node"><title>Node23</title>
<polygon fill="white" stroke="#bfbfbf" points="1229.5,-56.5 1229.5,-75.5 1301.5,-75.5 1301.5,-56.5 1229.5,-56.5"/>
<text text-anchor="middle" x="1265.5" y="-63.5" font-family="Helvetica,sans-Serif" font-size="10.00">QUdpSocket</text>
</g>
<!-- Node0&#45;&gt;Node23 -->
<g id="edge49" class="edge"><title>Node0&#45;&gt;Node23</title>
<path fill="none" stroke="midnightblue" d="M1196.4,-224.458C1177.06,-217.918 1155.07,-206.724 1143.5,-188 1125.74,-159.267 1124.19,-139.711 1143.5,-112 1152.64,-98.8812 1189.03,-86.5012 1219.7,-78.0598"/>
<polygon fill="midnightblue" stroke="midnightblue" points="1220.67,-81.4259 1229.42,-75.4615 1218.86,-74.6635 1220.67,-81.4259"/>
</g>
<!-- Node24 -->
<g id="node25" class="node"><title>Node24</title>
<polygon fill="white" stroke="#bfbfbf" points="1320,-56.5 1320,-75.5 1403,-75.5 1403,-56.5 1320,-56.5"/>
<text text-anchor="middle" x="1361.5" y="-63.5" font-family="Helvetica,sans-Serif" font-size="10.00">cameralibrary.h</text>
</g>
<!-- Node0&#45;&gt;Node24 -->
<g id="edge40" class="edge"><title>Node0&#45;&gt;Node24</title>
<path fill="none" stroke="midnightblue" d="M1217.72,-224.467C1205.3,-216.769 1188.89,-204.179 1181.5,-188 1167.46,-157.279 1160.71,-138.624 1181.5,-112 1189.52,-101.727 1259.35,-86.4567 1309.62,-76.6143"/>
<polygon fill="midnightblue" stroke="midnightblue" points="1310.56,-79.9985 1319.71,-74.6607 1309.23,-73.1262 1310.56,-79.9985"/>
</g>
<!-- Node25 -->
<g id="node26" class="node"><title>Node25</title>
<polygon fill="white" stroke="#bfbfbf" points="1421.5,-56.5 1421.5,-75.5 1503.5,-75.5 1503.5,-56.5 1421.5,-56.5"/>
<text text-anchor="middle" x="1462.5" y="-63.5" font-family="Helvetica,sans-Serif" font-size="10.00">modulevector.h</text>
</g>
<!-- Node0&#45;&gt;Node25 -->
<g id="edge41" class="edge"><title>Node0&#45;&gt;Node25</title>
<path fill="none" stroke="midnightblue" d="M1228.75,-224.475C1217.43,-202.871 1191.78,-145.328 1219.5,-112 1221.04,-110.146 1340.42,-88.6744 1411.26,-76.0733"/>
<polygon fill="midnightblue" stroke="midnightblue" points="1412.1,-79.4778 1421.34,-74.2819 1410.88,-72.5859 1412.1,-79.4778"/>
</g>
<!-- Node26 -->
<g id="node27" class="node"><title>Node26</title>
<polygon fill="white" stroke="#bfbfbf" points="1522,-56.5 1522,-75.5 1651,-75.5 1651,-56.5 1522,-56.5"/>
<text text-anchor="middle" x="1586.5" y="-63.5" font-family="Helvetica,sans-Serif" font-size="10.00">modulevectorprocessing.h</text>
</g>
<!-- Node0&#45;&gt;Node26 -->
<g id="edge42" class="edge"><title>Node0&#45;&gt;Node26</title>
<path fill="none" stroke="midnightblue" d="M1232.21,-224.417C1229.41,-202.166 1225.38,-142.248 1257.5,-112 1262.12,-107.65 1416.04,-87.9943 1511.68,-76.1463"/>
<polygon fill="midnightblue" stroke="midnightblue" points="1512.4,-79.5842 1521.9,-74.8833 1511.54,-72.6371 1512.4,-79.5842"/>
</g>
<!-- Node27 -->
<g id="node28" class="node"><title>Node27</title>
<polygon fill="white" stroke="#bfbfbf" points="1669,-56.5 1669,-75.5 1734,-75.5 1734,-56.5 1669,-56.5"/>
<text text-anchor="middle" x="1701.5" y="-63.5" font-family="Helvetica,sans-Serif" font-size="10.00">coremath.h</text>
</g>
<!-- Node0&#45;&gt;Node27 -->
<g id="edge43" class="edge"><title>Node0&#45;&gt;Node27</title>
<path fill="none" stroke="midnightblue" d="M1236.67,-224.398C1246.15,-199.128 1274.92,-126.018 1295.5,-112 1360.25,-67.8961 1563.74,-87.0133 1658.38,-75.8187"/>
<polygon fill="midnightblue" stroke="midnightblue" points="1659.12,-79.2504 1668.55,-74.427 1658.17,-72.315 1659.12,-79.2504"/>
</g>
<!-- Node28 -->
<g id="node29" class="node"><title>Node28</title>
<polygon fill="white" stroke="#bfbfbf" points="1752,-56.5 1752,-75.5 1819,-75.5 1819,-56.5 1752,-56.5"/>
<text text-anchor="middle" x="1785.5" y="-63.5" font-family="Helvetica,sans-Serif" font-size="10.00">opencv\cv.h</text>
</g>
<!-- Node0&#45;&gt;Node28 -->
<g id="edge51" class="edge"><title>Node0&#45;&gt;Node28</title>
<path fill="none" stroke="midnightblue" d="M1240.63,-224.332C1263.36,-196.693 1332.69,-112.424 1333.5,-112 1411.66,-70.9147 1637.07,-88.1564 1741.72,-75.7917"/>
<polygon fill="midnightblue" stroke="midnightblue" points="1742.32,-79.2438 1751.77,-74.4547 1741.39,-72.305 1742.32,-79.2438"/>
</g>
<!-- Node29 -->
<g id="node30" class="node"><title>Node29</title>
<polygon fill="white" stroke="#bfbfbf" points="1837.5,-56.5 1837.5,-75.5 1929.5,-75.5 1929.5,-56.5 1837.5,-56.5"/>
<text text-anchor="middle" x="1883.5" y="-63.5" font-family="Helvetica,sans-Serif" font-size="10.00">opencv2\core.hpp</text>
</g>
<!-- Node0&#45;&gt;Node29 -->
<g id="edge52" class="edge"><title>Node0&#45;&gt;Node29</title>
<path fill="none" stroke="midnightblue" d="M1245.81,-224.477C1258.19,-215.739 1277.67,-201.548 1293.5,-188 1330.27,-156.525 1327.41,-131.98 1371.5,-112 1461.57,-71.1812 1712.1,-87.2164 1827.28,-75.9409"/>
<polygon fill="midnightblue" stroke="midnightblue" points="1827.77,-79.4083 1837.33,-74.843 1827.01,-72.4497 1827.77,-79.4083"/>
</g>
<!-- Node30 -->
<g id="node31" class="node"><title>Node30</title>
<polygon fill="white" stroke="#bfbfbf" points="1947.5,-56.5 1947.5,-75.5 2051.5,-75.5 2051.5,-56.5 1947.5,-56.5"/>
<text text-anchor="middle" x="1999.5" y="-63.5" font-family="Helvetica,sans-Serif" font-size="10.00">opencv2\calib3d.hpp</text>
</g>
<!-- Node0&#45;&gt;Node30 -->
<g id="edge53" class="edge"><title>Node0&#45;&gt;Node30</title>
<path fill="none" stroke="midnightblue" d="M1252.13,-224.349C1269.57,-215.947 1296.07,-202.383 1317.5,-188 1361.54,-158.443 1360.23,-131.633 1409.5,-112 1516.07,-69.5333 1805.54,-87.5866 1936.97,-75.9877"/>
<polygon fill="midnightblue" stroke="midnightblue" points="1937.68,-79.4349 1947.29,-74.9783 1937,-72.4681 1937.68,-79.4349"/>
</g>
<!-- Node31 -->
<g id="node32" class="node"><title>Node31</title>
<polygon fill="white" stroke="#bfbfbf" points="2069.5,-56.5 2069.5,-75.5 2215.5,-75.5 2215.5,-56.5 2069.5,-56.5"/>
<text text-anchor="middle" x="2142.5" y="-63.5" font-family="Helvetica,sans-Serif" font-size="10.00">opencv2/imgproc/imgproc.hpp</text>
</g>
<!-- Node0&#45;&gt;Node31 -->
<g id="edge54" class="edge"><title>Node0&#45;&gt;Node31</title>
<path fill="none" stroke="midnightblue" d="M1259.92,-224.399C1282.96,-216.411 1316.92,-203.442 1344.5,-188 1394.14,-160.206 1394,-131.357 1447.5,-112 1572.93,-66.6144 1908.97,-86.4992 2059.15,-76.0039"/>
<polygon fill="midnightblue" stroke="midnightblue" points="2059.5,-79.4874 2069.2,-75.2312 2058.96,-72.508 2059.5,-79.4874"/>
</g>
<!-- Node32 -->
<g id="node33" class="node"><title>Node32</title>
<polygon fill="white" stroke="#bfbfbf" points="2233.5,-56.5 2233.5,-75.5 2371.5,-75.5 2371.5,-56.5 2233.5,-56.5"/>
<text text-anchor="middle" x="2302.5" y="-63.5" font-family="Helvetica,sans-Serif" font-size="10.00">opencv2/calib3d/calib3d.hpp</text>
</g>
<!-- Node0&#45;&gt;Node32 -->
<g id="edge55" class="edge"><title>Node0&#45;&gt;Node32</title>
<path fill="none" stroke="midnightblue" d="M1268.82,-224.496C1297.56,-216.891 1338.74,-204.416 1372.5,-188 1426.93,-161.533 1428.06,-131.061 1485.5,-112 1638.58,-61.2073 2044.77,-88.3473 2223.08,-76.0016"/>
<polygon fill="midnightblue" stroke="midnightblue" points="2223.49,-79.4803 2233.2,-75.2371 2222.97,-72.5002 2223.49,-79.4803"/>
</g>
<!-- Node33 -->
<g id="node34" class="node"><title>Node33</title>
<polygon fill="white" stroke="#bfbfbf" points="2389.5,-56.5 2389.5,-75.5 2527.5,-75.5 2527.5,-56.5 2389.5,-56.5"/>
<text text-anchor="middle" x="2458.5" y="-63.5" font-family="Helvetica,sans-Serif" font-size="10.00">opencv2/highgui/highgui.hpp</text>
</g>
<!-- Node0&#45;&gt;Node33 -->
<g id="edge56" class="edge"><title>Node0&#45;&gt;Node33</title>
<path fill="none" stroke="midnightblue" d="M1280.31,-224.49C1314.96,-217.255 1362.83,-205.268 1402.5,-188 1460.73,-162.655 1462.86,-130.852 1523.5,-112 1702.5,-56.3541 2174.46,-89.7803 2379.07,-76.0002"/>
<polygon fill="midnightblue" stroke="midnightblue" points="2379.48,-79.4795 2389.2,-75.2613 2378.97,-72.498 2379.48,-79.4795"/>
</g>
<!-- Node34 -->
<g id="node35" class="node"><title>Node34</title>
<polygon fill="white" stroke="#bfbfbf" points="2546,-56.5 2546,-75.5 2679,-75.5 2679,-56.5 2546,-56.5"/>
<text text-anchor="middle" x="2612.5" y="-63.5" font-family="Helvetica,sans-Serif" font-size="10.00">opencv2\video\tracking.hpp</text>
</g>
<!-- Node0&#45;&gt;Node34 -->
<g id="edge57" class="edge"><title>Node0&#45;&gt;Node34</title>
<path fill="none" stroke="midnightblue" d="M1269.61,-224.441C1329.09,-210.637 1451.52,-183.447 1556.5,-168 1986.03,-104.797 2099.76,-121.905 2535.75,-76.0536"/>
<polygon fill="midnightblue" stroke="midnightblue" points="2536.21,-79.5252 2545.78,-74.9936 2535.47,-72.564 2536.21,-79.5252"/>
</g>
<!-- Node35 -->
<g id="node36" class="node"><title>Node35</title>
<polygon fill="white" stroke="#bfbfbf" points="1566,-168.5 1566,-187.5 1663,-187.5 1663,-168.5 1566,-168.5"/>
<text text-anchor="middle" x="1614.5" y="-175.5" font-family="Helvetica,sans-Serif" font-size="10.00">QDesktopServices</text>
</g>
<!-- Node0&#45;&gt;Node35 -->
<g id="edge45" class="edge"><title>Node0&#45;&gt;Node35</title>
<path fill="none" stroke="midnightblue" d="M1286.11,-225.576C1349.18,-216.673 1458.07,-201.284 1551.5,-188 1552.79,-187.816 1554.1,-187.63 1555.42,-187.443"/>
<polygon fill="midnightblue" stroke="midnightblue" points="1556.26,-190.859 1565.66,-185.983 1555.27,-183.929 1556.26,-190.859"/>
</g>
<!-- Node36 -->
<g id="node37" class="node"><title>Node36</title>
<polygon fill="white" stroke="#bfbfbf" points="1681.5,-168.5 1681.5,-187.5 1753.5,-187.5 1753.5,-168.5 1681.5,-168.5"/>
<text text-anchor="middle" x="1717.5" y="-175.5" font-family="Helvetica,sans-Serif" font-size="10.00">QInputDialog</text>
</g>
<!-- Node0&#45;&gt;Node36 -->
<g id="edge46" class="edge"><title>Node0&#45;&gt;Node36</title>
<path fill="none" stroke="midnightblue" d="M1286.28,-229.135C1368.77,-222.743 1533.14,-208.6 1671.5,-188 1671.6,-187.985 1671.7,-187.97 1671.8,-187.955"/>
<polygon fill="midnightblue" stroke="midnightblue" points="1672.09,-191.454 1681.39,-186.386 1670.96,-184.546 1672.09,-191.454"/>
</g>
<!-- Node37 -->
<g id="node38" class="node"><title>Node37</title>
<polygon fill="white" stroke="#bfbfbf" points="1771.5,-168.5 1771.5,-187.5 1807.5,-187.5 1807.5,-168.5 1771.5,-168.5"/>
<text text-anchor="middle" x="1789.5" y="-175.5" font-family="Helvetica,sans-Serif" font-size="10.00">QUrl</text>
</g>
<!-- Node0&#45;&gt;Node37 -->
<g id="edge47" class="edge"><title>Node0&#45;&gt;Node37</title>
<path fill="none" stroke="midnightblue" d="M1286.27,-232.626C1380.38,-231.069 1583.25,-223.68 1761.54,-187.711"/>
<polygon fill="midnightblue" stroke="midnightblue" points="1762.27,-191.135 1771.36,-185.696 1760.86,-184.278 1762.27,-191.135"/>
</g>
<!-- Node38 -->
<g id="node39" class="node"><title>Node38</title>
<polygon fill="white" stroke="#bfbfbf" points="1826,-168.5 1826,-187.5 1879,-187.5 1879,-168.5 1826,-168.5"/>
<text text-anchor="middle" x="1852.5" y="-175.5" font-family="Helvetica,sans-Serif" font-size="10.00">QThread</text>
</g>
<!-- Node0&#45;&gt;Node38 -->
<g id="edge48" class="edge"><title>Node0&#45;&gt;Node38</title>
<path fill="none" stroke="midnightblue" d="M1286.11,-231.894C1387.04,-229.132 1614.88,-219.807 1815.72,-187.827"/>
<polygon fill="midnightblue" stroke="midnightblue" points="1816.55,-191.238 1825.87,-186.188 1815.44,-184.327 1816.55,-191.238"/>
</g>
<!-- Node39 -->
<g id="node40" class="node"><title>Node39</title>
<polygon fill="white" stroke="#bfbfbf" points="1897,-168.5 1897,-187.5 1964,-187.5 1964,-168.5 1897,-168.5"/>
<text text-anchor="middle" x="1930.5" y="-175.5" font-family="Helvetica,sans-Serif" font-size="10.00">QFileDialog</text>
</g>
<!-- Node0&#45;&gt;Node39 -->
<g id="edge50" class="edge"><title>Node0&#45;&gt;Node39</title>
<path fill="none" stroke="midnightblue" d="M1286.4,-231.919C1396.49,-229.117 1658.33,-219.584 1886.49,-188.106"/>
<polygon fill="midnightblue" stroke="midnightblue" points="1887.23,-191.537 1896.65,-186.687 1886.26,-184.604 1887.23,-191.537"/>
</g>
<!-- Node40 -->
<g id="node41" class="node"><title>Node40</title>
<polygon fill="white" stroke="#bfbfbf" points="1982.5,-168.5 1982.5,-187.5 2026.5,-187.5 2026.5,-168.5 1982.5,-168.5"/>
<text text-anchor="middle" x="2004.5" y="-175.5" font-family="Helvetica,sans-Serif" font-size="10.00">time.h</text>
</g>
<!-- Node0&#45;&gt;Node40 -->
<g id="edge69" class="edge"><title>Node0&#45;&gt;Node40</title>
<path fill="none" stroke="midnightblue" d="M1286.45,-233.784C1407.01,-234.71 1711.06,-232.198 1972.23,-187.821"/>
<polygon fill="midnightblue" stroke="midnightblue" points="1973.03,-191.236 1982.29,-186.089 1971.84,-184.338 1973.03,-191.236"/>
</g>
<!-- Node41 -->
<g id="node42" class="node"><title>Node41</title>
<polygon fill="white" stroke="#bfbfbf" points="2044.5,-168.5 2044.5,-187.5 2088.5,-187.5 2088.5,-168.5 2044.5,-168.5"/>
<text text-anchor="middle" x="2066.5" y="-175.5" font-family="Helvetica,sans-Serif" font-size="10.00">cmath</text>
</g>
<!-- Node0&#45;&gt;Node41 -->
<g id="edge70" class="edge"><title>Node0&#45;&gt;Node41</title>
<path fill="none" stroke="midnightblue" d="M1286.24,-231.6C1437.44,-227.344 1871.46,-213.378 2033.98,-187.803"/>
<polygon fill="midnightblue" stroke="midnightblue" points="2034.99,-191.183 2044.29,-186.101 2033.85,-184.277 2034.99,-191.183"/>
</g>
<!-- Node42 -->
<g id="node43" class="node"><title>Node42</title>
<polygon fill="white" stroke="#bfbfbf" points="2106.5,-168.5 2106.5,-187.5 2148.5,-187.5 2148.5,-168.5 2106.5,-168.5"/>
<text text-anchor="middle" x="2127.5" y="-175.5" font-family="Helvetica,sans-Serif" font-size="10.00">vector</text>
</g>
<!-- Node0&#45;&gt;Node42 -->
<g id="edge71" class="edge"><title>Node0&#45;&gt;Node42</title>
<path fill="none" stroke="midnightblue" d="M1286.24,-231.906C1445.57,-228.346 1921.18,-215.779 2096.25,-187.725"/>
<polygon fill="midnightblue" stroke="midnightblue" points="2097.06,-191.137 2106.35,-186.03 2095.9,-184.234 2097.06,-191.137"/>
</g>
<!-- Node43 -->
<g id="node44" class="node"><title>Node43</title>
<polygon fill="white" stroke="#bfbfbf" points="2166.5,-168.5 2166.5,-187.5 2222.5,-187.5 2222.5,-168.5 2166.5,-168.5"/>
<text text-anchor="middle" x="2194.5" y="-175.5" font-family="Helvetica,sans-Serif" font-size="10.00">algorithm</text>
</g>
<!-- Node0&#45;&gt;Node43 -->
<g id="edge72" class="edge"><title>Node0&#45;&gt;Node43</title>
<path fill="none" stroke="midnightblue" d="M1286.22,-231.75C1452.94,-227.594 1968.34,-213.135 2156.29,-187.844"/>
<polygon fill="midnightblue" stroke="midnightblue" points="2156.91,-191.291 2166.33,-186.437 2155.94,-184.359 2156.91,-191.291"/>
</g>
<!-- Node44 -->
<g id="node45" class="node"><title>Node44</title>
<polygon fill="white" stroke="#bfbfbf" points="2241,-168.5 2241,-187.5 2290,-187.5 2290,-168.5 2241,-168.5"/>
<text text-anchor="middle" x="2265.5" y="-175.5" font-family="Helvetica,sans-Serif" font-size="10.00">random</text>
</g>
<!-- Node0&#45;&gt;Node44 -->
<g id="edge73" class="edge"><title>Node0&#45;&gt;Node44</title>
<path fill="none" stroke="midnightblue" d="M1286.04,-232.112C1461.53,-228.919 2027.34,-216.728 2230.76,-187.692"/>
<polygon fill="midnightblue" stroke="midnightblue" points="2231.37,-191.139 2240.75,-186.207 2230.34,-184.215 2231.37,-191.139"/>
</g>
<!-- Node45 -->
<g id="node46" class="node"><title>Node45</title>
<polygon fill="white" stroke="#bfbfbf" points="2308.5,-168.5 2308.5,-187.5 2362.5,-187.5 2362.5,-168.5 2308.5,-168.5"/>
<text text-anchor="middle" x="2335.5" y="-175.5" font-family="Helvetica,sans-Serif" font-size="10.00">strsafe.h</text>
</g>
<!-- Node0&#45;&gt;Node45 -->
<g id="edge75" class="edge"><title>Node0&#45;&gt;Node45</title>
<path fill="none" stroke="midnightblue" d="M1286.01,-232.193C1469.32,-229.158 2080.95,-217.158 2298.44,-187.788"/>
<polygon fill="midnightblue" stroke="midnightblue" points="2299.07,-191.233 2308.49,-186.377 2298.1,-184.301 2299.07,-191.233"/>
</g>
<!-- Node2 -->
<g id="node3" class="node"><title>Node2</title>
<polygon fill="white" stroke="#bfbfbf" points="239,-112.5 239,-131.5 368,-131.5 368,-112.5 239,-112.5"/>
<text text-anchor="middle" x="303.5" y="-119.5" font-family="Helvetica,sans-Serif" font-size="10.00">QtWidgets/QMainWindow</text>
</g>
<!-- Node1&#45;&gt;Node2 -->
<g id="edge2" class="edge"><title>Node1&#45;&gt;Node2</title>
<path fill="none" stroke="midnightblue" d="M303.5,-168.083C303.5,-161.006 303.5,-150.861 303.5,-141.986"/>
<polygon fill="midnightblue" stroke="midnightblue" points="307,-141.751 303.5,-131.751 300,-141.751 307,-141.751"/>
</g>
<!-- Node3 -->
<g id="node4" class="node"><title>Node3</title>
<polygon fill="white" stroke="#bfbfbf" points="93,-112.5 93,-131.5 176,-131.5 176,-112.5 93,-112.5"/>
<text text-anchor="middle" x="134.5" y="-119.5" font-family="Helvetica,sans-Serif" font-size="10.00">ui_RigidTrack.h</text>
</g>
<!-- Node1&#45;&gt;Node3 -->
<g id="edge3" class="edge"><title>Node1&#45;&gt;Node3</title>
<path fill="none" stroke="midnightblue" d="M276.721,-168.444C248.167,-159.32 202.767,-144.813 170.963,-134.651"/>
<polygon fill="midnightblue" stroke="midnightblue" points="171.744,-131.226 161.153,-131.516 169.614,-137.894 171.744,-131.226"/>
</g>
<!-- Node4 -->
<g id="node5" class="node"><title>Node4</title>
<polygon fill="white" stroke="#bfbfbf" points="88.5,-0.5 88.5,-19.5 150.5,-19.5 150.5,-0.5 88.5,-0.5"/>
<text text-anchor="middle" x="119.5" y="-7.5" font-family="Helvetica,sans-Serif" font-size="10.00">qpixmap.h</text>
</g>
<!-- Node1&#45;&gt;Node4 -->
<g id="edge4" class="edge"><title>Node1&#45;&gt;Node4</title>
<path fill="none" stroke="midnightblue" d="M287.993,-168.361C248.953,-146.495 148.967,-89.718 138.5,-76 128.258,-62.5769 123.528,-43.7588 121.349,-29.8228"/>
<polygon fill="midnightblue" stroke="midnightblue" points="124.82,-29.3707 120.091,-19.8894 117.875,-30.2498 124.82,-29.3707"/>
</g>
<!-- Node1&#45;&gt;Node5 -->
<g id="edge5" class="edge"><title>Node1&#45;&gt;Node5</title>
<path fill="none" stroke="midnightblue" d="M339.317,-173.903C458.231,-164.134 838.174,-134.104 953.247,-125.392"/>
<polygon fill="midnightblue" stroke="midnightblue" points="953.525,-128.881 963.234,-124.64 953,-121.901 953.525,-128.881"/>
</g>
<!-- Node1&#45;&gt;Node20 -->
<g id="edge37" class="edge"><title>Node1&#45;&gt;Node20</title>
<path fill="none" stroke="midnightblue" d="M267.555,-173.23C213.004,-166.922 112.575,-152.834 83.5,-132 67.5969,-120.604 57.3002,-100.315 51.4903,-85.4272"/>
<polygon fill="midnightblue" stroke="midnightblue" points="54.6931,-83.9883 48.0368,-75.7455 48.1,-86.3401 54.6931,-83.9883"/>
</g>
<!-- Node5&#45;&gt;Node1 -->
<g id="edge23" class="edge"><title>Node5&#45;&gt;Node1</title>
<path fill="none" stroke="midnightblue" d="M963.429,-125.045C865.261,-133.205 482.436,-163.49 349.328,-173.651"/>
<polygon fill="midnightblue" stroke="midnightblue" points="348.779,-170.183 339.073,-174.432 349.31,-177.163 348.779,-170.183"/>
</g>
<!-- Node5&#45;&gt;Node6 -->
<g id="edge6" class="edge"><title>Node5&#45;&gt;Node6</title>
<path fill="none" stroke="midnightblue" d="M963.347,-121.355C869.805,-122.437 510.716,-123.208 207.566,-75.8038"/>
<polygon fill="midnightblue" stroke="midnightblue" points="207.684,-72.2787 197.259,-74.1698 206.588,-79.1924 207.684,-72.2787"/>
</g>
<!-- Node5&#45;&gt;Node7 -->
<g id="edge7" class="edge"><title>Node5&#45;&gt;Node7</title>
<path fill="none" stroke="midnightblue" d="M963.403,-120.829C876.164,-119.911 558.372,-114.088 287.863,-75.9723"/>
<polygon fill="midnightblue" stroke="midnightblue" points="288.251,-72.4922 277.856,-74.5443 287.262,-79.422 288.251,-72.4922"/>
</g>
<!-- Node5&#45;&gt;Node8 -->
<g id="edge8" class="edge"><title>Node5&#45;&gt;Node8</title>
<path fill="none" stroke="midnightblue" d="M963.276,-120.982C881.105,-120.578 596.487,-116.29 353.604,-75.8395"/>
<polygon fill="midnightblue" stroke="midnightblue" points="353.973,-72.3522 343.529,-74.1365 352.806,-79.2543 353.973,-72.3522"/>
</g>
<!-- Node5&#45;&gt;Node9 -->
<g id="edge9" class="edge"><title>Node5&#45;&gt;Node9</title>
<path fill="none" stroke="midnightblue" d="M963.311,-120.714C886.818,-119.447 635.538,-112.704 419.126,-75.7515"/>
<polygon fill="midnightblue" stroke="midnightblue" points="419.624,-72.2857 409.173,-74.0262 418.428,-79.1829 419.624,-72.2857"/>
</g>
<!-- Node5&#45;&gt;Node10 -->
<g id="edge10" class="edge"><title>Node5&#45;&gt;Node10</title>
<path fill="none" stroke="midnightblue" d="M963.44,-120.457C892.864,-118.478 673.562,-109.974 483.678,-75.8928"/>
<polygon fill="midnightblue" stroke="midnightblue" points="484.267,-72.4425 473.802,-74.0917 483.011,-79.3289 484.267,-72.4425"/>
</g>
<!-- Node5&#45;&gt;Node11 -->
<g id="edge11" class="edge"><title>Node5&#45;&gt;Node11</title>
<path fill="none" stroke="midnightblue" d="M963.393,-119.745C899.85,-116.05 717.044,-103.795 555.647,-75.9634"/>
<polygon fill="midnightblue" stroke="midnightblue" points="555.993,-72.4707 545.539,-74.1947 554.786,-79.366 555.993,-72.4707"/>
</g>
<!-- Node5&#45;&gt;Node12 -->
<g id="edge12" class="edge"><title>Node5&#45;&gt;Node12</title>
<path fill="none" stroke="midnightblue" d="M963.471,-119.168C907.342,-114.486 758.913,-100.796 625.758,-76.0261"/>
<polygon fill="midnightblue" stroke="midnightblue" points="626.268,-72.5605 615.792,-74.1456 624.97,-79.4391 626.268,-72.5605"/>
</g>
<!-- Node5&#45;&gt;Node13 -->
<g id="edge13" class="edge"><title>Node5&#45;&gt;Node13</title>
<path fill="none" stroke="midnightblue" d="M963.478,-118.327C915.233,-112.545 799.861,-97.7762 693.265,-75.9588"/>
<polygon fill="midnightblue" stroke="midnightblue" points="693.812,-72.4979 683.309,-73.8949 692.391,-79.3521 693.812,-72.4979"/>
</g>
<!-- Node5&#45;&gt;Node14 -->
<g id="edge14" class="edge"><title>Node5&#45;&gt;Node14</title>
<path fill="none" stroke="midnightblue" d="M963.406,-117.005C923.716,-110.019 839.828,-94.7289 759.389,-76.077"/>
<polygon fill="midnightblue" stroke="midnightblue" points="760.134,-72.6569 749.6,-73.7861 758.539,-79.4728 760.134,-72.6569"/>
</g>
<!-- Node5&#45;&gt;Node15 -->
<g id="edge15" class="edge"><title>Node5&#45;&gt;Node15</title>
<path fill="none" stroke="midnightblue" d="M963.365,-114.593C929.119,-105.11 864.738,-87.2814 825.234,-76.3417"/>
<polygon fill="midnightblue" stroke="midnightblue" points="826.091,-72.9473 815.519,-73.6515 824.222,-79.6934 826.091,-72.9473"/>
</g>
<!-- Node5&#45;&gt;Node16 -->
<g id="edge16" class="edge"><title>Node5&#45;&gt;Node16</title>
<path fill="none" stroke="midnightblue" d="M966.376,-112.444C945.476,-103.557 912.565,-89.5632 888.784,-79.4514"/>
<polygon fill="midnightblue" stroke="midnightblue" points="890.102,-76.2085 879.529,-75.5164 887.362,-82.6504 890.102,-76.2085"/>
</g>
<!-- Node5&#45;&gt;Node17 -->
<g id="edge17" class="edge"><title>Node5&#45;&gt;Node17</title>
<path fill="none" stroke="midnightblue" d="M996.622,-112.324C1006.03,-104.263 1020.24,-92.0765 1031.57,-82.3695"/>
<polygon fill="midnightblue" stroke="midnightblue" points="1033.88,-84.9993 1039.19,-75.8339 1029.32,-79.6844 1033.88,-84.9993"/>
</g>
<!-- Node18 -->
<g id="node19" class="node"><title>Node18</title>
<polygon fill="white" stroke="#bfbfbf" points="904,-56.5 904,-75.5 945,-75.5 945,-56.5 904,-56.5"/>
<text text-anchor="middle" x="924.5" y="-63.5" font-family="Helvetica,sans-Serif" font-size="10.00">future</text>
</g>
<!-- Node5&#45;&gt;Node18 -->
<g id="edge18" class="edge"><title>Node5&#45;&gt;Node18</title>
<path fill="none" stroke="midnightblue" d="M976.539,-112.324C967.373,-104.341 953.563,-92.3128 942.472,-82.6529"/>
<polygon fill="midnightblue" stroke="midnightblue" points="944.482,-79.7624 934.643,-75.8339 939.885,-85.041 944.482,-79.7624"/>
</g>
<!-- Node19 -->
<g id="node20" class="node"><title>Node19</title>
<polygon fill="white" stroke="#bfbfbf" points="963.5,-56.5 963.5,-75.5 1009.5,-75.5 1009.5,-56.5 963.5,-56.5"/>
<text text-anchor="middle" x="986.5" y="-63.5" font-family="Helvetica,sans-Serif" font-size="10.00">atomic</text>
</g>
<!-- Node5&#45;&gt;Node19 -->
<g id="edge19" class="edge"><title>Node5&#45;&gt;Node19</title>
<path fill="none" stroke="midnightblue" d="M986.5,-112.083C986.5,-105.006 986.5,-94.8611 986.5,-85.9865"/>
<polygon fill="midnightblue" stroke="midnightblue" points="990,-85.751 986.5,-75.7511 983,-85.7511 990,-85.751"/>
</g>
<!-- Node5&#45;&gt;Node20 -->
<g id="edge20" class="edge"><title>Node5&#45;&gt;Node20</title>
<path fill="none" stroke="midnightblue" d="M963.207,-120.136C863.799,-116.368 465.247,-100.468 138.5,-76 126.494,-75.101 113.633,-73.9668 101.422,-72.8093"/>
<polygon fill="midnightblue" stroke="midnightblue" points="101.64,-69.3142 91.3498,-71.8362 100.967,-76.2817 101.64,-69.3142"/>
</g>
<!-- Node5&#45;&gt;Node22 -->
<g id="edge24" class="edge"><title>Node5&#45;&gt;Node22</title>
<path fill="none" stroke="midnightblue" d="M1009.65,-113.378C1036.98,-104.38 1082.74,-89.3129 1114.66,-78.8025"/>
<polygon fill="midnightblue" stroke="midnightblue" points="1116.09,-82.0157 1124.49,-75.5637 1113.9,-75.3668 1116.09,-82.0157"/>
</g>
<!-- Node5&#45;&gt;Node23 -->
<g id="edge25" class="edge"><title>Node5&#45;&gt;Node23</title>
<path fill="none" stroke="midnightblue" d="M1009.76,-116.586C1050.23,-108.894 1136.47,-92.4457 1219.33,-76.2188"/>
<polygon fill="midnightblue" stroke="midnightblue" points="1220.02,-79.6514 1229.16,-74.2929 1218.67,-72.7822 1220.02,-79.6514"/>
</g>
<!-- Node5&#45;&gt;Node24 -->
<g id="edge26" class="edge"><title>Node5&#45;&gt;Node24</title>
<path fill="none" stroke="midnightblue" d="M1009.72,-118.072C1061.53,-111.476 1190.7,-94.6813 1309.76,-76.0662"/>
<polygon fill="midnightblue" stroke="midnightblue" points="1310.44,-79.5024 1319.77,-74.4921 1309.35,-72.5873 1310.44,-79.5024"/>
</g>
<!-- Node5&#45;&gt;Node25 -->
<g id="edge27" class="edge"><title>Node5&#45;&gt;Node25</title>
<path fill="none" stroke="midnightblue" d="M1009.6,-119.12C1072.31,-113.897 1251.14,-98.2095 1411.31,-75.9233"/>
<polygon fill="midnightblue" stroke="midnightblue" points="1411.93,-79.371 1421.34,-74.5148 1410.95,-72.4389 1411.93,-79.371"/>
</g>
<!-- Node5&#45;&gt;Node26 -->
<g id="edge28" class="edge"><title>Node5&#45;&gt;Node26</title>
<path fill="none" stroke="midnightblue" d="M1009.6,-119.32C1081.91,-113.997 1310.55,-96.6958 1511.77,-76.0383"/>
<polygon fill="midnightblue" stroke="midnightblue" points="1512.35,-79.4973 1521.94,-74.9893 1511.63,-72.5342 1512.35,-79.4973"/>
</g>
<!-- Node5&#45;&gt;Node27 -->
<g id="edge29" class="edge"><title>Node5&#45;&gt;Node27</title>
<path fill="none" stroke="midnightblue" d="M1009.58,-120.662C1094.61,-119.164 1398.54,-111.588 1658.56,-75.9173"/>
<polygon fill="midnightblue" stroke="midnightblue" points="1659.14,-79.3698 1668.57,-74.5273 1658.18,-72.4363 1659.14,-79.3698"/>
</g>
<!-- Node5&#45;&gt;Node28 -->
<g id="edge30" class="edge"><title>Node5&#45;&gt;Node28</title>
<path fill="none" stroke="midnightblue" d="M1009.51,-120.087C1117.58,-115.732 1576.05,-96.4769 1741.76,-75.8438"/>
<polygon fill="midnightblue" stroke="midnightblue" points="1742.31,-79.3019 1751.78,-74.5462 1741.41,-72.3599 1742.31,-79.3019"/>
</g>
<!-- Node5&#45;&gt;Node29 -->
<g id="edge31" class="edge"><title>Node5&#45;&gt;Node29</title>
<path fill="none" stroke="midnightblue" d="M1009.68,-120.685C1107.58,-119.162 1496.94,-111.17 1827.09,-76.029"/>
<polygon fill="midnightblue" stroke="midnightblue" points="1827.77,-79.4769 1837.34,-74.928 1827.02,-72.517 1827.77,-79.4769"/>
</g>
<!-- Node5&#45;&gt;Node30 -->
<g id="edge32" class="edge"><title>Node5&#45;&gt;Node30</title>
<path fill="none" stroke="midnightblue" d="M1009.76,-120.751C1115.45,-119.442 1561.26,-112.015 1937.31,-76.0142"/>
<polygon fill="midnightblue" stroke="midnightblue" points="1937.68,-79.4949 1947.3,-75.0498 1937.01,-72.5273 1937.68,-79.4949"/>
</g>
<!-- Node5&#45;&gt;Node31 -->
<g id="edge33" class="edge"><title>Node5&#45;&gt;Node31</title>
<path fill="none" stroke="midnightblue" d="M1009.58,-120.61C1122.87,-118.576 1631.44,-108.055 2059.12,-76.0522"/>
<polygon fill="midnightblue" stroke="midnightblue" points="2059.5,-79.5337 2069.21,-75.2922 2058.97,-72.5535 2059.5,-79.5337"/>
</g>
<!-- Node5&#45;&gt;Node32 -->
<g id="edge34" class="edge"><title>Node5&#45;&gt;Node32</title>
<path fill="none" stroke="midnightblue" d="M1009.58,-120.409C1155.71,-116.633 1954.54,-95.4329 2223.11,-76.0292"/>
<polygon fill="midnightblue" stroke="midnightblue" points="2223.49,-79.5107 2233.2,-75.2816 2222.97,-72.5298 2223.49,-79.5107"/>
</g>
<!-- Node5&#45;&gt;Node33 -->
<g id="edge35" class="edge"><title>Node5&#45;&gt;Node33</title>
<path fill="none" stroke="midnightblue" d="M1009.61,-120.516C1166.45,-117.193 2077.32,-97.2684 2379.16,-76.0208"/>
<polygon fill="midnightblue" stroke="midnightblue" points="2379.48,-79.5066 2389.21,-75.2963 2378.98,-72.5247 2379.48,-79.5066"/>
</g>
<!-- Node5&#45;&gt;Node34 -->
<g id="edge36" class="edge"><title>Node5&#45;&gt;Node34</title>
<path fill="none" stroke="midnightblue" d="M1009.71,-120.61C1176.88,-117.758 2199.74,-99.5905 2535.59,-75.9736"/>
<polygon fill="midnightblue" stroke="midnightblue" points="2536.08,-79.4473 2545.8,-75.2378 2535.58,-72.4654 2536.08,-79.4473"/>
</g>
<!-- Node20&#45;&gt;Node4 -->
<g id="edge22" class="edge"><title>Node20&#45;&gt;Node4</title>
<path fill="none" stroke="midnightblue" d="M57.3894,-56.324C68.6502,-48.1066 85.7866,-35.6017 99.2091,-25.8069"/>
<polygon fill="midnightblue" stroke="midnightblue" points="101.38,-28.5559 107.394,-19.8339 97.2532,-22.9014 101.38,-28.5559"/>
</g>
<!-- Node21 -->
<g id="node22" class="node"><title>Node21</title>
<polygon fill="white" stroke="#bfbfbf" points="17,-0.5 17,-19.5 70,-19.5 70,-0.5 17,-0.5"/>
<text text-anchor="middle" x="43.5" y="-7.5" font-family="Helvetica,sans-Serif" font-size="10.00">QObject</text>
</g>
<!-- Node20&#45;&gt;Node21 -->
<g id="edge21" class="edge"><title>Node20&#45;&gt;Node21</title>
<path fill="none" stroke="midnightblue" d="M45.1697,-56.083C44.9076,-49.0059 44.5319,-38.8611 44.2032,-29.9865"/>
<polygon fill="midnightblue" stroke="midnightblue" points="47.6919,-29.6147 43.8241,-19.7511 40.6967,-29.8738 47.6919,-29.6147"/>
</g>
</g>
</svg>
