<?xml version="1.0" encoding="UTF-8" standalone="no"?>
<!DOCTYPE svg PUBLIC "-//W3C//DTD SVG 1.1//EN"
 "http://www.w3.org/Graphics/SVG/1.1/DTD/svg11.dtd">
<!-- Generated by graphviz version 2.38.0 (20140413.2041)
 -->
<!-- Title: loadCameraPosition Pages: 1 -->
<svg width="717pt" height="66pt"
 viewBox="0.00 0.00 717.00 66.00" xmlns="http://www.w3.org/2000/svg" xmlns:xlink="http://www.w3.org/1999/xlink">
<g id="graph0" class="graph" transform="scale(1 1) rotate(0) translate(4 62)">
<title>loadCameraPosition</title>
<polygon fill="white" stroke="none" points="-4,4 -4,-62 713,-62 713,4 -4,4"/>
<!-- Node73 -->
<g id="node1" class="node"><title>Node73</title>
<polygon fill="#bfbfbf" stroke="black" points="0,-19.5 0,-38.5 104,-38.5 104,-19.5 0,-19.5"/>
<text text-anchor="middle" x="52" y="-26.5" font-family="Helvetica,sans-Serif" font-size="10.00">loadCameraPosition</text>
</g>
<!-- Node74 -->
<g id="node2" class="node"><title>Node74</title>
<g id="a_node2"><a xlink:href="supportcode_8cpp.html#a0ddf1224851353fc92bfbff6f499fa97" target="_top" xlink:title="main initialises the GUI and values for the marker position etc ">
<polygon fill="white" stroke="black" points="140,-19.5 140,-38.5 178,-38.5 178,-19.5 140,-19.5"/>
<text text-anchor="middle" x="159" y="-26.5" font-family="Helvetica,sans-Serif" font-size="10.00">main</text>
</a>
</g>
</g>
<!-- Node73&#45;&gt;Node74 -->
<g id="edge1" class="edge"><title>Node73&#45;&gt;Node74</title>
<path fill="none" stroke="midnightblue" d="M114.356,-29C123.568,-29 132.404,-29 139.688,-29"/>
<polygon fill="midnightblue" stroke="midnightblue" points="114.27,-25.5001 104.27,-29 114.27,-32.5001 114.27,-25.5001"/>
</g>
<!-- Node75 -->
<g id="node3" class="node"><title>Node75</title>
<g id="a_node3"><a xlink:href="class_surface.html#a728571d0386e9690ce1760931562c72b" target="_top" xlink:title="Surface::PutPixel">
<polygon fill="white" stroke="black" points="214,-38.5 214,-57.5 306,-57.5 306,-38.5 214,-38.5"/>
<text text-anchor="middle" x="260" y="-45.5" font-family="Helvetica,sans-Serif" font-size="10.00">Surface::PutPixel</text>
</a>
</g>
</g>
<!-- Node74&#45;&gt;Node75 -->
<g id="edge2" class="edge"><title>Node74&#45;&gt;Node75</title>
<path fill="none" stroke="midnightblue" d="M188.064,-34.3861C196.078,-35.924 205.02,-37.6402 213.782,-39.3219"/>
<polygon fill="midnightblue" stroke="midnightblue" points="188.639,-30.9325 178.158,-32.4849 187.319,-37.807 188.639,-30.9325"/>
</g>
<!-- Node79 -->
<g id="node7" class="node"><title>Node79</title>
<g id="a_node7"><a xlink:href="supportcode_8cpp.html#a661c2abc03926acfaeb93b4ae7db4943" target="_top" xlink:title="/&lt; Window Show State ">
<polygon fill="white" stroke="black" points="232.5,-0.5 232.5,-19.5 287.5,-19.5 287.5,-0.5 232.5,-0.5"/>
<text text-anchor="middle" x="260" y="-7.5" font-family="Helvetica,sans-Serif" font-size="10.00">WinMain</text>
</a>
</g>
</g>
<!-- Node74&#45;&gt;Node79 -->
<g id="edge6" class="edge"><title>Node74&#45;&gt;Node79</title>
<path fill="none" stroke="midnightblue" d="M188.142,-23.5989C202.031,-20.9335 218.695,-17.7354 232.372,-15.1104"/>
<polygon fill="midnightblue" stroke="midnightblue" points="187.319,-20.193 178.158,-25.5151 188.639,-27.0675 187.319,-20.193"/>
</g>
<!-- Node76 -->
<g id="node4" class="node"><title>Node76</title>
<g id="a_node4"><a xlink:href="class_surface.html#a377c59f6ef131d4b879cda93578a3efa" target="_top" xlink:title="Surface::SurfaceHeight">
<polygon fill="white" stroke="black" points="342,-38.5 342,-57.5 458,-57.5 458,-38.5 342,-38.5"/>
<text text-anchor="middle" x="400" y="-45.5" font-family="Helvetica,sans-Serif" font-size="10.00">Surface::SurfaceHeight</text>
</a>
</g>
</g>
<!-- Node75&#45;&gt;Node76 -->
<g id="edge3" class="edge"><title>Node75&#45;&gt;Node76</title>
<path fill="none" stroke="midnightblue" d="M316.212,-48C324.574,-48 333.218,-48 341.625,-48"/>
<polygon fill="midnightblue" stroke="midnightblue" points="316.186,-44.5001 306.186,-48 316.186,-51.5001 316.186,-44.5001"/>
</g>
<!-- Node77 -->
<g id="node5" class="node"><title>Node77</title>
<g id="a_node5"><a xlink:href="supportcode_8h.html#ac43c2dc16b0859b03a4f7d04a7e97d3c" target="_top" xlink:title="DrawGLScene">
<polygon fill="white" stroke="black" points="494,-38.5 494,-57.5 573,-57.5 573,-38.5 494,-38.5"/>
<text text-anchor="middle" x="533.5" y="-45.5" font-family="Helvetica,sans-Serif" font-size="10.00">DrawGLScene</text>
</a>
</g>
</g>
<!-- Node76&#45;&gt;Node77 -->
<g id="edge4" class="edge"><title>Node76&#45;&gt;Node77</title>
<path fill="none" stroke="midnightblue" d="M468.511,-48C477.228,-48 485.905,-48 493.926,-48"/>
<polygon fill="midnightblue" stroke="midnightblue" points="468.295,-44.5001 458.295,-48 468.295,-51.5001 468.295,-44.5001"/>
</g>
<!-- Node78 -->
<g id="node6" class="node"><title>Node78</title>
<g id="a_node6"><a xlink:href="class_surface.html#abe0d542404575c60911d6ad4219560f9" target="_top" xlink:title="Surface::PixelSpan">
<polygon fill="white" stroke="black" points="609,-38.5 609,-57.5 709,-57.5 709,-38.5 609,-38.5"/>
<text text-anchor="middle" x="659" y="-45.5" font-family="Helvetica,sans-Serif" font-size="10.00">Surface::PixelSpan</text>
</a>
</g>
</g>
<!-- Node77&#45;&gt;Node78 -->
<g id="edge5" class="edge"><title>Node77&#45;&gt;Node78</title>
<path fill="none" stroke="midnightblue" d="M583.309,-48C591.74,-48 600.508,-48 608.946,-48"/>
<polygon fill="midnightblue" stroke="midnightblue" points="583.237,-44.5001 573.237,-48 583.237,-51.5001 583.237,-44.5001"/>
</g>
</g>
</svg>
