<?xml version="1.0" encoding="UTF-8" standalone="no"?>
<!DOCTYPE svg PUBLIC "-//W3C//DTD SVG 1.1//EN"
 "http://www.w3.org/Graphics/SVG/1.1/DTD/svg11.dtd">
<!-- Generated by graphviz version 2.38.0 (20140413.2041)
 -->
<!-- Title: setHeadingOffset Pages: 1 -->
<svg width="796pt" height="97pt"
 viewBox="0.00 0.00 796.00 96.50" xmlns="http://www.w3.org/2000/svg" xmlns:xlink="http://www.w3.org/1999/xlink">
<g id="graph0" class="graph" transform="scale(1 1) rotate(0) translate(4 92.5)">
<title>setHeadingOffset</title>
<polygon fill="white" stroke="none" points="-4,4 -4,-92.5 792,-92.5 792,4 -4,4"/>
<!-- Node118 -->
<g id="node1" class="node"><title>Node118</title>
<polygon fill="#bfbfbf" stroke="black" points="0,-28 0,-47 91,-47 91,-28 0,-28"/>
<text text-anchor="middle" x="45.5" y="-35" font-family="Helvetica,sans-Serif" font-size="10.00">setHeadingOffset</text>
</g>
<!-- Node119 -->
<g id="node2" class="node"><title>Node119</title>
<g id="a_node2"><a xlink:href="supportcode_8cpp.html#a0ddf1224851353fc92bfbff6f499fa97" target="_top" xlink:title="main initialises the GUI and values for the marker position etc ">
<polygon fill="white" stroke="black" points="173,-50 173,-69 211,-69 211,-50 173,-50"/>
<text text-anchor="middle" x="192" y="-57" font-family="Helvetica,sans-Serif" font-size="10.00">main</text>
</a>
</g>
</g>
<!-- Node118&#45;&gt;Node119 -->
<g id="edge1" class="edge"><title>Node118&#45;&gt;Node119</title>
<path fill="none" stroke="midnightblue" d="M100.942,-45.7887C126.316,-49.6519 154.816,-53.991 172.829,-56.7335"/>
<polygon fill="midnightblue" stroke="midnightblue" points="101.447,-42.3253 91.0338,-44.2802 100.393,-49.2456 101.447,-42.3253"/>
</g>
<!-- Node125 -->
<g id="node8" class="node"><title>Node125</title>
<g id="a_node8"><a xlink:href="class_rigid_track.html#a72e338d6bf93d0efa3bc503f7ca736c5" target="_top" xlink:title="RigidTrack::on_sbHeading\lOffset_valueChanged">
<polygon fill="white" stroke="black" points="127,-0.5 127,-30.5 257,-30.5 257,-0.5 127,-0.5"/>
<text text-anchor="start" x="135" y="-18.5" font-family="Helvetica,sans-Serif" font-size="10.00">RigidTrack::on_sbHeading</text>
<text text-anchor="middle" x="192" y="-7.5" font-family="Helvetica,sans-Serif" font-size="10.00">Offset_valueChanged</text>
</a>
</g>
</g>
<!-- Node118&#45;&gt;Node125 -->
<g id="edge7" class="edge"><title>Node118&#45;&gt;Node125</title>
<path fill="none" stroke="midnightblue" d="M101.122,-29.1838C109.559,-27.8993 118.338,-26.5627 126.959,-25.2502"/>
<polygon fill="midnightblue" stroke="midnightblue" points="100.393,-25.7544 91.0338,-30.7198 101.447,-32.6747 100.393,-25.7544"/>
</g>
<!-- Node120 -->
<g id="node3" class="node"><title>Node120</title>
<g id="a_node3"><a xlink:href="class_surface.html#a728571d0386e9690ce1760931562c72b" target="_top" xlink:title="Surface::PutPixel">
<polygon fill="white" stroke="black" points="293,-69 293,-88 385,-88 385,-69 293,-69"/>
<text text-anchor="middle" x="339" y="-76" font-family="Helvetica,sans-Serif" font-size="10.00">Surface::PutPixel</text>
</a>
</g>
</g>
<!-- Node119&#45;&gt;Node120 -->
<g id="edge2" class="edge"><title>Node119&#45;&gt;Node120</title>
<path fill="none" stroke="midnightblue" d="M221.239,-63.2002C241.579,-65.8655 269.447,-69.5173 292.857,-72.5847"/>
<polygon fill="midnightblue" stroke="midnightblue" points="221.441,-59.6969 211.071,-61.8679 220.532,-66.6376 221.441,-59.6969"/>
</g>
<!-- Node124 -->
<g id="node7" class="node"><title>Node124</title>
<g id="a_node7"><a xlink:href="supportcode_8cpp.html#a661c2abc03926acfaeb93b4ae7db4943" target="_top" xlink:title="/&lt; Window Show State ">
<polygon fill="white" stroke="black" points="311.5,-31 311.5,-50 366.5,-50 366.5,-31 311.5,-31"/>
<text text-anchor="middle" x="339" y="-38" font-family="Helvetica,sans-Serif" font-size="10.00">WinMain</text>
</a>
</g>
</g>
<!-- Node119&#45;&gt;Node124 -->
<g id="edge6" class="edge"><title>Node119&#45;&gt;Node124</title>
<path fill="none" stroke="midnightblue" d="M221.071,-55.8217C247.144,-52.4053 285.693,-47.354 311.312,-43.997"/>
<polygon fill="midnightblue" stroke="midnightblue" points="220.532,-52.3624 211.071,-57.1321 221.441,-59.3031 220.532,-52.3624"/>
</g>
<!-- Node121 -->
<g id="node4" class="node"><title>Node121</title>
<g id="a_node4"><a xlink:href="class_surface.html#a377c59f6ef131d4b879cda93578a3efa" target="_top" xlink:title="Surface::SurfaceHeight">
<polygon fill="white" stroke="black" points="421,-69 421,-88 537,-88 537,-69 421,-69"/>
<text text-anchor="middle" x="479" y="-76" font-family="Helvetica,sans-Serif" font-size="10.00">Surface::SurfaceHeight</text>
</a>
</g>
</g>
<!-- Node120&#45;&gt;Node121 -->
<g id="edge3" class="edge"><title>Node120&#45;&gt;Node121</title>
<path fill="none" stroke="midnightblue" d="M395.212,-78.5C403.574,-78.5 412.218,-78.5 420.625,-78.5"/>
<polygon fill="midnightblue" stroke="midnightblue" points="395.186,-75.0001 385.186,-78.5 395.186,-82.0001 395.186,-75.0001"/>
</g>
<!-- Node122 -->
<g id="node5" class="node"><title>Node122</title>
<g id="a_node5"><a xlink:href="supportcode_8h.html#ac43c2dc16b0859b03a4f7d04a7e97d3c" target="_top" xlink:title="DrawGLScene">
<polygon fill="white" stroke="black" points="573,-69 573,-88 652,-88 652,-69 573,-69"/>
<text text-anchor="middle" x="612.5" y="-76" font-family="Helvetica,sans-Serif" font-size="10.00">DrawGLScene</text>
</a>
</g>
</g>
<!-- Node121&#45;&gt;Node122 -->
<g id="edge4" class="edge"><title>Node121&#45;&gt;Node122</title>
<path fill="none" stroke="midnightblue" d="M547.511,-78.5C556.228,-78.5 564.905,-78.5 572.926,-78.5"/>
<polygon fill="midnightblue" stroke="midnightblue" points="547.295,-75.0001 537.295,-78.5 547.295,-82.0001 547.295,-75.0001"/>
</g>
<!-- Node123 -->
<g id="node6" class="node"><title>Node123</title>
<g id="a_node6"><a xlink:href="class_surface.html#abe0d542404575c60911d6ad4219560f9" target="_top" xlink:title="Surface::PixelSpan">
<polygon fill="white" stroke="black" points="688,-69 688,-88 788,-88 788,-69 688,-69"/>
<text text-anchor="middle" x="738" y="-76" font-family="Helvetica,sans-Serif" font-size="10.00">Surface::PixelSpan</text>
</a>
</g>
</g>
<!-- Node122&#45;&gt;Node123 -->
<g id="edge5" class="edge"><title>Node122&#45;&gt;Node123</title>
<path fill="none" stroke="midnightblue" d="M662.309,-78.5C670.74,-78.5 679.508,-78.5 687.946,-78.5"/>
<polygon fill="midnightblue" stroke="midnightblue" points="662.237,-75.0001 652.237,-78.5 662.237,-82.0001 662.237,-75.0001"/>
</g>
</g>
</svg>
