<?xml version="1.0" encoding="UTF-8" standalone="no"?>
<!DOCTYPE svg PUBLIC "-//W3C//DTD SVG 1.1//EN"
 "http://www.w3.org/Graphics/SVG/1.1/DTD/svg11.dtd">
<!-- Generated by graphviz version 2.38.0 (20140413.2041)
 -->
<!-- Title: calibrateCamera Pages: 1 -->
<svg width="390pt" height="71pt"
 viewBox="0.00 0.00 390.00 70.50" xmlns="http://www.w3.org/2000/svg" xmlns:xlink="http://www.w3.org/1999/xlink">
<g id="graph0" class="graph" transform="scale(1 1) rotate(0) translate(4 66.5)">
<title>calibrateCamera</title>
<polygon fill="white" stroke="none" points="-4,4 -4,-66.5 386,-66.5 386,4 -4,4"/>
<!-- Node11 -->
<g id="node1" class="node"><title>Node11</title>
<polygon fill="#bfbfbf" stroke="black" points="0,-6 0,-25 87,-25 87,-6 0,-6"/>
<text text-anchor="middle" x="43.5" y="-13" font-family="Helvetica,sans-Serif" font-size="10.00">calibrateCamera</text>
</g>
<!-- Node12 -->
<g id="node2" class="node"><title>Node12</title>
<g id="a_node2"><a xlink:href="main_8h.html#a5f7c5996cd5a271d0277e0741f73a5b4" target="_top" xlink:title="Start the camera calibration routine that computes the camera matrix and distortion coefficients...">
<polygon fill="white" stroke="black" points="123,-25 123,-44 210,-44 210,-25 123,-25"/>
<text text-anchor="middle" x="166.5" y="-32" font-family="Helvetica,sans-Serif" font-size="10.00">calibrateCamera</text>
</a>
</g>
</g>
<!-- Node11&#45;&gt;Node12 -->
<g id="edge1" class="edge"><title>Node11&#45;&gt;Node12</title>
<path fill="none" stroke="midnightblue" d="M97.1039,-23.7601C105.695,-25.1092 114.503,-26.4922 122.817,-27.7978"/>
<polygon fill="midnightblue" stroke="midnightblue" points="97.582,-20.2924 87.1601,-22.1987 96.4961,-27.2076 97.582,-20.2924"/>
</g>
<!-- Node13 -->
<g id="node3" class="node"><title>Node13</title>
<g id="a_node3"><a xlink:href="class_rigid_track.html#aed2c39da404909142074f7dd2ce75a63" target="_top" xlink:title="RigidTrack::on_btnCalibrate\l_clicked">
<polygon fill="white" stroke="black" points="246,-0.5 246,-30.5 382,-30.5 382,-0.5 246,-0.5"/>
<text text-anchor="start" x="254" y="-18.5" font-family="Helvetica,sans-Serif" font-size="10.00">RigidTrack::on_btnCalibrate</text>
<text text-anchor="middle" x="314" y="-7.5" font-family="Helvetica,sans-Serif" font-size="10.00">_clicked</text>
</a>
</g>
</g>
<!-- Node11&#45;&gt;Node13 -->
<g id="edge4" class="edge"><title>Node11&#45;&gt;Node13</title>
<path fill="none" stroke="midnightblue" d="M97.1874,-15.5C139.714,-15.5 199.823,-15.5 245.808,-15.5"/>
<polygon fill="midnightblue" stroke="midnightblue" points="97.0447,-12.0001 87.0446,-15.5 97.0446,-19.0001 97.0447,-12.0001"/>
</g>
<!-- Node12&#45;&gt;Node12 -->
<g id="edge2" class="edge"><title>Node12&#45;&gt;Node12</title>
<path fill="none" stroke="midnightblue" d="M143.807,-53.5292C145.044,-58.628 152.609,-62.5 166.5,-62.5 188.184,-62.5 194.452,-53.0653 185.304,-44.2571"/>
<polygon fill="midnightblue" stroke="midnightblue" points="147.055,-54.8325 147.696,-44.2571 140.6,-52.1246 147.055,-54.8325"/>
</g>
<!-- Node12&#45;&gt;Node13 -->
<g id="edge3" class="edge"><title>Node12&#45;&gt;Node13</title>
<path fill="none" stroke="midnightblue" d="M220.288,-27.6068C228.6,-26.5213 237.289,-25.3867 245.873,-24.2657"/>
<polygon fill="midnightblue" stroke="midnightblue" points="219.83,-24.1367 210.368,-28.9021 220.737,-31.0777 219.83,-24.1367"/>
</g>
</g>
</svg>
