<?xml version="1.0" encoding="UTF-8" standalone="no"?>
<!DOCTYPE svg PUBLIC "-//W3C//DTD SVG 1.1//EN"
 "http://www.w3.org/Graphics/SVG/1.1/DTD/svg11.dtd">
<!-- Generated by graphviz version 2.38.0 (20140413.2041)
 -->
<!-- Title: calibrateCamera Pages: 1 -->
<svg width="400pt" height="270pt"
 viewBox="0.00 0.00 400.00 270.00" xmlns="http://www.w3.org/2000/svg" xmlns:xlink="http://www.w3.org/1999/xlink">
<g id="graph0" class="graph" transform="scale(1 1) rotate(0) translate(4 266)">
<title>calibrateCamera</title>
<polygon fill="white" stroke="none" points="-4,4 -4,-266 396,-266 396,4 -4,4"/>
<!-- Node0 -->
<g id="node1" class="node"><title>Node0</title>
<polygon fill="#bfbfbf" stroke="black" points="0,-114.5 0,-133.5 87,-133.5 87,-114.5 0,-114.5"/>
<text text-anchor="middle" x="43.5" y="-121.5" font-family="Helvetica,sans-Serif" font-size="10.00">calibrateCamera</text>
</g>
<!-- Node1 -->
<g id="node2" class="node"><title>Node1</title>
<g id="a_node2"><a xlink:href="classcomm_object.html#aec354c7099b3039083cc4224e071e022" target="_top" xlink:title="commObject::addLog">
<polygon fill="white" stroke="black" points="264,-242.5 264,-261.5 374,-261.5 374,-242.5 264,-242.5"/>
<text text-anchor="middle" x="319" y="-249.5" font-family="Helvetica,sans-Serif" font-size="10.00">commObject::addLog</text>
</a>
</g>
</g>
<!-- Node0&#45;&gt;Node1 -->
<g id="edge1" class="edge"><title>Node0&#45;&gt;Node1</title>
<path fill="none" stroke="midnightblue" d="M51.6039,-133.521C64.1755,-149.683 91.962,-182.438 123,-200 163.395,-222.857 214.198,-235.982 253.822,-243.327"/>
<polygon fill="midnightblue" stroke="midnightblue" points="253.443,-246.815 263.901,-245.117 254.667,-239.923 253.443,-246.815"/>
</g>
<!-- Node2 -->
<g id="node3" class="node"><title>Node2</title>
<g id="a_node3"><a xlink:href="classcomm_object.html#acfc97f4310e2b7d841ecb8cf8be0088e" target="_top" xlink:title="commObject::progressUpdate">
<polygon fill="white" stroke="black" points="246,-190.5 246,-209.5 392,-209.5 392,-190.5 246,-190.5"/>
<text text-anchor="middle" x="319" y="-197.5" font-family="Helvetica,sans-Serif" font-size="10.00">commObject::progressUpdate</text>
</a>
</g>
</g>
<!-- Node0&#45;&gt;Node2 -->
<g id="edge2" class="edge"><title>Node0&#45;&gt;Node2</title>
<path fill="none" stroke="midnightblue" d="M55.2469,-133.763C69.5521,-146.133 96.178,-167.038 123,-177 158.483,-190.179 199.872,-196.253 235.367,-198.905"/>
<polygon fill="midnightblue" stroke="midnightblue" points="235.484,-202.421 245.695,-199.594 235.95,-195.436 235.484,-202.421"/>
</g>
<!-- Node3 -->
<g id="node4" class="node"><title>Node3</title>
<g id="a_node4"><a xlink:href="main_8cpp.html#a3e3cc959a7ab6f93ea52863d86373ce5" target="_top" xlink:title="Mat2QPixmap">
<polygon fill="white" stroke="black" points="279.5,-124.5 279.5,-143.5 358.5,-143.5 358.5,-124.5 279.5,-124.5"/>
<text text-anchor="middle" x="319" y="-131.5" font-family="Helvetica,sans-Serif" font-size="10.00">Mat2QPixmap</text>
</a>
</g>
</g>
<!-- Node0&#45;&gt;Node3 -->
<g id="edge3" class="edge"><title>Node0&#45;&gt;Node3</title>
<path fill="none" stroke="midnightblue" d="M59.7013,-133.657C75.0026,-142.761 99.6229,-155.767 123,-161 177.765,-173.26 242.504,-158.683 281.889,-146.654"/>
<polygon fill="midnightblue" stroke="midnightblue" points="283.096,-149.943 291.575,-143.589 280.985,-143.269 283.096,-149.943"/>
</g>
<!-- Node4 -->
<g id="node5" class="node"><title>Node4</title>
<g id="a_node5"><a xlink:href="classcomm_object.html#a6f81522c2aa1668fa402f08710e6206b" target="_top" xlink:title="commObject::changeImage">
<polygon fill="white" stroke="black" points="251,-79.5 251,-98.5 387,-98.5 387,-79.5 251,-79.5"/>
<text text-anchor="middle" x="319" y="-86.5" font-family="Helvetica,sans-Serif" font-size="10.00">commObject::changeImage</text>
</a>
</g>
</g>
<!-- Node0&#45;&gt;Node4 -->
<g id="edge4" class="edge"><title>Node0&#45;&gt;Node4</title>
<path fill="none" stroke="midnightblue" d="M79.0435,-114.41C92.6464,-110.958 108.464,-107.341 123,-105 161.459,-98.8066 204.593,-94.9513 240.495,-92.5821"/>
<polygon fill="midnightblue" stroke="midnightblue" points="241.146,-96.048 250.905,-91.9232 240.703,-89.062 241.146,-96.048"/>
</g>
<!-- Node5 -->
<g id="node6" class="node"><title>Node5</title>
<g id="a_node6"><a xlink:href="main_8cpp.html#a0a7f48017dbb3d64bfc1a171631ad7d7" target="_top" xlink:title="calcBoardCornerPositions">
<polygon fill="white" stroke="black" points="254.5,-38.5 254.5,-57.5 383.5,-57.5 383.5,-38.5 254.5,-38.5"/>
<text text-anchor="middle" x="319" y="-45.5" font-family="Helvetica,sans-Serif" font-size="10.00">calcBoardCornerPositions</text>
</a>
</g>
</g>
<!-- Node0&#45;&gt;Node5 -->
<g id="edge5" class="edge"><title>Node0&#45;&gt;Node5</title>
<path fill="none" stroke="midnightblue" d="M63.7686,-114.385C79.4136,-106.89 102.211,-96.6692 123,-90 164.167,-76.7931 211.558,-66.4789 249.312,-59.3769"/>
<polygon fill="midnightblue" stroke="midnightblue" points="249.994,-62.8102 259.19,-57.5501 248.721,-55.9269 249.994,-62.8102"/>
</g>
<!-- Node6 -->
<g id="node7" class="node"><title>Node6</title>
<g id="a_node7"><a xlink:href="main_8cpp.html#a5f7c5996cd5a271d0277e0741f73a5b4" target="_top" xlink:title="Start the camera calibration routine that computes the camera matrix and distortion coefficients...">
<polygon fill="white" stroke="black" points="123,-114.5 123,-133.5 210,-133.5 210,-114.5 123,-114.5"/>
<text text-anchor="middle" x="166.5" y="-121.5" font-family="Helvetica,sans-Serif" font-size="10.00">calibrateCamera</text>
</a>
</g>
</g>
<!-- Node0&#45;&gt;Node6 -->
<g id="edge6" class="edge"><title>Node0&#45;&gt;Node6</title>
<path fill="none" stroke="midnightblue" d="M87.1601,-124C95.3834,-124 104.09,-124 112.593,-124"/>
<polygon fill="midnightblue" stroke="midnightblue" points="112.817,-127.5 122.817,-124 112.817,-120.5 112.817,-127.5"/>
</g>
<!-- Node7 -->
<g id="node8" class="node"><title>Node7</title>
<g id="a_node8"><a xlink:href="classcomm_object.html#a1f4b8dd22ecc46bab619f6b1fe1a5144" target="_top" xlink:title="commObject::changeStatus">
<polygon fill="white" stroke="black" points="250,-0.5 250,-19.5 388,-19.5 388,-0.5 250,-0.5"/>
<text text-anchor="middle" x="319" y="-7.5" font-family="Helvetica,sans-Serif" font-size="10.00">commObject::changeStatus</text>
</a>
</g>
</g>
<!-- Node0&#45;&gt;Node7 -->
<g id="edge14" class="edge"><title>Node0&#45;&gt;Node7</title>
<path fill="none" stroke="midnightblue" d="M54.2746,-114.3C68.3163,-100.888 95.5421,-76.7804 123,-63 162.72,-43.0653 210.88,-29.8816 249.4,-21.649"/>
<polygon fill="midnightblue" stroke="midnightblue" points="250.401,-25.0159 259.482,-19.5592 248.98,-18.1616 250.401,-25.0159"/>
</g>
<!-- Node6&#45;&gt;Node1 -->
<g id="edge7" class="edge"><title>Node6&#45;&gt;Node1</title>
<path fill="none" stroke="midnightblue" d="M173.291,-133.569C184.975,-152.197 213.083,-193.716 246,-219 256.223,-226.853 268.615,-233.379 280.215,-238.498"/>
<polygon fill="midnightblue" stroke="midnightblue" points="279.133,-241.839 289.709,-242.465 281.831,-235.38 279.133,-241.839"/>
</g>
<!-- Node6&#45;&gt;Node2 -->
<g id="edge8" class="edge"><title>Node6&#45;&gt;Node2</title>
<path fill="none" stroke="midnightblue" d="M186.561,-133.625C212.683,-146.817 259.794,-170.607 289.948,-185.834"/>
<polygon fill="midnightblue" stroke="midnightblue" points="288.59,-189.069 299.094,-190.453 291.745,-182.821 288.59,-189.069"/>
</g>
<!-- Node6&#45;&gt;Node3 -->
<g id="edge9" class="edge"><title>Node6&#45;&gt;Node3</title>
<path fill="none" stroke="midnightblue" d="M210.225,-126.839C228.556,-128.057 250.076,-129.487 269.045,-130.747"/>
<polygon fill="midnightblue" stroke="midnightblue" points="269.075,-134.257 279.285,-131.428 269.539,-127.272 269.075,-134.257"/>
</g>
<!-- Node6&#45;&gt;Node4 -->
<g id="edge10" class="edge"><title>Node6&#45;&gt;Node4</title>
<path fill="none" stroke="midnightblue" d="M208.625,-114.436C226.625,-110.25 247.931,-105.295 266.935,-100.876"/>
<polygon fill="midnightblue" stroke="midnightblue" points="267.978,-104.227 276.925,-98.5523 266.392,-97.4085 267.978,-104.227"/>
</g>
<!-- Node6&#45;&gt;Node5 -->
<g id="edge11" class="edge"><title>Node6&#45;&gt;Node5</title>
<path fill="none" stroke="midnightblue" d="M179.032,-114.367C193.748,-102.49 220.375,-82.364 246,-70 253.365,-66.4465 261.43,-63.3159 269.413,-60.6137"/>
<polygon fill="midnightblue" stroke="midnightblue" points="270.599,-63.9093 279.058,-57.5306 268.467,-57.2417 270.599,-63.9093"/>
</g>
<!-- Node6&#45;&gt;Node6 -->
<g id="edge12" class="edge"><title>Node6&#45;&gt;Node6</title>
<path fill="none" stroke="midnightblue" d="M147.696,-133.757C138.548,-142.565 144.816,-152 166.5,-152 180.391,-152 187.956,-148.128 189.193,-143.029"/>
<polygon fill="midnightblue" stroke="midnightblue" points="192.4,-141.625 185.304,-133.757 185.945,-144.332 192.4,-141.625"/>
</g>
<!-- Node6&#45;&gt;Node7 -->
<g id="edge13" class="edge"><title>Node6&#45;&gt;Node7</title>
<path fill="none" stroke="midnightblue" d="M172.761,-114.218C183.704,-94.8348 210.855,-51.4826 246,-29 249.335,-26.8665 252.903,-24.9715 256.599,-23.2885"/>
<polygon fill="midnightblue" stroke="midnightblue" points="258.013,-26.4929 265.995,-19.5267 255.411,-19.9943 258.013,-26.4929"/>
</g>
</g>
</svg>
