<?xml version="1.0" encoding="UTF-8" standalone="no"?>
<!DOCTYPE svg PUBLIC "-//W3C//DTD SVG 1.1//EN"
 "http://www.w3.org/Graphics/SVG/1.1/DTD/svg11.dtd">
<!-- Generated by graphviz version 2.38.0 (20140413.2041)
 -->
<!-- Title: startTracking Pages: 1 -->
<svg width="237pt" height="332pt"
 viewBox="0.00 0.00 237.00 332.00" xmlns="http://www.w3.org/2000/svg" xmlns:xlink="http://www.w3.org/1999/xlink">
<g id="graph0" class="graph" transform="scale(1 1) rotate(0) translate(4 328)">
<title>startTracking</title>
<polygon fill="white" stroke="none" points="-4,4 -4,-328 233,-328 233,4 -4,4"/>
<!-- Node65 -->
<g id="node1" class="node"><title>Node65</title>
<polygon fill="#bfbfbf" stroke="black" points="0,-152.5 0,-171.5 73,-171.5 73,-152.5 0,-152.5"/>
<text text-anchor="middle" x="36.5" y="-159.5" font-family="Helvetica,sans-Serif" font-size="10.00">startTracking</text>
</g>
<!-- Node66 -->
<g id="node2" class="node"><title>Node66</title>
<g id="a_node2"><a xlink:href="main_8cpp.html#a0416912fce6274568e80019b10ba294f" target="_top" xlink:title="determineExposure">
<polygon fill="white" stroke="black" points="118.5,-304.5 118.5,-323.5 219.5,-323.5 219.5,-304.5 118.5,-304.5"/>
<text text-anchor="middle" x="169" y="-311.5" font-family="Helvetica,sans-Serif" font-size="10.00">determineExposure</text>
</a>
</g>
</g>
<!-- Node65&#45;&gt;Node66 -->
<g id="edge1" class="edge"><title>Node65&#45;&gt;Node66</title>
<path fill="none" stroke="midnightblue" d="M39.966,-171.637C46.6982,-196.009 67.7076,-260.604 109,-295 111.026,-296.687 113.204,-298.226 115.487,-299.628"/>
<polygon fill="midnightblue" stroke="midnightblue" points="114.222,-302.914 124.713,-304.392 117.433,-296.694 114.222,-302.914"/>
</g>
<!-- Node67 -->
<g id="node3" class="node"><title>Node67</title>
<g id="a_node3"><a xlink:href="main_8cpp.html#ae624b0189bc5e32cbbb1f178b9f1a360" target="_top" xlink:title="Open the UDP ports for communication. ">
<polygon fill="white" stroke="black" points="138,-266.5 138,-285.5 200,-285.5 200,-266.5 138,-266.5"/>
<text text-anchor="middle" x="169" y="-273.5" font-family="Helvetica,sans-Serif" font-size="10.00">setUpUDP</text>
</a>
</g>
</g>
<!-- Node65&#45;&gt;Node67 -->
<g id="edge2" class="edge"><title>Node65&#45;&gt;Node67</title>
<path fill="none" stroke="midnightblue" d="M42.1583,-171.635C51.8862,-190.756 76.206,-233.658 109,-257 114.714,-261.067 121.342,-264.294 128.049,-266.846"/>
<polygon fill="midnightblue" stroke="midnightblue" points="127.24,-270.267 137.834,-270.121 129.462,-263.628 127.24,-270.267"/>
</g>
<!-- Node68 -->
<g id="node4" class="node"><title>Node68</title>
<g id="a_node4"><a xlink:href="main_8cpp.html#a11ff459289305229597defd39f510959" target="_top" xlink:title="determineOrder">
<polygon fill="white" stroke="black" points="127.5,-228.5 127.5,-247.5 210.5,-247.5 210.5,-228.5 127.5,-228.5"/>
<text text-anchor="middle" x="169" y="-235.5" font-family="Helvetica,sans-Serif" font-size="10.00">determineOrder</text>
</a>
</g>
</g>
<!-- Node65&#45;&gt;Node68 -->
<g id="edge3" class="edge"><title>Node65&#45;&gt;Node68</title>
<path fill="none" stroke="midnightblue" d="M47.3156,-171.78C60.3744,-184.304 84.6576,-205.944 109,-219 113.002,-221.147 117.288,-223.102 121.656,-224.87"/>
<polygon fill="midnightblue" stroke="midnightblue" points="120.676,-228.24 131.269,-228.446 123.117,-221.679 120.676,-228.24"/>
</g>
<!-- Node69 -->
<g id="node5" class="node"><title>Node69</title>
<g id="a_node5"><a xlink:href="main_8cpp.html#af2a8b7de0b15dc17198c147ba39e85f3" target="_top" xlink:title="closeUDP">
<polygon fill="white" stroke="black" points="139,-190.5 139,-209.5 199,-209.5 199,-190.5 139,-190.5"/>
<text text-anchor="middle" x="169" y="-197.5" font-family="Helvetica,sans-Serif" font-size="10.00">closeUDP</text>
</a>
</g>
</g>
<!-- Node65&#45;&gt;Node69 -->
<g id="edge4" class="edge"><title>Node65&#45;&gt;Node69</title>
<path fill="none" stroke="midnightblue" d="M70.4307,-171.589C88.2238,-176.77 110.306,-183.2 128.961,-188.632"/>
<polygon fill="midnightblue" stroke="midnightblue" points="128.062,-192.016 138.642,-191.451 130.019,-185.295 128.062,-192.016"/>
</g>
<!-- Node70 -->
<g id="node6" class="node"><title>Node70</title>
<g id="a_node6"><a xlink:href="main_8cpp.html#ab2b71933055cf32cc8e5e2100fd7723f" target="_top" xlink:title="getEulerAngles">
<polygon fill="white" stroke="black" points="127.5,-152.5 127.5,-171.5 210.5,-171.5 210.5,-152.5 127.5,-152.5"/>
<text text-anchor="middle" x="169" y="-159.5" font-family="Helvetica,sans-Serif" font-size="10.00">getEulerAngles</text>
</a>
</g>
</g>
<!-- Node65&#45;&gt;Node70 -->
<g id="edge5" class="edge"><title>Node65&#45;&gt;Node70</title>
<path fill="none" stroke="midnightblue" d="M73.1597,-162C86.7719,-162 102.564,-162 117.31,-162"/>
<polygon fill="midnightblue" stroke="midnightblue" points="117.313,-165.5 127.313,-162 117.313,-158.5 117.313,-165.5"/>
</g>
<!-- Node71 -->
<g id="node7" class="node"><title>Node71</title>
<g id="a_node7"><a xlink:href="main_8cpp.html#a54b6b6db348b48d21e1265e22829c61f" target="_top" xlink:title="sendDataUDP">
<polygon fill="white" stroke="black" points="130,-114.5 130,-133.5 208,-133.5 208,-114.5 130,-114.5"/>
<text text-anchor="middle" x="169" y="-121.5" font-family="Helvetica,sans-Serif" font-size="10.00">sendDataUDP</text>
</a>
</g>
</g>
<!-- Node65&#45;&gt;Node71 -->
<g id="edge6" class="edge"><title>Node65&#45;&gt;Node71</title>
<path fill="none" stroke="midnightblue" d="M70.4307,-152.411C87.1224,-147.551 107.589,-141.591 125.46,-136.387"/>
<polygon fill="midnightblue" stroke="midnightblue" points="126.457,-139.742 135.08,-133.586 124.5,-133.021 126.457,-139.742"/>
</g>
<!-- Node72 -->
<g id="node8" class="node"><title>Node72</title>
<g id="a_node8"><a xlink:href="main_8cpp.html#a2104a5d9d6b9f1e29bc4cd858c59882e" target="_top" xlink:title="projectCoordinateFrame">
<polygon fill="white" stroke="black" points="109,-76.5 109,-95.5 229,-95.5 229,-76.5 109,-76.5"/>
<text text-anchor="middle" x="169" y="-83.5" font-family="Helvetica,sans-Serif" font-size="10.00">projectCoordinateFrame</text>
</a>
</g>
</g>
<!-- Node65&#45;&gt;Node72 -->
<g id="edge7" class="edge"><title>Node65&#45;&gt;Node72</title>
<path fill="none" stroke="midnightblue" d="M47.3156,-152.22C60.3744,-139.696 84.6576,-118.056 109,-105 113.002,-102.853 117.288,-100.898 121.656,-99.1298"/>
<polygon fill="midnightblue" stroke="midnightblue" points="123.117,-102.321 131.269,-95.5543 120.676,-95.7599 123.117,-102.321"/>
</g>
<!-- Node73 -->
<g id="node9" class="node"><title>Node73</title>
<g id="a_node9"><a xlink:href="main_8cpp.html#af6430ad2592a955a3618549547dfc5be" target="_top" xlink:title="drawPositionText">
<polygon fill="white" stroke="black" points="123.5,-38.5 123.5,-57.5 214.5,-57.5 214.5,-38.5 123.5,-38.5"/>
<text text-anchor="middle" x="169" y="-45.5" font-family="Helvetica,sans-Serif" font-size="10.00">drawPositionText</text>
</a>
</g>
</g>
<!-- Node65&#45;&gt;Node73 -->
<g id="edge8" class="edge"><title>Node65&#45;&gt;Node73</title>
<path fill="none" stroke="midnightblue" d="M42.1583,-152.365C51.8862,-133.244 76.206,-90.3417 109,-67 111.718,-65.0656 114.643,-63.321 117.684,-61.7487"/>
<polygon fill="midnightblue" stroke="midnightblue" points="119.383,-64.8223 127.07,-57.531 116.514,-58.4374 119.383,-64.8223"/>
</g>
<!-- Node74 -->
<g id="node10" class="node"><title>Node74</title>
<g id="a_node10"><a xlink:href="main_8cpp.html#a3e3cc959a7ab6f93ea52863d86373ce5" target="_top" xlink:title="Mat2QPixmap">
<polygon fill="white" stroke="black" points="129.5,-0.5 129.5,-19.5 208.5,-19.5 208.5,-0.5 129.5,-0.5"/>
<text text-anchor="middle" x="169" y="-7.5" font-family="Helvetica,sans-Serif" font-size="10.00">Mat2QPixmap</text>
</a>
</g>
</g>
<!-- Node65&#45;&gt;Node74 -->
<g id="edge9" class="edge"><title>Node65&#45;&gt;Node74</title>
<path fill="none" stroke="midnightblue" d="M39.966,-152.363C46.6982,-127.991 67.7076,-63.3962 109,-29 112.302,-26.2493 116.01,-23.8945 119.916,-21.8789"/>
<polygon fill="midnightblue" stroke="midnightblue" points="121.543,-24.9874 129.295,-17.765 118.731,-18.577 121.543,-24.9874"/>
</g>
</g>
</svg>
