<?xml version="1.0" encoding="UTF-8" standalone="no"?>
<!DOCTYPE svg PUBLIC "-//W3C//DTD SVG 1.1//EN"
 "http://www.w3.org/Graphics/SVG/1.1/DTD/svg11.dtd">
<!-- Generated by graphviz version 2.38.0 (20140413.2041)
 -->
<!-- Title: main Pages: 1 -->
<svg width="342pt" height="218pt"
 viewBox="0.00 0.00 342.00 218.00" xmlns="http://www.w3.org/2000/svg" xmlns:xlink="http://www.w3.org/1999/xlink">
<g id="graph0" class="graph" transform="scale(1 1) rotate(0) translate(4 214)">
<title>main</title>
<polygon fill="white" stroke="none" points="-4,4 -4,-214 338,-214 338,4 -4,4"/>
<!-- Node50 -->
<g id="node1" class="node"><title>Node50</title>
<polygon fill="#bfbfbf" stroke="black" points="0,-114.5 0,-133.5 38,-133.5 38,-114.5 0,-114.5"/>
<text text-anchor="middle" x="19" y="-121.5" font-family="Helvetica,sans-Serif" font-size="10.00">main</text>
</g>
<!-- Node51 -->
<g id="node2" class="node"><title>Node51</title>
<g id="a_node2"><a xlink:href="main_8cpp.html#ad19da4e648bbdc80d3123eb94711588e" target="_top" xlink:title="setHeadingOffset">
<polygon fill="white" stroke="black" points="80.5,-190.5 80.5,-209.5 171.5,-209.5 171.5,-190.5 80.5,-190.5"/>
<text text-anchor="middle" x="126" y="-197.5" font-family="Helvetica,sans-Serif" font-size="10.00">setHeadingOffset</text>
</a>
</g>
</g>
<!-- Node50&#45;&gt;Node51 -->
<g id="edge1" class="edge"><title>Node50&#45;&gt;Node51</title>
<path fill="none" stroke="midnightblue" d="M26.9833,-133.77C36.3812,-146.283 54.219,-167.912 74,-181 76.9254,-182.936 80.0749,-184.709 83.322,-186.328"/>
<polygon fill="midnightblue" stroke="midnightblue" points="82.0681,-189.601 92.6262,-190.481 84.9216,-183.209 82.0681,-189.601"/>
</g>
<!-- Node52 -->
<g id="node3" class="node"><title>Node52</title>
<g id="a_node3"><a xlink:href="main_8cpp.html#af39fa6c3a36ad6bc24a327db7a9d73c2" target="_top" xlink:title="loadCameraPosition">
<polygon fill="white" stroke="black" points="74,-152.5 74,-171.5 178,-171.5 178,-152.5 74,-152.5"/>
<text text-anchor="middle" x="126" y="-159.5" font-family="Helvetica,sans-Serif" font-size="10.00">loadCameraPosition</text>
</a>
</g>
</g>
<!-- Node50&#45;&gt;Node52 -->
<g id="edge2" class="edge"><title>Node50&#45;&gt;Node52</title>
<path fill="none" stroke="midnightblue" d="M38.2896,-130.619C52.2387,-135.667 71.8948,-142.781 88.9664,-148.959"/>
<polygon fill="midnightblue" stroke="midnightblue" points="88.0623,-152.354 98.6565,-152.466 90.4445,-145.772 88.0623,-152.354"/>
</g>
<!-- Node53 -->
<g id="node4" class="node"><title>Node53</title>
<g id="a_node4"><a xlink:href="main_8cpp.html#ad39626702ff983d5fdab4b703bfaf964" target="_top" xlink:title="loadCalibration">
<polygon fill="white" stroke="black" points="86,-114.5 86,-133.5 166,-133.5 166,-114.5 86,-114.5"/>
<text text-anchor="middle" x="126" y="-121.5" font-family="Helvetica,sans-Serif" font-size="10.00">loadCalibration</text>
</a>
</g>
</g>
<!-- Node50&#45;&gt;Node53 -->
<g id="edge3" class="edge"><title>Node50&#45;&gt;Node53</title>
<path fill="none" stroke="midnightblue" d="M38.2896,-124C48.684,-124 62.2472,-124 75.5487,-124"/>
<polygon fill="midnightblue" stroke="midnightblue" points="75.6125,-127.5 85.6125,-124 75.6124,-120.5 75.6125,-127.5"/>
</g>
<!-- Node54 -->
<g id="node5" class="node"><title>Node54</title>
<g id="a_node5"><a xlink:href="main_8cpp.html#a56c7f641859cb2b6b99b0947d03be800" target="_top" xlink:title="loadMarkerConfig">
<polygon fill="white" stroke="black" points="80,-76.5 80,-95.5 172,-95.5 172,-76.5 80,-76.5"/>
<text text-anchor="middle" x="126" y="-83.5" font-family="Helvetica,sans-Serif" font-size="10.00">loadMarkerConfig</text>
</a>
</g>
</g>
<!-- Node50&#45;&gt;Node54 -->
<g id="edge4" class="edge"><title>Node50&#45;&gt;Node54</title>
<path fill="none" stroke="midnightblue" d="M38.2896,-117.381C52.2387,-112.333 71.8948,-105.219 88.9664,-99.0407"/>
<polygon fill="midnightblue" stroke="midnightblue" points="90.4445,-102.228 98.6565,-95.5338 88.0623,-95.6458 90.4445,-102.228"/>
</g>
<!-- Node57 -->
<g id="node8" class="node"><title>Node57</title>
<g id="a_node8"><a xlink:href="main_8cpp.html#a847c0fbd3e513fb76ff145b31a9f5c37" target="_top" xlink:title="testAlgorithms">
<polygon fill="white" stroke="black" points="86,-38.5 86,-57.5 166,-57.5 166,-38.5 86,-38.5"/>
<text text-anchor="middle" x="126" y="-45.5" font-family="Helvetica,sans-Serif" font-size="10.00">testAlgorithms</text>
</a>
</g>
</g>
<!-- Node50&#45;&gt;Node57 -->
<g id="edge7" class="edge"><title>Node50&#45;&gt;Node57</title>
<path fill="none" stroke="midnightblue" d="M26.9833,-114.23C36.3812,-101.717 54.219,-80.088 74,-67 76.9254,-65.0644 80.0749,-63.2906 83.322,-61.6724"/>
<polygon fill="midnightblue" stroke="midnightblue" points="84.9216,-64.7913 92.6262,-57.5188 82.0681,-58.3993 84.9216,-64.7913"/>
</g>
<!-- Node55 -->
<g id="node6" class="node"><title>Node55</title>
<g id="a_node6"><a xlink:href="main_8cpp.html#a2104a5d9d6b9f1e29bc4cd858c59882e" target="_top" xlink:title="projectCoordinateFrame">
<polygon fill="white" stroke="black" points="214,-38.5 214,-57.5 334,-57.5 334,-38.5 214,-38.5"/>
<text text-anchor="middle" x="274" y="-45.5" font-family="Helvetica,sans-Serif" font-size="10.00">projectCoordinateFrame</text>
</a>
</g>
</g>
<!-- Node54&#45;&gt;Node55 -->
<g id="edge5" class="edge"><title>Node54&#45;&gt;Node55</title>
<path fill="none" stroke="midnightblue" d="M163.842,-76.411C182.848,-71.4642 206.229,-65.3789 226.469,-60.1108"/>
<polygon fill="midnightblue" stroke="midnightblue" points="227.627,-63.4261 236.423,-57.5201 225.864,-56.6518 227.627,-63.4261"/>
</g>
<!-- Node56 -->
<g id="node7" class="node"><title>Node56</title>
<g id="a_node7"><a xlink:href="main_8cpp.html#a3e3cc959a7ab6f93ea52863d86373ce5" target="_top" xlink:title="Mat2QPixmap">
<polygon fill="white" stroke="black" points="234.5,-76.5 234.5,-95.5 313.5,-95.5 313.5,-76.5 234.5,-76.5"/>
<text text-anchor="middle" x="274" y="-83.5" font-family="Helvetica,sans-Serif" font-size="10.00">Mat2QPixmap</text>
</a>
</g>
</g>
<!-- Node54&#45;&gt;Node56 -->
<g id="edge6" class="edge"><title>Node54&#45;&gt;Node56</title>
<path fill="none" stroke="midnightblue" d="M172.395,-86C188.755,-86 207.284,-86 223.942,-86"/>
<polygon fill="midnightblue" stroke="midnightblue" points="224.037,-89.5001 234.037,-86 224.036,-82.5001 224.037,-89.5001"/>
</g>
<!-- Node57&#45;&gt;Node55 -->
<g id="edge8" class="edge"><title>Node57&#45;&gt;Node55</title>
<path fill="none" stroke="midnightblue" d="M166.125,-48C177.722,-48 190.785,-48 203.693,-48"/>
<polygon fill="midnightblue" stroke="midnightblue" points="203.981,-51.5001 213.981,-48 203.981,-44.5001 203.981,-51.5001"/>
</g>
<!-- Node57&#45;&gt;Node56 -->
<g id="edge9" class="edge"><title>Node57&#45;&gt;Node56</title>
<path fill="none" stroke="midnightblue" d="M163.842,-57.589C182.848,-62.5358 206.229,-68.6211 226.469,-73.8892"/>
<polygon fill="midnightblue" stroke="midnightblue" points="225.864,-77.3482 236.423,-76.4799 227.627,-70.5739 225.864,-77.3482"/>
</g>
<!-- Node58 -->
<g id="node9" class="node"><title>Node58</title>
<g id="a_node9"><a xlink:href="main_8cpp.html#af6430ad2592a955a3618549547dfc5be" target="_top" xlink:title="drawPositionText">
<polygon fill="white" stroke="black" points="228.5,-0.5 228.5,-19.5 319.5,-19.5 319.5,-0.5 228.5,-0.5"/>
<text text-anchor="middle" x="274" y="-7.5" font-family="Helvetica,sans-Serif" font-size="10.00">drawPositionText</text>
</a>
</g>
</g>
<!-- Node57&#45;&gt;Node58 -->
<g id="edge10" class="edge"><title>Node57&#45;&gt;Node58</title>
<path fill="none" stroke="midnightblue" d="M163.842,-38.411C182.848,-33.4642 206.229,-27.3789 226.469,-22.1108"/>
<polygon fill="midnightblue" stroke="midnightblue" points="227.627,-25.4261 236.423,-19.5201 225.864,-18.6518 227.627,-25.4261"/>
</g>
</g>
</svg>
