<?xml version="1.0" encoding="UTF-8" standalone="no"?>
<!DOCTYPE svg PUBLIC "-//W3C//DTD SVG 1.1//EN"
 "http://www.w3.org/Graphics/SVG/1.1/DTD/svg11.dtd">
<!-- Generated by graphviz version 2.38.0 (20140413.2041)
 -->
<!-- Title: loadCalibration Pages: 1 -->
<svg width="795pt" height="97pt"
 viewBox="0.00 0.00 795.00 96.50" xmlns="http://www.w3.org/2000/svg" xmlns:xlink="http://www.w3.org/1999/xlink">
<g id="graph0" class="graph" transform="scale(1 1) rotate(0) translate(4 92.5)">
<title>loadCalibration</title>
<polygon fill="white" stroke="none" points="-4,4 -4,-92.5 791,-92.5 791,4 -4,4"/>
<!-- Node76 -->
<g id="node1" class="node"><title>Node76</title>
<polygon fill="#bfbfbf" stroke="black" points="0,-28 0,-47 80,-47 80,-28 0,-28"/>
<text text-anchor="middle" x="40" y="-35" font-family="Helvetica,sans-Serif" font-size="10.00">loadCalibration</text>
</g>
<!-- Node77 -->
<g id="node2" class="node"><title>Node77</title>
<g id="a_node2"><a xlink:href="supportcode_8cpp.html#a0ddf1224851353fc92bfbff6f499fa97" target="_top" xlink:title="main initialises the GUI and values for the marker position etc ">
<polygon fill="white" stroke="black" points="167,-50 167,-69 205,-69 205,-50 167,-50"/>
<text text-anchor="middle" x="186" y="-57" font-family="Helvetica,sans-Serif" font-size="10.00">main</text>
</a>
</g>
</g>
<!-- Node76&#45;&gt;Node77 -->
<g id="edge1" class="edge"><title>Node76&#45;&gt;Node77</title>
<path fill="none" stroke="midnightblue" d="M90.5541,-45.0708C116.866,-49.0906 147.621,-53.7893 166.708,-56.7053"/>
<polygon fill="midnightblue" stroke="midnightblue" points="90.7626,-41.5621 80.3486,-43.5116 89.7053,-48.4818 90.7626,-41.5621"/>
</g>
<!-- Node83 -->
<g id="node8" class="node"><title>Node83</title>
<g id="a_node8"><a xlink:href="class_rigid_track.html#a2224d3f6d923a1c7bad356f49d7a4124" target="_top" xlink:title="RigidTrack::on_btnLoadCalib\l_clicked">
<polygon fill="white" stroke="black" points="116,-0.5 116,-30.5 256,-30.5 256,-0.5 116,-0.5"/>
<text text-anchor="start" x="124" y="-18.5" font-family="Helvetica,sans-Serif" font-size="10.00">RigidTrack::on_btnLoadCalib</text>
<text text-anchor="middle" x="186" y="-7.5" font-family="Helvetica,sans-Serif" font-size="10.00">_clicked</text>
</a>
</g>
</g>
<!-- Node76&#45;&gt;Node83 -->
<g id="edge7" class="edge"><title>Node76&#45;&gt;Node83</title>
<path fill="none" stroke="midnightblue" d="M90.4425,-29.9463C98.6226,-28.6965 107.235,-27.3808 115.794,-26.0731"/>
<polygon fill="midnightblue" stroke="midnightblue" points="89.7053,-26.5182 80.3486,-31.4884 90.7626,-33.4379 89.7053,-26.5182"/>
</g>
<!-- Node78 -->
<g id="node3" class="node"><title>Node78</title>
<g id="a_node3"><a xlink:href="class_surface.html#a728571d0386e9690ce1760931562c72b" target="_top" xlink:title="Surface::PutPixel">
<polygon fill="white" stroke="black" points="292,-69 292,-88 384,-88 384,-69 292,-69"/>
<text text-anchor="middle" x="338" y="-76" font-family="Helvetica,sans-Serif" font-size="10.00">Surface::PutPixel</text>
</a>
</g>
</g>
<!-- Node77&#45;&gt;Node78 -->
<g id="edge2" class="edge"><title>Node77&#45;&gt;Node78</title>
<path fill="none" stroke="midnightblue" d="M215.22,-63.0745C236.78,-65.8055 266.927,-69.6241 291.831,-72.7786"/>
<polygon fill="midnightblue" stroke="midnightblue" points="215.454,-59.5763 205.094,-61.7918 214.574,-66.5208 215.454,-59.5763"/>
</g>
<!-- Node82 -->
<g id="node7" class="node"><title>Node82</title>
<g id="a_node7"><a xlink:href="supportcode_8cpp.html#a661c2abc03926acfaeb93b4ae7db4943" target="_top" xlink:title="/&lt; Window Show State ">
<polygon fill="white" stroke="black" points="310.5,-31 310.5,-50 365.5,-50 365.5,-31 310.5,-31"/>
<text text-anchor="middle" x="338" y="-38" font-family="Helvetica,sans-Serif" font-size="10.00">WinMain</text>
</a>
</g>
</g>
<!-- Node77&#45;&gt;Node82 -->
<g id="edge6" class="edge"><title>Node77&#45;&gt;Node82</title>
<path fill="none" stroke="midnightblue" d="M215.157,-55.9334C242.42,-52.4801 283.456,-47.2823 310.237,-43.89"/>
<polygon fill="midnightblue" stroke="midnightblue" points="214.574,-52.4792 205.094,-57.2082 215.454,-59.4237 214.574,-52.4792"/>
</g>
<!-- Node79 -->
<g id="node4" class="node"><title>Node79</title>
<g id="a_node4"><a xlink:href="class_surface.html#a377c59f6ef131d4b879cda93578a3efa" target="_top" xlink:title="Surface::SurfaceHeight">
<polygon fill="white" stroke="black" points="420,-69 420,-88 536,-88 536,-69 420,-69"/>
<text text-anchor="middle" x="478" y="-76" font-family="Helvetica,sans-Serif" font-size="10.00">Surface::SurfaceHeight</text>
</a>
</g>
</g>
<!-- Node78&#45;&gt;Node79 -->
<g id="edge3" class="edge"><title>Node78&#45;&gt;Node79</title>
<path fill="none" stroke="midnightblue" d="M394.212,-78.5C402.574,-78.5 411.218,-78.5 419.625,-78.5"/>
<polygon fill="midnightblue" stroke="midnightblue" points="394.186,-75.0001 384.186,-78.5 394.186,-82.0001 394.186,-75.0001"/>
</g>
<!-- Node80 -->
<g id="node5" class="node"><title>Node80</title>
<g id="a_node5"><a xlink:href="supportcode_8h.html#ac43c2dc16b0859b03a4f7d04a7e97d3c" target="_top" xlink:title="DrawGLScene">
<polygon fill="white" stroke="black" points="572,-69 572,-88 651,-88 651,-69 572,-69"/>
<text text-anchor="middle" x="611.5" y="-76" font-family="Helvetica,sans-Serif" font-size="10.00">DrawGLScene</text>
</a>
</g>
</g>
<!-- Node79&#45;&gt;Node80 -->
<g id="edge4" class="edge"><title>Node79&#45;&gt;Node80</title>
<path fill="none" stroke="midnightblue" d="M546.511,-78.5C555.228,-78.5 563.905,-78.5 571.926,-78.5"/>
<polygon fill="midnightblue" stroke="midnightblue" points="546.295,-75.0001 536.295,-78.5 546.295,-82.0001 546.295,-75.0001"/>
</g>
<!-- Node81 -->
<g id="node6" class="node"><title>Node81</title>
<g id="a_node6"><a xlink:href="class_surface.html#abe0d542404575c60911d6ad4219560f9" target="_top" xlink:title="Surface::PixelSpan">
<polygon fill="white" stroke="black" points="687,-69 687,-88 787,-88 787,-69 687,-69"/>
<text text-anchor="middle" x="737" y="-76" font-family="Helvetica,sans-Serif" font-size="10.00">Surface::PixelSpan</text>
</a>
</g>
</g>
<!-- Node80&#45;&gt;Node81 -->
<g id="edge5" class="edge"><title>Node80&#45;&gt;Node81</title>
<path fill="none" stroke="midnightblue" d="M661.309,-78.5C669.74,-78.5 678.508,-78.5 686.946,-78.5"/>
<polygon fill="midnightblue" stroke="midnightblue" points="661.237,-75.0001 651.237,-78.5 661.237,-82.0001 661.237,-75.0001"/>
</g>
</g>
</svg>
