<?xml version="1.0" encoding="UTF-8" standalone="no"?>
<!DOCTYPE svg PUBLIC "-//W3C//DTD SVG 1.1//EN"
 "http://www.w3.org/Graphics/SVG/1.1/DTD/svg11.dtd">
<!-- Generated by graphviz version 2.38.0 (20140413.2041)
 -->
<!-- Title: projectCoordinateFrame Pages: 1 -->
<svg width="1029pt" height="220pt"
 viewBox="0.00 0.00 1029.00 220.00" xmlns="http://www.w3.org/2000/svg" xmlns:xlink="http://www.w3.org/1999/xlink">
<g id="graph0" class="graph" transform="scale(1 1) rotate(0) translate(4 216)">
<title>projectCoordinateFrame</title>
<polygon fill="white" stroke="none" points="-4,4 -4,-216 1025,-216 1025,4 -4,4"/>
<!-- Node146 -->
<g id="node1" class="node"><title>Node146</title>
<polygon fill="#bfbfbf" stroke="black" points="0,-100 0,-119 120,-119 120,-100 0,-100"/>
<text text-anchor="middle" x="60" y="-107" font-family="Helvetica,sans-Serif" font-size="10.00">projectCoordinateFrame</text>
</g>
<!-- Node147 -->
<g id="node2" class="node"><title>Node147</title>
<g id="a_node2"><a xlink:href="main_8h.html#a3d3afd29ce54eb7fc5cc7e74ab666586" target="_top" xlink:title="startTracking">
<polygon fill="white" stroke="black" points="165.5,-183 165.5,-202 238.5,-202 238.5,-183 165.5,-183"/>
<text text-anchor="middle" x="202" y="-190" font-family="Helvetica,sans-Serif" font-size="10.00">startTracking</text>
</a>
</g>
</g>
<!-- Node146&#45;&gt;Node147 -->
<g id="edge1" class="edge"><title>Node146&#45;&gt;Node147</title>
<path fill="none" stroke="midnightblue" d="M83.8059,-124.725C102.831,-137.225 130.802,-155.142 156,-169.5 164.081,-174.104 173.185,-178.839 181.079,-182.807"/>
<polygon fill="midnightblue" stroke="midnightblue" points="85.5093,-121.655 75.2365,-119.063 81.6504,-127.496 85.5093,-121.655"/>
</g>
<!-- Node150 -->
<g id="node5" class="node"><title>Node150</title>
<g id="a_node5"><a xlink:href="main_8h.html#a1e6662e0f16887fe97c7bebe05065972" target="_top" xlink:title="setReference">
<polygon fill="white" stroke="black" points="165,-141 165,-160 239,-160 239,-141 165,-141"/>
<text text-anchor="middle" x="202" y="-148" font-family="Helvetica,sans-Serif" font-size="10.00">setReference</text>
</a>
</g>
</g>
<!-- Node146&#45;&gt;Node150 -->
<g id="edge4" class="edge"><title>Node146&#45;&gt;Node150</title>
<path fill="none" stroke="midnightblue" d="M103.338,-121.899C124.156,-127.996 148.865,-135.232 168.22,-140.9"/>
<polygon fill="midnightblue" stroke="midnightblue" points="104.051,-118.461 93.4707,-119.009 102.084,-125.179 104.051,-118.461"/>
</g>
<!-- Node152 -->
<g id="node7" class="node"><title>Node152</title>
<g id="a_node7"><a xlink:href="main_8h.html#a847c0fbd3e513fb76ff145b31a9f5c37" target="_top" xlink:title="testAlgorithms">
<polygon fill="white" stroke="black" points="162,-100 162,-119 242,-119 242,-100 162,-100"/>
<text text-anchor="middle" x="202" y="-107" font-family="Helvetica,sans-Serif" font-size="10.00">testAlgorithms</text>
</a>
</g>
</g>
<!-- Node146&#45;&gt;Node152 -->
<g id="edge6" class="edge"><title>Node146&#45;&gt;Node152</title>
<path fill="none" stroke="midnightblue" d="M130.622,-109.5C141.35,-109.5 152.09,-109.5 161.833,-109.5"/>
<polygon fill="midnightblue" stroke="midnightblue" points="130.373,-106 120.373,-109.5 130.373,-113 130.373,-106"/>
</g>
<!-- Node159 -->
<g id="node14" class="node"><title>Node159</title>
<g id="a_node14"><a xlink:href="main_8h.html#a56c7f641859cb2b6b99b0947d03be800" target="_top" xlink:title="loadMarkerConfig">
<polygon fill="white" stroke="black" points="156,-62 156,-81 248,-81 248,-62 156,-62"/>
<text text-anchor="middle" x="202" y="-69" font-family="Helvetica,sans-Serif" font-size="10.00">loadMarkerConfig</text>
</a>
</g>
</g>
<!-- Node146&#45;&gt;Node159 -->
<g id="edge13" class="edge"><title>Node146&#45;&gt;Node159</title>
<path fill="none" stroke="midnightblue" d="M106.118,-97.2538C125.415,-92.016 147.612,-85.9909 165.683,-81.0859"/>
<polygon fill="midnightblue" stroke="midnightblue" points="105.062,-93.9136 96.3279,-99.911 106.896,-100.669 105.062,-93.9136"/>
</g>
<!-- Node161 -->
<g id="node16" class="node"><title>Node161</title>
<g id="a_node16"><a xlink:href="main_8h.html#a7ad2e3cfb5056dbab2098e0dd3bd353f" target="_top" xlink:title="calibrateGround">
<polygon fill="white" stroke="black" points="159.5,-16 159.5,-35 244.5,-35 244.5,-16 159.5,-16"/>
<text text-anchor="middle" x="202" y="-23" font-family="Helvetica,sans-Serif" font-size="10.00">calibrateGround</text>
</a>
</g>
</g>
<!-- Node146&#45;&gt;Node161 -->
<g id="edge16" class="edge"><title>Node146&#45;&gt;Node161</title>
<path fill="none" stroke="midnightblue" d="M85.6984,-94.681C114.388,-77.4675 160.873,-49.5761 185.128,-35.0235"/>
<polygon fill="midnightblue" stroke="midnightblue" points="83.834,-91.7179 77.0598,-99.8641 87.4355,-97.7204 83.834,-91.7179"/>
</g>
<!-- Node148 -->
<g id="node3" class="node"><title>Node148</title>
<g id="a_node3"><a xlink:href="main_8h.html#a25183e8d0b386ef12b557efc712a0261" target="_top" xlink:title="Start or stop the tracking depending on if the camera is currently running or not. ">
<polygon fill="white" stroke="black" points="312,-187 312,-206 402,-206 402,-187 312,-187"/>
<text text-anchor="middle" x="357" y="-194" font-family="Helvetica,sans-Serif" font-size="10.00">startStopCamera</text>
</a>
</g>
</g>
<!-- Node147&#45;&gt;Node148 -->
<g id="edge2" class="edge"><title>Node147&#45;&gt;Node148</title>
<path fill="none" stroke="midnightblue" d="M248.961,-193.702C268.901,-194.223 292.153,-194.831 311.882,-195.347"/>
<polygon fill="midnightblue" stroke="midnightblue" points="248.96,-190.2 238.872,-193.438 248.777,-197.198 248.96,-190.2"/>
</g>
<!-- Node149 -->
<g id="node4" class="node"><title>Node149</title>
<g id="a_node4"><a xlink:href="class_rigid_track.html#a2f226856e28868c8bb1854fa16531f60" target="_top" xlink:title="RigidTrack::on_btnStartCamera\l_clicked">
<polygon fill="white" stroke="black" points="466,-181.5 466,-211.5 618,-211.5 618,-181.5 466,-181.5"/>
<text text-anchor="start" x="474" y="-199.5" font-family="Helvetica,sans-Serif" font-size="10.00">RigidTrack::on_btnStartCamera</text>
<text text-anchor="middle" x="542" y="-188.5" font-family="Helvetica,sans-Serif" font-size="10.00">_clicked</text>
</a>
</g>
</g>
<!-- Node148&#45;&gt;Node149 -->
<g id="edge3" class="edge"><title>Node148&#45;&gt;Node149</title>
<path fill="none" stroke="midnightblue" d="M412.424,-196.5C429.139,-196.5 447.84,-196.5 465.692,-196.5"/>
<polygon fill="midnightblue" stroke="midnightblue" points="412.299,-193 402.299,-196.5 412.299,-200 412.299,-193"/>
</g>
<!-- Node151 -->
<g id="node6" class="node"><title>Node151</title>
<g id="a_node6"><a xlink:href="class_rigid_track.html#afb1a4edcacc818db4ec6bb017dd07e0f" target="_top" xlink:title="RigidTrack::on_btnZero\l_clicked">
<polygon fill="white" stroke="black" points="299,-137.5 299,-167.5 415,-167.5 415,-137.5 299,-137.5"/>
<text text-anchor="start" x="307" y="-155.5" font-family="Helvetica,sans-Serif" font-size="10.00">RigidTrack::on_btnZero</text>
<text text-anchor="middle" x="357" y="-144.5" font-family="Helvetica,sans-Serif" font-size="10.00">_clicked</text>
</a>
</g>
</g>
<!-- Node150&#45;&gt;Node151 -->
<g id="edge5" class="edge"><title>Node150&#45;&gt;Node151</title>
<path fill="none" stroke="midnightblue" d="M249.638,-151.11C265.133,-151.312 282.567,-151.54 298.768,-151.752"/>
<polygon fill="midnightblue" stroke="midnightblue" points="249.304,-147.605 239.259,-150.974 249.212,-154.604 249.304,-147.605"/>
</g>
<!-- Node153 -->
<g id="node8" class="node"><title>Node153</title>
<g id="a_node8"><a xlink:href="supportcode_8cpp.html#a0ddf1224851353fc92bfbff6f499fa97" target="_top" xlink:title="main initialises the GUI and values for the marker position etc ">
<polygon fill="white" stroke="black" points="338,-99 338,-118 376,-118 376,-99 338,-99"/>
<text text-anchor="middle" x="357" y="-106" font-family="Helvetica,sans-Serif" font-size="10.00">main</text>
</a>
</g>
</g>
<!-- Node152&#45;&gt;Node153 -->
<g id="edge7" class="edge"><title>Node152&#45;&gt;Node153</title>
<path fill="none" stroke="midnightblue" d="M252.079,-109.179C281.386,-108.988 316.882,-108.756 337.888,-108.618"/>
<polygon fill="midnightblue" stroke="midnightblue" points="251.981,-105.68 242.004,-109.245 252.027,-112.68 251.981,-105.68"/>
</g>
<!-- Node154 -->
<g id="node9" class="node"><title>Node154</title>
<g id="a_node9"><a xlink:href="class_surface.html#a728571d0386e9690ce1760931562c72b" target="_top" xlink:title="Surface::PutPixel">
<polygon fill="white" stroke="black" points="496,-118 496,-137 588,-137 588,-118 496,-118"/>
<text text-anchor="middle" x="542" y="-125" font-family="Helvetica,sans-Serif" font-size="10.00">Surface::PutPixel</text>
</a>
</g>
</g>
<!-- Node153&#45;&gt;Node154 -->
<g id="edge8" class="edge"><title>Node153&#45;&gt;Node154</title>
<path fill="none" stroke="midnightblue" d="M386.165,-111.424C415.395,-114.459 461.552,-119.251 495.874,-122.815"/>
<polygon fill="midnightblue" stroke="midnightblue" points="386.524,-107.943 376.216,-110.391 385.801,-114.905 386.524,-107.943"/>
</g>
<!-- Node158 -->
<g id="node13" class="node"><title>Node158</title>
<g id="a_node13"><a xlink:href="supportcode_8cpp.html#a661c2abc03926acfaeb93b4ae7db4943" target="_top" xlink:title="/&lt; Window Show State ">
<polygon fill="white" stroke="black" points="514.5,-80 514.5,-99 569.5,-99 569.5,-80 514.5,-80"/>
<text text-anchor="middle" x="542" y="-87" font-family="Helvetica,sans-Serif" font-size="10.00">WinMain</text>
</a>
</g>
</g>
<!-- Node153&#45;&gt;Node158 -->
<g id="edge12" class="edge"><title>Node153&#45;&gt;Node158</title>
<path fill="none" stroke="midnightblue" d="M386.226,-105.569C421.147,-101.944 480.164,-95.8163 514.344,-92.2675"/>
<polygon fill="midnightblue" stroke="midnightblue" points="385.801,-102.095 376.216,-106.609 386.524,-109.057 385.801,-102.095"/>
</g>
<!-- Node155 -->
<g id="node10" class="node"><title>Node155</title>
<g id="a_node10"><a xlink:href="class_surface.html#a377c59f6ef131d4b879cda93578a3efa" target="_top" xlink:title="Surface::SurfaceHeight">
<polygon fill="white" stroke="black" points="654,-118 654,-137 770,-137 770,-118 654,-118"/>
<text text-anchor="middle" x="712" y="-125" font-family="Helvetica,sans-Serif" font-size="10.00">Surface::SurfaceHeight</text>
</a>
</g>
</g>
<!-- Node154&#45;&gt;Node155 -->
<g id="edge9" class="edge"><title>Node154&#45;&gt;Node155</title>
<path fill="none" stroke="midnightblue" d="M598.255,-127.5C616.071,-127.5 635.848,-127.5 653.8,-127.5"/>
<polygon fill="midnightblue" stroke="midnightblue" points="598.021,-124 588.021,-127.5 598.021,-131 598.021,-124"/>
</g>
<!-- Node156 -->
<g id="node11" class="node"><title>Node156</title>
<g id="a_node11"><a xlink:href="supportcode_8h.html#ac43c2dc16b0859b03a4f7d04a7e97d3c" target="_top" xlink:title="DrawGLScene">
<polygon fill="white" stroke="black" points="806,-118 806,-137 885,-137 885,-118 806,-118"/>
<text text-anchor="middle" x="845.5" y="-125" font-family="Helvetica,sans-Serif" font-size="10.00">DrawGLScene</text>
</a>
</g>
</g>
<!-- Node155&#45;&gt;Node156 -->
<g id="edge10" class="edge"><title>Node155&#45;&gt;Node156</title>
<path fill="none" stroke="midnightblue" d="M780.511,-127.5C789.228,-127.5 797.905,-127.5 805.926,-127.5"/>
<polygon fill="midnightblue" stroke="midnightblue" points="780.295,-124 770.295,-127.5 780.295,-131 780.295,-124"/>
</g>
<!-- Node157 -->
<g id="node12" class="node"><title>Node157</title>
<g id="a_node12"><a xlink:href="class_surface.html#abe0d542404575c60911d6ad4219560f9" target="_top" xlink:title="Surface::PixelSpan">
<polygon fill="white" stroke="black" points="921,-118 921,-137 1021,-137 1021,-118 921,-118"/>
<text text-anchor="middle" x="971" y="-125" font-family="Helvetica,sans-Serif" font-size="10.00">Surface::PixelSpan</text>
</a>
</g>
</g>
<!-- Node156&#45;&gt;Node157 -->
<g id="edge11" class="edge"><title>Node156&#45;&gt;Node157</title>
<path fill="none" stroke="midnightblue" d="M895.309,-127.5C903.74,-127.5 912.508,-127.5 920.946,-127.5"/>
<polygon fill="midnightblue" stroke="midnightblue" points="895.237,-124 885.237,-127.5 895.237,-131 895.237,-124"/>
</g>
<!-- Node159&#45;&gt;Node153 -->
<g id="edge14" class="edge"><title>Node159&#45;&gt;Node153</title>
<path fill="none" stroke="midnightblue" d="M252.47,-83.4634C281.747,-90.5434 317.084,-99.089 337.985,-104.143"/>
<polygon fill="midnightblue" stroke="midnightblue" points="252.944,-79.9771 242.401,-81.0284 251.298,-86.781 252.944,-79.9771"/>
</g>
<!-- Node160 -->
<g id="node15" class="node"><title>Node160</title>
<g id="a_node15"><a xlink:href="class_rigid_track.html#ad3e07592fbc1491cdc36dd5e817e1775" target="_top" xlink:title="RigidTrack::on_pbLoadMarker\l_clicked">
<polygon fill="white" stroke="black" points="284,-49.5 284,-79.5 430,-79.5 430,-49.5 284,-49.5"/>
<text text-anchor="start" x="292" y="-67.5" font-family="Helvetica,sans-Serif" font-size="10.00">RigidTrack::on_pbLoadMarker</text>
<text text-anchor="middle" x="357" y="-56.5" font-family="Helvetica,sans-Serif" font-size="10.00">_clicked</text>
</a>
</g>
</g>
<!-- Node159&#45;&gt;Node160 -->
<g id="edge15" class="edge"><title>Node159&#45;&gt;Node160</title>
<path fill="none" stroke="midnightblue" d="M258.108,-68.9787C266.508,-68.5944 275.283,-68.1929 283.98,-67.795"/>
<polygon fill="midnightblue" stroke="midnightblue" points="257.907,-65.4842 248.078,-69.4376 258.227,-72.4768 257.907,-65.4842"/>
</g>
<!-- Node162 -->
<g id="node17" class="node"><title>Node162</title>
<g id="a_node17"><a xlink:href="class_rigid_track.html#a9a939d6db3d268e75a603cb3d492a91b" target="_top" xlink:title="RigidTrack::on_btnCalibrate\lGround_clicked">
<polygon fill="white" stroke="black" points="289,-0.5 289,-30.5 425,-30.5 425,-0.5 289,-0.5"/>
<text text-anchor="start" x="297" y="-18.5" font-family="Helvetica,sans-Serif" font-size="10.00">RigidTrack::on_btnCalibrate</text>
<text text-anchor="middle" x="357" y="-7.5" font-family="Helvetica,sans-Serif" font-size="10.00">Ground_clicked</text>
</a>
</g>
</g>
<!-- Node161&#45;&gt;Node162 -->
<g id="edge17" class="edge"><title>Node161&#45;&gt;Node162</title>
<path fill="none" stroke="midnightblue" d="M255.002,-22.1012C265.907,-21.3884 277.554,-20.6272 288.92,-19.8843"/>
<polygon fill="midnightblue" stroke="midnightblue" points="254.558,-18.6226 244.808,-22.7675 255.015,-25.6077 254.558,-18.6226"/>
</g>
</g>
</svg>
