<?xml version="1.0" encoding="UTF-8" standalone="no"?>
<!DOCTYPE svg PUBLIC "-//W3C//DTD SVG 1.1//EN"
 "http://www.w3.org/Graphics/SVG/1.1/DTD/svg11.dtd">
<!-- Generated by graphviz version 2.38.0 (20140413.2041)
 -->
<!-- Title: determineExposure Pages: 1 -->
<svg width="590pt" height="132pt"
 viewBox="0.00 0.00 590.00 132.00" xmlns="http://www.w3.org/2000/svg" xmlns:xlink="http://www.w3.org/1999/xlink">
<g id="graph0" class="graph" transform="scale(1 1) rotate(0) translate(4 128)">
<title>determineExposure</title>
<polygon fill="white" stroke="none" points="-4,4 -4,-128 586,-128 586,4 -4,4"/>
<!-- Node34 -->
<g id="node1" class="node"><title>Node34</title>
<polygon fill="#bfbfbf" stroke="black" points="0,-55 0,-74 101,-74 101,-55 0,-55"/>
<text text-anchor="middle" x="50.5" y="-62" font-family="Helvetica,sans-Serif" font-size="10.00">determineExposure</text>
</g>
<!-- Node35 -->
<g id="node2" class="node"><title>Node35</title>
<g id="a_node2"><a xlink:href="main_8h.html#a3d3afd29ce54eb7fc5cc7e74ab666586" target="_top" xlink:title="startTracking">
<polygon fill="white" stroke="black" points="143,-96 143,-115 216,-115 216,-96 143,-96"/>
<text text-anchor="middle" x="179.5" y="-103" font-family="Helvetica,sans-Serif" font-size="10.00">startTracking</text>
</a>
</g>
</g>
<!-- Node34&#45;&gt;Node35 -->
<g id="edge1" class="edge"><title>Node34&#45;&gt;Node35</title>
<path fill="none" stroke="midnightblue" d="M90.6809,-77.149C109.402,-83.1929 131.446,-90.3092 148.764,-95.9003"/>
<polygon fill="midnightblue" stroke="midnightblue" points="91.5473,-73.7508 80.9556,-74.0093 89.3967,-80.4123 91.5473,-73.7508"/>
</g>
<!-- Node38 -->
<g id="node5" class="node"><title>Node38</title>
<g id="a_node5"><a xlink:href="main_8h.html#a1e6662e0f16887fe97c7bebe05065972" target="_top" xlink:title="setReference">
<polygon fill="white" stroke="black" points="142.5,-55 142.5,-74 216.5,-74 216.5,-55 142.5,-55"/>
<text text-anchor="middle" x="179.5" y="-62" font-family="Helvetica,sans-Serif" font-size="10.00">setReference</text>
</a>
</g>
</g>
<!-- Node34&#45;&gt;Node38 -->
<g id="edge4" class="edge"><title>Node34&#45;&gt;Node38</title>
<path fill="none" stroke="midnightblue" d="M111.342,-64.5C121.869,-64.5 132.53,-64.5 142.163,-64.5"/>
<polygon fill="midnightblue" stroke="midnightblue" points="111.329,-61.0001 101.329,-64.5 111.329,-68.0001 111.329,-61.0001"/>
</g>
<!-- Node40 -->
<g id="node7" class="node"><title>Node40</title>
<g id="a_node7"><a xlink:href="main_8h.html#a7ad2e3cfb5056dbab2098e0dd3bd353f" target="_top" xlink:title="calibrateGround">
<polygon fill="white" stroke="black" points="137,-12 137,-31 222,-31 222,-12 137,-12"/>
<text text-anchor="middle" x="179.5" y="-19" font-family="Helvetica,sans-Serif" font-size="10.00">calibrateGround</text>
</a>
</g>
</g>
<!-- Node34&#45;&gt;Node40 -->
<g id="edge6" class="edge"><title>Node34&#45;&gt;Node40</title>
<path fill="none" stroke="midnightblue" d="M89.2405,-51.7217C108.85,-45.0823 132.405,-37.1069 150.393,-31.0164"/>
<polygon fill="midnightblue" stroke="midnightblue" points="88.0348,-48.4347 79.6854,-54.9569 90.2797,-55.065 88.0348,-48.4347"/>
</g>
<!-- Node36 -->
<g id="node3" class="node"><title>Node36</title>
<g id="a_node3"><a xlink:href="main_8h.html#a25183e8d0b386ef12b557efc712a0261" target="_top" xlink:title="Start or stop the tracking depending on if the camera is currently running or not. ">
<polygon fill="white" stroke="black" points="281,-99 281,-118 371,-118 371,-99 281,-99"/>
<text text-anchor="middle" x="326" y="-106" font-family="Helvetica,sans-Serif" font-size="10.00">startStopCamera</text>
</a>
</g>
</g>
<!-- Node35&#45;&gt;Node36 -->
<g id="edge2" class="edge"><title>Node35&#45;&gt;Node36</title>
<path fill="none" stroke="midnightblue" d="M226.689,-106.459C244.056,-106.819 263.742,-107.228 280.912,-107.585"/>
<polygon fill="midnightblue" stroke="midnightblue" points="226.29,-102.95 216.219,-106.242 226.144,-109.948 226.29,-102.95"/>
</g>
<!-- Node37 -->
<g id="node4" class="node"><title>Node37</title>
<g id="a_node4"><a xlink:href="class_rigid_track.html#a2f226856e28868c8bb1854fa16531f60" target="_top" xlink:title="RigidTrack::on_btnStartCamera\l_clicked">
<polygon fill="white" stroke="black" points="430,-93.5 430,-123.5 582,-123.5 582,-93.5 430,-93.5"/>
<text text-anchor="start" x="438" y="-111.5" font-family="Helvetica,sans-Serif" font-size="10.00">RigidTrack::on_btnStartCamera</text>
<text text-anchor="middle" x="506" y="-100.5" font-family="Helvetica,sans-Serif" font-size="10.00">_clicked</text>
</a>
</g>
</g>
<!-- Node36&#45;&gt;Node37 -->
<g id="edge3" class="edge"><title>Node36&#45;&gt;Node37</title>
<path fill="none" stroke="midnightblue" d="M381.335,-108.5C396.679,-108.5 413.652,-108.5 429.982,-108.5"/>
<polygon fill="midnightblue" stroke="midnightblue" points="381,-105 371,-108.5 381,-112 381,-105"/>
</g>
<!-- Node39 -->
<g id="node6" class="node"><title>Node39</title>
<g id="a_node6"><a xlink:href="class_rigid_track.html#afb1a4edcacc818db4ec6bb017dd07e0f" target="_top" xlink:title="RigidTrack::on_btnZero\l_clicked">
<polygon fill="white" stroke="black" points="268,-49.5 268,-79.5 384,-79.5 384,-49.5 268,-49.5"/>
<text text-anchor="start" x="276" y="-67.5" font-family="Helvetica,sans-Serif" font-size="10.00">RigidTrack::on_btnZero</text>
<text text-anchor="middle" x="326" y="-56.5" font-family="Helvetica,sans-Serif" font-size="10.00">_clicked</text>
</a>
</g>
</g>
<!-- Node38&#45;&gt;Node39 -->
<g id="edge5" class="edge"><title>Node38&#45;&gt;Node39</title>
<path fill="none" stroke="midnightblue" d="M226.735,-64.5C239.783,-64.5 254.137,-64.5 267.748,-64.5"/>
<polygon fill="midnightblue" stroke="midnightblue" points="226.591,-61.0001 216.591,-64.5 226.591,-68.0001 226.591,-61.0001"/>
</g>
<!-- Node41 -->
<g id="node8" class="node"><title>Node41</title>
<g id="a_node8"><a xlink:href="class_rigid_track.html#a9a939d6db3d268e75a603cb3d492a91b" target="_top" xlink:title="RigidTrack::on_btnCalibrate\lGround_clicked">
<polygon fill="white" stroke="black" points="258,-0.5 258,-30.5 394,-30.5 394,-0.5 258,-0.5"/>
<text text-anchor="start" x="266" y="-18.5" font-family="Helvetica,sans-Serif" font-size="10.00">RigidTrack::on_btnCalibrate</text>
<text text-anchor="middle" x="326" y="-7.5" font-family="Helvetica,sans-Serif" font-size="10.00">Ground_clicked</text>
</a>
</g>
</g>
<!-- Node40&#45;&gt;Node41 -->
<g id="edge7" class="edge"><title>Node40&#45;&gt;Node41</title>
<path fill="none" stroke="midnightblue" d="M232.521,-19.34C240.784,-18.9968 249.432,-18.6378 257.981,-18.2828"/>
<polygon fill="midnightblue" stroke="midnightblue" points="232.142,-15.8526 222.295,-19.7646 232.432,-22.8466 232.142,-15.8526"/>
</g>
</g>
</svg>
