<?xml version="1.0" encoding="UTF-8" standalone="no"?>
<!DOCTYPE svg PUBLIC "-//W3C//DTD SVG 1.1//EN"
 "http://www.w3.org/Graphics/SVG/1.1/DTD/svg11.dtd">
<!-- Generated by graphviz version 2.38.0 (20140413.2041)
 -->
<!-- Title: startStopCamera Pages: 1 -->
<svg width="525pt" height="408pt"
 viewBox="0.00 0.00 525.00 408.00" xmlns="http://www.w3.org/2000/svg" xmlns:xlink="http://www.w3.org/1999/xlink">
<g id="graph0" class="graph" transform="scale(1 1) rotate(0) translate(4 404)">
<title>startStopCamera</title>
<polygon fill="white" stroke="none" points="-4,4 -4,-404 521,-404 521,4 -4,4"/>
<!-- Node144 -->
<g id="node1" class="node"><title>Node144</title>
<polygon fill="#bfbfbf" stroke="black" points="0,-190.5 0,-209.5 90,-209.5 90,-190.5 0,-190.5"/>
<text text-anchor="middle" x="45" y="-197.5" font-family="Helvetica,sans-Serif" font-size="10.00">startStopCamera</text>
</g>
<!-- Node145 -->
<g id="node2" class="node"><title>Node145</title>
<g id="a_node2"><a xlink:href="main_8cpp.html#a3d3afd29ce54eb7fc5cc7e74ab666586" target="_top" xlink:title="startTracking">
<polygon fill="white" stroke="black" points="126,-190.5 126,-209.5 199,-209.5 199,-190.5 126,-190.5"/>
<text text-anchor="middle" x="162.5" y="-197.5" font-family="Helvetica,sans-Serif" font-size="10.00">startTracking</text>
</a>
</g>
</g>
<!-- Node144&#45;&gt;Node145 -->
<g id="edge1" class="edge"><title>Node144&#45;&gt;Node145</title>
<path fill="none" stroke="midnightblue" d="M90.325,-200C98.5554,-200 107.171,-200 115.451,-200"/>
<polygon fill="midnightblue" stroke="midnightblue" points="115.707,-203.5 125.707,-200 115.707,-196.5 115.707,-203.5"/>
</g>
<!-- Node146 -->
<g id="node3" class="node"><title>Node146</title>
<g id="a_node3"><a xlink:href="main_8cpp.html#a0416912fce6274568e80019b10ba294f" target="_top" xlink:title="determineExposure">
<polygon fill="white" stroke="black" points="252.5,-380.5 252.5,-399.5 353.5,-399.5 353.5,-380.5 252.5,-380.5"/>
<text text-anchor="middle" x="303" y="-387.5" font-family="Helvetica,sans-Serif" font-size="10.00">determineExposure</text>
</a>
</g>
</g>
<!-- Node145&#45;&gt;Node146 -->
<g id="edge2" class="edge"><title>Node145&#45;&gt;Node146</title>
<path fill="none" stroke="midnightblue" d="M164.943,-209.783C169.624,-238.085 186.966,-320.889 235,-366 239.327,-370.064 244.39,-373.448 249.761,-376.264"/>
<polygon fill="midnightblue" stroke="midnightblue" points="248.462,-379.519 259.013,-380.487 251.369,-373.15 248.462,-379.519"/>
</g>
<!-- Node147 -->
<g id="node4" class="node"><title>Node147</title>
<g id="a_node4"><a xlink:href="classcomm_object.html#aec354c7099b3039083cc4224e071e022" target="_top" xlink:title="commObject::addLog">
<polygon fill="white" stroke="black" points="407,-323.5 407,-342.5 517,-342.5 517,-323.5 407,-323.5"/>
<text text-anchor="middle" x="462" y="-330.5" font-family="Helvetica,sans-Serif" font-size="10.00">commObject::addLog</text>
</a>
</g>
</g>
<!-- Node145&#45;&gt;Node147 -->
<g id="edge4" class="edge"><title>Node145&#45;&gt;Node147</title>
<path fill="none" stroke="midnightblue" d="M165.236,-209.692C170.421,-235.383 188.421,-305.157 235,-333 291.595,-366.83 371.273,-356.245 419.342,-344.98"/>
<polygon fill="midnightblue" stroke="midnightblue" points="420.224,-348.367 429.1,-342.581 418.553,-341.569 420.224,-348.367"/>
</g>
<!-- Node148 -->
<g id="node5" class="node"><title>Node148</title>
<g id="a_node5"><a xlink:href="main_8cpp.html#ae624b0189bc5e32cbbb1f178b9f1a360" target="_top" xlink:title="Open the UDP ports for communication. ">
<polygon fill="white" stroke="black" points="272,-304.5 272,-323.5 334,-323.5 334,-304.5 272,-304.5"/>
<text text-anchor="middle" x="303" y="-311.5" font-family="Helvetica,sans-Serif" font-size="10.00">setUpUDP</text>
</a>
</g>
</g>
<!-- Node145&#45;&gt;Node148 -->
<g id="edge5" class="edge"><title>Node145&#45;&gt;Node148</title>
<path fill="none" stroke="midnightblue" d="M168.089,-209.734C177.693,-229.033 201.8,-272.239 235,-295 243.067,-300.531 252.727,-304.463 262.166,-307.255"/>
<polygon fill="midnightblue" stroke="midnightblue" points="261.289,-310.644 271.848,-309.772 263.05,-303.869 261.289,-310.644"/>
</g>
<!-- Node149 -->
<g id="node6" class="node"><title>Node149</title>
<g id="a_node6"><a xlink:href="main_8cpp.html#a11ff459289305229597defd39f510959" target="_top" xlink:title="determineOrder">
<polygon fill="white" stroke="black" points="261.5,-266.5 261.5,-285.5 344.5,-285.5 344.5,-266.5 261.5,-266.5"/>
<text text-anchor="middle" x="303" y="-273.5" font-family="Helvetica,sans-Serif" font-size="10.00">determineOrder</text>
</a>
</g>
</g>
<!-- Node145&#45;&gt;Node149 -->
<g id="edge7" class="edge"><title>Node145&#45;&gt;Node149</title>
<path fill="none" stroke="midnightblue" d="M173.246,-209.912C186.23,-222.58 210.432,-244.375 235,-257 240.236,-259.691 245.903,-262.045 251.649,-264.094"/>
<polygon fill="midnightblue" stroke="midnightblue" points="250.738,-267.478 261.331,-267.258 252.913,-260.824 250.738,-267.478"/>
</g>
<!-- Node150 -->
<g id="node7" class="node"><title>Node150</title>
<g id="a_node7"><a xlink:href="main_8cpp.html#af2a8b7de0b15dc17198c147ba39e85f3" target="_top" xlink:title="closeUDP">
<polygon fill="white" stroke="black" points="273,-228.5 273,-247.5 333,-247.5 333,-228.5 273,-228.5"/>
<text text-anchor="middle" x="303" y="-235.5" font-family="Helvetica,sans-Serif" font-size="10.00">closeUDP</text>
</a>
</g>
</g>
<!-- Node145&#45;&gt;Node150 -->
<g id="edge8" class="edge"><title>Node145&#45;&gt;Node150</title>
<path fill="none" stroke="midnightblue" d="M198.449,-209.589C218.056,-214.968 242.57,-221.694 262.824,-227.251"/>
<polygon fill="midnightblue" stroke="midnightblue" points="262.111,-230.685 272.681,-229.956 263.963,-223.934 262.111,-230.685"/>
</g>
<!-- Node151 -->
<g id="node8" class="node"><title>Node151</title>
<g id="a_node8"><a xlink:href="main_8cpp.html#ab2b71933055cf32cc8e5e2100fd7723f" target="_top" xlink:title="getEulerAngles">
<polygon fill="white" stroke="black" points="261.5,-190.5 261.5,-209.5 344.5,-209.5 344.5,-190.5 261.5,-190.5"/>
<text text-anchor="middle" x="303" y="-197.5" font-family="Helvetica,sans-Serif" font-size="10.00">getEulerAngles</text>
</a>
</g>
</g>
<!-- Node145&#45;&gt;Node151 -->
<g id="edge10" class="edge"><title>Node145&#45;&gt;Node151</title>
<path fill="none" stroke="midnightblue" d="M199.167,-200C214.831,-200 233.52,-200 250.643,-200"/>
<polygon fill="midnightblue" stroke="midnightblue" points="251.06,-203.5 261.06,-200 251.06,-196.5 251.06,-203.5"/>
</g>
<!-- Node152 -->
<g id="node9" class="node"><title>Node152</title>
<g id="a_node9"><a xlink:href="main_8cpp.html#a54b6b6db348b48d21e1265e22829c61f" target="_top" xlink:title="sendDataUDP">
<polygon fill="white" stroke="black" points="264,-152.5 264,-171.5 342,-171.5 342,-152.5 264,-152.5"/>
<text text-anchor="middle" x="303" y="-159.5" font-family="Helvetica,sans-Serif" font-size="10.00">sendDataUDP</text>
</a>
</g>
</g>
<!-- Node145&#45;&gt;Node152 -->
<g id="edge11" class="edge"><title>Node145&#45;&gt;Node152</title>
<path fill="none" stroke="midnightblue" d="M198.449,-190.411C216.328,-185.506 238.288,-179.48 257.378,-174.243"/>
<polygon fill="midnightblue" stroke="midnightblue" points="258.344,-177.607 267.062,-171.586 256.492,-170.857 258.344,-177.607"/>
</g>
<!-- Node153 -->
<g id="node10" class="node"><title>Node153</title>
<g id="a_node10"><a xlink:href="main_8cpp.html#a2104a5d9d6b9f1e29bc4cd858c59882e" target="_top" xlink:title="projectCoordinateFrame">
<polygon fill="white" stroke="black" points="243,-114.5 243,-133.5 363,-133.5 363,-114.5 243,-114.5"/>
<text text-anchor="middle" x="303" y="-121.5" font-family="Helvetica,sans-Serif" font-size="10.00">projectCoordinateFrame</text>
</a>
</g>
</g>
<!-- Node145&#45;&gt;Node153 -->
<g id="edge12" class="edge"><title>Node145&#45;&gt;Node153</title>
<path fill="none" stroke="midnightblue" d="M173.246,-190.088C186.23,-177.42 210.432,-155.625 235,-143 239.342,-140.769 243.981,-138.769 248.715,-136.983"/>
<polygon fill="midnightblue" stroke="midnightblue" points="250.187,-140.177 258.502,-133.611 247.907,-133.559 250.187,-140.177"/>
</g>
<!-- Node154 -->
<g id="node11" class="node"><title>Node154</title>
<g id="a_node11"><a xlink:href="main_8cpp.html#af6430ad2592a955a3618549547dfc5be" target="_top" xlink:title="drawPositionText">
<polygon fill="white" stroke="black" points="257.5,-76.5 257.5,-95.5 348.5,-95.5 348.5,-76.5 257.5,-76.5"/>
<text text-anchor="middle" x="303" y="-83.5" font-family="Helvetica,sans-Serif" font-size="10.00">drawPositionText</text>
</a>
</g>
</g>
<!-- Node145&#45;&gt;Node154 -->
<g id="edge13" class="edge"><title>Node145&#45;&gt;Node154</title>
<path fill="none" stroke="midnightblue" d="M168.089,-190.266C177.693,-170.967 201.8,-127.761 235,-105 238.967,-102.28 243.319,-99.9471 247.841,-97.9459"/>
<polygon fill="midnightblue" stroke="midnightblue" points="249.229,-101.162 257.291,-94.287 246.702,-94.6337 249.229,-101.162"/>
</g>
<!-- Node155 -->
<g id="node12" class="node"><title>Node155</title>
<g id="a_node12"><a xlink:href="main_8cpp.html#a3e3cc959a7ab6f93ea52863d86373ce5" target="_top" xlink:title="Mat2QPixmap">
<polygon fill="white" stroke="black" points="263.5,-38.5 263.5,-57.5 342.5,-57.5 342.5,-38.5 263.5,-38.5"/>
<text text-anchor="middle" x="303" y="-45.5" font-family="Helvetica,sans-Serif" font-size="10.00">Mat2QPixmap</text>
</a>
</g>
</g>
<!-- Node145&#45;&gt;Node155 -->
<g id="edge14" class="edge"><title>Node145&#45;&gt;Node155</title>
<path fill="none" stroke="midnightblue" d="M165.895,-190.276C172.459,-165.699 193.108,-100.664 235,-67 240.446,-62.6239 246.846,-59.2553 253.493,-56.6623"/>
<polygon fill="midnightblue" stroke="midnightblue" points="254.942,-59.869 263.326,-53.3913 252.733,-53.2269 254.942,-59.869"/>
</g>
<!-- Node156 -->
<g id="node13" class="node"><title>Node156</title>
<g id="a_node13"><a xlink:href="classcomm_object.html#a6f81522c2aa1668fa402f08710e6206b" target="_top" xlink:title="commObject::changeImage">
<polygon fill="white" stroke="black" points="235,-0.5 235,-19.5 371,-19.5 371,-0.5 235,-0.5"/>
<text text-anchor="middle" x="303" y="-7.5" font-family="Helvetica,sans-Serif" font-size="10.00">commObject::changeImage</text>
</a>
</g>
</g>
<!-- Node145&#45;&gt;Node156 -->
<g id="edge15" class="edge"><title>Node145&#45;&gt;Node156</title>
<path fill="none" stroke="midnightblue" d="M164.643,-190.183C168.57,-161.005 184.204,-74.0518 235,-29 236.764,-27.4356 238.648,-25.9993 240.623,-24.6806"/>
<polygon fill="midnightblue" stroke="midnightblue" points="242.722,-27.5198 249.782,-19.6201 239.336,-21.3928 242.722,-27.5198"/>
</g>
<!-- Node146&#45;&gt;Node147 -->
<g id="edge3" class="edge"><title>Node146&#45;&gt;Node147</title>
<path fill="none" stroke="midnightblue" d="M330.751,-380.469C343.023,-376.084 357.757,-370.8 371,-366 388.881,-359.519 408.733,-352.249 425.232,-346.184"/>
<polygon fill="midnightblue" stroke="midnightblue" points="426.848,-349.319 435.025,-342.582 424.432,-342.75 426.848,-349.319"/>
</g>
<!-- Node148&#45;&gt;Node147 -->
<g id="edge6" class="edge"><title>Node148&#45;&gt;Node147</title>
<path fill="none" stroke="midnightblue" d="M334.271,-317.663C352.041,-319.814 375.193,-322.616 396.839,-325.235"/>
<polygon fill="midnightblue" stroke="midnightblue" points="396.635,-328.736 406.983,-326.463 397.476,-321.787 396.635,-328.736"/>
</g>
<!-- Node150&#45;&gt;Node147 -->
<g id="edge9" class="edge"><title>Node150&#45;&gt;Node147</title>
<path fill="none" stroke="midnightblue" d="M333.062,-243.397C345.236,-246.369 359.258,-250.755 371,-257 400.017,-272.432 428.069,-298.438 444.933,-315.662"/>
<polygon fill="midnightblue" stroke="midnightblue" points="442.826,-318.522 452.269,-323.326 447.883,-313.682 442.826,-318.522"/>
</g>
</g>
</svg>
