<?xml version="1.0" encoding="UTF-8" standalone="no"?>
<!DOCTYPE svg PUBLIC "-//W3C//DTD SVG 1.1//EN"
 "http://www.w3.org/Graphics/SVG/1.1/DTD/svg11.dtd">
<!-- Generated by graphviz version 2.38.0 (20140413.2041)
 -->
<!-- Title: sendDataUDP Pages: 1 -->
<svg width="509pt" height="39pt"
 viewBox="0.00 0.00 509.00 39.00" xmlns="http://www.w3.org/2000/svg" xmlns:xlink="http://www.w3.org/1999/xlink">
<g id="graph0" class="graph" transform="scale(1 1) rotate(0) translate(4 35)">
<title>sendDataUDP</title>
<polygon fill="white" stroke="none" points="-4,4 -4,-35 505,-35 505,4 -4,4"/>
<!-- Node164 -->
<g id="node1" class="node"><title>Node164</title>
<polygon fill="#bfbfbf" stroke="black" points="0,-6 0,-25 78,-25 78,-6 0,-6"/>
<text text-anchor="middle" x="39" y="-13" font-family="Helvetica,sans-Serif" font-size="10.00">sendDataUDP</text>
</g>
<!-- Node165 -->
<g id="node2" class="node"><title>Node165</title>
<g id="a_node2"><a xlink:href="main_8h.html#a3d3afd29ce54eb7fc5cc7e74ab666586" target="_top" xlink:title="startTracking">
<polygon fill="white" stroke="black" points="114,-6 114,-25 187,-25 187,-6 114,-6"/>
<text text-anchor="middle" x="150.5" y="-13" font-family="Helvetica,sans-Serif" font-size="10.00">startTracking</text>
</a>
</g>
</g>
<!-- Node164&#45;&gt;Node165 -->
<g id="edge1" class="edge"><title>Node164&#45;&gt;Node165</title>
<path fill="none" stroke="midnightblue" d="M88.5675,-15.5C97.1163,-15.5 105.869,-15.5 113.977,-15.5"/>
<polygon fill="midnightblue" stroke="midnightblue" points="88.2978,-12.0001 78.2978,-15.5 88.2978,-19.0001 88.2978,-12.0001"/>
</g>
<!-- Node166 -->
<g id="node3" class="node"><title>Node166</title>
<g id="a_node3"><a xlink:href="main_8h.html#a25183e8d0b386ef12b557efc712a0261" target="_top" xlink:title="Start or stop the tracking depending on if the camera is currently running or not. ">
<polygon fill="white" stroke="black" points="223,-6 223,-25 313,-25 313,-6 223,-6"/>
<text text-anchor="middle" x="268" y="-13" font-family="Helvetica,sans-Serif" font-size="10.00">startStopCamera</text>
</a>
</g>
</g>
<!-- Node165&#45;&gt;Node166 -->
<g id="edge2" class="edge"><title>Node165&#45;&gt;Node166</title>
<path fill="none" stroke="midnightblue" d="M197.149,-15.5C205.579,-15.5 214.369,-15.5 222.756,-15.5"/>
<polygon fill="midnightblue" stroke="midnightblue" points="197.096,-12.0001 187.096,-15.5 197.096,-19.0001 197.096,-12.0001"/>
</g>
<!-- Node167 -->
<g id="node4" class="node"><title>Node167</title>
<g id="a_node4"><a xlink:href="class_rigid_track.html#a2f226856e28868c8bb1854fa16531f60" target="_top" xlink:title="RigidTrack::on_btnStartCamera\l_clicked">
<polygon fill="white" stroke="black" points="349,-0.5 349,-30.5 501,-30.5 501,-0.5 349,-0.5"/>
<text text-anchor="start" x="357" y="-18.5" font-family="Helvetica,sans-Serif" font-size="10.00">RigidTrack::on_btnStartCamera</text>
<text text-anchor="middle" x="425" y="-7.5" font-family="Helvetica,sans-Serif" font-size="10.00">_clicked</text>
</a>
</g>
</g>
<!-- Node166&#45;&gt;Node167 -->
<g id="edge3" class="edge"><title>Node166&#45;&gt;Node167</title>
<path fill="none" stroke="midnightblue" d="M323.239,-15.5C331.511,-15.5 340.172,-15.5 348.795,-15.5"/>
<polygon fill="midnightblue" stroke="midnightblue" points="323.002,-12.0001 313.002,-15.5 323.002,-19.0001 323.002,-12.0001"/>
</g>
</g>
</svg>
