<?xml version="1.0" encoding="UTF-8" standalone="no"?>
<!DOCTYPE svg PUBLIC "-//W3C//DTD SVG 1.1//EN"
 "http://www.w3.org/Graphics/SVG/1.1/DTD/svg11.dtd">
<!-- Generated by graphviz version 2.38.0 (20140413.2041)
 -->
<!-- Title: main Pages: 1 -->
<!--zoomable 66 -->
<svg id="main" version="1.1" xmlns="http://www.w3.org/2000/svg" xmlns:xlink="http://www.w3.org/1999/xlink" xml:space="preserve" onload="init(evt)">
<style type="text/css"><![CDATA[
.edge:hover path { stroke: red; }
.edge:hover polygon { stroke: red; fill: red; }
]]></style>
<script type="text/javascript"><![CDATA[
var edges = document.getElementsByTagName('g');
if (edges && edges.length) {
  for (var i=0;i<edges.length;i++) {
    if (edges[i].id.substr(0,4)=='edge') {
      edges[i].setAttribute('class','edge');
    }
  }
}
]]></script>
        <defs>
                <circle id="rim" cx="0" cy="0" r="7"/>
                <circle id="rim2" cx="0" cy="0" r="3.5"/>
                <g id="zoomPlus">
                        <use xlink:href="#rim" fill="#404040">
                                <set attributeName="fill" to="#808080" begin="zoomplus.mouseover" end="zoomplus.mouseout"/>
                        </use>
                        <path d="M-4,0h8M0,-4v8" fill="none" stroke="white" stroke-width="1.5" pointer-events="none"/>
                </g>
                <g id="zoomMin">
                        <use xlink:href="#rim" fill="#404040">
                                <set attributeName="fill" to="#808080" begin="zoomminus.mouseover" end="zoomminus.mouseout"/>
                        </use>
                        <path d="M-4,0h8" fill="none" stroke="white" stroke-width="1.5" pointer-events="none"/>
                </g>
                <g id="dirArrow">
                        <path fill="none" stroke="white" stroke-width="1.5" d="M0,-3.0v7 M-2.5,-0.5L0,-3.0L2.5,-0.5"/>
                </g>
               <g id="resetDef">
                       <use xlink:href="#rim2" fill="#404040">
                               <set attributeName="fill" to="#808080" begin="reset.mouseover" end="reset.mouseout"/>
                       </use>
               </g>
        </defs>

<script type="text/javascript">
var viewWidth = 577;
var viewHeight = 66;
var sectionId = 'dynsection-20';
</script>
<script xlink:href="svgpan.js"/>
<svg id="graph" class="graph">
<g id="viewport">
<title>main</title>
<polygon fill="white" stroke="none" points="-4,4 -4,-62 573,-62 573,4 -4,4"/>
<!-- Node119 -->
<g id="node1" class="node"><title>Node119</title>
<polygon fill="#bfbfbf" stroke="black" points="0,-19.5 0,-38.5 38,-38.5 38,-19.5 0,-19.5"/>
<text text-anchor="middle" x="19" y="-26.5" font-family="Helvetica,sans-Serif" font-size="10.00">main</text>
</g>
<!-- Node120 -->
<g id="node2" class="node"><title>Node120</title>
<g id="a_node2"><a xlink:href="class_surface.html#a728571d0386e9690ce1760931562c72b" target="_top" xlink:title="Surface::PutPixel">
<polygon fill="white" stroke="black" points="74,-38.5 74,-57.5 166,-57.5 166,-38.5 74,-38.5"/>
<text text-anchor="middle" x="120" y="-45.5" font-family="Helvetica,sans-Serif" font-size="10.00">Surface::PutPixel</text>
</a>
</g>
</g>
<!-- Node119&#45;&gt;Node120 -->
<g id="edge1" class="edge"><title>Node119&#45;&gt;Node120</title>
<path fill="none" stroke="midnightblue" d="M48.0643,-34.3861C56.0778,-35.924 65.0202,-37.6402 73.7824,-39.3219"/>
<polygon fill="midnightblue" stroke="midnightblue" points="48.6386,-30.9325 38.1581,-32.4849 47.3192,-37.807 48.6386,-30.9325"/>
</g>
<!-- Node124 -->
<g id="node6" class="node"><title>Node124</title>
<g id="a_node6"><a xlink:href="supportcode_8cpp.html#a661c2abc03926acfaeb93b4ae7db4943" target="_top" xlink:title="/&lt; Window Show State ">
<polygon fill="white" stroke="black" points="92.5,-0.5 92.5,-19.5 147.5,-19.5 147.5,-0.5 92.5,-0.5"/>
<text text-anchor="middle" x="120" y="-7.5" font-family="Helvetica,sans-Serif" font-size="10.00">WinMain</text>
</a>
</g>
</g>
<!-- Node119&#45;&gt;Node124 -->
<g id="edge5" class="edge"><title>Node119&#45;&gt;Node124</title>
<path fill="none" stroke="midnightblue" d="M48.1423,-23.5989C62.0308,-20.9335 78.6947,-17.7354 92.3722,-15.1104"/>
<polygon fill="midnightblue" stroke="midnightblue" points="47.3192,-20.193 38.1581,-25.5151 48.6386,-27.0675 47.3192,-20.193"/>
</g>
<!-- Node121 -->
<g id="node3" class="node"><title>Node121</title>
<g id="a_node3"><a xlink:href="class_surface.html#a377c59f6ef131d4b879cda93578a3efa" target="_top" xlink:title="Surface::SurfaceHeight">
<polygon fill="white" stroke="black" points="202,-38.5 202,-57.5 318,-57.5 318,-38.5 202,-38.5"/>
<text text-anchor="middle" x="260" y="-45.5" font-family="Helvetica,sans-Serif" font-size="10.00">Surface::SurfaceHeight</text>
</a>
</g>
</g>
<!-- Node120&#45;&gt;Node121 -->
<g id="edge2" class="edge"><title>Node120&#45;&gt;Node121</title>
<path fill="none" stroke="midnightblue" d="M176.212,-48C184.574,-48 193.218,-48 201.625,-48"/>
<polygon fill="midnightblue" stroke="midnightblue" points="176.186,-44.5001 166.186,-48 176.186,-51.5001 176.186,-44.5001"/>
</g>
<!-- Node122 -->
<g id="node4" class="node"><title>Node122</title>
<g id="a_node4"><a xlink:href="supportcode_8h.html#ac43c2dc16b0859b03a4f7d04a7e97d3c" target="_top" xlink:title="DrawGLScene">
<polygon fill="white" stroke="black" points="354,-38.5 354,-57.5 433,-57.5 433,-38.5 354,-38.5"/>
<text text-anchor="middle" x="393.5" y="-45.5" font-family="Helvetica,sans-Serif" font-size="10.00">DrawGLScene</text>
</a>
</g>
</g>
<!-- Node121&#45;&gt;Node122 -->
<g id="edge3" class="edge"><title>Node121&#45;&gt;Node122</title>
<path fill="none" stroke="midnightblue" d="M328.511,-48C337.228,-48 345.905,-48 353.926,-48"/>
<polygon fill="midnightblue" stroke="midnightblue" points="328.295,-44.5001 318.295,-48 328.295,-51.5001 328.295,-44.5001"/>
</g>
<!-- Node123 -->
<g id="node5" class="node"><title>Node123</title>
<g id="a_node5"><a xlink:href="class_surface.html#abe0d542404575c60911d6ad4219560f9" target="_top" xlink:title="Surface::PixelSpan">
<polygon fill="white" stroke="black" points="469,-38.5 469,-57.5 569,-57.5 569,-38.5 469,-38.5"/>
<text text-anchor="middle" x="519" y="-45.5" font-family="Helvetica,sans-Serif" font-size="10.00">Surface::PixelSpan</text>
</a>
</g>
</g>
<!-- Node122&#45;&gt;Node123 -->
<g id="edge4" class="edge"><title>Node122&#45;&gt;Node123</title>
<path fill="none" stroke="midnightblue" d="M443.309,-48C451.74,-48 460.508,-48 468.946,-48"/>
<polygon fill="midnightblue" stroke="midnightblue" points="443.237,-44.5001 433.237,-48 443.237,-51.5001 443.237,-44.5001"/>
</g>
</g>
</svg>
        <g id="navigator" transform="translate(0 0)" fill="#404254">
                <rect fill="#f2f5e9" fill-opacity="0.5" stroke="#606060" stroke-width=".5" x="0" y="0" width="60" height="60"/>
                <use id="zoomplus" xlink:href="#zoomPlus" x="17" y="9" onmousedown="handleZoom(evt,'in')"/>
                <use id="zoomminus" xlink:href="#zoomMin" x="42" y="9" onmousedown="handleZoom(evt,'out')"/>
                <use id="reset" xlink:href="#resetDef" x="30" y="36" onmousedown="handleReset()"/>
                <g id="arrowUp" xlink:href="#dirArrow" transform="translate(30 24)" onmousedown="handlePan(0,-1)">
                  <use xlink:href="#rim" fill="#404040">
                        <set attributeName="fill" to="#808080" begin="arrowUp.mouseover" end="arrowUp.mouseout"/>
                  </use>
                  <path fill="none" stroke="white" stroke-width="1.5" d="M0,-3.0v7 M-2.5,-0.5L0,-3.0L2.5,-0.5"/>
                </g>
                <g id="arrowRight" xlink:href="#dirArrow" transform="rotate(90) translate(36 -43)" onmousedown="handlePan(1,0)">
                  <use xlink:href="#rim" fill="#404040">
                        <set attributeName="fill" to="#808080" begin="arrowRight.mouseover" end="arrowRight.mouseout"/>
                  </use>
                  <path fill="none" stroke="white" stroke-width="1.5" d="M0,-3.0v7 M-2.5,-0.5L0,-3.0L2.5,-0.5"/>
                </g>
                <g id="arrowDown" xlink:href="#dirArrow" transform="rotate(180) translate(-30 -48)" onmousedown="handlePan(0,1)">
                  <use xlink:href="#rim" fill="#404040">
                        <set attributeName="fill" to="#808080" begin="arrowDown.mouseover" end="arrowDown.mouseout"/>
                  </use>
                  <path fill="none" stroke="white" stroke-width="1.5" d="M0,-3.0v7 M-2.5,-0.5L0,-3.0L2.5,-0.5"/>
                </g>
                <g id="arrowLeft" xlink:href="#dirArrow" transform="rotate(270) translate(-36 17)" onmousedown="handlePan(-1,0)">
                  <use xlink:href="#rim" fill="#404040">
                        <set attributeName="fill" to="#808080" begin="arrowLeft.mouseover" end="arrowLeft.mouseout"/>
                  </use>
                  <path fill="none" stroke="white" stroke-width="1.5" d="M0,-3.0v7 M-2.5,-0.5L0,-3.0L2.5,-0.5"/>
                </g>
        </g>
        <svg viewBox="0 0 15 15" width="100%" height="30px" preserveAspectRatio="xMaxYMin meet">
         <g id="arrow_out" transform="scale(0.3 0.3)">
          <a xlink:href="main_8cpp_a0ddf1224851353fc92bfbff6f499fa97_icgraph_org.svg" target="_base">
           <rect id="button" ry="5" rx="5" y="6" x="6" height="38" width="38"
                fill="#f2f5e9" fill-opacity="0.5" stroke="#606060" stroke-width="1.0"/>
           <path id="arrow"
             d="M 11.500037,31.436501 C 11.940474,20.09759 22.043105,11.32322 32.158766,21.979434 L 37.068811,17.246167 C 37.068811,17.246167 37.088388,32 37.088388,32 L 22.160133,31.978069 C 22.160133,31.978069 26.997745,27.140456 26.997745,27.140456 C 18.528582,18.264221 13.291696,25.230495 11.500037,31.436501 z"
             style="fill:#404040;"/>
          </a>
         </g>
        </svg>
</svg>
