<?xml version="1.0" encoding="UTF-8" standalone="no"?>
<!DOCTYPE svg PUBLIC "-//W3C//DTD SVG 1.1//EN"
 "http://www.w3.org/Graphics/SVG/1.1/DTD/svg11.dtd">
<!-- Generated by graphviz version 2.38.0 (20140413.2041)
 -->
<!-- Title: RigidTrack/main.h Pages: 1 -->
<!--zoomable 196 -->
<svg id="main" version="1.1" xmlns="http://www.w3.org/2000/svg" xmlns:xlink="http://www.w3.org/1999/xlink" xml:space="preserve" onload="init(evt)">
<style type="text/css"><![CDATA[
.edge:hover path { stroke: red; }
.edge:hover polygon { stroke: red; fill: red; }
]]></style>
<script type="text/javascript"><![CDATA[
var edges = document.getElementsByTagName('g');
if (edges && edges.length) {
  for (var i=0;i<edges.length;i++) {
    if (edges[i].id.substr(0,4)=='edge') {
      edges[i].setAttribute('class','edge');
    }
  }
}
]]></script>
        <defs>
                <circle id="rim" cx="0" cy="0" r="7"/>
                <circle id="rim2" cx="0" cy="0" r="3.5"/>
                <g id="zoomPlus">
                        <use xlink:href="#rim" fill="#404040">
                                <set attributeName="fill" to="#808080" begin="zoomplus.mouseover" end="zoomplus.mouseout"/>
                        </use>
                        <path d="M-4,0h8M0,-4v8" fill="none" stroke="white" stroke-width="1.5" pointer-events="none"/>
                </g>
                <g id="zoomMin">
                        <use xlink:href="#rim" fill="#404040">
                                <set attributeName="fill" to="#808080" begin="zoomminus.mouseover" end="zoomminus.mouseout"/>
                        </use>
                        <path d="M-4,0h8" fill="none" stroke="white" stroke-width="1.5" pointer-events="none"/>
                </g>
                <g id="dirArrow">
                        <path fill="none" stroke="white" stroke-width="1.5" d="M0,-3.0v7 M-2.5,-0.5L0,-3.0L2.5,-0.5"/>
                </g>
               <g id="resetDef">
                       <use xlink:href="#rim2" fill="#404040">
                               <set attributeName="fill" to="#808080" begin="reset.mouseover" end="reset.mouseout"/>
                       </use>
               </g>
        </defs>

<script type="text/javascript">
var viewWidth = 2667;
var viewHeight = 196;
var sectionId = 'dynsection-0';
</script>
<script xlink:href="svgpan.js"/>
<svg id="graph" class="graph">
<g id="viewport">
<title>RigidTrack/main.h</title>
<polygon fill="white" stroke="none" points="-4,4 -4,-192 2663,-192 2663,4 -4,4"/>
<!-- Node0 -->
<g id="node1" class="node"><title>Node0</title>
<polygon fill="#bfbfbf" stroke="black" points="936,-168.5 936,-187.5 1031,-187.5 1031,-168.5 936,-168.5"/>
<text text-anchor="middle" x="983.5" y="-175.5" font-family="Helvetica,sans-Serif" font-size="10.00">RigidTrack/main.h</text>
</g>
<!-- Node1 -->
<g id="node2" class="node"><title>Node1</title>
<polygon fill="white" stroke="#bfbfbf" points="0,-112.5 0,-131.5 49,-131.5 49,-112.5 0,-112.5"/>
<text text-anchor="middle" x="24.5" y="-119.5" font-family="Helvetica,sans-Serif" font-size="10.00">fstream</text>
</g>
<!-- Node0&#45;&gt;Node1 -->
<g id="edge1" class="edge"><title>Node0&#45;&gt;Node1</title>
<path fill="none" stroke="midnightblue" d="M935.947,-176.007C774.86,-172.441 249.741,-159.107 59.4157,-131.722"/>
<polygon fill="midnightblue" stroke="midnightblue" points="59.6637,-128.22 49.2548,-130.196 58.6242,-135.143 59.6637,-128.22"/>
</g>
<!-- Node2 -->
<g id="node3" class="node"><title>Node2</title>
<polygon fill="white" stroke="#bfbfbf" points="67.5,-112.5 67.5,-131.5 129.5,-131.5 129.5,-112.5 67.5,-112.5"/>
<text text-anchor="middle" x="98.5" y="-119.5" font-family="Helvetica,sans-Serif" font-size="10.00">windows.h</text>
</g>
<!-- Node0&#45;&gt;Node2 -->
<g id="edge2" class="edge"><title>Node0&#45;&gt;Node2</title>
<path fill="none" stroke="midnightblue" d="M935.587,-177.259C807.689,-177.35 447.59,-173.69 139.858,-131.951"/>
<polygon fill="midnightblue" stroke="midnightblue" points="140.235,-128.47 129.852,-130.577 139.283,-135.405 140.235,-128.47"/>
</g>
<!-- Node3 -->
<g id="node4" class="node"><title>Node3</title>
<polygon fill="white" stroke="#bfbfbf" points="147.5,-112.5 147.5,-131.5 195.5,-131.5 195.5,-112.5 147.5,-112.5"/>
<text text-anchor="middle" x="171.5" y="-119.5" font-family="Helvetica,sans-Serif" font-size="10.00">conio.h</text>
</g>
<!-- Node0&#45;&gt;Node3 -->
<g id="edge3" class="edge"><title>Node0&#45;&gt;Node3</title>
<path fill="none" stroke="midnightblue" d="M935.781,-177.559C813.52,-178.274 479.388,-175.715 205.5,-132 205.398,-131.984 205.296,-131.967 205.194,-131.951"/>
<polygon fill="midnightblue" stroke="midnightblue" points="206.013,-128.545 195.518,-129.997 204.627,-135.407 206.013,-128.545"/>
</g>
<!-- Node4 -->
<g id="node5" class="node"><title>Node4</title>
<polygon fill="white" stroke="#bfbfbf" points="214,-112.5 214,-131.5 261,-131.5 261,-112.5 214,-112.5"/>
<text text-anchor="middle" x="237.5" y="-119.5" font-family="Helvetica,sans-Serif" font-size="10.00">tchar.h</text>
</g>
<!-- Node0&#45;&gt;Node4 -->
<g id="edge4" class="edge"><title>Node0&#45;&gt;Node4</title>
<path fill="none" stroke="midnightblue" d="M935.985,-177.319C822.449,-177.372 526.512,-173.325 271.369,-131.759"/>
<polygon fill="midnightblue" stroke="midnightblue" points="271.602,-128.25 261.165,-130.073 270.461,-135.156 271.602,-128.25"/>
</g>
<!-- Node5 -->
<g id="node6" class="node"><title>Node5</title>
<polygon fill="white" stroke="#bfbfbf" points="279.5,-112.5 279.5,-131.5 325.5,-131.5 325.5,-112.5 279.5,-112.5"/>
<text text-anchor="middle" x="302.5" y="-119.5" font-family="Helvetica,sans-Serif" font-size="10.00">stdio.h</text>
</g>
<!-- Node0&#45;&gt;Node5 -->
<g id="edge5" class="edge"><title>Node0&#45;&gt;Node5</title>
<path fill="none" stroke="midnightblue" d="M935.87,-177.022C829.571,-176.361 564.969,-170.762 335.98,-131.902"/>
<polygon fill="midnightblue" stroke="midnightblue" points="336.241,-128.395 325.792,-130.146 335.052,-135.293 336.241,-128.395"/>
</g>
<!-- Node6 -->
<g id="node7" class="node"><title>Node6</title>
<polygon fill="white" stroke="#bfbfbf" points="343.5,-112.5 343.5,-131.5 397.5,-131.5 397.5,-112.5 343.5,-112.5"/>
<text text-anchor="middle" x="370.5" y="-119.5" font-family="Helvetica,sans-Serif" font-size="10.00">iostream</text>
</g>
<!-- Node0&#45;&gt;Node6 -->
<g id="edge6" class="edge"><title>Node0&#45;&gt;Node6</title>
<path fill="none" stroke="midnightblue" d="M935.683,-175.969C838.088,-173.283 608.9,-164.004 407.692,-131.916"/>
<polygon fill="midnightblue" stroke="midnightblue" points="407.957,-128.413 397.526,-130.271 406.839,-135.324 407.957,-128.413"/>
</g>
<!-- Node7 -->
<g id="node8" class="node"><title>Node7</title>
<polygon fill="white" stroke="#bfbfbf" points="415.5,-112.5 415.5,-131.5 467.5,-131.5 467.5,-112.5 415.5,-112.5"/>
<text text-anchor="middle" x="441.5" y="-119.5" font-family="Helvetica,sans-Serif" font-size="10.00">stdarg.h</text>
</g>
<!-- Node0&#45;&gt;Node7 -->
<g id="edge7" class="edge"><title>Node0&#45;&gt;Node7</title>
<path fill="none" stroke="midnightblue" d="M935.746,-175.241C847.332,-171.446 652.101,-160.546 477.868,-131.762"/>
<polygon fill="midnightblue" stroke="midnightblue" points="478.187,-128.266 467.746,-130.065 477.03,-135.17 478.187,-128.266"/>
</g>
<!-- Node8 -->
<g id="node9" class="node"><title>Node8</title>
<polygon fill="white" stroke="#bfbfbf" points="486,-112.5 486,-131.5 535,-131.5 535,-112.5 486,-112.5"/>
<text text-anchor="middle" x="510.5" y="-119.5" font-family="Helvetica,sans-Serif" font-size="10.00">ctype.h</text>
</g>
<!-- Node0&#45;&gt;Node8 -->
<g id="edge8" class="edge"><title>Node0&#45;&gt;Node8</title>
<path fill="none" stroke="midnightblue" d="M935.733,-174.559C856.54,-169.978 693.003,-158.257 545.427,-131.881"/>
<polygon fill="midnightblue" stroke="midnightblue" points="545.746,-128.382 535.281,-130.04 544.495,-135.269 545.746,-128.382"/>
</g>
<!-- Node9 -->
<g id="node10" class="node"><title>Node9</title>
<polygon fill="white" stroke="#bfbfbf" points="553.5,-112.5 553.5,-131.5 601.5,-131.5 601.5,-112.5 553.5,-112.5"/>
<text text-anchor="middle" x="577.5" y="-119.5" font-family="Helvetica,sans-Serif" font-size="10.00">stdlib.h</text>
</g>
<!-- Node0&#45;&gt;Node9 -->
<g id="edge9" class="edge"><title>Node0&#45;&gt;Node9</title>
<path fill="none" stroke="midnightblue" d="M935.753,-173.488C866.347,-167.889 733.449,-155.317 611.441,-131.922"/>
<polygon fill="midnightblue" stroke="midnightblue" points="612.039,-128.472 601.555,-129.997 610.702,-135.343 612.039,-128.472"/>
</g>
<!-- Node10 -->
<g id="node11" class="node"><title>Node10</title>
<polygon fill="white" stroke="#bfbfbf" points="619.5,-112.5 619.5,-131.5 667.5,-131.5 667.5,-112.5 619.5,-112.5"/>
<text text-anchor="middle" x="643.5" y="-119.5" font-family="Helvetica,sans-Serif" font-size="10.00">gl/glu.h</text>
</g>
<!-- Node0&#45;&gt;Node10 -->
<g id="edge10" class="edge"><title>Node0&#45;&gt;Node10</title>
<path fill="none" stroke="midnightblue" d="M935.854,-171.824C877.242,-165.057 774.564,-151.908 677.543,-132"/>
<polygon fill="midnightblue" stroke="midnightblue" points="678.072,-128.535 667.569,-129.925 676.647,-135.388 678.072,-128.535"/>
</g>
<!-- Node11 -->
<g id="node12" class="node"><title>Node11</title>
<polygon fill="white" stroke="#bfbfbf" points="685.5,-112.5 685.5,-131.5 737.5,-131.5 737.5,-112.5 685.5,-112.5"/>
<text text-anchor="middle" x="711.5" y="-119.5" font-family="Helvetica,sans-Serif" font-size="10.00">sstream</text>
</g>
<!-- Node0&#45;&gt;Node11 -->
<g id="edge11" class="edge"><title>Node0&#45;&gt;Node11</title>
<path fill="none" stroke="midnightblue" d="M935.651,-168.843C889.808,-160.82 818.463,-147.792 747.794,-132.183"/>
<polygon fill="midnightblue" stroke="midnightblue" points="748.351,-128.721 737.83,-129.963 746.83,-135.554 748.351,-128.721"/>
</g>
<!-- Node12 -->
<g id="node13" class="node"><title>Node12</title>
<polygon fill="white" stroke="#bfbfbf" points="755.5,-112.5 755.5,-131.5 799.5,-131.5 799.5,-112.5 755.5,-112.5"/>
<text text-anchor="middle" x="777.5" y="-119.5" font-family="Helvetica,sans-Serif" font-size="10.00">thread</text>
</g>
<!-- Node0&#45;&gt;Node12 -->
<g id="edge12" class="edge"><title>Node0&#45;&gt;Node12</title>
<path fill="none" stroke="midnightblue" d="M949.763,-168.499C914.667,-159.604 858.151,-145.131 809.5,-132 809.399,-131.973 809.298,-131.945 809.197,-131.918"/>
<polygon fill="midnightblue" stroke="midnightblue" points="810.087,-128.533 799.517,-129.258 808.232,-135.283 810.087,-128.533"/>
</g>
<!-- Node13 -->
<g id="node14" class="node"><title>Node13</title>
<polygon fill="white" stroke="#bfbfbf" points="818,-112.5 818,-131.5 859,-131.5 859,-112.5 818,-112.5"/>
<text text-anchor="middle" x="838.5" y="-119.5" font-family="Helvetica,sans-Serif" font-size="10.00">future</text>
</g>
<!-- Node0&#45;&gt;Node13 -->
<g id="edge13" class="edge"><title>Node0&#45;&gt;Node13</title>
<path fill="none" stroke="midnightblue" d="M960.524,-168.444C935.632,-159.173 895.819,-144.346 868.481,-134.165"/>
<polygon fill="midnightblue" stroke="midnightblue" points="869.617,-130.853 859.024,-130.643 867.173,-137.413 869.617,-130.853"/>
</g>
<!-- Node14 -->
<g id="node15" class="node"><title>Node14</title>
<polygon fill="white" stroke="#bfbfbf" points="877.5,-112.5 877.5,-131.5 923.5,-131.5 923.5,-112.5 877.5,-112.5"/>
<text text-anchor="middle" x="900.5" y="-119.5" font-family="Helvetica,sans-Serif" font-size="10.00">atomic</text>
</g>
<!-- Node0&#45;&gt;Node14 -->
<g id="edge14" class="edge"><title>Node0&#45;&gt;Node14</title>
<path fill="none" stroke="midnightblue" d="M970.165,-168.324C957.338,-159.979 937.715,-147.212 922.56,-137.352"/>
<polygon fill="midnightblue" stroke="midnightblue" points="924.093,-134.174 913.802,-131.655 920.276,-140.042 924.093,-134.174"/>
</g>
<!-- Node15 -->
<g id="node16" class="node"><title>Node15</title>
<g id="a_node16"><a xlink:href="communication_8h_source.html" target="_top" xlink:title="communication.h">
<polygon fill="white" stroke="black" points="896,-56.5 896,-75.5 987,-75.5 987,-56.5 896,-56.5"/>
<text text-anchor="middle" x="941.5" y="-63.5" font-family="Helvetica,sans-Serif" font-size="10.00">communication.h</text>
</a>
</g>
</g>
<!-- Node0&#45;&gt;Node15 -->
<g id="edge15" class="edge"><title>Node0&#45;&gt;Node15</title>
<path fill="none" stroke="midnightblue" d="M980.204,-168.368C973.365,-150.456 957.507,-108.923 948.353,-84.9482"/>
<polygon fill="midnightblue" stroke="midnightblue" points="951.617,-83.6851 944.78,-75.5914 945.078,-86.1821 951.617,-83.6851"/>
</g>
<!-- Node18 -->
<g id="node19" class="node"><title>Node18</title>
<g id="a_node19"><a xlink:href="_rigid_track_8h.html" target="_top" xlink:title="Rigid Track GUI source header with Qt Signals and Slots. ">
<polygon fill="white" stroke="black" points="980,-112.5 980,-131.5 1051,-131.5 1051,-112.5 980,-112.5"/>
<text text-anchor="middle" x="1015.5" y="-119.5" font-family="Helvetica,sans-Serif" font-size="10.00">RigidTrack.h</text>
</a>
</g>
</g>
<!-- Node0&#45;&gt;Node18 -->
<g id="edge18" class="edge"><title>Node0&#45;&gt;Node18</title>
<path fill="none" stroke="midnightblue" d="M983.618,-168.083C986.529,-160.455 992.778,-149.264 999.146,-139.941"/>
<polygon fill="midnightblue" stroke="midnightblue" points="1002.07,-141.877 1005.18,-131.751 996.432,-137.724 1002.07,-141.877"/>
</g>
<!-- Node21 -->
<g id="node22" class="node"><title>Node21</title>
<polygon fill="white" stroke="#bfbfbf" points="1069.5,-112.5 1069.5,-131.5 1191.5,-131.5 1191.5,-112.5 1069.5,-112.5"/>
<text text-anchor="middle" x="1130.5" y="-119.5" font-family="Helvetica,sans-Serif" font-size="10.00">QtWidgets/QApplication</text>
</g>
<!-- Node0&#45;&gt;Node21 -->
<g id="edge24" class="edge"><title>Node0&#45;&gt;Node21</title>
<path fill="none" stroke="midnightblue" d="M1006.79,-168.444C1031.31,-159.438 1070.1,-145.189 1097.7,-135.049"/>
<polygon fill="midnightblue" stroke="midnightblue" points="1099.14,-138.25 1107.32,-131.516 1096.72,-131.679 1099.14,-138.25"/>
</g>
<!-- Node22 -->
<g id="node23" class="node"><title>Node22</title>
<polygon fill="white" stroke="#bfbfbf" points="1209.5,-112.5 1209.5,-131.5 1281.5,-131.5 1281.5,-112.5 1209.5,-112.5"/>
<text text-anchor="middle" x="1245.5" y="-119.5" font-family="Helvetica,sans-Serif" font-size="10.00">QUdpSocket</text>
</g>
<!-- Node0&#45;&gt;Node22 -->
<g id="edge25" class="edge"><title>Node0&#45;&gt;Node22</title>
<path fill="none" stroke="midnightblue" d="M1025.01,-168.444C1072.43,-158.67 1149.81,-142.722 1199.16,-132.551"/>
<polygon fill="midnightblue" stroke="midnightblue" points="1200.15,-135.92 1209.24,-130.473 1198.74,-129.064 1200.15,-135.92"/>
</g>
<!-- Node23 -->
<g id="node24" class="node"><title>Node23</title>
<polygon fill="white" stroke="#bfbfbf" points="1300,-112.5 1300,-131.5 1383,-131.5 1383,-112.5 1300,-112.5"/>
<text text-anchor="middle" x="1341.5" y="-119.5" font-family="Helvetica,sans-Serif" font-size="10.00">cameralibrary.h</text>
</g>
<!-- Node0&#45;&gt;Node23 -->
<g id="edge26" class="edge"><title>Node0&#45;&gt;Node23</title>
<path fill="none" stroke="midnightblue" d="M1031.16,-170.452C1089.57,-162.331 1191.82,-147.798 1289.7,-132.089"/>
<polygon fill="midnightblue" stroke="midnightblue" points="1290.45,-135.513 1299.77,-130.466 1289.34,-128.602 1290.45,-135.513"/>
</g>
<!-- Node24 -->
<g id="node25" class="node"><title>Node24</title>
<polygon fill="white" stroke="#bfbfbf" points="1401.5,-112.5 1401.5,-131.5 1483.5,-131.5 1483.5,-112.5 1401.5,-112.5"/>
<text text-anchor="middle" x="1442.5" y="-119.5" font-family="Helvetica,sans-Serif" font-size="10.00">modulevector.h</text>
</g>
<!-- Node0&#45;&gt;Node24 -->
<g id="edge27" class="edge"><title>Node0&#45;&gt;Node24</title>
<path fill="none" stroke="midnightblue" d="M1031.18,-172.823C1105.75,-166.055 1254.74,-151.595 1391.12,-132.112"/>
<polygon fill="midnightblue" stroke="midnightblue" points="1391.94,-135.531 1401.34,-130.64 1390.94,-128.603 1391.94,-135.531"/>
</g>
<!-- Node25 -->
<g id="node26" class="node"><title>Node25</title>
<polygon fill="white" stroke="#bfbfbf" points="1502,-112.5 1502,-131.5 1631,-131.5 1631,-112.5 1502,-112.5"/>
<text text-anchor="middle" x="1566.5" y="-119.5" font-family="Helvetica,sans-Serif" font-size="10.00">modulevectorprocessing.h</text>
</g>
<!-- Node0&#45;&gt;Node25 -->
<g id="edge28" class="edge"><title>Node0&#45;&gt;Node25</title>
<path fill="none" stroke="midnightblue" d="M1031.27,-173.303C1119.81,-166.336 1315.66,-150.391 1491.96,-132.023"/>
<polygon fill="midnightblue" stroke="midnightblue" points="1492.36,-135.501 1501.94,-130.978 1491.63,-128.539 1492.36,-135.501"/>
</g>
<!-- Node26 -->
<g id="node27" class="node"><title>Node26</title>
<polygon fill="white" stroke="#bfbfbf" points="1649,-112.5 1649,-131.5 1714,-131.5 1714,-112.5 1649,-112.5"/>
<text text-anchor="middle" x="1681.5" y="-119.5" font-family="Helvetica,sans-Serif" font-size="10.00">coremath.h</text>
</g>
<!-- Node0&#45;&gt;Node26 -->
<g id="edge29" class="edge"><title>Node0&#45;&gt;Node26</title>
<path fill="none" stroke="midnightblue" d="M1031.16,-176.145C1138.25,-173.705 1406.14,-164.714 1638.9,-132.033"/>
<polygon fill="midnightblue" stroke="midnightblue" points="1639.5,-135.483 1648.91,-130.61 1638.51,-128.553 1639.5,-135.483"/>
</g>
<!-- Node27 -->
<g id="node28" class="node"><title>Node27</title>
<polygon fill="white" stroke="#bfbfbf" points="1732,-112.5 1732,-131.5 1799,-131.5 1799,-112.5 1732,-112.5"/>
<text text-anchor="middle" x="1765.5" y="-119.5" font-family="Helvetica,sans-Serif" font-size="10.00">opencv\cv.h</text>
</g>
<!-- Node0&#45;&gt;Node27 -->
<g id="edge30" class="edge"><title>Node0&#45;&gt;Node27</title>
<path fill="none" stroke="midnightblue" d="M1031.36,-176.576C1147.96,-175.012 1456.04,-167.679 1721.43,-132.097"/>
<polygon fill="midnightblue" stroke="midnightblue" points="1722.21,-135.523 1731.65,-130.71 1721.27,-128.587 1722.21,-135.523"/>
</g>
<!-- Node28 -->
<g id="node29" class="node"><title>Node28</title>
<polygon fill="white" stroke="#bfbfbf" points="1817.5,-112.5 1817.5,-131.5 1909.5,-131.5 1909.5,-112.5 1817.5,-112.5"/>
<text text-anchor="middle" x="1863.5" y="-119.5" font-family="Helvetica,sans-Serif" font-size="10.00">opencv2\core.hpp</text>
</g>
<!-- Node0&#45;&gt;Node28 -->
<g id="edge31" class="edge"><title>Node0&#45;&gt;Node28</title>
<path fill="none" stroke="midnightblue" d="M1031.08,-176.196C1156.4,-173.695 1506.06,-164.245 1807.1,-132.031"/>
<polygon fill="midnightblue" stroke="midnightblue" points="1807.77,-135.479 1817.34,-130.924 1807.02,-128.519 1807.77,-135.479"/>
</g>
<!-- Node29 -->
<g id="node30" class="node"><title>Node29</title>
<polygon fill="white" stroke="#bfbfbf" points="1927.5,-112.5 1927.5,-131.5 2031.5,-131.5 2031.5,-112.5 1927.5,-112.5"/>
<text text-anchor="middle" x="1979.5" y="-119.5" font-family="Helvetica,sans-Serif" font-size="10.00">opencv2\calib3d.hpp</text>
</g>
<!-- Node0&#45;&gt;Node29 -->
<g id="edge32" class="edge"><title>Node0&#45;&gt;Node29</title>
<path fill="none" stroke="midnightblue" d="M1031.3,-176.359C1167.87,-174.173 1571.65,-165.248 1917.1,-132.037"/>
<polygon fill="midnightblue" stroke="midnightblue" points="1917.68,-135.496 1927.3,-131.047 1917.01,-128.529 1917.68,-135.496"/>
</g>
<!-- Node30 -->
<g id="node31" class="node"><title>Node30</title>
<polygon fill="white" stroke="#bfbfbf" points="2049.5,-112.5 2049.5,-131.5 2195.5,-131.5 2195.5,-112.5 2049.5,-112.5"/>
<text text-anchor="middle" x="2122.5" y="-119.5" font-family="Helvetica,sans-Serif" font-size="10.00">opencv2/imgproc/imgproc.hpp</text>
</g>
<!-- Node0&#45;&gt;Node30 -->
<g id="edge33" class="edge"><title>Node0&#45;&gt;Node30</title>
<path fill="none" stroke="midnightblue" d="M1031.24,-176.103C1179.21,-173.081 1643.52,-161.787 2039,-132.062"/>
<polygon fill="midnightblue" stroke="midnightblue" points="2039.5,-135.535 2049.2,-131.29 2038.97,-128.554 2039.5,-135.535"/>
</g>
<!-- Node31 -->
<g id="node32" class="node"><title>Node31</title>
<polygon fill="white" stroke="#bfbfbf" points="2213.5,-112.5 2213.5,-131.5 2351.5,-131.5 2351.5,-112.5 2213.5,-112.5"/>
<text text-anchor="middle" x="2282.5" y="-119.5" font-family="Helvetica,sans-Serif" font-size="10.00">opencv2/calib3d/calib3d.hpp</text>
</g>
<!-- Node0&#45;&gt;Node31 -->
<g id="edge34" class="edge"><title>Node0&#45;&gt;Node31</title>
<path fill="none" stroke="midnightblue" d="M1031,-176.582C1193.21,-174.871 1740.33,-166.783 2202.98,-132.053"/>
<polygon fill="midnightblue" stroke="midnightblue" points="2203.5,-135.524 2213.2,-131.28 2202.97,-128.544 2203.5,-135.524"/>
</g>
<!-- Node32 -->
<g id="node33" class="node"><title>Node32</title>
<polygon fill="white" stroke="#bfbfbf" points="2369.5,-112.5 2369.5,-131.5 2507.5,-131.5 2507.5,-112.5 2369.5,-112.5"/>
<text text-anchor="middle" x="2438.5" y="-119.5" font-family="Helvetica,sans-Serif" font-size="10.00">opencv2/highgui/highgui.hpp</text>
</g>
<!-- Node0&#45;&gt;Node32 -->
<g id="edge35" class="edge"><title>Node0&#45;&gt;Node32</title>
<path fill="none" stroke="midnightblue" d="M1031.14,-176.86C1206.46,-176.047 1832.47,-170.504 2359.12,-132.036"/>
<polygon fill="midnightblue" stroke="midnightblue" points="2359.49,-135.519 2369.21,-131.295 2358.98,-128.538 2359.49,-135.519"/>
</g>
<!-- Node33 -->
<g id="node34" class="node"><title>Node33</title>
<polygon fill="white" stroke="#bfbfbf" points="2526,-112.5 2526,-131.5 2659,-131.5 2659,-112.5 2526,-112.5"/>
<text text-anchor="middle" x="2592.5" y="-119.5" font-family="Helvetica,sans-Serif" font-size="10.00">opencv2\video\tracking.hpp</text>
</g>
<!-- Node0&#45;&gt;Node33 -->
<g id="edge36" class="edge"><title>Node0&#45;&gt;Node33</title>
<path fill="none" stroke="midnightblue" d="M1031.26,-177.136C1218.98,-177.348 1924.33,-175.105 2515.8,-131.971"/>
<polygon fill="midnightblue" stroke="midnightblue" points="2516.09,-135.459 2525.8,-131.237 2515.57,-128.478 2516.09,-135.459"/>
</g>
<!-- Node16 -->
<g id="node17" class="node"><title>Node16</title>
<polygon fill="white" stroke="#bfbfbf" points="913,-0.5 913,-19.5 966,-19.5 966,-0.5 913,-0.5"/>
<text text-anchor="middle" x="939.5" y="-7.5" font-family="Helvetica,sans-Serif" font-size="10.00">QObject</text>
</g>
<!-- Node15&#45;&gt;Node16 -->
<g id="edge16" class="edge"><title>Node15&#45;&gt;Node16</title>
<path fill="none" stroke="midnightblue" d="M941.17,-56.083C940.908,-49.0059 940.532,-38.8611 940.203,-29.9865"/>
<polygon fill="midnightblue" stroke="midnightblue" points="943.692,-29.6147 939.824,-19.7511 936.697,-29.8738 943.692,-29.6147"/>
</g>
<!-- Node17 -->
<g id="node18" class="node"><title>Node17</title>
<polygon fill="white" stroke="#bfbfbf" points="984.5,-0.5 984.5,-19.5 1046.5,-19.5 1046.5,-0.5 984.5,-0.5"/>
<text text-anchor="middle" x="1015.5" y="-7.5" font-family="Helvetica,sans-Serif" font-size="10.00">qpixmap.h</text>
</g>
<!-- Node15&#45;&gt;Node17 -->
<g id="edge17" class="edge"><title>Node15&#45;&gt;Node17</title>
<path fill="none" stroke="midnightblue" d="M953.389,-56.324C964.65,-48.1066 981.787,-35.6017 995.209,-25.8069"/>
<polygon fill="midnightblue" stroke="midnightblue" points="997.38,-28.5559 1003.39,-19.8339 993.253,-22.9014 997.38,-28.5559"/>
</g>
<!-- Node18&#45;&gt;Node0 -->
<g id="edge22" class="edge"><title>Node18&#45;&gt;Node0</title>
<path fill="none" stroke="midnightblue" d="M1015.45,-131.751C1012.58,-139.327 1006.36,-150.505 999.993,-159.855"/>
<polygon fill="midnightblue" stroke="midnightblue" points="997.049,-157.951 993.95,-168.083 1002.69,-162.095 997.049,-157.951"/>
</g>
<!-- Node18&#45;&gt;Node15 -->
<g id="edge23" class="edge"><title>Node18&#45;&gt;Node15</title>
<path fill="none" stroke="midnightblue" d="M1003.61,-112.324C992.35,-104.107 975.213,-91.6017 961.791,-81.8069"/>
<polygon fill="midnightblue" stroke="midnightblue" points="963.747,-78.9014 953.606,-75.8339 959.62,-84.5559 963.747,-78.9014"/>
</g>
<!-- Node18&#45;&gt;Node17 -->
<g id="edge21" class="edge"><title>Node18&#45;&gt;Node17</title>
<path fill="none" stroke="midnightblue" d="M1015.5,-112.368C1015.5,-94.617 1015.5,-53.6664 1015.5,-29.5974"/>
<polygon fill="midnightblue" stroke="midnightblue" points="1019,-29.5914 1015.5,-19.5914 1012,-29.5915 1019,-29.5914"/>
</g>
<!-- Node19 -->
<g id="node20" class="node"><title>Node19</title>
<polygon fill="white" stroke="#bfbfbf" points="1044,-56.5 1044,-75.5 1173,-75.5 1173,-56.5 1044,-56.5"/>
<text text-anchor="middle" x="1108.5" y="-63.5" font-family="Helvetica,sans-Serif" font-size="10.00">QtWidgets/QMainWindow</text>
</g>
<!-- Node18&#45;&gt;Node19 -->
<g id="edge19" class="edge"><title>Node18&#45;&gt;Node19</title>
<path fill="none" stroke="midnightblue" d="M1030.44,-112.324C1045.09,-103.822 1067.63,-90.7288 1084.74,-80.7975"/>
<polygon fill="midnightblue" stroke="midnightblue" points="1086.7,-83.7027 1093.6,-75.6545 1083.19,-77.6491 1086.7,-83.7027"/>
</g>
<!-- Node20 -->
<g id="node21" class="node"><title>Node20</title>
<polygon fill="white" stroke="#bfbfbf" points="1191,-56.5 1191,-75.5 1274,-75.5 1274,-56.5 1191,-56.5"/>
<text text-anchor="middle" x="1232.5" y="-63.5" font-family="Helvetica,sans-Serif" font-size="10.00">ui_RigidTrack.h</text>
</g>
<!-- Node18&#45;&gt;Node20 -->
<g id="edge20" class="edge"><title>Node18&#45;&gt;Node20</title>
<path fill="none" stroke="midnightblue" d="M1049.88,-112.444C1087.42,-103.102 1147.63,-88.1194 1188.57,-77.9326"/>
<polygon fill="midnightblue" stroke="midnightblue" points="1189.42,-81.3278 1198.28,-75.5164 1187.73,-74.5349 1189.42,-81.3278"/>
</g>
</g>
</svg>
        <g id="navigator" transform="translate(0 0)" fill="#404254">
                <rect fill="#f2f5e9" fill-opacity="0.5" stroke="#606060" stroke-width=".5" x="0" y="0" width="60" height="60"/>
                <use id="zoomplus" xlink:href="#zoomPlus" x="17" y="9" onmousedown="handleZoom(evt,'in')"/>
                <use id="zoomminus" xlink:href="#zoomMin" x="42" y="9" onmousedown="handleZoom(evt,'out')"/>
                <use id="reset" xlink:href="#resetDef" x="30" y="36" onmousedown="handleReset()"/>
                <g id="arrowUp" xlink:href="#dirArrow" transform="translate(30 24)" onmousedown="handlePan(0,-1)">
                  <use xlink:href="#rim" fill="#404040">
                        <set attributeName="fill" to="#808080" begin="arrowUp.mouseover" end="arrowUp.mouseout"/>
                  </use>
                  <path fill="none" stroke="white" stroke-width="1.5" d="M0,-3.0v7 M-2.5,-0.5L0,-3.0L2.5,-0.5"/>
                </g>
                <g id="arrowRight" xlink:href="#dirArrow" transform="rotate(90) translate(36 -43)" onmousedown="handlePan(1,0)">
                  <use xlink:href="#rim" fill="#404040">
                        <set attributeName="fill" to="#808080" begin="arrowRight.mouseover" end="arrowRight.mouseout"/>
                  </use>
                  <path fill="none" stroke="white" stroke-width="1.5" d="M0,-3.0v7 M-2.5,-0.5L0,-3.0L2.5,-0.5"/>
                </g>
                <g id="arrowDown" xlink:href="#dirArrow" transform="rotate(180) translate(-30 -48)" onmousedown="handlePan(0,1)">
                  <use xlink:href="#rim" fill="#404040">
                        <set attributeName="fill" to="#808080" begin="arrowDown.mouseover" end="arrowDown.mouseout"/>
                  </use>
                  <path fill="none" stroke="white" stroke-width="1.5" d="M0,-3.0v7 M-2.5,-0.5L0,-3.0L2.5,-0.5"/>
                </g>
                <g id="arrowLeft" xlink:href="#dirArrow" transform="rotate(270) translate(-36 17)" onmousedown="handlePan(-1,0)">
                  <use xlink:href="#rim" fill="#404040">
                        <set attributeName="fill" to="#808080" begin="arrowLeft.mouseover" end="arrowLeft.mouseout"/>
                  </use>
                  <path fill="none" stroke="white" stroke-width="1.5" d="M0,-3.0v7 M-2.5,-0.5L0,-3.0L2.5,-0.5"/>
                </g>
        </g>
        <svg viewBox="0 0 15 15" width="100%" height="30px" preserveAspectRatio="xMaxYMin meet">
         <g id="arrow_out" transform="scale(0.3 0.3)">
          <a xlink:href="main_8h__incl_org.svg" target="_base">
           <rect id="button" ry="5" rx="5" y="6" x="6" height="38" width="38"
                fill="#f2f5e9" fill-opacity="0.5" stroke="#606060" stroke-width="1.0"/>
           <path id="arrow"
             d="M 11.500037,31.436501 C 11.940474,20.09759 22.043105,11.32322 32.158766,21.979434 L 37.068811,17.246167 C 37.068811,17.246167 37.088388,32 37.088388,32 L 22.160133,31.978069 C 22.160133,31.978069 26.997745,27.140456 26.997745,27.140456 C 18.528582,18.264221 13.291696,25.230495 11.500037,31.436501 z"
             style="fill:#404040;"/>
          </a>
         </g>
        </svg>
</svg>
