<?xml version="1.0" encoding="UTF-8" standalone="no"?>
<!DOCTYPE svg PUBLIC "-//W3C//DTD SVG 1.1//EN"
 "http://www.w3.org/Graphics/SVG/1.1/DTD/svg11.dtd">
<!-- Generated by graphviz version 2.38.0 (20140413.2041)
 -->
<!-- Title: setReference Pages: 1 -->
<svg width="238pt" height="218pt"
 viewBox="0.00 0.00 238.00 218.00" xmlns="http://www.w3.org/2000/svg" xmlns:xlink="http://www.w3.org/1999/xlink">
<g id="graph0" class="graph" transform="scale(1 1) rotate(0) translate(4 214)">
<title>setReference</title>
<polygon fill="white" stroke="none" points="-4,4 -4,-214 234,-214 234,4 -4,4"/>
<!-- Node86 -->
<g id="node1" class="node"><title>Node86</title>
<polygon fill="#bfbfbf" stroke="black" points="0,-95.5 0,-114.5 74,-114.5 74,-95.5 0,-95.5"/>
<text text-anchor="middle" x="37" y="-102.5" font-family="Helvetica,sans-Serif" font-size="10.00">setReference</text>
</g>
<!-- Node87 -->
<g id="node2" class="node"><title>Node87</title>
<g id="a_node2"><a xlink:href="main_8cpp.html#a0416912fce6274568e80019b10ba294f" target="_top" xlink:title="determineExposure">
<polygon fill="white" stroke="black" points="119.5,-190.5 119.5,-209.5 220.5,-209.5 220.5,-190.5 119.5,-190.5"/>
<text text-anchor="middle" x="170" y="-197.5" font-family="Helvetica,sans-Serif" font-size="10.00">determineExposure</text>
</a>
</g>
</g>
<!-- Node86&#45;&gt;Node87 -->
<g id="edge1" class="edge"><title>Node86&#45;&gt;Node87</title>
<path fill="none" stroke="midnightblue" d="M44.604,-114.64C56.0782,-130.685 81.2394,-162.889 110,-181 113.193,-183.011 116.618,-184.827 120.151,-186.464"/>
<polygon fill="midnightblue" stroke="midnightblue" points="119.095,-189.815 129.674,-190.392 121.764,-183.343 119.095,-189.815"/>
</g>
<!-- Node88 -->
<g id="node3" class="node"><title>Node88</title>
<g id="a_node3"><a xlink:href="main_8cpp.html#a11ff459289305229597defd39f510959" target="_top" xlink:title="determineOrder">
<polygon fill="white" stroke="black" points="128.5,-152.5 128.5,-171.5 211.5,-171.5 211.5,-152.5 128.5,-152.5"/>
<text text-anchor="middle" x="170" y="-159.5" font-family="Helvetica,sans-Serif" font-size="10.00">determineOrder</text>
</a>
</g>
</g>
<!-- Node86&#45;&gt;Node88 -->
<g id="edge2" class="edge"><title>Node86&#45;&gt;Node88</title>
<path fill="none" stroke="midnightblue" d="M54.1904,-114.59C68.5299,-122.829 90.2002,-134.662 110,-143 115.145,-145.167 120.627,-147.235 126.099,-149.157"/>
<polygon fill="midnightblue" stroke="midnightblue" points="125.268,-152.57 135.862,-152.446 127.503,-145.936 125.268,-152.57"/>
</g>
<!-- Node89 -->
<g id="node4" class="node"><title>Node89</title>
<g id="a_node4"><a xlink:href="main_8cpp.html#a2104a5d9d6b9f1e29bc4cd858c59882e" target="_top" xlink:title="projectCoordinateFrame">
<polygon fill="white" stroke="black" points="110,-114.5 110,-133.5 230,-133.5 230,-114.5 110,-114.5"/>
<text text-anchor="middle" x="170" y="-121.5" font-family="Helvetica,sans-Serif" font-size="10.00">projectCoordinateFrame</text>
</a>
</g>
</g>
<!-- Node86&#45;&gt;Node89 -->
<g id="edge3" class="edge"><title>Node86&#45;&gt;Node89</title>
<path fill="none" stroke="midnightblue" d="M74.1431,-110.242C82.1767,-111.407 90.9532,-112.68 99.8199,-113.966"/>
<polygon fill="midnightblue" stroke="midnightblue" points="99.4353,-117.447 109.834,-115.419 100.44,-110.519 99.4353,-117.447"/>
</g>
<!-- Node90 -->
<g id="node5" class="node"><title>Node90</title>
<g id="a_node5"><a xlink:href="main_8cpp.html#af6430ad2592a955a3618549547dfc5be" target="_top" xlink:title="drawPositionText">
<polygon fill="white" stroke="black" points="124.5,-76.5 124.5,-95.5 215.5,-95.5 215.5,-76.5 124.5,-76.5"/>
<text text-anchor="middle" x="170" y="-83.5" font-family="Helvetica,sans-Serif" font-size="10.00">drawPositionText</text>
</a>
</g>
</g>
<!-- Node86&#45;&gt;Node90 -->
<g id="edge4" class="edge"><title>Node86&#45;&gt;Node90</title>
<path fill="none" stroke="midnightblue" d="M74.1431,-99.7579C86.4544,-97.9723 100.51,-95.9336 113.962,-93.9826"/>
<polygon fill="midnightblue" stroke="midnightblue" points="114.698,-97.4126 124.092,-92.5134 113.693,-90.4851 114.698,-97.4126"/>
</g>
<!-- Node91 -->
<g id="node6" class="node"><title>Node91</title>
<g id="a_node6"><a xlink:href="main_8cpp.html#a3e3cc959a7ab6f93ea52863d86373ce5" target="_top" xlink:title="Mat2QPixmap">
<polygon fill="white" stroke="black" points="130.5,-38.5 130.5,-57.5 209.5,-57.5 209.5,-38.5 130.5,-38.5"/>
<text text-anchor="middle" x="170" y="-45.5" font-family="Helvetica,sans-Serif" font-size="10.00">Mat2QPixmap</text>
</a>
</g>
</g>
<!-- Node86&#45;&gt;Node91 -->
<g id="edge5" class="edge"><title>Node86&#45;&gt;Node91</title>
<path fill="none" stroke="midnightblue" d="M54.1904,-95.4095C68.5299,-87.1713 90.2002,-75.3382 110,-67 115.145,-64.8334 120.627,-62.7647 126.099,-60.8432"/>
<polygon fill="midnightblue" stroke="midnightblue" points="127.503,-64.0637 135.862,-57.5541 125.268,-57.43 127.503,-64.0637"/>
</g>
<!-- Node92 -->
<g id="node7" class="node"><title>Node92</title>
<g id="a_node7"><a xlink:href="main_8cpp.html#ab2b71933055cf32cc8e5e2100fd7723f" target="_top" xlink:title="getEulerAngles">
<polygon fill="white" stroke="black" points="128.5,-0.5 128.5,-19.5 211.5,-19.5 211.5,-0.5 128.5,-0.5"/>
<text text-anchor="middle" x="170" y="-7.5" font-family="Helvetica,sans-Serif" font-size="10.00">getEulerAngles</text>
</a>
</g>
</g>
<!-- Node86&#45;&gt;Node92 -->
<g id="edge6" class="edge"><title>Node86&#45;&gt;Node92</title>
<path fill="none" stroke="midnightblue" d="M44.604,-95.3599C56.0782,-79.3154 81.2394,-47.111 110,-29 113.193,-26.9894 116.618,-25.1732 120.151,-23.5358"/>
<polygon fill="midnightblue" stroke="midnightblue" points="121.764,-26.6568 129.674,-19.6084 119.095,-20.1855 121.764,-26.6568"/>
</g>
</g>
</svg>
