<?xml version="1.0" encoding="UTF-8" standalone="no"?>
<!DOCTYPE svg PUBLIC "-//W3C//DTD SVG 1.1//EN"
 "http://www.w3.org/Graphics/SVG/1.1/DTD/svg11.dtd">
<!-- Generated by graphviz version 2.38.0 (20140413.2041)
 -->
<!-- Title: Mat2QPixmap Pages: 1 -->
<svg width="341pt" height="236pt"
 viewBox="0.00 0.00 341.00 236.00" xmlns="http://www.w3.org/2000/svg" xmlns:xlink="http://www.w3.org/1999/xlink">
<g id="graph0" class="graph" transform="scale(1 1) rotate(0) translate(4 232)">
<title>Mat2QPixmap</title>
<polygon fill="white" stroke="none" points="-4,4 -4,-232 337,-232 337,4 -4,4"/>
<!-- Node61 -->
<g id="node1" class="node"><title>Node61</title>
<polygon fill="#bfbfbf" stroke="black" points="0,-95.5 0,-114.5 79,-114.5 79,-95.5 0,-95.5"/>
<text text-anchor="middle" x="39.5" y="-102.5" font-family="Helvetica,sans-Serif" font-size="10.00">Mat2QPixmap</text>
</g>
<!-- Node62 -->
<g id="node2" class="node"><title>Node62</title>
<g id="a_node2"><a xlink:href="main_8h.html#a3d3afd29ce54eb7fc5cc7e74ab666586" target="_top" xlink:title="startTracking">
<polygon fill="white" stroke="black" points="124.5,-208.5 124.5,-227.5 197.5,-227.5 197.5,-208.5 124.5,-208.5"/>
<text text-anchor="middle" x="161" y="-215.5" font-family="Helvetica,sans-Serif" font-size="10.00">startTracking</text>
</a>
</g>
</g>
<!-- Node61&#45;&gt;Node62 -->
<g id="edge1" class="edge"><title>Node61&#45;&gt;Node62</title>
<path fill="none" stroke="midnightblue" d="M51.1053,-123.375C63.9156,-144.172 87.2385,-177.893 115,-199 119.861,-202.695 125.547,-205.815 131.209,-208.391"/>
<polygon fill="midnightblue" stroke="midnightblue" points="53.9729,-121.351 45.834,-114.568 47.9665,-124.946 53.9729,-121.351"/>
</g>
<!-- Node64 -->
<g id="node4" class="node"><title>Node64</title>
<g id="a_node4"><a xlink:href="main_8h.html#a1e6662e0f16887fe97c7bebe05065972" target="_top" xlink:title="setReference">
<polygon fill="white" stroke="black" points="124,-170.5 124,-189.5 198,-189.5 198,-170.5 124,-170.5"/>
<text text-anchor="middle" x="161" y="-177.5" font-family="Helvetica,sans-Serif" font-size="10.00">setReference</text>
</a>
</g>
</g>
<!-- Node61&#45;&gt;Node64 -->
<g id="edge3" class="edge"><title>Node61&#45;&gt;Node64</title>
<path fill="none" stroke="midnightblue" d="M59.2712,-121.16C73.8198,-133.164 94.8342,-149.399 115,-161 121.028,-164.468 127.811,-167.663 134.247,-170.405"/>
<polygon fill="midnightblue" stroke="midnightblue" points="61.4186,-118.393 51.5076,-114.649 56.9201,-123.757 61.4186,-118.393"/>
</g>
<!-- Node65 -->
<g id="node5" class="node"><title>Node65</title>
<g id="a_node5"><a xlink:href="main_8h.html#a5f7c5996cd5a271d0277e0741f73a5b4" target="_top" xlink:title="Start the camera calibration routine that computes the camera matrix and distortion coefficients...">
<polygon fill="white" stroke="black" points="117.5,-114.5 117.5,-133.5 204.5,-133.5 204.5,-114.5 117.5,-114.5"/>
<text text-anchor="middle" x="161" y="-121.5" font-family="Helvetica,sans-Serif" font-size="10.00">calibrateCamera</text>
</a>
</g>
</g>
<!-- Node61&#45;&gt;Node65 -->
<g id="edge4" class="edge"><title>Node61&#45;&gt;Node65</title>
<path fill="none" stroke="midnightblue" d="M89.1996,-112.743C98.4994,-114.222 108.169,-115.759 117.265,-117.205"/>
<polygon fill="midnightblue" stroke="midnightblue" points="89.7238,-109.282 79.2982,-111.169 88.6246,-116.196 89.7238,-109.282"/>
</g>
<!-- Node66 -->
<g id="node6" class="node"><title>Node66</title>
<g id="a_node6"><a xlink:href="main_8h.html#a847c0fbd3e513fb76ff145b31a9f5c37" target="_top" xlink:title="testAlgorithms">
<polygon fill="white" stroke="black" points="121,-76.5 121,-95.5 201,-95.5 201,-76.5 121,-76.5"/>
<text text-anchor="middle" x="161" y="-83.5" font-family="Helvetica,sans-Serif" font-size="10.00">testAlgorithms</text>
</a>
</g>
</g>
<!-- Node61&#45;&gt;Node66 -->
<g id="edge6" class="edge"><title>Node61&#45;&gt;Node66</title>
<path fill="none" stroke="midnightblue" d="M89.2396,-97.2506C99.8078,-95.5703 110.852,-93.8143 120.988,-92.2028"/>
<polygon fill="midnightblue" stroke="midnightblue" points="88.6246,-93.8043 79.2982,-98.8312 89.7238,-100.718 88.6246,-93.8043"/>
</g>
<!-- Node68 -->
<g id="node8" class="node"><title>Node68</title>
<g id="a_node8"><a xlink:href="main_8h.html#a56c7f641859cb2b6b99b0947d03be800" target="_top" xlink:title="loadMarkerConfig">
<polygon fill="white" stroke="black" points="115,-38.5 115,-57.5 207,-57.5 207,-38.5 115,-38.5"/>
<text text-anchor="middle" x="161" y="-45.5" font-family="Helvetica,sans-Serif" font-size="10.00">loadMarkerConfig</text>
</a>
</g>
</g>
<!-- Node61&#45;&gt;Node68 -->
<g id="edge8" class="edge"><title>Node61&#45;&gt;Node68</title>
<path fill="none" stroke="midnightblue" d="M67.4926,-90.6387C81.5393,-83.3169 99.0639,-74.4168 115,-67 121.92,-63.7796 129.536,-60.4752 136.503,-57.5439"/>
<polygon fill="midnightblue" stroke="midnightblue" points="65.6141,-87.6718 58.3858,-95.4179 68.867,-93.8701 65.6141,-87.6718"/>
</g>
<!-- Node69 -->
<g id="node9" class="node"><title>Node69</title>
<g id="a_node9"><a xlink:href="main_8h.html#a7ad2e3cfb5056dbab2098e0dd3bd353f" target="_top" xlink:title="calibrateGround">
<polygon fill="white" stroke="black" points="118.5,-0.5 118.5,-19.5 203.5,-19.5 203.5,-0.5 118.5,-0.5"/>
<text text-anchor="middle" x="161" y="-7.5" font-family="Helvetica,sans-Serif" font-size="10.00">calibrateGround</text>
</a>
</g>
</g>
<!-- Node61&#45;&gt;Node69 -->
<g id="edge10" class="edge"><title>Node61&#45;&gt;Node69</title>
<path fill="none" stroke="midnightblue" d="M54.1804,-87.4589C68.0299,-70.6471 90.8042,-45.4624 115,-29 120.329,-25.3745 126.459,-22.2271 132.447,-19.5934"/>
<polygon fill="midnightblue" stroke="midnightblue" points="51.335,-85.4121 47.7912,-95.3967 56.788,-89.8012 51.335,-85.4121"/>
</g>
<!-- Node63 -->
<g id="node3" class="node"><title>Node63</title>
<g id="a_node3"><a xlink:href="main_8h.html#a25183e8d0b386ef12b557efc712a0261" target="_top" xlink:title="Start or stop the tracking depending on if the camera is currently running or not. ">
<polygon fill="white" stroke="black" points="243,-208.5 243,-227.5 333,-227.5 333,-208.5 243,-208.5"/>
<text text-anchor="middle" x="288" y="-215.5" font-family="Helvetica,sans-Serif" font-size="10.00">startStopCamera</text>
</a>
</g>
</g>
<!-- Node62&#45;&gt;Node63 -->
<g id="edge2" class="edge"><title>Node62&#45;&gt;Node63</title>
<path fill="none" stroke="midnightblue" d="M207.976,-218C219.325,-218 231.458,-218 242.725,-218"/>
<polygon fill="midnightblue" stroke="midnightblue" points="207.82,-214.5 197.82,-218 207.82,-221.5 207.82,-214.5"/>
</g>
<!-- Node65&#45;&gt;Node65 -->
<g id="edge5" class="edge"><title>Node65&#45;&gt;Node65</title>
<path fill="none" stroke="midnightblue" d="M138.679,-143.029C139.896,-148.128 147.337,-152 161,-152 182.328,-152 188.493,-142.565 179.495,-133.757"/>
<polygon fill="midnightblue" stroke="midnightblue" points="141.926,-144.336 142.505,-133.757 135.455,-141.666 141.926,-144.336"/>
</g>
<!-- Node67 -->
<g id="node7" class="node"><title>Node67</title>
<g id="a_node7"><a xlink:href="main_8cpp.html#a0ddf1224851353fc92bfbff6f499fa97" target="_top" xlink:title="main initialises the GUI and values for the marker position etc ">
<polygon fill="white" stroke="black" points="269,-57.5 269,-76.5 307,-76.5 307,-57.5 269,-57.5"/>
<text text-anchor="middle" x="288" y="-64.5" font-family="Helvetica,sans-Serif" font-size="10.00">main</text>
</a>
</g>
</g>
<!-- Node66&#45;&gt;Node67 -->
<g id="edge7" class="edge"><title>Node66&#45;&gt;Node67</title>
<path fill="none" stroke="midnightblue" d="M211.272,-78.5107C231.543,-75.4294 253.76,-72.0524 268.855,-69.758"/>
<polygon fill="midnightblue" stroke="midnightblue" points="210.568,-75.0773 201.208,-80.0404 211.62,-81.9978 210.568,-75.0773"/>
</g>
<!-- Node68&#45;&gt;Node67 -->
<g id="edge9" class="edge"><title>Node68&#45;&gt;Node67</title>
<path fill="none" stroke="midnightblue" d="M217.265,-56.4002C235.744,-59.2091 255.079,-62.1481 268.69,-64.2169"/>
<polygon fill="midnightblue" stroke="midnightblue" points="217.54,-52.902 207.128,-54.8594 216.488,-59.8225 217.54,-52.902"/>
</g>
</g>
</svg>
