<?xml version="1.0" encoding="UTF-8" standalone="no"?>
<!DOCTYPE svg PUBLIC "-//W3C//DTD SVG 1.1//EN"
 "http://www.w3.org/Graphics/SVG/1.1/DTD/svg11.dtd">
<!-- Generated by graphviz version 2.38.0 (20140413.2041)
 -->
<!-- Title: Mat2QPixmap Pages: 1 -->
<svg width="988pt" height="269pt"
 viewBox="0.00 0.00 988.00 269.00" xmlns="http://www.w3.org/2000/svg" xmlns:xlink="http://www.w3.org/1999/xlink">
<g id="graph0" class="graph" transform="scale(1 1) rotate(0) translate(4 265)">
<title>Mat2QPixmap</title>
<polygon fill="white" stroke="none" points="-4,4 -4,-265 984,-265 984,4 -4,4"/>
<!-- Node126 -->
<g id="node1" class="node"><title>Node126</title>
<polygon fill="#bfbfbf" stroke="black" points="0,-118 0,-137 79,-137 79,-118 0,-118"/>
<text text-anchor="middle" x="39.5" y="-125" font-family="Helvetica,sans-Serif" font-size="10.00">Mat2QPixmap</text>
</g>
<!-- Node127 -->
<g id="node2" class="node"><title>Node127</title>
<g id="a_node2"><a xlink:href="main_8h.html#a3d3afd29ce54eb7fc5cc7e74ab666586" target="_top" xlink:title="startTracking">
<polygon fill="white" stroke="black" points="124.5,-233 124.5,-252 197.5,-252 197.5,-233 124.5,-233"/>
<text text-anchor="middle" x="161" y="-240" font-family="Helvetica,sans-Serif" font-size="10.00">startTracking</text>
</a>
</g>
</g>
<!-- Node126&#45;&gt;Node127 -->
<g id="edge1" class="edge"><title>Node126&#45;&gt;Node127</title>
<path fill="none" stroke="midnightblue" d="M51.4484,-146.011C64.4316,-166.664 87.776,-199.993 115,-221.5 120.683,-225.989 127.481,-229.793 134.051,-232.879"/>
<polygon fill="midnightblue" stroke="midnightblue" points="54.2914,-143.952 46.0854,-137.25 48.3212,-147.606 54.2914,-143.952"/>
</g>
<!-- Node130 -->
<g id="node5" class="node"><title>Node130</title>
<g id="a_node5"><a xlink:href="main_8h.html#a1e6662e0f16887fe97c7bebe05065972" target="_top" xlink:title="setReference">
<polygon fill="white" stroke="black" points="124,-193 124,-212 198,-212 198,-193 124,-193"/>
<text text-anchor="middle" x="161" y="-200" font-family="Helvetica,sans-Serif" font-size="10.00">setReference</text>
</a>
</g>
</g>
<!-- Node126&#45;&gt;Node130 -->
<g id="edge4" class="edge"><title>Node126&#45;&gt;Node130</title>
<path fill="none" stroke="midnightblue" d="M59.2712,-143.66C73.8198,-155.664 94.8342,-171.899 115,-183.5 121.028,-186.968 127.811,-190.163 134.247,-192.905"/>
<polygon fill="midnightblue" stroke="midnightblue" points="61.4186,-140.893 51.5076,-137.149 56.9201,-146.257 61.4186,-140.893"/>
</g>
<!-- Node132 -->
<g id="node7" class="node"><title>Node132</title>
<g id="a_node7"><a xlink:href="main_8h.html#a5f7c5996cd5a271d0277e0741f73a5b4" target="_top" xlink:title="Start the camera calibration routine that computes the camera matrix and distortion coefficients...">
<polygon fill="white" stroke="black" points="117.5,-137 117.5,-156 204.5,-156 204.5,-137 117.5,-137"/>
<text text-anchor="middle" x="161" y="-144" font-family="Helvetica,sans-Serif" font-size="10.00">calibrateCamera</text>
</a>
</g>
</g>
<!-- Node126&#45;&gt;Node132 -->
<g id="edge6" class="edge"><title>Node126&#45;&gt;Node132</title>
<path fill="none" stroke="midnightblue" d="M89.1996,-135.243C98.4994,-136.722 108.169,-138.259 117.265,-139.705"/>
<polygon fill="midnightblue" stroke="midnightblue" points="89.7238,-131.782 79.2982,-133.669 88.6246,-138.696 89.7238,-131.782"/>
</g>
<!-- Node134 -->
<g id="node9" class="node"><title>Node134</title>
<g id="a_node9"><a xlink:href="main_8h.html#a847c0fbd3e513fb76ff145b31a9f5c37" target="_top" xlink:title="testAlgorithms">
<polygon fill="white" stroke="black" points="121,-99 121,-118 201,-118 201,-99 121,-99"/>
<text text-anchor="middle" x="161" y="-106" font-family="Helvetica,sans-Serif" font-size="10.00">testAlgorithms</text>
</a>
</g>
</g>
<!-- Node126&#45;&gt;Node134 -->
<g id="edge9" class="edge"><title>Node126&#45;&gt;Node134</title>
<path fill="none" stroke="midnightblue" d="M89.2396,-119.751C99.8078,-118.07 110.852,-116.314 120.988,-114.703"/>
<polygon fill="midnightblue" stroke="midnightblue" points="88.6246,-116.304 79.2982,-121.331 89.7238,-123.218 88.6246,-116.304"/>
</g>
<!-- Node141 -->
<g id="node16" class="node"><title>Node141</title>
<g id="a_node16"><a xlink:href="main_8h.html#a56c7f641859cb2b6b99b0947d03be800" target="_top" xlink:title="loadMarkerConfig">
<polygon fill="white" stroke="black" points="115,-61 115,-80 207,-80 207,-61 115,-61"/>
<text text-anchor="middle" x="161" y="-68" font-family="Helvetica,sans-Serif" font-size="10.00">loadMarkerConfig</text>
</a>
</g>
</g>
<!-- Node126&#45;&gt;Node141 -->
<g id="edge16" class="edge"><title>Node126&#45;&gt;Node141</title>
<path fill="none" stroke="midnightblue" d="M67.4926,-113.139C81.5393,-105.817 99.0639,-96.9168 115,-89.5 121.92,-86.2796 129.536,-82.9752 136.503,-80.0439"/>
<polygon fill="midnightblue" stroke="midnightblue" points="65.6141,-110.172 58.3858,-117.918 68.867,-116.37 65.6141,-110.172"/>
</g>
<!-- Node143 -->
<g id="node18" class="node"><title>Node143</title>
<g id="a_node18"><a xlink:href="main_8h.html#a7ad2e3cfb5056dbab2098e0dd3bd353f" target="_top" xlink:title="calibrateGround">
<polygon fill="white" stroke="black" points="118.5,-15 118.5,-34 203.5,-34 203.5,-15 118.5,-15"/>
<text text-anchor="middle" x="161" y="-22" font-family="Helvetica,sans-Serif" font-size="10.00">calibrateGround</text>
</a>
</g>
</g>
<!-- Node126&#45;&gt;Node143 -->
<g id="edge19" class="edge"><title>Node126&#45;&gt;Node143</title>
<path fill="none" stroke="midnightblue" d="M55.1746,-110.156C69.4554,-93.8824 92.2702,-69.4299 115,-51.5 123.298,-44.9545 133.315,-38.7972 141.79,-34.0202"/>
<polygon fill="midnightblue" stroke="midnightblue" points="52.4218,-107.989 48.5302,-117.843 57.7176,-112.566 52.4218,-107.989"/>
</g>
<!-- Node128 -->
<g id="node3" class="node"><title>Node128</title>
<g id="a_node3"><a xlink:href="main_8h.html#a25183e8d0b386ef12b557efc712a0261" target="_top" xlink:title="Start or stop the tracking depending on if the camera is currently running or not. ">
<polygon fill="white" stroke="black" points="271,-236 271,-255 361,-255 361,-236 271,-236"/>
<text text-anchor="middle" x="316" y="-243" font-family="Helvetica,sans-Serif" font-size="10.00">startStopCamera</text>
</a>
</g>
</g>
<!-- Node127&#45;&gt;Node128 -->
<g id="edge2" class="edge"><title>Node127&#45;&gt;Node128</title>
<path fill="none" stroke="midnightblue" d="M207.961,-243.401C227.901,-243.792 251.153,-244.248 270.882,-244.635"/>
<polygon fill="midnightblue" stroke="midnightblue" points="207.938,-239.9 197.872,-243.203 207.801,-246.899 207.938,-239.9"/>
</g>
<!-- Node129 -->
<g id="node4" class="node"><title>Node129</title>
<g id="a_node4"><a xlink:href="class_rigid_track.html#a2f226856e28868c8bb1854fa16531f60" target="_top" xlink:title="RigidTrack::on_btnStartCamera\l_clicked">
<polygon fill="white" stroke="black" points="425,-230.5 425,-260.5 577,-260.5 577,-230.5 425,-230.5"/>
<text text-anchor="start" x="433" y="-248.5" font-family="Helvetica,sans-Serif" font-size="10.00">RigidTrack::on_btnStartCamera</text>
<text text-anchor="middle" x="501" y="-237.5" font-family="Helvetica,sans-Serif" font-size="10.00">_clicked</text>
</a>
</g>
</g>
<!-- Node128&#45;&gt;Node129 -->
<g id="edge3" class="edge"><title>Node128&#45;&gt;Node129</title>
<path fill="none" stroke="midnightblue" d="M371.424,-245.5C388.139,-245.5 406.84,-245.5 424.692,-245.5"/>
<polygon fill="midnightblue" stroke="midnightblue" points="371.299,-242 361.299,-245.5 371.299,-249 371.299,-242"/>
</g>
<!-- Node131 -->
<g id="node6" class="node"><title>Node131</title>
<g id="a_node6"><a xlink:href="class_rigid_track.html#afb1a4edcacc818db4ec6bb017dd07e0f" target="_top" xlink:title="RigidTrack::on_btnZero\l_clicked">
<polygon fill="white" stroke="black" points="258,-186.5 258,-216.5 374,-216.5 374,-186.5 258,-186.5"/>
<text text-anchor="start" x="266" y="-204.5" font-family="Helvetica,sans-Serif" font-size="10.00">RigidTrack::on_btnZero</text>
<text text-anchor="middle" x="316" y="-193.5" font-family="Helvetica,sans-Serif" font-size="10.00">_clicked</text>
</a>
</g>
</g>
<!-- Node130&#45;&gt;Node131 -->
<g id="edge5" class="edge"><title>Node130&#45;&gt;Node131</title>
<path fill="none" stroke="midnightblue" d="M208.638,-202.195C224.133,-202.094 241.567,-201.98 257.768,-201.874"/>
<polygon fill="midnightblue" stroke="midnightblue" points="208.236,-198.698 198.259,-202.263 208.282,-205.697 208.236,-198.698"/>
</g>
<!-- Node132&#45;&gt;Node132 -->
<g id="edge7" class="edge"><title>Node132&#45;&gt;Node132</title>
<path fill="none" stroke="midnightblue" d="M138.679,-165.529C139.896,-170.628 147.337,-174.5 161,-174.5 182.328,-174.5 188.493,-165.065 179.495,-156.257"/>
<polygon fill="midnightblue" stroke="midnightblue" points="141.926,-166.836 142.505,-156.257 135.455,-164.166 141.926,-166.836"/>
</g>
<!-- Node133 -->
<g id="node8" class="node"><title>Node133</title>
<g id="a_node8"><a xlink:href="class_rigid_track.html#aed2c39da404909142074f7dd2ce75a63" target="_top" xlink:title="RigidTrack::on_btnCalibrate\l_clicked">
<polygon fill="white" stroke="black" points="248,-137.5 248,-167.5 384,-167.5 384,-137.5 248,-137.5"/>
<text text-anchor="start" x="256" y="-155.5" font-family="Helvetica,sans-Serif" font-size="10.00">RigidTrack::on_btnCalibrate</text>
<text text-anchor="middle" x="316" y="-144.5" font-family="Helvetica,sans-Serif" font-size="10.00">_clicked</text>
</a>
</g>
</g>
<!-- Node132&#45;&gt;Node133 -->
<g id="edge8" class="edge"><title>Node132&#45;&gt;Node133</title>
<path fill="none" stroke="midnightblue" d="M214.66,-148.565C225.388,-148.986 236.811,-149.434 247.962,-149.871"/>
<polygon fill="midnightblue" stroke="midnightblue" points="214.749,-145.066 204.619,-148.171 214.474,-152.061 214.749,-145.066"/>
</g>
<!-- Node135 -->
<g id="node10" class="node"><title>Node135</title>
<g id="a_node10"><a xlink:href="supportcode_8cpp.html#a0ddf1224851353fc92bfbff6f499fa97" target="_top" xlink:title="main initialises the GUI and values for the marker position etc ">
<polygon fill="white" stroke="black" points="297,-99 297,-118 335,-118 335,-99 297,-99"/>
<text text-anchor="middle" x="316" y="-106" font-family="Helvetica,sans-Serif" font-size="10.00">main</text>
</a>
</g>
</g>
<!-- Node134&#45;&gt;Node135 -->
<g id="edge10" class="edge"><title>Node134&#45;&gt;Node135</title>
<path fill="none" stroke="midnightblue" d="M211.079,-108.5C240.386,-108.5 275.882,-108.5 296.888,-108.5"/>
<polygon fill="midnightblue" stroke="midnightblue" points="211.004,-105 201.004,-108.5 211.004,-112 211.004,-105"/>
</g>
<!-- Node136 -->
<g id="node11" class="node"><title>Node136</title>
<g id="a_node11"><a xlink:href="class_surface.html#a728571d0386e9690ce1760931562c72b" target="_top" xlink:title="Surface::PutPixel">
<polygon fill="white" stroke="black" points="455,-118 455,-137 547,-137 547,-118 455,-118"/>
<text text-anchor="middle" x="501" y="-125" font-family="Helvetica,sans-Serif" font-size="10.00">Surface::PutPixel</text>
</a>
</g>
</g>
<!-- Node135&#45;&gt;Node136 -->
<g id="edge11" class="edge"><title>Node135&#45;&gt;Node136</title>
<path fill="none" stroke="midnightblue" d="M345.165,-111.424C374.395,-114.459 420.552,-119.251 454.874,-122.815"/>
<polygon fill="midnightblue" stroke="midnightblue" points="345.524,-107.943 335.216,-110.391 344.801,-114.905 345.524,-107.943"/>
</g>
<!-- Node140 -->
<g id="node15" class="node"><title>Node140</title>
<g id="a_node15"><a xlink:href="supportcode_8cpp.html#a661c2abc03926acfaeb93b4ae7db4943" target="_top" xlink:title="/&lt; Window Show State ">
<polygon fill="white" stroke="black" points="473.5,-80 473.5,-99 528.5,-99 528.5,-80 473.5,-80"/>
<text text-anchor="middle" x="501" y="-87" font-family="Helvetica,sans-Serif" font-size="10.00">WinMain</text>
</a>
</g>
</g>
<!-- Node135&#45;&gt;Node140 -->
<g id="edge15" class="edge"><title>Node135&#45;&gt;Node140</title>
<path fill="none" stroke="midnightblue" d="M345.226,-105.569C380.147,-101.944 439.164,-95.8163 473.344,-92.2675"/>
<polygon fill="midnightblue" stroke="midnightblue" points="344.801,-102.095 335.216,-106.609 345.524,-109.057 344.801,-102.095"/>
</g>
<!-- Node137 -->
<g id="node12" class="node"><title>Node137</title>
<g id="a_node12"><a xlink:href="class_surface.html#a377c59f6ef131d4b879cda93578a3efa" target="_top" xlink:title="Surface::SurfaceHeight">
<polygon fill="white" stroke="black" points="613,-118 613,-137 729,-137 729,-118 613,-118"/>
<text text-anchor="middle" x="671" y="-125" font-family="Helvetica,sans-Serif" font-size="10.00">Surface::SurfaceHeight</text>
</a>
</g>
</g>
<!-- Node136&#45;&gt;Node137 -->
<g id="edge12" class="edge"><title>Node136&#45;&gt;Node137</title>
<path fill="none" stroke="midnightblue" d="M557.255,-127.5C575.071,-127.5 594.848,-127.5 612.8,-127.5"/>
<polygon fill="midnightblue" stroke="midnightblue" points="557.021,-124 547.021,-127.5 557.021,-131 557.021,-124"/>
</g>
<!-- Node138 -->
<g id="node13" class="node"><title>Node138</title>
<g id="a_node13"><a xlink:href="supportcode_8h.html#ac43c2dc16b0859b03a4f7d04a7e97d3c" target="_top" xlink:title="DrawGLScene">
<polygon fill="white" stroke="black" points="765,-118 765,-137 844,-137 844,-118 765,-118"/>
<text text-anchor="middle" x="804.5" y="-125" font-family="Helvetica,sans-Serif" font-size="10.00">DrawGLScene</text>
</a>
</g>
</g>
<!-- Node137&#45;&gt;Node138 -->
<g id="edge13" class="edge"><title>Node137&#45;&gt;Node138</title>
<path fill="none" stroke="midnightblue" d="M739.511,-127.5C748.228,-127.5 756.905,-127.5 764.926,-127.5"/>
<polygon fill="midnightblue" stroke="midnightblue" points="739.295,-124 729.295,-127.5 739.295,-131 739.295,-124"/>
</g>
<!-- Node139 -->
<g id="node14" class="node"><title>Node139</title>
<g id="a_node14"><a xlink:href="class_surface.html#abe0d542404575c60911d6ad4219560f9" target="_top" xlink:title="Surface::PixelSpan">
<polygon fill="white" stroke="black" points="880,-118 880,-137 980,-137 980,-118 880,-118"/>
<text text-anchor="middle" x="930" y="-125" font-family="Helvetica,sans-Serif" font-size="10.00">Surface::PixelSpan</text>
</a>
</g>
</g>
<!-- Node138&#45;&gt;Node139 -->
<g id="edge14" class="edge"><title>Node138&#45;&gt;Node139</title>
<path fill="none" stroke="midnightblue" d="M854.309,-127.5C862.74,-127.5 871.508,-127.5 879.946,-127.5"/>
<polygon fill="midnightblue" stroke="midnightblue" points="854.237,-124 844.237,-127.5 854.237,-131 854.237,-124"/>
</g>
<!-- Node141&#45;&gt;Node135 -->
<g id="edge17" class="edge"><title>Node141&#45;&gt;Node135</title>
<path fill="none" stroke="midnightblue" d="M210.688,-82.5924C240.025,-89.8787 275.679,-98.7341 296.791,-103.978"/>
<polygon fill="midnightblue" stroke="midnightblue" points="211.157,-79.1027 200.608,-80.089 209.47,-85.8963 211.157,-79.1027"/>
</g>
<!-- Node142 -->
<g id="node17" class="node"><title>Node142</title>
<g id="a_node17"><a xlink:href="class_rigid_track.html#ad3e07592fbc1491cdc36dd5e817e1775" target="_top" xlink:title="RigidTrack::on_pbLoadMarker\l_clicked">
<polygon fill="white" stroke="black" points="243,-49.5 243,-79.5 389,-79.5 389,-49.5 243,-49.5"/>
<text text-anchor="start" x="251" y="-67.5" font-family="Helvetica,sans-Serif" font-size="10.00">RigidTrack::on_pbLoadMarker</text>
<text text-anchor="middle" x="316" y="-56.5" font-family="Helvetica,sans-Serif" font-size="10.00">_clicked</text>
</a>
</g>
</g>
<!-- Node141&#45;&gt;Node142 -->
<g id="edge18" class="edge"><title>Node141&#45;&gt;Node142</title>
<path fill="none" stroke="midnightblue" d="M217.108,-68.3389C225.508,-68.0095 234.283,-67.6654 242.98,-67.3243"/>
<polygon fill="midnightblue" stroke="midnightblue" points="216.933,-64.843 207.078,-68.7323 217.207,-71.8376 216.933,-64.843"/>
</g>
<!-- Node144 -->
<g id="node19" class="node"><title>Node144</title>
<g id="a_node19"><a xlink:href="class_rigid_track.html#a9a939d6db3d268e75a603cb3d492a91b" target="_top" xlink:title="RigidTrack::on_btnCalibrate\lGround_clicked">
<polygon fill="white" stroke="black" points="248,-0.5 248,-30.5 384,-30.5 384,-0.5 248,-0.5"/>
<text text-anchor="start" x="256" y="-18.5" font-family="Helvetica,sans-Serif" font-size="10.00">RigidTrack::on_btnCalibrate</text>
<text text-anchor="middle" x="316" y="-7.5" font-family="Helvetica,sans-Serif" font-size="10.00">Ground_clicked</text>
</a>
</g>
</g>
<!-- Node143&#45;&gt;Node144 -->
<g id="edge20" class="edge"><title>Node143&#45;&gt;Node144</title>
<path fill="none" stroke="midnightblue" d="M214.002,-21.4411C224.907,-20.7996 236.554,-20.1145 247.92,-19.4459"/>
<polygon fill="midnightblue" stroke="midnightblue" points="213.585,-17.9594 203.808,-22.0407 213.996,-24.9474 213.585,-17.9594"/>
</g>
</g>
</svg>
