<?xml version="1.0" encoding="UTF-8" standalone="no"?>
<!DOCTYPE svg PUBLIC "-//W3C//DTD SVG 1.1//EN"
 "http://www.w3.org/Graphics/SVG/1.1/DTD/svg11.dtd">
<!-- Generated by graphviz version 2.38.0 (20140413.2041)
 -->
<!-- Title: determineOrder Pages: 1 -->
<svg width="338pt" height="104pt"
 viewBox="0.00 0.00 338.00 104.00" xmlns="http://www.w3.org/2000/svg" xmlns:xlink="http://www.w3.org/1999/xlink">
<g id="graph0" class="graph" transform="scale(1 1) rotate(0) translate(4 100)">
<title>determineOrder</title>
<polygon fill="white" stroke="none" points="-4,4 -4,-100 334,-100 334,4 -4,4"/>
<!-- Node18 -->
<g id="node1" class="node"><title>Node18</title>
<polygon fill="#bfbfbf" stroke="black" points="0,-38.5 0,-57.5 83,-57.5 83,-38.5 0,-38.5"/>
<text text-anchor="middle" x="41.5" y="-45.5" font-family="Helvetica,sans-Serif" font-size="10.00">determineOrder</text>
</g>
<!-- Node19 -->
<g id="node2" class="node"><title>Node19</title>
<g id="a_node2"><a xlink:href="main_8h.html#a3d3afd29ce54eb7fc5cc7e74ab666586" target="_top" xlink:title="startTracking">
<polygon fill="white" stroke="black" points="125,-76.5 125,-95.5 198,-95.5 198,-76.5 125,-76.5"/>
<text text-anchor="middle" x="161.5" y="-83.5" font-family="Helvetica,sans-Serif" font-size="10.00">startTracking</text>
</a>
</g>
</g>
<!-- Node18&#45;&gt;Node19 -->
<g id="edge1" class="edge"><title>Node18&#45;&gt;Node19</title>
<path fill="none" stroke="midnightblue" d="M81.8761,-60.6804C97.8198,-65.8148 115.921,-71.6441 130.733,-76.4141"/>
<polygon fill="midnightblue" stroke="midnightblue" points="82.8679,-57.3229 72.2764,-57.589 80.7221,-63.9859 82.8679,-57.3229"/>
</g>
<!-- Node21 -->
<g id="node4" class="node"><title>Node21</title>
<g id="a_node4"><a xlink:href="main_8h.html#a1e6662e0f16887fe97c7bebe05065972" target="_top" xlink:title="setReference">
<polygon fill="white" stroke="black" points="124.5,-38.5 124.5,-57.5 198.5,-57.5 198.5,-38.5 124.5,-38.5"/>
<text text-anchor="middle" x="161.5" y="-45.5" font-family="Helvetica,sans-Serif" font-size="10.00">setReference</text>
</a>
</g>
</g>
<!-- Node18&#45;&gt;Node21 -->
<g id="edge3" class="edge"><title>Node18&#45;&gt;Node21</title>
<path fill="none" stroke="midnightblue" d="M93.3211,-48C103.697,-48 114.417,-48 124.163,-48"/>
<polygon fill="midnightblue" stroke="midnightblue" points="93.1089,-44.5001 83.1089,-48 93.1089,-51.5001 93.1089,-44.5001"/>
</g>
<!-- Node22 -->
<g id="node5" class="node"><title>Node22</title>
<g id="a_node5"><a xlink:href="main_8h.html#a7ad2e3cfb5056dbab2098e0dd3bd353f" target="_top" xlink:title="calibrateGround">
<polygon fill="white" stroke="black" points="119,-0.5 119,-19.5 204,-19.5 204,-0.5 119,-0.5"/>
<text text-anchor="middle" x="161.5" y="-7.5" font-family="Helvetica,sans-Serif" font-size="10.00">calibrateGround</text>
</a>
</g>
</g>
<!-- Node18&#45;&gt;Node22 -->
<g id="edge4" class="edge"><title>Node18&#45;&gt;Node22</title>
<path fill="none" stroke="midnightblue" d="M81.8761,-35.3196C97.8198,-30.1852 115.921,-24.3559 130.733,-19.5859"/>
<polygon fill="midnightblue" stroke="midnightblue" points="80.7221,-32.0141 72.2764,-38.411 82.8679,-38.6771 80.7221,-32.0141"/>
</g>
<!-- Node20 -->
<g id="node3" class="node"><title>Node20</title>
<g id="a_node3"><a xlink:href="main_8h.html#a25183e8d0b386ef12b557efc712a0261" target="_top" xlink:title="Start or stop the tracking depending on if the camera is currently running or not. ">
<polygon fill="white" stroke="black" points="240,-76.5 240,-95.5 330,-95.5 330,-76.5 240,-76.5"/>
<text text-anchor="middle" x="285" y="-83.5" font-family="Helvetica,sans-Serif" font-size="10.00">startStopCamera</text>
</a>
</g>
</g>
<!-- Node19&#45;&gt;Node20 -->
<g id="edge2" class="edge"><title>Node19&#45;&gt;Node20</title>
<path fill="none" stroke="midnightblue" d="M208.361,-86C218.676,-86 229.602,-86 239.846,-86"/>
<polygon fill="midnightblue" stroke="midnightblue" points="208.297,-82.5001 198.297,-86 208.297,-89.5001 208.297,-82.5001"/>
</g>
</g>
</svg>
