<?xml version="1.0" encoding="UTF-8" standalone="no"?>
<!DOCTYPE svg PUBLIC "-//W3C//DTD SVG 1.1//EN"
 "http://www.w3.org/Graphics/SVG/1.1/DTD/svg11.dtd">
<!-- Generated by graphviz version 2.38.0 (20140413.2041)
 -->
<!-- Title: testAlgorithms Pages: 1 -->
<svg width="693pt" height="66pt"
 viewBox="0.00 0.00 693.00 66.00" xmlns="http://www.w3.org/2000/svg" xmlns:xlink="http://www.w3.org/1999/xlink">
<g id="graph0" class="graph" transform="scale(1 1) rotate(0) translate(4 62)">
<title>testAlgorithms</title>
<polygon fill="white" stroke="none" points="-4,4 -4,-62 689,-62 689,4 -4,4"/>
<!-- Node231 -->
<g id="node1" class="node"><title>Node231</title>
<polygon fill="#bfbfbf" stroke="black" points="0,-19.5 0,-38.5 80,-38.5 80,-19.5 0,-19.5"/>
<text text-anchor="middle" x="40" y="-26.5" font-family="Helvetica,sans-Serif" font-size="10.00">testAlgorithms</text>
</g>
<!-- Node232 -->
<g id="node2" class="node"><title>Node232</title>
<g id="a_node2"><a xlink:href="supportcode_8cpp.html#a0ddf1224851353fc92bfbff6f499fa97" target="_top" xlink:title="main initialises the GUI and values for the marker position etc ">
<polygon fill="white" stroke="black" points="116,-19.5 116,-38.5 154,-38.5 154,-19.5 116,-19.5"/>
<text text-anchor="middle" x="135" y="-26.5" font-family="Helvetica,sans-Serif" font-size="10.00">main</text>
</a>
</g>
</g>
<!-- Node231&#45;&gt;Node232 -->
<g id="edge1" class="edge"><title>Node231&#45;&gt;Node232</title>
<path fill="none" stroke="midnightblue" d="M90.3544,-29C99.3846,-29 108.271,-29 115.644,-29"/>
<polygon fill="midnightblue" stroke="midnightblue" points="90.1709,-25.5001 80.1708,-29 90.1708,-32.5001 90.1709,-25.5001"/>
</g>
<!-- Node233 -->
<g id="node3" class="node"><title>Node233</title>
<g id="a_node3"><a xlink:href="class_surface.html#a728571d0386e9690ce1760931562c72b" target="_top" xlink:title="Surface::PutPixel">
<polygon fill="white" stroke="black" points="190,-38.5 190,-57.5 282,-57.5 282,-38.5 190,-38.5"/>
<text text-anchor="middle" x="236" y="-45.5" font-family="Helvetica,sans-Serif" font-size="10.00">Surface::PutPixel</text>
</a>
</g>
</g>
<!-- Node232&#45;&gt;Node233 -->
<g id="edge2" class="edge"><title>Node232&#45;&gt;Node233</title>
<path fill="none" stroke="midnightblue" d="M164.064,-34.3861C172.078,-35.924 181.02,-37.6402 189.782,-39.3219"/>
<polygon fill="midnightblue" stroke="midnightblue" points="164.639,-30.9325 154.158,-32.4849 163.319,-37.807 164.639,-30.9325"/>
</g>
<!-- Node237 -->
<g id="node7" class="node"><title>Node237</title>
<g id="a_node7"><a xlink:href="supportcode_8cpp.html#a661c2abc03926acfaeb93b4ae7db4943" target="_top" xlink:title="/&lt; Window Show State ">
<polygon fill="white" stroke="black" points="208.5,-0.5 208.5,-19.5 263.5,-19.5 263.5,-0.5 208.5,-0.5"/>
<text text-anchor="middle" x="236" y="-7.5" font-family="Helvetica,sans-Serif" font-size="10.00">WinMain</text>
</a>
</g>
</g>
<!-- Node232&#45;&gt;Node237 -->
<g id="edge6" class="edge"><title>Node232&#45;&gt;Node237</title>
<path fill="none" stroke="midnightblue" d="M164.142,-23.5989C178.031,-20.9335 194.695,-17.7354 208.372,-15.1104"/>
<polygon fill="midnightblue" stroke="midnightblue" points="163.319,-20.193 154.158,-25.5151 164.639,-27.0675 163.319,-20.193"/>
</g>
<!-- Node234 -->
<g id="node4" class="node"><title>Node234</title>
<g id="a_node4"><a xlink:href="class_surface.html#a377c59f6ef131d4b879cda93578a3efa" target="_top" xlink:title="Surface::SurfaceHeight">
<polygon fill="white" stroke="black" points="318,-38.5 318,-57.5 434,-57.5 434,-38.5 318,-38.5"/>
<text text-anchor="middle" x="376" y="-45.5" font-family="Helvetica,sans-Serif" font-size="10.00">Surface::SurfaceHeight</text>
</a>
</g>
</g>
<!-- Node233&#45;&gt;Node234 -->
<g id="edge3" class="edge"><title>Node233&#45;&gt;Node234</title>
<path fill="none" stroke="midnightblue" d="M292.212,-48C300.574,-48 309.218,-48 317.625,-48"/>
<polygon fill="midnightblue" stroke="midnightblue" points="292.186,-44.5001 282.186,-48 292.186,-51.5001 292.186,-44.5001"/>
</g>
<!-- Node235 -->
<g id="node5" class="node"><title>Node235</title>
<g id="a_node5"><a xlink:href="supportcode_8h.html#ac43c2dc16b0859b03a4f7d04a7e97d3c" target="_top" xlink:title="DrawGLScene">
<polygon fill="white" stroke="black" points="470,-38.5 470,-57.5 549,-57.5 549,-38.5 470,-38.5"/>
<text text-anchor="middle" x="509.5" y="-45.5" font-family="Helvetica,sans-Serif" font-size="10.00">DrawGLScene</text>
</a>
</g>
</g>
<!-- Node234&#45;&gt;Node235 -->
<g id="edge4" class="edge"><title>Node234&#45;&gt;Node235</title>
<path fill="none" stroke="midnightblue" d="M444.511,-48C453.228,-48 461.905,-48 469.926,-48"/>
<polygon fill="midnightblue" stroke="midnightblue" points="444.295,-44.5001 434.295,-48 444.295,-51.5001 444.295,-44.5001"/>
</g>
<!-- Node236 -->
<g id="node6" class="node"><title>Node236</title>
<g id="a_node6"><a xlink:href="class_surface.html#abe0d542404575c60911d6ad4219560f9" target="_top" xlink:title="Surface::PixelSpan">
<polygon fill="white" stroke="black" points="585,-38.5 585,-57.5 685,-57.5 685,-38.5 585,-38.5"/>
<text text-anchor="middle" x="635" y="-45.5" font-family="Helvetica,sans-Serif" font-size="10.00">Surface::PixelSpan</text>
</a>
</g>
</g>
<!-- Node235&#45;&gt;Node236 -->
<g id="edge5" class="edge"><title>Node235&#45;&gt;Node236</title>
<path fill="none" stroke="midnightblue" d="M559.309,-48C567.74,-48 576.508,-48 584.946,-48"/>
<polygon fill="midnightblue" stroke="midnightblue" points="559.237,-44.5001 549.237,-48 559.237,-51.5001 559.237,-44.5001"/>
</g>
</g>
</svg>
