<?xml version="1.0" encoding="UTF-8" standalone="no"?>
<!DOCTYPE svg PUBLIC "-//W3C//DTD SVG 1.1//EN"
 "http://www.w3.org/Graphics/SVG/1.1/DTD/svg11.dtd">
<!-- Generated by graphviz version 2.38.0 (20140413.2041)
 -->
<!-- Title: calibrateGround Pages: 1 -->
<svg width="249pt" height="180pt"
 viewBox="0.00 0.00 249.00 180.00" xmlns="http://www.w3.org/2000/svg" xmlns:xlink="http://www.w3.org/1999/xlink">
<g id="graph0" class="graph" transform="scale(1 1) rotate(0) translate(4 176)">
<title>calibrateGround</title>
<polygon fill="white" stroke="none" points="-4,4 -4,-176 245,-176 245,4 -4,4"/>
<!-- Node0 -->
<g id="node1" class="node"><title>Node0</title>
<polygon fill="#bfbfbf" stroke="black" points="0,-76.5 0,-95.5 85,-95.5 85,-76.5 0,-76.5"/>
<text text-anchor="middle" x="42.5" y="-83.5" font-family="Helvetica,sans-Serif" font-size="10.00">calibrateGround</text>
</g>
<!-- Node1 -->
<g id="node2" class="node"><title>Node1</title>
<g id="a_node2"><a xlink:href="main_8cpp.html#a0416912fce6274568e80019b10ba294f" target="_top" xlink:title="determineExposure">
<polygon fill="white" stroke="black" points="130.5,-152.5 130.5,-171.5 231.5,-171.5 231.5,-152.5 130.5,-152.5"/>
<text text-anchor="middle" x="181" y="-159.5" font-family="Helvetica,sans-Serif" font-size="10.00">determineExposure</text>
</a>
</g>
</g>
<!-- Node0&#45;&gt;Node1 -->
<g id="edge1" class="edge"><title>Node0&#45;&gt;Node1</title>
<path fill="none" stroke="midnightblue" d="M54.2969,-95.7243C68.6221,-108.189 95.1271,-129.765 121,-143 125.266,-145.182 129.834,-147.18 134.468,-148.992"/>
<polygon fill="midnightblue" stroke="midnightblue" points="133.406,-152.33 144,-152.449 135.793,-145.75 133.406,-152.33"/>
</g>
<!-- Node2 -->
<g id="node3" class="node"><title>Node2</title>
<g id="a_node3"><a xlink:href="main_8cpp.html#a11ff459289305229597defd39f510959" target="_top" xlink:title="determineOrder">
<polygon fill="white" stroke="black" points="139.5,-114.5 139.5,-133.5 222.5,-133.5 222.5,-114.5 139.5,-114.5"/>
<text text-anchor="middle" x="181" y="-121.5" font-family="Helvetica,sans-Serif" font-size="10.00">determineOrder</text>
</a>
</g>
</g>
<!-- Node0&#45;&gt;Node2 -->
<g id="edge2" class="edge"><title>Node0&#45;&gt;Node2</title>
<path fill="none" stroke="midnightblue" d="M77.9447,-95.589C95.4847,-100.472 117.01,-106.464 135.763,-111.685"/>
<polygon fill="midnightblue" stroke="midnightblue" points="134.994,-115.104 145.566,-114.414 136.871,-108.36 134.994,-115.104"/>
</g>
<!-- Node3 -->
<g id="node4" class="node"><title>Node3</title>
<g id="a_node4"><a xlink:href="main_8cpp.html#a2104a5d9d6b9f1e29bc4cd858c59882e" target="_top" xlink:title="projectCoordinateFrame">
<polygon fill="white" stroke="black" points="121,-76.5 121,-95.5 241,-95.5 241,-76.5 121,-76.5"/>
<text text-anchor="middle" x="181" y="-83.5" font-family="Helvetica,sans-Serif" font-size="10.00">projectCoordinateFrame</text>
</a>
</g>
</g>
<!-- Node0&#45;&gt;Node3 -->
<g id="edge3" class="edge"><title>Node0&#45;&gt;Node3</title>
<path fill="none" stroke="midnightblue" d="M85.1962,-86C93.3109,-86 102.019,-86 110.749,-86"/>
<polygon fill="midnightblue" stroke="midnightblue" points="110.973,-89.5001 120.973,-86 110.973,-82.5001 110.973,-89.5001"/>
</g>
<!-- Node4 -->
<g id="node5" class="node"><title>Node4</title>
<g id="a_node5"><a xlink:href="main_8cpp.html#a3e3cc959a7ab6f93ea52863d86373ce5" target="_top" xlink:title="Mat2QPixmap">
<polygon fill="white" stroke="black" points="141.5,-38.5 141.5,-57.5 220.5,-57.5 220.5,-38.5 141.5,-38.5"/>
<text text-anchor="middle" x="181" y="-45.5" font-family="Helvetica,sans-Serif" font-size="10.00">Mat2QPixmap</text>
</a>
</g>
</g>
<!-- Node0&#45;&gt;Node4 -->
<g id="edge4" class="edge"><title>Node0&#45;&gt;Node4</title>
<path fill="none" stroke="midnightblue" d="M77.9447,-76.411C95.4847,-71.5281 117.01,-65.5357 135.763,-60.315"/>
<polygon fill="midnightblue" stroke="midnightblue" points="136.871,-63.6397 145.566,-57.5859 134.994,-56.8961 136.871,-63.6397"/>
</g>
<!-- Node5 -->
<g id="node6" class="node"><title>Node5</title>
<g id="a_node6"><a xlink:href="main_8cpp.html#ab2b71933055cf32cc8e5e2100fd7723f" target="_top" xlink:title="getEulerAngles">
<polygon fill="white" stroke="black" points="139.5,-0.5 139.5,-19.5 222.5,-19.5 222.5,-0.5 139.5,-0.5"/>
<text text-anchor="middle" x="181" y="-7.5" font-family="Helvetica,sans-Serif" font-size="10.00">getEulerAngles</text>
</a>
</g>
</g>
<!-- Node0&#45;&gt;Node5 -->
<g id="edge5" class="edge"><title>Node0&#45;&gt;Node5</title>
<path fill="none" stroke="midnightblue" d="M54.2969,-76.2757C68.6221,-63.8115 95.1271,-42.2353 121,-29 125.266,-26.8176 129.834,-24.8195 134.468,-23.0077"/>
<polygon fill="midnightblue" stroke="midnightblue" points="135.793,-26.2505 144,-19.5509 133.406,-19.6698 135.793,-26.2505"/>
</g>
</g>
</svg>
