<?xml version="1.0" encoding="UTF-8" standalone="no"?>
<!DOCTYPE svg PUBLIC "-//W3C//DTD SVG 1.1//EN"
 "http://www.w3.org/Graphics/SVG/1.1/DTD/svg11.dtd">
<!-- Generated by graphviz version 2.38.0 (20140413.2041)
 -->
<!-- Title: drawPositionText Pages: 1 -->
<svg width="958pt" height="141pt"
 viewBox="0.00 0.00 958.00 140.50" xmlns="http://www.w3.org/2000/svg" xmlns:xlink="http://www.w3.org/1999/xlink">
<g id="graph0" class="graph" transform="scale(1 1) rotate(0) translate(4 136.5)">
<title>drawPositionText</title>
<polygon fill="white" stroke="none" points="-4,4 -4,-136.5 954,-136.5 954,4 -4,4"/>
<!-- Node48 -->
<g id="node1" class="node"><title>Node48</title>
<polygon fill="#bfbfbf" stroke="black" points="0,-63.5 0,-82.5 91,-82.5 91,-63.5 0,-63.5"/>
<text text-anchor="middle" x="45.5" y="-70.5" font-family="Helvetica,sans-Serif" font-size="10.00">drawPositionText</text>
</g>
<!-- Node49 -->
<g id="node2" class="node"><title>Node49</title>
<g id="a_node2"><a xlink:href="main_8h.html#a3d3afd29ce54eb7fc5cc7e74ab666586" target="_top" xlink:title="startTracking">
<polygon fill="white" stroke="black" points="130.5,-104.5 130.5,-123.5 203.5,-123.5 203.5,-104.5 130.5,-104.5"/>
<text text-anchor="middle" x="167" y="-111.5" font-family="Helvetica,sans-Serif" font-size="10.00">startTracking</text>
</a>
</g>
</g>
<!-- Node48&#45;&gt;Node49 -->
<g id="edge1" class="edge"><title>Node48&#45;&gt;Node49</title>
<path fill="none" stroke="midnightblue" d="M84.0995,-85.9002C101.555,-91.8893 121.95,-98.8865 138.02,-104.4"/>
<polygon fill="midnightblue" stroke="midnightblue" points="84.8107,-82.444 74.2161,-82.5093 82.539,-89.0652 84.8107,-82.444"/>
</g>
<!-- Node52 -->
<g id="node5" class="node"><title>Node52</title>
<g id="a_node5"><a xlink:href="main_8h.html#a1e6662e0f16887fe97c7bebe05065972" target="_top" xlink:title="setReference">
<polygon fill="white" stroke="black" points="130,-63.5 130,-82.5 204,-82.5 204,-63.5 130,-63.5"/>
<text text-anchor="middle" x="167" y="-70.5" font-family="Helvetica,sans-Serif" font-size="10.00">setReference</text>
</a>
</g>
</g>
<!-- Node48&#45;&gt;Node52 -->
<g id="edge4" class="edge"><title>Node48&#45;&gt;Node52</title>
<path fill="none" stroke="midnightblue" d="M101.627,-73C111.211,-73 120.954,-73 129.862,-73"/>
<polygon fill="midnightblue" stroke="midnightblue" points="101.337,-69.5001 91.3374,-73 101.337,-76.5001 101.337,-69.5001"/>
</g>
<!-- Node54 -->
<g id="node7" class="node"><title>Node54</title>
<g id="a_node7"><a xlink:href="main_8h.html#a847c0fbd3e513fb76ff145b31a9f5c37" target="_top" xlink:title="testAlgorithms">
<polygon fill="white" stroke="black" points="127,-22.5 127,-41.5 207,-41.5 207,-22.5 127,-22.5"/>
<text text-anchor="middle" x="167" y="-29.5" font-family="Helvetica,sans-Serif" font-size="10.00">testAlgorithms</text>
</a>
</g>
</g>
<!-- Node48&#45;&gt;Node54 -->
<g id="edge6" class="edge"><title>Node48&#45;&gt;Node54</title>
<path fill="none" stroke="midnightblue" d="M84.0995,-60.0998C101.555,-54.1107 121.95,-47.1135 138.02,-41.5997"/>
<polygon fill="midnightblue" stroke="midnightblue" points="82.539,-56.9348 74.2161,-63.4907 84.8107,-63.556 82.539,-56.9348"/>
</g>
<!-- Node50 -->
<g id="node3" class="node"><title>Node50</title>
<g id="a_node3"><a xlink:href="main_8h.html#a25183e8d0b386ef12b557efc712a0261" target="_top" xlink:title="Start or stop the tracking depending on if the camera is currently running or not. ">
<polygon fill="white" stroke="black" points="256,-107.5 256,-126.5 346,-126.5 346,-107.5 256,-107.5"/>
<text text-anchor="middle" x="301" y="-114.5" font-family="Helvetica,sans-Serif" font-size="10.00">startStopCamera</text>
</a>
</g>
</g>
<!-- Node49&#45;&gt;Node50 -->
<g id="edge2" class="edge"><title>Node49&#45;&gt;Node50</title>
<path fill="none" stroke="midnightblue" d="M213.825,-115.041C227.417,-115.35 242.271,-115.688 255.761,-115.995"/>
<polygon fill="midnightblue" stroke="midnightblue" points="213.798,-111.54 203.721,-114.812 213.639,-118.538 213.798,-111.54"/>
</g>
<!-- Node51 -->
<g id="node4" class="node"><title>Node51</title>
<g id="a_node4"><a xlink:href="class_rigid_track.html#a2f226856e28868c8bb1854fa16531f60" target="_top" xlink:title="RigidTrack::on_btnStartCamera\l_clicked">
<polygon fill="white" stroke="black" points="395,-102 395,-132 547,-132 547,-102 395,-102"/>
<text text-anchor="start" x="403" y="-120" font-family="Helvetica,sans-Serif" font-size="10.00">RigidTrack::on_btnStartCamera</text>
<text text-anchor="middle" x="471" y="-109" font-family="Helvetica,sans-Serif" font-size="10.00">_clicked</text>
</a>
</g>
</g>
<!-- Node50&#45;&gt;Node51 -->
<g id="edge3" class="edge"><title>Node50&#45;&gt;Node51</title>
<path fill="none" stroke="midnightblue" d="M356.253,-117C368.601,-117 381.934,-117 394.975,-117"/>
<polygon fill="midnightblue" stroke="midnightblue" points="356.14,-113.5 346.14,-117 356.14,-120.5 356.14,-113.5"/>
</g>
<!-- Node53 -->
<g id="node6" class="node"><title>Node53</title>
<g id="a_node6"><a xlink:href="class_rigid_track.html#afb1a4edcacc818db4ec6bb017dd07e0f" target="_top" xlink:title="RigidTrack::on_btnZero\l_clicked">
<polygon fill="white" stroke="black" points="243,-58 243,-88 359,-88 359,-58 243,-58"/>
<text text-anchor="start" x="251" y="-76" font-family="Helvetica,sans-Serif" font-size="10.00">RigidTrack::on_btnZero</text>
<text text-anchor="middle" x="301" y="-65" font-family="Helvetica,sans-Serif" font-size="10.00">_clicked</text>
</a>
</g>
</g>
<!-- Node52&#45;&gt;Node53 -->
<g id="edge5" class="edge"><title>Node52&#45;&gt;Node53</title>
<path fill="none" stroke="midnightblue" d="M214.231,-73C223.485,-73 233.311,-73 242.883,-73"/>
<polygon fill="midnightblue" stroke="midnightblue" points="214.07,-69.5001 204.07,-73 214.07,-76.5001 214.07,-69.5001"/>
</g>
<!-- Node55 -->
<g id="node8" class="node"><title>Node55</title>
<g id="a_node8"><a xlink:href="supportcode_8cpp.html#a0ddf1224851353fc92bfbff6f499fa97" target="_top" xlink:title="main initialises the GUI and values for the marker position etc ">
<polygon fill="white" stroke="black" points="282,-19.5 282,-38.5 320,-38.5 320,-19.5 282,-19.5"/>
<text text-anchor="middle" x="301" y="-26.5" font-family="Helvetica,sans-Serif" font-size="10.00">main</text>
</a>
</g>
</g>
<!-- Node54&#45;&gt;Node55 -->
<g id="edge7" class="edge"><title>Node54&#45;&gt;Node55</title>
<path fill="none" stroke="midnightblue" d="M217.397,-30.8773C240.004,-30.3635 265.391,-29.7866 281.98,-29.4095"/>
<polygon fill="midnightblue" stroke="midnightblue" points="217.165,-27.3816 207.247,-31.108 217.324,-34.3798 217.165,-27.3816"/>
</g>
<!-- Node56 -->
<g id="node9" class="node"><title>Node56</title>
<g id="a_node9"><a xlink:href="class_surface.html#a728571d0386e9690ce1760931562c72b" target="_top" xlink:title="Surface::PutPixel">
<polygon fill="white" stroke="black" points="425,-38.5 425,-57.5 517,-57.5 517,-38.5 425,-38.5"/>
<text text-anchor="middle" x="471" y="-45.5" font-family="Helvetica,sans-Serif" font-size="10.00">Surface::PutPixel</text>
</a>
</g>
</g>
<!-- Node55&#45;&gt;Node56 -->
<g id="edge8" class="edge"><title>Node55&#45;&gt;Node56</title>
<path fill="none" stroke="midnightblue" d="M330.542,-32.228C356.398,-35.1522 394.928,-39.5097 424.94,-42.904"/>
<polygon fill="midnightblue" stroke="midnightblue" points="330.629,-28.7155 320.299,-31.0695 329.842,-35.6712 330.629,-28.7155"/>
</g>
<!-- Node60 -->
<g id="node13" class="node"><title>Node60</title>
<g id="a_node13"><a xlink:href="supportcode_8cpp.html#a661c2abc03926acfaeb93b4ae7db4943" target="_top" xlink:title="/&lt; Window Show State ">
<polygon fill="white" stroke="black" points="443.5,-0.5 443.5,-19.5 498.5,-19.5 498.5,-0.5 443.5,-0.5"/>
<text text-anchor="middle" x="471" y="-7.5" font-family="Helvetica,sans-Serif" font-size="10.00">WinMain</text>
</a>
</g>
</g>
<!-- Node55&#45;&gt;Node60 -->
<g id="edge12" class="edge"><title>Node55&#45;&gt;Node60</title>
<path fill="none" stroke="midnightblue" d="M330.63,-25.7621C362.24,-22.1871 412.715,-16.4786 443.462,-13.0013"/>
<polygon fill="midnightblue" stroke="midnightblue" points="329.842,-22.3288 320.299,-26.9305 330.629,-29.2845 329.842,-22.3288"/>
</g>
<!-- Node57 -->
<g id="node10" class="node"><title>Node57</title>
<g id="a_node10"><a xlink:href="class_surface.html#a377c59f6ef131d4b879cda93578a3efa" target="_top" xlink:title="Surface::SurfaceHeight">
<polygon fill="white" stroke="black" points="583,-38.5 583,-57.5 699,-57.5 699,-38.5 583,-38.5"/>
<text text-anchor="middle" x="641" y="-45.5" font-family="Helvetica,sans-Serif" font-size="10.00">Surface::SurfaceHeight</text>
</a>
</g>
</g>
<!-- Node56&#45;&gt;Node57 -->
<g id="edge9" class="edge"><title>Node56&#45;&gt;Node57</title>
<path fill="none" stroke="midnightblue" d="M527.255,-48C545.071,-48 564.848,-48 582.8,-48"/>
<polygon fill="midnightblue" stroke="midnightblue" points="527.021,-44.5001 517.021,-48 527.021,-51.5001 527.021,-44.5001"/>
</g>
<!-- Node58 -->
<g id="node11" class="node"><title>Node58</title>
<g id="a_node11"><a xlink:href="supportcode_8h.html#ac43c2dc16b0859b03a4f7d04a7e97d3c" target="_top" xlink:title="DrawGLScene">
<polygon fill="white" stroke="black" points="735,-38.5 735,-57.5 814,-57.5 814,-38.5 735,-38.5"/>
<text text-anchor="middle" x="774.5" y="-45.5" font-family="Helvetica,sans-Serif" font-size="10.00">DrawGLScene</text>
</a>
</g>
</g>
<!-- Node57&#45;&gt;Node58 -->
<g id="edge10" class="edge"><title>Node57&#45;&gt;Node58</title>
<path fill="none" stroke="midnightblue" d="M709.511,-48C718.228,-48 726.905,-48 734.926,-48"/>
<polygon fill="midnightblue" stroke="midnightblue" points="709.295,-44.5001 699.295,-48 709.295,-51.5001 709.295,-44.5001"/>
</g>
<!-- Node59 -->
<g id="node12" class="node"><title>Node59</title>
<g id="a_node12"><a xlink:href="class_surface.html#abe0d542404575c60911d6ad4219560f9" target="_top" xlink:title="Surface::PixelSpan">
<polygon fill="white" stroke="black" points="850,-38.5 850,-57.5 950,-57.5 950,-38.5 850,-38.5"/>
<text text-anchor="middle" x="900" y="-45.5" font-family="Helvetica,sans-Serif" font-size="10.00">Surface::PixelSpan</text>
</a>
</g>
</g>
<!-- Node58&#45;&gt;Node59 -->
<g id="edge11" class="edge"><title>Node58&#45;&gt;Node59</title>
<path fill="none" stroke="midnightblue" d="M824.309,-48C832.74,-48 841.508,-48 849.946,-48"/>
<polygon fill="midnightblue" stroke="midnightblue" points="824.237,-44.5001 814.237,-48 824.237,-51.5001 824.237,-44.5001"/>
</g>
</g>
</svg>
