<?xml version="1.0" encoding="UTF-8" standalone="no"?>
<!DOCTYPE svg PUBLIC "-//W3C//DTD SVG 1.1//EN"
 "http://www.w3.org/Graphics/SVG/1.1/DTD/svg11.dtd">
<!-- Generated by graphviz version 2.38.0 (20140413.2041)
 -->
<!-- Title: calibrateCamera Pages: 1 -->
<svg width="267pt" height="52pt"
 viewBox="0.00 0.00 267.00 51.50" xmlns="http://www.w3.org/2000/svg" xmlns:xlink="http://www.w3.org/1999/xlink">
<g id="graph0" class="graph" transform="scale(1 1) rotate(0) translate(4 47.5)">
<title>calibrateCamera</title>
<polygon fill="white" stroke="none" points="-4,4 -4,-47.5 263,-47.5 263,4 -4,4"/>
<!-- Node8 -->
<g id="node1" class="node"><title>Node8</title>
<polygon fill="#bfbfbf" stroke="black" points="0,-6 0,-25 87,-25 87,-6 0,-6"/>
<text text-anchor="middle" x="43.5" y="-13" font-family="Helvetica,sans-Serif" font-size="10.00">calibrateCamera</text>
</g>
<!-- Node8&#45;&gt;Node8 -->
<g id="edge1" class="edge"><title>Node8&#45;&gt;Node8</title>
<path fill="none" stroke="midnightblue" d="M16.2475,-34.1539C17.3867,-39.4368 26.4708,-43.5 43.5,-43.5 69.4492,-43.5 76.9502,-34.0653 66.0028,-25.2571"/>
<polygon fill="midnightblue" stroke="midnightblue" points="19.3752,-35.727 20.9972,-25.2571 13.2001,-32.4303 19.3752,-35.727"/>
</g>
<!-- Node9 -->
<g id="node2" class="node"><title>Node9</title>
<g id="a_node2"><a xlink:href="class_rigid_track.html#aed2c39da404909142074f7dd2ce75a63" target="_top" xlink:title="RigidTrack::on_btnCalibrate\l_clicked">
<polygon fill="white" stroke="black" points="123,-0.5 123,-30.5 259,-30.5 259,-0.5 123,-0.5"/>
<text text-anchor="start" x="131" y="-18.5" font-family="Helvetica,sans-Serif" font-size="10.00">RigidTrack::on_btnCalibrate</text>
<text text-anchor="middle" x="191" y="-7.5" font-family="Helvetica,sans-Serif" font-size="10.00">_clicked</text>
</a>
</g>
</g>
<!-- Node8&#45;&gt;Node9 -->
<g id="edge2" class="edge"><title>Node8&#45;&gt;Node9</title>
<path fill="none" stroke="midnightblue" d="M97.5618,-15.5C105.791,-15.5 114.383,-15.5 122.873,-15.5"/>
<polygon fill="midnightblue" stroke="midnightblue" points="97.3679,-12.0001 87.3678,-15.5 97.3678,-19.0001 97.3679,-12.0001"/>
</g>
</g>
</svg>
