<?xml version="1.0" encoding="UTF-8" standalone="no"?>
<!DOCTYPE svg PUBLIC "-//W3C//DTD SVG 1.1//EN"
 "http://www.w3.org/Graphics/SVG/1.1/DTD/svg11.dtd">
<!-- Generated by graphviz version 2.38.0 (20140413.2041)
 -->
<!-- Title: sendDataUDP Pages: 1 -->
<svg width="321pt" height="28pt"
 viewBox="0.00 0.00 321.00 28.00" xmlns="http://www.w3.org/2000/svg" xmlns:xlink="http://www.w3.org/1999/xlink">
<g id="graph0" class="graph" transform="scale(1 1) rotate(0) translate(4 24)">
<title>sendDataUDP</title>
<polygon fill="white" stroke="none" points="-4,4 -4,-24 317,-24 317,4 -4,4"/>
<!-- Node51 -->
<g id="node1" class="node"><title>Node51</title>
<polygon fill="#bfbfbf" stroke="black" points="0,-0.5 0,-19.5 78,-19.5 78,-0.5 0,-0.5"/>
<text text-anchor="middle" x="39" y="-7.5" font-family="Helvetica,sans-Serif" font-size="10.00">sendDataUDP</text>
</g>
<!-- Node52 -->
<g id="node2" class="node"><title>Node52</title>
<g id="a_node2"><a xlink:href="main_8h.html#a3d3afd29ce54eb7fc5cc7e74ab666586" target="_top" xlink:title="startTracking">
<polygon fill="white" stroke="black" points="114,-0.5 114,-19.5 187,-19.5 187,-0.5 114,-0.5"/>
<text text-anchor="middle" x="150.5" y="-7.5" font-family="Helvetica,sans-Serif" font-size="10.00">startTracking</text>
</a>
</g>
</g>
<!-- Node51&#45;&gt;Node52 -->
<g id="edge1" class="edge"><title>Node51&#45;&gt;Node52</title>
<path fill="none" stroke="midnightblue" d="M88.5675,-10C97.1163,-10 105.869,-10 113.977,-10"/>
<polygon fill="midnightblue" stroke="midnightblue" points="88.2978,-6.5001 78.2978,-10 88.2978,-13.5001 88.2978,-6.5001"/>
</g>
<!-- Node53 -->
<g id="node3" class="node"><title>Node53</title>
<g id="a_node3"><a xlink:href="main_8h.html#a25183e8d0b386ef12b557efc712a0261" target="_top" xlink:title="Start or stop the tracking depending on if the camera is currently running or not. ">
<polygon fill="white" stroke="black" points="223,-0.5 223,-19.5 313,-19.5 313,-0.5 223,-0.5"/>
<text text-anchor="middle" x="268" y="-7.5" font-family="Helvetica,sans-Serif" font-size="10.00">startStopCamera</text>
</a>
</g>
</g>
<!-- Node52&#45;&gt;Node53 -->
<g id="edge2" class="edge"><title>Node52&#45;&gt;Node53</title>
<path fill="none" stroke="midnightblue" d="M197.149,-10C205.579,-10 214.369,-10 222.756,-10"/>
<polygon fill="midnightblue" stroke="midnightblue" points="197.096,-6.5001 187.096,-10 197.096,-13.5001 197.096,-6.5001"/>
</g>
</g>
</svg>
