<?xml version="1.0" encoding="UTF-8" standalone="no"?>
<!DOCTYPE svg PUBLIC "-//W3C//DTD SVG 1.1//EN"
 "http://www.w3.org/Graphics/SVG/1.1/DTD/svg11.dtd">
<!-- Generated by graphviz version 2.38.0 (20140413.2041)
 -->
<!-- Title: calcBoardCornerPositions Pages: 1 -->
<svg width="260pt" height="46pt"
 viewBox="0.00 0.00 260.00 46.00" xmlns="http://www.w3.org/2000/svg" xmlns:xlink="http://www.w3.org/1999/xlink">
<g id="graph0" class="graph" transform="scale(1 1) rotate(0) translate(4 42)">
<title>calcBoardCornerPositions</title>
<polygon fill="white" stroke="none" points="-4,4 -4,-42 256,-42 256,4 -4,4"/>
<!-- Node1 -->
<g id="node1" class="node"><title>Node1</title>
<polygon fill="#bfbfbf" stroke="black" points="0,-0.5 0,-19.5 129,-19.5 129,-0.5 0,-0.5"/>
<text text-anchor="middle" x="64.5" y="-7.5" font-family="Helvetica,sans-Serif" font-size="10.00">calcBoardCornerPositions</text>
</g>
<!-- Node2 -->
<g id="node2" class="node"><title>Node2</title>
<g id="a_node2"><a xlink:href="main_8h.html#a5f7c5996cd5a271d0277e0741f73a5b4" target="_top" xlink:title="Start the camera calibration routine that computes the camera matrix and distortion coefficients...">
<polygon fill="white" stroke="black" points="165,-0.5 165,-19.5 252,-19.5 252,-0.5 165,-0.5"/>
<text text-anchor="middle" x="208.5" y="-7.5" font-family="Helvetica,sans-Serif" font-size="10.00">calibrateCamera</text>
</a>
</g>
</g>
<!-- Node1&#45;&gt;Node2 -->
<g id="edge1" class="edge"><title>Node1&#45;&gt;Node2</title>
<path fill="none" stroke="midnightblue" d="M139.28,-10C148.022,-10 156.707,-10 164.805,-10"/>
<polygon fill="midnightblue" stroke="midnightblue" points="139.024,-6.5001 129.024,-10 139.024,-13.5001 139.024,-6.5001"/>
</g>
<!-- Node2&#45;&gt;Node2 -->
<g id="edge2" class="edge"><title>Node2&#45;&gt;Node2</title>
<path fill="none" stroke="midnightblue" d="M181.621,-28.6539C182.744,-33.9368 191.704,-38 208.5,-38 234.094,-38 241.492,-28.5653 230.695,-19.7571"/>
<polygon fill="midnightblue" stroke="midnightblue" points="184.743,-30.2361 186.305,-19.7571 178.549,-26.9747 184.743,-30.2361"/>
</g>
</g>
</svg>
