<?xml version="1.0" encoding="UTF-8" standalone="no"?>
<!DOCTYPE svg PUBLIC "-//W3C//DTD SVG 1.1//EN"
 "http://www.w3.org/Graphics/SVG/1.1/DTD/svg11.dtd">
<!-- Generated by graphviz version 2.38.0 (20140413.2041)
 -->
<!-- Title: getEulerAngles Pages: 1 -->
<svg width="572pt" height="132pt"
 viewBox="0.00 0.00 572.00 132.00" xmlns="http://www.w3.org/2000/svg" xmlns:xlink="http://www.w3.org/1999/xlink">
<g id="graph0" class="graph" transform="scale(1 1) rotate(0) translate(4 128)">
<title>getEulerAngles</title>
<polygon fill="white" stroke="none" points="-4,4 -4,-128 568,-128 568,4 -4,4"/>
<!-- Node66 -->
<g id="node1" class="node"><title>Node66</title>
<polygon fill="#bfbfbf" stroke="black" points="0,-55 0,-74 83,-74 83,-55 0,-55"/>
<text text-anchor="middle" x="41.5" y="-62" font-family="Helvetica,sans-Serif" font-size="10.00">getEulerAngles</text>
</g>
<!-- Node67 -->
<g id="node2" class="node"><title>Node67</title>
<g id="a_node2"><a xlink:href="main_8h.html#a3d3afd29ce54eb7fc5cc7e74ab666586" target="_top" xlink:title="startTracking">
<polygon fill="white" stroke="black" points="125,-96 125,-115 198,-115 198,-96 125,-96"/>
<text text-anchor="middle" x="161.5" y="-103" font-family="Helvetica,sans-Serif" font-size="10.00">startTracking</text>
</a>
</g>
</g>
<!-- Node66&#45;&gt;Node67 -->
<g id="edge1" class="edge"><title>Node66&#45;&gt;Node67</title>
<path fill="none" stroke="midnightblue" d="M79.6275,-77.4002C96.8644,-83.3893 117.003,-90.3865 132.871,-95.9003"/>
<polygon fill="midnightblue" stroke="midnightblue" points="80.463,-73.9853 69.8682,-74.0093 78.1655,-80.5976 80.463,-73.9853"/>
</g>
<!-- Node70 -->
<g id="node5" class="node"><title>Node70</title>
<g id="a_node5"><a xlink:href="main_8h.html#a1e6662e0f16887fe97c7bebe05065972" target="_top" xlink:title="setReference">
<polygon fill="white" stroke="black" points="124.5,-55 124.5,-74 198.5,-74 198.5,-55 124.5,-55"/>
<text text-anchor="middle" x="161.5" y="-62" font-family="Helvetica,sans-Serif" font-size="10.00">setReference</text>
</a>
</g>
</g>
<!-- Node66&#45;&gt;Node70 -->
<g id="edge4" class="edge"><title>Node66&#45;&gt;Node70</title>
<path fill="none" stroke="midnightblue" d="M93.3211,-64.5C103.697,-64.5 114.417,-64.5 124.163,-64.5"/>
<polygon fill="midnightblue" stroke="midnightblue" points="93.1089,-61.0001 83.1089,-64.5 93.1089,-68.0001 93.1089,-61.0001"/>
</g>
<!-- Node72 -->
<g id="node7" class="node"><title>Node72</title>
<g id="a_node7"><a xlink:href="main_8h.html#a7ad2e3cfb5056dbab2098e0dd3bd353f" target="_top" xlink:title="calibrateGround">
<polygon fill="white" stroke="black" points="119,-12 119,-31 204,-31 204,-12 119,-12"/>
<text text-anchor="middle" x="161.5" y="-19" font-family="Helvetica,sans-Serif" font-size="10.00">calibrateGround</text>
</a>
</g>
</g>
<!-- Node66&#45;&gt;Node72 -->
<g id="edge6" class="edge"><title>Node66&#45;&gt;Node72</title>
<path fill="none" stroke="midnightblue" d="M78.3168,-51.4481C96.3843,-44.8642 117.901,-37.0234 134.385,-31.0164"/>
<polygon fill="midnightblue" stroke="midnightblue" points="76.8853,-48.2446 68.688,-54.9569 79.282,-54.8215 76.8853,-48.2446"/>
</g>
<!-- Node68 -->
<g id="node3" class="node"><title>Node68</title>
<g id="a_node3"><a xlink:href="main_8h.html#a25183e8d0b386ef12b557efc712a0261" target="_top" xlink:title="Start or stop the tracking depending on if the camera is currently running or not. ">
<polygon fill="white" stroke="black" points="263,-99 263,-118 353,-118 353,-99 263,-99"/>
<text text-anchor="middle" x="308" y="-106" font-family="Helvetica,sans-Serif" font-size="10.00">startStopCamera</text>
</a>
</g>
</g>
<!-- Node67&#45;&gt;Node68 -->
<g id="edge2" class="edge"><title>Node67&#45;&gt;Node68</title>
<path fill="none" stroke="midnightblue" d="M208.689,-106.459C226.056,-106.819 245.742,-107.228 262.912,-107.585"/>
<polygon fill="midnightblue" stroke="midnightblue" points="208.29,-102.95 198.219,-106.242 208.144,-109.948 208.29,-102.95"/>
</g>
<!-- Node69 -->
<g id="node4" class="node"><title>Node69</title>
<g id="a_node4"><a xlink:href="class_rigid_track.html#a2f226856e28868c8bb1854fa16531f60" target="_top" xlink:title="RigidTrack::on_btnStartCamera\l_clicked">
<polygon fill="white" stroke="black" points="412,-93.5 412,-123.5 564,-123.5 564,-93.5 412,-93.5"/>
<text text-anchor="start" x="420" y="-111.5" font-family="Helvetica,sans-Serif" font-size="10.00">RigidTrack::on_btnStartCamera</text>
<text text-anchor="middle" x="488" y="-100.5" font-family="Helvetica,sans-Serif" font-size="10.00">_clicked</text>
</a>
</g>
</g>
<!-- Node68&#45;&gt;Node69 -->
<g id="edge3" class="edge"><title>Node68&#45;&gt;Node69</title>
<path fill="none" stroke="midnightblue" d="M363.335,-108.5C378.679,-108.5 395.652,-108.5 411.982,-108.5"/>
<polygon fill="midnightblue" stroke="midnightblue" points="363,-105 353,-108.5 363,-112 363,-105"/>
</g>
<!-- Node71 -->
<g id="node6" class="node"><title>Node71</title>
<g id="a_node6"><a xlink:href="class_rigid_track.html#afb1a4edcacc818db4ec6bb017dd07e0f" target="_top" xlink:title="RigidTrack::on_btnZero\l_clicked">
<polygon fill="white" stroke="black" points="250,-49.5 250,-79.5 366,-79.5 366,-49.5 250,-49.5"/>
<text text-anchor="start" x="258" y="-67.5" font-family="Helvetica,sans-Serif" font-size="10.00">RigidTrack::on_btnZero</text>
<text text-anchor="middle" x="308" y="-56.5" font-family="Helvetica,sans-Serif" font-size="10.00">_clicked</text>
</a>
</g>
</g>
<!-- Node70&#45;&gt;Node71 -->
<g id="edge5" class="edge"><title>Node70&#45;&gt;Node71</title>
<path fill="none" stroke="midnightblue" d="M208.735,-64.5C221.783,-64.5 236.137,-64.5 249.748,-64.5"/>
<polygon fill="midnightblue" stroke="midnightblue" points="208.591,-61.0001 198.591,-64.5 208.591,-68.0001 208.591,-61.0001"/>
</g>
<!-- Node73 -->
<g id="node8" class="node"><title>Node73</title>
<g id="a_node8"><a xlink:href="class_rigid_track.html#a9a939d6db3d268e75a603cb3d492a91b" target="_top" xlink:title="RigidTrack::on_btnCalibrate\lGround_clicked">
<polygon fill="white" stroke="black" points="240,-0.5 240,-30.5 376,-30.5 376,-0.5 240,-0.5"/>
<text text-anchor="start" x="248" y="-18.5" font-family="Helvetica,sans-Serif" font-size="10.00">RigidTrack::on_btnCalibrate</text>
<text text-anchor="middle" x="308" y="-7.5" font-family="Helvetica,sans-Serif" font-size="10.00">Ground_clicked</text>
</a>
</g>
</g>
<!-- Node72&#45;&gt;Node73 -->
<g id="edge7" class="edge"><title>Node72&#45;&gt;Node73</title>
<path fill="none" stroke="midnightblue" d="M214.521,-19.34C222.784,-18.9968 231.432,-18.6378 239.981,-18.2828"/>
<polygon fill="midnightblue" stroke="midnightblue" points="214.142,-15.8526 204.295,-19.7646 214.432,-22.8466 214.142,-15.8526"/>
</g>
</g>
</svg>
