<?xml version="1.0" encoding="UTF-8" standalone="no"?>
<!DOCTYPE svg PUBLIC "-//W3C//DTD SVG 1.1//EN"
 "http://www.w3.org/Graphics/SVG/1.1/DTD/svg11.dtd">
<!-- Generated by graphviz version 2.38.0 (20140413.2041)
 -->
<!-- Title: calibrateCamera Pages: 1 -->
<svg width="277pt" height="218pt"
 viewBox="0.00 0.00 277.00 218.00" xmlns="http://www.w3.org/2000/svg" xmlns:xlink="http://www.w3.org/1999/xlink">
<g id="graph0" class="graph" transform="scale(1 1) rotate(0) translate(4 214)">
<title>calibrateCamera</title>
<polygon fill="white" stroke="none" points="-4,4 -4,-214 273,-214 273,4 -4,4"/>
<!-- Node4 -->
<g id="node1" class="node"><title>Node4</title>
<polygon fill="#bfbfbf" stroke="black" points="0,-95.5 0,-114.5 87,-114.5 87,-95.5 0,-95.5"/>
<text text-anchor="middle" x="43.5" y="-102.5" font-family="Helvetica,sans-Serif" font-size="10.00">calibrateCamera</text>
</g>
<!-- Node4&#45;&gt;Node4 -->
<g id="edge6" class="edge"><title>Node4&#45;&gt;Node4</title>
<path fill="none" stroke="midnightblue" d="M20.0724,-114.757C8.67517,-123.565 16.4844,-133 43.5,-133 61.229,-133 70.6865,-128.937 71.8725,-123.654"/>
<polygon fill="midnightblue" stroke="midnightblue" points="74.8449,-121.797 66.9276,-114.757 68.7265,-125.198 74.8449,-121.797"/>
</g>
<!-- Node5 -->
<g id="node2" class="node"><title>Node5</title>
<g id="a_node2"><a xlink:href="classcomm_object.html#aec354c7099b3039083cc4224e071e022" target="_top" xlink:title="commObject::addLog">
<polygon fill="white" stroke="black" points="141,-190.5 141,-209.5 251,-209.5 251,-190.5 141,-190.5"/>
<text text-anchor="middle" x="196" y="-197.5" font-family="Helvetica,sans-Serif" font-size="10.00">commObject::addLog</text>
</a>
</g>
</g>
<!-- Node4&#45;&gt;Node5 -->
<g id="edge1" class="edge"><title>Node4&#45;&gt;Node5</title>
<path fill="none" stroke="midnightblue" d="M51.599,-114.529C64.1634,-130.704 91.9393,-163.478 123,-181 126.971,-183.24 131.214,-185.223 135.579,-186.978"/>
<polygon fill="midnightblue" stroke="midnightblue" points="134.677,-190.374 145.272,-190.467 137.048,-183.787 134.677,-190.374"/>
</g>
<!-- Node6 -->
<g id="node3" class="node"><title>Node6</title>
<g id="a_node3"><a xlink:href="classcomm_object.html#acfc97f4310e2b7d841ecb8cf8be0088e" target="_top" xlink:title="commObject::progressUpdate">
<polygon fill="white" stroke="black" points="123,-152.5 123,-171.5 269,-171.5 269,-152.5 123,-152.5"/>
<text text-anchor="middle" x="196" y="-159.5" font-family="Helvetica,sans-Serif" font-size="10.00">commObject::progressUpdate</text>
</a>
</g>
</g>
<!-- Node4&#45;&gt;Node6 -->
<g id="edge2" class="edge"><title>Node4&#45;&gt;Node6</title>
<path fill="none" stroke="midnightblue" d="M61.846,-114.6C77.4774,-122.957 101.274,-134.96 123,-143 129.517,-145.412 136.471,-147.648 143.392,-149.677"/>
<polygon fill="midnightblue" stroke="midnightblue" points="142.879,-153.168 153.453,-152.496 144.768,-146.427 142.879,-153.168"/>
</g>
<!-- Node7 -->
<g id="node4" class="node"><title>Node7</title>
<g id="a_node4"><a xlink:href="main_8cpp.html#a3e3cc959a7ab6f93ea52863d86373ce5" target="_top" xlink:title="Mat2QPixmap">
<polygon fill="white" stroke="black" points="156.5,-114.5 156.5,-133.5 235.5,-133.5 235.5,-114.5 156.5,-114.5"/>
<text text-anchor="middle" x="196" y="-121.5" font-family="Helvetica,sans-Serif" font-size="10.00">Mat2QPixmap</text>
</a>
</g>
</g>
<!-- Node4&#45;&gt;Node7 -->
<g id="edge3" class="edge"><title>Node4&#45;&gt;Node7</title>
<path fill="none" stroke="midnightblue" d="M87.2247,-110.394C105.641,-112.719 127.275,-115.45 146.309,-117.853"/>
<polygon fill="midnightblue" stroke="midnightblue" points="145.926,-121.332 156.285,-119.112 146.802,-114.387 145.926,-121.332"/>
</g>
<!-- Node8 -->
<g id="node5" class="node"><title>Node8</title>
<g id="a_node5"><a xlink:href="classcomm_object.html#a6f81522c2aa1668fa402f08710e6206b" target="_top" xlink:title="commObject::changeImage">
<polygon fill="white" stroke="black" points="128,-76.5 128,-95.5 264,-95.5 264,-76.5 128,-76.5"/>
<text text-anchor="middle" x="196" y="-83.5" font-family="Helvetica,sans-Serif" font-size="10.00">commObject::changeImage</text>
</a>
</g>
</g>
<!-- Node4&#45;&gt;Node8 -->
<g id="edge4" class="edge"><title>Node4&#45;&gt;Node8</title>
<path fill="none" stroke="midnightblue" d="M87.2247,-99.6062C96.8397,-98.3923 107.332,-97.0677 117.873,-95.7369"/>
<polygon fill="midnightblue" stroke="midnightblue" points="118.485,-99.1875 127.968,-94.4625 117.609,-92.2427 118.485,-99.1875"/>
</g>
<!-- Node9 -->
<g id="node6" class="node"><title>Node9</title>
<g id="a_node6"><a xlink:href="main_8cpp.html#a0a7f48017dbb3d64bfc1a171631ad7d7" target="_top" xlink:title="calcBoardCornerPositions">
<polygon fill="white" stroke="black" points="131.5,-38.5 131.5,-57.5 260.5,-57.5 260.5,-38.5 131.5,-38.5"/>
<text text-anchor="middle" x="196" y="-45.5" font-family="Helvetica,sans-Serif" font-size="10.00">calcBoardCornerPositions</text>
</a>
</g>
</g>
<!-- Node4&#45;&gt;Node9 -->
<g id="edge5" class="edge"><title>Node4&#45;&gt;Node9</title>
<path fill="none" stroke="midnightblue" d="M61.846,-95.4C77.4774,-87.0428 101.274,-75.0397 123,-67 129.517,-64.5885 136.471,-62.352 143.392,-60.3234"/>
<polygon fill="midnightblue" stroke="midnightblue" points="144.768,-63.5726 153.453,-57.5038 142.879,-56.8323 144.768,-63.5726"/>
</g>
<!-- Node10 -->
<g id="node7" class="node"><title>Node10</title>
<g id="a_node7"><a xlink:href="classcomm_object.html#a1f4b8dd22ecc46bab619f6b1fe1a5144" target="_top" xlink:title="commObject::changeStatus">
<polygon fill="white" stroke="black" points="127,-0.5 127,-19.5 265,-19.5 265,-0.5 127,-0.5"/>
<text text-anchor="middle" x="196" y="-7.5" font-family="Helvetica,sans-Serif" font-size="10.00">commObject::changeStatus</text>
</a>
</g>
</g>
<!-- Node4&#45;&gt;Node10 -->
<g id="edge7" class="edge"><title>Node4&#45;&gt;Node10</title>
<path fill="none" stroke="midnightblue" d="M51.599,-95.4706C64.1634,-79.2957 91.9393,-46.5217 123,-29 126.971,-26.76 131.214,-24.7766 135.579,-23.0216"/>
<polygon fill="midnightblue" stroke="midnightblue" points="137.048,-26.2129 145.272,-19.5334 134.677,-19.6265 137.048,-26.2129"/>
</g>
</g>
</svg>
