<?xml version="1.0" encoding="UTF-8" standalone="no"?>
<!DOCTYPE svg PUBLIC "-//W3C//DTD SVG 1.1//EN"
 "http://www.w3.org/Graphics/SVG/1.1/DTD/svg11.dtd">
<!-- Generated by graphviz version 2.38.0 (20140413.2041)
 -->
<!-- Title: loadMarkerConfig Pages: 1 -->
<svg width="813pt" height="97pt"
 viewBox="0.00 0.00 813.00 96.50" xmlns="http://www.w3.org/2000/svg" xmlns:xlink="http://www.w3.org/1999/xlink">
<g id="graph0" class="graph" transform="scale(1 1) rotate(0) translate(4 92.5)">
<title>loadMarkerConfig</title>
<polygon fill="white" stroke="none" points="-4,4 -4,-92.5 809,-92.5 809,4 -4,4"/>
<!-- Node86 -->
<g id="node1" class="node"><title>Node86</title>
<polygon fill="#bfbfbf" stroke="black" points="0,-28 0,-47 92,-47 92,-28 0,-28"/>
<text text-anchor="middle" x="46" y="-35" font-family="Helvetica,sans-Serif" font-size="10.00">loadMarkerConfig</text>
</g>
<!-- Node87 -->
<g id="node2" class="node"><title>Node87</title>
<g id="a_node2"><a xlink:href="supportcode_8cpp.html#a0ddf1224851353fc92bfbff6f499fa97" target="_top" xlink:title="main initialises the GUI and values for the marker position etc ">
<polygon fill="white" stroke="black" points="182,-50 182,-69 220,-69 220,-50 182,-50"/>
<text text-anchor="middle" x="201" y="-57" font-family="Helvetica,sans-Serif" font-size="10.00">main</text>
</a>
</g>
</g>
<!-- Node86&#45;&gt;Node87 -->
<g id="edge1" class="edge"><title>Node86&#45;&gt;Node87</title>
<path fill="none" stroke="midnightblue" d="M102.16,-45.4315C130.118,-49.4516 162.21,-54.0661 181.791,-56.8818"/>
<polygon fill="midnightblue" stroke="midnightblue" points="102.474,-41.9407 92.0775,-43.9817 101.478,-48.8695 102.474,-41.9407"/>
</g>
<!-- Node93 -->
<g id="node8" class="node"><title>Node93</title>
<g id="a_node8"><a xlink:href="class_rigid_track.html#ad3e07592fbc1491cdc36dd5e817e1775" target="_top" xlink:title="RigidTrack::on_pbLoadMarker\l_clicked">
<polygon fill="white" stroke="black" points="128,-0.5 128,-30.5 274,-30.5 274,-0.5 128,-0.5"/>
<text text-anchor="start" x="136" y="-18.5" font-family="Helvetica,sans-Serif" font-size="10.00">RigidTrack::on_pbLoadMarker</text>
<text text-anchor="middle" x="201" y="-7.5" font-family="Helvetica,sans-Serif" font-size="10.00">_clicked</text>
</a>
</g>
</g>
<!-- Node86&#45;&gt;Node93 -->
<g id="edge7" class="edge"><title>Node86&#45;&gt;Node93</title>
<path fill="none" stroke="midnightblue" d="M102.108,-29.576C110.508,-28.3681 119.283,-27.1064 127.98,-25.8558"/>
<polygon fill="midnightblue" stroke="midnightblue" points="101.478,-26.1305 92.0775,-31.0183 102.474,-33.0593 101.478,-26.1305"/>
</g>
<!-- Node88 -->
<g id="node3" class="node"><title>Node88</title>
<g id="a_node3"><a xlink:href="class_surface.html#a728571d0386e9690ce1760931562c72b" target="_top" xlink:title="Surface::PutPixel">
<polygon fill="white" stroke="black" points="310,-69 310,-88 402,-88 402,-69 310,-69"/>
<text text-anchor="middle" x="356" y="-76" font-family="Helvetica,sans-Serif" font-size="10.00">Surface::PutPixel</text>
</a>
</g>
</g>
<!-- Node87&#45;&gt;Node88 -->
<g id="edge2" class="edge"><title>Node87&#45;&gt;Node88</title>
<path fill="none" stroke="midnightblue" d="M230.271,-63.0108C252.521,-65.7738 283.963,-69.6784 309.711,-72.8759"/>
<polygon fill="midnightblue" stroke="midnightblue" points="230.507,-59.5133 220.152,-61.7542 229.644,-66.4599 230.507,-59.5133"/>
</g>
<!-- Node92 -->
<g id="node7" class="node"><title>Node92</title>
<g id="a_node7"><a xlink:href="supportcode_8cpp.html#a661c2abc03926acfaeb93b4ae7db4943" target="_top" xlink:title="/&lt; Window Show State ">
<polygon fill="white" stroke="black" points="328.5,-31 328.5,-50 383.5,-50 383.5,-31 328.5,-31"/>
<text text-anchor="middle" x="356" y="-38" font-family="Helvetica,sans-Serif" font-size="10.00">WinMain</text>
</a>
</g>
</g>
<!-- Node87&#45;&gt;Node92 -->
<g id="edge6" class="edge"><title>Node87&#45;&gt;Node92</title>
<path fill="none" stroke="midnightblue" d="M230.117,-56.0084C258.159,-52.526 300.914,-47.2165 328.408,-43.8023"/>
<polygon fill="midnightblue" stroke="midnightblue" points="229.644,-52.5401 220.152,-57.2458 230.507,-59.4867 229.644,-52.5401"/>
</g>
<!-- Node89 -->
<g id="node4" class="node"><title>Node89</title>
<g id="a_node4"><a xlink:href="class_surface.html#a377c59f6ef131d4b879cda93578a3efa" target="_top" xlink:title="Surface::SurfaceHeight">
<polygon fill="white" stroke="black" points="438,-69 438,-88 554,-88 554,-69 438,-69"/>
<text text-anchor="middle" x="496" y="-76" font-family="Helvetica,sans-Serif" font-size="10.00">Surface::SurfaceHeight</text>
</a>
</g>
</g>
<!-- Node88&#45;&gt;Node89 -->
<g id="edge3" class="edge"><title>Node88&#45;&gt;Node89</title>
<path fill="none" stroke="midnightblue" d="M412.212,-78.5C420.574,-78.5 429.218,-78.5 437.625,-78.5"/>
<polygon fill="midnightblue" stroke="midnightblue" points="412.186,-75.0001 402.186,-78.5 412.186,-82.0001 412.186,-75.0001"/>
</g>
<!-- Node90 -->
<g id="node5" class="node"><title>Node90</title>
<g id="a_node5"><a xlink:href="supportcode_8h.html#ac43c2dc16b0859b03a4f7d04a7e97d3c" target="_top" xlink:title="DrawGLScene">
<polygon fill="white" stroke="black" points="590,-69 590,-88 669,-88 669,-69 590,-69"/>
<text text-anchor="middle" x="629.5" y="-76" font-family="Helvetica,sans-Serif" font-size="10.00">DrawGLScene</text>
</a>
</g>
</g>
<!-- Node89&#45;&gt;Node90 -->
<g id="edge4" class="edge"><title>Node89&#45;&gt;Node90</title>
<path fill="none" stroke="midnightblue" d="M564.511,-78.5C573.228,-78.5 581.905,-78.5 589.926,-78.5"/>
<polygon fill="midnightblue" stroke="midnightblue" points="564.295,-75.0001 554.295,-78.5 564.295,-82.0001 564.295,-75.0001"/>
</g>
<!-- Node91 -->
<g id="node6" class="node"><title>Node91</title>
<g id="a_node6"><a xlink:href="class_surface.html#abe0d542404575c60911d6ad4219560f9" target="_top" xlink:title="Surface::PixelSpan">
<polygon fill="white" stroke="black" points="705,-69 705,-88 805,-88 805,-69 705,-69"/>
<text text-anchor="middle" x="755" y="-76" font-family="Helvetica,sans-Serif" font-size="10.00">Surface::PixelSpan</text>
</a>
</g>
</g>
<!-- Node90&#45;&gt;Node91 -->
<g id="edge5" class="edge"><title>Node90&#45;&gt;Node91</title>
<path fill="none" stroke="midnightblue" d="M679.309,-78.5C687.74,-78.5 696.508,-78.5 704.946,-78.5"/>
<polygon fill="midnightblue" stroke="midnightblue" points="679.237,-75.0001 669.237,-78.5 679.237,-82.0001 679.237,-75.0001"/>
</g>
</g>
</svg>
