<?xml version="1.0" encoding="UTF-8" standalone="no"?>
<!DOCTYPE svg PUBLIC "-//W3C//DTD SVG 1.1//EN"
 "http://www.w3.org/Graphics/SVG/1.1/DTD/svg11.dtd">
<!-- Generated by graphviz version 2.38.0 (20140413.2041)
 -->
<!-- Title: DrawGLScene Pages: 1 -->
<!--zoomable 242 -->
<svg id="main" version="1.1" xmlns="http://www.w3.org/2000/svg" xmlns:xlink="http://www.w3.org/1999/xlink" xml:space="preserve" onload="init(evt)">
<style type="text/css"><![CDATA[
.edge:hover path { stroke: red; }
.edge:hover polygon { stroke: red; fill: red; }
]]></style>
<script type="text/javascript"><![CDATA[
var edges = document.getElementsByTagName('g');
if (edges && edges.length) {
  for (var i=0;i<edges.length;i++) {
    if (edges[i].id.substr(0,4)=='edge') {
      edges[i].setAttribute('class','edge');
    }
  }
}
]]></script>
        <defs>
                <circle id="rim" cx="0" cy="0" r="7"/>
                <circle id="rim2" cx="0" cy="0" r="3.5"/>
                <g id="zoomPlus">
                        <use xlink:href="#rim" fill="#404040">
                                <set attributeName="fill" to="#808080" begin="zoomplus.mouseover" end="zoomplus.mouseout"/>
                        </use>
                        <path d="M-4,0h8M0,-4v8" fill="none" stroke="white" stroke-width="1.5" pointer-events="none"/>
                </g>
                <g id="zoomMin">
                        <use xlink:href="#rim" fill="#404040">
                                <set attributeName="fill" to="#808080" begin="zoomminus.mouseover" end="zoomminus.mouseout"/>
                        </use>
                        <path d="M-4,0h8" fill="none" stroke="white" stroke-width="1.5" pointer-events="none"/>
                </g>
                <g id="dirArrow">
                        <path fill="none" stroke="white" stroke-width="1.5" d="M0,-3.0v7 M-2.5,-0.5L0,-3.0L2.5,-0.5"/>
                </g>
               <g id="resetDef">
                       <use xlink:href="#rim2" fill="#404040">
                               <set attributeName="fill" to="#808080" begin="reset.mouseover" end="reset.mouseout"/>
                       </use>
               </g>
        </defs>

<script type="text/javascript">
var viewWidth = 753;
var viewHeight = 242;
var sectionId = 'dynsection-5';
</script>
<script xlink:href="svgpan.js"/>
<svg id="graph" class="graph">
<g id="viewport">
<title>DrawGLScene</title>
<polygon fill="white" stroke="none" points="-4,4 -4,-238.475 749,-238.475 749,4 -4,4"/>
<!-- Node11 -->
<g id="node1" class="node"><title>Node11</title>
<polygon fill="#bfbfbf" stroke="black" points="0,-171.5 0,-190.5 79,-190.5 79,-171.5 0,-171.5"/>
<text text-anchor="middle" x="39.5" y="-178.5" font-family="Helvetica,sans-Serif" font-size="10.00">DrawGLScene</text>
</g>
<!-- Node12 -->
<g id="node2" class="node"><title>Node12</title>
<g id="a_node2"><a xlink:href="class_surface.html#a2cd8789d26457187b8af4be8c178e9d4" target="_top" xlink:title="Surface::GetTexture">
<polygon fill="white" stroke="black" points="121,-209.5 121,-228.5 225,-228.5 225,-209.5 121,-209.5"/>
<text text-anchor="middle" x="173" y="-216.5" font-family="Helvetica,sans-Serif" font-size="10.00">Surface::GetTexture</text>
</a>
</g>
</g>
<!-- Node11&#45;&gt;Node12 -->
<g id="edge1" class="edge"><title>Node11&#45;&gt;Node12</title>
<path fill="none" stroke="midnightblue" d="M73.683,-190.589C90.5027,-195.449 111.126,-201.409 129.134,-206.613"/>
<polygon fill="midnightblue" stroke="midnightblue" points="128.249,-210 138.828,-209.414 130.192,-203.275 128.249,-210"/>
</g>
<!-- Node13 -->
<g id="node3" class="node"><title>Node13</title>
<g id="a_node3"><a xlink:href="class_surface.html#a4cbf23ea0c8ff533271109fc2a1a863d" target="_top" xlink:title="Surface::SurfaceWidth">
<polygon fill="white" stroke="black" points="116,-171.5 116,-190.5 230,-190.5 230,-171.5 116,-171.5"/>
<text text-anchor="middle" x="173" y="-178.5" font-family="Helvetica,sans-Serif" font-size="10.00">Surface::SurfaceWidth</text>
</a>
</g>
</g>
<!-- Node11&#45;&gt;Node13 -->
<g id="edge2" class="edge"><title>Node11&#45;&gt;Node13</title>
<path fill="none" stroke="midnightblue" d="M79.2431,-181C87.6099,-181 96.6828,-181 105.768,-181"/>
<polygon fill="midnightblue" stroke="midnightblue" points="105.994,-184.5 115.994,-181 105.994,-177.5 105.994,-184.5"/>
</g>
<!-- Node14 -->
<g id="node4" class="node"><title>Node14</title>
<g id="a_node4"><a xlink:href="class_surface.html#a377c59f6ef131d4b879cda93578a3efa" target="_top" xlink:title="Surface::SurfaceHeight">
<polygon fill="white" stroke="black" points="115,-133.5 115,-152.5 231,-152.5 231,-133.5 115,-133.5"/>
<text text-anchor="middle" x="173" y="-140.5" font-family="Helvetica,sans-Serif" font-size="10.00">Surface::SurfaceHeight</text>
</a>
</g>
</g>
<!-- Node11&#45;&gt;Node14 -->
<g id="edge3" class="edge"><title>Node11&#45;&gt;Node14</title>
<path fill="none" stroke="midnightblue" d="M73.683,-171.411C90.5027,-166.551 111.126,-160.591 129.134,-155.387"/>
<polygon fill="midnightblue" stroke="midnightblue" points="130.192,-158.725 138.828,-152.586 128.249,-152 130.192,-158.725"/>
</g>
<!-- Node15 -->
<g id="node5" class="node"><title>Node15</title>
<g id="a_node5"><a xlink:href="class_surface.html#a728571d0386e9690ce1760931562c72b" target="_top" xlink:title="Surface::PutPixel">
<polygon fill="white" stroke="black" points="267,-133.5 267,-152.5 359,-152.5 359,-133.5 267,-133.5"/>
<text text-anchor="middle" x="313" y="-140.5" font-family="Helvetica,sans-Serif" font-size="10.00">Surface::PutPixel</text>
</a>
</g>
</g>
<!-- Node14&#45;&gt;Node15 -->
<g id="edge4" class="edge"><title>Node14&#45;&gt;Node15</title>
<path fill="none" stroke="midnightblue" d="M231.326,-143C239.749,-143 248.412,-143 256.791,-143"/>
<polygon fill="midnightblue" stroke="midnightblue" points="256.838,-146.5 266.838,-143 256.837,-139.5 256.838,-146.5"/>
</g>
<!-- Node16 -->
<g id="node6" class="node"><title>Node16</title>
<g id="a_node6"><a xlink:href="supportcode_8cpp.html#a0ddf1224851353fc92bfbff6f499fa97" target="_top" xlink:title="main initialises the GUI and values for the marker position etc ">
<polygon fill="white" stroke="black" points="395,-133.5 395,-152.5 433,-152.5 433,-133.5 395,-133.5"/>
<text text-anchor="middle" x="414" y="-140.5" font-family="Helvetica,sans-Serif" font-size="10.00">main</text>
</a>
</g>
</g>
<!-- Node15&#45;&gt;Node16 -->
<g id="edge5" class="edge"><title>Node15&#45;&gt;Node16</title>
<path fill="none" stroke="midnightblue" d="M359.154,-143C367.849,-143 376.724,-143 384.696,-143"/>
<polygon fill="midnightblue" stroke="midnightblue" points="384.903,-146.5 394.903,-143 384.903,-139.5 384.903,-146.5"/>
</g>
<!-- Node17 -->
<g id="node7" class="node"><title>Node17</title>
<g id="a_node7"><a xlink:href="classcomm_object.html#aec354c7099b3039083cc4224e071e022" target="_top" xlink:title="commObject::addLog">
<polygon fill="white" stroke="black" points="622,-190.5 622,-209.5 732,-209.5 732,-190.5 622,-190.5"/>
<text text-anchor="middle" x="677" y="-197.5" font-family="Helvetica,sans-Serif" font-size="10.00">commObject::addLog</text>
</a>
</g>
</g>
<!-- Node16&#45;&gt;Node17 -->
<g id="edge6" class="edge"><title>Node16&#45;&gt;Node17</title>
<path fill="none" stroke="midnightblue" d="M418.468,-152.737C425.164,-169.862 441.673,-204.894 469,-219 525.259,-248.041 601.623,-228.356 644.116,-213.089"/>
<polygon fill="midnightblue" stroke="midnightblue" points="645.509,-216.305 653.655,-209.53 643.062,-209.747 645.509,-216.305"/>
</g>
<!-- Node18 -->
<g id="node8" class="node"><title>Node18</title>
<g id="a_node8"><a xlink:href="main_8cpp.html#ad19da4e648bbdc80d3123eb94711588e" target="_top" xlink:title="setHeadingOffset">
<polygon fill="white" stroke="black" points="475.5,-38.5 475.5,-57.5 566.5,-57.5 566.5,-38.5 475.5,-38.5"/>
<text text-anchor="middle" x="521" y="-45.5" font-family="Helvetica,sans-Serif" font-size="10.00">setHeadingOffset</text>
</a>
</g>
</g>
<!-- Node16&#45;&gt;Node18 -->
<g id="edge7" class="edge"><title>Node16&#45;&gt;Node18</title>
<path fill="none" stroke="midnightblue" d="M419.422,-133.43C427.245,-117.489 444.993,-85.4338 469,-67 471.319,-65.2197 473.821,-63.5922 476.43,-62.1066"/>
<polygon fill="midnightblue" stroke="midnightblue" points="478.175,-65.1488 485.595,-57.5863 475.079,-58.8709 478.175,-65.1488"/>
</g>
<!-- Node19 -->
<g id="node9" class="node"><title>Node19</title>
<g id="a_node9"><a xlink:href="main_8cpp.html#af39fa6c3a36ad6bc24a327db7a9d73c2" target="_top" xlink:title="loadCameraPosition">
<polygon fill="white" stroke="black" points="469,-190.5 469,-209.5 573,-209.5 573,-190.5 469,-190.5"/>
<text text-anchor="middle" x="521" y="-197.5" font-family="Helvetica,sans-Serif" font-size="10.00">loadCameraPosition</text>
</a>
</g>
</g>
<!-- Node16&#45;&gt;Node19 -->
<g id="edge8" class="edge"><title>Node16&#45;&gt;Node19</title>
<path fill="none" stroke="midnightblue" d="M426.863,-152.697C437.438,-161.004 453.584,-172.878 469,-181 472.762,-182.982 476.777,-184.854 480.84,-186.594"/>
<polygon fill="midnightblue" stroke="midnightblue" points="479.727,-189.919 490.311,-190.403 482.339,-183.425 479.727,-189.919"/>
</g>
<!-- Node20 -->
<g id="node10" class="node"><title>Node20</title>
<g id="a_node10"><a xlink:href="main_8cpp.html#ad39626702ff983d5fdab4b703bfaf964" target="_top" xlink:title="loadCalibration">
<polygon fill="white" stroke="black" points="481,-152.5 481,-171.5 561,-171.5 561,-152.5 481,-152.5"/>
<text text-anchor="middle" x="521" y="-159.5" font-family="Helvetica,sans-Serif" font-size="10.00">loadCalibration</text>
</a>
</g>
</g>
<!-- Node16&#45;&gt;Node20 -->
<g id="edge10" class="edge"><title>Node16&#45;&gt;Node20</title>
<path fill="none" stroke="midnightblue" d="M433.29,-146.31C443.684,-148.19 457.247,-150.645 470.549,-153.052"/>
<polygon fill="midnightblue" stroke="midnightblue" points="470.149,-156.536 480.612,-154.873 471.396,-149.648 470.149,-156.536"/>
</g>
<!-- Node21 -->
<g id="node11" class="node"><title>Node21</title>
<g id="a_node11"><a xlink:href="main_8cpp.html#a56c7f641859cb2b6b99b0947d03be800" target="_top" xlink:title="loadMarkerConfig">
<polygon fill="white" stroke="black" points="475,-114.5 475,-133.5 567,-133.5 567,-114.5 475,-114.5"/>
<text text-anchor="middle" x="521" y="-121.5" font-family="Helvetica,sans-Serif" font-size="10.00">loadMarkerConfig</text>
</a>
</g>
</g>
<!-- Node16&#45;&gt;Node21 -->
<g id="edge12" class="edge"><title>Node16&#45;&gt;Node21</title>
<path fill="none" stroke="midnightblue" d="M433.29,-139.69C442.197,-138.079 453.431,-136.046 464.833,-133.983"/>
<polygon fill="midnightblue" stroke="midnightblue" points="465.625,-137.396 474.842,-132.171 464.379,-130.508 465.625,-137.396"/>
</g>
<!-- Node26 -->
<g id="node16" class="node"><title>Node26</title>
<g id="a_node16"><a xlink:href="main_8cpp.html#a847c0fbd3e513fb76ff145b31a9f5c37" target="_top" xlink:title="testAlgorithms">
<polygon fill="white" stroke="black" points="481,-76.5 481,-95.5 561,-95.5 561,-76.5 481,-76.5"/>
<text text-anchor="middle" x="521" y="-83.5" font-family="Helvetica,sans-Serif" font-size="10.00">testAlgorithms</text>
</a>
</g>
</g>
<!-- Node16&#45;&gt;Node26 -->
<g id="edge18" class="edge"><title>Node16&#45;&gt;Node26</title>
<path fill="none" stroke="midnightblue" d="M426.863,-133.303C437.438,-124.996 453.584,-113.122 469,-105 472.762,-103.018 476.777,-101.146 480.84,-99.4059"/>
<polygon fill="midnightblue" stroke="midnightblue" points="482.339,-102.575 490.311,-95.5971 479.727,-96.0809 482.339,-102.575"/>
</g>
<!-- Node19&#45;&gt;Node17 -->
<g id="edge9" class="edge"><title>Node19&#45;&gt;Node17</title>
<path fill="none" stroke="midnightblue" d="M573.28,-200C585.569,-200 598.846,-200 611.644,-200"/>
<polygon fill="midnightblue" stroke="midnightblue" points="611.776,-203.5 621.776,-200 611.776,-196.5 611.776,-203.5"/>
</g>
<!-- Node20&#45;&gt;Node17 -->
<g id="edge11" class="edge"><title>Node20&#45;&gt;Node17</title>
<path fill="none" stroke="midnightblue" d="M560.861,-171.589C581.091,-176.581 606.021,-182.732 627.504,-188.033"/>
<polygon fill="midnightblue" stroke="midnightblue" points="626.871,-191.482 637.419,-190.48 628.548,-184.686 626.871,-191.482"/>
</g>
<!-- Node21&#45;&gt;Node17 -->
<g id="edge13" class="edge"><title>Node21&#45;&gt;Node17</title>
<path fill="none" stroke="midnightblue" d="M554.374,-133.519C560.81,-136.101 567.326,-139.246 573,-143 592.402,-155.837 589.098,-168.952 609,-181 612.607,-183.184 616.475,-185.125 620.465,-186.85"/>
<polygon fill="midnightblue" stroke="midnightblue" points="619.344,-190.168 629.934,-190.492 621.857,-183.635 619.344,-190.168"/>
</g>
<!-- Node22 -->
<g id="node12" class="node"><title>Node22</title>
<g id="a_node12"><a xlink:href="classcomm_object.html#a7552116eb5e18c49c6dcf943de29af7a" target="_top" xlink:title="commObject::enableP3P">
<polygon fill="white" stroke="black" points="614.5,-152.5 614.5,-171.5 739.5,-171.5 739.5,-152.5 614.5,-152.5"/>
<text text-anchor="middle" x="677" y="-159.5" font-family="Helvetica,sans-Serif" font-size="10.00">commObject::enableP3P</text>
</a>
</g>
</g>
<!-- Node21&#45;&gt;Node22 -->
<g id="edge14" class="edge"><title>Node21&#45;&gt;Node22</title>
<path fill="none" stroke="midnightblue" d="M560.861,-133.589C581.091,-138.581 606.021,-144.732 627.504,-150.033"/>
<polygon fill="midnightblue" stroke="midnightblue" points="626.871,-153.482 637.419,-152.48 628.548,-146.686 626.871,-153.482"/>
</g>
<!-- Node23 -->
<g id="node13" class="node"><title>Node23</title>
<g id="a_node13"><a xlink:href="main_8cpp.html#a2104a5d9d6b9f1e29bc4cd858c59882e" target="_top" xlink:title="projectCoordinateFrame">
<polygon fill="white" stroke="black" points="617,-114.5 617,-133.5 737,-133.5 737,-114.5 617,-114.5"/>
<text text-anchor="middle" x="677" y="-121.5" font-family="Helvetica,sans-Serif" font-size="10.00">projectCoordinateFrame</text>
</a>
</g>
</g>
<!-- Node21&#45;&gt;Node23 -->
<g id="edge15" class="edge"><title>Node21&#45;&gt;Node23</title>
<path fill="none" stroke="midnightblue" d="M567.372,-124C579.745,-124 593.436,-124 606.81,-124"/>
<polygon fill="midnightblue" stroke="midnightblue" points="606.948,-127.5 616.948,-124 606.948,-120.5 606.948,-127.5"/>
</g>
<!-- Node24 -->
<g id="node14" class="node"><title>Node24</title>
<g id="a_node14"><a xlink:href="main_8cpp.html#a3e3cc959a7ab6f93ea52863d86373ce5" target="_top" xlink:title="Mat2QPixmap">
<polygon fill="white" stroke="black" points="637.5,-76.5 637.5,-95.5 716.5,-95.5 716.5,-76.5 637.5,-76.5"/>
<text text-anchor="middle" x="677" y="-83.5" font-family="Helvetica,sans-Serif" font-size="10.00">Mat2QPixmap</text>
</a>
</g>
</g>
<!-- Node21&#45;&gt;Node24 -->
<g id="edge16" class="edge"><title>Node21&#45;&gt;Node24</title>
<path fill="none" stroke="midnightblue" d="M560.861,-114.411C581.091,-109.419 606.021,-103.268 627.504,-97.9666"/>
<polygon fill="midnightblue" stroke="midnightblue" points="628.548,-101.314 637.419,-95.5201 626.871,-94.5177 628.548,-101.314"/>
</g>
<!-- Node25 -->
<g id="node15" class="node"><title>Node25</title>
<g id="a_node15"><a xlink:href="classcomm_object.html#a6f81522c2aa1668fa402f08710e6206b" target="_top" xlink:title="commObject::changeImage">
<polygon fill="white" stroke="black" points="609,-38.5 609,-57.5 745,-57.5 745,-38.5 609,-38.5"/>
<text text-anchor="middle" x="677" y="-45.5" font-family="Helvetica,sans-Serif" font-size="10.00">commObject::changeImage</text>
</a>
</g>
</g>
<!-- Node21&#45;&gt;Node25 -->
<g id="edge17" class="edge"><title>Node21&#45;&gt;Node25</title>
<path fill="none" stroke="midnightblue" d="M554.374,-114.481C560.81,-111.899 567.326,-108.754 573,-105 592.402,-92.1627 589.098,-79.0482 609,-67 612.607,-64.8163 616.475,-62.875 620.465,-61.1505"/>
<polygon fill="midnightblue" stroke="midnightblue" points="621.857,-64.3651 629.934,-57.5082 619.344,-57.8318 621.857,-64.3651"/>
</g>
<!-- Node26&#45;&gt;Node17 -->
<g id="edge19" class="edge"><title>Node26&#45;&gt;Node17</title>
<path fill="none" stroke="midnightblue" d="M558.563,-95.6173C563.803,-98.0867 568.823,-101.167 573,-105 600.537,-130.271 580.471,-156.854 609,-181 611.019,-182.709 613.182,-184.264 615.45,-185.68"/>
<polygon fill="midnightblue" stroke="midnightblue" points="614.149,-188.949 624.633,-190.478 617.391,-182.745 614.149,-188.949"/>
</g>
<!-- Node26&#45;&gt;Node23 -->
<g id="edge20" class="edge"><title>Node26&#45;&gt;Node23</title>
<path fill="none" stroke="midnightblue" d="M560.861,-95.589C581.091,-100.581 606.021,-106.732 627.504,-112.033"/>
<polygon fill="midnightblue" stroke="midnightblue" points="626.871,-115.482 637.419,-114.48 628.548,-108.686 626.871,-115.482"/>
</g>
<!-- Node26&#45;&gt;Node24 -->
<g id="edge21" class="edge"><title>Node26&#45;&gt;Node24</title>
<path fill="none" stroke="midnightblue" d="M561.259,-86C581.324,-86 605.931,-86 627.205,-86"/>
<polygon fill="midnightblue" stroke="midnightblue" points="627.346,-89.5001 637.346,-86 627.346,-82.5001 627.346,-89.5001"/>
</g>
<!-- Node26&#45;&gt;Node25 -->
<g id="edge22" class="edge"><title>Node26&#45;&gt;Node25</title>
<path fill="none" stroke="midnightblue" d="M560.861,-76.411C581.091,-71.4191 606.021,-65.2676 627.504,-59.9666"/>
<polygon fill="midnightblue" stroke="midnightblue" points="628.548,-63.3139 637.419,-57.5201 626.871,-56.5177 628.548,-63.3139"/>
</g>
<!-- Node27 -->
<g id="node17" class="node"><title>Node27</title>
<g id="a_node17"><a xlink:href="main_8cpp.html#af6430ad2592a955a3618549547dfc5be" target="_top" xlink:title="drawPositionText">
<polygon fill="white" stroke="black" points="631.5,-0.5 631.5,-19.5 722.5,-19.5 722.5,-0.5 631.5,-0.5"/>
<text text-anchor="middle" x="677" y="-7.5" font-family="Helvetica,sans-Serif" font-size="10.00">drawPositionText</text>
</a>
</g>
</g>
<!-- Node26&#45;&gt;Node27 -->
<g id="edge23" class="edge"><title>Node26&#45;&gt;Node27</title>
<path fill="none" stroke="midnightblue" d="M554.374,-76.4812C560.81,-73.8992 567.326,-70.7539 573,-67 592.402,-54.1627 589.098,-41.0482 609,-29 613.053,-26.5463 617.435,-24.3985 621.951,-22.5206"/>
<polygon fill="midnightblue" stroke="midnightblue" points="623.188,-25.795 631.344,-19.0333 620.751,-19.2326 623.188,-25.795"/>
</g>
</g>
</svg>
        <g id="navigator" transform="translate(0 0)" fill="#404254">
                <rect fill="#f2f5e9" fill-opacity="0.5" stroke="#606060" stroke-width=".5" x="0" y="0" width="60" height="60"/>
                <use id="zoomplus" xlink:href="#zoomPlus" x="17" y="9" onmousedown="handleZoom(evt,'in')"/>
                <use id="zoomminus" xlink:href="#zoomMin" x="42" y="9" onmousedown="handleZoom(evt,'out')"/>
                <use id="reset" xlink:href="#resetDef" x="30" y="36" onmousedown="handleReset()"/>
                <g id="arrowUp" xlink:href="#dirArrow" transform="translate(30 24)" onmousedown="handlePan(0,-1)">
                  <use xlink:href="#rim" fill="#404040">
                        <set attributeName="fill" to="#808080" begin="arrowUp.mouseover" end="arrowUp.mouseout"/>
                  </use>
                  <path fill="none" stroke="white" stroke-width="1.5" d="M0,-3.0v7 M-2.5,-0.5L0,-3.0L2.5,-0.5"/>
                </g>
                <g id="arrowRight" xlink:href="#dirArrow" transform="rotate(90) translate(36 -43)" onmousedown="handlePan(1,0)">
                  <use xlink:href="#rim" fill="#404040">
                        <set attributeName="fill" to="#808080" begin="arrowRight.mouseover" end="arrowRight.mouseout"/>
                  </use>
                  <path fill="none" stroke="white" stroke-width="1.5" d="M0,-3.0v7 M-2.5,-0.5L0,-3.0L2.5,-0.5"/>
                </g>
                <g id="arrowDown" xlink:href="#dirArrow" transform="rotate(180) translate(-30 -48)" onmousedown="handlePan(0,1)">
                  <use xlink:href="#rim" fill="#404040">
                        <set attributeName="fill" to="#808080" begin="arrowDown.mouseover" end="arrowDown.mouseout"/>
                  </use>
                  <path fill="none" stroke="white" stroke-width="1.5" d="M0,-3.0v7 M-2.5,-0.5L0,-3.0L2.5,-0.5"/>
                </g>
                <g id="arrowLeft" xlink:href="#dirArrow" transform="rotate(270) translate(-36 17)" onmousedown="handlePan(-1,0)">
                  <use xlink:href="#rim" fill="#404040">
                        <set attributeName="fill" to="#808080" begin="arrowLeft.mouseover" end="arrowLeft.mouseout"/>
                  </use>
                  <path fill="none" stroke="white" stroke-width="1.5" d="M0,-3.0v7 M-2.5,-0.5L0,-3.0L2.5,-0.5"/>
                </g>
        </g>
        <svg viewBox="0 0 15 15" width="100%" height="30px" preserveAspectRatio="xMaxYMin meet">
         <g id="arrow_out" transform="scale(0.3 0.3)">
          <a xlink:href="supportcode_8h_ac43c2dc16b0859b03a4f7d04a7e97d3c_cgraph_org.svg" target="_base">
           <rect id="button" ry="5" rx="5" y="6" x="6" height="38" width="38"
                fill="#f2f5e9" fill-opacity="0.5" stroke="#606060" stroke-width="1.0"/>
           <path id="arrow"
             d="M 11.500037,31.436501 C 11.940474,20.09759 22.043105,11.32322 32.158766,21.979434 L 37.068811,17.246167 C 37.068811,17.246167 37.088388,32 37.088388,32 L 22.160133,31.978069 C 22.160133,31.978069 26.997745,27.140456 26.997745,27.140456 C 18.528582,18.264221 13.291696,25.230495 11.500037,31.436501 z"
             style="fill:#404040;"/>
          </a>
         </g>
        </svg>
</svg>
