<?xml version="1.0" encoding="UTF-8" standalone="no"?>
<!DOCTYPE svg PUBLIC "-//W3C//DTD SVG 1.1//EN"
 "http://www.w3.org/Graphics/SVG/1.1/DTD/svg11.dtd">
<!-- Generated by graphviz version 2.38.0 (20140413.2041)
 -->
<!-- Title: RigidTrack/supportcode.h Pages: 1 -->
<svg width="204pt" height="84pt"
 viewBox="0.00 0.00 204.00 84.00" xmlns="http://www.w3.org/2000/svg" xmlns:xlink="http://www.w3.org/1999/xlink">
<g id="graph0" class="graph" transform="scale(1 1) rotate(0) translate(4 80)">
<title>RigidTrack/supportcode.h</title>
<polygon fill="white" stroke="none" points="-4,4 -4,-80 200,-80 200,4 -4,4"/>
<!-- Node0 -->
<g id="node1" class="node"><title>Node0</title>
<polygon fill="#bfbfbf" stroke="black" points="38.5,-56.5 38.5,-75.5 165.5,-75.5 165.5,-56.5 38.5,-56.5"/>
<text text-anchor="middle" x="102" y="-63.5" font-family="Helvetica,sans-Serif" font-size="10.00">RigidTrack/supportcode.h</text>
</g>
<!-- Node1 -->
<g id="node2" class="node"><title>Node1</title>
<polygon fill="white" stroke="#bfbfbf" points="0,-0.5 0,-19.5 62,-19.5 62,-0.5 0,-0.5"/>
<text text-anchor="middle" x="31" y="-7.5" font-family="Helvetica,sans-Serif" font-size="10.00">windows.h</text>
</g>
<!-- Node0&#45;&gt;Node1 -->
<g id="edge1" class="edge"><title>Node0&#45;&gt;Node1</title>
<path fill="none" stroke="midnightblue" d="M90.5926,-56.324C79.8912,-48.1849 63.6593,-35.8395 50.8372,-26.0874"/>
<polygon fill="midnightblue" stroke="midnightblue" points="52.6932,-23.1018 42.6149,-19.8339 48.4556,-28.6734 52.6932,-23.1018"/>
</g>
<!-- Node2 -->
<g id="node3" class="node"><title>Node2</title>
<polygon fill="white" stroke="#bfbfbf" points="80.5,-0.5 80.5,-19.5 123.5,-19.5 123.5,-0.5 80.5,-0.5"/>
<text text-anchor="middle" x="102" y="-7.5" font-family="Helvetica,sans-Serif" font-size="10.00">gl\gl.h</text>
</g>
<!-- Node0&#45;&gt;Node2 -->
<g id="edge2" class="edge"><title>Node0&#45;&gt;Node2</title>
<path fill="none" stroke="midnightblue" d="M102,-56.083C102,-49.0059 102,-38.8611 102,-29.9865"/>
<polygon fill="midnightblue" stroke="midnightblue" points="105.5,-29.751 102,-19.7511 98.5001,-29.7511 105.5,-29.751"/>
</g>
<!-- Node3 -->
<g id="node4" class="node"><title>Node3</title>
<polygon fill="white" stroke="#bfbfbf" points="142,-0.5 142,-19.5 196,-19.5 196,-0.5 142,-0.5"/>
<text text-anchor="middle" x="169" y="-7.5" font-family="Helvetica,sans-Serif" font-size="10.00">bitmap.h</text>
</g>
<!-- Node0&#45;&gt;Node3 -->
<g id="edge3" class="edge"><title>Node0&#45;&gt;Node3</title>
<path fill="none" stroke="midnightblue" d="M112.765,-56.324C122.766,-48.2631 137.887,-36.0765 149.93,-26.3695"/>
<polygon fill="midnightblue" stroke="midnightblue" points="152.45,-28.8343 158.039,-19.8339 148.057,-23.3841 152.45,-28.8343"/>
</g>
</g>
</svg>
