<?xml version="1.0" encoding="UTF-8" standalone="no"?>
<!DOCTYPE svg PUBLIC "-//W3C//DTD SVG 1.1//EN"
 "http://www.w3.org/Graphics/SVG/1.1/DTD/svg11.dtd">
<!-- Generated by graphviz version 2.38.0 (20140413.2041)
 -->
<!-- Title: RigidTrack/supportcode.cpp Pages: 1 -->
<svg width="602pt" height="140pt"
 viewBox="0.00 0.00 601.50 140.00" xmlns="http://www.w3.org/2000/svg" xmlns:xlink="http://www.w3.org/1999/xlink">
<g id="graph0" class="graph" transform="scale(1 1) rotate(0) translate(4 136)">
<title>RigidTrack/supportcode.cpp</title>
<polygon fill="white" stroke="none" points="-4,4 -4,-136 597.5,-136 597.5,4 -4,4"/>
<!-- Node0 -->
<g id="node1" class="node"><title>Node0</title>
<polygon fill="#bfbfbf" stroke="black" points="188.5,-112.5 188.5,-131.5 325.5,-131.5 325.5,-112.5 188.5,-112.5"/>
<text text-anchor="middle" x="257" y="-119.5" font-family="Helvetica,sans-Serif" font-size="10.00">RigidTrack/supportcode.cpp</text>
</g>
<!-- Node1 -->
<g id="node2" class="node"><title>Node1</title>
<polygon fill="white" stroke="#bfbfbf" points="0,-0.5 0,-19.5 62,-19.5 62,-0.5 0,-0.5"/>
<text text-anchor="middle" x="31" y="-7.5" font-family="Helvetica,sans-Serif" font-size="10.00">windows.h</text>
</g>
<!-- Node0&#45;&gt;Node1 -->
<g id="edge1" class="edge"><title>Node0&#45;&gt;Node1</title>
<path fill="none" stroke="midnightblue" d="M190.715,-112.484C141.25,-104.946 78.9207,-92.5677 59,-76 44.9978,-64.3547 37.8235,-44.405 34.2645,-29.6708"/>
<polygon fill="midnightblue" stroke="midnightblue" points="37.6441,-28.7298 32.1943,-19.6441 30.7887,-30.1452 37.6441,-28.7298"/>
</g>
<!-- Node2 -->
<g id="node3" class="node"><title>Node2</title>
<polygon fill="white" stroke="#bfbfbf" points="202,-56.5 202,-75.5 248,-75.5 248,-56.5 202,-56.5"/>
<text text-anchor="middle" x="225" y="-63.5" font-family="Helvetica,sans-Serif" font-size="10.00">stdio.h</text>
</g>
<!-- Node0&#45;&gt;Node2 -->
<g id="edge2" class="edge"><title>Node0&#45;&gt;Node2</title>
<path fill="none" stroke="midnightblue" d="M251.716,-112.083C247.289,-104.613 240.837,-93.7244 235.382,-84.5199"/>
<polygon fill="midnightblue" stroke="midnightblue" points="238.295,-82.5697 230.186,-75.7511 232.273,-86.1383 238.295,-82.5697"/>
</g>
<!-- Node3 -->
<g id="node4" class="node"><title>Node3</title>
<polygon fill="white" stroke="#bfbfbf" points="152.5,-0.5 152.5,-19.5 195.5,-19.5 195.5,-0.5 152.5,-0.5"/>
<text text-anchor="middle" x="174" y="-7.5" font-family="Helvetica,sans-Serif" font-size="10.00">gl\gl.h</text>
</g>
<!-- Node0&#45;&gt;Node3 -->
<g id="edge3" class="edge"><title>Node0&#45;&gt;Node3</title>
<path fill="none" stroke="midnightblue" d="M238.686,-112.459C224.262,-104.833 204.7,-92.3472 193,-76 183.271,-62.4059 178.488,-43.8608 176.158,-30.058"/>
<polygon fill="midnightblue" stroke="midnightblue" points="179.574,-29.2112 174.723,-19.7919 172.641,-30.1802 179.574,-29.2112"/>
</g>
<!-- Node4 -->
<g id="node5" class="node"><title>Node4</title>
<polygon fill="white" stroke="#bfbfbf" points="266,-56.5 266,-75.5 314,-75.5 314,-56.5 266,-56.5"/>
<text text-anchor="middle" x="290" y="-63.5" font-family="Helvetica,sans-Serif" font-size="10.00">gl\glu.h</text>
</g>
<!-- Node0&#45;&gt;Node4 -->
<g id="edge4" class="edge"><title>Node0&#45;&gt;Node4</title>
<path fill="none" stroke="midnightblue" d="M262.449,-112.083C267.014,-104.613 273.668,-93.7244 279.293,-84.5199"/>
<polygon fill="midnightblue" stroke="midnightblue" points="282.424,-86.109 284.652,-75.7511 276.451,-82.4588 282.424,-86.109"/>
</g>
<!-- Node5 -->
<g id="node6" class="node"><title>Node5</title>
<polygon fill="white" stroke="#bfbfbf" points="332.5,-56.5 332.5,-75.5 415.5,-75.5 415.5,-56.5 332.5,-56.5"/>
<text text-anchor="middle" x="374" y="-63.5" font-family="Helvetica,sans-Serif" font-size="10.00">cameralibrary.h</text>
</g>
<!-- Node0&#45;&gt;Node5 -->
<g id="edge5" class="edge"><title>Node0&#45;&gt;Node5</title>
<path fill="none" stroke="midnightblue" d="M275.539,-112.444C294.623,-103.636 324.575,-89.8116 346.436,-79.722"/>
<polygon fill="midnightblue" stroke="midnightblue" points="347.935,-82.8849 355.548,-75.5164 345.001,-76.5292 347.935,-82.8849"/>
</g>
<!-- Node6 -->
<g id="node7" class="node"><title>Node6</title>
<polygon fill="white" stroke="#bfbfbf" points="433.5,-56.5 433.5,-75.5 528.5,-75.5 528.5,-56.5 433.5,-56.5"/>
<text text-anchor="middle" x="481" y="-63.5" font-family="Helvetica,sans-Serif" font-size="10.00">cameramanager.h</text>
</g>
<!-- Node0&#45;&gt;Node6 -->
<g id="edge6" class="edge"><title>Node0&#45;&gt;Node6</title>
<path fill="none" stroke="midnightblue" d="M292.493,-112.444C331.324,-103.083 393.656,-88.0561 435.918,-77.868"/>
<polygon fill="midnightblue" stroke="midnightblue" points="436.771,-81.2626 445.673,-75.5164 435.131,-74.4576 436.771,-81.2626"/>
</g>
<!-- Node7 -->
<g id="node8" class="node"><title>Node7</title>
<polygon fill="white" stroke="#bfbfbf" points="546.5,-56.5 546.5,-75.5 593.5,-75.5 593.5,-56.5 546.5,-56.5"/>
<text text-anchor="middle" x="570" y="-63.5" font-family="Helvetica,sans-Serif" font-size="10.00">math.h</text>
</g>
<!-- Node0&#45;&gt;Node7 -->
<g id="edge7" class="edge"><title>Node0&#45;&gt;Node7</title>
<path fill="none" stroke="midnightblue" d="M324.12,-112.47C378.961,-104.994 458.639,-92.9807 536.353,-76.1738"/>
<polygon fill="midnightblue" stroke="midnightblue" points="537.293,-79.551 546.311,-73.991 535.794,-72.7133 537.293,-79.551"/>
</g>
<!-- Node8 -->
<g id="node9" class="node"><title>Node8</title>
<g id="a_node9"><a xlink:href="supportcode_8h.html" target="_top" xlink:title="supportcode.h">
<polygon fill="white" stroke="black" points="68,-56.5 68,-75.5 146,-75.5 146,-56.5 68,-56.5"/>
<text text-anchor="middle" x="107" y="-63.5" font-family="Helvetica,sans-Serif" font-size="10.00">supportcode.h</text>
</a>
</g>
</g>
<!-- Node0&#45;&gt;Node8 -->
<g id="edge8" class="edge"><title>Node0&#45;&gt;Node8</title>
<path fill="none" stroke="midnightblue" d="M233.232,-112.444C208.107,-103.399 168.289,-89.064 140.1,-78.9158"/>
<polygon fill="midnightblue" stroke="midnightblue" points="141.251,-75.6106 130.657,-75.5164 138.88,-82.1968 141.251,-75.6106"/>
</g>
<!-- Node8&#45;&gt;Node1 -->
<g id="edge9" class="edge"><title>Node8&#45;&gt;Node1</title>
<path fill="none" stroke="midnightblue" d="M94.7893,-56.324C83.2241,-48.1066 65.6246,-35.6017 51.8393,-25.8069"/>
<polygon fill="midnightblue" stroke="midnightblue" points="53.612,-22.7729 43.4329,-19.8339 49.5575,-28.4791 53.612,-22.7729"/>
</g>
<!-- Node8&#45;&gt;Node3 -->
<g id="edge10" class="edge"><title>Node8&#45;&gt;Node3</title>
<path fill="none" stroke="midnightblue" d="M117.765,-56.324C127.766,-48.2631 142.887,-36.0765 154.93,-26.3695"/>
<polygon fill="midnightblue" stroke="midnightblue" points="157.45,-28.8343 163.039,-19.8339 153.057,-23.3841 157.45,-28.8343"/>
</g>
<!-- Node9 -->
<g id="node10" class="node"><title>Node9</title>
<polygon fill="white" stroke="#bfbfbf" points="80,-0.5 80,-19.5 134,-19.5 134,-0.5 80,-0.5"/>
<text text-anchor="middle" x="107" y="-7.5" font-family="Helvetica,sans-Serif" font-size="10.00">bitmap.h</text>
</g>
<!-- Node8&#45;&gt;Node9 -->
<g id="edge11" class="edge"><title>Node8&#45;&gt;Node9</title>
<path fill="none" stroke="midnightblue" d="M107,-56.083C107,-49.0059 107,-38.8611 107,-29.9865"/>
<polygon fill="midnightblue" stroke="midnightblue" points="110.5,-29.751 107,-19.7511 103.5,-29.7511 110.5,-29.751"/>
</g>
</g>
</svg>
