<?xml version="1.0" encoding="UTF-8" standalone="no"?>
<!DOCTYPE svg PUBLIC "-//W3C//DTD SVG 1.1//EN"
 "http://www.w3.org/Graphics/SVG/1.1/DTD/svg11.dtd">
<!-- Generated by graphviz version 2.38.0 (20140413.2041)
 -->
<!-- Title: FullscreenToggle Pages: 1 -->
<svg width="468pt" height="142pt"
 viewBox="0.00 0.00 468.00 142.00" xmlns="http://www.w3.org/2000/svg" xmlns:xlink="http://www.w3.org/1999/xlink">
<g id="graph0" class="graph" transform="scale(1 1) rotate(0) translate(4 138)">
<title>FullscreenToggle</title>
<polygon fill="white" stroke="none" points="-4,4 -4,-138 464,-138 464,4 -4,4"/>
<!-- Node30 -->
<g id="node1" class="node"><title>Node30</title>
<polygon fill="#bfbfbf" stroke="black" points="0,-95.5 0,-114.5 90,-114.5 90,-95.5 0,-95.5"/>
<text text-anchor="middle" x="45" y="-102.5" font-family="Helvetica,sans-Serif" font-size="10.00">FullscreenToggle</text>
</g>
<!-- Node31 -->
<g id="node2" class="node"><title>Node31</title>
<g id="a_node2"><a xlink:href="supportcode_8cpp.html#a4709a40ac779c9bbb341a15554eae549" target="_top" xlink:title="/&lt; Properly Kill The Window ">
<polygon fill="white" stroke="black" points="259,-114.5 259,-133.5 335,-133.5 335,-114.5 259,-114.5"/>
<text text-anchor="middle" x="297" y="-121.5" font-family="Helvetica,sans-Serif" font-size="10.00">CloseWindow</text>
</a>
</g>
</g>
<!-- Node30&#45;&gt;Node31 -->
<g id="edge1" class="edge"><title>Node30&#45;&gt;Node31</title>
<path fill="none" stroke="midnightblue" d="M90.1195,-108.353C134.595,-111.733 203.011,-116.933 248.616,-120.399"/>
<polygon fill="midnightblue" stroke="midnightblue" points="248.6,-123.908 258.836,-121.176 249.13,-116.928 248.6,-123.908"/>
</g>
<!-- Node32 -->
<g id="node3" class="node"><title>Node32</title>
<g id="a_node3"><a xlink:href="supportcode_8cpp.html#acd4be192aca2369a87f51d952150a77b" target="_top" xlink:title="CreateAppWindow">
<polygon fill="white" stroke="black" points="126,-76.5 126,-95.5 223,-95.5 223,-76.5 126,-76.5"/>
<text text-anchor="middle" x="174.5" y="-83.5" font-family="Helvetica,sans-Serif" font-size="10.00">CreateAppWindow</text>
</a>
</g>
</g>
<!-- Node30&#45;&gt;Node32 -->
<g id="edge2" class="edge"><title>Node30&#45;&gt;Node32</title>
<path fill="none" stroke="midnightblue" d="M90.2355,-98.408C98.5067,-97.1755 107.263,-95.8706 115.869,-94.5881"/>
<polygon fill="midnightblue" stroke="midnightblue" points="116.49,-98.0343 125.865,-93.0985 115.458,-91.1108 116.49,-98.0343"/>
</g>
<!-- Node32&#45;&gt;Node31 -->
<g id="edge5" class="edge"><title>Node32&#45;&gt;Node31</title>
<path fill="none" stroke="midnightblue" d="M205.907,-95.589C221.035,-100.359 239.52,-106.189 255.8,-111.323"/>
<polygon fill="midnightblue" stroke="midnightblue" points="255.013,-114.744 265.602,-114.414 257.118,-108.069 255.013,-114.744"/>
</g>
<!-- Node33 -->
<g id="node4" class="node"><title>Node33</title>
<g id="a_node4"><a xlink:href="supportcode_8cpp.html#ae749e989b362e19783c7af4a2bf46c95" target="_top" xlink:title="/&lt; Additional Message Information ">
<polygon fill="white" stroke="black" points="268.5,-76.5 268.5,-95.5 325.5,-95.5 325.5,-76.5 268.5,-76.5"/>
<text text-anchor="middle" x="297" y="-83.5" font-family="Helvetica,sans-Serif" font-size="10.00">WndProc</text>
</a>
</g>
</g>
<!-- Node32&#45;&gt;Node33 -->
<g id="edge3" class="edge"><title>Node32&#45;&gt;Node33</title>
<path fill="none" stroke="midnightblue" d="M223.125,-86C234.79,-86 247.117,-86 258.247,-86"/>
<polygon fill="midnightblue" stroke="midnightblue" points="258.492,-89.5001 268.492,-86 258.492,-82.5001 258.492,-89.5001"/>
</g>
<!-- Node34 -->
<g id="node5" class="node"><title>Node34</title>
<g id="a_node5"><a xlink:href="supportcode_8cpp.html#a87bb84d489df61ed7b0c002584fd984f" target="_top" xlink:title="/&lt; Resize And Initialize The GL Window ">
<polygon fill="white" stroke="black" points="371,-57.5 371,-76.5 460,-76.5 460,-57.5 371,-57.5"/>
<text text-anchor="middle" x="415.5" y="-64.5" font-family="Helvetica,sans-Serif" font-size="10.00">ReSizeGLScene</text>
</a>
</g>
</g>
<!-- Node32&#45;&gt;Node34 -->
<g id="edge6" class="edge"><title>Node32&#45;&gt;Node34</title>
<path fill="none" stroke="midnightblue" d="M209.331,-76.4925C224.402,-72.7279 242.453,-68.8588 259,-67 292.598,-63.2258 330.537,-63.1442 360.529,-64.0457"/>
<polygon fill="midnightblue" stroke="midnightblue" points="360.671,-67.5526 370.787,-64.4011 360.914,-60.5568 360.671,-67.5526"/>
</g>
<!-- Node35 -->
<g id="node6" class="node"><title>Node35</title>
<g id="a_node6"><a xlink:href="supportcode_8cpp.html#aa4c387d3f1ebce6d57684b6a10c9b0ae" target="_top" xlink:title="/&lt; All Setup For OpenGL Goes Here ">
<polygon fill="white" stroke="black" points="276,-0.5 276,-19.5 318,-19.5 318,-0.5 276,-0.5"/>
<text text-anchor="middle" x="297" y="-7.5" font-family="Helvetica,sans-Serif" font-size="10.00">InitGL</text>
</a>
</g>
</g>
<!-- Node32&#45;&gt;Node35 -->
<g id="edge7" class="edge"><title>Node32&#45;&gt;Node35</title>
<path fill="none" stroke="midnightblue" d="M190.761,-76.3745C211.314,-63.4117 248.095,-40.2139 272.273,-24.9646"/>
<polygon fill="midnightblue" stroke="midnightblue" points="274.271,-27.8424 280.863,-19.5473 270.537,-21.9216 274.271,-27.8424"/>
</g>
<!-- Node33&#45;&gt;Node34 -->
<g id="edge4" class="edge"><title>Node33&#45;&gt;Node34</title>
<path fill="none" stroke="midnightblue" d="M325.609,-81.4973C336.122,-79.7826 348.498,-77.7643 360.619,-75.7875"/>
<polygon fill="midnightblue" stroke="midnightblue" points="361.389,-79.2083 370.695,-74.1442 360.262,-72.2995 361.389,-79.2083"/>
</g>
</g>
</svg>
