<?xml version="1.0" encoding="UTF-8" standalone="no"?>
<!DOCTYPE svg PUBLIC "-//W3C//DTD SVG 1.1//EN"
 "http://www.w3.org/Graphics/SVG/1.1/DTD/svg11.dtd">
<!-- Generated by graphviz version 2.38.0 (20140413.2041)
 -->
<!-- Title: ReSizeGLScene Pages: 1 -->
<svg width="449pt" height="47pt"
 viewBox="0.00 0.00 449.00 47.00" xmlns="http://www.w3.org/2000/svg" xmlns:xlink="http://www.w3.org/1999/xlink">
<g id="graph0" class="graph" transform="scale(1 1) rotate(0) translate(4 43)">
<title>ReSizeGLScene</title>
<polygon fill="white" stroke="none" points="-4,4 -4,-43 445,-43 445,4 -4,4"/>
<!-- Node71 -->
<g id="node1" class="node"><title>Node71</title>
<polygon fill="#bfbfbf" stroke="black" points="0,-0.5 0,-19.5 89,-19.5 89,-0.5 0,-0.5"/>
<text text-anchor="middle" x="44.5" y="-7.5" font-family="Helvetica,sans-Serif" font-size="10.00">ReSizeGLScene</text>
</g>
<!-- Node72 -->
<g id="node2" class="node"><title>Node72</title>
<g id="a_node2"><a xlink:href="supportcode_8h.html#a9135ea2a0d6fce68ba3b858226a31a4f" target="_top" xlink:title="/&lt; Additional Message Information ">
<polygon fill="white" stroke="black" points="125,-19.5 125,-38.5 182,-38.5 182,-19.5 125,-19.5"/>
<text text-anchor="middle" x="153.5" y="-26.5" font-family="Helvetica,sans-Serif" font-size="10.00">WndProc</text>
</a>
</g>
</g>
<!-- Node71&#45;&gt;Node72 -->
<g id="edge1" class="edge"><title>Node71&#45;&gt;Node72</title>
<path fill="none" stroke="midnightblue" d="M99.094,-19.5167C108.062,-21.1091 117.027,-22.701 124.98,-24.1132"/>
<polygon fill="midnightblue" stroke="midnightblue" points="99.4789,-16.0304 89.021,-17.728 98.255,-22.9226 99.4789,-16.0304"/>
</g>
<!-- Node73 -->
<g id="node3" class="node"><title>Node73</title>
<g id="a_node3"><a xlink:href="supportcode_8h.html#acd4be192aca2369a87f51d952150a77b" target="_top" xlink:title="CreateAppWindow">
<polygon fill="white" stroke="black" points="218,-0.5 218,-19.5 315,-19.5 315,-0.5 218,-0.5"/>
<text text-anchor="middle" x="266.5" y="-7.5" font-family="Helvetica,sans-Serif" font-size="10.00">CreateAppWindow</text>
</a>
</g>
</g>
<!-- Node71&#45;&gt;Node73 -->
<g id="edge4" class="edge"><title>Node71&#45;&gt;Node73</title>
<path fill="none" stroke="midnightblue" d="M99.591,-10C135.744,-10 182.873,-10 217.657,-10"/>
<polygon fill="midnightblue" stroke="midnightblue" points="99.228,-6.5001 89.228,-10 99.2279,-13.5001 99.228,-6.5001"/>
</g>
<!-- Node72&#45;&gt;Node73 -->
<g id="edge2" class="edge"><title>Node72&#45;&gt;Node73</title>
<path fill="none" stroke="midnightblue" d="M192.268,-22.5353C200.492,-21.1275 209.296,-19.6204 217.847,-18.1568"/>
<polygon fill="midnightblue" stroke="midnightblue" points="191.49,-19.1174 182.224,-24.2545 192.671,-26.0171 191.49,-19.1174"/>
</g>
<!-- Node74 -->
<g id="node4" class="node"><title>Node74</title>
<g id="a_node4"><a xlink:href="supportcode_8h.html#a79e747d7a0c4b5bad264e5a27c00baa5" target="_top" xlink:title="FullscreenToggle">
<polygon fill="white" stroke="black" points="351,-0.5 351,-19.5 441,-19.5 441,-0.5 351,-0.5"/>
<text text-anchor="middle" x="396" y="-7.5" font-family="Helvetica,sans-Serif" font-size="10.00">FullscreenToggle</text>
</a>
</g>
</g>
<!-- Node73&#45;&gt;Node74 -->
<g id="edge3" class="edge"><title>Node73&#45;&gt;Node74</title>
<path fill="none" stroke="midnightblue" d="M325.536,-10C333.983,-10 342.566,-10 350.683,-10"/>
<polygon fill="midnightblue" stroke="midnightblue" points="325.339,-6.5001 315.339,-10 325.339,-13.5001 325.339,-6.5001"/>
</g>
</g>
</svg>
