<?xml version="1.0" encoding="UTF-8" standalone="no"?>
<!DOCTYPE svg PUBLIC "-//W3C//DTD SVG 1.1//EN"
 "http://www.w3.org/Graphics/SVG/1.1/DTD/svg11.dtd">
<!-- Generated by graphviz version 2.38.0 (20140413.2041)
 -->
<!-- Title: main Pages: 1 -->
<svg width="358pt" height="242pt"
 viewBox="0.00 0.00 358.00 242.47" xmlns="http://www.w3.org/2000/svg" xmlns:xlink="http://www.w3.org/1999/xlink">
<g id="graph0" class="graph" transform="scale(1 1) rotate(0) translate(4 238.475)">
<title>main</title>
<polygon fill="white" stroke="none" points="-4,4 -4,-238.475 354,-238.475 354,4 -4,4"/>
<!-- Node46 -->
<g id="node1" class="node"><title>Node46</title>
<polygon fill="#bfbfbf" stroke="black" points="0,-133.5 0,-152.5 38,-152.5 38,-133.5 0,-133.5"/>
<text text-anchor="middle" x="19" y="-140.5" font-family="Helvetica,sans-Serif" font-size="10.00">main</text>
</g>
<!-- Node47 -->
<g id="node2" class="node"><title>Node47</title>
<g id="a_node2"><a xlink:href="classcomm_object.html#aec354c7099b3039083cc4224e071e022" target="_top" xlink:title="commObject::addLog">
<polygon fill="white" stroke="black" points="227,-190.5 227,-209.5 337,-209.5 337,-190.5 227,-190.5"/>
<text text-anchor="middle" x="282" y="-197.5" font-family="Helvetica,sans-Serif" font-size="10.00">commObject::addLog</text>
</a>
</g>
</g>
<!-- Node46&#45;&gt;Node47 -->
<g id="edge1" class="edge"><title>Node46&#45;&gt;Node47</title>
<path fill="none" stroke="midnightblue" d="M23.4679,-152.737C30.1639,-169.862 46.6728,-204.894 74,-219 130.259,-248.041 206.623,-228.356 249.116,-213.089"/>
<polygon fill="midnightblue" stroke="midnightblue" points="250.509,-216.305 258.655,-209.53 248.062,-209.747 250.509,-216.305"/>
</g>
<!-- Node48 -->
<g id="node3" class="node"><title>Node48</title>
<g id="a_node3"><a xlink:href="main_8cpp.html#ad19da4e648bbdc80d3123eb94711588e" target="_top" xlink:title="setHeadingOffset">
<polygon fill="white" stroke="black" points="80.5,-38.5 80.5,-57.5 171.5,-57.5 171.5,-38.5 80.5,-38.5"/>
<text text-anchor="middle" x="126" y="-45.5" font-family="Helvetica,sans-Serif" font-size="10.00">setHeadingOffset</text>
</a>
</g>
</g>
<!-- Node46&#45;&gt;Node48 -->
<g id="edge2" class="edge"><title>Node46&#45;&gt;Node48</title>
<path fill="none" stroke="midnightblue" d="M24.422,-133.43C32.2452,-117.489 49.9932,-85.4338 74,-67 76.3185,-65.2197 78.8215,-63.5922 81.4305,-62.1066"/>
<polygon fill="midnightblue" stroke="midnightblue" points="83.1751,-65.1488 90.5953,-57.5863 80.0786,-58.8709 83.1751,-65.1488"/>
</g>
<!-- Node49 -->
<g id="node4" class="node"><title>Node49</title>
<g id="a_node4"><a xlink:href="main_8cpp.html#af39fa6c3a36ad6bc24a327db7a9d73c2" target="_top" xlink:title="loadCameraPosition">
<polygon fill="white" stroke="black" points="74,-190.5 74,-209.5 178,-209.5 178,-190.5 74,-190.5"/>
<text text-anchor="middle" x="126" y="-197.5" font-family="Helvetica,sans-Serif" font-size="10.00">loadCameraPosition</text>
</a>
</g>
</g>
<!-- Node46&#45;&gt;Node49 -->
<g id="edge3" class="edge"><title>Node46&#45;&gt;Node49</title>
<path fill="none" stroke="midnightblue" d="M31.8626,-152.697C42.4375,-161.004 58.5841,-172.878 74,-181 77.7617,-182.982 81.7768,-184.854 85.84,-186.594"/>
<polygon fill="midnightblue" stroke="midnightblue" points="84.7275,-189.919 95.3113,-190.403 87.3393,-183.425 84.7275,-189.919"/>
</g>
<!-- Node50 -->
<g id="node5" class="node"><title>Node50</title>
<g id="a_node5"><a xlink:href="main_8cpp.html#ad39626702ff983d5fdab4b703bfaf964" target="_top" xlink:title="loadCalibration">
<polygon fill="white" stroke="black" points="86,-152.5 86,-171.5 166,-171.5 166,-152.5 86,-152.5"/>
<text text-anchor="middle" x="126" y="-159.5" font-family="Helvetica,sans-Serif" font-size="10.00">loadCalibration</text>
</a>
</g>
</g>
<!-- Node46&#45;&gt;Node50 -->
<g id="edge5" class="edge"><title>Node46&#45;&gt;Node50</title>
<path fill="none" stroke="midnightblue" d="M38.2896,-146.31C48.684,-148.19 62.2472,-150.645 75.5487,-153.052"/>
<polygon fill="midnightblue" stroke="midnightblue" points="75.149,-156.536 85.6125,-154.873 76.3955,-149.648 75.149,-156.536"/>
</g>
<!-- Node51 -->
<g id="node6" class="node"><title>Node51</title>
<g id="a_node6"><a xlink:href="main_8cpp.html#a56c7f641859cb2b6b99b0947d03be800" target="_top" xlink:title="loadMarkerConfig">
<polygon fill="white" stroke="black" points="80,-114.5 80,-133.5 172,-133.5 172,-114.5 80,-114.5"/>
<text text-anchor="middle" x="126" y="-121.5" font-family="Helvetica,sans-Serif" font-size="10.00">loadMarkerConfig</text>
</a>
</g>
</g>
<!-- Node46&#45;&gt;Node51 -->
<g id="edge7" class="edge"><title>Node46&#45;&gt;Node51</title>
<path fill="none" stroke="midnightblue" d="M38.2896,-139.69C47.1967,-138.079 58.4307,-136.046 69.833,-133.983"/>
<polygon fill="midnightblue" stroke="midnightblue" points="70.6252,-137.396 79.8421,-132.171 69.3787,-130.508 70.6252,-137.396"/>
</g>
<!-- Node56 -->
<g id="node11" class="node"><title>Node56</title>
<g id="a_node11"><a xlink:href="main_8cpp.html#a847c0fbd3e513fb76ff145b31a9f5c37" target="_top" xlink:title="testAlgorithms">
<polygon fill="white" stroke="black" points="86,-76.5 86,-95.5 166,-95.5 166,-76.5 86,-76.5"/>
<text text-anchor="middle" x="126" y="-83.5" font-family="Helvetica,sans-Serif" font-size="10.00">testAlgorithms</text>
</a>
</g>
</g>
<!-- Node46&#45;&gt;Node56 -->
<g id="edge13" class="edge"><title>Node46&#45;&gt;Node56</title>
<path fill="none" stroke="midnightblue" d="M31.8626,-133.303C42.4375,-124.996 58.5841,-113.122 74,-105 77.7617,-103.018 81.7768,-101.146 85.84,-99.4059"/>
<polygon fill="midnightblue" stroke="midnightblue" points="87.3393,-102.575 95.3113,-95.5971 84.7275,-96.0809 87.3393,-102.575"/>
</g>
<!-- Node49&#45;&gt;Node47 -->
<g id="edge4" class="edge"><title>Node49&#45;&gt;Node47</title>
<path fill="none" stroke="midnightblue" d="M178.28,-200C190.569,-200 203.846,-200 216.644,-200"/>
<polygon fill="midnightblue" stroke="midnightblue" points="216.776,-203.5 226.776,-200 216.776,-196.5 216.776,-203.5"/>
</g>
<!-- Node50&#45;&gt;Node47 -->
<g id="edge6" class="edge"><title>Node50&#45;&gt;Node47</title>
<path fill="none" stroke="midnightblue" d="M165.861,-171.589C186.091,-176.581 211.021,-182.732 232.504,-188.033"/>
<polygon fill="midnightblue" stroke="midnightblue" points="231.871,-191.482 242.419,-190.48 233.548,-184.686 231.871,-191.482"/>
</g>
<!-- Node51&#45;&gt;Node47 -->
<g id="edge8" class="edge"><title>Node51&#45;&gt;Node47</title>
<path fill="none" stroke="midnightblue" d="M159.374,-133.519C165.81,-136.101 172.326,-139.246 178,-143 197.402,-155.837 194.098,-168.952 214,-181 217.607,-183.184 221.475,-185.125 225.465,-186.85"/>
<polygon fill="midnightblue" stroke="midnightblue" points="224.344,-190.168 234.934,-190.492 226.857,-183.635 224.344,-190.168"/>
</g>
<!-- Node52 -->
<g id="node7" class="node"><title>Node52</title>
<g id="a_node7"><a xlink:href="classcomm_object.html#a7552116eb5e18c49c6dcf943de29af7a" target="_top" xlink:title="commObject::enableP3P">
<polygon fill="white" stroke="black" points="219.5,-152.5 219.5,-171.5 344.5,-171.5 344.5,-152.5 219.5,-152.5"/>
<text text-anchor="middle" x="282" y="-159.5" font-family="Helvetica,sans-Serif" font-size="10.00">commObject::enableP3P</text>
</a>
</g>
</g>
<!-- Node51&#45;&gt;Node52 -->
<g id="edge9" class="edge"><title>Node51&#45;&gt;Node52</title>
<path fill="none" stroke="midnightblue" d="M165.861,-133.589C186.091,-138.581 211.021,-144.732 232.504,-150.033"/>
<polygon fill="midnightblue" stroke="midnightblue" points="231.871,-153.482 242.419,-152.48 233.548,-146.686 231.871,-153.482"/>
</g>
<!-- Node53 -->
<g id="node8" class="node"><title>Node53</title>
<g id="a_node8"><a xlink:href="main_8cpp.html#a2104a5d9d6b9f1e29bc4cd858c59882e" target="_top" xlink:title="projectCoordinateFrame">
<polygon fill="white" stroke="black" points="222,-114.5 222,-133.5 342,-133.5 342,-114.5 222,-114.5"/>
<text text-anchor="middle" x="282" y="-121.5" font-family="Helvetica,sans-Serif" font-size="10.00">projectCoordinateFrame</text>
</a>
</g>
</g>
<!-- Node51&#45;&gt;Node53 -->
<g id="edge10" class="edge"><title>Node51&#45;&gt;Node53</title>
<path fill="none" stroke="midnightblue" d="M172.372,-124C184.745,-124 198.436,-124 211.81,-124"/>
<polygon fill="midnightblue" stroke="midnightblue" points="211.948,-127.5 221.948,-124 211.948,-120.5 211.948,-127.5"/>
</g>
<!-- Node54 -->
<g id="node9" class="node"><title>Node54</title>
<g id="a_node9"><a xlink:href="main_8cpp.html#a3e3cc959a7ab6f93ea52863d86373ce5" target="_top" xlink:title="Mat2QPixmap">
<polygon fill="white" stroke="black" points="242.5,-76.5 242.5,-95.5 321.5,-95.5 321.5,-76.5 242.5,-76.5"/>
<text text-anchor="middle" x="282" y="-83.5" font-family="Helvetica,sans-Serif" font-size="10.00">Mat2QPixmap</text>
</a>
</g>
</g>
<!-- Node51&#45;&gt;Node54 -->
<g id="edge11" class="edge"><title>Node51&#45;&gt;Node54</title>
<path fill="none" stroke="midnightblue" d="M165.861,-114.411C186.091,-109.419 211.021,-103.268 232.504,-97.9666"/>
<polygon fill="midnightblue" stroke="midnightblue" points="233.548,-101.314 242.419,-95.5201 231.871,-94.5177 233.548,-101.314"/>
</g>
<!-- Node55 -->
<g id="node10" class="node"><title>Node55</title>
<g id="a_node10"><a xlink:href="classcomm_object.html#a6f81522c2aa1668fa402f08710e6206b" target="_top" xlink:title="commObject::changeImage">
<polygon fill="white" stroke="black" points="214,-38.5 214,-57.5 350,-57.5 350,-38.5 214,-38.5"/>
<text text-anchor="middle" x="282" y="-45.5" font-family="Helvetica,sans-Serif" font-size="10.00">commObject::changeImage</text>
</a>
</g>
</g>
<!-- Node51&#45;&gt;Node55 -->
<g id="edge12" class="edge"><title>Node51&#45;&gt;Node55</title>
<path fill="none" stroke="midnightblue" d="M159.374,-114.481C165.81,-111.899 172.326,-108.754 178,-105 197.402,-92.1627 194.098,-79.0482 214,-67 217.607,-64.8163 221.475,-62.875 225.465,-61.1505"/>
<polygon fill="midnightblue" stroke="midnightblue" points="226.857,-64.3651 234.934,-57.5082 224.344,-57.8318 226.857,-64.3651"/>
</g>
<!-- Node56&#45;&gt;Node47 -->
<g id="edge14" class="edge"><title>Node56&#45;&gt;Node47</title>
<path fill="none" stroke="midnightblue" d="M163.563,-95.6173C168.803,-98.0867 173.823,-101.167 178,-105 205.537,-130.271 185.471,-156.854 214,-181 216.019,-182.709 218.182,-184.264 220.45,-185.68"/>
<polygon fill="midnightblue" stroke="midnightblue" points="219.149,-188.949 229.633,-190.478 222.391,-182.745 219.149,-188.949"/>
</g>
<!-- Node56&#45;&gt;Node53 -->
<g id="edge15" class="edge"><title>Node56&#45;&gt;Node53</title>
<path fill="none" stroke="midnightblue" d="M165.861,-95.589C186.091,-100.581 211.021,-106.732 232.504,-112.033"/>
<polygon fill="midnightblue" stroke="midnightblue" points="231.871,-115.482 242.419,-114.48 233.548,-108.686 231.871,-115.482"/>
</g>
<!-- Node56&#45;&gt;Node54 -->
<g id="edge16" class="edge"><title>Node56&#45;&gt;Node54</title>
<path fill="none" stroke="midnightblue" d="M166.259,-86C186.324,-86 210.931,-86 232.205,-86"/>
<polygon fill="midnightblue" stroke="midnightblue" points="232.346,-89.5001 242.346,-86 232.346,-82.5001 232.346,-89.5001"/>
</g>
<!-- Node56&#45;&gt;Node55 -->
<g id="edge17" class="edge"><title>Node56&#45;&gt;Node55</title>
<path fill="none" stroke="midnightblue" d="M165.861,-76.411C186.091,-71.4191 211.021,-65.2676 232.504,-59.9666"/>
<polygon fill="midnightblue" stroke="midnightblue" points="233.548,-63.3139 242.419,-57.5201 231.871,-56.5177 233.548,-63.3139"/>
</g>
<!-- Node57 -->
<g id="node12" class="node"><title>Node57</title>
<g id="a_node12"><a xlink:href="main_8cpp.html#af6430ad2592a955a3618549547dfc5be" target="_top" xlink:title="drawPositionText">
<polygon fill="white" stroke="black" points="236.5,-0.5 236.5,-19.5 327.5,-19.5 327.5,-0.5 236.5,-0.5"/>
<text text-anchor="middle" x="282" y="-7.5" font-family="Helvetica,sans-Serif" font-size="10.00">drawPositionText</text>
</a>
</g>
</g>
<!-- Node56&#45;&gt;Node57 -->
<g id="edge18" class="edge"><title>Node56&#45;&gt;Node57</title>
<path fill="none" stroke="midnightblue" d="M159.374,-76.4812C165.81,-73.8992 172.326,-70.7539 178,-67 197.402,-54.1627 194.098,-41.0482 214,-29 218.053,-26.5463 222.435,-24.3985 226.951,-22.5206"/>
<polygon fill="midnightblue" stroke="midnightblue" points="228.188,-25.795 236.344,-19.0333 225.751,-19.2326 228.188,-25.795"/>
</g>
</g>
</svg>
