<?xml version="1.0" encoding="UTF-8" standalone="no"?>
<!DOCTYPE svg PUBLIC "-//W3C//DTD SVG 1.1//EN"
 "http://www.w3.org/Graphics/SVG/1.1/DTD/svg11.dtd">
<!-- Generated by graphviz version 2.38.0 (20140413.2041)
 -->
<!-- Title: PopWaitingDialog Pages: 1 -->
<svg width="216pt" height="66pt"
 viewBox="0.00 0.00 216.00 66.00" xmlns="http://www.w3.org/2000/svg" xmlns:xlink="http://www.w3.org/1999/xlink">
<g id="graph0" class="graph" transform="scale(1 1) rotate(0) translate(4 62)">
<title>PopWaitingDialog</title>
<polygon fill="white" stroke="none" points="-4,4 -4,-62 212,-62 212,4 -4,4"/>
<!-- Node37 -->
<g id="node1" class="node"><title>Node37</title>
<polygon fill="#bfbfbf" stroke="black" points="0,-19.5 0,-38.5 94,-38.5 94,-19.5 0,-19.5"/>
<text text-anchor="middle" x="47" y="-26.5" font-family="Helvetica,sans-Serif" font-size="10.00">PopWaitingDialog</text>
</g>
<!-- Node38 -->
<g id="node2" class="node"><title>Node38</title>
<g id="a_node2"><a xlink:href="supportcode_8cpp.html#a17f99e323714d00ed14865018691574c" target="_top" xlink:title="CBTHookProc">
<polygon fill="white" stroke="black" points="130,-38.5 130,-57.5 208,-57.5 208,-38.5 130,-38.5"/>
<text text-anchor="middle" x="169" y="-45.5" font-family="Helvetica,sans-Serif" font-size="10.00">CBTHookProc</text>
</a>
</g>
</g>
<!-- Node37&#45;&gt;Node38 -->
<g id="edge1" class="edge"><title>Node37&#45;&gt;Node38</title>
<path fill="none" stroke="midnightblue" d="M94.0519,-36.2916C102.416,-37.6159 111.163,-39.0008 119.593,-40.3355"/>
<polygon fill="midnightblue" stroke="midnightblue" points="119.246,-43.8241 129.67,-41.9311 120.341,-36.9103 119.246,-43.8241"/>
</g>
<!-- Node39 -->
<g id="node3" class="node"><title>Node39</title>
<g id="a_node3"><a xlink:href="supportcode_8cpp.html#a07f77ba099d001c473f6748492e16dc5" target="_top" xlink:title="TimerProc">
<polygon fill="white" stroke="black" points="138.5,-0.5 138.5,-19.5 199.5,-19.5 199.5,-0.5 138.5,-0.5"/>
<text text-anchor="middle" x="169" y="-7.5" font-family="Helvetica,sans-Serif" font-size="10.00">TimerProc</text>
</a>
</g>
</g>
<!-- Node37&#45;&gt;Node39 -->
<g id="edge2" class="edge"><title>Node37&#45;&gt;Node39</title>
<path fill="none" stroke="midnightblue" d="M94.0519,-21.7084C105.272,-19.932 117.18,-18.0465 128.087,-16.3195"/>
<polygon fill="midnightblue" stroke="midnightblue" points="128.853,-19.7419 138.183,-14.721 127.759,-12.828 128.853,-19.7419"/>
</g>
</g>
</svg>
