<?xml version="1.0" encoding="UTF-8" standalone="no"?>
<!DOCTYPE svg PUBLIC "-//W3C//DTD SVG 1.1//EN"
 "http://www.w3.org/Graphics/SVG/1.1/DTD/svg11.dtd">
<!-- Generated by graphviz version 2.38.0 (20140413.2041)
 -->
<!-- Title: CreateAppWindow Pages: 1 -->
<svg width="342pt" height="142pt"
 viewBox="0.00 0.00 342.00 142.00" xmlns="http://www.w3.org/2000/svg" xmlns:xlink="http://www.w3.org/1999/xlink">
<g id="graph0" class="graph" transform="scale(1 1) rotate(0) translate(4 138)">
<title>CreateAppWindow</title>
<polygon fill="white" stroke="none" points="-4,4 -4,-138 338,-138 338,4 -4,4"/>
<!-- Node4 -->
<g id="node1" class="node"><title>Node4</title>
<polygon fill="#bfbfbf" stroke="black" points="0,-57.5 0,-76.5 97,-76.5 97,-57.5 0,-57.5"/>
<text text-anchor="middle" x="48.5" y="-64.5" font-family="Helvetica,sans-Serif" font-size="10.00">CreateAppWindow</text>
</g>
<!-- Node5 -->
<g id="node2" class="node"><title>Node5</title>
<g id="a_node2"><a xlink:href="supportcode_8cpp.html#ae749e989b362e19783c7af4a2bf46c95" target="_top" xlink:title="/&lt; Additional Message Information ">
<polygon fill="white" stroke="black" points="142.5,-114.5 142.5,-133.5 199.5,-133.5 199.5,-114.5 142.5,-114.5"/>
<text text-anchor="middle" x="171" y="-121.5" font-family="Helvetica,sans-Serif" font-size="10.00">WndProc</text>
</a>
</g>
</g>
<!-- Node4&#45;&gt;Node5 -->
<g id="edge1" class="edge"><title>Node4&#45;&gt;Node5</title>
<path fill="none" stroke="midnightblue" d="M69.669,-76.5405C89.0453,-85.7061 118.543,-99.6595 140.546,-110.068"/>
<polygon fill="midnightblue" stroke="midnightblue" points="139.229,-113.316 149.765,-114.428 142.222,-106.988 139.229,-113.316"/>
</g>
<!-- Node6 -->
<g id="node3" class="node"><title>Node6</title>
<g id="a_node3"><a xlink:href="supportcode_8cpp.html#a87bb84d489df61ed7b0c002584fd984f" target="_top" xlink:title="/&lt; Resize And Initialize The GL Window ">
<polygon fill="white" stroke="black" points="245,-95.5 245,-114.5 334,-114.5 334,-95.5 245,-95.5"/>
<text text-anchor="middle" x="289.5" y="-102.5" font-family="Helvetica,sans-Serif" font-size="10.00">ReSizeGLScene</text>
</a>
</g>
</g>
<!-- Node4&#45;&gt;Node6 -->
<g id="edge4" class="edge"><title>Node4&#45;&gt;Node6</title>
<path fill="none" stroke="midnightblue" d="M97.0045,-74.553C136.745,-80.8717 193.423,-89.8831 234.804,-96.4625"/>
<polygon fill="midnightblue" stroke="midnightblue" points="234.284,-99.9237 244.709,-98.0375 235.383,-93.0106 234.284,-99.9237"/>
</g>
<!-- Node7 -->
<g id="node4" class="node"><title>Node7</title>
<g id="a_node4"><a xlink:href="supportcode_8cpp.html#a4709a40ac779c9bbb341a15554eae549" target="_top" xlink:title="/&lt; Properly Kill The Window ">
<polygon fill="white" stroke="black" points="133,-38.5 133,-57.5 209,-57.5 209,-38.5 133,-38.5"/>
<text text-anchor="middle" x="171" y="-45.5" font-family="Helvetica,sans-Serif" font-size="10.00">CloseWindow</text>
</a>
</g>
</g>
<!-- Node4&#45;&gt;Node7 -->
<g id="edge3" class="edge"><title>Node4&#45;&gt;Node7</title>
<path fill="none" stroke="midnightblue" d="M97.1248,-59.4907C105.543,-58.1633 114.306,-56.7816 122.715,-55.4557"/>
<polygon fill="midnightblue" stroke="midnightblue" points="123.417,-58.8884 132.75,-53.8735 122.327,-51.9738 123.417,-58.8884"/>
</g>
<!-- Node8 -->
<g id="node5" class="node"><title>Node8</title>
<g id="a_node5"><a xlink:href="supportcode_8cpp.html#aa4c387d3f1ebce6d57684b6a10c9b0ae" target="_top" xlink:title="/&lt; All Setup For OpenGL Goes Here ">
<polygon fill="white" stroke="black" points="150,-0.5 150,-19.5 192,-19.5 192,-0.5 150,-0.5"/>
<text text-anchor="middle" x="171" y="-7.5" font-family="Helvetica,sans-Serif" font-size="10.00">InitGL</text>
</a>
</g>
</g>
<!-- Node4&#45;&gt;Node8 -->
<g id="edge5" class="edge"><title>Node4&#45;&gt;Node8</title>
<path fill="none" stroke="midnightblue" d="M69.669,-57.4595C89.0453,-48.2939 118.543,-34.3405 140.546,-23.9324"/>
<polygon fill="midnightblue" stroke="midnightblue" points="142.222,-27.0116 149.765,-19.5716 139.229,-20.6838 142.222,-27.0116"/>
</g>
<!-- Node5&#45;&gt;Node6 -->
<g id="edge2" class="edge"><title>Node5&#45;&gt;Node6</title>
<path fill="none" stroke="midnightblue" d="M199.609,-119.497C210.122,-117.783 222.498,-115.764 234.619,-113.787"/>
<polygon fill="midnightblue" stroke="midnightblue" points="235.389,-117.208 244.695,-112.144 234.262,-110.3 235.389,-117.208"/>
</g>
</g>
</svg>
