<?xml version="1.0" encoding="UTF-8" standalone="no"?>
<!DOCTYPE svg PUBLIC "-//W3C//DTD SVG 1.1//EN"
 "http://www.w3.org/Graphics/SVG/1.1/DTD/svg11.dtd">
<!-- Generated by graphviz version 2.38.0 (20140413.2041)
 -->
<!-- Title: InitGL Pages: 1 -->
<svg width="309pt" height="28pt"
 viewBox="0.00 0.00 309.00 28.00" xmlns="http://www.w3.org/2000/svg" xmlns:xlink="http://www.w3.org/1999/xlink">
<g id="graph0" class="graph" transform="scale(1 1) rotate(0) translate(4 24)">
<title>InitGL</title>
<polygon fill="white" stroke="none" points="-4,4 -4,-24 305,-24 305,4 -4,4"/>
<!-- Node41 -->
<g id="node1" class="node"><title>Node41</title>
<polygon fill="#bfbfbf" stroke="black" points="0,-0.5 0,-19.5 42,-19.5 42,-0.5 0,-0.5"/>
<text text-anchor="middle" x="21" y="-7.5" font-family="Helvetica,sans-Serif" font-size="10.00">InitGL</text>
</g>
<!-- Node42 -->
<g id="node2" class="node"><title>Node42</title>
<g id="a_node2"><a xlink:href="supportcode_8h.html#acd4be192aca2369a87f51d952150a77b" target="_top" xlink:title="CreateAppWindow">
<polygon fill="white" stroke="black" points="78,-0.5 78,-19.5 175,-19.5 175,-0.5 78,-0.5"/>
<text text-anchor="middle" x="126.5" y="-7.5" font-family="Helvetica,sans-Serif" font-size="10.00">CreateAppWindow</text>
</a>
</g>
</g>
<!-- Node41&#45;&gt;Node42 -->
<g id="edge1" class="edge"><title>Node41&#45;&gt;Node42</title>
<path fill="none" stroke="midnightblue" d="M52.6118,-10C60.4877,-10 69.1524,-10 77.6743,-10"/>
<polygon fill="midnightblue" stroke="midnightblue" points="52.4483,-6.5001 42.4483,-10 52.4482,-13.5001 52.4483,-6.5001"/>
</g>
<!-- Node43 -->
<g id="node3" class="node"><title>Node43</title>
<g id="a_node3"><a xlink:href="supportcode_8h.html#a79e747d7a0c4b5bad264e5a27c00baa5" target="_top" xlink:title="FullscreenToggle">
<polygon fill="white" stroke="black" points="211,-0.5 211,-19.5 301,-19.5 301,-0.5 211,-0.5"/>
<text text-anchor="middle" x="256" y="-7.5" font-family="Helvetica,sans-Serif" font-size="10.00">FullscreenToggle</text>
</a>
</g>
</g>
<!-- Node42&#45;&gt;Node43 -->
<g id="edge2" class="edge"><title>Node42&#45;&gt;Node43</title>
<path fill="none" stroke="midnightblue" d="M185.536,-10C193.983,-10 202.566,-10 210.683,-10"/>
<polygon fill="midnightblue" stroke="midnightblue" points="185.339,-6.5001 175.339,-10 185.339,-13.5001 185.339,-6.5001"/>
</g>
</g>
</svg>
