<?xml version="1.0" encoding="UTF-8" standalone="no"?>
<!DOCTYPE svg PUBLIC "-//W3C//DTD SVG 1.1//EN"
 "http://www.w3.org/Graphics/SVG/1.1/DTD/svg11.dtd">
<!-- Generated by graphviz version 2.38.0 (20140413.2041)
 -->
<!-- Title: WndProc Pages: 1 -->
<svg width="324pt" height="28pt"
 viewBox="0.00 0.00 324.00 28.00" xmlns="http://www.w3.org/2000/svg" xmlns:xlink="http://www.w3.org/1999/xlink">
<g id="graph0" class="graph" transform="scale(1 1) rotate(0) translate(4 24)">
<title>WndProc</title>
<polygon fill="white" stroke="none" points="-4,4 -4,-24 320,-24 320,4 -4,4"/>
<!-- Node94 -->
<g id="node1" class="node"><title>Node94</title>
<polygon fill="#bfbfbf" stroke="black" points="0,-0.5 0,-19.5 57,-19.5 57,-0.5 0,-0.5"/>
<text text-anchor="middle" x="28.5" y="-7.5" font-family="Helvetica,sans-Serif" font-size="10.00">WndProc</text>
</g>
<!-- Node95 -->
<g id="node2" class="node"><title>Node95</title>
<g id="a_node2"><a xlink:href="supportcode_8h.html#acd4be192aca2369a87f51d952150a77b" target="_top" xlink:title="CreateAppWindow">
<polygon fill="white" stroke="black" points="93,-0.5 93,-19.5 190,-19.5 190,-0.5 93,-0.5"/>
<text text-anchor="middle" x="141.5" y="-7.5" font-family="Helvetica,sans-Serif" font-size="10.00">CreateAppWindow</text>
</a>
</g>
</g>
<!-- Node94&#45;&gt;Node95 -->
<g id="edge1" class="edge"><title>Node94&#45;&gt;Node95</title>
<path fill="none" stroke="midnightblue" d="M67.2676,-10C75.4918,-10 84.2963,-10 92.8473,-10"/>
<polygon fill="midnightblue" stroke="midnightblue" points="67.2237,-6.5001 57.2237,-10 67.2236,-13.5001 67.2237,-6.5001"/>
</g>
<!-- Node96 -->
<g id="node3" class="node"><title>Node96</title>
<g id="a_node3"><a xlink:href="supportcode_8h.html#a79e747d7a0c4b5bad264e5a27c00baa5" target="_top" xlink:title="FullscreenToggle">
<polygon fill="white" stroke="black" points="226,-0.5 226,-19.5 316,-19.5 316,-0.5 226,-0.5"/>
<text text-anchor="middle" x="271" y="-7.5" font-family="Helvetica,sans-Serif" font-size="10.00">FullscreenToggle</text>
</a>
</g>
</g>
<!-- Node95&#45;&gt;Node96 -->
<g id="edge2" class="edge"><title>Node95&#45;&gt;Node96</title>
<path fill="none" stroke="midnightblue" d="M200.536,-10C208.983,-10 217.566,-10 225.683,-10"/>
<polygon fill="midnightblue" stroke="midnightblue" points="200.339,-6.5001 190.339,-10 200.339,-13.5001 200.339,-6.5001"/>
</g>
</g>
</svg>
