<?xml version="1.0" encoding="UTF-8" standalone="no"?>
<!DOCTYPE svg PUBLIC "-//W3C//DTD SVG 1.1//EN"
 "http://www.w3.org/Graphics/SVG/1.1/DTD/svg11.dtd">
<!-- Generated by graphviz version 2.38.0 (20140413.2041)
 -->
<!-- Title: CloseWindow Pages: 1 -->
<svg width="343pt" height="47pt"
 viewBox="0.00 0.00 343.00 47.00" xmlns="http://www.w3.org/2000/svg" xmlns:xlink="http://www.w3.org/1999/xlink">
<g id="graph0" class="graph" transform="scale(1 1) rotate(0) translate(4 43)">
<title>CloseWindow</title>
<polygon fill="white" stroke="none" points="-4,4 -4,-43 339,-43 339,4 -4,4"/>
<!-- Node4 -->
<g id="node1" class="node"><title>Node4</title>
<polygon fill="#bfbfbf" stroke="black" points="0,-0.5 0,-19.5 76,-19.5 76,-0.5 0,-0.5"/>
<text text-anchor="middle" x="38" y="-7.5" font-family="Helvetica,sans-Serif" font-size="10.00">CloseWindow</text>
</g>
<!-- Node5 -->
<g id="node2" class="node"><title>Node5</title>
<g id="a_node2"><a xlink:href="supportcode_8h.html#acd4be192aca2369a87f51d952150a77b" target="_top" xlink:title="CreateAppWindow">
<polygon fill="white" stroke="black" points="112,-19.5 112,-38.5 209,-38.5 209,-19.5 112,-19.5"/>
<text text-anchor="middle" x="160.5" y="-26.5" font-family="Helvetica,sans-Serif" font-size="10.00">CreateAppWindow</text>
</a>
</g>
</g>
<!-- Node4&#45;&gt;Node5 -->
<g id="edge1" class="edge"><title>Node4&#45;&gt;Node5</title>
<path fill="none" stroke="midnightblue" d="M86.1207,-17.4298C94.4876,-18.7491 103.21,-20.1243 111.598,-21.447"/>
<polygon fill="midnightblue" stroke="midnightblue" points="86.5603,-13.956 76.1372,-15.8557 85.47,-20.8706 86.5603,-13.956"/>
</g>
<!-- Node6 -->
<g id="node3" class="node"><title>Node6</title>
<g id="a_node3"><a xlink:href="supportcode_8h.html#a79e747d7a0c4b5bad264e5a27c00baa5" target="_top" xlink:title="FullscreenToggle">
<polygon fill="white" stroke="black" points="245,-0.5 245,-19.5 335,-19.5 335,-0.5 245,-0.5"/>
<text text-anchor="middle" x="290" y="-7.5" font-family="Helvetica,sans-Serif" font-size="10.00">FullscreenToggle</text>
</a>
</g>
</g>
<!-- Node4&#45;&gt;Node6 -->
<g id="edge3" class="edge"><title>Node4&#45;&gt;Node6</title>
<path fill="none" stroke="midnightblue" d="M86.3779,-10C131.985,-10 200.41,-10 244.888,-10"/>
<polygon fill="midnightblue" stroke="midnightblue" points="86.1576,-6.5001 76.1576,-10 86.1575,-13.5001 86.1576,-6.5001"/>
</g>
<!-- Node5&#45;&gt;Node6 -->
<g id="edge2" class="edge"><title>Node5&#45;&gt;Node6</title>
<path fill="none" stroke="midnightblue" d="M219.258,-20.393C227.795,-19.1208 236.477,-17.827 244.683,-16.604"/>
<polygon fill="midnightblue" stroke="midnightblue" points="218.714,-16.9353 209.339,-21.871 219.746,-23.8588 218.714,-16.9353"/>
</g>
</g>
</svg>
