<?xml version="1.0" encoding="UTF-8" standalone="no"?>
<!DOCTYPE svg PUBLIC "-//W3C//DTD SVG 1.1//EN"
 "http://www.w3.org/Graphics/SVG/1.1/DTD/svg11.dtd">
<!-- Generated by graphviz version 2.38.0 (20140413.2041)
 -->
<!-- Title: WinMain Pages: 1 -->
<svg width="449pt" height="242pt"
 viewBox="0.00 0.00 449.00 242.47" xmlns="http://www.w3.org/2000/svg" xmlns:xlink="http://www.w3.org/1999/xlink">
<g id="graph0" class="graph" transform="scale(1 1) rotate(0) translate(4 238.475)">
<title>WinMain</title>
<polygon fill="white" stroke="none" points="-4,4 -4,-238.475 445,-238.475 445,4 -4,4"/>
<!-- Node78 -->
<g id="node1" class="node"><title>Node78</title>
<polygon fill="#bfbfbf" stroke="black" points="0,-133.5 0,-152.5 55,-152.5 55,-133.5 0,-133.5"/>
<text text-anchor="middle" x="27.5" y="-140.5" font-family="Helvetica,sans-Serif" font-size="10.00">WinMain</text>
</g>
<!-- Node79 -->
<g id="node2" class="node"><title>Node79</title>
<g id="a_node2"><a xlink:href="supportcode_8cpp.html#a0ddf1224851353fc92bfbff6f499fa97" target="_top" xlink:title="main initialises the GUI and values for the marker position etc ">
<polygon fill="white" stroke="black" points="91,-133.5 91,-152.5 129,-152.5 129,-133.5 91,-133.5"/>
<text text-anchor="middle" x="110" y="-140.5" font-family="Helvetica,sans-Serif" font-size="10.00">main</text>
</a>
</g>
</g>
<!-- Node78&#45;&gt;Node79 -->
<g id="edge1" class="edge"><title>Node78&#45;&gt;Node79</title>
<path fill="none" stroke="midnightblue" d="M55.3053,-143C63.538,-143 72.6186,-143 80.9333,-143"/>
<polygon fill="midnightblue" stroke="midnightblue" points="80.9343,-146.5 90.9342,-143 80.9342,-139.5 80.9343,-146.5"/>
</g>
<!-- Node80 -->
<g id="node3" class="node"><title>Node80</title>
<g id="a_node3"><a xlink:href="classcomm_object.html#aec354c7099b3039083cc4224e071e022" target="_top" xlink:title="commObject::addLog">
<polygon fill="white" stroke="black" points="318,-190.5 318,-209.5 428,-209.5 428,-190.5 318,-190.5"/>
<text text-anchor="middle" x="373" y="-197.5" font-family="Helvetica,sans-Serif" font-size="10.00">commObject::addLog</text>
</a>
</g>
</g>
<!-- Node79&#45;&gt;Node80 -->
<g id="edge2" class="edge"><title>Node79&#45;&gt;Node80</title>
<path fill="none" stroke="midnightblue" d="M114.468,-152.737C121.164,-169.862 137.673,-204.894 165,-219 221.259,-248.041 297.623,-228.356 340.116,-213.089"/>
<polygon fill="midnightblue" stroke="midnightblue" points="341.509,-216.305 349.655,-209.53 339.062,-209.747 341.509,-216.305"/>
</g>
<!-- Node81 -->
<g id="node4" class="node"><title>Node81</title>
<g id="a_node4"><a xlink:href="main_8cpp.html#ad19da4e648bbdc80d3123eb94711588e" target="_top" xlink:title="setHeadingOffset">
<polygon fill="white" stroke="black" points="171.5,-38.5 171.5,-57.5 262.5,-57.5 262.5,-38.5 171.5,-38.5"/>
<text text-anchor="middle" x="217" y="-45.5" font-family="Helvetica,sans-Serif" font-size="10.00">setHeadingOffset</text>
</a>
</g>
</g>
<!-- Node79&#45;&gt;Node81 -->
<g id="edge3" class="edge"><title>Node79&#45;&gt;Node81</title>
<path fill="none" stroke="midnightblue" d="M115.422,-133.43C123.245,-117.489 140.993,-85.4338 165,-67 167.319,-65.2197 169.821,-63.5922 172.43,-62.1066"/>
<polygon fill="midnightblue" stroke="midnightblue" points="174.175,-65.1488 181.595,-57.5863 171.079,-58.8709 174.175,-65.1488"/>
</g>
<!-- Node82 -->
<g id="node5" class="node"><title>Node82</title>
<g id="a_node5"><a xlink:href="main_8cpp.html#af39fa6c3a36ad6bc24a327db7a9d73c2" target="_top" xlink:title="loadCameraPosition">
<polygon fill="white" stroke="black" points="165,-190.5 165,-209.5 269,-209.5 269,-190.5 165,-190.5"/>
<text text-anchor="middle" x="217" y="-197.5" font-family="Helvetica,sans-Serif" font-size="10.00">loadCameraPosition</text>
</a>
</g>
</g>
<!-- Node79&#45;&gt;Node82 -->
<g id="edge4" class="edge"><title>Node79&#45;&gt;Node82</title>
<path fill="none" stroke="midnightblue" d="M122.863,-152.697C133.438,-161.004 149.584,-172.878 165,-181 168.762,-182.982 172.777,-184.854 176.84,-186.594"/>
<polygon fill="midnightblue" stroke="midnightblue" points="175.727,-189.919 186.311,-190.403 178.339,-183.425 175.727,-189.919"/>
</g>
<!-- Node83 -->
<g id="node6" class="node"><title>Node83</title>
<g id="a_node6"><a xlink:href="main_8cpp.html#ad39626702ff983d5fdab4b703bfaf964" target="_top" xlink:title="loadCalibration">
<polygon fill="white" stroke="black" points="177,-152.5 177,-171.5 257,-171.5 257,-152.5 177,-152.5"/>
<text text-anchor="middle" x="217" y="-159.5" font-family="Helvetica,sans-Serif" font-size="10.00">loadCalibration</text>
</a>
</g>
</g>
<!-- Node79&#45;&gt;Node83 -->
<g id="edge6" class="edge"><title>Node79&#45;&gt;Node83</title>
<path fill="none" stroke="midnightblue" d="M129.29,-146.31C139.684,-148.19 153.247,-150.645 166.549,-153.052"/>
<polygon fill="midnightblue" stroke="midnightblue" points="166.149,-156.536 176.612,-154.873 167.396,-149.648 166.149,-156.536"/>
</g>
<!-- Node84 -->
<g id="node7" class="node"><title>Node84</title>
<g id="a_node7"><a xlink:href="main_8cpp.html#a56c7f641859cb2b6b99b0947d03be800" target="_top" xlink:title="loadMarkerConfig">
<polygon fill="white" stroke="black" points="171,-114.5 171,-133.5 263,-133.5 263,-114.5 171,-114.5"/>
<text text-anchor="middle" x="217" y="-121.5" font-family="Helvetica,sans-Serif" font-size="10.00">loadMarkerConfig</text>
</a>
</g>
</g>
<!-- Node79&#45;&gt;Node84 -->
<g id="edge8" class="edge"><title>Node79&#45;&gt;Node84</title>
<path fill="none" stroke="midnightblue" d="M129.29,-139.69C138.197,-138.079 149.431,-136.046 160.833,-133.983"/>
<polygon fill="midnightblue" stroke="midnightblue" points="161.625,-137.396 170.842,-132.171 160.379,-130.508 161.625,-137.396"/>
</g>
<!-- Node89 -->
<g id="node12" class="node"><title>Node89</title>
<g id="a_node12"><a xlink:href="main_8cpp.html#a847c0fbd3e513fb76ff145b31a9f5c37" target="_top" xlink:title="testAlgorithms">
<polygon fill="white" stroke="black" points="177,-76.5 177,-95.5 257,-95.5 257,-76.5 177,-76.5"/>
<text text-anchor="middle" x="217" y="-83.5" font-family="Helvetica,sans-Serif" font-size="10.00">testAlgorithms</text>
</a>
</g>
</g>
<!-- Node79&#45;&gt;Node89 -->
<g id="edge14" class="edge"><title>Node79&#45;&gt;Node89</title>
<path fill="none" stroke="midnightblue" d="M122.863,-133.303C133.438,-124.996 149.584,-113.122 165,-105 168.762,-103.018 172.777,-101.146 176.84,-99.4059"/>
<polygon fill="midnightblue" stroke="midnightblue" points="178.339,-102.575 186.311,-95.5971 175.727,-96.0809 178.339,-102.575"/>
</g>
<!-- Node82&#45;&gt;Node80 -->
<g id="edge5" class="edge"><title>Node82&#45;&gt;Node80</title>
<path fill="none" stroke="midnightblue" d="M269.28,-200C281.569,-200 294.846,-200 307.644,-200"/>
<polygon fill="midnightblue" stroke="midnightblue" points="307.776,-203.5 317.776,-200 307.776,-196.5 307.776,-203.5"/>
</g>
<!-- Node83&#45;&gt;Node80 -->
<g id="edge7" class="edge"><title>Node83&#45;&gt;Node80</title>
<path fill="none" stroke="midnightblue" d="M256.861,-171.589C277.091,-176.581 302.021,-182.732 323.504,-188.033"/>
<polygon fill="midnightblue" stroke="midnightblue" points="322.871,-191.482 333.419,-190.48 324.548,-184.686 322.871,-191.482"/>
</g>
<!-- Node84&#45;&gt;Node80 -->
<g id="edge9" class="edge"><title>Node84&#45;&gt;Node80</title>
<path fill="none" stroke="midnightblue" d="M250.374,-133.519C256.81,-136.101 263.326,-139.246 269,-143 288.402,-155.837 285.098,-168.952 305,-181 308.607,-183.184 312.475,-185.125 316.465,-186.85"/>
<polygon fill="midnightblue" stroke="midnightblue" points="315.344,-190.168 325.934,-190.492 317.857,-183.635 315.344,-190.168"/>
</g>
<!-- Node85 -->
<g id="node8" class="node"><title>Node85</title>
<g id="a_node8"><a xlink:href="classcomm_object.html#a7552116eb5e18c49c6dcf943de29af7a" target="_top" xlink:title="commObject::enableP3P">
<polygon fill="white" stroke="black" points="310.5,-152.5 310.5,-171.5 435.5,-171.5 435.5,-152.5 310.5,-152.5"/>
<text text-anchor="middle" x="373" y="-159.5" font-family="Helvetica,sans-Serif" font-size="10.00">commObject::enableP3P</text>
</a>
</g>
</g>
<!-- Node84&#45;&gt;Node85 -->
<g id="edge10" class="edge"><title>Node84&#45;&gt;Node85</title>
<path fill="none" stroke="midnightblue" d="M256.861,-133.589C277.091,-138.581 302.021,-144.732 323.504,-150.033"/>
<polygon fill="midnightblue" stroke="midnightblue" points="322.871,-153.482 333.419,-152.48 324.548,-146.686 322.871,-153.482"/>
</g>
<!-- Node86 -->
<g id="node9" class="node"><title>Node86</title>
<g id="a_node9"><a xlink:href="main_8cpp.html#a2104a5d9d6b9f1e29bc4cd858c59882e" target="_top" xlink:title="projectCoordinateFrame">
<polygon fill="white" stroke="black" points="313,-114.5 313,-133.5 433,-133.5 433,-114.5 313,-114.5"/>
<text text-anchor="middle" x="373" y="-121.5" font-family="Helvetica,sans-Serif" font-size="10.00">projectCoordinateFrame</text>
</a>
</g>
</g>
<!-- Node84&#45;&gt;Node86 -->
<g id="edge11" class="edge"><title>Node84&#45;&gt;Node86</title>
<path fill="none" stroke="midnightblue" d="M263.372,-124C275.745,-124 289.436,-124 302.81,-124"/>
<polygon fill="midnightblue" stroke="midnightblue" points="302.948,-127.5 312.948,-124 302.948,-120.5 302.948,-127.5"/>
</g>
<!-- Node87 -->
<g id="node10" class="node"><title>Node87</title>
<g id="a_node10"><a xlink:href="main_8cpp.html#a3e3cc959a7ab6f93ea52863d86373ce5" target="_top" xlink:title="Mat2QPixmap">
<polygon fill="white" stroke="black" points="333.5,-76.5 333.5,-95.5 412.5,-95.5 412.5,-76.5 333.5,-76.5"/>
<text text-anchor="middle" x="373" y="-83.5" font-family="Helvetica,sans-Serif" font-size="10.00">Mat2QPixmap</text>
</a>
</g>
</g>
<!-- Node84&#45;&gt;Node87 -->
<g id="edge12" class="edge"><title>Node84&#45;&gt;Node87</title>
<path fill="none" stroke="midnightblue" d="M256.861,-114.411C277.091,-109.419 302.021,-103.268 323.504,-97.9666"/>
<polygon fill="midnightblue" stroke="midnightblue" points="324.548,-101.314 333.419,-95.5201 322.871,-94.5177 324.548,-101.314"/>
</g>
<!-- Node88 -->
<g id="node11" class="node"><title>Node88</title>
<g id="a_node11"><a xlink:href="classcomm_object.html#a6f81522c2aa1668fa402f08710e6206b" target="_top" xlink:title="commObject::changeImage">
<polygon fill="white" stroke="black" points="305,-38.5 305,-57.5 441,-57.5 441,-38.5 305,-38.5"/>
<text text-anchor="middle" x="373" y="-45.5" font-family="Helvetica,sans-Serif" font-size="10.00">commObject::changeImage</text>
</a>
</g>
</g>
<!-- Node84&#45;&gt;Node88 -->
<g id="edge13" class="edge"><title>Node84&#45;&gt;Node88</title>
<path fill="none" stroke="midnightblue" d="M250.374,-114.481C256.81,-111.899 263.326,-108.754 269,-105 288.402,-92.1627 285.098,-79.0482 305,-67 308.607,-64.8163 312.475,-62.875 316.465,-61.1505"/>
<polygon fill="midnightblue" stroke="midnightblue" points="317.857,-64.3651 325.934,-57.5082 315.344,-57.8318 317.857,-64.3651"/>
</g>
<!-- Node89&#45;&gt;Node80 -->
<g id="edge15" class="edge"><title>Node89&#45;&gt;Node80</title>
<path fill="none" stroke="midnightblue" d="M254.563,-95.6173C259.803,-98.0867 264.823,-101.167 269,-105 296.537,-130.271 276.471,-156.854 305,-181 307.019,-182.709 309.182,-184.264 311.45,-185.68"/>
<polygon fill="midnightblue" stroke="midnightblue" points="310.149,-188.949 320.633,-190.478 313.391,-182.745 310.149,-188.949"/>
</g>
<!-- Node89&#45;&gt;Node86 -->
<g id="edge16" class="edge"><title>Node89&#45;&gt;Node86</title>
<path fill="none" stroke="midnightblue" d="M256.861,-95.589C277.091,-100.581 302.021,-106.732 323.504,-112.033"/>
<polygon fill="midnightblue" stroke="midnightblue" points="322.871,-115.482 333.419,-114.48 324.548,-108.686 322.871,-115.482"/>
</g>
<!-- Node89&#45;&gt;Node87 -->
<g id="edge17" class="edge"><title>Node89&#45;&gt;Node87</title>
<path fill="none" stroke="midnightblue" d="M257.259,-86C277.324,-86 301.931,-86 323.205,-86"/>
<polygon fill="midnightblue" stroke="midnightblue" points="323.346,-89.5001 333.346,-86 323.346,-82.5001 323.346,-89.5001"/>
</g>
<!-- Node89&#45;&gt;Node88 -->
<g id="edge18" class="edge"><title>Node89&#45;&gt;Node88</title>
<path fill="none" stroke="midnightblue" d="M256.861,-76.411C277.091,-71.4191 302.021,-65.2676 323.504,-59.9666"/>
<polygon fill="midnightblue" stroke="midnightblue" points="324.548,-63.3139 333.419,-57.5201 322.871,-56.5177 324.548,-63.3139"/>
</g>
<!-- Node90 -->
<g id="node13" class="node"><title>Node90</title>
<g id="a_node13"><a xlink:href="main_8cpp.html#af6430ad2592a955a3618549547dfc5be" target="_top" xlink:title="drawPositionText">
<polygon fill="white" stroke="black" points="327.5,-0.5 327.5,-19.5 418.5,-19.5 418.5,-0.5 327.5,-0.5"/>
<text text-anchor="middle" x="373" y="-7.5" font-family="Helvetica,sans-Serif" font-size="10.00">drawPositionText</text>
</a>
</g>
</g>
<!-- Node89&#45;&gt;Node90 -->
<g id="edge19" class="edge"><title>Node89&#45;&gt;Node90</title>
<path fill="none" stroke="midnightblue" d="M250.374,-76.4812C256.81,-73.8992 263.326,-70.7539 269,-67 288.402,-54.1627 285.098,-41.0482 305,-29 309.053,-26.5463 313.435,-24.3985 317.951,-22.5206"/>
<polygon fill="midnightblue" stroke="midnightblue" points="319.188,-25.795 327.344,-19.0333 316.751,-19.2326 319.188,-25.795"/>
</g>
</g>
</svg>
