<?xml version="1.0" encoding="UTF-8" standalone="no"?>
<!-- Created with Inkscape (http://www.inkscape.org/) -->

<svg
   xmlns:dc="http://purl.org/dc/elements/1.1/"
   xmlns:cc="http://creativecommons.org/ns#"
   xmlns:rdf="http://www.w3.org/1999/02/22-rdf-syntax-ns#"
   xmlns:svg="http://www.w3.org/2000/svg"
   xmlns="http://www.w3.org/2000/svg"
   xmlns:xlink="http://www.w3.org/1999/xlink"
   xmlns:sodipodi="http://sodipodi.sourceforge.net/DTD/sodipodi-0.dtd"
   xmlns:inkscape="http://www.inkscape.org/namespaces/inkscape"
   width="408.44"
   height="542.28003"
   id="svg2998"
   version="1.1"
   inkscape:version="0.48.5 r10040"
   sodipodi:docname="SDcard2gb.svg"
   inkscape:export-filename="C:\Users\rafael\Pictures\TheGoldenBox Main Logos\SDcard2gb.png"
   inkscape:export-xdpi="360"
   inkscape:export-ydpi="360">
  <defs
     id="defs3000">
    <linearGradient
       id="linearGradient5680">
      <stop
         style="stop-color:#3e3769;stop-opacity:1;"
         offset="0"
         id="stop5682" />
      <stop
         style="stop-color:#544a8e;stop-opacity:1;"
         offset="1"
         id="stop5684" />
    </linearGradient>
    <linearGradient
       id="linearGradient5668">
      <stop
         style="stop-color:#e1e1e1;stop-opacity:1;"
         offset="0"
         id="stop5670" />
      <stop
         id="stop5676"
         offset="0.5"
         style="stop-color:#f2f2f2;stop-opacity:1;" />
      <stop
         style="stop-color:#dcdcdc;stop-opacity:1;"
         offset="0.86044449"
         id="stop5678" />
      <stop
         style="stop-color:#afafaf;stop-opacity:1;"
         offset="1"
         id="stop5672" />
    </linearGradient>
    <linearGradient
       id="linearGradient5354">
      <stop
         style="stop-color:#e3002e;stop-opacity:1;"
         offset="0"
         id="stop5356" />
      <stop
         style="stop-color:#22407c;stop-opacity:1;"
         offset="1"
         id="stop5358" />
    </linearGradient>
    <linearGradient
       inkscape:collect="always"
       xlink:href="#linearGradient5354"
       id="linearGradient5360"
       x1="248.8132"
       y1="246.22992"
       x2="248.8132"
       y2="247.07423"
       gradientUnits="userSpaceOnUse"
       gradientTransform="translate(-214.20619,57.59439)" />
    <linearGradient
       inkscape:collect="always"
       xlink:href="#linearGradient5668"
       id="linearGradient5674"
       x1="80.545494"
       y1="208.50046"
       x2="90.918434"
       y2="208.05852"
       gradientUnits="userSpaceOnUse"
       gradientTransform="matrix(1.0110414,0,0,1.0208198,-80.166663,40.122936)" />
    <filter
       inkscape:collect="always"
       id="filter5734"
       x="-0.0063284379"
       width="1.0126569"
       y="-0.11560977"
       height="1.2312195"
       color-interpolation-filters="sRGB">
      <feGaussianBlur
         inkscape:collect="always"
         stdDeviation="0.69826803"
         id="feGaussianBlur5736" />
    </filter>
    <clipPath
       clipPathUnits="userSpaceOnUse"
       id="clipPath5756">
      <rect
         style="fill:#39345e;fill-opacity:1;stroke:none;display:inline"
         id="rect5758"
         width="264.81152"
         height="14.495688"
         x="182.21924"
         y="557.44525"
         ry="7.2478442" />
    </clipPath>
    <linearGradient
       inkscape:collect="always"
       xlink:href="#linearGradient5680-8"
       id="linearGradient5686-8"
       x1="113.66741"
       y1="165.79651"
       x2="113.66741"
       y2="171.01442"
       gradientUnits="userSpaceOnUse" />
    <linearGradient
       id="linearGradient5680-8">
      <stop
         style="stop-color:#3e3769;stop-opacity:0;"
         offset="0"
         id="stop5682-2" />
      <stop
         style="stop-color:#544a8e;stop-opacity:1;"
         offset="1"
         id="stop5684-4" />
    </linearGradient>
    <linearGradient
       y2="171.01442"
       x2="113.66741"
       y1="165.79651"
       x1="113.66741"
       gradientUnits="userSpaceOnUse"
       id="linearGradient3100"
       xlink:href="#linearGradient5680-8"
       inkscape:collect="always"
       gradientTransform="translate(-110.405,57.59439)" />
    <clipPath
       clipPathUnits="userSpaceOnUse"
       id="clipPath4087">
      <path
         style="fill:#3e3769;fill-opacity:1;stroke:none;display:inline"
         d="m 126.03125,40.125 c -8.66088,0 -15.625,6.964118 -15.625,15.625 l 0,109.96875 0,0.21875 c 0,2.87335 2.31416,5.1875 5.1875,5.1875 l 7.28125,0 0,49.03125 c 0.9665,0 1.75,0.7835 1.75,1.75 l 0,63.25 c 0,1.2165 -0.971,2.1875 -2.1875,2.1875 l -8.21875,0 c -2.11396,0 -3.8125,1.69853 -3.8125,3.8125 l 0,275.59375 c 0,8.66088 6.96412,15.65625 15.625,15.65625 l 155.375,0 6.84375,-5.28125 52.75,0 6.84375,5.28125 155.375,0 c 8.66088,0 15.625,-6.99537 15.625,-15.65625 l 0,-328.4375 c 0,-2.11396 -1.69854,-3.8125 -3.8125,-3.8125 l -4.84375,0 c -2.11396,0 -3.8125,-1.69854 -3.8125,-3.8125 l 0,-23 c 0,-2.11396 1.69854,-3.8125 3.8125,-3.8125 l 4.84375,0 c 2.11396,0 3.8125,-1.69854 3.8125,-3.8125 l 0,-94.21875 -67.1875,-65.71875 -325.625,0 z"
         id="path4089"
         inkscape:connector-curvature="0" />
    </clipPath>
    <filter
       inkscape:collect="always"
       id="filter4139"
       color-interpolation-filters="sRGB">
      <feGaussianBlur
         inkscape:collect="always"
         stdDeviation="2.4017969"
         id="feGaussianBlur4141" />
    </filter>
    <filter
       inkscape:collect="always"
       id="filter4607"
       color-interpolation-filters="sRGB">
      <feGaussianBlur
         inkscape:collect="always"
         stdDeviation="0.1685232"
         id="feGaussianBlur4609" />
    </filter>
    <filter
       inkscape:collect="always"
       id="filter4611"
       x="-0.10479459"
       width="1.2095892"
       y="-0.086833306"
       height="1.1736666"
       color-interpolation-filters="sRGB">
      <feGaussianBlur
         inkscape:collect="always"
         stdDeviation="0.1685232"
         id="feGaussianBlur4613" />
    </filter>
    <filter
       inkscape:collect="always"
       id="filter4615"
       color-interpolation-filters="sRGB">
      <feGaussianBlur
         inkscape:collect="always"
         stdDeviation="0.1685232"
         id="feGaussianBlur4617" />
    </filter>
    <filter
       inkscape:collect="always"
       id="filter4619"
       color-interpolation-filters="sRGB">
      <feGaussianBlur
         inkscape:collect="always"
         stdDeviation="0.1685232"
         id="feGaussianBlur4621" />
    </filter>
    <filter
       inkscape:collect="always"
       id="filter4623"
       color-interpolation-filters="sRGB">
      <feGaussianBlur
         inkscape:collect="always"
         stdDeviation="0.17182227"
         id="feGaussianBlur4625" />
    </filter>
    <filter
       inkscape:collect="always"
       id="filter4627"
       color-interpolation-filters="sRGB">
      <feGaussianBlur
         inkscape:collect="always"
         stdDeviation="0.1685232"
         id="feGaussianBlur4629" />
    </filter>
    <filter
       inkscape:collect="always"
       id="filter4631"
       color-interpolation-filters="sRGB">
      <feGaussianBlur
         inkscape:collect="always"
         stdDeviation="0.1685232"
         id="feGaussianBlur4633" />
    </filter>
    <filter
       inkscape:collect="always"
       id="filter4635"
       color-interpolation-filters="sRGB">
      <feGaussianBlur
         inkscape:collect="always"
         stdDeviation="0.1685232"
         id="feGaussianBlur4637" />
    </filter>
    <filter
       inkscape:collect="always"
       id="filter4639"
       color-interpolation-filters="sRGB">
      <feGaussianBlur
         inkscape:collect="always"
         stdDeviation="0.1685232"
         id="feGaussianBlur4641" />
    </filter>
    <filter
       inkscape:collect="always"
       id="filter4643"
       color-interpolation-filters="sRGB">
      <feGaussianBlur
         inkscape:collect="always"
         stdDeviation="0.1685232"
         id="feGaussianBlur4645" />
    </filter>
    <filter
       inkscape:collect="always"
       id="filter4647"
       color-interpolation-filters="sRGB">
      <feGaussianBlur
         inkscape:collect="always"
         stdDeviation="0.1685232"
         id="feGaussianBlur4649" />
    </filter>
    <filter
       inkscape:collect="always"
       id="filter4651"
       x="-0.23531967"
       width="1.4706393"
       y="-0.069027133"
       height="1.1380543"
       color-interpolation-filters="sRGB">
      <feGaussianBlur
         inkscape:collect="always"
         stdDeviation="0.1685232"
         id="feGaussianBlur4653" />
    </filter>
    <filter
       inkscape:collect="always"
       id="filter4655"
       x="-0.077850118"
       width="1.1557002"
       y="-0.28761294"
       height="1.5752259"
       color-interpolation-filters="sRGB">
      <feGaussianBlur
         inkscape:collect="always"
         stdDeviation="0.1685232"
         id="feGaussianBlur4657" />
    </filter>
    <filter
       inkscape:collect="always"
       id="filter4659"
       color-interpolation-filters="sRGB">
      <feGaussianBlur
         inkscape:collect="always"
         stdDeviation="0.1685232"
         id="feGaussianBlur4661" />
    </filter>
    <filter
       inkscape:collect="always"
       id="filter4663"
       color-interpolation-filters="sRGB">
      <feGaussianBlur
         inkscape:collect="always"
         stdDeviation="0.1685232"
         id="feGaussianBlur4665" />
    </filter>
    <filter
       inkscape:collect="always"
       id="filter4667"
       color-interpolation-filters="sRGB">
      <feGaussianBlur
         inkscape:collect="always"
         stdDeviation="0.1685232"
         id="feGaussianBlur4669" />
    </filter>
    <filter
       inkscape:collect="always"
       id="filter4671"
       color-interpolation-filters="sRGB">
      <feGaussianBlur
         inkscape:collect="always"
         stdDeviation="0.1685232"
         id="feGaussianBlur4673" />
    </filter>
    <filter
       inkscape:collect="always"
       id="filter4675"
       color-interpolation-filters="sRGB">
      <feGaussianBlur
         inkscape:collect="always"
         stdDeviation="0.1685232"
         id="feGaussianBlur4677" />
    </filter>
    <filter
       inkscape:collect="always"
       id="filter4679"
       color-interpolation-filters="sRGB">
      <feGaussianBlur
         inkscape:collect="always"
         stdDeviation="0.1685232"
         id="feGaussianBlur4681" />
    </filter>
    <filter
       inkscape:collect="always"
       id="filter4683"
       color-interpolation-filters="sRGB">
      <feGaussianBlur
         inkscape:collect="always"
         stdDeviation="0.1685232"
         id="feGaussianBlur4685" />
    </filter>
    <filter
       inkscape:collect="always"
       id="filter4687"
       color-interpolation-filters="sRGB">
      <feGaussianBlur
         inkscape:collect="always"
         stdDeviation="0.1685232"
         id="feGaussianBlur4689" />
    </filter>
    <filter
       inkscape:collect="always"
       id="filter4691"
       color-interpolation-filters="sRGB">
      <feGaussianBlur
         inkscape:collect="always"
         stdDeviation="0.1685232"
         id="feGaussianBlur4693" />
    </filter>
    <filter
       inkscape:collect="always"
       id="filter4695"
       x="-0.030099049"
       width="1.0601981"
       y="-0.15005893"
       height="1.3001179"
       color-interpolation-filters="sRGB">
      <feGaussianBlur
         inkscape:collect="always"
         stdDeviation="0.1685232"
         id="feGaussianBlur4697" />
    </filter>
    <filter
       inkscape:collect="always"
       id="filter4699"
       x="-0.17851837"
       width="1.3570367"
       y="-0.044822793"
       height="1.0896456"
       color-interpolation-filters="sRGB">
      <feGaussianBlur
         inkscape:collect="always"
         stdDeviation="0.1685232"
         id="feGaussianBlur4701" />
    </filter>
    <filter
       inkscape:collect="always"
       id="filter4703"
       color-interpolation-filters="sRGB">
      <feGaussianBlur
         inkscape:collect="always"
         stdDeviation="0.1685232"
         id="feGaussianBlur4705" />
    </filter>
    <filter
       inkscape:collect="always"
       id="filter4707"
       color-interpolation-filters="sRGB">
      <feGaussianBlur
         inkscape:collect="always"
         stdDeviation="0.1685232"
         id="feGaussianBlur4709" />
    </filter>
    <filter
       inkscape:collect="always"
       id="filter4711"
       color-interpolation-filters="sRGB">
      <feGaussianBlur
         inkscape:collect="always"
         stdDeviation="0.1685232"
         id="feGaussianBlur4713" />
    </filter>
    <filter
       inkscape:collect="always"
       id="filter4715"
       color-interpolation-filters="sRGB">
      <feGaussianBlur
         inkscape:collect="always"
         stdDeviation="0.1685232"
         id="feGaussianBlur4717" />
    </filter>
    <filter
       inkscape:collect="always"
       id="filter4719"
       color-interpolation-filters="sRGB">
      <feGaussianBlur
         inkscape:collect="always"
         stdDeviation="0.1685232"
         id="feGaussianBlur4721" />
    </filter>
    <filter
       inkscape:collect="always"
       id="filter4723"
       color-interpolation-filters="sRGB">
      <feGaussianBlur
         inkscape:collect="always"
         stdDeviation="0.1685232"
         id="feGaussianBlur4725" />
    </filter>
    <filter
       inkscape:collect="always"
       id="filter4727"
       color-interpolation-filters="sRGB">
      <feGaussianBlur
         inkscape:collect="always"
         stdDeviation="0.1685232"
         id="feGaussianBlur4729" />
    </filter>
    <filter
       inkscape:collect="always"
       id="filter4731"
       color-interpolation-filters="sRGB">
      <feGaussianBlur
         inkscape:collect="always"
         stdDeviation="0.1685232"
         id="feGaussianBlur4733" />
    </filter>
    <filter
       inkscape:collect="always"
       id="filter4735"
       color-interpolation-filters="sRGB">
      <feGaussianBlur
         inkscape:collect="always"
         stdDeviation="0.1685232"
         id="feGaussianBlur4737" />
    </filter>
    <filter
       inkscape:collect="always"
       id="filter4774"
       color-interpolation-filters="sRGB">
      <feGaussianBlur
         inkscape:collect="always"
         stdDeviation="0.97917622"
         id="feGaussianBlur4776" />
    </filter>
  </defs>
  <sodipodi:namedview
     id="base"
     pagecolor="#ffffff"
     bordercolor="#666666"
     borderopacity="1.0"
     inkscape:pageopacity="0.0"
     inkscape:pageshadow="2"
     inkscape:zoom="0.5"
     inkscape:cx="823.44898"
     inkscape:cy="466.52359"
     inkscape:current-layer="layer5"
     showgrid="true"
     inkscape:document-units="px"
     inkscape:grid-bbox="true"
     inkscape:object-nodes="true"
     showguides="true"
     inkscape:guide-bbox="true"
     inkscape:snap-global="true"
     inkscape:snap-smooth-nodes="true"
     inkscape:window-width="1680"
     inkscape:window-height="988"
     inkscape:window-x="-8"
     inkscape:window-y="-8"
     inkscape:window-maximized="1">
    <sodipodi:guide
       orientation="0,1"
       position="29.945313,33.125"
       id="guide4437" />
    <sodipodi:guide
       orientation="0,1"
       position="30.027344,32.449219"
       id="guide4439" />
  </sodipodi:namedview>
  <metadata
     id="metadata3003">
    <rdf:RDF>
      <cc:Work
         rdf:about="">
        <dc:format>image/svg+xml</dc:format>
        <dc:type
           rdf:resource="http://purl.org/dc/dcmitype/StillImage" />
        <dc:title />
      </cc:Work>
    </rdf:RDF>
  </metadata>
  <g
     inkscape:groupmode="layer"
     id="layer5"
     inkscape:label="Card"
     style="display:inline"
     transform="translate(0,-97.72)">
    <path
       style="fill:#3e3769;fill-opacity:1;stroke:none"
       d="m 15.626251,97.71939 c -8.6608798,0 -15.62499978,6.96412 -15.62499978,15.625 l 0,109.96875 0,0.21875 c 0,2.87335 2.31415998,5.1875 5.18749998,5.1875 l 7.2812498,0 0,49.03125 c 0.9665,0 1.75,0.7835 1.75,1.75 l 0,63.25 c 0,1.2165 -0.971,2.1875 -2.1875,2.1875 l -8.2187498,0 c -2.11396,0 -3.81249998,1.69853 -3.81249998,3.8125 l 0,275.59375 c 0,8.66088 6.96411998,15.65625 15.62499978,15.65625 l 155.374999,0 6.84375,-5.28125 52.75,0 6.84375,5.28125 155.375,0 c 8.66088,0 15.625,-6.99537 15.625,-15.65625 l 0,-328.4375 c 0,-2.11396 -1.69854,-3.8125 -3.8125,-3.8125 l -4.84375,0 c -2.11396,0 -3.8125,-1.69854 -3.8125,-3.8125 l 0,-23 c 0,-2.11396 1.69854,-3.8125 3.8125,-3.8125 l 4.84375,0 c 2.11396,0 3.8125,-1.69854 3.8125,-3.8125 l 0,-94.21875 -67.1875,-65.71875 -325.624999,0 z"
       id="rect5384"
       inkscape:connector-curvature="0" />
    <path
       style="fill:url(#linearGradient5674);fill-opacity:1;stroke:none"
       d="m 6.4669412,228.71939 c -3.32386,0 -6.00305998,2.70512 -6.00305998,6.06112 l 0,36.90901 c 0,3.35601 2.67920998,6.06112 6.00305998,6.06112 l 6.0030598,0 0,-49.03125 -6.0030598,0 z"
       id="rect5572"
       inkscape:connector-curvature="0" />
    <path
       style="fill:url(#linearGradient3100);fill-opacity:1;stroke:none;display:inline"
       d="m 0.00125122,223.31314 0,0.21875 c 0,2.87335 2.31415998,5.1875 5.18749998,5.1875 l 7.2812498,0 0,-5.40625 z"
       id="rect5479-5"
       inkscape:connector-curvature="0"
       sodipodi:nodetypes="cssccc" />
  </g>
  <g
     inkscape:groupmode="layer"
     id="layer7"
     inkscape:label="Card top light"
     style="display:inline"
     transform="translate(0,-97.72)">
    <path
       style="fill:#423f8e;fill-opacity:1;stroke:none;display:inline;filter:url(#filter4139)"
       d="m 126.03125,36.125 c -6.94266,0 -12.79492,4.481949 -14.84375,10.71875 -1.75028,2.524778 -2.78125,5.585929 -2.78125,8.90625 l 0,109.96875 0,0.21875 c 0,2.87335 2.31416,5.1875 5.1875,5.1875 l 6,0 c -2.87334,0 -5.1875,-2.31415 -5.1875,-5.1875 l 0,-0.21875 0,-109.96875 c 0,-5.340561 2.65778,-10.028519 6.71875,-12.84375 1.54353,-0.50706 3.18803,-0.78125 4.90625,-0.78125 l 325.625,0 65.1875,63.75 0,94.1875 c 0,2.11396 -1.69854,3.8125 -3.8125,3.8125 l -4.84375,0 c -2.11396,0 -3.8125,1.69854 -3.8125,3.8125 l 0,23 c 0,1.58547 0.94296,2.92319 2.3125,3.5 0.57681,1.36954 1.91453,2.3125 3.5,2.3125 l 4.84375,0 c 0.52849,0 1.04349,0.12023 1.5,0.3125 0.19227,0.45651 0.3125,0.97151 0.3125,1.5 l 0,328.4375 c 0,8.66088 -6.96412,15.65625 -15.625,15.65625 l 6,0 c 8.66088,0 15.625,-6.99537 15.625,-15.65625 l 0,-328.4375 c 0,-2.11396 -1.69854,-3.8125 -3.8125,-3.8125 l -0.1875,0 0,-0.1875 c 0,-2.11396 -1.69854,-3.8125 -3.8125,-3.8125 l -4.65625,0 0,-22.8125 c 0,-2.11396 1.69854,-3.8125 3.8125,-3.8125 l 4.84375,0 c 2.11396,0 3.8125,-1.69854 3.8125,-3.8125 l 0,-94.21875 -4,-3.90625 0,-0.0937 -67.1875,-65.71875 -325.625,0 z m -5.15625,135 0,49.03125 c 0.9665,0 1.75,0.7835 1.75,1.75 l 0,61.4375 c -0.0633,0.005 -0.12266,0 -0.1875,0 l -8.21875,0 c -2.11396,0 -3.8125,1.69853 -3.8125,3.8125 l 0,0.65625 c -1.19246,0.64257 -2,1.88761 -2,3.34375 l 0,275.59375 c 0,8.66088 6.96412,15.65625 15.625,15.65625 l 6,0 c -8.66088,0 -15.625,-6.99537 -15.625,-15.65625 l 0,-275.59375 c 0,-0.65783 0.17846,-1.27379 0.46875,-1.8125 l 7.5625,0 c 1.15166,0 2.09146,-0.87507 2.1875,-2 l 1.8125,0 c 1.2165,0 2.1875,-0.971 2.1875,-2.1875 l 0,-63.25 c 0,-0.9665 -0.7835,-1.75 -1.75,-1.75 l 0,-49.03125 -6,0 z m 165.375,406 -6.84375,5.28125 6,0 6.84375,-5.28125 -6,0 z m 52.75,0 6.84375,5.28125 6,0 L 345,577.125 l -6,0 z"
       id="rect5384-1"
       clip-path="url(#clipPath4087)"
       inkscape:connector-curvature="0"
       transform="translate(-110.405,57.59439)" />
  </g>
  <g
     inkscape:groupmode="layer"
     id="layer8"
     inkscape:label="In"
     style="display:inline"
     transform="translate(0,-97.72)">
    <rect
       style="fill:#39345e;fill-opacity:1;stroke:none"
       id="rect5714"
       width="264.81152"
       height="14.495688"
       x="71.81424"
       y="615.03961"
       ry="7.2478442" />
    <rect
       style="fill:none;stroke:#2c1d46;stroke-width:2;stroke-miterlimit:4;stroke-opacity:1;stroke-dasharray:none;display:inline;filter:url(#filter5734)"
       id="rect5714-1"
       width="264.81152"
       height="14.495688"
       x="182.21924"
       y="557.44525"
       ry="7.2478442"
       clip-path="url(#clipPath5756)"
       transform="translate(-110.405,57.59439)" />
  </g>
  <g
     inkscape:groupmode="layer"
     id="layer6"
     inkscape:label="Inner"
     style="display:inline"
     transform="translate(0,-97.72)">
    <rect
       style="fill:#302857;fill-opacity:1;stroke:none"
       id="rect5366"
       width="362.37006"
       height="450.51129"
       x="23.034973"
       y="153.46101"
       ry="28.814602" />
  </g>
  <g
     style="display:inline"
     inkscape:label="Label shade"
     id="g4756"
     inkscape:groupmode="layer"
     transform="translate(0,-97.72)">
    <rect
       ry="28.75"
       y="157.28151"
       x="33.503189"
       height="441.90735"
       width="341.43362"
       id="rect4758"
       style="fill:#000000;fill-opacity:0.78431373;stroke:none;filter:url(#filter4774)" />
  </g>
  <g
     inkscape:groupmode="layer"
     id="layer4"
     inkscape:label="Label"
     style="display:inline"
     transform="translate(0,-97.72)">
    <rect
       style="fill:url(#linearGradient5360);fill-opacity:1;stroke:none"
       id="rect5350"
       width="341.43362"
       height="441.90735"
       x="33.503189"
       y="157.20338"
       ry="28.75" />
    <rect
       style="fill:#ffffff;fill-opacity:1;stroke:none"
       id="rect5362"
       width="341.43399"
       height="8.4140825"
       x="33.503006"
       y="299.92648" />
  </g>
  <g
     style="display:inline"
     transform="translate(0,478.28)"
     inkscape:label="Text and logos shade"
     id="g4143"
     inkscape:groupmode="layer">
    <path
       sodipodi:nodetypes="cccccccccccccccc"
       inkscape:connector-curvature="0"
       id="path4145"
       d="m 89.367731,-163.24778 -4.91477,0 c 0.5403,4.45471 2.23632,8.97624 10.71732,8.76065 5.883019,0.2213 9.562819,-2.12779 10.447449,-7.73793 0.033,-3.98317 -1.86722,-6.16495 -3.85872,-7.22504 -2.362219,-1.2486 -5.231779,-0.9389 -7.556679,-1.30825 -2.16781,-0.1776 -4.1079,-0.6467 -4.66415,-2.88716 -0.231,-2.44539 1.1886,-4.17441 5.51137,-4.03409 3.62271,-0.052 5.344699,1.73496 5.340909,3.86363 l 4.375,0 c -0.6866,-3.35868 -1.2283,-6.97869 -9.602279,-7.67045 -7.7227,0.1888 -9.62581,3.7615 -9.91122,7.76633 0.3553,4.85259 3.32967,7.60706 9.41406,7.56393 1.6617,0.1641 5.876819,-0.2165 6.122159,3.76065 -0.023,3.14491 -3.388069,3.58864 -5.610789,3.58665 -4.40862,0.1467 -5.29776,-2.02201 -5.80966,-4.43892 z"
       style="fill:#000000;fill-opacity:0.39215686;stroke:none;filter:url(#filter4735)" />
    <path
       sodipodi:nodetypes="cccccccccccccc"
       inkscape:connector-curvature="0"
       id="path4147"
       d="m 120.22,-181.48642 -11.25,0.3125 0,26.25 11.25,0 c 4.0841,-0.5963 7.30222,-2.6954 8.75,-8.125 0.8588,-4.13688 0.5887,-7.63007 0,-11.25 -1.72011,-4.3436 -4.56656,-6.2501 -8.75,-7.1875 z m -6.5625,4.375 6.25,0 c 3.03646,1.00098 3.6726,2.1501 4.6875,4.6875 0.3342,2.32738 0.466,4.9261 0,8.125 -1.09831,2.87748 -1.88919,4.53379 -4.6875,5.3125 l -6.25,0 z"
       style="fill:#000000;fill-opacity:0.39215686;stroke:none;filter:url(#filter4731)" />
    <path
       sodipodi:nodetypes="cccccccccccc"
       inkscape:connector-curvature="0"
       id="path4149"
       d="m 154.43875,-172.85361 4.84375,0 c -0.5645,-4.99137 -3.03679,-8.49524 -9.72656,-8.71094 -9.23735,0.1073 -11.12627,5.74653 -11.17188,12.77344 -0.5256,10.8257 3.84629,14.70221 11.01563,14.60938 4.98638,-0.2241 8.94104,-2.60468 9.88281,-9.25781 l -4.6875,0 c -1.2099,3.93645 -2.83441,4.49274 -5.42969,4.60937 -3.58839,0.054 -5.74218,-2.73615 -5.74218,-5.42969 l 0,-6.64062 c 0,-5.7089 5.05187,-6.71876 6.13281,-6.71876 2.86203,0 4.88281,2.76012 4.88281,4.76563 z"
       style="fill:#000000;fill-opacity:0.39215686;stroke:none;filter:url(#filter4727)" />
    <path
       inkscape:connector-curvature="0"
       id="path4151"
       d="m 169.9075,-174.61142 c -6.24557,0.021 -8.4375,2.37119 -8.4375,5.9375 l 5,0 c 0,-1.22334 0.038,-2.8125 3.125,-2.8125 3.0077,0 3.125,2.38233 3.125,2.8125 l 0,1.5625 c -6.82831,-0.004 -9.42364,0.8923 -10.625,2.1875 -1.97893,1.64528 -0.8766,4.37952 -1.25,6.25 0.7654,3.06944 3.57015,4.67533 6.25,4.375 2.70364,0.331 4.89349,-0.4525 6.25,-3.4375 -0.066,2.40169 2.15241,3.3247 5.625,2.8125 l 0,-3.4375 c -0.9788,-0.1128 -1.875,-0.16586 -1.875,-2.8125 l 0,-6.875 c 0,-2.97836 -0.9068,-6.5625 -7.1875,-6.5625 z m 2.8125,10.625 c 0,0 0.7813,4.84375 -3.75,5.625 -4.53125,0.7813 -4.10156,-2.77344 -3.75,-3.125 0.3516,-0.3516 0.7813,-2.42188 7.5,-2.5 z"
       style="fill:#000000;fill-opacity:0.39215686;stroke:none;filter:url(#filter4723)" />
    <path
       sodipodi:nodetypes="ccccccccc"
       inkscape:connector-curvature="0"
       id="path4153"
       d="m 186.39188,-155.00205 -3.98438,0 0,-19.21875 3.28125,0 0.9375,2.57813 c 0.986,-2.25181 3.40546,-2.93979 6.67969,-2.69531 l 0,4.0625 c -3.50235,0 -6.91406,1.50629 -6.91406,4.88281 z"
       style="fill:#000000;fill-opacity:0.39215686;stroke:none;filter:url(#filter4719)" />
    <path
       inkscape:connector-curvature="0"
       id="path4155"
       d="m 207.095,-181.48642 0,8.75 c -1.43153,-1.45418 -3.0089,-2.1875 -5,-2.1875 -4.59171,0 -8.4375,4.59193 -8.4375,10.3125 0,5.72057 3.84579,10.3125 8.4375,10.3125 1.9911,0 3.56847,-1.04582 5,-2.5 l 0,1.5625 4.375,0 0,-26.25 -4.375,0 z m -4.375,10.3125 c 2.54756,0 4.6875,2.9471 4.6875,6.5625 0,3.6154 -2.13994,6.5625 -4.6875,6.5625 -2.54756,0 -4.6875,-2.9471 -4.6875,-6.5625 0,-3.6154 2.13994,-6.5625 4.6875,-6.5625 z"
       style="fill:#000000;fill-opacity:0.39215686;stroke:none;filter:url(#filter4715)" />
    <path
       inkscape:connector-curvature="0"
       id="path4157"
       d="m 104.2825,-121.48642 c -28.257259,0.1779 -36.393899,17.94677 -37.187499,34.375 l 21.5625,0 c 0.046,-7.84691 4.9348,-16.189 14.687499,-16.25 4.19845,0.1941 8.30155,0.5556 12.5,6.25 4.6754,9.94413 0.8161,15.97719 -3.125,22.1875 l -44.999999,53.437504 0,16.2499996 73.124999,0 0,-18.7499996 -45.312499,0 L 129.595,-65.23642 c 8.23546,-10.70421 13.0083,-22.01206 7.1875,-35.9375 -7.94389,-17.31365 -20.28591,-18.85961 -32.5,-20.3125 z"
       style="fill:#000000;fill-opacity:0.39215686;stroke:none;filter:url(#filter4711)" />
    <path
       inkscape:connector-curvature="0"
       id="path4159"
       d="m 177.4075,-75.54892 c -5.05856,0.2008 -9.55495,1.68583 -13.4375,3.75 -13.16733,6.944 -15.31889,18.00919 -15.3125,29.687504 -1.33147,16.33337 2.71803,25.28953 9.0625,31.25 6.29504,5.4123796 13.76862,9.4956796 25.625,6.8749996 3.49986,-0.9693 6.49004,-0.8967 12.1875,-7.8124996 l 1.5625,7.1874996 7.8125,0 0,-27.8124996 0,-10.625004 -7.8125,0 -21.25,0 0,10.625004 17.1875,0 c -0.1785,13.70238 -6.97303,15.47167 -13.4375,17.5 -5.34606,0.6848 -9.64454,-1.86194 -13.75,-5.3125 -2.86336,-4.05253 -5.20949,-9.20285 -4.375,-22.500004 -0.005,-10.08279 3.23369,-16.58388 9.6875,-20 6.17919,-2.06408 12.0497,-1.78867 17.1875,1.5625 2.35861,2.31702 3.501,4.96806 4.0625,7.8125 l 12.8125,0 c -0.2002,-7.78624 -4.45754,-14.05689 -11.875,-18.75 -5.41446,-2.63282 -10.87894,-3.63826 -15.9375,-3.4375 z"
       style="fill:#000000;fill-opacity:0.39215686;stroke:none;filter:url(#filter4707)" />
    <path
       inkscape:connector-curvature="0"
       id="path4161"
       d="m 248.345,-74.29892 0,0.3125 -17.8125,0 -13.4375,0 0,10.9375 0,46.562504 0,11.8749996 13.4375,0 17.8125,0 c 8.43967,-0.2357 16.2631,-1.86057 20.625,-11.5624996 2.4503,-5.62424 2.68463,-11.5813 -0.3125,-17.5 -1.75551,-3.8533 -4.75558,-5.1674 -7.8125,-6.5625 4.17365,-2.599604 7.44997,-5.807344 7.8125,-10.312504 1.00297,-5.50983 0.6285,-10.31525 -2.1875,-14.0625 -4.54854,-7.73955 -11.25691,-9.1965 -18.125,-9.6875 z m -17.8125,11.25 17.8125,0 c 2.84913,0.137 4.71923,1.21066 6.25,2.8125 1.23025,2.19578 1.96957,4.53202 1.875,6.875 -1.2574,6.01614 -4.71887,6.47158 -8.125,7.1875 l -17.8125,0 0,-16.875 z m 0,27.812504 17.8125,0 c 3.92548,0.4759 6.88654,2.1675 8.75,5 1.07594,3.12298 1.00399,6.05096 0.3125,8.4375 -3.00342,4.88561 -6.05908,4.8646 -9.0625,5.3125 l -17.8125,0 0,-18.75 z"
       style="fill:#000000;fill-opacity:0.39215686;stroke:none;filter:url(#filter4703)" />
    <rect
       y="-236.79892"
       x="46.899689"
       height="9.0234375"
       width="2.265625"
       id="rect4163"
       style="fill:#000000;fill-opacity:0.39215686;stroke:none;filter:url(#filter4699)" />
    <rect
       y="-236.79892"
       x="46.899689"
       height="2.6953125"
       width="13.43749"
       id="rect4165"
       style="fill:#000000;fill-opacity:0.39215686;stroke:none;filter:url(#filter4695)" />
    <path
       inkscape:connector-curvature="0"
       id="path4167"
       d="m 53.345001,-227.42392 c -4.05584,0 -7.1875,2.67988 -7.1875,5.9375 0,3.25762 3.13166,5.625 7.1875,5.625 4.05584,0 7.5,-2.36738 7.5,-5.625 0,-3.25762 -3.44416,-5.9375 -7.5,-5.9375 z m 0,2.1875 c 2.6967,0 5,1.81916 5,3.75 0,1.93084 -2.3033,3.4375 -5,3.4375 -2.6967,0 -4.6875,-1.50666 -4.6875,-3.4375 0,-1.93084 1.9908,-3.75 4.6875,-3.75 z"
       style="fill:#000000;fill-opacity:0.39215686;stroke:none;filter:url(#filter4691)" />
    <path
       sodipodi:nodetypes="ssccsssccss"
       inkscape:connector-curvature="0"
       id="path4169"
       d="m 53.345001,-214.29892 c -4.05584,0 -7.1875,2.67988 -7.1875,5.9375 0,2.5326 1.93916,3.92514 4.6875,4.6875 l 0,-2.5 c -1.31715,-0.60118 -2.1875,-0.93911 -2.1875,-2.1875 0,-1.93084 1.9908,-3.75 4.6875,-3.75 2.6967,0 5,1.81916 5,3.75 0,1.16516 -0.9297,1.56914 -2.1875,2.1875 l 0,2.5 c 2.67973,-0.81853 4.6875,-2.24428 4.6875,-4.6875 0,-3.25762 -3.44416,-5.9375 -7.5,-5.9375 z"
       style="fill:#000000;fill-opacity:0.39215686;stroke:none;filter:url(#filter4687)" />
    <path
       inkscape:connector-curvature="0"
       id="path4171"
       d="m 46.782501,-201.48642 0,2.5 3.125,0 2.8125,2.5 -5.9375,3.75 0,2.8125 7.8125,-5 5.625,5 0,-3.4375 -6.25,-5.625 6.25,0 0,-2.5 -13.4375,0 z"
       style="fill:#000000;fill-opacity:0.39215686;stroke:none;filter:url(#filter4683)" />
    <path
       sodipodi:nodetypes="ccccccccccccccccccccc"
       inkscape:connector-curvature="0"
       id="path4173"
       d="m 82.329371,-205.23642 c 17.837739,0.7505 33.593889,0.9907 42.920669,-0.3449 4.18582,-0.2215 7.68346,-2.45822 11.00557,-4.11849 1.57326,-1.07929 2.85252,-2.47155 3.41881,-4.62279 0.8004,-2.10179 -0.1046,-4.15495 -0.1547,-6.14328 -1.2883,-4.57798 -5.01855,-6.55646 -8.90912,-8.36427 -7.52607,-2.77646 -10.70696,-3.04902 -18.04687,-4.84375 -1.24893,-0.5188 -2.40642,-1.2397 -2.42187,-2.57813 0.2859,-1.60863 3.1069,-2.21657 7.34375,-2.26562 9.34479,-0.7534 19.46418,-0.2158 29.20898,-0.3025 l 3.64604,-7.56827 c -11.21706,-0.97 -22.6258,-0.5173 -34.14,0.7182 -9.11097,0.6203 -15.89293,2.75125 -19.555929,6.90534 -2.4205,3.59744 -0.8845,6.20575 0.7734,8.78359 4.381559,4.4948 10.220039,6.56139 16.462329,7.95496 1.40784,0.7654 3.66737,0.9295 4.60577,2.0263 0.9036,0.5534 0.027,1.53764 0.034,1.91735 -0.5268,0.3755 -1.5166,0.6138 -2.75819,0.7775 -4.09173,0.6101 -7.9667,0.3284 -11.77667,0.3016 -5.627759,-0.3499 -11.197199,-1.16642 -16.787179,-1.81867 z"
       style="fill:#000000;fill-opacity:0.39215686;stroke:none;filter:url(#filter4679)" />
    <path
       sodipodi:nodetypes="cccccccccc"
       inkscape:connector-curvature="0"
       id="path4175"
       d="m 149.04812,-221.48642 -5.78125,16.40625 c 13.40876,0.079 26.67223,0.3814 43.82813,-5.3125 6.72397,-2.12228 13.4483,-4.24039 19.76562,-10.9375 3.00396,-2.77581 3.66247,-6.26071 2.1875,-10.39062 -2.01594,-3.72908 -5.12169,-6.11193 -8.90625,-7.65625 l -24.92187,6.09375 c 0.5053,1.66667 0.032,3.33333 -0.7031,5 -2.59046,2.49681 -5.93377,3.73885 -9.45312,4.6875 -5.33855,1.33691 -10.67711,1.67779 -16.01566,2.10937 z"
       style="fill:#000000;fill-opacity:0.39215686;stroke:none;filter:url(#filter4675)" />
    <path
       sodipodi:nodetypes="ccccc"
       inkscape:connector-curvature="0"
       id="path4177"
       d="m 171.58719,-236.52548 c 1.03191,0.5414 1.7021,1.20346 2.10937,1.95312 l 20.15625,-7.30469 c -0.79661,-0.87107 -2.52537,-1.58718 -5.50781,-1.83593 z"
       style="fill:#000000;fill-opacity:0.39215686;stroke:none;filter:url(#filter4671)" />
    <path
       sodipodi:nodetypes="ccccc"
       inkscape:connector-curvature="0"
       id="path4179"
       d="m 155.25723,-239.26209 c 4.71808,0.1545 8.59532,0.7294 11.54573,1.76777 l 11.60097,-7.89971 c -6.66331,-0.9584 -13.61165,-1.15681 -20.71602,-0.9391 z"
       style="fill:#000000;fill-opacity:0.39215686;stroke:none;filter:url(#filter4667)" />
    <path
       inkscape:connector-curvature="0"
       id="path4181"
       d="m 309.595,-250.23642 c -18.76905,0 -34.0625,14.98095 -34.0625,33.75 0,18.76905 15.29345,34.0625 34.0625,34.0625 14.18129,0 26.13455,-8.88598 31.25,-21.25 l -7.8125,0 c -4.57989,8.31168 -13.31085,14.0625 -23.4375,14.0625 -14.79951,0 -26.875,-12.07549 -26.875,-26.875 0,-14.79951 12.07549,-26.5625 26.875,-26.5625 10.22267,0 18.89623,5.71362 23.4375,14.0625 l 8.125,0 c -5.02353,-12.4733 -17.24013,-21.25 -31.5625,-21.25 z"
       style="fill:#000000;fill-opacity:0.39215686;stroke:none;filter:url(#filter4663)" />
    <path
       inkscape:connector-curvature="0"
       id="path4183"
       d="m 298.6575,-232.11142 c -3.17717,0 -5.64884,2.51634 -5.9375,5.625 l 0,0.625 0,3.75 6.25,0 0,-2.1875 c 0,-1.25174 0.9358,-2.1875 2.1875,-2.1875 l 16.5625,0 c 1.25174,0 2.1875,0.9358 2.1875,2.1875 l 0,3.4375 c 0,1.60812 -1.20439,3.125 -2.8125,3.125 l -18.4375,0 c -3.17717,0 -5.64884,2.51634 -5.9375,5.625 l 0,0.625 0,5 0,6.25 6.25,0 28.125,0 0,-6.25 -28.125,0 0,-2.5 c 0,-1.60812 1.20439,-3.125 2.8125,-3.125 l 18.125,0 c 3.17717,0 5.64884,-2.51634 5.9375,-5.625 0.019,-0.2039 0,-0.4167 0,-0.625 l 0,-7.8125 c 0,-3.38551 -2.86449,-5.9375 -6.25,-5.9375 l -20.9375,0 z"
       style="fill:#000000;fill-opacity:0.39215686;stroke:none;filter:url(#filter4659)" />
    <rect
       y="-209.61142"
       x="196.54813"
       height="1.40625"
       width="5.1953125"
       id="rect4185"
       style="fill:#000000;fill-opacity:0.39215686;stroke:none;filter:url(#filter4655)" />
    <rect
       y="-208.71298"
       x="198.28641"
       height="5.8593726"
       width="1.71875"
       id="rect4187"
       style="fill:#000000;fill-opacity:0.39215686;stroke:none;filter:url(#filter4651)" />
    <path
       inkscape:connector-curvature="0"
       id="path4189"
       d="m 202.4075,-209.61142 0,6.875 1.47656,0 0,-4.375 2.06719,4.375 0.5906,0 1.77188,-4.375 0,4.375 1.47656,0 0,-6.875 -1.47656,0 -2.06719,4.375 -2.3625,-4.375 -1.47656,0 z"
       style="fill:#000000;fill-opacity:0.39215686;stroke:none;filter:url(#filter4647)" />
    <path
       sodipodi:nodetypes="cccc"
       inkscape:connector-curvature="0"
       id="path4191"
       d="m 46.148151,-257.65792 14.92496,0 -7.46248,13.59442 z"
       style="fill:#000000;fill-opacity:0.39215686;stroke:none;filter:url(#filter4643)" />
    <path
       sodipodi:nodetypes="cccccccccccccccccccccccccc"
       inkscape:connector-curvature="0"
       id="path4193"
       d="m 67.395651,-336.43365 -0.1243,9.56844 c -0.0284,1.4841 -0.009,1.55741 0.98321,2.02217 5.44204,2.51806 11.21989,4.51373 18.37164,4.37225 6.37413,0.1352 11.56755,-2.27276 15.234369,-7.96875 2.42244,-3.55025 3.75342,-8.13737 2.03125,-15.625 -1.75299,-3.706 -4.717259,-7.18887 -14.296819,-9.45313 -7.4207,-2.07369 -13.20818,-4.57969 -13.59375,-8.51562 0.4196,-2.63977 0.36,-5.35327 6.01562,-7.1875 3.61979,-0.5647 7.23959,-0.7957 10.85938,1.71875 2.56158,1.93201 3.95307,3.79547 4.76562,5.625 l 1.99177,0.1615 c 0.895119,0.0332 0.894869,0.0401 0.922299,-0.7077 l 0.26173,-8.70322 c 10e-4,-0.93494 -0.14807,-0.97541 -0.851999,-1.23847 -5.06359,-1.80793 -10.42128,-1.99829 -15.83948,-1.85586 -8.79246,0.003 -12.82438,3.94491 -15.625,8.90625 -2.7376,6.66323 -1.19348,12.42505 3.98437,17.42187 3.39179,2.63265 8.20404,4.89148 15.54688,6.48438 3.55797,1.32899 6.53326,3.13472 7.8125,6.32812 0.9763,5.65811 -2.13829,7.71623 -6.32813,8.82813 -7.70289,1.30187 -10.55359,-1.80734 -13.82812,-4.53125 -1.71453,-1.82551 -2.85469,-3.7946 -3.84607,-5.8009 -0.28456,-0.57307 -0.44294,-0.58244 -0.91788,-0.62887 l -2.80733,-0.10594 c -0.70138,0.0145 -0.71167,0.10834 -0.72176,0.88535 z"
       style="fill:#000000;fill-opacity:0.39215686;stroke:none;filter:url(#filter4639)" />
    <path
       sodipodi:nodetypes="ccccccccccccsccccccccccccccscc"
       inkscape:connector-curvature="0"
       id="path4195"
       d="m 125.22,-361.48642 c -7.19607,0.15076 -10.9466,0.99363 -12.50123,2.16513 -0.63357,0.47522 -0.62377,0.78427 -0.62377,1.55362 l 0,5.84375 c -0.0111,0.60837 0.29761,0.7641 0.70312,0.75 l 2.73438,0 c 0.67251,-0.003 0.72456,-0.21902 0.99197,-0.55239 2.158,-3.13836 4.98197,-5.33406 9.00803,-5.38511 2.64374,0.198 4.2869,1.14343 5.3125,2.8125 0.7445,1.47314 0.9205,2.90186 0.9375,4.375 l 0,5 c -3.39516,-0.2941 -7.13417,-0.28 -10.625,0 -10.08845,0.9803 -13.125,7.61337 -13.125,12.8125 0,4.89628 2.41508,8.27886 6.5625,10.3125 2.85559,1.30655 6.32221,2.117 10.9375,1.25 2.87798,-0.6463 5.03623,-2.27466 6.5625,-5.3125 0.8171,5.14793 3.81052,4.77891 13.4375,4.6875 l 1.25,-4.0625 c -2.55484,0.074 -4.28987,-0.019 -4.375,-1.5625 l 0,-23.125 c -0.3439,-3.7256 -0.3689,-5.17093 -2.5,-7.5 -1.60182,-2.25031 -7.19541,-4.1683 -14.6875,-4.0625 z m 2.8125,21.5625 c 1.32417,-0.055 2.45158,0.1355 3.75,0.3125 l 0,7.8125 c -2.07035,3.07681 -4.67296,4.35368 -7.5,4.6875 -1.91467,0.1749 -3.0795,-0.2862 -4.0625,-1.25 -1.60711,-1.39011 -1.5625,-3.10256 -1.5625,-5 0,-2.7311 1.59503,-5.30351 5,-5.9375 1.4552,-0.2518 2.94118,-0.5657 4.375,-0.625 z"
       style="fill:#000000;fill-opacity:0.39215686;stroke:none;filter:url(#filter4635)" />
    <path
       sodipodi:nodetypes="csscccccsscccccsscssscsscsscccssscssccccccsscsssccccccc"
       inkscape:connector-curvature="0"
       id="path4197"
       d="m 189.97,-374.20517 c -0.59579,0 -1.0625,0.993 -1.0625,2.25 0,1.257 0.46671,2.28125 1.0625,2.28125 11.49773,0 12.92164,0.35747 15.125,1.25 5.11558,2.91115 8.91986,6.93651 10.15625,12.90625 0.9778,4.84365 0.72713,9.58557 0.1875,14.3125 -0.0654,4.67737 -2.21941,8.35594 -5.21875,11.625 -3.7094,3.51202 -8.75307,4.34429 -14.21875,4.34375 l -4.625,0 c -0.69107,0 -1.25,-0.55893 -1.25,-1.25 l 0,-24.25 c -0.10935,-3.16966 -0.60569,-6.30266 -6.15625,-9.125 -2.07474,-0.91044 -5.27891,-1.32982 -10.0625,-1.0625 -3.78941,0.3523 -6.68912,2.54204 -8.84375,6.3125 l 0,-2.21875 0,-2.125 c 0,-0.53864 -0.46136,-0.96875 -1,-0.96875 l -9.4375,0 -4.96875,0 c -0.49188,0 -0.875,0.90928 -0.875,2.03125 0,1.12197 0.38312,2.03125 0.875,2.03125 l 2.21875,0 0.75,0 c 1.10457,0 2,0.89543 2,2 l 0,0.75 0,26.625 c 0,0.69107 -0.55893,1.25 -1.25,1.25 l -3.65625,0 -1.25,4.0625 16.59375,0 4.125,0 c 0.49187,0 0.875,-0.90926 0.875,-2.03125 0,-1.12196 -0.38313,-2.03125 -0.875,-2.03125 l -1.375,0 -0.75,0 c -1.10458,0 -2,-0.89542 -2,-2 l 0,-0.9375 0,-18.75 c 2.42114,-5.00506 5.26598,-8.65243 9.09375,-9.125 1.87649,-0.0232 3.26024,0.72796 4.3125,2 0.79266,1.01887 1.19211,2.11686 1.21875,3.3125 l 0,22.5625 0,0.9375 c 0,1.10458 -0.89543,2 -2,2 l -0.75,0 -1.6875,0 c -0.49188,0 -0.875,0.90929 -0.875,2.03125 0,1.12197 0.38312,2.03125 0.875,2.03125 l 4.4375,0 15.0625,0 c 8.16469,0.28303 15.03808,-0.15389 21,-3.15625 6.50933,-3.60939 11.00702,-8.55438 12.6875,-15.34375 0.84491,-6.03987 0.87337,-12.05388 -0.75,-18.09375 -4.56948,-10.85733 -11.40419,-13.39668 -18.40625,-15.21875 -2.39412,-0.53946 -4.99342,-1.13651 -19.3125,-1.21875 z"
       style="fill:#000000;fill-opacity:0.39215686;stroke:none;filter:url(#filter4631)" />
    <path
       inkscape:connector-curvature="0"
       id="path4199"
       d="m 234.1575,-359.92392 c -0.49188,0 -0.875,0.90928 -0.875,2.03125 0,1.12197 0.38312,2.03125 0.875,2.03125 l 2.21875,0 0.75,0 c 1.10457,0 2,0.89543 2,2 l 0,0.75 0,2.4375 0,1.125 0,22.375 c 0,1.10457 -0.89542,2 -2,2 l -0.75,0 -2.78125,0 c -0.49187,0 -0.875,0.90928 -0.875,2.03125 0,1.12196 0.38313,2.03125 0.875,2.03125 l 5.53125,0 10.4375,0 5.53125,0 c 0.49187,0 0.875,-0.90929 0.875,-2.03125 0,-1.12197 -0.38313,-2.03125 -0.875,-2.03125 l -2.78125,0 -0.75,0 c -1.10458,0 -2,-0.89543 -2,-2 l 0,-31.78125 c 0,-0.53864 -0.46136,-0.96875 -1,-0.96875 l -14.40625,0 z"
       style="fill:#000000;fill-opacity:0.39215686;stroke:none;filter:url(#filter4627)" />
    <rect
       transform="matrix(1,0,-0.27316317,0.96196771,-110.405,57.59439)"
       ry="1.2344489"
       y="-449.21613"
       x="228.64252"
       height="9.6096411"
       width="12.971641"
       id="rect4201"
       style="fill:#000000;fill-opacity:0.39215686;stroke:none;filter:url(#filter4623)" />
    <path
       sodipodi:nodetypes="ccccccccccccccccccccccccccc"
       inkscape:connector-curvature="0"
       id="path4203"
       d="m 260.00385,-333.74436 -0.0992,7.17147 c -0.0228,1.11235 -0.007,2.75827 0.78482,3.10662 4.34399,1.88724 8.95606,3.38298 14.66479,3.27695 5.08802,0.10139 9.23357,-1.70341 12.16051,-5.97251 1.93369,-2.66089 2.99611,-6.09891 1.62142,-11.71083 -1.39928,-2.77763 -3.58868,-6.00673 -11.23537,-7.70376 -5.92343,-1.55423 -9.74768,-2.81373 -10.05545,-5.76369 0.33495,-1.97848 0.19897,-3.92385 4.71347,-5.29859 2.88941,-0.42325 4.71819,0.15493 7.60761,2.0395 2.04473,1.44803 3.50901,2.22594 4.15761,3.59716 l 1.5899,0.12105 c 0.71452,0.0248 1.06788,-0.19097 1.08978,-0.75138 l 0.2089,-6.52299 c 8e-4,-0.70074 -0.11819,-0.73108 -0.68009,-0.92825 -4.04193,-1.35501 -8.71631,-1.80705 -13.04128,-1.7003 -7.01844,0.002 -10.36938,3.26606 -12.60493,6.98453 -2.18523,4.99405 -0.95269,10.28477 3.18043,14.02984 2.70743,1.97316 5.57644,3.48935 11.43771,4.68322 2.84008,0.99607 4.50795,1.64233 5.52907,4.03576 0.77932,4.24072 -1.08812,5.34132 -4.4326,6.17469 -6.14865,0.97573 -7.36352,-2.59202 -9.97736,-4.63359 -1.36857,-1.36819 -2.27869,-2.84401 -3.07001,-4.34773 -0.22716,-0.42951 -0.35359,-0.43654 -0.73271,-0.47132 l -2.24087,-0.0793 c -0.55988,0.0108 -0.5681,0.0811 -0.57615,0.66356 z"
       style="fill:#000000;fill-opacity:0.39215686;stroke:none;filter:url(#filter4619)" />
    <path
       sodipodi:nodetypes="ssscsssscsssccssscsscccccssscccsssccccssssccccccs"
       inkscape:connector-curvature="0"
       id="path4205"
       d="m 292.2825,-374.29892 c -0.49188,0 -0.875,0.90928 -0.875,2.03125 0,1.12197 0.38312,2.03125 0.875,2.03125 l 2.6875,0 0.75,0 c 1.10457,0 2,0.89543 2,2 l 0,41.0625 c 0,1.10457 -0.89543,2 -2,2 l -0.75,0 -2.6875,0 c -0.49188,0 -0.875,0.90928 -0.875,2.03125 0,1.12197 0.38312,2.03125 0.875,2.03125 l 5.4375,0 10.84375,0 4.34375,0 c 0.49188,0 0.875,-0.90928 0.875,-2.03125 0,-1.12197 -0.38312,-2.03125 -0.875,-2.03125 l -1.59375,0 -0.75,0 c -1.10457,0 -2,-0.89543 -2,-2 l 0,-8.25 2.8524,-3.08814 c 0.48294,-0.56867 1.14024,-0.7019 1.62209,-0.01 l 8.52294,12.24531 c 0.60672,0.83926 0.45846,1.66493 -0.65368,1.66493 l -1.90625,0 c -0.42493,0 -0.75,0.78076 -0.75,1.75 0,0.96924 0.32507,1.75 0.75,1.75 l 4.28125,0 11.96875,0 2.9375,0 1.375,0 c 0.42493,0 0.75,-0.78076 0.75,-1.75 0,-0.96924 -0.32507,-1.75 -0.75,-1.75 l -1.375,0 -0.5625,0 c -2.00991,0 -3.24624,-1.12474 -3.91262,-2.12914 l -13.68113,-20.62046 c 0,0 5.67016,-8.75 12.3125,-8.75 l 2.625,0 c 0.46554,0 0.8125,-0.84435 0.8125,-1.90625 0,-1.0619 -0.34696,-1.9375 -0.8125,-1.9375 l -2.625,0 -8.58644,0 c -1.2272,0 -2.0797,0.31564 -2.71075,1.26147 l -12.48406,17.67603 0,-33.28125 -10.84375,0 z"
       style="fill:#000000;fill-opacity:0.39215686;stroke:none;filter:url(#filter4615)" />
    <path
       sodipodi:nodetypes="ccccccscccsscscccccscscc"
       inkscape:connector-curvature="0"
       id="path4207"
       d="m 341.97,-359.86142 0,0.71875 0,3.90625 0.95313,0 0,-1.5625 1.64844,0 c 0.34321,-0.005 0.29355,0.28598 0.29355,1.30346 0,0.28144 0.18286,0.29029 0.45645,0.29029 l 0.5,0 0,-0.125 c -0.13551,-0.10611 -0.214,-0.19834 -0.23536,-0.38538 -0.0269,-0.23559 0.0185,-0.69754 -0.051,-0.94697 -0.0347,-0.12469 -0.0903,-0.12594 -0.18243,-0.23015 0.28559,0 0.47607,-0.30145 0.47607,-1.03946 0,-0.0414 8.6e-4,-0.45011 4.9e-4,-0.49179 0.0134,-0.92561 -0.7709,-1.47257 -1.5625,-1.4375 l -1.34375,0 z m 0.95313,0.71875 1.34375,0 c 0.54318,0 0.7958,0.35905 0.8125,0.78125 0,0.37072 -0.0546,0.84375 -0.5,0.84375 l -1.65625,0 z"
       style="fill:#000000;fill-opacity:0.39215686;stroke:none;filter:url(#filter4611)" />
    <path
       inkscape:connector-curvature="0"
       id="path4209"
       d="m 344.0325,-362.36142 c -2.67944,0 -4.84375,2.16431 -4.84375,4.84375 0,2.67944 2.16431,4.84375 4.84375,4.84375 2.67944,0 4.84375,-2.16431 4.84375,-4.84375 0,-2.67944 -2.16431,-4.84375 -4.84375,-4.84375 z m 0,1.03125 c 2.1099,0 3.8125,1.7026 3.8125,3.8125 0,2.1099 -1.7026,3.8125 -3.8125,3.8125 -2.1099,0 -3.8125,-1.7026 -3.8125,-3.8125 0,-2.1099 1.7026,-3.8125 3.8125,-3.8125 z"
       style="fill:#000000;fill-opacity:0.39215686;stroke:none;filter:url(#filter4607)" />
  </g>
  <g
     inkscape:groupmode="layer"
     id="layer2"
     inkscape:label="Text and logos"
     transform="translate(0,478.28)"
     style="display:inline">
    <path
       style="fill:#ffffff;fill-opacity:1;stroke:none"
       d="m 89.367731,-163.29197 -4.91477,0 c 0.5403,4.45471 2.23632,8.97624 10.71732,8.76065 5.883019,0.2213 9.562819,-2.12779 10.447449,-7.73793 0.033,-3.98317 -1.86722,-6.16495 -3.85872,-7.22504 -2.362219,-1.2486 -5.231779,-0.9389 -7.556679,-1.30825 -2.16781,-0.1776 -4.1079,-0.6467 -4.66415,-2.88716 -0.231,-2.44539 1.1886,-4.17441 5.51137,-4.03409 3.62271,-0.052 5.344699,1.73496 5.340909,3.86363 l 4.375,0 c -0.6866,-3.35868 -1.2283,-6.97869 -9.602279,-7.67045 -7.7227,0.1888 -9.62581,3.7615 -9.91122,7.76633 0.3553,4.85259 3.32967,7.60706 9.41406,7.56393 1.6617,0.1641 5.876819,-0.2165 6.122159,3.76065 -0.023,3.14491 -3.388069,3.58864 -5.610789,3.58665 -4.40862,0.1467 -5.29776,-2.02201 -5.80966,-4.43892 z"
       id="path3030"
       inkscape:connector-curvature="0"
       sodipodi:nodetypes="cccccccccccccccc" />
    <path
       style="fill:#ffffff;fill-opacity:1;stroke:none"
       d="m 120.22,-181.53061 -11.25,0.3125 0,26.25 11.25,0 c 4.0841,-0.5963 7.30222,-2.6954 8.75,-8.125 0.8588,-4.13688 0.5887,-7.63007 0,-11.25 -1.72011,-4.3436 -4.56656,-6.2501 -8.75,-7.1875 z m -6.5625,4.375 6.25,0 c 3.03646,1.00098 3.6726,2.1501 4.6875,4.6875 0.3342,2.32738 0.466,4.9261 0,8.125 -1.09831,2.87748 -1.88919,4.53379 -4.6875,5.3125 l -6.25,0 z"
       id="path3800"
       inkscape:connector-curvature="0"
       sodipodi:nodetypes="cccccccccccccc" />
    <path
       style="fill:#ffffff;fill-opacity:1;stroke:none"
       d="m 154.43875,-172.8978 4.84375,0 c -0.5645,-4.99137 -3.03679,-8.49524 -9.72656,-8.71094 -9.23735,0.1073 -11.12627,5.74653 -11.17188,12.77344 -0.5256,10.8257 3.84629,14.70221 11.01563,14.60938 4.98638,-0.2241 8.94104,-2.60468 9.88281,-9.25781 l -4.6875,0 c -1.2099,3.93645 -2.83441,4.49274 -5.42969,4.60937 -3.58839,0.054 -5.74218,-2.73615 -5.74218,-5.42969 l 0,-6.64062 c 0,-5.7089 5.05187,-6.71876 6.13281,-6.71876 2.86203,0 4.88281,2.76012 4.88281,4.76563 z"
       id="path3821"
       inkscape:connector-curvature="0"
       sodipodi:nodetypes="cccccccccccc" />
    <path
       style="fill:#ffffff;fill-opacity:1;stroke:none"
       d="m 169.9075,-174.65561 c -6.24557,0.021 -8.4375,2.37119 -8.4375,5.9375 l 5,0 c 0,-1.22334 0.038,-2.8125 3.125,-2.8125 3.0077,0 3.125,2.38233 3.125,2.8125 l 0,1.5625 c -6.82831,-0.004 -9.42364,0.8923 -10.625,2.1875 -1.97893,1.64528 -0.8766,4.37952 -1.25,6.25 0.7654,3.06944 3.57015,4.67533 6.25,4.375 2.70364,0.331 4.89349,-0.4525 6.25,-3.4375 -0.066,2.40169 2.15241,3.3247 5.625,2.8125 l 0,-3.4375 c -0.9788,-0.1128 -1.875,-0.16586 -1.875,-2.8125 l 0,-6.875 c 0,-2.97836 -0.9068,-6.5625 -7.1875,-6.5625 z m 2.8125,10.625 c 0,0 0.7813,4.84375 -3.75,5.625 -4.53125,0.7813 -4.10156,-2.77344 -3.75,-3.125 0.3516,-0.3516 0.7813,-2.42188 7.5,-2.5 z"
       id="path3823"
       inkscape:connector-curvature="0" />
    <path
       style="fill:#ffffff;fill-opacity:1;stroke:none"
       d="m 186.39188,-155.04624 -3.98438,0 0,-19.21875 3.28125,0 0.9375,2.57813 c 0.986,-2.25181 3.40546,-2.93979 6.67969,-2.69531 l 0,4.0625 c -3.50235,0 -6.91406,1.50629 -6.91406,4.88281 z"
       id="path3828"
       inkscape:connector-curvature="0"
       sodipodi:nodetypes="ccccccccc" />
    <path
       style="fill:#ffffff;fill-opacity:1;stroke:none"
       d="m 207.095,-181.53061 0,8.75 c -1.43153,-1.45418 -3.0089,-2.1875 -5,-2.1875 -4.59171,0 -8.4375,4.59193 -8.4375,10.3125 0,5.72057 3.84579,10.3125 8.4375,10.3125 1.9911,0 3.56847,-1.04582 5,-2.5 l 0,1.5625 4.375,0 0,-26.25 -4.375,0 z m -4.375,10.3125 c 2.54756,0 4.6875,2.9471 4.6875,6.5625 0,3.6154 -2.13994,6.5625 -4.6875,6.5625 -2.54756,0 -4.6875,-2.9471 -4.6875,-6.5625 0,-3.6154 2.13994,-6.5625 4.6875,-6.5625 z"
       id="rect3830"
       inkscape:connector-curvature="0" />
    <path
       style="fill:#ffffff;fill-opacity:1;stroke:none"
       d="m 104.2825,-121.53061 c -28.257259,0.1779 -36.393899,17.94677 -37.187499,34.375 l 21.5625,0 c 0.046,-7.84691 4.9348,-16.189 14.687499,-16.25 4.19845,0.1941 8.30155,0.5556 12.5,6.25 4.6754,9.94413 0.8161,15.97719 -3.125,22.1875 l -44.999999,53.4375 0,16.2499996 73.124999,0 0,-18.7499996 -45.312499,0 34.062499,-41.25 c 8.23546,-10.70421 13.0083,-22.01206 7.1875,-35.9375 -7.94389,-17.31365 -20.28591,-18.85961 -32.5,-20.3125 z"
       id="rect3838"
       inkscape:connector-curvature="0" />
    <path
       style="fill:#ffffff;fill-opacity:1;stroke:none"
       d="m 177.4075,-75.59311 c -5.05856,0.2008 -9.55495,1.68583 -13.4375,3.75 -13.16733,6.944 -15.31889,18.00919 -15.3125,29.6875 -1.33147,16.33337 2.71803,25.28953 9.0625,31.25 6.29504,5.4123796 13.76862,9.4956796 25.625,6.8749996 3.49986,-0.9693 6.49004,-0.8967 12.1875,-7.8124996 l 1.5625,7.1874996 7.8125,0 0,-27.8124996 0,-10.625 -7.8125,0 -21.25,0 0,10.625 17.1875,0 c -0.1785,13.70238 -6.97303,15.47167 -13.4375,17.5 -5.34606,0.6848 -9.64454,-1.86194 -13.75,-5.3125 -2.86336,-4.05253 -5.20949,-9.20285 -4.375,-22.5 -0.005,-10.08279 3.23369,-16.58388 9.6875,-20 6.17919,-2.06408 12.0497,-1.78867 17.1875,1.5625 2.35861,2.31702 3.501,4.96806 4.0625,7.8125 l 12.8125,0 c -0.2002,-7.78624 -4.45754,-14.05689 -11.875,-18.75 -5.41446,-2.63282 -10.87894,-3.63826 -15.9375,-3.4375 z"
       id="rect3850"
       inkscape:connector-curvature="0" />
    <path
       style="fill:#ffffff;fill-opacity:1;stroke:none"
       d="m 248.345,-74.34311 0,0.3125 -17.8125,0 -13.4375,0 0,10.9375 0,46.5625 0,11.8749996 13.4375,0 17.8125,0 c 8.43967,-0.2357 16.2631,-1.86057 20.625,-11.5624996 2.4503,-5.62424 2.68463,-11.5813 -0.3125,-17.5 -1.75551,-3.8533 -4.75558,-5.1674 -7.8125,-6.5625 4.17365,-2.5996 7.44997,-5.80734 7.8125,-10.3125 1.00297,-5.50983 0.6285,-10.31525 -2.1875,-14.0625 -4.54854,-7.73955 -11.25691,-9.1965 -18.125,-9.6875 z m -17.8125,11.25 17.8125,0 c 2.84913,0.137 4.71923,1.21066 6.25,2.8125 1.23025,2.19578 1.96957,4.53202 1.875,6.875 -1.2574,6.01614 -4.71887,6.47158 -8.125,7.1875 l -17.8125,0 0,-16.875 z m 0,27.8125 17.8125,0 c 3.92548,0.4759 6.88654,2.1675 8.75,5 1.07594,3.12298 1.00399,6.05096 0.3125,8.4375 -3.00342,4.88561 -6.05908,4.8646 -9.0625,5.3125 l -17.8125,0 0,-18.75 z"
       id="rect3869"
       inkscape:connector-curvature="0" />
    <rect
       style="fill:#ffffff;fill-opacity:1;stroke:none"
       id="rect3944"
       width="2.265625"
       height="9.0234375"
       x="46.899689"
       y="-236.84311" />
    <rect
       style="fill:#ffffff;fill-opacity:1;stroke:none"
       id="rect3946"
       width="13.43749"
       height="2.6953125"
       x="46.899689"
       y="-236.84311" />
    <path
       style="fill:#ffffff;fill-opacity:1;stroke:none"
       d="m 53.345001,-227.46811 c -4.05584,0 -7.1875,2.67988 -7.1875,5.9375 0,3.25762 3.13166,5.625 7.1875,5.625 4.05584,0 7.5,-2.36738 7.5,-5.625 0,-3.25762 -3.44416,-5.9375 -7.5,-5.9375 z m 0,2.1875 c 2.6967,0 5,1.81916 5,3.75 0,1.93084 -2.3033,3.4375 -5,3.4375 -2.6967,0 -4.6875,-1.50666 -4.6875,-3.4375 0,-1.93084 1.9908,-3.75 4.6875,-3.75 z"
       id="path3948"
       inkscape:connector-curvature="0" />
    <path
       style="fill:#ffffff;fill-opacity:1;stroke:none"
       d="m 53.345001,-214.34311 c -4.05584,0 -7.1875,2.67988 -7.1875,5.9375 0,2.5326 1.93916,3.92514 4.6875,4.6875 l 0,-2.5 c -1.31715,-0.60118 -2.1875,-0.93911 -2.1875,-2.1875 0,-1.93084 1.9908,-3.75 4.6875,-3.75 2.6967,0 5,1.81916 5,3.75 0,1.16516 -0.9297,1.56914 -2.1875,2.1875 l 0,2.5 c 2.67973,-0.81853 4.6875,-2.24428 4.6875,-4.6875 0,-3.25762 -3.44416,-5.9375 -7.5,-5.9375 z"
       id="path3948-4"
       inkscape:connector-curvature="0"
       sodipodi:nodetypes="ssccsssccss" />
    <path
       style="fill:#ffffff;fill-opacity:1;stroke:none"
       d="m 46.782501,-201.53061 0,2.5 3.125,0 2.8125,2.5 -5.9375,3.75 0,2.8125 7.8125,-5 5.625,5 0,-3.4375 -6.25,-5.625 6.25,0 0,-2.5 -13.4375,0 z"
       id="rect4002"
       inkscape:connector-curvature="0" />
    <path
       style="fill:#ffffff;fill-opacity:1;stroke:none"
       d="m 82.329371,-205.28061 c 14.93241,0.62826 28.406099,0.89892 37.870469,0.1869 6.77917,-0.58681 17.53053,-2.31337 19.47458,-9.27308 0.63034,-3.38345 0.0747,-7.09675 -1.94928,-9.67437 -1.78313,-2.2374 -4.4101,-3.57652 -7.11454,-4.83318 -7.52607,-2.77646 -10.70696,-3.04902 -18.04687,-4.84375 -1.24893,-0.5188 -2.40642,-1.2397 -2.42187,-2.57813 0.2859,-1.60863 3.1069,-2.21657 7.34375,-2.26562 9.34479,-0.7534 19.46418,-0.2158 29.20898,-0.3025 l 3.64604,-7.56827 c -11.21706,-0.97 -22.6258,-0.5173 -34.14,0.7182 -9.11097,0.6203 -15.89293,2.75125 -19.555929,6.90534 -2.4205,3.59744 -0.8845,6.20575 0.7734,8.78359 4.381559,4.4948 10.220039,6.56139 16.462329,7.95496 1.40784,0.7654 3.66737,0.9295 4.60577,2.0263 0.9036,0.5534 0.027,1.53764 0.034,1.91735 -0.5268,0.3755 -1.5166,0.6138 -2.75819,0.7775 -4.09173,0.6101 -7.9667,0.3284 -11.77667,0.3016 -5.627759,-0.3499 -11.197199,-1.16642 -16.787179,-1.81867 z"
       id="path4048"
       inkscape:connector-curvature="0"
       sodipodi:nodetypes="cccccccccccccccccccc" />
    <path
       style="fill:#ffffff;fill-opacity:1;stroke:none"
       d="m 149.04812,-221.53061 -5.78125,16.40625 c 13.40876,0.079 26.67223,0.3814 43.82813,-5.3125 6.72397,-2.12228 13.4483,-4.24039 19.76562,-10.9375 3.00396,-2.77581 3.66247,-6.26071 2.1875,-10.39062 -2.01594,-3.72908 -5.12169,-6.11193 -8.90625,-7.65625 l -24.92187,6.09375 c 0.5053,1.66667 0.032,3.33333 -0.7031,5 -2.59046,2.49681 -5.93377,3.73885 -9.45312,4.6875 -5.33855,1.33691 -10.67711,1.67779 -16.01566,2.10937 z"
       id="path4050"
       inkscape:connector-curvature="0"
       sodipodi:nodetypes="cccccccccc" />
    <path
       style="fill:#ffffff;fill-opacity:1;stroke:none"
       d="m 171.58719,-236.56967 c 1.03191,0.5414 1.7021,1.20346 2.10937,1.95312 l 20.15625,-7.30469 c -0.79661,-0.87107 -2.52537,-1.58718 -5.50781,-1.83593 z"
       id="path4052"
       inkscape:connector-curvature="0"
       sodipodi:nodetypes="ccccc" />
    <path
       style="fill:#ffffff;fill-opacity:1;stroke:none"
       d="m 155.25723,-239.30628 c 4.71808,0.1545 8.59532,0.7294 11.54573,1.76777 l 11.60097,-7.89971 c -6.66331,-0.9584 -13.61165,-1.15681 -20.71602,-0.9391 z"
       id="path4054"
       inkscape:connector-curvature="0"
       sodipodi:nodetypes="ccccc" />
    <path
       style="fill:#ffffff;fill-opacity:1;stroke:none"
       d="m 309.595,-250.28061 c -18.76905,0 -34.0625,14.98095 -34.0625,33.75 0,18.76905 15.29345,34.0625 34.0625,34.0625 14.18129,0 26.13455,-8.88598 31.25,-21.25 l -7.8125,0 c -4.57989,8.31168 -13.31085,14.0625 -23.4375,14.0625 -14.79951,0 -26.875,-12.07549 -26.875,-26.875 0,-14.79951 12.07549,-26.5625 26.875,-26.5625 10.22267,0 18.89623,5.71362 23.4375,14.0625 l 8.125,0 c -5.02353,-12.4733 -17.24013,-21.25 -31.5625,-21.25 z"
       id="path4056"
       inkscape:connector-curvature="0" />
    <path
       style="fill:#ffffff;fill-opacity:1;stroke:none"
       d="m 298.6575,-232.15561 c -3.17717,0 -5.64884,2.51634 -5.9375,5.625 l 0,0.625 0,3.75 6.25,0 0,-2.1875 c 0,-1.25174 0.9358,-2.1875 2.1875,-2.1875 l 16.5625,0 c 1.25174,0 2.1875,0.9358 2.1875,2.1875 l 0,3.4375 c 0,1.60812 -1.20439,3.125 -2.8125,3.125 l -18.4375,0 c -3.17717,0 -5.64884,2.51634 -5.9375,5.625 l 0,0.625 0,5 0,6.25 6.25,0 28.125,0 0,-6.25 -28.125,0 0,-2.5 c 0,-1.60812 1.20439,-3.125 2.8125,-3.125 l 18.125,0 c 3.17717,0 5.64884,-2.51634 5.9375,-5.625 0.019,-0.2039 0,-0.4167 0,-0.625 l 0,-7.8125 c 0,-3.38551 -2.86449,-5.9375 -6.25,-5.9375 l -20.9375,0 z"
       id="rect4080"
       inkscape:connector-curvature="0" />
    <rect
       style="fill:#ffffff;fill-opacity:1;stroke:none"
       id="rect4441"
       width="5.1953125"
       height="1.40625"
       x="196.54813"
       y="-209.65561" />
    <rect
       style="fill:#ffffff;fill-opacity:1;stroke:none"
       id="rect4443"
       width="1.71875"
       height="5.8593726"
       x="198.28641"
       y="-208.75717" />
    <path
       style="fill:#ffffff;fill-opacity:1;stroke:none"
       d="m 202.4075,-209.65561 0,6.875 1.47656,0 0,-4.375 2.06719,4.375 0.5906,0 1.77188,-4.375 0,4.375 1.47656,0 0,-6.875 -1.47656,0 -2.06719,4.375 -2.3625,-4.375 -1.47656,0 z"
       id="rect4445"
       inkscape:connector-curvature="0" />
    <path
       style="fill:#ffffff;fill-opacity:1;stroke:none"
       d="m 46.148151,-257.70211 14.92496,0 -7.46248,13.59442 z"
       id="rect4528"
       inkscape:connector-curvature="0"
       sodipodi:nodetypes="cccc" />
    <path
       style="fill:#ffffff;fill-opacity:1;stroke:none"
       d="m 67.395651,-336.47784 -0.1243,9.56844 c -0.0284,1.4841 -0.009,1.55741 0.98321,2.02217 5.44204,2.51806 11.21989,4.51373 18.37164,4.37225 6.37413,0.1352 11.56755,-2.27276 15.234369,-7.96875 2.42244,-3.55025 3.75342,-8.13737 2.03125,-15.625 -1.75299,-3.706 -4.717259,-7.18887 -14.296819,-9.45313 -7.4207,-2.07369 -13.20818,-4.57969 -13.59375,-8.51562 0.4196,-2.63977 0.36,-5.35327 6.01562,-7.1875 3.61979,-0.5647 7.23959,-0.7957 10.85938,1.71875 2.56158,1.93201 3.95307,3.79547 4.76562,5.625 l 1.99177,0.1615 c 0.895119,0.0332 0.894869,0.0401 0.922299,-0.7077 l 0.26173,-8.70322 c 10e-4,-0.93494 -0.14807,-0.97541 -0.851999,-1.23847 -5.06359,-1.80793 -10.42128,-1.99829 -15.83948,-1.85586 -8.79246,0.003 -12.82438,3.94491 -15.625,8.90625 -2.7376,6.66323 -1.19348,12.42505 3.98437,17.42187 3.39179,2.63265 8.20404,4.89148 15.54688,6.48438 3.55797,1.32899 6.53326,3.13472 7.8125,6.32812 0.9763,5.65811 -2.13829,7.71623 -6.32813,8.82813 -7.70289,1.30187 -10.55359,-1.80734 -13.82812,-4.53125 -1.71453,-1.82551 -2.85469,-3.7946 -3.84607,-5.8009 -0.28456,-0.57307 -0.44294,-0.58244 -0.91788,-0.62887 l -2.80733,-0.10594 c -0.70138,0.0145 -0.71167,0.10834 -0.72176,0.88535 z"
       id="path4531"
       inkscape:connector-curvature="0"
       sodipodi:nodetypes="cccccccccccccccccccccccccc" />
    <path
       style="fill:#ffffff;fill-opacity:1;stroke:none"
       d="m 125.22,-361.53061 c -7.19607,0.15076 -10.9466,0.99363 -12.50123,2.16513 -0.63357,0.47522 -0.62377,0.78427 -0.62377,1.55362 l 0,5.84375 c -0.0111,0.60837 0.29761,0.7641 0.70312,0.75 l 2.73438,0 c 0.67251,-0.003 0.72456,-0.21902 0.99197,-0.55239 2.158,-3.13836 4.98197,-5.33406 9.00803,-5.38511 2.64374,0.198 4.2869,1.14343 5.3125,2.8125 0.7445,1.47314 0.9205,2.90186 0.9375,4.375 l 0,5 c -3.39516,-0.2941 -7.13417,-0.28 -10.625,0 -10.08845,0.9803 -13.125,7.61337 -13.125,12.8125 0,4.89628 2.41508,8.27886 6.5625,10.3125 2.85559,1.30655 6.32221,2.117 10.9375,1.25 2.87798,-0.6463 5.03623,-2.27466 6.5625,-5.3125 0.8171,5.14793 3.81052,4.77891 13.4375,4.6875 l 1.25,-4.0625 c -2.55484,0.074 -4.28987,-0.019 -4.375,-1.5625 l 0,-23.125 c -0.3439,-3.7256 -0.3689,-5.17093 -2.5,-7.5 -1.60182,-2.25031 -7.19541,-4.1683 -14.6875,-4.0625 z m 2.8125,21.5625 c 1.32417,-0.055 2.45158,0.1355 3.75,0.3125 l 0,7.8125 c -2.07035,3.07681 -4.67296,4.35368 -7.5,4.6875 -1.91467,0.1749 -3.0795,-0.2862 -4.0625,-1.25 -1.60711,-1.39011 -1.5625,-3.10256 -1.5625,-5 0,-2.7311 1.59503,-5.30351 5,-5.9375 1.4552,-0.2518 2.94118,-0.5657 4.375,-0.625 z"
       id="rect4533"
       inkscape:connector-curvature="0"
       sodipodi:nodetypes="ccccccccccccsccccccccccccccscc" />
    <path
       style="fill:#ffffff;fill-opacity:1;stroke:none"
       d="m 189.97,-374.24936 c -0.59579,0 -1.0625,0.993 -1.0625,2.25 0,1.257 0.46671,2.28125 1.0625,2.28125 11.49773,0 12.92164,0.35747 15.125,1.25 5.11558,2.91115 8.91986,6.93651 10.15625,12.90625 0.9778,4.84365 0.72713,9.58557 0.1875,14.3125 -0.0654,4.67737 -2.21941,8.35594 -5.21875,11.625 -3.7094,3.51202 -8.75307,4.34429 -14.21875,4.34375 l -4.625,0 c -0.69107,0 -1.25,-0.55893 -1.25,-1.25 l 0,-24.25 c -0.10935,-3.16966 -0.60569,-6.30266 -6.15625,-9.125 -2.07474,-0.91044 -5.27891,-1.32982 -10.0625,-1.0625 -3.78941,0.3523 -6.68912,2.54204 -8.84375,6.3125 l 0,-2.21875 0,-2.125 c 0,-0.53864 -0.46136,-0.96875 -1,-0.96875 l -9.4375,0 -4.96875,0 c -0.49188,0 -0.875,0.90928 -0.875,2.03125 0,1.12197 0.38312,2.03125 0.875,2.03125 l 2.21875,0 0.75,0 c 1.10457,0 2,0.89543 2,2 l 0,0.75 0,26.625 c 0,0.69107 -0.55893,1.25 -1.25,1.25 l -3.65625,0 -1.25,4.0625 16.59375,0 4.125,0 c 0.49187,0 0.875,-0.90926 0.875,-2.03125 0,-1.12196 -0.38313,-2.03125 -0.875,-2.03125 l -1.375,0 -0.75,0 c -1.10458,0 -2,-0.89542 -2,-2 l 0,-0.9375 0,-18.75 c 2.42114,-5.00506 5.26598,-8.65243 9.09375,-9.125 1.87649,-0.0232 3.26024,0.72796 4.3125,2 0.79266,1.01887 1.19211,2.11686 1.21875,3.3125 l 0,22.5625 0,0.9375 c 0,1.10458 -0.89543,2 -2,2 l -0.75,0 -1.6875,0 c -0.49188,0 -0.875,0.90929 -0.875,2.03125 0,1.12197 0.38312,2.03125 0.875,2.03125 l 4.4375,0 15.0625,0 c 8.16469,0.28303 15.03808,-0.15389 21,-3.15625 6.50933,-3.60939 11.00702,-8.55438 12.6875,-15.34375 0.84491,-6.03987 0.87337,-12.05388 -0.75,-18.09375 -4.56948,-10.85733 -11.40419,-13.39668 -18.40625,-15.21875 -2.39412,-0.53946 -4.99342,-1.13651 -19.3125,-1.21875 z"
       id="rect4606"
       inkscape:connector-curvature="0"
       sodipodi:nodetypes="csscccccsscccccsscssscsscsscccssscssccccccsscsssccccccc" />
    <path
       style="fill:#ffffff;fill-opacity:1;stroke:none"
       d="m 234.1575,-359.96811 c -0.49188,0 -0.875,0.90928 -0.875,2.03125 0,1.12197 0.38312,2.03125 0.875,2.03125 l 2.21875,0 0.75,0 c 1.10457,0 2,0.89543 2,2 l 0,0.75 0,2.4375 0,1.125 0,22.375 c 0,1.10457 -0.89542,2 -2,2 l -0.75,0 -2.78125,0 c -0.49187,0 -0.875,0.90928 -0.875,2.03125 0,1.12196 0.38313,2.03125 0.875,2.03125 l 5.53125,0 10.4375,0 5.53125,0 c 0.49187,0 0.875,-0.90929 0.875,-2.03125 0,-1.12197 -0.38313,-2.03125 -0.875,-2.03125 l -2.78125,0 -0.75,0 c -1.10458,0 -2,-0.89543 -2,-2 l 0,-31.78125 c 0,-0.53864 -0.46136,-0.96875 -1,-0.96875 l -14.40625,0 z"
       id="rect4606-7"
       inkscape:connector-curvature="0" />
    <rect
       style="fill:#ffffff;fill-opacity:1;stroke:none"
       id="rect4932"
       width="12.971641"
       height="9.6096411"
       x="134.57965"
       y="-389.39062"
       ry="1.2344489"
       transform="matrix(1,0,-0.27316317,0.96196771,0,0)" />
    <path
       style="fill:#ffffff;fill-opacity:1;stroke:none"
       d="m 260.00385,-333.78855 -0.0992,7.17147 c -0.0228,1.11235 -0.007,2.75827 0.78482,3.10662 4.34399,1.88724 8.95606,3.38298 14.66479,3.27695 5.08802,0.10139 9.23357,-1.70341 12.16051,-5.97251 1.93369,-2.66089 2.99611,-6.09891 1.62142,-11.71083 -1.39928,-2.77763 -3.58868,-6.00673 -11.23537,-7.70376 -5.92343,-1.55423 -9.74768,-2.81373 -10.05545,-5.76369 0.33495,-1.97848 0.19897,-3.92385 4.71347,-5.29859 2.88941,-0.42325 4.71819,0.15493 7.60761,2.0395 2.04473,1.44803 3.50901,2.22594 4.15761,3.59716 l 1.5899,0.12105 c 0.71452,0.0248 1.06788,-0.19097 1.08978,-0.75138 l 0.2089,-6.52299 c 8e-4,-0.70074 -0.11819,-0.73108 -0.68009,-0.92825 -4.04193,-1.35501 -8.71631,-1.80705 -13.04128,-1.7003 -7.01844,0.002 -10.36938,3.26606 -12.60493,6.98453 -2.18523,4.99405 -0.95269,10.28477 3.18043,14.02984 2.70743,1.97316 5.57644,3.48935 11.43771,4.68322 2.84008,0.99607 4.50795,1.64233 5.52907,4.03576 0.77932,4.24072 -1.08812,5.34132 -4.4326,6.17469 -6.14865,0.97573 -7.36352,-2.59202 -9.97736,-4.63359 -1.36857,-1.36819 -2.27869,-2.84401 -3.07001,-4.34773 -0.22716,-0.42951 -0.35359,-0.43654 -0.73271,-0.47132 L 260.58,-334.452 c -0.55988,0.0108 -0.5681,0.0811 -0.57615,0.66356 z"
       id="path4531-3"
       inkscape:connector-curvature="0"
       sodipodi:nodetypes="ccccccccccccccccccccccccccc" />
    <path
       style="fill:#ffffff;fill-opacity:1;stroke:none"
       d="m 292.2825,-374.34311 c -0.49188,0 -0.875,0.90928 -0.875,2.03125 0,1.12197 0.38312,2.03125 0.875,2.03125 l 2.6875,0 0.75,0 c 1.10457,0 2,0.89543 2,2 l 0,41.0625 c 0,1.10457 -0.89543,2 -2,2 l -0.75,0 -2.6875,0 c -0.49188,0 -0.875,0.90928 -0.875,2.03125 0,1.12197 0.38312,2.03125 0.875,2.03125 l 5.4375,0 10.84375,0 4.34375,0 c 0.49188,0 0.875,-0.90928 0.875,-2.03125 0,-1.12197 -0.38312,-2.03125 -0.875,-2.03125 l -1.59375,0 -0.75,0 c -1.10457,0 -2,-0.89543 -2,-2 l 0,-8.25 2.8524,-3.08814 c 0.48294,-0.56867 1.14024,-0.7019 1.62209,-0.01 l 8.52294,12.24531 c 0.60672,0.83926 0.45846,1.66493 -0.65368,1.66493 l -1.90625,0 c -0.42493,0 -0.75,0.78076 -0.75,1.75 0,0.96924 0.32507,1.75 0.75,1.75 l 4.28125,0 11.96875,0 2.9375,0 1.375,0 c 0.42493,0 0.75,-0.78076 0.75,-1.75 0,-0.96924 -0.32507,-1.75 -0.75,-1.75 l -1.375,0 -0.5625,0 c -2.00991,0 -3.24624,-1.12474 -3.91262,-2.12914 l -13.68113,-20.62046 c 0,0 5.67016,-8.75 12.3125,-8.75 l 2.625,0 c 0.46554,0 0.8125,-0.84435 0.8125,-1.90625 0,-1.0619 -0.34696,-1.9375 -0.8125,-1.9375 l -2.625,0 -8.58644,0 c -1.2272,0 -2.0797,0.31564 -2.71075,1.26147 l -12.48406,17.67603 0,-33.28125 -10.84375,0 z"
       id="rect4606-7-1-8"
       inkscape:connector-curvature="0"
       sodipodi:nodetypes="ssscsssscsssccssscsscccccssscccsssccccssssccccccs" />
    <path
       style="fill:#ffffff;fill-opacity:1;stroke:none"
       d="m 341.97,-359.90561 0,0.71875 0,3.90625 0.95313,0 0,-1.5625 1.64844,0 c 0.34321,-0.005 0.29355,0.28598 0.29355,1.30346 0,0.28144 0.18286,0.29029 0.45645,0.29029 l 0.5,0 0,-0.125 c -0.13551,-0.10611 -0.214,-0.19834 -0.23536,-0.38538 -0.0269,-0.23559 0.0185,-0.69754 -0.051,-0.94697 -0.0347,-0.12469 -0.0903,-0.12594 -0.18243,-0.23015 0.28559,0 0.47607,-0.30145 0.47607,-1.03946 0,-0.0414 8.6e-4,-0.45011 4.9e-4,-0.49179 0.0134,-0.92561 -0.7709,-1.47257 -1.5625,-1.4375 l -1.34375,0 z m 0.95313,0.71875 1.34375,0 c 0.54318,0 0.7958,0.35905 0.8125,0.78125 0,0.37072 -0.0546,0.84375 -0.5,0.84375 l -1.65625,0 z"
       id="rect5275"
       inkscape:connector-curvature="0"
       sodipodi:nodetypes="ccccccscccsscscccccscscc" />
    <path
       style="fill:#ffffff;fill-opacity:1;stroke:none"
       d="m 344.0325,-362.40561 c -2.67944,0 -4.84375,2.16431 -4.84375,4.84375 0,2.67944 2.16431,4.84375 4.84375,4.84375 2.67944,0 4.84375,-2.16431 4.84375,-4.84375 0,-2.67944 -2.16431,-4.84375 -4.84375,-4.84375 z m 0,1.03125 c 2.1099,0 3.8125,1.7026 3.8125,3.8125 0,2.1099 -1.7026,3.8125 -3.8125,3.8125 -2.1099,0 -3.8125,-1.7026 -3.8125,-3.8125 0,-2.1099 1.7026,-3.8125 3.8125,-3.8125 z"
       id="path5328"
       inkscape:connector-curvature="0" />
  </g>
</svg>
